<?xml version="1.0" standalone="no"?>
<!DOCTYPE svg PUBLIC "-//W3C//DTD SVG 1.1//EN" "http://www.w3.org/Graphics/SVG/1.1/DTD/svg11.dtd" >
<svg xmlns="http://www.w3.org/2000/svg">
<metadata></metadata>
<defs>
<font id="texgyrescholabold_italic" horiz-adv-x="333" >
<font-face units-per-em="1000" ascent="798" descent="-202" />
<missing-glyph horiz-adv-x="287" />
<glyph unicode="IJ" horiz-adv-x="1076" d="M83 0l7 54h20q49 0 63 14q7 6 10.5 15.5t16.5 60.5l116 434q14 48 14 63q0 17 -15 22t-64 5h-22l8 54h373l-7 -54h-21q-48 0 -62 -14q-7 -5 -10 -14.5t-17 -61.5l-116 -434q-14 -55 -14 -63q0 -17 15 -22t64 -5h22l-8 -54h-373zM491 169q0 70 37.5 114.5t95.5 44.5 q48 0 77.5 -26.5t29.5 -70.5q0 -39 -25 -66t-62 -27q-11 0 -26.5 5.5t-27.5 11t-13 5.5q-18 0 -18 -25q0 -39 32 -66t79 -27q75 0 120 72q17 27 24.5 48.5t27.5 97.5l85 318q14 50 14 63q0 17 -15 22t-64 5h-30l8 54h378l-7 -54h-20q-46 0 -61 -14q-6 -6 -9 -15.5t-17 -60.5 l-82 -304q-26 -97 -32.5 -117.5t-19.5 -43.5q-37 -67 -95.5 -97.5t-148.5 -30.5q-113 0 -174 47.5t-61 136.5z" />
<glyph unicode="ij" horiz-adv-x="787" d="M161 417l7 47l267 14l-105 -356q-10 -34 -10 -42q0 -16 16 -16q30 0 101 113l39 -28q-51 -86 -100.5 -125t-106.5 -39q-45 0 -74.5 25.5t-29.5 64.5q0 23 15 74l51 170q15 50 15 67q0 19 -12 25t-49 6h-24zM321 631q0 29 21 50t51 21q29 0 50 -21t21 -50q0 -30 -21 -51 t-51 -21q-29 0 -50 21.5t-21 50.5zM342 -90q0 37 21.5 60t56.5 23q34 0 54 -20t20 -55q0 -20 -5.5 -29.5t-22.5 -19.5q-6 -3 -6 -10q0 -12 17 -12q29 0 49 32t46 121l95 319q15 52 15 67q0 19 -12 25t-49 6h-32l7 47l275 14l-119 -403q-24 -79 -40.5 -115.5t-45.5 -71.5 q-72 -90 -178 -90q-63 0 -104.5 31.5t-41.5 80.5zM755 631q0 29 21 50t51 21q29 0 50 -21t21 -50q0 -30 -21 -51t-51 -21q-29 0 -50 21.5t-21 50.5z" />
<glyph unicode="fk" horiz-adv-x="1017" d="M-48 -205q43 67 117 338l64 270h-99l17 61h98q20 73 41 117t51 77q73 79 172 79q40 0 71 -14l256 13l-109 -365q58 61 102.5 84.5t98.5 23.5q52 0 85 -27t33 -71q0 -72 -92 -123q-38 -22 -102 -43q34 -19 46 -43.5t17 -87.5q2 -19 16 -19q17 0 37 24.5t38 68.5l43 -23 q-38 -79 -81 -114.5t-100 -35.5q-49 0 -75.5 28t-26.5 80q0 23 5 55q4 19 4 33q0 8 -5 17q-8 -1 -21 -1q-17 0 -26.5 8t-9.5 21.5t10 22t26 8.5t46 -13q114 38 114 107q0 20 -13 32.5t-34 12.5q-51 0 -117 -80q-30 -36 -49.5 -78t-41.5 -115l-37 -123h-157l171 578 q-23 -30 -63 -30q-29 0 -48.5 19t-19.5 47q0 26 24 57l5 9q0 10 -22 10q-36 0 -57.5 -37.5t-48.5 -147.5l-10 -41h127l-16 -61h-125l-47 -214q-46 -218 -101 -368z" />
<glyph unicode="ff" horiz-adv-x="778" d="M-48 -205q43 67 117 338l64 270h-99l17 61h98q37 134 92 194q73 79 172 79q60 0 98.5 -31t38.5 -79q0 -34 -22 -56.5t-56 -22.5q-29 0 -48.5 19t-19.5 47q0 26 24 57l5 9q0 10 -22 10q-36 0 -57.5 -37.5t-48.5 -147.5l-10 -41h243q37 134 92 194q73 79 172 79 q60 0 98.5 -31t38.5 -79q0 -34 -22 -56.5t-56 -22.5q-29 0 -48.5 19t-19.5 47q0 26 24 57l5 9q0 10 -22 10q-36 0 -57.5 -37.5t-48.5 -147.5l-10 -41h127l-16 -61h-125l-47 -214q-46 -218 -101 -368l-181 -26q43 67 117 338l64 270h-241l-47 -214q-46 -218 -101 -368z" />
<glyph unicode="fi" horiz-adv-x="685" d="M-70 -205q44 69 117 337l64 271h-99l17 61h98q49 147 122 210t193 63q77 0 124 -30.5t47 -81.5q0 -34 -23 -56.5t-57 -22.5t-55.5 19t-21.5 50q0 22 16 46q8 10 8 15q0 14 -33 14q-52 0 -94 -45q-49 -51 -80 -181h65q82 0 267 14l-105 -356q-10 -33 -10 -42q0 -16 16 -16 q31 0 101 113l39 -28q-51 -86 -100.5 -125t-106.5 -39q-45 0 -74.5 25.5t-29.5 64.5q0 23 15 74l47 157q16 56 16 70q0 11 -8.5 19t-21.5 8h-124l-47 -215q-47 -222 -101 -367z" />
<glyph unicode="fl" horiz-adv-x="685" d="M-70 -205q44 69 117 337l64 271h-99l17 61h98q29 85 50.5 125t53.5 69q26 24 59 41.5t69.5 27t71.5 9.5q43 0 87 -15l163 15l-182 -614q-10 -30 -10 -42q0 -16 16 -16q21 0 60 49q32 39 46 64l39 -28q-31 -56 -86 -108q-59 -56 -125 -56q-46 0 -74 25t-28 66q0 32 22 107 l116 391q-25 21 -25 47q0 23 23 49l4 7q0 12 -37 12q-35 0 -63.5 -19t-48 -54t-31.5 -70t-24 -82h127l-16 -61h-125l-47 -215q-47 -222 -101 -367z" />
<glyph unicode="ffi" horiz-adv-x="1084" d="M-48 -205q43 67 117 338l64 270h-99l17 61h98q37 134 92 194q73 79 172 79q60 0 98.5 -31t38.5 -79q0 -34 -22 -56.5t-56 -22.5q-29 0 -48.5 19t-19.5 47q0 26 24 57l5 9q0 10 -22 10q-36 0 -57.5 -37.5t-48.5 -147.5l-10 -41h231q49 147 122 210t193 63q77 0 124 -30.5 t47 -81.5q0 -34 -23 -56.5t-57 -22.5t-55.5 19t-21.5 50q0 22 16 46q8 10 8 15q0 14 -33 14q-52 0 -94 -45q-49 -51 -80 -181h65q82 0 267 14l-105 -356q-10 -33 -10 -42q0 -16 16 -16q31 0 101 113l39 -28q-51 -86 -100.5 -125t-106.5 -39q-45 0 -74.5 25.5t-29.5 64.5 q0 23 15 74l47 157q16 56 16 70q0 11 -8.5 19t-21.5 8h-124l-47 -215q-47 -222 -101 -367l-181 -26q44 69 117 337l64 271h-229l-47 -214q-46 -218 -101 -368z" />
<glyph unicode="ffl" horiz-adv-x="1074" d="M-48 -205q43 67 117 338l64 270h-99l17 61h98q20 73 41 117t51 77q73 79 172 79q60 0 98.5 -31t38.5 -79q0 -23 -10 -41t-28 -28t-40 -10q-29 0 -48.5 19t-19.5 47q0 15 4.5 26.5t19.5 30.5l5 9q0 10 -22 10q-25 0 -41.5 -16.5t-31.5 -55t-33 -113.5l-10 -41h221 q29 85 50.5 125t53.5 69q26 24 59 41.5t69.5 27t71.5 9.5q44 0 87 -15l163 15l-182 -614q-10 -30 -10 -42q0 -16 16 -16q21 0 60 49q32 39 46 64l39 -28q-31 -56 -86 -108q-59 -56 -125 -56q-46 0 -74 25t-28 66q0 32 22 107l116 391q-25 21 -25 47q0 23 23 49l4 7 q0 12 -37 12q-35 0 -63.5 -19t-48 -54t-31.5 -70t-24 -82h127l-16 -61h-125l-47 -215q-47 -222 -101 -367l-181 -26q44 69 117 337l64 271h-219l-47 -214q-46 -218 -101 -368z" />
<glyph unicode=" "  horiz-adv-x="287" />
<glyph unicode="&#x09;" horiz-adv-x="287" />
<glyph unicode="&#xa0;" horiz-adv-x="287" />
<glyph unicode="!" d="M3 72q0 36 25.5 61.5t61.5 25.5t61.5 -25.5t25.5 -61.5t-25.5 -61.5t-62.5 -25.5q-35 0 -60.5 26t-25.5 61zM100 216q45 202 51 351q3 68 7 92t17 43q24 35 63 35q43 0 70.5 -22.5t27.5 -57.5q0 -24 -7 -42t-48 -101q-72 -144 -129 -311z" />
<glyph unicode="&#x22;" horiz-adv-x="400" d="M100 410l21 236q8 88 74 88q31 0 52.5 -20.5t21.5 -50.5q0 -25 -16 -54l-107 -212zM338 410l21 236q8 88 74 88q31 0 52.5 -20.5t21.5 -50.5q0 -25 -16 -54l-107 -212z" />
<glyph unicode="#" horiz-adv-x="574" d="M41 221v83h106l16 108h-96v83h107l30 205h90l-30 -205h86l29 205h90l-29 -205h93v-83h-105l-15 -108h94v-83h-106l-32 -221h-90l32 221h-86l-32 -221h-90l32 221h-94zM237 304h85l16 108h-85z" />
<glyph unicode="$" horiz-adv-x="574" d="M3 151q0 45 24.5 72.5t65.5 27.5q33 0 54.5 -19.5t21.5 -50.5q0 -42 -42 -63q-25 -14 -25 -27q0 -32 77 -51l66 245l-14 7q-135 63 -135 183q0 98 69 158.5t181 60.5h8l27 100h54l-28 -106q71 -13 111.5 -54.5t40.5 -101.5q0 -40 -23 -64.5t-60 -24.5q-32 0 -52 20 t-20 52q0 44 46 64q13 6 13 15q0 14 -19.5 27t-49.5 19l-61 -226l26 -12q67 -32 104 -82t37 -108q0 -66 -41.5 -123.5t-107.5 -82.5q-55 -21 -124 -21h-9l-35 -130h-54l37 136q-75 14 -119 57.5t-44 102.5zM208 533q0 -62 78 -95l55 206q-63 -2 -98 -31.5t-35 -79.5zM231 34 q66 2 108 35t42 84q0 37 -20 61.5t-68 48.5z" />
<glyph unicode="%" horiz-adv-x="889" d="M51 443q0 92 74.5 178.5t161.5 86.5q56 0 93 -48q40 -20 87 -20q100 0 162 82h47l-414 -722h-52l352 615q-55 -18 -98 -18q-30 0 -63 9q3 -25 3 -37q0 -92 -69 -173t-151 -81q-58 0 -95.5 36t-37.5 92zM155 418q0 -24 14 -39t37 -15q57 0 107.5 69.5t50.5 148.5 q0 18 -6 37q-35 13 -58 39q-28 -10 -43 -25.5t-42 -63.5q-60 -105 -60 -151zM481 140q0 96 72.5 181.5t160.5 85.5q53 0 87.5 -35t34.5 -89q0 -56 -28 -118t-80 -106.5t-112 -44.5q-59 0 -97 35.5t-38 90.5zM583 115q0 -22 14.5 -37t35.5 -15q58 0 109.5 70t51.5 147 q0 32 -16.5 54t-40.5 22q-39 0 -82 -69q-72 -119 -72 -172z" />
<glyph unicode="&#x26;" horiz-adv-x="889" d="M31 179q0 90 56.5 144.5t182.5 101.5q-15 58 -15 103q0 101 57 155t160 54q84 0 133 -37t49 -101q0 -61 -49.5 -101.5t-165.5 -72.5q13 -52 42.5 -122.5t59.5 -120.5q49 51 67 76.5t18 45.5q0 19 -15 28.5t-70 13.5l6 51h276l-6 -51q-53 -5 -83.5 -28.5t-100.5 -114.5 q-17 -22 -64 -69q34 -40 52.5 -53.5t41.5 -13.5q46 0 104 83l39 -30q-87 -135 -217 -135q-92 0 -150 63q-89 -63 -191 -63q-97 0 -157 53.5t-60 140.5zM199 240q0 -73 38.5 -122t96.5 -49q34 0 72 21q-76 122 -123 282q-84 -39 -84 -132zM410 575q0 -46 15 -98 q115 45 115 135q0 32 -17 52.5t-44 20.5q-32 0 -50.5 -29t-18.5 -81z" />
<glyph unicode="'" horiz-adv-x="287" d="M100 410l21 236q8 88 74 88q31 0 52.5 -20.5t21.5 -50.5q0 -25 -16 -54l-107 -212z" />
<glyph unicode="(" horiz-adv-x="407" d="M71 238q0 158 102 297t263 202l16 -32q-70 -40 -112.5 -89t-76.5 -127q-33 -77 -55.5 -184t-22.5 -188q0 -119 66 -213l-30 -22q-72 73 -111 165.5t-39 190.5z" />
<glyph unicode=")" horiz-adv-x="407" d="M-70 -86q68 40 110 89t76 127q33 77 55.5 184.5t22.5 187.5q0 118 -66 213l30 22q72 -73 111 -165.5t39 -190.5q0 -158 -101.5 -298t-260.5 -201z" />
<glyph unicode="*" horiz-adv-x="500" d="M32 470q0 21 18 36t43 15q10 0 45 -6q15 -3 24 -3q17 0 47 8l17 4l-12 13q-23 22 -34.5 28t-49.5 18q-52 17 -52 60q0 20 13 33.5t32 13.5q28 0 47 -25q9 -12 23 -50q7 -19 14 -29.5t25 -29.5l13 -13l5 17q7 25 7 44q0 11 -9 52q-3 12 -3 23q0 23 15.5 40.5t37.5 17.5 q20 0 34.5 -15t14.5 -36q0 -17 -6.5 -28.5t-32.5 -40.5q-21 -23 -33 -64l-4 -17l17 5q31 9 41.5 15.5t40.5 33.5q25 22 51 22q21 0 36 -14.5t15 -34.5q0 -22 -17 -37t-42 -15q-11 0 -47 7q-15 4 -27 4q-19 0 -44 -7l-17 -5l12 -12q23 -22 33.5 -28t50.5 -19q52 -17 52 -59 q0 -20 -14.5 -34.5t-34.5 -14.5q-26 0 -45 24q-9 11 -22 52q-10 31 -38 60l-13 13l-5 -18q-7 -25 -7 -44q0 -10 9 -52q3 -10 3 -22q0 -24 -15.5 -41.5t-37.5 -17.5q-19 0 -32.5 14.5t-13.5 35.5q0 16 6.5 28.5t30.5 41.5q20 23 31 64l5 18l-17 -5q-30 -9 -41 -15.5 t-41 -34.5q-27 -22 -51 -22q-21 0 -36 14t-15 34z" />
<glyph unicode="+" horiz-adv-x="606" d="M39 200v100h209v209h100v-209h209v-100h-209v-209h-100v209h-209z" />
<glyph unicode="," horiz-adv-x="287" d="M-48 -146q134 61 134 137q-10 -2 -24 -2q-37 0 -57.5 21t-20.5 58q0 40 26.5 65.5t67.5 25.5q46 0 74 -32t28 -84q0 -73 -53 -131.5t-154 -98.5z" />
<glyph unicode="-" d="M10 180l35 130h227l-35 -130h-227z" />
<glyph unicode="." horiz-adv-x="287" d="M12 72q0 36 25.5 61.5t61.5 25.5t61.5 -25.5t25.5 -61.5t-25.5 -61.5t-62.5 -25.5q-35 0 -60.5 26t-25.5 61z" />
<glyph unicode="/" horiz-adv-x="278" d="M-25 -15l262 752h74l-262 -752h-74z" />
<glyph unicode="0" horiz-adv-x="574" d="M21 236q0 120 48 229t126 174.5t163 65.5q89 0 142 -68.5t53 -184.5q0 -123 -45.5 -231t-122.5 -172t-164 -64q-91 0 -145.5 68.5t-54.5 182.5zM166 107q0 -33 15.5 -52t41.5 -19q35 0 61.5 38.5t55.5 134.5q26 85 46 195t20 168q0 40 -14 62t-39 22q-70 0 -123 -187 q-25 -90 -44.5 -200t-19.5 -162z" />
<glyph unicode="1" horiz-adv-x="574" d="M25 0l8 54h51q62 0 76 14q6 5 9.5 14.5t17.5 61.5l100 377q13 31 7 47.5t-44 16.5h-90l13 50q76 3 158.5 24.5t116.5 47.5h41l-151 -563q-13 -52 -13 -63q0 -17 15 -22t64 -5h50l-7 -54h-422z" />
<glyph unicode="2" horiz-adv-x="574" d="M-40 0v6q0 31 39.5 78t135.5 130q138 120 179 172q60 74 60 151q0 47 -30.5 77t-78.5 30q-40 0 -73 -22t-33 -48q0 -11 7 -17.5t32 -17.5q52 -23 52 -72q0 -36 -22.5 -58.5t-58.5 -22.5q-43 0 -70.5 31t-27.5 79q0 90 71 149.5t180 59.5q98 0 157 -50t59 -132 q0 -104 -121 -199q-14 -11 -192 -119q-76 -46 -100 -70h196q51 0 72.5 16.5t54.5 78.5l10 19l43 -15l-85 -234h-456z" />
<glyph unicode="3" horiz-adv-x="574" d="M-5 148q0 45 25 73t66 28q36 0 58.5 -21.5t22.5 -55.5q0 -54 -52 -70q-20 -7 -20 -20q0 -17 27 -32t58 -15q68 0 106 62.5t38 147.5q0 94 -67 94q-9 0 -31 -6q-11 -4 -23 -4q-35 0 -35 34q0 16 9 25.5t24 9.5q6 0 28 -6t30 -6q52 0 87.5 55t35.5 114q0 46 -23 71.5 t-64 25.5q-31 0 -57 -12.5t-26 -27.5q0 -5 7 -12q26 -20 34.5 -34t8.5 -34q0 -30 -22.5 -50.5t-54.5 -20.5q-36 0 -59 24.5t-23 62.5q0 66 64.5 111.5t157.5 45.5q94 0 153.5 -44.5t59.5 -115.5q0 -70 -51 -118t-143 -66q78 -20 111 -54.5t33 -96.5q0 -97 -79 -161t-199 -64 q-99 0 -157 43.5t-58 119.5z" />
<glyph unicode="4" horiz-adv-x="574" d="M-13 184v55l462 468h95l-122 -457h113l-11 -66h-120l-11 -40q-13 -48 -13 -63q0 -17 15 -22t64 -5h18l-7 -54h-363l7 54h25q62 0 76 14q6 6 9.5 15.5t17.5 60.5l10 40h-265zM77 250h193l74 275z" />
<glyph unicode="5" horiz-adv-x="574" d="M0 142q0 46 25.5 74t66.5 28q36 0 58 -20.5t22 -54.5q0 -60 -59 -78q-12 -5 -12 -12q0 -17 25 -30t58 -13q67 0 114 64t47 156q0 61 -27 96t-74 35q-33 0 -92 -26q-8 -58 -53 -58q-14 0 -23.5 10t-9.5 25q0 32 39 50l92 317q122 -29 220 -29q74 0 150 29q6 0 6 -8 q0 -23 -17.5 -55.5t-40.5 -52.5q-61 -52 -177 -52q-47 0 -115 14l-10 2l-38 -129q72 27 133 27q92 0 147 -50t55 -133q0 -122 -86.5 -202.5t-217.5 -80.5q-94 0 -150 42.5t-56 114.5z" />
<glyph unicode="6" horiz-adv-x="574" d="M30 230q0 87 30.5 175.5t84.5 159.5q107 140 260 140q73 0 120.5 -35t47.5 -89q0 -37 -23.5 -61t-61.5 -24q-34 0 -56 20.5t-22 51.5q0 26 22 52q8 9 8 16q0 8 -10 13t-26 5q-57 0 -98.5 -65t-80.5 -199q50 41 113 41q80 0 131 -50t51 -128q0 -110 -82 -189t-195 -79 q-98 0 -155.5 66t-57.5 179zM181 138q0 -107 64 -107q37 0 64 39t38 91.5t11 108.5q0 48 -16.5 74.5t-47.5 26.5q-50 0 -81.5 -64.5t-31.5 -168.5z" />
<glyph unicode="7" horiz-adv-x="574" d="M64 448l103 257q100 -11 188 -11q86 0 237 11l1 -38q-137 -234 -185 -339.5t-69 -221.5q-11 -57 -25 -79q-26 -42 -81 -42q-40 0 -64.5 22.5t-24.5 58.5t19 73.5t77 118.5l230 301h-212q-47 0 -74.5 -20.5t-57.5 -76.5l-16 -30z" />
<glyph unicode="8" horiz-adv-x="574" d="M0 148q0 125 172 191q-40 34 -57 68.5t-17 80.5q0 95 70.5 156t180.5 61q90 0 146 -44t56 -115q0 -110 -145 -164q100 -70 99 -176q0 -97 -78.5 -159t-202.5 -62q-100 0 -162 45t-62 118zM121 153q0 -54 34 -87t90 -33q55 0 92.5 33t37.5 82q0 47 -32.5 79t-131.5 79 q-41 -21 -65.5 -63t-24.5 -90zM219 550q0 -45 23.5 -66t122.5 -74q75 51 75 133q0 52 -28.5 82t-78.5 30t-82 -29.5t-32 -75.5z" />
<glyph unicode="9" horiz-adv-x="574" d="M1 109q0 37 23.5 61t61.5 24q34 0 56 -20.5t22 -51.5q0 -26 -22 -52q-8 -9 -8 -16q0 -8 10 -13t26 -5q56 0 99.5 66t79.5 198q-29 -23 -53.5 -32t-59.5 -9q-80 0 -131 50t-51 128q0 110 82 189t195 79q98 0 155.5 -66t57.5 -179q0 -88 -30.5 -176.5t-84.5 -158.5 q-107 -140 -260 -140q-73 0 -120.5 35t-47.5 89zM216 420q0 -48 16.5 -74.5t47.5 -26.5q51 0 82 66t31 167q0 107 -64 107q-54 0 -83.5 -74t-29.5 -165z" />
<glyph unicode=":" horiz-adv-x="287" d="M-2 72q0 36 25.5 61.5t61.5 25.5t61.5 -25.5t25.5 -61.5t-25.5 -61.5t-62.5 -25.5q-35 0 -60.5 26t-25.5 61zM83 394q0 36 25.5 61.5t61.5 25.5t61.5 -25.5t25.5 -61.5t-25.5 -61.5t-62.5 -25.5q-35 0 -60.5 26t-25.5 61z" />
<glyph unicode=";" horiz-adv-x="287" d="M-39 -146q134 61 134 137q-10 -2 -24 -2q-37 0 -57.5 21t-20.5 58q0 40 26.5 65.5t67.5 25.5q46 0 74 -32t28 -84q0 -73 -53 -131.5t-154 -98.5zM83 394q0 36 25.5 61.5t61.5 25.5t61.5 -25.5t25.5 -61.5t-25.5 -61.5t-62.5 -25.5q-35 0 -60.5 26t-25.5 61z" />
<glyph unicode="&#x3c;" horiz-adv-x="606" d="M60 206v88l453 242v-114l-324 -172l324 -172v-114z" />
<glyph unicode="=" horiz-adv-x="606" d="M39 110v100h518v-100h-518zM39 290v100h518v-100h-518z" />
<glyph unicode="&#x3e;" horiz-adv-x="606" d="M60 -36v114l324 172l-324 172v114l453 -242v-88z" />
<glyph unicode="?" horiz-adv-x="481" d="M79 72q0 36 25.5 61.5t61.5 25.5t61.5 -25.5t25.5 -61.5t-25.5 -61.5t-62.5 -25.5q-35 0 -60.5 26t-25.5 61zM99 546q0 75 53 133t133 58q72 0 119.5 -44t47.5 -111q0 -62 -39.5 -109.5t-131.5 -96.5q-47 -25 -61.5 -38.5t-14.5 -33.5q0 -19 12.5 -30.5t33.5 -11.5 q48 0 74 73l49 -12q-16 -51 -54 -81t-87 -30q-51 0 -86 35t-35 85q0 120 152 206q48 28 65 46t17 41q0 29 -20 46.5t-53 17.5q-50 0 -88 -45.5t-38 -104.5q0 -2 0.5 -4.5t1 -6.5t0.5 -8h-48q-2 24 -2 26z" />
<glyph unicode="@" horiz-adv-x="747" d="M22 362q0 156 107 265.5t259 109.5q140 0 237 -91t97 -221q0 -108 -74.5 -193t-168.5 -85q-34 0 -55.5 15.5t-21.5 41.5q0 2 2 16q-40 -75 -113 -75q-56 0 -94 43t-38 106q0 100 66 190t159 90q60 0 93 -52l12 34h104l-92 -288q-7 -21 -7 -37q0 -23 24 -23q55 0 97 66.5 t42 143.5q0 113 -76 185.5t-194 72.5q-129 0 -214.5 -88.5t-85.5 -221.5q0 -136 86.5 -228t214.5 -92q80 0 146 37t109 107h69q-38 -94 -132.5 -149.5t-193.5 -55.5q-152 0 -258 110t-106 267zM260 256q0 -60 47 -60q48 0 85 84q20 47 40 112.5t20 84.5t-14 32.5t-34 13.5 q-51 0 -97.5 -95t-46.5 -172z" />
<glyph unicode="A" horiz-adv-x="741" d="M-75 0l7 54h16q62 0 123 103l348 579h62l131 -622q8 -35 26 -47.5t64 -12.5h14l-7 -54h-374l7 54h16q50 0 66 8q17 7 17 23q0 13 -4 32l-20 103h-232l-46 -81q-14 -23 -14 -43q0 -23 15 -32.5t56 -9.5h23l-8 -54h-286zM217 274h187l-46 241z" />
<glyph unicode="B" horiz-adv-x="759" d="M-50 0l7 54h14q52 0 67 14q6 6 9 15.5t17 60.5l117 434q13 48 13 63q0 17 -15 22t-64 5h-19l8 54h352q264 0 264 -171q0 -75 -60 -122.5t-171 -60.5q194 -34 194 -173q0 -102 -86.5 -148.5t-228.5 -46.5h-418zM227 84q0 -30 53 -30h33q88 0 133.5 47t45.5 132 q0 60 -29.5 85t-118.5 25h-50l-59 -221q-8 -28 -8 -38zM308 397h31q53 0 79.5 5.5t49.5 20.5q32 22 50.5 60.5t18.5 83.5q0 49 -25 75t-72 26h-15q-27 0 -38.5 -11.5t-21.5 -48.5z" />
<glyph unicode="C" horiz-adv-x="759" d="M35 292q0 179 131 312t307 133q117 0 184 -82l56 57h46l-58 -286l-49 6q-4 128 -44.5 190t-120.5 62q-59 0 -110.5 -43.5t-83.5 -111t-50 -144.5t-18 -147q0 -88 46.5 -139t125.5 -51q68 0 129.5 46t89.5 118h63q-31 -98 -113 -162.5t-198 -64.5q-150 0 -241.5 83 t-91.5 224z" />
<glyph unicode="D" horiz-adv-x="833" d="M-49 0l7 54h14q52 0 67 14q10 11 27 76l116 434q13 49 13 63q0 17 -15 22t-64 5h-18l7 54h358q333 0 333 -285q0 -99 -40 -188t-111 -149q-65 -54 -147.5 -77t-212.5 -23h-334zM228 81q0 -15 12 -21t41 -6h29q132 0 205 108q41 61 68 157.5t27 181.5q0 82 -38 124.5 t-111 42.5h-22q-34 0 -49 -12.5t-25 -50.5l-128 -478q-9 -40 -9 -46z" />
<glyph unicode="E" horiz-adv-x="741" d="M-41 0l7 54h14q45 0 59.5 8.5t22.5 39.5l128 476q13 51 13 63q0 17 -15 22t-64 5h-19l8 54h615l-40 -245h-52q-2 109 -35.5 150t-122.5 41h-38q-31 0 -43.5 -9.5t-19.5 -38.5l-59 -219h31q64 0 97 27t59 95l53 -7l-90 -335l-53 7q5 37 5 62q0 50 -19 73.5t-65 23.5h-32 l-63 -236q-7 -24 -6 -32q0 -25 54 -25h36q86 0 164 54t127 151l52 -11l-66 -248h-643z" />
<glyph unicode="F" horiz-adv-x="704" d="M-41 0l7 54h14q46 0 60 8t22 40l128 476q13 51 13 63q0 17 -15 22t-64 5h-19l8 54h613l-40 -245h-52q-2 109 -35.5 150t-122.5 41h-36q-31 0 -43.5 -9.5t-19.5 -38.5l-59 -219h31q64 0 97 27t59 95l53 -7l-90 -335l-53 8q5 36 5 61q0 97 -84 97h-32l-54 -203 q-14 -50 -14 -63q0 -17 15 -22t64 -5h27l-8 -54h-375z" />
<glyph unicode="G" horiz-adv-x="815" d="M34 284q0 120 61.5 225t165.5 166.5t224 61.5q62 0 103 -18t82 -62l60 58h45l-57 -283l-51 7q-2 114 -44.5 179t-124.5 65q-119 0 -200 -152q-34 -63 -55 -147.5t-21 -154.5q0 -89 36 -140.5t105 -51.5q47 0 85 31t56 84q24 72 24 103q0 17 -14 22t-63 5h-28l7 54h372 l-7 -54h-20q-15 0 -25 -1t-18 -1.5t-13.5 -5.5t-9 -7t-7.5 -12l-6 -15t-6.5 -22t-7.5 -26l-55 -206h-48l-19 95q-80 -96 -213 -96q-131 0 -222 80t-91 219z" />
<glyph unicode="H" horiz-adv-x="870" d="M-41 0l7 54h19q42 0 55.5 8.5t21.5 39.5q1 3 5 18.5t6 23.5l117 434q13 49 13 63q0 17 -15 22t-64 5h-19l8 54h375l-7 -54h-22q-52 0 -66 -14q-7 -5 -10 -14.5t-17 -61.5l-48 -177h256l47 177q14 49 14 63q0 17 -11 22t-58 5h-21l8 54h359l-7 -54h-17q-49 0 -64 -14 q-6 -5 -9 -14.5t-17 -61.5l-117 -434q-13 -52 -13 -63q0 -17 15 -22t64 -5h22l-7 -54h-379l7 54h22q52 0 66 14q7 6 10.5 15.5t16.5 60.5l53 196h-256l-52 -196q-14 -48 -14 -63q0 -17 11 -22t58 -5h21l-8 -54h-359z" />
<glyph unicode="I" horiz-adv-x="444" d="M-41 0l7 54h20q49 0 63 14q7 6 10 15.5t17 60.5l116 434q14 48 14 63q0 17 -15 22t-64 5h-22l8 54h373l-7 -54h-21q-48 0 -62 -14q-7 -5 -10.5 -14.5t-16.5 -61.5l-116 -434q-14 -55 -14 -63q0 -17 15 -22t64 -5h22l-8 -54h-373z" />
<glyph unicode="J" horiz-adv-x="667" d="M-9 169q0 70 37.5 114.5t95.5 44.5q48 0 77.5 -26.5t29.5 -70.5q0 -39 -25 -66t-62 -27q-11 0 -26.5 5.5t-27.5 11t-13 5.5q-18 0 -18 -25q0 -39 32 -66t79 -27q75 0 120 72q17 27 24.5 48.5t27.5 97.5l85 318q14 50 14 63q0 17 -15 22t-64 5h-30l8 54h378l-7 -54h-20 q-46 0 -61 -14q-6 -6 -9 -15.5t-17 -60.5l-82 -304q-26 -98 -32.5 -118t-19.5 -43q-37 -67 -95.5 -97.5t-148.5 -30.5q-113 0 -174 47.5t-61 136.5z" />
<glyph unicode="K" horiz-adv-x="778" d="M-41 0l7 54h18q46 0 63 14q6 6 9.5 15.5t17.5 61.5l115 433q14 49 14 63q0 17 -15 22t-64 5h-19l8 54h375l-7 -54h-22q-52 0 -66 -14q-7 -6 -10 -15.5t-17 -60.5l-61 -225l267 248q30 29 30 42q0 25 -41 25h-35l7 54h299l-7 -54q-53 -3 -90.5 -20.5t-81.5 -60.5 l-162 -150l143 -308q24 -53 40 -64t68 -11h15l-8 -54h-374l7 54h31q35 0 47.5 4.5t12.5 17.5q0 8 -11 31l-102 213l-84 -77l-26 -99q-14 -48 -14 -63q0 -17 11 -22t58 -5h21l-8 -54h-359z" />
<glyph unicode="L" horiz-adv-x="704" d="M-41 0l7 54h20q46 0 61 14q6 6 9.5 15.5t16.5 60.5l117 434q13 51 13 63q0 17 -15 22t-64 5h-19l8 54h382l-8 -54h-18q-62 0 -76 -14q-7 -6 -10 -15.5t-17 -60.5l-116 -434q-15 -53 -14 -64q0 -15 11.5 -20.5t41.5 -5.5h36q88 0 168.5 57.5t124.5 154.5l52 -11l-68 -255 h-643z" />
<glyph unicode="M" horiz-adv-x="944" d="M-24 0l7 54q41 3 62.5 34.5t47.5 127.5l97 362q14 52 14 63q0 17 -15 22t-64 5h-19l7 54h293l35 -463l278 463h269l-7 -54h-21q-45 0 -60 -14q-6 -5 -9 -14.5t-17 -61.5l-117 -434q-13 -52 -13 -63q0 -17 15 -22t64 -5h19l-8 -54h-367l7 54h20q46 0 60 14q7 6 10 15.5 t17 60.5l112 418l-337 -562h-63l-39 566l-94 -350q-21 -84 -21 -107q0 -55 82 -55l-8 -54h-237z" />
<glyph unicode="N" horiz-adv-x="852" d="M-57 0l7 54q51 2 81 27q21 19 29 38t31 98l113 419q-17 32 -59 32h-56l7 54h254l268 -507l78 290q22 84 22 108q0 55 -90 55l7 54h277l-7 -54q-51 0 -81 -27q-21 -21 -29.5 -39t-31.5 -97l-139 -519h-80l-296 566l-90 -335q-21 -84 -21 -108q0 -29 17.5 -42t59.5 -13h21 l-8 -54h-284z" />
<glyph unicode="O" horiz-adv-x="833" d="M36 286q0 91 37.5 175t99.5 144t145 96t172 36q130 0 218.5 -85.5t88.5 -210.5q0 -186 -135 -321t-320 -135q-139 0 -222.5 82.5t-83.5 218.5zM215 193q0 -71 34 -112.5t93 -41.5q108 0 191 157q37 71 58.5 158t21.5 166q0 76 -33.5 119.5t-92.5 43.5q-110 0 -187 -155 q-37 -75 -61 -170t-24 -165z" />
<glyph unicode="P" horiz-adv-x="741" d="M-38 0l7 54h18q43 0 56.5 8.5t21.5 39.5l127 476q14 52 14 63q0 17 -13.5 22t-61.5 5h-19l7 54h315q86 0 145 -13.5t91.5 -39.5t46.5 -58.5t14 -77.5q0 -113 -84 -167.5t-270 -54.5h-80l-45 -167q-14 -51 -14 -63q0 -17 15.5 -22t64.5 -5h25l-7 -54h-374zM311 365h49 q96 0 144 52t48 146q0 48 -25 76.5t-68 28.5h-17q-32 0 -43.5 -9.5t-20.5 -43.5z" />
<glyph unicode="Q" horiz-adv-x="833" d="M35 282q0 185 133 320t316 135q134 0 223 -84.5t89 -215.5q0 -126 -61.5 -234t-174.5 -162q7 -68 16 -101.5t15.5 -38.5t20.5 -5q39 0 70 74l42 -22q-58 -134 -188 -134q-78 0 -113 42.5t-35 131.5q-36 -3 -55 -3q-129 0 -213.5 83.5t-84.5 213.5zM216 209q0 -17 3 -55 q8 60 46 91.5t101 31.5q113 0 159 -97q38 47 63.5 142t25.5 190q0 173 -129 173q-119 0 -197 -179q-32 -75 -52 -156.5t-20 -140.5zM258 124q0 -40 23.5 -63t64.5 -23q27 0 51 16q13 68 13 95q0 29 -20.5 48.5t-51.5 19.5q-34 0 -57 -26.5t-23 -66.5z" />
<glyph unicode="R" horiz-adv-x="796" d="M-41 0l7 54h20q46 0 60 14q7 6 10 15.5t17 60.5l116 434q14 51 14 63q0 17 -14.5 22t-62.5 5h-21l7 54h347q152 0 222 -38t70 -129q0 -173 -287 -196q73 -20 106 -61.5t33 -116.5v-34q0 -50 1 -59t6 -16q8 -11 18 -11q36 0 71 96l43 -21q-50 -151 -175 -151 q-63 0 -103 40t-40 102q0 16 6 69t6 73q0 81 -92 81h-40l-55 -206q-13 -46 -13 -63t15 -22t64 -5h26l-8 -54h-374zM319 404h34q68 0 96 6t53 25q65 49 65 135q0 47 -28 72.5t-80 25.5h-25q-27 0 -37.5 -7.5t-16.5 -30.5z" />
<glyph unicode="S" horiz-adv-x="685" d="M1 0l50 283l52 -8l-1 -30q1 -90 60 -148t155 -58q70 0 113.5 31.5t43.5 81.5q0 44 -35 71.5t-136 61.5q-62 21 -91.5 36t-53.5 38q-56 53 -56 136q0 104 76 173t190 69q113 0 200 -76l53 54h45l-44 -263l-52 9q-4 109 -54 165.5t-136 56.5q-65 0 -104 -29.5t-39 -78.5 q0 -39 22.5 -64t89.5 -47q149 -49 206 -96.5t57 -143.5q0 -106 -81 -172.5t-211 -66.5q-67 0 -117 18.5t-100 61.5l-58 -65h-44z" />
<glyph unicode="T" horiz-adv-x="722" d="M44 455l71 267h647l-44 -283l-53 5q3 34 3 60q0 79 -30.5 121.5t-87.5 42.5q-22 0 -28.5 -6.5t-14.5 -38.5l-128 -479q-14 -51 -14 -63q0 -17 15.5 -22t64.5 -5h25l-7 -54h-397l7 54h27q62 0 76 14q7 6 10.5 15.5t16.5 60.5l130 485q4 13 4 24q0 15 -28 15 q-64 0 -113.5 -53t-101.5 -176z" />
<glyph unicode="U" horiz-adv-x="833" d="M88 196q0 42 17 107l74 275q14 54 14 63q0 17 -13.5 22t-61.5 5h-23l7 54h376l-8 -54h-22q-52 0 -66 -14q-7 -6 -10.5 -15.5t-16.5 -60.5l-81 -304q-15 -55 -15 -88q0 -66 39.5 -102.5t110.5 -36.5q74 0 125 46.5t81 160.5l67 252q22 83 22 107q0 55 -90 55l7 54h274 l-7 -54q-48 0 -78 -27q-21 -19 -29.5 -38.5t-31.5 -96.5l-74 -279q-34 -126 -106.5 -184t-197.5 -58q-129 0 -206 58t-77 153z" />
<glyph unicode="V" horiz-adv-x="741" d="M32 668l7 54h367l-8 -54h-27q-46 0 -57 -8q-10 -8 -10 -19q0 -3 5 -30l75 -402l207 363q19 34 19 57q0 39 -67 39h-27l7 54h279l-7 -54q-46 -7 -71 -27t-62 -81l-338 -574h-66l-120 607q-10 48 -23 61.5t-51 13.5h-32z" />
<glyph unicode="W" horiz-adv-x="944" d="M40 668l7 54h303l-7 -54h-20q-26 0 -33 -6.5t-7 -29.5q8 -72 24.5 -202.5t20.5 -165.5l148 329l-3 30q-3 26 -17.5 35.5t-50.5 9.5h-16l7 54h311l-7 -54h-22q-25 0 -36 -6.5t-10 -21.5q0 -9 3 -27l47 -337l129 310q13 30 13 46t-15 26t-39 10h-18l7 54h235l-7 -54 q-47 -8 -73 -36.5t-59 -107.5l-233 -538h-66l-68 483l-222 -483h-66l-86 644q-3 23 -13 30.5t-41 7.5h-20z" />
<glyph unicode="X" horiz-adv-x="741" d="M-72 0l7 54q37 -1 70.5 16t77.5 59l217 213l-126 280q-14 29 -27 37.5t-47 8.5h-37l8 54h374l-7 -54h-33q-31 0 -42.5 -4.5t-11.5 -15.5q0 -8 9 -29l69 -151l123 122q24 22 24 46q0 32 -55 32h-21l7 54h304l-7 -54q-54 -4 -83.5 -19.5t-87.5 -71.5l-180 -173l132 -295 q15 -33 34.5 -44t62.5 -11h23l-7 -54h-387l7 54h41q29 0 39.5 4.5t10.5 17.5q0 10 -10 33l-73 170l-135 -132q-31 -30 -31 -53q0 -40 66 -40h22l-7 -54h-313z" />
<glyph unicode="Y" horiz-adv-x="704" d="M15 668l7 54h366l-7 -54h-43q-26 0 -35 -5t-9 -19q0 -12 9 -34l91 -231l159 210q17 22 17 43q0 36 -57 36h-36l8 54h292l-7 -54q-47 -1 -78 -22t-76 -79l-200 -260l-43 -163q-14 -53 -14 -63q0 -17 15.5 -22t64.5 -5h25l-7 -54h-389l7 54h19q62 0 76 14q7 6 10 15.5 t17 60.5l43 163l-117 304q-13 34 -30.5 45.5t-54.5 11.5h-23z" />
<glyph unicode="Z" horiz-adv-x="704" d="M-29 0l8 54l507 614h-79q-97 0 -164 -46t-126 -154l-49 10l66 244h581l-8 -54l-510 -614h91q108 0 181 51t132 168l51 -13l-70 -260h-611z" />
<glyph unicode="[" horiz-adv-x="407" d="M-31 -108l222 830h241l-12 -44h-118l-199 -742h118l-11 -44h-241z" />
<glyph unicode="\" horiz-adv-x="606" d="M81 722h96l368 -722h-96z" />
<glyph unicode="]" horiz-adv-x="407" d="M-49 -108l12 44h118l199 742h-118l11 44h241l-222 -830h-241z" />
<glyph unicode="^" horiz-adv-x="606" d="M52 318l209 404h85l208 -404h-119l-131 250l-133 -250h-119z" />
<glyph unicode="_" horiz-adv-x="500" d="M0 -75h500v-54h-500v54z" />
<glyph unicode="`" d="M230 670q12 22 36 37t46 15q18 0 26.5 -8.5t19.5 -36.5l50 -139h-54l-119 88q-20 15 -5 44z" />
<glyph unicode="a" horiz-adv-x="667" d="M15 167q0 121 87.5 216.5t198.5 95.5q89 0 125 -63l14 48h157l-98 -332q-10 -39 -10 -46q0 -6 4.5 -11t9.5 -5q13 0 44.5 34t59.5 78l39 -25q-46 -78 -102 -125t-108 -47q-41 0 -63 24t-22 64q-36 -47 -73.5 -67t-89.5 -20q-76 0 -124.5 51t-48.5 130zM178 135 q0 -36 16.5 -57.5t44.5 -21.5q39 0 76.5 53t58.5 121t21 121q0 32 -17 52.5t-45 20.5q-58 0 -106.5 -98.5t-48.5 -190.5z" />
<glyph unicode="b" horiz-adv-x="611" d="M28 145q0 24 3 38t19 69l97 326q16 54 16 66q0 19 -12.5 25t-49.5 6h-24l7 47l267 14l-91 -309q62 52 129 52q71 0 119.5 -49.5t48.5 -122.5q0 -63 -29.5 -126.5t-81.5 -111.5q-90 -84 -214 -84q-92 0 -148 43.5t-56 116.5zM171 104q0 -34 18.5 -55t47.5 -21 q60 0 110 113q18 40 32.5 100t14.5 92t-18 53.5t-46 21.5q-56 0 -102 -92q-23 -47 -40 -110.5t-17 -101.5z" />
<glyph unicode="c" horiz-adv-x="537" d="M3 171q0 125 92.5 216t220.5 91q78 0 124.5 -35t46.5 -93q0 -42 -23.5 -67.5t-62.5 -25.5q-34 0 -56 20t-22 52q0 38 38 61q12 8 12 16q0 11 -12 18t-30 7q-48 0 -87 -51t-57.5 -116.5t-18.5 -122.5q0 -41 23 -67.5t59 -26.5q70 0 156 100l36 -31q-104 -130 -232 -130 q-95 0 -151 50t-56 135z" />
<glyph unicode="d" horiz-adv-x="667" d="M0 167q0 121 87.5 216t198.5 95q88 0 125 -62l48 162q15 50 15 66q0 19 -12 25t-49 6h-32l7 47l275 14l-179 -604q-10 -39 -10 -47q0 -6 4.5 -11t9.5 -5q13 0 44.5 33.5t60.5 79.5l39 -25q-27 -47 -66 -91q-72 -81 -144 -81q-40 0 -62.5 21t-23.5 58v7q-41 -47 -77 -66 t-85 -19q-76 0 -125 50.5t-49 130.5zM164 135q0 -37 16 -58t44 -21q60 0 105 97q51 111 51 198q0 32 -17 52t-44 20q-61 0 -106 -95q-49 -103 -49 -193z" />
<glyph unicode="e" horiz-adv-x="519" d="M-2 171q0 123 95 215.5t221 92.5q70 0 117 -34.5t47 -86.5q0 -104 -170 -153q-66 -20 -149 -24q-2 -26 -2 -44q0 -43 23 -67.5t63 -24.5q39 0 73 18t79 63l35 -35q-93 -105 -228 -105q-99 0 -151.5 47.5t-52.5 137.5zM168 228q43 6 70 16q51 19 84.5 59.5t33.5 81.5 q0 22 -12 34.5t-32 12.5q-47 0 -87 -56.5t-57 -147.5z" />
<glyph unicode="f" horiz-adv-x="389" d="M-48 -205q43 67 117 338l64 270h-99l17 61h98q37 134 92 194q73 79 172 79q60 0 98.5 -31t38.5 -79q0 -34 -22 -56.5t-56 -22.5q-29 0 -48.5 19t-19.5 47q0 26 24 57l5 9q0 10 -22 10q-36 0 -57.5 -37.5t-48.5 -147.5l-10 -41h127l-16 -61h-125l-47 -214 q-46 -218 -101 -368z" />
<glyph unicode="g" horiz-adv-x="611" d="M-66 -91q0 74 126 97q-34 18 -47 36t-13 44q0 82 120 120q-51 42 -51 98q0 77 63.5 126t163.5 49q55 0 103 -16q70 70 131 70q32 0 52 -18.5t20 -48.5q0 -25 -15 -41.5t-38 -16.5q-34 0 -50 43q-7 17 -17 17q-16 0 -34 -24q79 -46 79 -130q0 -68 -59.5 -112.5 t-150.5 -44.5q-47 0 -117 10q-23 3 -34 3q-20 0 -33.5 -9t-13.5 -22q0 -30 49 -34q139 -14 178 -22q55 -13 79.5 -41t24.5 -77q0 -81 -71.5 -124t-206.5 -43q-113 0 -175.5 29t-62.5 82zM57 -85q0 -70 120 -70q152 0 152 70q0 34 -44 45q-52 13 -144 13q-84 0 -84 -58z M222 277q0 -34 17.5 -53t47.5 -19q43 0 66 48q26 52 26 108q0 31 -17.5 51t-44.5 20q-45 0 -70 -49.5t-25 -105.5z" />
<glyph unicode="h" horiz-adv-x="685" d="M0 0l171 578q16 50 16 66q0 19 -12.5 25t-49.5 6h-24l7 47l268 14l-110 -370q91 113 188 113q49 0 80.5 -29t31.5 -74q0 -44 -30 -128l-47 -128q-11 -30 -11 -38q0 -6 4.5 -11t9.5 -5q14 0 35.5 22t61.5 78q3 3 9 11l39 -25q-58 -90 -107 -128.5t-104 -38.5 q-47 0 -74.5 24.5t-27.5 66.5q0 30 21 87l61 169q9 24 9 36q0 10 -9 18.5t-20 8.5q-36 0 -94 -70q-59 -72 -97 -198l-38 -127h-157z" />
<glyph unicode="i" horiz-adv-x="389" d="M38 417l7 47l267 14l-105 -356q-10 -34 -10 -42q0 -16 16 -16q30 0 101 113l39 -28q-51 -86 -100.5 -125t-106.5 -39q-45 0 -74.5 25.5t-29.5 64.5q0 23 15 74l51 170q15 50 15 67q0 19 -12 25t-49 6h-24zM198 631q0 29 21 50t51 21q29 0 50 -21t21 -50q0 -30 -21 -51 t-51 -21q-29 0 -50 21.5t-21 50.5z" />
<glyph unicode="j" horiz-adv-x="370" d="M-170 -90q0 37 21.5 60t56.5 23q34 0 54 -20t20 -55q0 -20 -5.5 -29.5t-22.5 -19.5q-6 -3 -6 -10q0 -12 17 -12q29 0 49 32t46 121l95 319q15 52 15 67q0 19 -12 25t-49 6h-32l7 47l275 14l-119 -403q-24 -79 -40.5 -115.5t-45.5 -71.5q-72 -90 -178 -90 q-63 0 -104.5 31.5t-41.5 80.5zM243 631q0 29 21 50t51 21q29 0 50 -21t21 -50q0 -30 -21 -51t-51 -21q-29 0 -50 21.5t-21 50.5z" />
<glyph unicode="k" horiz-adv-x="648" d="M-5 0l171 578q16 55 16 66q0 19 -12 25t-50 6h-23l6 47l268 14l-109 -365q58 61 102.5 84.5t98.5 23.5q52 0 85 -27t33 -71q0 -72 -92 -123q-38 -22 -102 -43q34 -19 46 -43.5t17 -87.5q2 -19 16 -19q37 0 75 93l43 -23q-38 -79 -81 -114.5t-100 -35.5q-49 0 -75.5 28 t-26.5 80q0 23 5 55q4 19 4 33q0 8 -5 17q-8 -1 -21 -1q-36 0 -36 29q0 14 10 22.5t26 8.5t46 -13q114 38 114 107q0 20 -13 32.5t-34 12.5q-51 0 -117 -80q-52 -62 -91 -193l-37 -123h-157z" />
<glyph unicode="l" horiz-adv-x="389" d="M26 76q0 33 23 106l117 396q15 50 15 66q0 19 -12 25t-49 6h-24l7 47l267 14l-182 -614l-5 -16q-5 -17 -5 -26q0 -17 15 -17q17 0 47 32t60 81l39 -27q-31 -56 -86 -108q-59 -56 -125 -56q-46 0 -74 25t-28 66z" />
<glyph unicode="m" horiz-adv-x="944" d="M9 0l95 319q15 53 15 67q0 19 -12 25t-49 6h-24l7 47l248 14l-29 -122q94 123 188 123q58 0 94 -44q18 -25 18 -61v-6q92 111 177 111q49 0 79 -28.5t30 -75.5q0 -44 -22 -106l-60 -167q-5 -15 -5 -23q0 -13 17 -13q14 0 32 19t68 85l6 7l38 -27q-106 -164 -211 -164 q-40 0 -68.5 25t-28.5 60q0 28 25 100l49 140q13 37 13 59q0 24 -26 24q-36 0 -84 -58q-53 -64 -100 -225l-33 -111h-158l70 235q31 105 31 135q0 11 -5.5 18t-13.5 7q-31 0 -84 -69q-57 -77 -90 -187l-41 -139h-156z" />
<glyph unicode="n" horiz-adv-x="685" d="M3 0l95 319q15 52 15 67q0 19 -12 25t-49 6h-24l7 47l250 14l-32 -132q56 72 103 102.5t102 30.5q49 0 81 -29t32 -74q0 -46 -31 -128l-47 -128q-10 -30 -10 -38q0 -6 4.5 -11t9.5 -5q14 0 36 22.5t61 77.5l9 11l39 -25q-58 -89 -107 -128t-104 -39q-47 0 -74.5 24.5 t-27.5 66.5q0 29 20 87l62 169q9 24 9 36q0 10 -9.5 18t-20.5 8q-37 0 -95 -69q-59 -71 -97 -198l-38 -127h-157z" />
<glyph unicode="o" horiz-adv-x="574" d="M10 187q0 119 93.5 205.5t220.5 86.5q98 0 160 -54q56 -48 56 -140q0 -127 -92 -213t-228 -86q-96 0 -150 51q-28 25 -44 65.5t-16 84.5zM165 108q0 -37 17 -58t47 -21q65 0 106 105q21 52 35.5 116.5t14.5 103.5q0 35 -18 56.5t-47 21.5q-64 0 -110 -110 q-19 -47 -32 -108t-13 -106z" />
<glyph unicode="p" horiz-adv-x="648" d="M-118 -202l7 47h4q49 0 63 14q7 6 10.5 15.5t18.5 60.5l115 387q15 50 15 64q0 19 -12.5 25t-49.5 6h-24l7 47l237 14l-16 -79q70 80 158 80q80 0 127.5 -49t47.5 -132q0 -123 -87 -218t-200 -95q-86 0 -126 65l-34 -115q-16 -55 -16 -64q0 -26 57 -26h15l-7 -47h-310z M206 117q0 -31 20 -52.5t49 -21.5q56 0 97 79q25 49 41.5 110t16.5 104q0 33 -17.5 53t-46.5 20q-54 0 -96 -74q-23 -42 -43.5 -110.5t-20.5 -107.5z" />
<glyph unicode="q" horiz-adv-x="630" d="M0 170q0 121 87.5 214.5t199.5 93.5q98 0 138 -76l88 76h74l-161 -543q-15 -52 -15 -64q0 -26 56 -26h15l-6 -47h-313l7 47h4q50 0 66 14q8 8 29 76l33 111q-65 -61 -137 -61q-74 0 -119.5 51t-45.5 134zM163 129q0 -32 17 -53t43 -21q52 0 95 82q23 46 40.5 111.5 t17.5 107.5q0 29 -17.5 48t-43.5 19q-40 0 -72 -42q-32 -44 -56 -119t-24 -133z" />
<glyph unicode="r" horiz-adv-x="519" d="M3 0l95 319q15 50 15 67q0 19 -12 25t-49 6h-24l7 47l250 14l-31 -127q46 70 86.5 99t90.5 29q42 0 67.5 -24t25.5 -64q0 -35 -21.5 -59t-53.5 -24q-24 0 -43 13.5t-24 35.5q-3 12 -3 31q0 13 -10 13q-14 0 -40 -26q-37 -35 -71.5 -99.5t-55.5 -136.5l-42 -139h-157z" />
<glyph unicode="s" horiz-adv-x="481" d="M2 101q0 32 19.5 52t50.5 20q20 0 36 -8t25.5 -23t9.5 -33q0 -14 -5 -23.5t-21 -22.5q-5 -5 -5 -9q0 -11 18 -18.5t45 -7.5q41 0 68 19.5t27 49.5q0 20 -13.5 34t-44.5 27q-34 14 -51 22t-41 23t-35.5 29.5t-20 37t-8.5 50.5q0 73 54.5 116t147.5 43q79 0 129 -31.5 t50 -80.5q0 -31 -19 -50.5t-50 -19.5q-30 0 -49.5 17.5t-19.5 43.5q0 19 18 41q6 7 6 12q0 8 -17 14.5t-39 6.5q-39 0 -64 -17t-25 -44q0 -20 17 -35t61 -34q34 -15 55 -26.5t43.5 -30t33.5 -42.5t11 -54q0 -74 -60.5 -119t-158.5 -45q-79 0 -128.5 32t-49.5 84z" />
<glyph unicode="t" horiz-adv-x="407" d="M24 69q0 20 25 114l65 220h-87l18 61h87l56 186h157l-55 -186h114l-18 -61h-114l-70 -236q-21 -72 -21 -83q0 -7 4.5 -12.5t10.5 -5.5q15 0 45.5 34t58.5 83l37 -27q-40 -62 -68 -92q-73 -78 -150 -78q-40 0 -67.5 24t-27.5 59z" />
<glyph unicode="u" horiz-adv-x="685" d="M38 95q0 34 21 103l35 121q16 52 16 67q0 19 -12 25t-49 6h-10l7 47l253 14l-90 -304q-3 -7 -9.5 -31.5t-9.5 -33.5q-2 -12 -2 -14q0 -10 7.5 -17.5t17.5 -7.5q19 0 51 25.5t59 63.5q43 59 68 140l48 165h158l-93 -312q-16 -56 -16 -67q0 -5 4.5 -9.5t9.5 -4.5 q13 0 40.5 30t58.5 79l38 -28q-59 -90 -107 -128t-105 -38q-97 0 -97 85q0 16 1 26q-49 -59 -92 -85t-91 -26q-49 0 -79.5 30t-30.5 79z" />
<glyph unicode="v" horiz-adv-x="556" d="M32 417l7 47l267 14l-73 -248q-24 -95 -24 -117t17 -39.5t39 -17.5q51 0 100 75q61 92 61 163q0 16 -6.5 25t-37.5 38q-29 28 -29 57t19 47t50 18q35 0 56.5 -24.5t21.5 -64.5q0 -55 -20 -124t-52 -127q-86 -154 -215 -154q-65 0 -112 41q-43 38 -43 106q0 40 12 79 l32 108q16 54 16 67q0 19 -12 25t-50 6h-24z" />
<glyph unicode="w" horiz-adv-x="833" d="M22 95q0 33 20 103l36 121q16 55 16 67q0 19 -12 25t-50 6h-10l7 47l254 14l-90 -301q-14 -51 -14 -69q0 -15 11 -26t25 -11q56 0 103 74q13 21 31 64t28 77l53 178h157l-69 -234q-24 -95 -24 -117t16.5 -39.5t37.5 -17.5q25 0 53.5 20.5t51.5 54.5q61 92 61 165 q0 14 -7 24t-37 37q-29 26 -29 57q0 29 19 47t50 18q35 0 56.5 -24.5t21.5 -64.5q0 -54 -20 -124t-52 -127q-88 -154 -221 -154q-60 0 -98.5 30.5t-51.5 87.5q-47 -62 -94.5 -90t-107.5 -28q-58 0 -89.5 28.5t-31.5 81.5z" />
<glyph unicode="x" horiz-adv-x="574" d="M-49 61q0 30 18.5 49t48.5 19q46 0 59 -50q3 -11 9 -11q21 0 71 71l41 57l-14 65q-16 76 -25 97t-23 21t-27 -15.5t-43 -67.5l-6 -10l-40 20q25 51 55 89q64 84 132 84q44 0 69.5 -31t40.5 -104l22 29q46 61 78 83.5t73 22.5q36 0 58.5 -20t22.5 -52q0 -30 -18.5 -49.5 t-46.5 -19.5t-43.5 14.5t-15.5 40.5q-1 12 -9 12q-25 0 -108 -123l16 -82q14 -70 23 -91t25 -21q35 0 75 101l39 -20q-20 -55 -57 -107q-53 -77 -122 -77q-48 0 -77 37q-21 25 -37 98l-3 14l-37 -52q-32 -45 -70 -71t-73 -26t-58 21t-23 55z" />
<glyph unicode="y" horiz-adv-x="519" d="M-66 -111q0 32 20 52.5t51 20.5q30 0 49.5 -18t19.5 -46q0 -12 -6 -28l-1 -6q0 -10 13 -10q20 0 52 25.5t58 62.5l29 40l-100 338q-8 28 -13.5 36.5t-15.5 8.5q-13 0 -23 -19.5t-31 -87.5l-43 13q49 208 162 208q54 0 78 -47q20 -38 37 -99l56 -190q67 113 67 158 q0 22 -19 53q-21 31 -21 59q0 29 20 47.5t51 18.5t49.5 -16.5t18.5 -45.5q0 -43 -40.5 -135t-106.5 -199q-89 -147 -164 -222q-62 -63 -141 -63q-48 0 -77 25t-29 66z" />
<glyph unicode="z" horiz-adv-x="519" d="M-19 19q0 36 66 112q76 86 177 140q22 12 41.5 21.5t25 12t15.5 8.5t17 11t27 18q-42 -14 -82 -14q-27 0 -90 10q-42 7 -56 7q-24 0 -35.5 -10.5t-28.5 -48.5l-42 15q62 178 198 178q53 0 134 -43q33 -18 44 -18q13 0 21 32q9 29 28 29q12 0 21 -10t9 -23 q0 -58 -113 -166q-35 -33 -65 -52t-119 -65q-28 -14 -64 -37q57 10 90 10q42 0 95 -15q47 -14 55 -14q37 0 66 62l44 -16q-25 -81 -77.5 -124.5t-123.5 -43.5q-40 0 -72 12t-101 52q-15 8 -21 8q-14 0 -14 -29q-2 -43 -38 -43q-13 0 -22.5 10t-9.5 24z" />
<glyph unicode="{" horiz-adv-x="407" d="M52 -21q0 36 17 95l21 80q13 48 13 71q0 25 -11.5 39t-39.5 21l12 44q49 12 71 39t37 94l30 110q22 83 60 116.5t109 33.5h31l-12 -43q-37 -4 -57 -30.5t-39 -95.5l-33 -121q-17 -58 -44 -86t-77 -39q65 -19 65 -67q0 -20 -13 -65l-28 -104q-17 -63 -17 -87q0 -26 10 -37 t37 -12l-12 -43h-42q-41 0 -64.5 23t-23.5 64z" />
<glyph unicode="|" horiz-adv-x="606" d="M248 -108v830h100v-830h-100z" />
<glyph unicode="}" horiz-adv-x="407" d="M-30 -108l12 43q37 4 57 30.5t39 95.5l33 121q17 58 44 86t77 39q-65 19 -65 67q0 17 13 65l28 104q17 63 17 87q0 26 -10 37t-37 12l12 43h42q41 0 64.5 -23t23.5 -64q0 -34 -16 -95l-22 -80q-13 -48 -13 -71q0 -26 12.5 -39.5t40.5 -20.5l-12 -44q-50 -11 -72.5 -38.5 t-37.5 -94.5l-30 -110q-22 -83 -60 -116.5t-109 -33.5h-31z" />
<glyph unicode="~" horiz-adv-x="606" d="M51 222q60 113 144 113q29 0 90 -23l53 -19q48 -19 66 -19q17 0 31.5 11t35.5 41l84 -53q-62 -113 -144 -113q-33 0 -90 23l-53 19q-48 19 -66 19q-17 0 -31.5 -11t-35.5 -41z" />
<glyph unicode="&#xa0;" />
<glyph unicode="&#xa1;" d="M125 -178q0 24 7 42t48 101q72 144 129 311l52 -13q-45 -203 -51 -351q-3 -68 -7 -92t-17 -43q-24 -35 -63 -35q-43 0 -70.5 22.5t-27.5 57.5zM284 407q0 36 25.5 61.5t62.5 25.5q35 0 60.5 -26t25.5 -61q0 -36 -25.5 -61.5t-61.5 -25.5t-61.5 25.5t-25.5 61.5z" />
<glyph unicode="&#xa2;" horiz-adv-x="574" d="M30 174q0 125 93.5 217.5t219.5 92.5q30 0 65 -8l49 110h54l-57 -129q60 -36 60 -106q0 -40 -24.5 -66t-62.5 -26q-31 0 -53 19l-103 -230h7q46 0 95 40q17 13 61 59l36 -31q-60 -70 -108.5 -98.5t-118.5 -32.5l-55 -122h-54l56 125q-65 5 -112.5 60t-47.5 126zM194 145 q0 -48 31 -79l132 294q8 16 15.5 24.5t24.5 18.5l6 8q0 10 -13.5 18t-30.5 8q-68 0 -115 -96q-21 -42 -35.5 -99t-14.5 -97z" />
<glyph unicode="&#xa3;" horiz-adv-x="574" d="M-18 72q0 42 30 69t77 27q27 0 76 -12q3 27 3 41q0 57 -20 122h-130l8 57h114l-1 45q0 126 71 205t186 79q76 0 123 -39t47 -102q0 -41 -24.5 -68t-62.5 -27q-33 0 -54.5 19.5t-21.5 49.5q0 22 10 37t37 34q11 8 11 18q0 13 -13 20.5t-33 7.5q-55 0 -87 -56.5t-32 -154.5 l2 -68h137l-9 -57h-128q-4 -89 -49 -183q55 -21 120 -21q90 0 130 85l43 -20q-57 -195 -191 -195q-84 0 -154 64q-53 -64 -120 -64q-43 0 -69 24t-26 63zM29 74q0 -21 12.5 -33.5t33.5 -12.5q25 0 40.5 12.5t30.5 43.5q-41 34 -77 34q-17 0 -28.5 -12.5t-11.5 -31.5z" />
<glyph unicode="&#xa4;" horiz-adv-x="574" d="M40 526l77 77l43 -43q59 39 134 39q66 0 132 -38l42 42l78 -77l-43 -43q38 -60 38 -133q0 -71 -38 -132l43 -43l-77 -78l-43 43q-66 -38 -133 -38q-68 0 -133 39l-42 -43l-77 78l42 42q-38 59 -38 132q0 77 38 133zM166 351q0 -53 37 -90.5t89 -37.5q53 0 90.5 37.5 t37.5 90.5t-37 90t-90 37t-90 -37t-37 -90z" />
<glyph unicode="&#xa5;" horiz-adv-x="574" d="M23 652l7 54h291l-8 -54h-22q-26 0 -35 -5t-9 -19q0 -8 9 -34l72 -210l125 189q17 26 17 44q0 16 -15.5 25.5t-41.5 9.5h-16l7 54h231l-7 -54q-37 -13 -60 -32t-59 -68l-124 -177h131l-6 -46h-157l-23 -85h145l-6 -46h-151l-14 -53q-14 -50 -14 -64q0 -17 15 -22t64 -5 h13l-8 -54h-338l8 54h12q55 0 69 14q7 6 10.5 15.5t16.5 61.5l14 53h-141l6 46h148l22 85h-147l6 46h125l-78 220q-13 34 -30 45.5t-54 11.5z" />
<glyph unicode="&#xa6;" horiz-adv-x="606" d="M248 -108v332h100v-332h-100zM248 390v332h100v-332h-100z" />
<glyph unicode="&#xa7;" horiz-adv-x="500" d="M-40 -26q0 35 19.5 56t50.5 21q30 0 50.5 -19t20.5 -47q0 -14 -9.5 -28.5t-19.5 -24t-10 -11.5q0 -9 21 -17t46 -8q38 0 61 18.5t23 49.5q0 32 -24 66.5t-110 126.5q-40 43 -55.5 74t-15.5 66q0 64 47 111t111 47q5 0 27 -2q-29 40 -39.5 66t-10.5 57q0 71 53.5 116 t136.5 45q74 0 123 -34.5t49 -86.5q0 -30 -21.5 -50.5t-52.5 -20.5q-30 0 -50 18.5t-20 46.5q0 31 31 56q8 7 8 10q0 8 -19 15t-42 7q-37 0 -62.5 -20.5t-25.5 -49.5q0 -28 21.5 -60.5t88.5 -104.5q55 -59 74.5 -94t19.5 -72q0 -62 -50.5 -109.5t-115.5 -47.5q-11 0 -20 1 q53 -60 53 -120q0 -70 -55 -117.5t-136 -47.5q-72 0 -121.5 34t-49.5 84zM115 359q0 -22 11.5 -42.5t43.5 -56.5q42 -47 65.5 -63.5t47.5 -16.5q27 0 46 16t19 39q0 38 -61 107q-67 75 -110 75q-27 0 -44.5 -16.5t-17.5 -41.5z" />
<glyph unicode="&#xa8;" d="M169 631q0 29 21 50t51 21q29 0 50 -21t21 -50q0 -30 -21 -51t-51 -21q-29 0 -50 21.5t-21 50.5zM359 631q0 29 21 50t51 21q29 0 50 -21t21 -50q0 -30 -21 -51t-51 -21q-29 0 -50 21.5t-21 50.5z" />
<glyph unicode="&#xa9;" horiz-adv-x="747" d="M16 339q0 146 103.5 250t249.5 104t250 -104t104 -250t-104 -249.5t-250 -103.5t-249.5 103.5t-103.5 249.5zM64 339q0 -127 89 -216t216 -89t216.5 89t89.5 216t-89.5 216.5t-216.5 89.5t-216 -89.5t-89 -216.5zM173 305q-3 89 68.5 154t168.5 65q62 0 98 -36l26 24h32 l-28 -146l-37 4q-6 117 -86 117q-39 0 -68 -35t-41 -81t-10 -90q1 -40 23 -63t60 -23q35 0 65 21t42 54h44q-14 -50 -59 -83.5t-110 -33.5q-83 0 -135 41t-53 111z" />
<glyph unicode="&#xaa;" horiz-adv-x="412" d="M29 293l16 58h346l-16 -58h-346zM29 551q0 73 58.5 129.5t132.5 56.5q57 0 82 -37l10 28h105l-66 -199q-7 -23 -7 -27q0 -10 9 -10q8 0 30 21t40 46l26 -14q-31 -48 -68.5 -75.5t-72.5 -27.5q-24 0 -40.5 13.5t-15.5 32.5q0 3 1 5q-48 -51 -108 -51q-51 0 -83.5 30.5 t-32.5 78.5zM138 531q0 -22 11 -34.5t30 -12.5q38 0 69 58q34 68 34 119q0 19 -11.5 31t-29.5 12q-39 0 -71 -57q-32 -62 -32 -116z" />
<glyph unicode="&#xab;" horiz-adv-x="481" d="M-35 245q0 4 7 8l222 160q9 6 16 6q5 0 9.5 -4.5t4.5 -9.5t-9 -16l-135 -142l75 -147q3 -5 3 -10q0 -12 -12 -12q-8 0 -16 8l-160 151zM168 245q0 4 7 8l222 160q9 6 16 6q5 0 9.5 -4.5t4.5 -9.5t-9 -16l-135 -142l75 -147q3 -5 3 -10q0 -12 -12 -12q-8 0 -16 8l-160 151 z" />
<glyph unicode="&#xac;" horiz-adv-x="606" d="M39 290v100h518v-230h-100v130h-418z" />
<glyph unicode="&#xad;" d="M10 180l35 130h227l-35 -130h-227z" />
<glyph unicode="&#xae;" horiz-adv-x="747" d="M16 339q0 146 103.5 250t249.5 104t250 -104t104 -250t-104 -249.5t-250 -103.5t-249.5 103.5t-103.5 249.5zM64 339q0 -127 89 -216t216 -89t216.5 89t89.5 216t-89.5 216.5t-216.5 89.5t-216 -89.5t-89 -216.5zM156 164l5 38h14q17 0 21 3q3 3 11 34l56 207q6 23 6 30 q0 6 -5.5 7t-25.5 1h-13l4 37h187q85 0 124.5 -19t40.5 -66q3 -79 -128 -97q54 -22 55 -82q3 -27 4 -46v-5l1 -1q17 0 33 44l35 -15q-25 -77 -102 -77q-37 0 -61.5 20t-25.5 53q0 8 2.5 33t2.5 35q-1 33 -40 33h-10l-25 -92q-6 -22 -6 -29q0 -6 6 -7t27 -1h15l-5 -38h-203z M357 369q59 0 75 12q30 22 30 61q-2 42 -49 42h-13q-12 0 -15 -13z" />
<glyph unicode="&#xaf;" d="M158 592l21 76h334l-21 -76h-334z" />
<glyph unicode="&#xb0;" horiz-adv-x="400" d="M70 534q0 64 44.5 108t108.5 44q62 0 104.5 -44t42.5 -109q0 -64 -43.5 -108.5t-106.5 -44.5t-106.5 44.5t-43.5 109.5zM126 533q0 -40 28 -68t66 -28q39 0 66 28t27 68t-26.5 68t-64.5 28q-40 0 -68 -28t-28 -68z" />
<glyph unicode="&#xb1;" horiz-adv-x="606" d="M39 0v100h518v-100h-518zM39 300v100h209v209h100v-209h209v-100h-209v-110h-100v110h-209z" />
<glyph unicode="&#xb2;" horiz-adv-x="344" d="M-16 282v5q0 21 23.5 47t90.5 80q82 66 113 100q36 42 36 85q0 28 -19.5 45.5t-50.5 17.5q-23 0 -43 -11.5t-20 -24.5q0 -6 4.5 -9.5t19.5 -10.5q36 -13 36 -45q0 -23 -15.5 -37t-40.5 -14q-29 0 -48 19.5t-19 49.5q0 55 46.5 90.5t117.5 35.5q65 0 105 -30.5t40 -80.5 q0 -51 -49 -97q-31 -27 -94 -61q-60 -33 -115 -68h119q32 0 45.5 9.5t31.5 44.5l8 14l34 -11l-55 -143h-301z" />
<glyph unicode="&#xb3;" horiz-adv-x="344" d="M-4 373q0 28 17.5 45.5t45.5 17.5q24 0 39.5 -14t15.5 -35q0 -33 -42 -46q-4 -1 -4 -5q0 -9 17 -17.5t36 -8.5q39 0 62.5 32.5t23.5 85.5q0 26 -10.5 40.5t-30.5 14.5q-1 0 -15.5 -3t-19.5 -3q-26 0 -26 22q0 11 7 17.5t18 6.5q5 0 19 -3t19 -3q28 0 50 28t22 65 q0 27 -14 42t-40 15q-18 0 -33 -6.5t-15 -13.5q1 -3 4 -4q29 -20 29 -44q0 -19 -15.5 -32t-37.5 -13q-25 0 -41 15.5t-16 39.5q0 40 42 68t103 28q63 0 102.5 -27.5t39.5 -71.5q0 -38 -29 -66t-77 -40q-1 -1 -2 -1q-2 -1 -3 -1q29 -7 43 -16q18 -10 29 -30.5t11 -42.5 q0 -58 -51.5 -96.5t-129.5 -38.5q-65 0 -104 27t-39 72z" />
<glyph unicode="&#xb4;" d="M214 538l124 139q26 28 39 36.5t31 8.5q23 0 38.5 -15t15.5 -37q0 -28 -28 -44l-166 -88h-54z" />
<glyph unicode="&#xb5;" horiz-adv-x="685" d="M-90 -171q0 21 10 42t46 73q32 46 40 76l88 299q16 55 16 67q0 18 -11.5 24.5t-49.5 6.5h-10l7 61h253l-90 -304q-1 -2 -7 -20t-10 -33.5t-4 -25.5t7.5 -17.5t16.5 -7.5q41 0 97 71.5t82 157.5l48 165h158l-93 -312q-16 -53 -16 -67q0 -5 4.5 -9.5t9.5 -4.5q28 0 99 109 l38 -28q-58 -91 -106.5 -128.5t-105.5 -37.5q-97 0 -97 84q0 17 1 27q-49 -59 -92 -85t-91 -26q-49 0 -80 37q-8 -24 -8 -44q0 -13 4.5 -51.5t4.5 -44.5q0 -41 -30 -71.5t-71 -30.5q-25 0 -41.5 13.5t-16.5 34.5z" />
<glyph unicode="&#xb6;" horiz-adv-x="650" d="M67 -144l15 54h6q43 0 57 22q4 8 19 65l88 328h-9q-77 0 -121.5 37.5t-44.5 102.5q0 51 26.5 106.5t67.5 90.5q71 60 201 60h289l-15 -54h-3q-40 0 -56 -14q-7 -6 -10 -15t-16 -58q-15 -54 -75 -278t-92 -345q-5 -17 -5 -26q0 -22 51 -22h6l-14 -54h-365zM242 -89h38 l203 757h-38z" />
<glyph unicode="&#xb7;" horiz-adv-x="287" d="M45 250q0 39 27.5 66.5t66.5 27.5q38 0 66 -27.5t28 -66.5t-28 -66.5t-66 -27.5q-39 0 -66.5 27.5t-27.5 66.5z" />
<glyph unicode="&#xb8;" d="M-87 -191l22 35q43 -19 72 -19q22 0 35.5 10.5t13.5 27.5q0 15 -12 25t-30 10q-9 0 -29 -4l-17 17l71 94h45l-46 -66q20 3 33 3q37 0 61.5 -21.5t24.5 -53.5q0 -39 -37.5 -63t-97.5 -24q-68 0 -109 29z" />
<glyph unicode="&#xb9;" horiz-adv-x="344" d="M21 282l5 39h37q32 0 41 4t14 21q1 3 3.5 11.5t3.5 13.5l61 221q4 16 4 22q0 13 -26 13h-62l10 36q50 1 103.5 14t76.5 29h31l-93 -335q-8 -32 -8 -36q0 -9 9 -11.5t40 -2.5h28l-5 -39h-273z" />
<glyph unicode="&#xba;" horiz-adv-x="356" d="M29 293l16 58h304l-16 -58h-304zM29 563q0 71 62.5 122.5t147.5 51.5q66 0 105 -31t39 -84q0 -77 -61 -128.5t-152 -51.5q-65 0 -103 32.5t-38 88.5zM133 516q0 -48 42 -48q43 0 72 63q33 75 33 132q0 21 -12 33.5t-32 12.5q-29 0 -54 -34.5t-37 -78.5t-12 -80z" />
<glyph unicode="&#xbb;" horiz-adv-x="481" d="M-6 92q0 6 9 16l135 142l-75 147q-3 4 -3 10q0 12 12 12q8 0 16 -8l160 -151l5 -8q0 -4 -7 -8l-222 -160q-9 -6 -16 -6q-5 0 -9.5 4.5t-4.5 9.5zM197 92q0 6 9 16l135 142l-75 147q-3 4 -3 10q0 12 12 12q8 0 16 -8l160 -151l5 -8q0 -4 -7 -8l-222 -160q-9 -6 -16 -6 q-5 0 -9.5 4.5t-4.5 9.5z" />
<glyph unicode="&#xbc;" horiz-adv-x="861" d="M21 282l5 39h37q32 0 41 4t14 21q1 3 3.5 11.5t3.5 13.5l61 221q4 16 4 22q0 13 -26 13h-62l10 36q50 1 103.5 14t76.5 29h31l-93 -335q-8 -32 -8 -36q0 -9 9 -11.5t40 -2.5h28l-5 -39h-273zM181 0l420 722h79l-419 -722h-80zM467 109v38l293 277h66l-78 -269h71l-8 -46 h-76l-6 -21q-8 -28 -8 -36t9 -10.5t38 -2.5h15l-6 -39h-235l6 39h18q38 0 46 7q4 4 16 44l5 19h-166zM535 155h111l42 148z" />
<glyph unicode="&#xbd;" horiz-adv-x="861" d="M21 282l5 39h37q32 0 41 4t14 21q1 3 3.5 11.5t3.5 13.5l61 221q4 16 4 22q0 13 -26 13h-62l10 36q50 1 103.5 14t76.5 29h31l-93 -335q-8 -32 -8 -36q0 -9 9 -11.5t40 -2.5h28l-5 -39h-273zM186 0l419 722h80l-420 -722h-79zM481 0q-3 21 21 48.5t93 83.5q87 70 113 100 q36 41 36 84q0 28 -19.5 45.5t-50.5 17.5q-23 0 -43 -11.5t-20 -24.5q0 -6 4.5 -9.5t19.5 -9.5q36 -14 36 -45q0 -23 -15.5 -37t-40.5 -14q-29 0 -48 19.5t-19 49.5q0 54 46.5 89.5t117.5 35.5q65 0 105 -30.5t40 -80.5t-49 -96q-31 -28 -94 -61q-60 -33 -115 -68h119 q32 0 45.5 9.5t31.5 43.5l8 15l34 -11l-55 -143h-301z" />
<glyph unicode="&#xbe;" horiz-adv-x="861" d="M-4 373q0 28 17.5 45.5t45.5 17.5q24 0 39.5 -14t15.5 -35q0 -33 -42 -46q-4 -1 -4 -5q0 -9 17 -17.5t36 -8.5q39 0 62.5 32.5t23.5 85.5q0 26 -10.5 40.5t-30.5 14.5q-1 0 -15.5 -3t-19.5 -3q-26 0 -26 22q0 11 7 17.5t18 6.5q5 0 19 -3t19 -3q28 0 50 28t22 65 q0 27 -14 42t-40 15q-18 0 -33 -6.5t-15 -13.5q1 -3 4 -4q29 -20 29 -44q0 -19 -15.5 -32t-37.5 -13q-25 0 -41 15.5t-16 39.5q0 40 42 68t103 28q63 0 102.5 -27.5t39.5 -71.5q0 -38 -29 -66t-77 -40q-3 -1 -5 -2q29 -7 43 -16q18 -10 29 -30.5t11 -42.5q0 -58 -51.5 -96.5 t-129.5 -38.5q-65 0 -104 27t-39 72zM195 0l420 722h79l-419 -722h-80zM467 109v38l293 277h66l-78 -269h71l-8 -46h-76l-6 -21q-8 -28 -8 -36t9 -10.5t38 -2.5h15l-6 -39h-235l6 39h18q38 0 46 7q4 4 16 44l5 19h-166zM535 155h111l42 148z" />
<glyph unicode="&#xbf;" horiz-adv-x="481" d="M157 -103q0 62 39.5 109.5t131.5 96.5q47 25 61.5 38.5t14.5 33.5q0 19 -12.5 30.5t-33.5 11.5q-48 0 -74 -73l-49 12q16 51 54 81t87 30q51 0 86 -35t35 -85q0 -120 -152 -206q-48 -28 -65 -46t-17 -41q0 -29 20 -46.5t53 -17.5q50 0 88 45.5t38 104.5q0 2 -0.5 4.5 t-1 6.5t-0.5 8h48q2 -24 2 -26q0 -75 -53 -133t-133 -58q-72 0 -119.5 44t-47.5 111zM356 407q0 36 25.5 61.5t62.5 25.5q35 0 60.5 -26t25.5 -61q0 -36 -25.5 -61.5t-61.5 -25.5t-61.5 25.5t-25.5 61.5z" />
<glyph unicode="&#xc0;" horiz-adv-x="741" d="M-75 0l7 54h16q62 0 123 103l348 579h62l131 -622q8 -35 26 -47.5t64 -12.5h14l-7 -54h-374l7 54h16q50 0 66 8q17 7 17 23q0 13 -4 32l-20 103h-232l-46 -81q-14 -23 -14 -43q0 -23 15 -32.5t56 -9.5h23l-8 -54h-286zM217 274h187l-46 241zM348 889q11 20 37 33.5 t53 13.5q22 0 34.5 -7.5t28.5 -32.5l81 -126h-65l-156 80q-26 14 -13 39z" />
<glyph unicode="&#xc1;" horiz-adv-x="741" d="M-75 0l7 54h16q62 0 123 103l348 579h62l131 -622q8 -35 26 -47.5t64 -12.5h14l-7 -54h-374l7 54h16q50 0 66 8q17 7 17 23q0 13 -4 32l-20 103h-232l-46 -81q-14 -23 -14 -43q0 -23 15 -32.5t56 -9.5h23l-8 -54h-286zM217 274h187l-46 241zM335 770l149 126 q29 25 45.5 32.5t38.5 7.5q27 0 46 -13.5t19 -33.5q0 -25 -34 -39l-199 -80h-65z" />
<glyph unicode="&#xc2;" horiz-adv-x="741" d="M-75 0l7 54h16q62 0 123 103l348 579h62l131 -622q8 -35 26 -47.5t64 -12.5h14l-7 -54h-374l7 54h16q50 0 66 8q17 7 17 23q0 13 -4 32l-20 103h-232l-46 -81q-14 -23 -14 -43q0 -23 15 -32.5t56 -9.5h23l-8 -54h-286zM217 274h187l-46 241zM255 775l188 157h122 l100 -157h-70l-108 78l-152 -78h-80z" />
<glyph unicode="&#xc3;" horiz-adv-x="741" d="M-75 0l7 54h16q62 0 123 103l348 579h62l131 -622q8 -35 26 -47.5t64 -12.5h14l-7 -54h-374l7 54h16q50 0 66 8q17 7 17 23q0 13 -4 32l-20 103h-232l-46 -81q-14 -23 -14 -43q0 -23 15 -32.5t56 -9.5h23l-8 -54h-286zM217 274h187l-46 241zM296 790q4 55 39 90.5 t85 35.5q31 0 79 -19q53 -21 70 -21q38 0 50 40h47q-2 -50 -39.5 -88t-84.5 -38q-30 0 -85 21q-53 21 -72 21q-34 0 -42 -42h-47z" />
<glyph unicode="&#xc4;" horiz-adv-x="741" d="M-75 0l7 54h16q62 0 123 103l348 579h62l131 -622q8 -35 26 -47.5t64 -12.5h14l-7 -54h-374l7 54h16q50 0 66 8q17 7 17 23q0 13 -4 32l-20 103h-232l-46 -81q-14 -23 -14 -43q0 -23 15 -32.5t56 -9.5h23l-8 -54h-286zM217 274h187l-46 241zM315 854q0 29 21 50t51 21 q29 0 50 -21t21 -50q0 -30 -21 -51t-51 -21q-29 0 -50 21.5t-21 50.5zM505 854q0 29 21 50t51 21q29 0 50 -21t21 -50q0 -30 -21 -51t-51 -21q-29 0 -50 21.5t-21 50.5z" />
<glyph unicode="&#xc5;" horiz-adv-x="741" d="M-75 0l7 54h16q62 0 123 103l348 579h62l131 -622q8 -35 26 -47.5t64 -12.5h14l-7 -54h-374l7 54h16q50 0 66 8q17 7 17 23q0 13 -4 32l-20 103h-232l-46 -81q-14 -23 -14 -43q0 -23 15 -32.5t56 -9.5h23l-8 -54h-286zM217 274h187l-46 241zM377 869q0 44 32 75.5 t76 31.5t75.5 -31.5t31.5 -75.5q0 -45 -31.5 -76.5t-77.5 -31.5q-43 0 -74.5 32t-31.5 76zM431 868q0 -21 15.5 -37t37.5 -16t38 15.5t16 38.5q0 22 -15.5 37.5t-37.5 15.5q-23 0 -38.5 -16t-15.5 -38z" />
<glyph unicode="&#xc6;" horiz-adv-x="889" d="M-81 0l7 54q21 4 33 16t38 52l294 450q20 30 20 52q0 20 -19.5 32t-52.5 12h-31l7 54h688l-40 -245h-49q0 91 -18 127q-32 64 -120 64h-11q-26 0 -38 -10t-19 -38l-58 -219h39q45 0 71.5 28t51.5 94l47 -7l-90 -335l-47 7q6 35 6 62q0 97 -61 97h-32l-63 -236 q-5 -20 -5 -32q0 -25 47 -25h12q79 0 155 56.5t120 148.5l49 -11l-66 -248h-594l8 54h24q29 0 38.5 3t17.5 11q10 11 27 76l34 127h-171l-91 -145q-12 -19 -12 -34q0 -37 80 -38l-7 -54h-219zM205 325h148l89 332l1 4q0 6 -9 6q-7 0 -13 -9z" />
<glyph unicode="&#xc7;" horiz-adv-x="759" d="M35 292q0 179 131 312t307 133q117 0 184 -82l56 57h46l-58 -286l-49 6q-4 128 -44.5 190t-120.5 62q-104 0 -167 -108q-44 -73 -69.5 -164t-25.5 -175q0 -87 46.5 -138.5t125.5 -51.5q68 0 129.5 46t89.5 119h63q-39 -111 -121.5 -170t-196.5 -57l-34 -47q20 3 33 3 q37 0 61.5 -21.5t24.5 -53.5q0 -39 -37.5 -63.5t-97.5 -24.5q-68 0 -109 29l22 35q43 -19 72 -19q22 0 35.5 10.5t13.5 27.5q0 15 -12 25t-30 10q-9 0 -29 -4l-17 17l60 79q-134 17 -208 97t-74 207z" />
<glyph unicode="&#xc8;" horiz-adv-x="741" d="M-41 0l7 54h14q45 0 59.5 8.5t22.5 39.5l128 476q13 51 13 63q0 17 -15 22t-64 5h-19l8 54h615l-40 -245h-52q-2 109 -35.5 150t-122.5 41h-38q-31 0 -43.5 -9.5t-19.5 -38.5l-59 -219h31q64 0 97 27t59 95l53 -7l-90 -335l-53 7q5 37 5 62q0 50 -19 73.5t-65 23.5h-32 l-63 -236q-7 -24 -6 -32q0 -25 54 -25h36q86 0 164 54t127 151l52 -11l-66 -248h-643zM323 889q11 20 37 33.5t53 13.5q22 0 34.5 -7.5t28.5 -32.5l81 -126h-65l-156 80q-26 14 -13 39z" />
<glyph unicode="&#xc9;" horiz-adv-x="741" d="M-41 0l7 54h14q45 0 59.5 8.5t22.5 39.5l128 476q13 51 13 63q0 17 -15 22t-64 5h-19l8 54h615l-40 -245h-52q-2 109 -35.5 150t-122.5 41h-38q-31 0 -43.5 -9.5t-19.5 -38.5l-59 -219h31q64 0 97 27t59 95l53 -7l-90 -335l-53 7q5 37 5 62q0 50 -19 73.5t-65 23.5h-32 l-63 -236q-7 -24 -6 -32q0 -25 54 -25h36q86 0 164 54t127 151l52 -11l-66 -248h-643zM310 770l149 126q29 25 45.5 32.5t38.5 7.5q27 0 46 -13.5t19 -33.5q0 -25 -34 -39l-199 -80h-65z" />
<glyph unicode="&#xca;" horiz-adv-x="741" d="M-41 0l7 54h14q45 0 59.5 8.5t22.5 39.5l128 476q13 51 13 63q0 17 -15 22t-64 5h-19l8 54h615l-40 -245h-52q-2 109 -35.5 150t-122.5 41h-38q-31 0 -43.5 -9.5t-19.5 -38.5l-59 -219h31q64 0 97 27t59 95l53 -7l-90 -335l-53 7q5 37 5 62q0 50 -19 73.5t-65 23.5h-32 l-63 -236q-7 -24 -6 -32q0 -25 54 -25h36q86 0 164 54t127 151l52 -11l-66 -248h-643zM230 775l188 157h122l100 -157h-70l-108 78l-152 -78h-80z" />
<glyph unicode="&#xcb;" horiz-adv-x="741" d="M-41 0l7 54h14q45 0 59.5 8.5t22.5 39.5l128 476q13 51 13 63q0 17 -15 22t-64 5h-19l8 54h615l-40 -245h-52q-2 109 -35.5 150t-122.5 41h-38q-31 0 -43.5 -9.5t-19.5 -38.5l-59 -219h31q64 0 97 27t59 95l53 -7l-90 -335l-53 7q5 37 5 62q0 50 -19 73.5t-65 23.5h-32 l-63 -236q-7 -24 -6 -32q0 -25 54 -25h36q86 0 164 54t127 151l52 -11l-66 -248h-643zM290 854q0 29 21 50t51 21q29 0 50 -21t21 -50q0 -30 -21 -51t-51 -21q-29 0 -50 21.5t-21 50.5zM480 854q0 29 21 50t51 21q29 0 50 -21t21 -50q0 -30 -21 -51t-51 -21q-29 0 -50 21.5 t-21 50.5z" />
<glyph unicode="&#xcc;" horiz-adv-x="444" d="M-41 0l7 54h20q49 0 63 14q7 6 10 15.5t17 60.5l116 434q14 48 14 63q0 17 -15 22t-64 5h-22l8 54h373l-7 -54h-21q-48 0 -62 -14q-7 -5 -10.5 -14.5t-16.5 -61.5l-116 -434q-14 -55 -14 -63q0 -17 15 -22t64 -5h22l-8 -54h-373zM221 889q11 20 37 33.5t53 13.5 q22 0 34.5 -7.5t28.5 -32.5l81 -126h-65l-156 80q-26 14 -13 39z" />
<glyph unicode="&#xcd;" horiz-adv-x="444" d="M-41 0l7 54h20q49 0 63 14q7 6 10 15.5t17 60.5l116 434q14 48 14 63q0 17 -15 22t-64 5h-22l8 54h373l-7 -54h-21q-48 0 -62 -14q-7 -5 -10.5 -14.5t-16.5 -61.5l-116 -434q-14 -55 -14 -63q0 -17 15 -22t64 -5h22l-8 -54h-373zM208 770l149 126q29 25 45.5 32.5 t38.5 7.5q27 0 46 -13.5t19 -33.5q0 -25 -34 -39l-199 -80h-65z" />
<glyph unicode="&#xce;" horiz-adv-x="444" d="M-41 0l7 54h20q49 0 63 14q7 6 10 15.5t17 60.5l116 434q14 48 14 63q0 17 -15 22t-64 5h-22l8 54h373l-7 -54h-21q-48 0 -62 -14q-7 -5 -10.5 -14.5t-16.5 -61.5l-116 -434q-14 -55 -14 -63q0 -17 15 -22t64 -5h22l-8 -54h-373zM128 775l188 157h122l100 -157h-70 l-108 78l-152 -78h-80z" />
<glyph unicode="&#xcf;" horiz-adv-x="444" d="M-41 0l7 54h20q49 0 63 14q7 6 10 15.5t17 60.5l116 434q14 48 14 63q0 17 -15 22t-64 5h-22l8 54h373l-7 -54h-21q-48 0 -62 -14q-7 -5 -10.5 -14.5t-16.5 -61.5l-116 -434q-14 -55 -14 -63q0 -17 15 -22t64 -5h22l-8 -54h-373zM188 854q0 29 21 50t51 21q29 0 50 -21 t21 -50q0 -30 -21 -51t-51 -21q-29 0 -50 21.5t-21 50.5zM378 854q0 29 21 50t51 21q29 0 50 -21t21 -50q0 -30 -21 -51t-51 -21q-29 0 -50 21.5t-21 50.5z" />
<glyph unicode="&#xd0;" horiz-adv-x="833" d="M-49 0l7 54h20q46 0 61 14q6 6 9.5 15.5t17.5 60.5l50 195h-93l17 63h93l49 176q13 47 13 63q0 17 -14 22t-62 5h-21l7 54h358q82 0 133 -12.5t95 -43.5q105 -73 105 -228q0 -100 -40 -189t-111 -149q-64 -54 -146.5 -77t-213.5 -23h-334zM228 81q0 -27 53 -27h29 q132 0 205 108q41 62 68 158.5t27 180.5q0 82 -38 124.5t-111 42.5h-22q-34 0 -48.5 -12.5t-25.5 -50.5l-56 -203h151l-17 -63h-151l-55 -212q-9 -36 -9 -46z" />
<glyph unicode="&#xd1;" horiz-adv-x="852" d="M-57 0l7 54q51 2 81 27q21 19 29 38t31 98l113 419q-17 32 -59 32h-56l7 54h254l268 -507l78 290q22 84 22 108q0 55 -90 55l7 54h277l-7 -54q-51 0 -81 -27q-21 -21 -29.5 -39t-31.5 -97l-139 -519h-80l-296 566l-90 -335q-21 -84 -21 -108q0 -29 17.5 -42t59.5 -13h21 l-8 -54h-284zM374 790q4 55 39 90.5t85 35.5q31 0 79 -19q53 -21 70 -21q38 0 50 40h47q-2 -50 -39.5 -88t-84.5 -38q-30 0 -85 21q-53 21 -72 21q-34 0 -42 -42h-47z" />
<glyph unicode="&#xd2;" horiz-adv-x="833" d="M36 286q0 91 37.5 175t99.5 144t145 96t172 36q130 0 218.5 -85.5t88.5 -210.5q0 -186 -135 -321t-320 -135q-139 0 -222.5 82.5t-83.5 218.5zM215 193q0 -71 34 -112.5t93 -41.5q108 0 191 157q37 71 58.5 158t21.5 166q0 76 -33.5 119.5t-92.5 43.5q-110 0 -187 -155 q-37 -75 -61 -170t-24 -165zM415 889q11 20 37 33.5t53 13.5q22 0 34.5 -7.5t28.5 -32.5l81 -126h-65l-156 80q-26 14 -13 39z" />
<glyph unicode="&#xd3;" horiz-adv-x="833" d="M36 286q0 91 37.5 175t99.5 144t145 96t172 36q130 0 218.5 -85.5t88.5 -210.5q0 -186 -135 -321t-320 -135q-139 0 -222.5 82.5t-83.5 218.5zM215 193q0 -71 34 -112.5t93 -41.5q108 0 191 157q37 71 58.5 158t21.5 166q0 76 -33.5 119.5t-92.5 43.5q-110 0 -187 -155 q-37 -75 -61 -170t-24 -165zM402 770l149 126q29 25 45.5 32.5t38.5 7.5q27 0 46 -13.5t19 -33.5q0 -25 -34 -39l-199 -80h-65z" />
<glyph unicode="&#xd4;" horiz-adv-x="833" d="M36 286q0 91 37.5 175t99.5 144t145 96t172 36q130 0 218.5 -85.5t88.5 -210.5q0 -186 -135 -321t-320 -135q-139 0 -222.5 82.5t-83.5 218.5zM215 193q0 -71 34 -112.5t93 -41.5q108 0 191 157q37 71 58.5 158t21.5 166q0 76 -33.5 119.5t-92.5 43.5q-110 0 -187 -155 q-37 -75 -61 -170t-24 -165zM322 775l188 157h122l100 -157h-70l-108 78l-152 -78h-80z" />
<glyph unicode="&#xd5;" horiz-adv-x="833" d="M36 286q0 91 37.5 175t99.5 144t145 96t172 36q130 0 218.5 -85.5t88.5 -210.5q0 -186 -135 -321t-320 -135q-139 0 -222.5 82.5t-83.5 218.5zM215 193q0 -71 34 -112.5t93 -41.5q108 0 191 157q37 71 58.5 158t21.5 166q0 76 -33.5 119.5t-92.5 43.5q-110 0 -187 -155 q-37 -75 -61 -170t-24 -165zM363 790q4 55 39 90.5t85 35.5q31 0 79 -19q53 -21 70 -21q38 0 50 40h47q-2 -50 -39.5 -88t-84.5 -38q-30 0 -85 21q-52 21 -72 21q-34 0 -42 -42h-47z" />
<glyph unicode="&#xd6;" horiz-adv-x="833" d="M36 286q0 91 37.5 175t99.5 144t145 96t172 36q130 0 218.5 -85.5t88.5 -210.5q0 -186 -135 -321t-320 -135q-139 0 -222.5 82.5t-83.5 218.5zM215 193q0 -71 34 -112.5t93 -41.5q108 0 191 157q37 71 58.5 158t21.5 166q0 76 -33.5 119.5t-92.5 43.5q-110 0 -187 -155 q-37 -75 -61 -170t-24 -165zM382 854q0 29 21 50t51 21q29 0 50 -21t21 -50q0 -30 -21 -51t-51 -21q-29 0 -50 21.5t-21 50.5zM572 854q0 29 21 50t51 21q29 0 50 -21t21 -50q0 -30 -21 -51t-51 -21q-29 0 -50 21.5t-21 50.5z" />
<glyph unicode="&#xd7;" horiz-adv-x="606" d="M80 102l147 148l-147 148l70 70l148 -147l148 147l70 -70l-147 -148l147 -148l-70 -70l-148 147l-148 -147z" />
<glyph unicode="&#xd8;" horiz-adv-x="833" d="M17 -83l114 140q-95 83 -95 229q0 120 61 224.5t164.5 165.5t223.5 61q96 0 167 -40l61 76h65l-86 -106q105 -91 105 -226q0 -121 -61.5 -226.5t-166.5 -167.5t-225 -62q-104 0 -172 42l-90 -110h-65zM215 197q0 -10 2 -34l374 460q-34 59 -104 59q-109 0 -187 -154 q-36 -75 -60.5 -169t-24.5 -162zM234 104q34 -64 107 -64q109 0 192 157q36 69 58 156t22 161q0 19 -3 52z" />
<glyph unicode="&#xd9;" horiz-adv-x="833" d="M88 196q0 42 17 107l74 275q14 54 14 63q0 17 -13.5 22t-61.5 5h-23l7 54h376l-8 -54h-22q-52 0 -66 -14q-7 -6 -10.5 -15.5t-16.5 -60.5l-81 -304q-15 -55 -15 -88q0 -66 39.5 -102.5t110.5 -36.5q74 0 125 46.5t81 160.5l67 252q22 83 22 107q0 55 -90 55l7 54h274 l-7 -54q-48 0 -78 -27q-21 -19 -29.5 -38.5t-31.5 -96.5l-74 -279q-34 -126 -106.5 -184t-197.5 -58q-129 0 -206 58t-77 153zM414 889q11 20 37 33.5t53 13.5q22 0 34.5 -7.5t28.5 -32.5l81 -126h-65l-156 80q-26 14 -13 39z" />
<glyph unicode="&#xda;" horiz-adv-x="833" d="M88 196q0 42 17 107l74 275q14 54 14 63q0 17 -13.5 22t-61.5 5h-23l7 54h376l-8 -54h-22q-52 0 -66 -14q-7 -6 -10.5 -15.5t-16.5 -60.5l-81 -304q-15 -55 -15 -88q0 -66 39.5 -102.5t110.5 -36.5q74 0 125 46.5t81 160.5l67 252q22 83 22 107q0 55 -90 55l7 54h274 l-7 -54q-48 0 -78 -27q-21 -19 -29.5 -38.5t-31.5 -96.5l-74 -279q-34 -126 -106.5 -184t-197.5 -58q-129 0 -206 58t-77 153zM401 770l149 126q29 25 45.5 32.5t38.5 7.5q27 0 46 -13.5t19 -33.5q0 -25 -34 -39l-199 -80h-65z" />
<glyph unicode="&#xdb;" horiz-adv-x="833" d="M88 196q0 42 17 107l74 275q14 54 14 63q0 17 -13.5 22t-61.5 5h-23l7 54h376l-8 -54h-22q-52 0 -66 -14q-7 -6 -10.5 -15.5t-16.5 -60.5l-81 -304q-15 -55 -15 -88q0 -66 39.5 -102.5t110.5 -36.5q74 0 125 46.5t81 160.5l67 252q22 83 22 107q0 55 -90 55l7 54h274 l-7 -54q-48 0 -78 -27q-21 -19 -29.5 -38.5t-31.5 -96.5l-74 -279q-34 -126 -106.5 -184t-197.5 -58q-129 0 -206 58t-77 153zM321 775l188 157h122l100 -157h-70l-108 78l-152 -78h-80z" />
<glyph unicode="&#xdc;" horiz-adv-x="833" d="M88 196q0 42 17 107l74 275q14 54 14 63q0 17 -13.5 22t-61.5 5h-23l7 54h376l-8 -54h-22q-52 0 -66 -14q-7 -6 -10.5 -15.5t-16.5 -60.5l-81 -304q-15 -55 -15 -88q0 -66 39.5 -102.5t110.5 -36.5q74 0 125 46.5t81 160.5l67 252q22 83 22 107q0 55 -90 55l7 54h274 l-7 -54q-48 0 -78 -27q-21 -19 -29.5 -38.5t-31.5 -96.5l-74 -279q-34 -126 -106.5 -184t-197.5 -58q-129 0 -206 58t-77 153zM381 854q0 29 21 50t51 21q29 0 50 -21t21 -50q0 -30 -21 -51t-51 -21q-29 0 -50 21.5t-21 50.5zM571 854q0 29 21 50t51 21q29 0 50 -21t21 -50 q0 -30 -21 -51t-51 -21q-29 0 -50 21.5t-21 50.5z" />
<glyph unicode="&#xdd;" horiz-adv-x="704" d="M15 668l7 54h366l-7 -54h-43q-26 0 -35 -5t-9 -19q0 -12 9 -34l91 -231l159 210q17 22 17 43q0 36 -57 36h-36l8 54h292l-7 -54q-47 -1 -78 -22t-76 -79l-200 -260l-43 -163q-14 -53 -14 -63q0 -17 15.5 -22t64.5 -5h25l-7 -54h-389l7 54h19q62 0 76 14q7 6 10 15.5 t17 60.5l43 163l-117 304q-13 34 -30.5 45.5t-54.5 11.5h-23zM329 770l149 126q29 25 45.5 32.5t38.5 7.5q27 0 46 -13.5t19 -33.5q0 -25 -34 -39l-199 -80h-65z" />
<glyph unicode="&#xde;" horiz-adv-x="741" d="M-38 0l7 54h18q51 0 65 14q7 6 10.5 15.5t16.5 60.5l116 434q15 56 14 63q0 17 -15 22t-64 5h-22l8 54h373l-7 -54h-17q-50 0 -61.5 -7.5t-20.5 -40.5l-11 -42h61q138 0 197.5 -48t59.5 -139q0 -114 -83.5 -169.5t-270.5 -55.5h-75l-5 -22q-14 -61 -14 -63q0 -17 15 -22 t64 -5h22l-8 -54h-373zM276 220h43q97 0 144.5 52.5t47.5 146.5q0 49 -25.5 77t-67.5 28h-11q-32 0 -43.5 -9.5t-20.5 -43.5z" />
<glyph unicode="&#xdf;" horiz-adv-x="574" d="M-66 -205q42 104 62.5 176t49.5 215l46 229q34 171 93.5 246.5t158.5 75.5q79 0 129 -44t50 -114q0 -64 -40.5 -109t-117.5 -60q74 -30 108.5 -74t34.5 -115q0 -104 -63 -170t-161 -66q-45 0 -86 16l16 54q22 -23 45 -23q31 0 55 50.5t34 109.5t10 107q0 65 -33 87 q-2 1 -16.5 7t-25.5 12.5t-11 14.5q0 18 28 18q39 0 54 16q17 17 29 58t12 85q0 43 -15 69t-41 26q-35 0 -57.5 -42.5t-39.5 -143.5l-58 -337q-30 -171 -86 -349z" />
<glyph unicode="&#xe0;" horiz-adv-x="667" d="M15 167q0 121 87.5 216.5t198.5 95.5q89 0 125 -63l14 48h157l-98 -332q-10 -39 -10 -46q0 -6 4.5 -11t9.5 -5q13 0 44.5 34t59.5 78l39 -25q-46 -78 -102 -125t-108 -47q-41 0 -63 24t-22 64q-36 -47 -73.5 -67t-89.5 -20q-76 0 -124.5 51t-48.5 130zM178 135 q0 -36 16.5 -57.5t44.5 -21.5q39 0 76.5 53t58.5 121t21 121q0 32 -17 52.5t-45 20.5q-58 0 -106.5 -98.5t-48.5 -190.5zM283 670q12 22 36 37t46 15q18 0 26.5 -8.5t19.5 -36.5l50 -139h-54l-119 88q-20 15 -5 44z" />
<glyph unicode="&#xe1;" horiz-adv-x="667" d="M15 167q0 121 87.5 216.5t198.5 95.5q89 0 125 -63l14 48h157l-98 -332q-10 -39 -10 -46q0 -6 4.5 -11t9.5 -5q13 0 44.5 34t59.5 78l39 -25q-46 -78 -102 -125t-108 -47q-41 0 -63 24t-22 64q-36 -47 -73.5 -67t-89.5 -20q-76 0 -124.5 51t-48.5 130zM178 135 q0 -36 16.5 -57.5t44.5 -21.5q39 0 76.5 53t58.5 121t21 121q0 32 -17 52.5t-45 20.5q-58 0 -106.5 -98.5t-48.5 -190.5zM266 538l124 139q26 28 39 36.5t31 8.5q23 0 38.5 -15t15.5 -37q0 -28 -28 -44l-166 -88h-54z" />
<glyph unicode="&#xe2;" horiz-adv-x="667" d="M15 167q0 121 87.5 216.5t198.5 95.5q89 0 125 -63l14 48h157l-98 -332q-10 -39 -10 -46q0 -6 4.5 -11t9.5 -5q13 0 44.5 34t59.5 78l39 -25q-46 -78 -102 -125t-108 -47q-41 0 -63 24t-22 64q-36 -47 -73.5 -67t-89.5 -20q-76 0 -124.5 51t-48.5 130zM178 135 q0 -36 16.5 -57.5t44.5 -21.5q39 0 76.5 53t58.5 121t21 121q0 32 -17 52.5t-45 20.5q-58 0 -106.5 -98.5t-48.5 -190.5zM194 543l157 174h101l84 -174h-59l-90 86l-126 -86h-67z" />
<glyph unicode="&#xe3;" horiz-adv-x="667" d="M15 167q0 121 87.5 216.5t198.5 95.5q89 0 125 -63l14 48h157l-98 -332q-10 -39 -10 -46q0 -6 4.5 -11t9.5 -5q13 0 44.5 34t59.5 78l39 -25q-46 -78 -102 -125t-108 -47q-41 0 -63 24t-22 64q-36 -47 -73.5 -67t-89.5 -20q-76 0 -124.5 51t-48.5 130zM178 135 q0 -36 16.5 -57.5t44.5 -21.5q39 0 76.5 53t58.5 121t21 121q0 32 -17 52.5t-45 20.5q-58 0 -106.5 -98.5t-48.5 -190.5zM203 567q4 55 39 90.5t85 35.5q31 0 79 -19q53 -21 70 -21q38 0 50 40h47q-2 -50 -39.5 -88t-84.5 -38q-30 0 -85 21q-52 21 -72 21q-34 0 -42 -42h-47 z" />
<glyph unicode="&#xe4;" horiz-adv-x="667" d="M15 167q0 121 87.5 216.5t198.5 95.5q89 0 125 -63l14 48h157l-98 -332q-10 -39 -10 -46q0 -6 4.5 -11t9.5 -5q13 0 44.5 34t59.5 78l39 -25q-46 -78 -102 -125t-108 -47q-41 0 -63 24t-22 64q-36 -47 -73.5 -67t-89.5 -20q-76 0 -124.5 51t-48.5 130zM178 135 q0 -36 16.5 -57.5t44.5 -21.5q39 0 76.5 53t58.5 121t21 121q0 32 -17 52.5t-45 20.5q-58 0 -106.5 -98.5t-48.5 -190.5zM222 631q0 29 21 50t51 21q29 0 50 -21t21 -50q0 -30 -21 -51t-51 -21q-29 0 -50 21.5t-21 50.5zM412 631q0 29 21 50t51 21q29 0 50 -21t21 -50 q0 -30 -21 -51t-51 -21q-29 0 -50 21.5t-21 50.5z" />
<glyph unicode="&#xe5;" horiz-adv-x="667" d="M15 167q0 121 87.5 216.5t198.5 95.5q89 0 125 -63l14 48h157l-98 -332q-10 -39 -10 -46q0 -6 4.5 -11t9.5 -5q13 0 44.5 34t59.5 78l39 -25q-46 -78 -102 -125t-108 -47q-41 0 -63 24t-22 64q-36 -47 -73.5 -67t-89.5 -20q-76 0 -124.5 51t-48.5 130zM178 135 q0 -36 16.5 -57.5t44.5 -21.5q39 0 76.5 53t58.5 121t21 121q0 32 -17 52.5t-45 20.5q-58 0 -106.5 -98.5t-48.5 -190.5zM281 631q0 44 32 75.5t76 31.5t75.5 -31.5t31.5 -75.5q0 -45 -31.5 -76.5t-77.5 -31.5q-43 0 -74.5 32t-31.5 76zM335 630q0 -21 15.5 -37t37.5 -16 t38 15.5t16 38.5q0 22 -15.5 37.5t-37.5 15.5q-23 0 -38.5 -16t-15.5 -38z" />
<glyph unicode="&#xe6;" horiz-adv-x="815" d="M-19 90q0 71 76 110.5t267 63.5q17 65 17 96q0 33 -26 52.5t-70 19.5q-51 0 -51 -17q0 -4 14.5 -28t14.5 -33q0 -27 -22 -45.5t-55 -18.5t-55.5 22t-22.5 54q0 50 48 81.5t125 31.5q65 0 106.5 -16t73.5 -53q38 32 90 50.5t103 18.5q67 0 113.5 -35t46.5 -86 q0 -70 -83.5 -119.5t-234.5 -57.5q-3 -23 -3 -45q0 -43 23 -67.5t63 -24.5q39 0 74 18.5t78 63.5l35 -35q-94 -106 -231 -106q-143 0 -176 113q-65 -113 -201 -113q-65 0 -101 28t-36 77zM139 109q0 -23 14.5 -38t36.5 -15q50 0 87 57q14 23 34 101q-83 -8 -127.5 -35 t-44.5 -70zM464 228q78 11 133 55t55 102q0 22 -11.5 34.5t-31.5 12.5q-47 0 -87 -56t-58 -148z" />
<glyph unicode="&#xe7;" horiz-adv-x="537" d="M3 171q0 125 93 216.5t220 91.5q78 0 124.5 -35t46.5 -94q0 -42 -23.5 -67.5t-62.5 -25.5q-34 0 -56 20t-22 52q0 39 38 62q12 7 12 16q0 11 -12 18t-30 7q-48 0 -87 -51.5t-57.5 -117t-18.5 -123.5q0 -41 23 -67.5t59 -26.5q71 0 156 101l36 -31q-105 -131 -228 -131 q-8 0 -15 1l-35 -47q21 3 34 3q37 0 61.5 -21.5t24.5 -53.5q0 -39 -37.5 -63t-97.5 -24q-68 0 -109 29l22 35q43 -19 71 -19q22 0 36 10.5t14 27.5q0 15 -12 25t-31 10q-9 0 -29 -4l-16 17l62 79q-74 15 -114 62t-40 119z" />
<glyph unicode="&#xe8;" horiz-adv-x="519" d="M-2 171q0 123 95 215.5t221 92.5q70 0 117 -34.5t47 -86.5q0 -104 -170 -153q-66 -20 -149 -24q-2 -26 -2 -44q0 -43 23 -67.5t63 -24.5q39 0 73 18t79 63l35 -35q-93 -105 -228 -105q-99 0 -151.5 47.5t-52.5 137.5zM168 228q43 6 70 16q51 19 84.5 59.5t33.5 81.5 q0 22 -12 34.5t-32 12.5q-47 0 -87 -56.5t-57 -147.5zM259 670q12 22 36 37t46 15q18 0 26.5 -8.5t19.5 -36.5l50 -139h-54l-119 88q-20 15 -5 44z" />
<glyph unicode="&#xe9;" horiz-adv-x="519" d="M-2 171q0 123 95 215.5t221 92.5q70 0 117 -34.5t47 -86.5q0 -104 -170 -153q-66 -20 -149 -24q-2 -26 -2 -44q0 -43 23 -67.5t63 -24.5q39 0 73 18t79 63l35 -35q-93 -105 -228 -105q-99 0 -151.5 47.5t-52.5 137.5zM168 228q43 6 70 16q51 19 84.5 59.5t33.5 81.5 q0 22 -12 34.5t-32 12.5q-47 0 -87 -56.5t-57 -147.5zM243 538l124 139q26 28 39 36.5t31 8.5q23 0 38.5 -15t15.5 -37q0 -28 -28 -44l-166 -88h-54z" />
<glyph unicode="&#xea;" horiz-adv-x="519" d="M-2 171q0 123 95 215.5t221 92.5q70 0 117 -34.5t47 -86.5q0 -104 -170 -153q-66 -20 -149 -24q-2 -26 -2 -44q0 -43 23 -67.5t63 -24.5q39 0 73 18t79 63l35 -35q-93 -105 -228 -105q-99 0 -151.5 47.5t-52.5 137.5zM168 228q43 6 70 16q51 19 84.5 59.5t33.5 81.5 q0 22 -12 34.5t-32 12.5q-47 0 -87 -56.5t-57 -147.5zM170 543l157 174h101l84 -174h-59l-90 86l-126 -86h-67z" />
<glyph unicode="&#xeb;" horiz-adv-x="519" d="M-2 171q0 123 95 215.5t221 92.5q70 0 117 -34.5t47 -86.5q0 -104 -170 -153q-66 -20 -149 -24q-2 -26 -2 -44q0 -43 23 -67.5t63 -24.5q39 0 73 18t79 63l35 -35q-93 -105 -228 -105q-99 0 -151.5 47.5t-52.5 137.5zM168 228q43 6 70 16q51 19 84.5 59.5t33.5 81.5 q0 22 -12 34.5t-32 12.5q-47 0 -87 -56.5t-57 -147.5zM198 631q0 29 21 50t51 21q29 0 50 -21t21 -50q0 -30 -21 -51t-51 -21q-29 0 -50 21.5t-21 50.5zM388 631q0 29 21 50t51 21q29 0 50 -21t21 -50q0 -30 -21 -51t-51 -21q-29 0 -50 21.5t-21 50.5z" />
<glyph unicode="&#xec;" horiz-adv-x="389" d="M38 417l7 47l267 14l-105 -356q-10 -34 -10 -42q0 -16 16 -16q30 0 101 113l39 -28q-51 -86 -100.5 -125t-106.5 -39q-45 0 -74.5 25.5t-29.5 64.5q0 23 15 74l51 170q15 50 15 67q0 19 -12 25t-49 6h-24zM164 670q12 22 36 37t46 15q18 0 26.5 -8.5t19.5 -36.5l50 -139 h-54l-119 88q-20 15 -5 44z" />
<glyph unicode="&#xed;" horiz-adv-x="389" d="M38 417l7 47l267 14l-105 -356q-10 -34 -10 -42q0 -16 16 -16q30 0 101 113l39 -28q-51 -86 -100.5 -125t-106.5 -39q-45 0 -74.5 25.5t-29.5 64.5q0 23 15 74l51 170q15 50 15 67q0 19 -12 25t-49 6h-24zM147 538l124 139q26 28 39 36.5t31 8.5q23 0 38.5 -15t15.5 -37 q0 -28 -28 -44l-166 -88h-54z" />
<glyph unicode="&#xee;" horiz-adv-x="389" d="M38 417l7 47l267 14l-105 -356q-10 -34 -10 -42q0 -16 16 -16q30 0 101 113l39 -28q-51 -86 -100.5 -125t-106.5 -39q-45 0 -74.5 25.5t-29.5 64.5q0 23 15 74l51 170q15 50 15 67q0 19 -12 25t-49 6h-24zM75 543l157 174h101l84 -174h-59l-90 86l-126 -86h-67z" />
<glyph unicode="&#xef;" horiz-adv-x="389" d="M38 417l7 47l267 14l-105 -356q-10 -34 -10 -42q0 -16 16 -16q30 0 101 113l39 -28q-51 -86 -100.5 -125t-106.5 -39q-45 0 -74.5 25.5t-29.5 64.5q0 23 15 74l51 170q15 50 15 67q0 19 -12 25t-49 6h-24zM103 631q0 29 21 50t51 21q29 0 50 -21t21 -50q0 -30 -21 -51 t-51 -21q-29 0 -50 21.5t-21 50.5zM293 631q0 29 21 50t51 21q29 0 50 -21t21 -50q0 -30 -21 -51t-51 -21q-29 0 -50 21.5t-21 50.5z" />
<glyph unicode="&#xf0;" horiz-adv-x="574" d="M10 187q0 118 93 205t218 87q35 0 71 -9q-13 71 -79 168l-139 -71l-26 51l127 64q-22 28 -80 65l34 33q58 -25 109 -65l143 73l26 -51l-124 -64q88 -101 122.5 -180.5t34.5 -182.5q0 -149 -90.5 -236.5t-229.5 -87.5q-98 0 -154 55t-56 146zM165 107q0 -37 17 -57.5 t46 -20.5q66 0 107 105q21 53 35.5 117.5t14.5 104.5q0 34 -18 55t-47 21q-40 0 -77 -52.5t-57.5 -127.5t-20.5 -145z" />
<glyph unicode="&#xf1;" horiz-adv-x="685" d="M3 0l95 319q15 52 15 67q0 19 -12 25t-49 6h-24l7 47l250 14l-32 -132q56 72 103 102.5t102 30.5q49 0 81 -29t32 -74q0 -46 -31 -128l-47 -128q-10 -30 -10 -38q0 -6 4.5 -11t9.5 -5q14 0 36 22.5t61 77.5l9 11l39 -25q-58 -89 -107 -128t-104 -39q-47 0 -74.5 24.5 t-27.5 66.5q0 29 20 87l62 169q9 24 9 36q0 10 -9.5 18t-20.5 8q-37 0 -95 -69q-59 -71 -97 -198l-38 -127h-157zM218 567q4 55 39 90.5t85 35.5q31 0 79 -19q53 -21 70 -21q38 0 50 40h47q-2 -50 -39.5 -88t-84.5 -38q-30 0 -85 21q-52 21 -72 21q-34 0 -42 -42h-47z" />
<glyph unicode="&#xf2;" horiz-adv-x="574" d="M10 187q0 119 93.5 205.5t220.5 86.5q98 0 160 -54q56 -48 56 -140q0 -127 -92 -213t-228 -86q-96 0 -150 51q-28 25 -44 65.5t-16 84.5zM165 108q0 -37 17 -58t47 -21q65 0 106 105q21 52 35.5 116.5t14.5 103.5q0 35 -18 56.5t-47 21.5q-64 0 -110 -110 q-19 -47 -32 -108t-13 -106zM273 670q12 22 36 37t46 15q18 0 26.5 -8.5t19.5 -36.5l50 -139h-54l-119 88q-20 15 -5 44z" />
<glyph unicode="&#xf3;" horiz-adv-x="574" d="M10 187q0 119 93.5 205.5t220.5 86.5q98 0 160 -54q56 -48 56 -140q0 -127 -92 -213t-228 -86q-96 0 -150 51q-28 25 -44 65.5t-16 84.5zM165 108q0 -37 17 -58t47 -21q65 0 106 105q21 52 35.5 116.5t14.5 103.5q0 35 -18 56.5t-47 21.5q-64 0 -110 -110 q-19 -47 -32 -108t-13 -106zM257 538l124 139q26 28 39 36.5t31 8.5q23 0 38.5 -15t15.5 -37q0 -28 -28 -44l-166 -88h-54z" />
<glyph unicode="&#xf4;" horiz-adv-x="574" d="M10 187q0 119 93.5 205.5t220.5 86.5q98 0 160 -54q56 -48 56 -140q0 -127 -92 -213t-228 -86q-96 0 -150 51q-28 25 -44 65.5t-16 84.5zM165 108q0 -37 17 -58t47 -21q65 0 106 105q21 52 35.5 116.5t14.5 103.5q0 35 -18 56.5t-47 21.5q-64 0 -110 -110 q-19 -47 -32 -108t-13 -106zM184 543l157 174h101l84 -174h-59l-90 86l-126 -86h-67z" />
<glyph unicode="&#xf5;" horiz-adv-x="574" d="M10 187q0 119 93.5 205.5t220.5 86.5q98 0 160 -54q56 -48 56 -140q0 -127 -92 -213t-228 -86q-96 0 -150 51q-28 25 -44 65.5t-16 84.5zM165 108q0 -37 17 -58t47 -21q65 0 106 105q21 52 35.5 116.5t14.5 103.5q0 35 -18 56.5t-47 21.5q-64 0 -110 -110 q-19 -47 -32 -108t-13 -106zM193 567q4 55 39 90.5t85 35.5q31 0 79 -19q53 -21 70 -21q38 0 50 40h47q-2 -50 -39.5 -88t-84.5 -38q-30 0 -85 21q-52 21 -72 21q-34 0 -42 -42h-47z" />
<glyph unicode="&#xf6;" horiz-adv-x="574" d="M10 187q0 119 93.5 205.5t220.5 86.5q98 0 160 -54q56 -48 56 -140q0 -127 -92 -213t-228 -86q-96 0 -150 51q-28 25 -44 65.5t-16 84.5zM165 108q0 -37 17 -58t47 -21q65 0 106 105q21 52 35.5 116.5t14.5 103.5q0 35 -18 56.5t-47 21.5q-64 0 -110 -110 q-19 -47 -32 -108t-13 -106zM212 631q0 29 21 50t51 21q29 0 50 -21t21 -50q0 -30 -21 -51t-51 -21q-29 0 -50 21.5t-21 50.5zM402 631q0 29 21 50t51 21q29 0 50 -21t21 -50q0 -30 -21 -51t-51 -21q-29 0 -50 21.5t-21 50.5z" />
<glyph unicode="&#xf7;" horiz-adv-x="606" d="M39 200v100h518v-100h-518zM204 70q0 38 27.5 66t66.5 28t66.5 -28t27.5 -66q0 -39 -27.5 -66.5t-66.5 -27.5t-66.5 27.5t-27.5 66.5zM204 431q0 38 27.5 66t66.5 28t66.5 -28t27.5 -66q0 -39 -27.5 -66.5t-66.5 -27.5t-66.5 27.5t-27.5 66.5z" />
<glyph unicode="&#xf8;" horiz-adv-x="574" d="M10 187q0 116 92.5 203.5t216.5 87.5q30 0 69 -7l61 107h54l-70 -121q107 -47 107 -172q0 -127 -92 -213t-227 -86q-27 0 -54 4l-67 -116h-54l74 130q-53 23 -81.5 71t-28.5 112zM165 108q0 -2 2 -22l191 333q-18 12 -39 12q-34 0 -64.5 -35t-49 -87t-29.5 -105.5 t-11 -95.5zM194 38q15 -9 34 -9q67 0 107 104q21 52 35.5 116.5t14.5 103.5q0 8 -1 17z" />
<glyph unicode="&#xf9;" horiz-adv-x="685" d="M38 95q0 34 21 103l35 121q16 52 16 67q0 19 -12 25t-49 6h-10l7 47l253 14l-90 -304q-3 -7 -9.5 -31.5t-9.5 -33.5q-2 -12 -2 -14q0 -10 7.5 -17.5t17.5 -7.5q19 0 51 25.5t59 63.5q43 59 68 140l48 165h158l-93 -312q-16 -56 -16 -67q0 -5 4.5 -9.5t9.5 -4.5 q13 0 40.5 30t58.5 79l38 -28q-59 -90 -107 -128t-105 -38q-97 0 -97 85q0 16 1 26q-49 -59 -92 -85t-91 -26q-49 0 -79.5 30t-30.5 79zM306 670q12 22 36 37t46 15q18 0 26.5 -8.5t19.5 -36.5l50 -139h-54l-119 88q-20 15 -5 44z" />
<glyph unicode="&#xfa;" horiz-adv-x="685" d="M38 95q0 34 21 103l35 121q16 52 16 67q0 19 -12 25t-49 6h-10l7 47l253 14l-90 -304q-3 -7 -9.5 -31.5t-9.5 -33.5q-2 -12 -2 -14q0 -10 7.5 -17.5t17.5 -7.5q19 0 51 25.5t59 63.5q43 59 68 140l48 165h158l-93 -312q-16 -56 -16 -67q0 -5 4.5 -9.5t9.5 -4.5 q13 0 40.5 30t58.5 79l38 -28q-59 -90 -107 -128t-105 -38q-97 0 -97 85q0 16 1 26q-49 -59 -92 -85t-91 -26q-49 0 -79.5 30t-30.5 79zM290 538l124 139q26 28 39 36.5t31 8.5q23 0 38.5 -15t15.5 -37q0 -28 -28 -44l-166 -88h-54z" />
<glyph unicode="&#xfb;" horiz-adv-x="685" d="M38 95q0 34 21 103l35 121q16 52 16 67q0 19 -12 25t-49 6h-10l7 47l253 14l-90 -304q-3 -7 -9.5 -31.5t-9.5 -33.5q-2 -12 -2 -14q0 -10 7.5 -17.5t17.5 -7.5q19 0 51 25.5t59 63.5q43 59 68 140l48 165h158l-93 -312q-16 -56 -16 -67q0 -5 4.5 -9.5t9.5 -4.5 q13 0 40.5 30t58.5 79l38 -28q-59 -90 -107 -128t-105 -38q-97 0 -97 85q0 16 1 26q-49 -59 -92 -85t-91 -26q-49 0 -79.5 30t-30.5 79zM217 543l157 174h101l84 -174h-59l-90 86l-126 -86h-67z" />
<glyph unicode="&#xfc;" horiz-adv-x="685" d="M38 95q0 34 21 103l35 121q16 52 16 67q0 19 -12 25t-49 6h-10l7 47l253 14l-90 -304q-3 -7 -9.5 -31.5t-9.5 -33.5q-2 -12 -2 -14q0 -10 7.5 -17.5t17.5 -7.5q19 0 51 25.5t59 63.5q43 59 68 140l48 165h158l-93 -312q-16 -56 -16 -67q0 -5 4.5 -9.5t9.5 -4.5 q13 0 40.5 30t58.5 79l38 -28q-59 -90 -107 -128t-105 -38q-97 0 -97 85q0 16 1 26q-49 -59 -92 -85t-91 -26q-49 0 -79.5 30t-30.5 79zM245 631q0 29 21 50t51 21q29 0 50 -21t21 -50q0 -30 -21 -51t-51 -21q-29 0 -50 21.5t-21 50.5zM435 631q0 29 21 50t51 21 q29 0 50 -21t21 -50q0 -30 -21 -51t-51 -21q-29 0 -50 21.5t-21 50.5z" />
<glyph unicode="&#xfd;" horiz-adv-x="519" d="M-66 -111q0 32 20 52.5t51 20.5q30 0 49.5 -18t19.5 -46q0 -12 -6 -28l-1 -6q0 -10 13 -10q20 0 52 25.5t58 62.5l29 40l-100 338q-8 28 -13.5 36.5t-15.5 8.5q-13 0 -23 -19.5t-31 -87.5l-43 13q49 208 162 208q54 0 78 -47q20 -38 37 -99l56 -190q67 113 67 158 q0 22 -19 53q-21 31 -21 59q0 29 20 47.5t51 18.5t49.5 -16.5t18.5 -45.5q0 -43 -40.5 -135t-106.5 -199q-89 -147 -164 -222q-62 -63 -141 -63q-48 0 -77 25t-29 66zM208 538l124 139q26 28 39 36.5t31 8.5q23 0 38.5 -15t15.5 -37q0 -28 -28 -44l-166 -88h-54z" />
<glyph unicode="&#xfe;" horiz-adv-x="648" d="M-118 -202l7 47h4q49 0 63 14q7 6 10.5 15.5t18.5 60.5l192 646q15 53 15 64q0 19 -12 25t-50 6h-24l7 61h267l-91 -309q62 51 129 51q77 0 124.5 -49.5t47.5 -131.5q0 -123 -87 -218t-200 -95q-86 0 -126 65l-34 -115q-16 -55 -16 -64q0 -26 57 -26h15l-7 -47h-310z M206 117q0 -31 20 -52.5t49 -21.5q41 0 78.5 52t57 119.5t19.5 121.5q0 33 -17.5 53t-46.5 20q-54 0 -96 -74q-23 -42 -43.5 -110.5t-20.5 -107.5z" />
<glyph unicode="&#xff;" horiz-adv-x="519" d="M-66 -111q0 32 20 52.5t51 20.5q30 0 49.5 -18t19.5 -46q0 -12 -6 -28l-1 -6q0 -10 13 -10q20 0 52 25.5t58 62.5l29 40l-100 338q-8 28 -13.5 36.5t-15.5 8.5q-13 0 -23 -19.5t-31 -87.5l-43 13q49 208 162 208q54 0 78 -47q20 -38 37 -99l56 -190q67 113 67 158 q0 22 -19 53q-21 31 -21 59q0 29 20 47.5t51 18.5t49.5 -16.5t18.5 -45.5q0 -43 -40.5 -135t-106.5 -199q-89 -147 -164 -222q-62 -63 -141 -63q-48 0 -77 25t-29 66zM164 631q0 29 21 50t51 21q29 0 50 -21t21 -50q0 -30 -21 -51t-51 -21q-29 0 -50 21.5t-21 50.5zM354 631 q0 29 21 50t51 21q29 0 50 -21t21 -50q0 -30 -21 -51t-51 -21q-29 0 -50 21.5t-21 50.5z" />
<glyph unicode="&#x100;" horiz-adv-x="741" d="M-75 0l7 54h16q62 0 123 103l348 579h62l131 -622q8 -35 26 -47.5t64 -12.5h14l-7 -54h-374l7 54h16q50 0 66 8q17 7 17 23q0 13 -4 32l-20 103h-232l-46 -81q-14 -23 -14 -43q0 -23 15 -32.5t56 -9.5h23l-8 -54h-286zM217 274h187l-46 241zM303 815l21 76h334l-21 -76 h-334z" />
<glyph unicode="&#x101;" horiz-adv-x="667" d="M15 167q0 121 87.5 216.5t198.5 95.5q89 0 125 -63l14 48h157l-98 -332q-10 -39 -10 -46q0 -6 4.5 -11t9.5 -5q13 0 44.5 34t59.5 78l39 -25q-46 -78 -102 -125t-108 -47q-41 0 -63 24t-22 64q-36 -47 -73.5 -67t-89.5 -20q-76 0 -124.5 51t-48.5 130zM178 135 q0 -36 16.5 -57.5t44.5 -21.5q39 0 76.5 53t58.5 121t21 121q0 32 -17 52.5t-45 20.5q-58 0 -106.5 -98.5t-48.5 -190.5zM211 592l21 76h334l-21 -76h-334z" />
<glyph unicode="&#x102;" horiz-adv-x="741" d="M-75 0l7 54h16q62 0 123 103l348 579h62l131 -622q8 -35 26 -47.5t64 -12.5h14l-7 -54h-374l7 54h16q50 0 66 8q17 7 17 23q0 13 -4 32l-20 103h-232l-46 -81q-14 -23 -14 -43q0 -23 15 -32.5t56 -9.5h23l-8 -54h-286zM217 274h187l-46 241zM296 927h56q5 -41 33.5 -59 t87.5 -18q56 0 98.5 21.5t53.5 55.5h57q-6 -52 -51 -92q-62 -56 -170 -56q-89 0 -133 41t-32 107z" />
<glyph unicode="&#x103;" horiz-adv-x="667" d="M15 167q0 121 87.5 216.5t198.5 95.5q89 0 125 -63l14 48h157l-98 -332q-10 -39 -10 -46q0 -6 4.5 -11t9.5 -5q13 0 44.5 34t59.5 78l39 -25q-46 -78 -102 -125t-108 -47q-41 0 -63 24t-22 64q-36 -47 -73.5 -67t-89.5 -20q-76 0 -124.5 51t-48.5 130zM178 135 q0 -36 16.5 -57.5t44.5 -21.5q39 0 76.5 53t58.5 121t21 121q0 32 -17 52.5t-45 20.5q-58 0 -106.5 -98.5t-48.5 -190.5zM227 683q0 3 2 29h46q4 -45 27.5 -65t73.5 -20q47 0 82 23.5t45 61.5h47q-5 -57 -42 -102q-52 -62 -142 -62q-66 0 -102.5 35.5t-36.5 99.5z" />
<glyph unicode="&#x104;" horiz-adv-x="741" d="M-75 0l7 54h16q62 0 123 103l348 579h62l131 -622q8 -35 26 -47.5t64 -12.5h14l-7 -54h-58q-46 0 -83.5 -28.5t-37.5 -65.5q0 -20 11.5 -33t28.5 -13q42 0 70 23l28 -36q-22 -33 -57.5 -52t-72.5 -19q-42 0 -72 28t-30 74q0 66 79 122h-180l7 54h16q50 0 66 8q17 7 17 23 q0 13 -4 32l-20 103h-232l-46 -81q-14 -23 -14 -43q0 -23 15 -32.5t56 -9.5h23l-8 -54h-286zM217 274h187l-46 241z" />
<glyph unicode="&#x105;" horiz-adv-x="667" d="M15 167q0 121 87.5 216.5t198.5 95.5q89 0 125 -63l14 48h157l-98 -332q-10 -39 -10 -46q0 -6 4.5 -11t9.5 -5q13 0 44.5 34t59.5 78l39 -25q-37 -62 -80 -105t-87 -59q-25 -9 -39.5 -34t-14.5 -53q0 -20 11.5 -33t28.5 -13q42 0 70 23l28 -36q-22 -33 -57.5 -52 t-72.5 -19q-42 0 -72 28t-30 74q0 62 68 114q-48 19 -48 81q-36 -47 -73.5 -67t-89.5 -20q-76 0 -124.5 51t-48.5 130zM178 135q0 -36 16.5 -57.5t44.5 -21.5q39 0 76.5 53t58.5 121t21 121q0 32 -17 52.5t-45 20.5q-58 0 -106.5 -98.5t-48.5 -190.5z" />
<glyph unicode="&#x106;" horiz-adv-x="759" d="M35 292q0 179 131 312t307 133q117 0 184 -82l56 57h46l-58 -286l-49 6q-4 128 -44.5 190t-120.5 62q-59 0 -110.5 -43.5t-83.5 -111t-50 -144.5t-18 -147q0 -88 46.5 -139t125.5 -51q68 0 129.5 46t89.5 118h63q-31 -98 -113 -162.5t-198 -64.5q-150 0 -241.5 83 t-91.5 224zM406 770l149 126q29 25 45.5 32.5t38.5 7.5q27 0 46 -13.5t19 -33.5q0 -25 -34 -39l-199 -80h-65z" />
<glyph unicode="&#x107;" horiz-adv-x="537" d="M3 171q0 125 92.5 216t220.5 91q78 0 124.5 -35t46.5 -93q0 -42 -23.5 -67.5t-62.5 -25.5q-34 0 -56 20t-22 52q0 38 38 61q12 8 12 16q0 11 -12 18t-30 7q-48 0 -87 -51t-57.5 -116.5t-18.5 -122.5q0 -41 23 -67.5t59 -26.5q70 0 156 100l36 -31q-104 -130 -232 -130 q-95 0 -151 50t-56 135zM235 538l124 139q26 28 39 36.5t31 8.5q23 0 38.5 -15t15.5 -37q0 -28 -28 -44l-166 -88h-54z" />
<glyph unicode="&#x108;" horiz-adv-x="759" d="M35 292q0 179 131 312t307 133q117 0 184 -82l56 57h46l-58 -286l-49 6q-4 128 -44.5 190t-120.5 62q-59 0 -110.5 -43.5t-83.5 -111t-50 -144.5t-18 -147q0 -88 46.5 -139t125.5 -51q68 0 129.5 46t89.5 118h63q-31 -98 -113 -162.5t-198 -64.5q-150 0 -241.5 83 t-91.5 224zM326 775l188 157h122l100 -157h-70l-108 78l-152 -78h-80z" />
<glyph unicode="&#x109;" horiz-adv-x="537" d="M3 171q0 125 92.5 216t220.5 91q78 0 124.5 -35t46.5 -93q0 -42 -23.5 -67.5t-62.5 -25.5q-34 0 -56 20t-22 52q0 38 38 61q12 8 12 16q0 11 -12 18t-30 7q-48 0 -87 -51t-57.5 -116.5t-18.5 -122.5q0 -41 23 -67.5t59 -26.5q70 0 156 100l36 -31q-104 -130 -232 -130 q-95 0 -151 50t-56 135zM162 543l157 174h101l84 -174h-59l-90 86l-126 -86h-67z" />
<glyph unicode="&#x10a;" horiz-adv-x="759" d="M35 292q0 179 131 312t307 133q117 0 184 -82l56 57h46l-58 -286l-49 6q-4 128 -44.5 190t-120.5 62q-59 0 -110.5 -43.5t-83.5 -111t-50 -144.5t-18 -147q0 -88 46.5 -139t125.5 -51q68 0 129.5 46t89.5 118h63q-31 -98 -113 -162.5t-198 -64.5q-150 0 -241.5 83 t-91.5 224zM481 854q0 29 21 50t51 21q29 0 50 -21t21 -50q0 -30 -21 -51t-51 -21q-29 0 -50 21.5t-21 50.5z" />
<glyph unicode="&#x10b;" horiz-adv-x="537" d="M3 171q0 125 92.5 216t220.5 91q78 0 124.5 -35t46.5 -93q0 -42 -23.5 -67.5t-62.5 -25.5q-34 0 -56 20t-22 52q0 38 38 61q12 8 12 16q0 11 -12 18t-30 7q-48 0 -87 -51t-57.5 -116.5t-18.5 -122.5q0 -41 23 -67.5t59 -26.5q70 0 156 100l36 -31q-104 -130 -232 -130 q-95 0 -151 50t-56 135zM285 631q0 29 21 50t51 21q29 0 50 -21t21 -50q0 -30 -21 -51t-51 -21q-29 0 -50 21.5t-21 50.5z" />
<glyph unicode="&#x10c;" horiz-adv-x="759" d="M35 292q0 179 131 312t307 133q117 0 184 -82l56 57h46l-58 -286l-49 6q-4 128 -44.5 190t-120.5 62q-59 0 -110.5 -43.5t-83.5 -111t-50 -144.5t-18 -147q0 -88 46.5 -139t125.5 -51q68 0 129.5 46t89.5 118h63q-31 -98 -113 -162.5t-198 -64.5q-150 0 -241.5 83 t-91.5 224zM368 932h70l108 -78l152 78h80l-188 -157h-122z" />
<glyph unicode="&#x10d;" horiz-adv-x="537" d="M3 171q0 125 92.5 216t220.5 91q78 0 124.5 -35t46.5 -93q0 -42 -23.5 -67.5t-62.5 -25.5q-34 0 -56 20t-22 52q0 38 38 61q12 8 12 16q0 11 -12 18t-30 7q-48 0 -87 -51t-57.5 -116.5t-18.5 -122.5q0 -41 23 -67.5t59 -26.5q70 0 156 100l36 -31q-104 -130 -232 -130 q-95 0 -151 50t-56 135zM198 718h59l90 -88l126 88h68l-157 -176h-102z" />
<glyph unicode="&#x10e;" horiz-adv-x="833" d="M-49 0l7 54h14q52 0 67 14q10 11 27 76l116 434q13 49 13 63q0 17 -15 22t-64 5h-18l7 54h358q333 0 333 -285q0 -99 -40 -188t-111 -149q-65 -54 -147.5 -77t-212.5 -23h-334zM228 81q0 -15 12 -21t41 -6h29q132 0 205 108q41 61 68 157.5t27 181.5q0 82 -38 124.5 t-111 42.5h-22q-34 0 -49 -12.5t-25 -50.5l-128 -478q-9 -40 -9 -46zM330 932h70l108 -78l152 78h80l-188 -157h-122z" />
<glyph unicode="&#x10f;" horiz-adv-x="667" d="M0 167q0 121 87.5 216t198.5 95q88 0 125 -62l48 162q15 50 15 66q0 19 -12 25t-49 6h-32l7 47l275 14l-179 -604q-10 -39 -10 -47q0 -6 4.5 -11t9.5 -5q13 0 44.5 33.5t60.5 79.5l39 -25q-27 -47 -66 -91q-72 -81 -144 -81q-40 0 -62.5 21t-23.5 58v7q-41 -47 -77 -66 t-85 -19q-76 0 -125 50.5t-49 130.5zM164 135q0 -37 16 -58t44 -21q60 0 105 97q51 111 51 198q0 32 -17 52t-44 20q-61 0 -106 -95q-49 -103 -49 -193zM659 462q123 55 123 123q-20 -2 -24 -2q-33 0 -51.5 18.5t-18.5 52.5q0 36 24 59t61 23q42 0 68 -29t26 -75 q0 -133 -189 -207z" />
<glyph unicode="&#x110;" horiz-adv-x="833" d="M-49 0l7 54h20q46 0 61 14q6 6 9.5 15.5t17.5 60.5l50 195h-93l17 63h93l49 176q13 47 13 63q0 17 -14 22t-62 5h-21l7 54h358q82 0 133 -12.5t95 -43.5q105 -73 105 -228q0 -100 -40 -189t-111 -149q-64 -54 -146.5 -77t-213.5 -23h-334zM228 81q0 -27 53 -27h29 q132 0 205 108q41 62 68 158.5t27 180.5q0 82 -38 124.5t-111 42.5h-22q-34 0 -48.5 -12.5t-25.5 -50.5l-56 -203h151l-17 -63h-151l-55 -212q-9 -36 -9 -46z" />
<glyph unicode="&#x111;" horiz-adv-x="667" d="M0 167q0 121 87.5 216t198.5 95q88 0 125 -62l38 129h-125l18 63h125q7 26 7 36q0 19 -12 25t-49 6h-32l7 47l275 14l-38 -128h70l-18 -63h-71l-122 -413q-10 -39 -10 -47q0 -6 4.5 -11t9.5 -5q13 0 44.5 33.5t60.5 79.5l39 -25q-27 -47 -66 -91q-72 -81 -144 -81 q-40 0 -62.5 21t-23.5 58v7q-41 -47 -77 -66t-85 -19q-76 0 -125 50.5t-49 130.5zM164 135q0 -37 16 -58t44 -21q60 0 105 97q51 111 51 198q0 32 -17 52t-44 20q-61 0 -106 -95q-49 -103 -49 -193z" />
<glyph unicode="&#x112;" horiz-adv-x="741" d="M-41 0l7 54h14q45 0 59.5 8.5t22.5 39.5l128 476q13 51 13 63q0 17 -15 22t-64 5h-19l8 54h615l-40 -245h-52q-2 109 -35.5 150t-122.5 41h-38q-31 0 -43.5 -9.5t-19.5 -38.5l-59 -219h31q64 0 97 27t59 95l53 -7l-90 -335l-53 7q5 37 5 62q0 50 -19 73.5t-65 23.5h-32 l-63 -236q-7 -24 -6 -32q0 -25 54 -25h36q86 0 164 54t127 151l52 -11l-66 -248h-643zM278 815l21 76h334l-21 -76h-334z" />
<glyph unicode="&#x113;" horiz-adv-x="519" d="M-2 171q0 123 95 215.5t221 92.5q70 0 117 -34.5t47 -86.5q0 -104 -170 -153q-66 -20 -149 -24q-2 -26 -2 -44q0 -43 23 -67.5t63 -24.5q39 0 73 18t79 63l35 -35q-93 -105 -228 -105q-99 0 -151.5 47.5t-52.5 137.5zM168 228q43 6 70 16q51 19 84.5 59.5t33.5 81.5 q0 22 -12 34.5t-32 12.5q-47 0 -87 -56.5t-57 -147.5zM187 592l21 76h334l-21 -76h-334z" />
<glyph unicode="&#x114;" horiz-adv-x="741" d="M-41 0l7 54h14q45 0 59.5 8.5t22.5 39.5l128 476q13 51 13 63q0 17 -15 22t-64 5h-19l8 54h615l-40 -245h-52q-2 109 -35.5 150t-122.5 41h-38q-31 0 -43.5 -9.5t-19.5 -38.5l-59 -219h31q64 0 97 27t59 95l53 -7l-90 -335l-53 7q5 37 5 62q0 50 -19 73.5t-65 23.5h-32 l-63 -236q-7 -24 -6 -32q0 -25 54 -25h36q86 0 164 54t127 151l52 -11l-66 -248h-643zM271 927h56q5 -41 33.5 -59t87.5 -18q56 0 98.5 21.5t53.5 55.5h57q-6 -52 -51 -92q-62 -56 -170 -56q-89 0 -133 41t-32 107z" />
<glyph unicode="&#x115;" horiz-adv-x="519" d="M-2 171q0 123 95 215.5t221 92.5q70 0 117 -34.5t47 -86.5q0 -104 -170 -153q-66 -20 -149 -24q-2 -26 -2 -44q0 -43 23 -67.5t63 -24.5q39 0 73 18t79 63l35 -35q-93 -105 -228 -105q-99 0 -151.5 47.5t-52.5 137.5zM168 228q43 6 70 16q51 19 84.5 59.5t33.5 81.5 q0 22 -12 34.5t-32 12.5q-47 0 -87 -56.5t-57 -147.5zM203 683q0 3 2 29h46q4 -45 27.5 -65t73.5 -20q47 0 82 23.5t45 61.5h47q-5 -57 -42 -102q-52 -62 -142 -62q-66 0 -102.5 35.5t-36.5 99.5z" />
<glyph unicode="&#x116;" horiz-adv-x="741" d="M-41 0l7 54h14q45 0 59.5 8.5t22.5 39.5l128 476q13 51 13 63q0 17 -15 22t-64 5h-19l8 54h615l-40 -245h-52q-2 109 -35.5 150t-122.5 41h-38q-31 0 -43.5 -9.5t-19.5 -38.5l-59 -219h31q64 0 97 27t59 95l53 -7l-90 -335l-53 7q5 37 5 62q0 50 -19 73.5t-65 23.5h-32 l-63 -236q-7 -24 -6 -32q0 -25 54 -25h36q86 0 164 54t127 151l52 -11l-66 -248h-643zM385 854q0 29 21 50t51 21q29 0 50 -21t21 -50q0 -30 -21 -51t-51 -21q-29 0 -50 21.5t-21 50.5z" />
<glyph unicode="&#x117;" horiz-adv-x="519" d="M-2 171q0 123 95 215.5t221 92.5q70 0 117 -34.5t47 -86.5q0 -104 -170 -153q-66 -20 -149 -24q-2 -26 -2 -44q0 -43 23 -67.5t63 -24.5q39 0 73 18t79 63l35 -35q-93 -105 -228 -105q-99 0 -151.5 47.5t-52.5 137.5zM168 228q43 6 70 16q51 19 84.5 59.5t33.5 81.5 q0 22 -12 34.5t-32 12.5q-47 0 -87 -56.5t-57 -147.5zM293 631q0 29 21 50t51 21q29 0 50 -21t21 -50q0 -30 -21 -51t-51 -21q-29 0 -50 21.5t-21 50.5z" />
<glyph unicode="&#x118;" horiz-adv-x="741" d="M-41 0l7 54h14q45 0 59.5 8.5t22.5 39.5l128 476q13 51 13 63q0 17 -15 22t-64 5h-19l8 54h615l-40 -245h-52q-2 109 -35.5 150t-122.5 41h-38q-31 0 -43.5 -9.5t-19.5 -38.5l-59 -219h31q64 0 97 27t59 95l53 -7l-90 -335l-53 7q5 37 5 62q0 50 -19 73.5t-65 23.5h-32 l-63 -236q-7 -24 -6 -32q0 -25 54 -25h36q86 0 164 54t127 151l52 -11l-66 -248h-67q-42 0 -77 -29t-35 -65q0 -20 11.5 -33t28.5 -13q42 0 70 23l28 -36q-22 -33 -57.5 -52t-72.5 -19q-42 0 -72 28t-30 74q0 66 79 122h-449z" />
<glyph unicode="&#x119;" horiz-adv-x="519" d="M-2 171q0 123 95 215.5t221 92.5q70 0 117 -34.5t47 -86.5q0 -104 -170 -153q-66 -20 -149 -24q-2 -26 -2 -44q0 -43 23 -67.5t63 -24.5q39 0 73 18t79 63l35 -35q-57 -64 -127 -88q-32 -12 -54 -39.5t-22 -57.5q0 -20 11.5 -33t28.5 -13q42 0 70 23l28 -36 q-22 -33 -57.5 -52t-72.5 -19q-42 0 -72 28t-30 74q0 60 60 108q-95 2 -145 49.5t-50 135.5zM168 228q43 6 70 16q51 19 84.5 59.5t33.5 81.5q0 22 -12 34.5t-32 12.5q-47 0 -87 -56.5t-57 -147.5z" />
<glyph unicode="&#x11a;" horiz-adv-x="741" d="M-41 0l7 54h14q45 0 59.5 8.5t22.5 39.5l128 476q13 51 13 63q0 17 -15 22t-64 5h-19l8 54h615l-40 -245h-52q-2 109 -35.5 150t-122.5 41h-38q-31 0 -43.5 -9.5t-19.5 -38.5l-59 -219h31q64 0 97 27t59 95l53 -7l-90 -335l-53 7q5 37 5 62q0 50 -19 73.5t-65 23.5h-32 l-63 -236q-7 -24 -6 -32q0 -25 54 -25h36q86 0 164 54t127 151l52 -11l-66 -248h-643zM272 932h70l108 -78l152 78h80l-188 -157h-122z" />
<glyph unicode="&#x11b;" horiz-adv-x="519" d="M-2 171q0 123 95 215.5t221 92.5q70 0 117 -34.5t47 -86.5q0 -104 -170 -153q-66 -20 -149 -24q-2 -26 -2 -44q0 -43 23 -67.5t63 -24.5q39 0 73 18t79 63l35 -35q-93 -105 -228 -105q-99 0 -151.5 47.5t-52.5 137.5zM168 228q43 6 70 16q51 19 84.5 59.5t33.5 81.5 q0 22 -12 34.5t-32 12.5q-47 0 -87 -56.5t-57 -147.5zM206 718h59l90 -88l126 88h68l-157 -176h-102z" />
<glyph unicode="&#x11c;" horiz-adv-x="815" d="M34 284q0 120 61.5 225t165.5 166.5t224 61.5q62 0 103 -18t82 -62l60 58h45l-57 -283l-51 7q-2 114 -44.5 179t-124.5 65q-119 0 -200 -152q-34 -63 -55 -147.5t-21 -154.5q0 -89 36 -140.5t105 -51.5q47 0 85 31t56 84q24 72 24 103q0 17 -14 22t-63 5h-28l7 54h372 l-7 -54h-20q-15 0 -25 -1t-18 -1.5t-13.5 -5.5t-9 -7t-7.5 -12l-6 -15t-6.5 -22t-7.5 -26l-55 -206h-48l-19 95q-80 -96 -213 -96q-131 0 -222 80t-91 219zM322 775l188 157h122l100 -157h-70l-108 78l-152 -78h-80z" />
<glyph unicode="&#x11d;" horiz-adv-x="611" d="M-66 -91q0 74 126 97q-34 18 -47 36t-13 44q0 82 120 120q-51 42 -51 98q0 77 63.5 126t163.5 49q55 0 103 -16q70 70 131 70q32 0 52 -18.5t20 -48.5q0 -25 -15 -41.5t-38 -16.5q-34 0 -50 43q-7 17 -17 17q-16 0 -34 -24q79 -46 79 -130q0 -68 -59.5 -112.5 t-150.5 -44.5q-47 0 -117 10q-23 3 -34 3q-20 0 -33.5 -9t-13.5 -22q0 -30 49 -34q139 -14 178 -22q55 -13 79.5 -41t24.5 -77q0 -81 -71.5 -124t-206.5 -43q-113 0 -175.5 29t-62.5 82zM57 -85q0 -70 120 -70q152 0 152 70q0 34 -44 45q-52 13 -144 13q-84 0 -84 -58z M142 543l157 174h101l84 -174h-59l-90 86l-126 -86h-67zM222 277q0 -34 17.5 -53t47.5 -19q43 0 66 48q26 52 26 108q0 31 -17.5 51t-44.5 20q-45 0 -70 -49.5t-25 -105.5z" />
<glyph unicode="&#x11e;" horiz-adv-x="815" d="M34 284q0 120 61.5 225t165.5 166.5t224 61.5q62 0 103 -18t82 -62l60 58h45l-57 -283l-51 7q-2 114 -44.5 179t-124.5 65q-119 0 -200 -152q-34 -63 -55 -147.5t-21 -154.5q0 -89 36 -140.5t105 -51.5q47 0 85 31t56 84q24 72 24 103q0 17 -14 22t-63 5h-28l7 54h372 l-7 -54h-20q-15 0 -25 -1t-18 -1.5t-13.5 -5.5t-9 -7t-7.5 -12l-6 -15t-6.5 -22t-7.5 -26l-55 -206h-48l-19 95q-80 -96 -213 -96q-131 0 -222 80t-91 219zM363 927h56q5 -41 33.5 -59t87.5 -18q56 0 98.5 21.5t53.5 55.5h57q-6 -52 -51 -92q-62 -56 -170 -56q-89 0 -133 41 t-32 107z" />
<glyph unicode="&#x11f;" horiz-adv-x="611" d="M-66 -91q0 74 126 97q-34 18 -47 36t-13 44q0 82 120 120q-51 42 -51 98q0 77 63.5 126t163.5 49q55 0 103 -16q70 70 131 70q32 0 52 -18.5t20 -48.5q0 -25 -15 -41.5t-38 -16.5q-34 0 -50 43q-7 17 -17 17q-16 0 -34 -24q79 -46 79 -130q0 -68 -59.5 -112.5 t-150.5 -44.5q-47 0 -117 10q-23 3 -34 3q-20 0 -33.5 -9t-13.5 -22q0 -30 49 -34q139 -14 178 -22q55 -13 79.5 -41t24.5 -77q0 -81 -71.5 -124t-206.5 -43q-113 0 -175.5 29t-62.5 82zM57 -85q0 -70 120 -70q152 0 152 70q0 34 -44 45q-52 13 -144 13q-84 0 -84 -58z M175 683q0 3 2 29h46q4 -45 27.5 -65t73.5 -20q47 0 82 23.5t45 61.5h47q-5 -57 -42 -102q-52 -62 -142 -62q-66 0 -102.5 35.5t-36.5 99.5zM222 277q0 -34 17.5 -53t47.5 -19q43 0 66 48q26 52 26 108q0 31 -17.5 51t-44.5 20q-45 0 -70 -49.5t-25 -105.5z" />
<glyph unicode="&#x120;" horiz-adv-x="815" d="M34 284q0 120 61.5 225t165.5 166.5t224 61.5q62 0 103 -18t82 -62l60 58h45l-57 -283l-51 7q-2 114 -44.5 179t-124.5 65q-119 0 -200 -152q-34 -63 -55 -147.5t-21 -154.5q0 -89 36 -140.5t105 -51.5q47 0 85 31t56 84q24 72 24 103q0 17 -14 22t-63 5h-28l7 54h372 l-7 -54h-20q-15 0 -25 -1t-18 -1.5t-13.5 -5.5t-9 -7t-7.5 -12l-6 -15t-6.5 -22t-7.5 -26l-55 -206h-48l-19 95q-80 -96 -213 -96q-131 0 -222 80t-91 219zM477 854q0 29 21 50t51 21q29 0 50 -21t21 -50q0 -30 -21 -51t-51 -21q-29 0 -50 21.5t-21 50.5z" />
<glyph unicode="&#x121;" horiz-adv-x="611" d="M-66 -91q0 74 126 97q-34 18 -47 36t-13 44q0 82 120 120q-51 42 -51 98q0 77 63.5 126t163.5 49q55 0 103 -16q70 70 131 70q32 0 52 -18.5t20 -48.5q0 -25 -15 -41.5t-38 -16.5q-34 0 -50 43q-7 17 -17 17q-16 0 -34 -24q79 -46 79 -130q0 -68 -59.5 -112.5 t-150.5 -44.5q-47 0 -117 10q-23 3 -34 3q-20 0 -33.5 -9t-13.5 -22q0 -30 49 -34q139 -14 178 -22q55 -13 79.5 -41t24.5 -77q0 -81 -71.5 -124t-206.5 -43q-113 0 -175.5 29t-62.5 82zM57 -85q0 -70 120 -70q152 0 152 70q0 34 -44 45q-52 13 -144 13q-84 0 -84 -58z M222 277q0 -34 17.5 -53t47.5 -19q43 0 66 48q26 52 26 108q0 31 -17.5 51t-44.5 20q-45 0 -70 -49.5t-25 -105.5zM265 631q0 29 21 50t51 21q29 0 50 -21t21 -50q0 -30 -21 -51t-51 -21q-29 0 -50 21.5t-21 50.5z" />
<glyph unicode="&#x122;" horiz-adv-x="815" d="M34 284q0 120 61.5 225t165.5 166.5t224 61.5q62 0 103 -18t82 -62l60 58h45l-57 -283l-51 7q-2 114 -44.5 179t-124.5 65q-119 0 -200 -152q-34 -63 -55 -147.5t-21 -154.5q0 -89 36 -140.5t105 -51.5q47 0 85 31t56 84q24 72 24 103q0 17 -14 22t-63 5h-28l7 54h372 l-7 -54h-20q-15 0 -25 -1t-18 -1.5t-13.5 -5.5t-9 -7t-7.5 -12l-6 -15t-6.5 -22t-7.5 -26l-55 -206h-48l-19 95q-80 -96 -213 -96q-131 0 -222 80t-91 219zM189 -334q123 55 123 123q-20 -2 -24 -2q-33 0 -51.5 18.5t-18.5 52.5q0 36 24 59t61 23q42 0 68 -29t26 -75 q0 -133 -189 -207z" />
<glyph unicode="&#x123;" horiz-adv-x="611" d="M-66 -91q0 74 126 97q-34 18 -47 36t-13 44q0 82 120 120q-51 42 -51 98q0 77 63.5 126t163.5 49q55 0 103 -16q70 70 131 70q32 0 52 -18.5t20 -48.5q0 -25 -15 -41.5t-38 -16.5q-34 0 -50 43q-7 17 -17 17q-16 0 -34 -24q79 -46 79 -130q0 -68 -59.5 -112.5 t-150.5 -44.5q-47 0 -117 10q-23 3 -34 3q-20 0 -33.5 -9t-13.5 -22q0 -30 49 -34q139 -14 178 -22q55 -13 79.5 -41t24.5 -77q0 -81 -71.5 -124t-206.5 -43q-113 0 -175.5 29t-62.5 82zM57 -85q0 -70 120 -70q152 0 152 70q0 34 -44 45q-52 13 -144 13q-84 0 -84 -58z M222 277q0 -34 17.5 -53t47.5 -19q43 0 66 48q26 52 26 108q0 31 -17.5 51t-44.5 20q-45 0 -70 -49.5t-25 -105.5zM238 601q0 133 189 207l19 -37q-123 -55 -123 -123q20 2 24 2q33 0 51.5 -18.5t18.5 -52.5q0 -36 -24 -59t-61 -23q-42 0 -68 29t-26 75z" />
<glyph unicode="&#x124;" horiz-adv-x="870" d="M-41 0l7 54h19q42 0 55.5 8.5t21.5 39.5q1 3 5 18.5t6 23.5l117 434q13 49 13 63q0 17 -15 22t-64 5h-19l8 54h375l-7 -54h-22q-52 0 -66 -14q-7 -5 -10 -14.5t-17 -61.5l-48 -177h256l47 177q14 49 14 63q0 17 -11 22t-58 5h-21l8 54h359l-7 -54h-17q-49 0 -64 -14 q-6 -5 -9 -14.5t-17 -61.5l-117 -434q-13 -52 -13 -63q0 -17 15 -22t64 -5h22l-7 -54h-379l7 54h22q52 0 66 14q7 6 10.5 15.5t16.5 60.5l53 196h-256l-52 -196q-14 -48 -14 -63q0 -17 11 -22t58 -5h21l-8 -54h-359zM341 775l188 157h122l100 -157h-70l-108 78l-152 -78h-80 z" />
<glyph unicode="&#x125;" horiz-adv-x="685" d="M0 0l171 578q16 50 16 66q0 19 -12.5 25t-49.5 6h-24l7 47l268 14l-110 -370q91 113 188 113q49 0 80.5 -29t31.5 -74q0 -44 -30 -128l-47 -128q-11 -30 -11 -38q0 -6 4.5 -11t9.5 -5q14 0 35.5 22t61.5 78q3 3 9 11l39 -25q-58 -90 -107 -128.5t-104 -38.5 q-47 0 -74.5 24.5t-27.5 66.5q0 30 21 87l61 169q9 24 9 36q0 10 -9 18.5t-20 8.5q-36 0 -94 -70q-59 -72 -97 -198l-38 -127h-157zM349 789l188 157h122l100 -157h-70l-108 78l-152 -78h-80z" />
<glyph unicode="&#x126;" horiz-adv-x="870" d="M-41 0l7 54h19q42 0 55.5 8.5t21.5 39.5q1 3 5 18.5t6 23.5l100 372h-115l14 52h115l3 10q13 49 13 63q0 17 -15 22t-64 5h-19l8 54h375l-7 -54h-22q-52 0 -66 -14q-7 -5 -10 -14.5t-17 -61.5l-3 -10h255l3 10q14 49 14 63q0 17 -11 22t-58 5h-21l8 54h359l-7 -54h-17 q-49 0 -64 -14q-6 -5 -9 -14.5t-17 -61.5l-3 -10h119l-14 -52h-119l-100 -372q-13 -52 -13 -63q0 -17 15 -22t64 -5h22l-7 -54h-379l7 54h22q52 0 66 14q7 6 10.5 15.5t16.5 60.5l53 196h-256l-52 -196q-14 -48 -14 -63q0 -17 11 -22t58 -5h21l-8 -54h-359zM318 401h256 l31 115h-256z" />
<glyph unicode="&#x127;" horiz-adv-x="770" d="M129 0l144 485l-107 -28l12 44l108 28l14 49q16 50 16 66q0 19 -12 25t-50 6h-24l7 47l268 14l-48 -162l181 48l-11 -43l-183 -48l-49 -165q91 113 188 113q49 0 80.5 -29t31.5 -74q0 -44 -30 -128l-47 -128q-11 -30 -11 -38q0 -6 4.5 -11t9.5 -5q14 0 35.5 22t61.5 78 q3 3 9 11l39 -25q-58 -90 -107 -128.5t-104 -38.5q-47 0 -74.5 24.5t-27.5 66.5q0 30 21 87l61 169q9 24 9 36q0 10 -9 18.5t-20 8.5q-36 0 -94 -70q-59 -72 -97 -198l-38 -127h-157z" />
<glyph unicode="&#x128;" horiz-adv-x="444" d="M-41 0l7 54h20q49 0 63 14q7 6 10 15.5t17 60.5l116 434q14 48 14 63q0 17 -15 22t-64 5h-22l8 54h373l-7 -54h-21q-48 0 -62 -14q-7 -5 -10.5 -14.5t-16.5 -61.5l-116 -434q-14 -55 -14 -63q0 -17 15 -22t64 -5h22l-8 -54h-373zM169 790q4 55 39 90.5t85 35.5 q31 0 79 -19q53 -21 70 -21q38 0 50 40h47q-2 -50 -39.5 -88t-84.5 -38q-30 0 -85 21q-52 21 -72 21q-34 0 -42 -42h-47z" />
<glyph unicode="&#x129;" horiz-adv-x="389" d="M38 417l7 47l267 14l-105 -356q-10 -34 -10 -42q0 -16 16 -16q30 0 101 113l39 -28q-51 -86 -100.5 -125t-106.5 -39q-45 0 -74.5 25.5t-29.5 64.5q0 23 15 74l51 170q15 50 15 67q0 19 -12 25t-49 6h-24zM84 567q4 55 39 90.5t85 35.5q31 0 79 -19q53 -21 70 -21 q38 0 50 40h47q-2 -50 -39.5 -88t-84.5 -38q-30 0 -85 21q-53 21 -72 21q-34 0 -42 -42h-47z" />
<glyph unicode="&#x12a;" horiz-adv-x="444" d="M-41 0l7 54h20q49 0 63 14q7 6 10 15.5t17 60.5l116 434q14 48 14 63q0 17 -15 22t-64 5h-22l8 54h373l-7 -54h-21q-48 0 -62 -14q-7 -5 -10.5 -14.5t-16.5 -61.5l-116 -434q-14 -55 -14 -63q0 -17 15 -22t64 -5h22l-8 -54h-373zM176 815l21 76h334l-21 -76h-334z" />
<glyph unicode="&#x12b;" horiz-adv-x="389" d="M38 417l7 47l267 14l-105 -356q-10 -34 -10 -42q0 -16 16 -16q30 0 101 113l39 -28q-51 -86 -100.5 -125t-106.5 -39q-45 0 -74.5 25.5t-29.5 64.5q0 23 15 74l51 170q15 50 15 67q0 19 -12 25t-49 6h-24zM92 592l21 76h334l-21 -76h-334z" />
<glyph unicode="&#x12c;" horiz-adv-x="444" d="M-41 0l7 54h20q49 0 63 14q7 6 10 15.5t17 60.5l116 434q14 48 14 63q0 17 -15 22t-64 5h-22l8 54h373l-7 -54h-21q-48 0 -62 -14q-7 -5 -10.5 -14.5t-16.5 -61.5l-116 -434q-14 -55 -14 -63q0 -17 15 -22t64 -5h22l-8 -54h-373zM169 927h56q5 -41 33.5 -59t87.5 -18 q56 0 98.5 21.5t53.5 55.5h57q-6 -52 -51 -92q-62 -56 -170 -56q-89 0 -133 41t-32 107z" />
<glyph unicode="&#x12d;" horiz-adv-x="389" d="M38 417l7 47l267 14l-105 -356q-10 -34 -10 -42q0 -16 16 -16q30 0 101 113l39 -28q-51 -86 -100.5 -125t-106.5 -39q-45 0 -74.5 25.5t-29.5 64.5q0 23 15 74l51 170q15 50 15 67q0 19 -12 25t-49 6h-24zM108 683q0 3 2 29h46q4 -45 27.5 -65t73.5 -20q47 0 82 23.5 t45 61.5h47q-5 -57 -42 -102q-52 -62 -142 -62q-66 0 -102.5 35.5t-36.5 99.5z" />
<glyph unicode="&#x12e;" horiz-adv-x="444" d="M-41 0l7 54h20q49 0 63 14q7 6 10 15.5t17 60.5l116 434q14 48 14 63q0 17 -15 22t-64 5h-22l8 54h373l-7 -54h-21q-48 0 -62 -14q-7 -5 -10.5 -14.5t-16.5 -61.5l-116 -434q-14 -55 -14 -63q0 -17 15 -22t64 -5h22l-8 -54h-93q-33 0 -59.5 -29t-26.5 -65q0 -20 11.5 -33 t28.5 -13q42 0 70 23l28 -36q-22 -33 -57.5 -52t-72.5 -19q-42 0 -72 28t-30 74q0 66 79 122h-179z" />
<glyph unicode="&#x12f;" horiz-adv-x="389" d="M38 417l7 47l267 14l-105 -356q-10 -34 -10 -42q0 -16 16 -16q30 0 101 113l39 -28q-71 -118 -142 -150q-33 -15 -55 -40.5t-22 -52.5q0 -20 11.5 -33t28.5 -13q42 0 70 23l28 -36q-22 -33 -57.5 -52t-72.5 -19q-42 0 -72 28t-30 74q0 63 67 113q-30 10 -47.5 32 t-17.5 52q0 23 15 74l51 170q15 50 15 67q0 19 -12 25t-49 6h-24zM198 631q0 29 21 50t51 21q29 0 50 -21t21 -50q0 -30 -21 -51t-51 -21q-29 0 -50 21.5t-21 50.5z" />
<glyph unicode="&#x130;" horiz-adv-x="444" d="M-41 0l7 54h20q49 0 63 14q7 6 10 15.5t17 60.5l116 434q14 48 14 63q0 17 -15 22t-64 5h-22l8 54h373l-7 -54h-21q-48 0 -62 -14q-7 -5 -10.5 -14.5t-16.5 -61.5l-116 -434q-14 -55 -14 -63q0 -17 15 -22t64 -5h22l-8 -54h-373zM283 854q0 29 21 50t51 21q29 0 50 -21 t21 -50q0 -30 -21 -51t-51 -21q-29 0 -50 21.5t-21 50.5z" />
<glyph unicode="&#x131;" horiz-adv-x="389" d="M38 417l7 47l267 14l-105 -356q-10 -34 -10 -42q0 -16 16 -16q30 0 101 113l39 -28q-51 -86 -100.5 -125t-106.5 -39q-45 0 -74.5 25.5t-29.5 64.5q0 23 15 74l51 170q15 50 15 67q0 19 -12 25t-49 6h-24z" />
<glyph unicode="&#x134;" horiz-adv-x="667" d="M-9 169q0 70 37.5 114.5t95.5 44.5q48 0 77.5 -26.5t29.5 -70.5q0 -39 -25 -66t-62 -27q-11 0 -26.5 5.5t-27.5 11t-13 5.5q-18 0 -18 -25q0 -39 32 -66t79 -27q75 0 120 72q17 27 24.5 48.5t27.5 97.5l85 318q14 50 14 63q0 17 -15 22t-64 5h-30l8 54h378l-7 -54h-20 q-46 0 -61 -14q-6 -6 -9 -15.5t-17 -60.5l-82 -304q-26 -98 -32.5 -118t-19.5 -43q-37 -67 -95.5 -97.5t-148.5 -30.5q-113 0 -174 47.5t-61 136.5zM363 775l188 157h122l100 -157h-70l-108 78l-152 -78h-80z" />
<glyph unicode="&#x135;" horiz-adv-x="370" d="M-170 -90q0 37 21.5 60t56.5 23q34 0 54 -20t20 -55q0 -20 -5.5 -29.5t-22.5 -19.5q-6 -3 -6 -10q0 -12 17 -12q29 0 49 32t46 121l95 319q15 52 15 67q0 19 -12 25t-49 6h-32l7 47l275 14l-119 -403q-24 -79 -40.5 -115.5t-45.5 -71.5q-72 -90 -178 -90 q-63 0 -104.5 31.5t-41.5 80.5zM120 543l157 174h101l84 -174h-59l-90 86l-126 -86h-67z" />
<glyph unicode="&#x136;" horiz-adv-x="778" d="M-41 0l7 54h18q46 0 63 14q6 6 9.5 15.5t17.5 61.5l115 433q14 49 14 63q0 17 -15 22t-64 5h-19l8 54h375l-7 -54h-22q-52 0 -66 -14q-7 -6 -10 -15.5t-17 -60.5l-61 -225l267 248q30 29 30 42q0 25 -41 25h-35l7 54h299l-7 -54q-53 -3 -90.5 -20.5t-81.5 -60.5 l-162 -150l143 -308q24 -53 40 -64t68 -11h15l-8 -54h-374l7 54h31q35 0 47.5 4.5t12.5 17.5q0 8 -11 31l-102 213l-84 -77l-26 -99q-14 -48 -14 -63q0 -17 11 -22t58 -5h21l-8 -54h-359zM216 -334q123 55 123 123q-20 -2 -24 -2q-33 0 -51.5 18.5t-18.5 52.5q0 36 24 59 t61 23q42 0 68 -29t26 -75q0 -133 -189 -207z" />
<glyph unicode="&#x137;" horiz-adv-x="648" d="M-46 -334q123 55 123 123q-20 -2 -24 -2q-33 0 -51.5 18.5t-18.5 52.5q0 36 24 59t61 23q42 0 68 -29t26 -75q0 -133 -189 -207zM-5 0l171 578q16 55 16 66q0 19 -12 25t-50 6h-23l6 47l268 14l-109 -365q58 61 102.5 84.5t98.5 23.5q52 0 85 -27t33 -71q0 -72 -92 -123 q-38 -22 -102 -43q34 -19 46 -43.5t17 -87.5q2 -19 16 -19q37 0 75 93l43 -23q-38 -79 -81 -114.5t-100 -35.5q-49 0 -75.5 28t-26.5 80q0 23 5 55q4 19 4 33q0 8 -5 17q-8 -1 -21 -1q-36 0 -36 29q0 14 10 22.5t26 8.5t46 -13q114 38 114 107q0 20 -13 32.5t-34 12.5 q-51 0 -117 -80q-52 -62 -91 -193l-37 -123h-157z" />
<glyph unicode="&#x139;" horiz-adv-x="704" d="M-41 0l7 54h20q46 0 61 14q6 6 9.5 15.5t16.5 60.5l117 434q13 51 13 63q0 17 -15 22t-64 5h-19l8 54h382l-8 -54h-18q-62 0 -76 -14q-7 -6 -10 -15.5t-17 -60.5l-116 -434q-15 -53 -14 -64q0 -15 11.5 -20.5t41.5 -5.5h36q88 0 168.5 57.5t124.5 154.5l52 -11l-68 -255 h-643zM196 770l149 126q29 25 45.5 32.5t38.5 7.5q27 0 46 -13.5t19 -33.5q0 -25 -34 -39l-199 -80h-65z" />
<glyph unicode="&#x13a;" horiz-adv-x="389" d="M26 76q0 33 23 106l117 396q15 50 15 66q0 19 -12 25t-49 6h-24l7 47l267 14l-182 -614l-5 -16q-5 -17 -5 -26q0 -17 15 -17q17 0 47 32t60 81l39 -27q-31 -56 -86 -108q-59 -56 -125 -56q-46 0 -74 25t-28 66zM171 784l149 126q29 25 45.5 32.5t38.5 7.5q27 0 46 -13.5 t19 -33.5q0 -25 -34 -39l-199 -80h-65z" />
<glyph unicode="&#x13b;" horiz-adv-x="704" d="M-41 0l7 54h20q46 0 61 14q6 6 9.5 15.5t16.5 60.5l117 434q13 51 13 63q0 17 -15 22t-64 5h-19l8 54h382l-8 -54h-18q-62 0 -76 -14q-7 -6 -10 -15.5t-17 -60.5l-116 -434q-15 -53 -14 -64q0 -15 11.5 -20.5t41.5 -5.5h36q88 0 168.5 57.5t124.5 154.5l52 -11l-68 -255 h-643zM222 -334q123 55 123 123q-20 -2 -24 -2q-33 0 -51.5 18.5t-18.5 52.5q0 36 24 59t61 23q42 0 68 -29t26 -75q0 -133 -189 -207z" />
<glyph unicode="&#x13c;" horiz-adv-x="389" d="M-44 -334q123 55 123 123q-20 -2 -24 -2q-33 0 -51.5 18.5t-18.5 52.5q0 36 24 59t61 23q42 0 68 -29t26 -75q0 -133 -189 -207zM26 76q0 33 23 106l117 396q15 50 15 66q0 19 -12 25t-49 6h-24l7 47l267 14l-182 -614l-5 -16q-5 -17 -5 -26q0 -17 15 -17q17 0 47 32 t60 81l39 -27q-31 -56 -86 -108q-59 -56 -125 -56q-46 0 -74 25t-28 66z" />
<glyph unicode="&#x13d;" horiz-adv-x="704" d="M-41 0l7 54h20q46 0 61 14q6 6 9.5 15.5t16.5 60.5l117 434q13 51 13 63q0 17 -15 22t-64 5h-19l8 54h382l-8 -54h-18q-62 0 -76 -14q-7 -6 -10 -15.5t-17 -60.5l-116 -434q-15 -53 -14 -64q0 -15 11.5 -20.5t41.5 -5.5h36q88 0 168.5 57.5t124.5 154.5l52 -11l-68 -255 h-643zM498 448q123 55 123 123q-20 -2 -24 -2q-33 0 -51.5 18.5t-18.5 52.5q0 36 24 59t61 23q42 0 68 -29t26 -75q0 -133 -189 -207z" />
<glyph unicode="&#x13e;" horiz-adv-x="389" d="M26 76q0 33 23 106l117 396q15 50 15 66q0 19 -12 25t-49 6h-24l7 47l267 14l-182 -614l-5 -16q-5 -17 -5 -26q0 -17 15 -17q17 0 47 32t60 81l39 -27q-31 -56 -86 -108q-59 -56 -125 -56q-46 0 -74 25t-28 66zM366 462q123 55 123 123q-20 -2 -24 -2q-33 0 -51.5 18.5 t-18.5 52.5q0 36 24 59t61 23q42 0 68 -29t26 -75q0 -133 -189 -207z" />
<glyph unicode="&#x13f;" horiz-adv-x="704" d="M-41 0l7 54h20q46 0 61 14q6 6 9.5 15.5t16.5 60.5l117 434q13 51 13 63q0 17 -15 22t-64 5h-19l8 54h382l-8 -54h-18q-62 0 -76 -14q-7 -6 -10 -15.5t-17 -60.5l-116 -434q-15 -53 -14 -64q0 -15 11.5 -20.5t41.5 -5.5h36q88 0 168.5 57.5t124.5 154.5l52 -11l-68 -255 h-643zM506 384q0 29 21 50t51 21q29 0 50 -21t21 -50q0 -30 -21 -51t-51 -21q-29 0 -50 21.5t-21 50.5z" />
<glyph unicode="&#x140;" horiz-adv-x="409" d="M26 76q0 33 23 106l117 396q15 50 15 66q0 19 -12 25t-49 6h-24l7 47l267 14l-182 -614l-5 -16q-5 -17 -5 -26q0 -17 15 -17q17 0 47 32t60 81l39 -27q-31 -56 -86 -108q-59 -56 -125 -56q-46 0 -74 25t-28 66zM320 384q0 29 21 50t51 21q29 0 50 -21t21 -50 q0 -30 -21 -51t-51 -21q-29 0 -50 21.5t-21 50.5z" />
<glyph unicode="&#x141;" horiz-adv-x="704" d="M-41 0l7 54h19q43 0 56 8t21 40l38 141l-100 -58l16 82l106 59l68 252q13 51 13 63q0 17 -15 22t-64 5h-19l8 54h382l-8 -54h-18q-52 0 -68 -8.5t-24 -39.5q-8 -32 -18 -67.5t-21.5 -78t-18.5 -67.5l189 106l-22 -82l-189 -107l-47 -180q-14 -52 -14 -64 q0 -15 11.5 -20.5t41.5 -5.5h36q60 0 107 20t96 67q58 54 90 125l52 -11l-68 -255h-643z" />
<glyph unicode="&#x142;" horiz-adv-x="389" d="M-2 233l24 85l84 62l59 198q16 52 16 66q0 19 -12 25t-49 6h-24l7 47l267 14l-82 -271l95 70l-26 -85l-94 -70l-76 -258q-10 -34 -10 -43q0 -16 16 -16q21 0 60 49q28 34 46 64l39 -27q-31 -56 -86 -108q-59 -56 -126 -56q-45 0 -73 25t-28 66q0 32 22 106l34 113z" />
<glyph unicode="&#x143;" horiz-adv-x="852" d="M-57 0l7 54q51 2 81 27q21 19 29 38t31 98l113 419q-17 32 -59 32h-56l7 54h254l268 -507l78 290q22 84 22 108q0 55 -90 55l7 54h277l-7 -54q-51 0 -81 -27q-21 -21 -29.5 -39t-31.5 -97l-139 -519h-80l-296 566l-90 -335q-21 -84 -21 -108q0 -29 17.5 -42t59.5 -13h21 l-8 -54h-284zM413 770l149 126q29 25 45.5 32.5t38.5 7.5q27 0 46 -13.5t19 -33.5q0 -25 -34 -39l-199 -80h-65z" />
<glyph unicode="&#x144;" horiz-adv-x="685" d="M3 0l95 319q15 52 15 67q0 19 -12 25t-49 6h-24l7 47l250 14l-32 -132q56 72 103 102.5t102 30.5q49 0 81 -29t32 -74q0 -46 -31 -128l-47 -128q-10 -30 -10 -38q0 -6 4.5 -11t9.5 -5q14 0 36 22.5t61 77.5l9 11l39 -25q-58 -89 -107 -128t-104 -39q-47 0 -74.5 24.5 t-27.5 66.5q0 29 20 87l62 169q9 24 9 36q0 10 -9.5 18t-20.5 8q-37 0 -95 -69q-59 -71 -97 -198l-38 -127h-157zM282 538l124 139q26 28 39 36.5t31 8.5q23 0 38.5 -15t15.5 -37q0 -28 -28 -44l-166 -88h-54z" />
<glyph unicode="&#x145;" horiz-adv-x="852" d="M-57 0l7 54q51 2 81 27q21 19 29 38t31 98l113 419q-17 32 -59 32h-56l7 54h254l268 -507l78 290q22 84 22 108q0 55 -90 55l7 54h277l-7 -54q-51 0 -81 -27q-21 -21 -29.5 -39t-31.5 -97l-139 -519h-80l-296 566l-90 -335q-21 -84 -21 -108q0 -29 17.5 -42t59.5 -13h21 l-8 -54h-284zM200 -334q123 55 123 123q-20 -2 -24 -2q-33 0 -51.5 18.5t-18.5 52.5q0 36 24 59t61 23q42 0 68 -29t26 -75q0 -133 -189 -207z" />
<glyph unicode="&#x146;" horiz-adv-x="685" d="M3 0l95 319q15 52 15 67q0 19 -12 25t-49 6h-24l7 47l250 14l-32 -132q56 72 103 102.5t102 30.5q49 0 81 -29t32 -74q0 -46 -31 -128l-47 -128q-10 -30 -10 -38q0 -6 4.5 -11t9.5 -5q14 0 36 22.5t61 77.5l9 11l39 -25q-58 -89 -107 -128t-104 -39q-47 0 -74.5 24.5 t-27.5 66.5q0 29 20 87l62 169q9 24 9 36q0 10 -9.5 18t-20.5 8q-37 0 -95 -69q-59 -71 -97 -198l-38 -127h-157zM105 -334q123 55 123 123q-20 -2 -24 -2q-33 0 -51.5 18.5t-18.5 52.5q0 36 24 59t61 23q42 0 68 -29t26 -75q0 -133 -189 -207z" />
<glyph unicode="&#x147;" horiz-adv-x="852" d="M-57 0l7 54q51 2 81 27q21 19 29 38t31 98l113 419q-17 32 -59 32h-56l7 54h254l268 -507l78 290q22 84 22 108q0 55 -90 55l7 54h277l-7 -54q-51 0 -81 -27q-21 -21 -29.5 -39t-31.5 -97l-139 -519h-80l-296 566l-90 -335q-21 -84 -21 -108q0 -29 17.5 -42t59.5 -13h21 l-8 -54h-284zM375 932h70l108 -78l152 78h80l-188 -157h-122z" />
<glyph unicode="&#x148;" horiz-adv-x="685" d="M3 0l95 319q15 52 15 67q0 19 -12 25t-49 6h-24l7 47l250 14l-32 -132q56 72 103 102.5t102 30.5q49 0 81 -29t32 -74q0 -46 -31 -128l-47 -128q-10 -30 -10 -38q0 -6 4.5 -11t9.5 -5q14 0 36 22.5t61 77.5l9 11l39 -25q-58 -89 -107 -128t-104 -39q-47 0 -74.5 24.5 t-27.5 66.5q0 29 20 87l62 169q9 24 9 36q0 10 -9.5 18t-20.5 8q-37 0 -95 -69q-59 -71 -97 -198l-38 -127h-157zM245 718h59l90 -88l126 88h68l-157 -176h-102z" />
<glyph unicode="&#x14a;" horiz-adv-x="852" d="M-57 0l7 54q51 2 81 27q21 19 29 38t31 98l113 419q-17 32 -59 32h-56l7 54h254l268 -507l78 290q22 84 22 108q0 55 -90 55l7 54h277l-7 -54q-51 0 -81 -27q-21 -21 -29.5 -39t-31.5 -97l-139 -519q-25 -95 -91 -165.5t-144 -70.5q-63 0 -104.5 31.5t-41.5 80.5 q0 37 21.5 60t56.5 23q34 0 54 -20t20 -55q0 -20 -5.5 -29.5t-22.5 -19.5q-6 -3 -6 -10q0 -12 17 -12q57 0 100 56t64 135l-294 562l-90 -335q-21 -84 -21 -108q0 -29 17.5 -42t59.5 -13h21l-8 -54h-284z" />
<glyph unicode="&#x14b;" horiz-adv-x="685" d="M3 0l95 319q15 52 15 67q0 19 -12 25t-49 6h-24l7 47l250 14l-32 -132q56 72 103 102.5t102 30.5q49 0 81 -29t32 -74q0 -46 -31 -128l-47 -128q-36 -136 -111.5 -233t-173.5 -97q-51 0 -84 25.5t-33 64.5q0 29 17 47.5t45 18.5t43.5 -16t15.5 -44q0 -26 -22 -39 q-5 -2 -5 -8q0 -9 14 -9q15 0 29.5 13.5t28.5 42t25.5 56t25 72t21.5 73.5t20 76l62 169q9 24 9 36q0 10 -9.5 18t-20.5 8q-37 0 -95 -69q-59 -71 -97 -198l-38 -127h-157z" />
<glyph unicode="&#x14c;" horiz-adv-x="833" d="M36 286q0 91 37.5 175t99.5 144t145 96t172 36q130 0 218.5 -85.5t88.5 -210.5q0 -186 -135 -321t-320 -135q-139 0 -222.5 82.5t-83.5 218.5zM215 193q0 -71 34 -112.5t93 -41.5q108 0 191 157q37 71 58.5 158t21.5 166q0 76 -33.5 119.5t-92.5 43.5q-110 0 -187 -155 q-37 -75 -61 -170t-24 -165zM370 815l21 76h334l-21 -76h-334z" />
<glyph unicode="&#x14d;" horiz-adv-x="574" d="M10 187q0 119 93.5 205.5t220.5 86.5q98 0 160 -54q56 -48 56 -140q0 -127 -92 -213t-228 -86q-96 0 -150 51q-28 25 -44 65.5t-16 84.5zM165 108q0 -37 17 -58t47 -21q65 0 106 105q21 52 35.5 116.5t14.5 103.5q0 35 -18 56.5t-47 21.5q-64 0 -110 -110 q-19 -47 -32 -108t-13 -106zM201 592l21 76h334l-21 -76h-334z" />
<glyph unicode="&#x14e;" horiz-adv-x="833" d="M36 286q0 91 37.5 175t99.5 144t145 96t172 36q130 0 218.5 -85.5t88.5 -210.5q0 -186 -135 -321t-320 -135q-139 0 -222.5 82.5t-83.5 218.5zM215 193q0 -71 34 -112.5t93 -41.5q108 0 191 157q37 71 58.5 158t21.5 166q0 76 -33.5 119.5t-92.5 43.5q-110 0 -187 -155 q-37 -75 -61 -170t-24 -165zM363 927h56q5 -41 33.5 -59t87.5 -18q56 0 98.5 21.5t53.5 55.5h57q-6 -52 -51 -92q-62 -56 -170 -56q-89 0 -133 41t-32 107z" />
<glyph unicode="&#x14f;" horiz-adv-x="574" d="M10 187q0 119 93.5 205.5t220.5 86.5q98 0 160 -54q56 -48 56 -140q0 -127 -92 -213t-228 -86q-96 0 -150 51q-28 25 -44 65.5t-16 84.5zM165 108q0 -37 17 -58t47 -21q65 0 106 105q21 52 35.5 116.5t14.5 103.5q0 35 -18 56.5t-47 21.5q-64 0 -110 -110 q-19 -47 -32 -108t-13 -106zM217 683q0 3 2 29h46q4 -45 27.5 -65t73.5 -20q47 0 82 23.5t45 61.5h47q-5 -57 -42 -102q-52 -62 -142 -62q-66 0 -102.5 35.5t-36.5 99.5z" />
<glyph unicode="&#x150;" horiz-adv-x="833" d="M36 286q0 91 37.5 175t99.5 144t145 96t172 36q130 0 218.5 -85.5t88.5 -210.5q0 -186 -135 -321t-320 -135q-139 0 -222.5 82.5t-83.5 218.5zM215 193q0 -71 34 -112.5t93 -41.5q108 0 191 157q37 71 58.5 158t21.5 166q0 76 -33.5 119.5t-92.5 43.5q-110 0 -187 -155 q-37 -75 -61 -170t-24 -165zM392 790l123 122q30 30 41.5 37.5t29.5 7.5q23 0 38.5 -15t15.5 -37q0 -14 -8 -26.5t-20 -17.5l-166 -71h-54zM583 790l123 122q30 30 41.5 37.5t29.5 7.5q23 0 38.5 -15t15.5 -37q0 -14 -8 -26.5t-20 -17.5l-166 -71h-54z" />
<glyph unicode="&#x151;" horiz-adv-x="574" d="M10 187q0 119 93.5 205.5t220.5 86.5q98 0 160 -54q56 -48 56 -140q0 -127 -92 -213t-228 -86q-96 0 -150 51q-28 25 -44 65.5t-16 84.5zM165 108q0 -37 17 -58t47 -21q65 0 106 105q21 52 35.5 116.5t14.5 103.5q0 35 -18 56.5t-47 21.5q-64 0 -110 -110 q-19 -47 -32 -108t-13 -106zM217 547l123 122q30 30 41.5 37.5t29.5 7.5q23 0 38.5 -15t15.5 -37q0 -14 -8 -26.5t-20 -17.5l-166 -71h-54zM408 547l123 122q30 30 41.5 37.5t29.5 7.5q23 0 38.5 -15t15.5 -37q0 -14 -8 -26.5t-20 -17.5l-166 -71h-54z" />
<glyph unicode="&#x152;" horiz-adv-x="963" d="M19 281q0 103 48.5 200t131.5 161q59 44 120.5 62t158.5 18h502l-40 -245h-49q0 94 -18 127q-34 64 -109 64h-17q-21 0 -32 -11t-18 -37l-59 -219h40q39 0 63 28t50 94l46 -7l-90 -335l-46 7q5 38 5 61q0 98 -51 98h-31l-64 -236q-5 -20 -5 -32q0 -25 41 -25h28 q68 0 141.5 61.5t113.5 143.5l49 -11l-66 -248h-555q-138 0 -213 74.5t-75 206.5zM189 218q0 -164 115 -164q37 0 57 22t36 81l101 377q11 41 11 75q0 59 -69 59q-50 0 -88 -28t-72 -89q-41 -74 -66 -164.5t-25 -168.5z" />
<glyph unicode="&#x153;" horiz-adv-x="852" d="M-5 188q0 117 93 204t219 87q100 0 158 -67q79 67 179 67q72 0 119 -34.5t47 -86.5q0 -70 -83.5 -119.5t-235.5 -57.5q-3 -33 -3 -44q0 -43 23 -68t64 -25q39 0 73.5 19t78.5 63l34 -35q-92 -106 -222 -106q-51 0 -85 13.5t-69 47.5q-46 -35 -83 -47.5t-94 -12.5 q-102 0 -157.5 55.5t-55.5 146.5zM150 108q0 -37 17 -58t47 -21q64 0 106 105q21 52 35.5 116.5t14.5 103.5q0 35 -18 56.5t-47 21.5q-40 0 -77 -52.5t-57.5 -127.5t-20.5 -144zM500 228q82 13 135 56t53 101q0 21 -12 34t-32 13q-47 0 -86.5 -56.5t-57.5 -147.5z" />
<glyph unicode="&#x154;" horiz-adv-x="796" d="M-41 0l7 54h20q46 0 60 14q7 6 10 15.5t17 60.5l116 434q14 51 14 63q0 17 -14.5 22t-62.5 5h-21l7 54h347q152 0 222 -38t70 -129q0 -173 -287 -196q73 -20 106 -61.5t33 -116.5v-34q0 -50 1 -59t6 -16q8 -11 18 -11q36 0 71 96l43 -21q-50 -151 -175 -151 q-63 0 -103 40t-40 102q0 16 6 69t6 73q0 81 -92 81h-40l-55 -206q-13 -46 -13 -63t15 -22t64 -5h26l-8 -54h-374zM319 404h34q68 0 96 6t53 25q65 49 65 135q0 47 -28 72.5t-80 25.5h-25q-27 0 -37.5 -7.5t-16.5 -30.5zM348 770l149 126q29 25 45.5 32.5t38.5 7.5 q27 0 46 -13.5t19 -33.5q0 -25 -34 -39l-199 -80h-65z" />
<glyph unicode="&#x155;" horiz-adv-x="519" d="M3 0l95 319q15 50 15 67q0 19 -12 25t-49 6h-24l7 47l250 14l-31 -127q46 70 86.5 99t90.5 29q42 0 67.5 -24t25.5 -64q0 -35 -21.5 -59t-53.5 -24q-24 0 -43 13.5t-24 35.5q-3 12 -3 31q0 13 -10 13q-14 0 -40 -26q-37 -35 -71.5 -99.5t-55.5 -136.5l-42 -139h-157z M212 538l124 139q26 28 39 36.5t31 8.5q23 0 38.5 -15t15.5 -37q0 -28 -28 -44l-166 -88h-54z" />
<glyph unicode="&#x156;" horiz-adv-x="796" d="M-41 0l7 54h20q46 0 60 14q7 6 10 15.5t17 60.5l116 434q14 51 14 63q0 17 -14.5 22t-62.5 5h-21l7 54h347q152 0 222 -38t70 -129q0 -173 -287 -196q73 -20 106 -61.5t33 -116.5v-34q0 -50 1 -59t6 -16q8 -11 18 -11q36 0 71 96l43 -21q-50 -151 -175 -151 q-63 0 -103 40t-40 102q0 16 6 69t6 73q0 81 -92 81h-40l-55 -206q-13 -46 -13 -63t15 -22t64 -5h26l-8 -54h-374zM135 -334q123 55 123 123q-20 -2 -24 -2q-33 0 -51.5 18.5t-18.5 52.5q0 36 24 59t61 23q42 0 68 -29t26 -75q0 -133 -189 -207zM319 404h34q68 0 96 6t53 25 q65 49 65 135q0 47 -28 72.5t-80 25.5h-25q-27 0 -37.5 -7.5t-16.5 -30.5z" />
<glyph unicode="&#x157;" horiz-adv-x="519" d="M-46 -334q123 55 123 123q-20 -2 -24 -2q-33 0 -51.5 18.5t-18.5 52.5q0 36 24 59t61 23q42 0 68 -29t26 -75q0 -133 -189 -207zM3 0l95 319q15 50 15 67q0 19 -12 25t-49 6h-24l7 47l250 14l-31 -127q46 70 86.5 99t90.5 29q42 0 67.5 -24t25.5 -64q0 -35 -21.5 -59 t-53.5 -24q-24 0 -43 13.5t-24 35.5q-3 12 -3 31q0 13 -10 13q-14 0 -40 -26q-37 -35 -71.5 -99.5t-55.5 -136.5l-42 -139h-157z" />
<glyph unicode="&#x158;" horiz-adv-x="796" d="M-41 0l7 54h20q46 0 60 14q7 6 10 15.5t17 60.5l116 434q14 51 14 63q0 17 -14.5 22t-62.5 5h-21l7 54h347q152 0 222 -38t70 -129q0 -173 -287 -196q73 -20 106 -61.5t33 -116.5v-34q0 -50 1 -59t6 -16q8 -11 18 -11q36 0 71 96l43 -21q-50 -151 -175 -151 q-63 0 -103 40t-40 102q0 16 6 69t6 73q0 81 -92 81h-40l-55 -206q-13 -46 -13 -63t15 -22t64 -5h26l-8 -54h-374zM310 932h70l108 -78l152 78h80l-188 -157h-122zM319 404h34q68 0 96 6t53 25q65 49 65 135q0 47 -28 72.5t-80 25.5h-25q-27 0 -37.5 -7.5t-16.5 -30.5z" />
<glyph unicode="&#x159;" horiz-adv-x="519" d="M3 0l95 319q15 50 15 67q0 19 -12 25t-49 6h-24l7 47l250 14l-31 -127q46 70 86.5 99t90.5 29q42 0 67.5 -24t25.5 -64q0 -35 -21.5 -59t-53.5 -24q-24 0 -43 13.5t-24 35.5q-3 12 -3 31q0 13 -10 13q-14 0 -40 -26q-37 -35 -71.5 -99.5t-55.5 -136.5l-42 -139h-157z M175 718h59l90 -88l126 88h68l-157 -176h-102z" />
<glyph unicode="&#x15a;" horiz-adv-x="685" d="M1 0l50 283l52 -8l-1 -30q1 -90 60 -148t155 -58q70 0 113.5 31.5t43.5 81.5q0 44 -35 71.5t-136 61.5q-62 21 -91.5 36t-53.5 38q-56 53 -56 136q0 104 76 173t190 69q113 0 200 -76l53 54h45l-44 -263l-52 9q-4 109 -54 165.5t-136 56.5q-65 0 -104 -29.5t-39 -78.5 q0 -39 22.5 -64t89.5 -47q149 -49 206 -96.5t57 -143.5q0 -106 -81 -172.5t-211 -66.5q-67 0 -117 18.5t-100 61.5l-58 -65h-44zM330 770l149 126q29 25 45.5 32.5t38.5 7.5q27 0 46 -13.5t19 -33.5q0 -25 -34 -39l-199 -80h-65z" />
<glyph unicode="&#x15b;" horiz-adv-x="481" d="M2 101q0 32 19.5 52t50.5 20q20 0 36 -8t25.5 -23t9.5 -33q0 -14 -5 -23.5t-21 -22.5q-5 -5 -5 -9q0 -11 18 -18.5t45 -7.5q41 0 68 19.5t27 49.5q0 20 -13.5 34t-44.5 27q-34 14 -51 22t-41 23t-35.5 29.5t-20 37t-8.5 50.5q0 73 54.5 116t147.5 43q79 0 129 -31.5 t50 -80.5q0 -31 -19 -50.5t-50 -19.5q-30 0 -49.5 17.5t-19.5 43.5q0 19 18 41q6 7 6 12q0 8 -17 14.5t-39 6.5q-39 0 -64 -17t-25 -44q0 -20 17 -35t61 -34q34 -15 55 -26.5t43.5 -30t33.5 -42.5t11 -54q0 -74 -60.5 -119t-158.5 -45q-79 0 -128.5 32t-49.5 84zM204 538 l124 139q26 28 39 36.5t31 8.5q23 0 38.5 -15t15.5 -37q0 -28 -28 -44l-166 -88h-54z" />
<glyph unicode="&#x15c;" horiz-adv-x="685" d="M1 0l50 283l52 -8l-1 -30q1 -90 60 -148t155 -58q70 0 113.5 31.5t43.5 81.5q0 44 -35 71.5t-136 61.5q-62 21 -91.5 36t-53.5 38q-56 53 -56 136q0 104 76 173t190 69q113 0 200 -76l53 54h45l-44 -263l-52 9q-4 109 -54 165.5t-136 56.5q-65 0 -104 -29.5t-39 -78.5 q0 -39 22.5 -64t89.5 -47q149 -49 206 -96.5t57 -143.5q0 -106 -81 -172.5t-211 -66.5q-67 0 -117 18.5t-100 61.5l-58 -65h-44zM250 775l188 157h122l100 -157h-70l-108 78l-152 -78h-80z" />
<glyph unicode="&#x15d;" horiz-adv-x="481" d="M2 101q0 32 19.5 52t50.5 20q20 0 36 -8t25.5 -23t9.5 -33q0 -14 -5 -23.5t-21 -22.5q-5 -5 -5 -9q0 -11 18 -18.5t45 -7.5q41 0 68 19.5t27 49.5q0 20 -13.5 34t-44.5 27q-34 14 -51 22t-41 23t-35.5 29.5t-20 37t-8.5 50.5q0 73 54.5 116t147.5 43q79 0 129 -31.5 t50 -80.5q0 -31 -19 -50.5t-50 -19.5q-30 0 -49.5 17.5t-19.5 43.5q0 19 18 41q6 7 6 12q0 8 -17 14.5t-39 6.5q-39 0 -64 -17t-25 -44q0 -20 17 -35t61 -34q34 -15 55 -26.5t43.5 -30t33.5 -42.5t11 -54q0 -74 -60.5 -119t-158.5 -45q-79 0 -128.5 32t-49.5 84zM131 543 l157 174h101l84 -174h-59l-90 86l-126 -86h-67z" />
<glyph unicode="&#x15e;" horiz-adv-x="685" d="M1 0l50 283l52 -8v-15q0 -101 58.5 -161t155.5 -60q70 0 113.5 31.5t43.5 81.5q0 44 -35 71.5t-136 61.5q-62 21 -91.5 36t-53.5 38q-56 53 -56 136q0 104 76 173t190 69q113 0 200 -76l53 54h45l-44 -263l-52 9q-3 77 -25 123q-24 47 -67 73t-98 26q-65 0 -104 -29.5 t-39 -78.5q0 -45 32 -72q18 -18 80 -39q116 -38 173 -72q90 -51 90 -169q0 -106 -81 -172t-211 -66q-13 0 -25 1l-35 -48q20 3 31 3q39 0 64 -21t25 -54q0 -39 -37.5 -63.5t-97.5 -24.5q-69 0 -109 29l22 35q42 -19 71 -19q23 0 36.5 10.5t13.5 27.5q0 15 -12 25t-31 10 q-8 0 -29 -4l-16 17l62 81q-83 14 -150 75l-58 -65h-44z" />
<glyph unicode="&#x15f;" horiz-adv-x="481" d="M2 101q0 32 19.5 52t50.5 20q30 0 50.5 -18t20.5 -46q0 -24 -26 -46q-5 -5 -5 -9q0 -11 18 -18.5t45 -7.5q41 0 68 19.5t27 49.5q0 38 -58 61q-42 17 -63 28t-46.5 30t-36 44t-10.5 59q0 73 54 116.5t146 43.5q80 0 130.5 -31t50.5 -81q0 -31 -19 -50.5t-50 -19.5 q-30 0 -49.5 17.5t-19.5 43.5q0 19 18 41q6 7 6 12q0 8 -17 14.5t-39 6.5q-39 0 -64 -17t-25 -44q0 -20 17 -35t61 -34q34 -15 55 -26.5t43.5 -30t33.5 -42.5t11 -54q0 -73 -60 -118.5t-157 -45.5q-9 0 -16 1l-34 -47q20 3 33 3q37 0 61.5 -21.5t24.5 -53.5q0 -39 -37.5 -63 t-97.5 -24q-68 0 -109 29l22 35q43 -19 72 -19q22 0 35.5 10.5t13.5 27.5q0 15 -12 25t-30 10q-9 0 -29 -4l-17 17l62 79q-59 12 -90.5 40.5t-31.5 70.5z" />
<glyph unicode="&#x160;" horiz-adv-x="685" d="M1 0l50 283l52 -8l-1 -30q1 -90 60 -148t155 -58q70 0 113.5 31.5t43.5 81.5q0 44 -35 71.5t-136 61.5q-62 21 -91.5 36t-53.5 38q-56 53 -56 136q0 104 76 173t190 69q113 0 200 -76l53 54h45l-44 -263l-52 9q-4 109 -54 165.5t-136 56.5q-65 0 -104 -29.5t-39 -78.5 q0 -39 22.5 -64t89.5 -47q149 -49 206 -96.5t57 -143.5q0 -106 -81 -172.5t-211 -66.5q-67 0 -117 18.5t-100 61.5l-58 -65h-44zM292 932h70l108 -78l152 78h80l-188 -157h-122z" />
<glyph unicode="&#x161;" horiz-adv-x="481" d="M2 101q0 32 19.5 52t50.5 20q20 0 36 -8t25.5 -23t9.5 -33q0 -14 -5 -23.5t-21 -22.5q-5 -5 -5 -9q0 -11 18 -18.5t45 -7.5q41 0 68 19.5t27 49.5q0 20 -13.5 34t-44.5 27q-34 14 -51 22t-41 23t-35.5 29.5t-20 37t-8.5 50.5q0 73 54.5 116t147.5 43q79 0 129 -31.5 t50 -80.5q0 -31 -19 -50.5t-50 -19.5q-30 0 -49.5 17.5t-19.5 43.5q0 19 18 41q6 7 6 12q0 8 -17 14.5t-39 6.5q-39 0 -64 -17t-25 -44q0 -20 17 -35t61 -34q34 -15 55 -26.5t43.5 -30t33.5 -42.5t11 -54q0 -74 -60.5 -119t-158.5 -45q-79 0 -128.5 32t-49.5 84zM167 718h59 l90 -88l126 88h68l-157 -176h-102z" />
<glyph unicode="&#x162;" horiz-adv-x="722" d="M44 455l71 267h647l-44 -283l-53 5q3 34 3 60q0 79 -30.5 121.5t-87.5 42.5q-22 0 -28.5 -6.5t-14.5 -38.5l-128 -479q-14 -51 -14 -63q0 -17 15.5 -22t64.5 -5h25l-7 -54h-172l-43 -61q20 3 33 3q37 0 61.5 -21.5t24.5 -53.5q0 -39 -37.5 -63t-97.5 -24q-68 0 -109 29 l22 35q43 -19 72 -19q22 0 35.5 10.5t13.5 27.5q0 15 -12 25t-30 10q-9 0 -29 -4l-17 17l68 89h-180l7 54h27q62 0 76 14q7 6 10.5 15.5t16.5 60.5l130 485q4 13 4 24q0 15 -28 15q-64 0 -113.5 -53t-101.5 -176z" />
<glyph unicode="&#x163;" horiz-adv-x="407" d="M-37 -191l22 35q43 -19 72 -19q22 0 35.5 10.5t13.5 27.5q0 15 -12 25t-30 10q-9 0 -29 -4l-17 17l62 82q-25 10 -40.5 30.5t-15.5 45.5q0 20 25 114l65 220h-87l18 61h87l56 186h157l-55 -186h114l-18 -61h-114l-70 -236q-21 -72 -21 -83q0 -7 4.5 -12.5t10.5 -5.5 q15 0 45.5 34t58.5 83l37 -27q-40 -62 -68 -92q-72 -76 -148 -78l-33 -47q20 3 33 3q37 0 61.5 -21.5t24.5 -53.5q0 -39 -37.5 -63t-97.5 -24q-68 0 -109 29z" />
<glyph unicode="&#x164;" horiz-adv-x="722" d="M44 455l71 267h647l-44 -283l-53 5q3 34 3 60q0 79 -30.5 121.5t-87.5 42.5q-22 0 -28.5 -6.5t-14.5 -38.5l-128 -479q-14 -51 -14 -63q0 -17 15.5 -22t64.5 -5h25l-7 -54h-397l7 54h27q62 0 76 14q7 6 10.5 15.5t16.5 60.5l130 485q4 13 4 24q0 15 -28 15 q-64 0 -113.5 -53t-101.5 -176zM297 932h70l108 -78l152 78h80l-188 -157h-122z" />
<glyph unicode="&#x165;" horiz-adv-x="407" d="M24 69q0 20 25 114l65 220h-87l18 61h87l56 186h157l-55 -186h114l-18 -61h-114l-70 -236q-21 -72 -21 -83q0 -7 4.5 -12.5t10.5 -5.5q15 0 45.5 34t58.5 83l37 -27q-40 -62 -68 -92q-73 -78 -150 -78q-40 0 -67.5 24t-27.5 59zM363 538q123 55 123 123q-20 -2 -24 -2 q-33 0 -51.5 18.5t-18.5 52.5q0 36 24 59t61 23q42 0 68 -29t26 -75q0 -133 -189 -207z" />
<glyph unicode="&#x168;" horiz-adv-x="833" d="M88 196q0 42 17 107l74 275q14 54 14 63q0 17 -13.5 22t-61.5 5h-23l7 54h376l-8 -54h-22q-52 0 -66 -14q-7 -6 -10.5 -15.5t-16.5 -60.5l-81 -304q-15 -55 -15 -88q0 -66 39.5 -102.5t110.5 -36.5q74 0 125 46.5t81 160.5l67 252q22 83 22 107q0 55 -90 55l7 54h274 l-7 -54q-48 0 -78 -27q-21 -19 -29.5 -38.5t-31.5 -96.5l-74 -279q-34 -126 -106.5 -184t-197.5 -58q-129 0 -206 58t-77 153zM362 790q4 55 39 90.5t85 35.5q31 0 79 -19q53 -21 70 -21q38 0 50 40h47q-2 -50 -39.5 -88t-84.5 -38q-30 0 -85 21q-52 21 -72 21 q-34 0 -42 -42h-47z" />
<glyph unicode="&#x169;" horiz-adv-x="685" d="M38 95q0 34 21 103l35 121q16 52 16 67q0 19 -12 25t-49 6h-10l7 47l253 14l-90 -304q-3 -7 -9.5 -31.5t-9.5 -33.5q-2 -12 -2 -14q0 -10 7.5 -17.5t17.5 -7.5q19 0 51 25.5t59 63.5q43 59 68 140l48 165h158l-93 -312q-16 -56 -16 -67q0 -5 4.5 -9.5t9.5 -4.5 q13 0 40.5 30t58.5 79l38 -28q-59 -90 -107 -128t-105 -38q-97 0 -97 85q0 16 1 26q-49 -59 -92 -85t-91 -26q-49 0 -79.5 30t-30.5 79zM226 567q4 55 39 90.5t85 35.5q31 0 79 -19q53 -21 70 -21q38 0 50 40h47q-2 -50 -39.5 -88t-84.5 -38q-30 0 -85 21q-53 21 -72 21 q-34 0 -42 -42h-47z" />
<glyph unicode="&#x16a;" horiz-adv-x="833" d="M88 196q0 42 17 107l74 275q14 54 14 63q0 17 -13.5 22t-61.5 5h-23l7 54h376l-8 -54h-22q-52 0 -66 -14q-7 -6 -10.5 -15.5t-16.5 -60.5l-81 -304q-15 -55 -15 -88q0 -66 39.5 -102.5t110.5 -36.5q74 0 125 46.5t81 160.5l67 252q22 83 22 107q0 55 -90 55l7 54h274 l-7 -54q-48 0 -78 -27q-21 -19 -29.5 -38.5t-31.5 -96.5l-74 -279q-34 -126 -106.5 -184t-197.5 -58q-129 0 -206 58t-77 153zM369 815l21 76h334l-21 -76h-334z" />
<glyph unicode="&#x16b;" horiz-adv-x="685" d="M38 95q0 34 21 103l35 121q16 52 16 67q0 19 -12 25t-49 6h-10l7 47l253 14l-90 -304q-3 -7 -9.5 -31.5t-9.5 -33.5q-2 -12 -2 -14q0 -10 7.5 -17.5t17.5 -7.5q19 0 51 25.5t59 63.5q43 59 68 140l48 165h158l-93 -312q-16 -56 -16 -67q0 -5 4.5 -9.5t9.5 -4.5 q13 0 40.5 30t58.5 79l38 -28q-59 -90 -107 -128t-105 -38q-97 0 -97 85q0 16 1 26q-49 -59 -92 -85t-91 -26q-49 0 -79.5 30t-30.5 79zM234 592l21 76h334l-21 -76h-334z" />
<glyph unicode="&#x16c;" horiz-adv-x="833" d="M88 196q0 42 17 107l74 275q14 54 14 63q0 17 -13.5 22t-61.5 5h-23l7 54h376l-8 -54h-22q-52 0 -66 -14q-7 -6 -10.5 -15.5t-16.5 -60.5l-81 -304q-15 -55 -15 -88q0 -66 39.5 -102.5t110.5 -36.5q74 0 125 46.5t81 160.5l67 252q22 83 22 107q0 55 -90 55l7 54h274 l-7 -54q-48 0 -78 -27q-21 -19 -29.5 -38.5t-31.5 -96.5l-74 -279q-34 -126 -106.5 -184t-197.5 -58q-129 0 -206 58t-77 153zM362 927h56q5 -41 33.5 -59t87.5 -18q56 0 98.5 21.5t53.5 55.5h57q-6 -52 -51 -92q-62 -56 -170 -56q-89 0 -133 41t-32 107z" />
<glyph unicode="&#x16d;" horiz-adv-x="685" d="M38 95q0 34 21 103l35 121q16 52 16 67q0 19 -12 25t-49 6h-10l7 47l253 14l-90 -304q-3 -7 -9.5 -31.5t-9.5 -33.5q-2 -12 -2 -14q0 -10 7.5 -17.5t17.5 -7.5q19 0 51 25.5t59 63.5q43 59 68 140l48 165h158l-93 -312q-16 -56 -16 -67q0 -5 4.5 -9.5t9.5 -4.5 q13 0 40.5 30t58.5 79l38 -28q-59 -90 -107 -128t-105 -38q-97 0 -97 85q0 16 1 26q-49 -59 -92 -85t-91 -26q-49 0 -79.5 30t-30.5 79zM250 683q0 3 2 29h46q4 -45 27.5 -65t73.5 -20q47 0 82 23.5t45 61.5h47q-5 -57 -42 -102q-52 -62 -142 -62q-66 0 -102.5 35.5 t-36.5 99.5z" />
<glyph unicode="&#x16e;" horiz-adv-x="833" d="M88 196q0 42 17 107l74 275q14 54 14 63q0 17 -13.5 22t-61.5 5h-23l7 54h376l-8 -54h-22q-52 0 -66 -14q-7 -6 -10.5 -15.5t-16.5 -60.5l-81 -304q-15 -55 -15 -88q0 -66 39.5 -102.5t110.5 -36.5q74 0 125 46.5t81 160.5l67 252q22 83 22 107q0 55 -90 55l7 54h274 l-7 -54q-48 0 -78 -27q-21 -19 -29.5 -38.5t-31.5 -96.5l-74 -279q-34 -126 -106.5 -184t-197.5 -58q-129 0 -206 58t-77 153zM443 869q0 44 32 75.5t76 31.5t75.5 -31.5t31.5 -75.5q0 -45 -31.5 -76.5t-77.5 -31.5q-43 0 -74.5 32t-31.5 76zM497 868q0 -21 15.5 -37 t37.5 -16t38 15.5t16 38.5q0 22 -15.5 37.5t-37.5 15.5q-23 0 -38.5 -16t-15.5 -38z" />
<glyph unicode="&#x16f;" horiz-adv-x="685" d="M38 95q0 34 21 103l35 121q16 52 16 67q0 19 -12 25t-49 6h-10l7 47l253 14l-90 -304q-3 -7 -9.5 -31.5t-9.5 -33.5q-2 -12 -2 -14q0 -10 7.5 -17.5t17.5 -7.5q19 0 51 25.5t59 63.5q43 59 68 140l48 165h158l-93 -312q-16 -56 -16 -67q0 -5 4.5 -9.5t9.5 -4.5 q13 0 40.5 30t58.5 79l38 -28q-59 -90 -107 -128t-105 -38q-97 0 -97 85q0 16 1 26q-49 -59 -92 -85t-91 -26q-49 0 -79.5 30t-30.5 79zM304 631q0 44 32 75.5t76 31.5t75.5 -31.5t31.5 -75.5q0 -45 -31.5 -76.5t-77.5 -31.5q-43 0 -74.5 32t-31.5 76zM358 630 q0 -21 15.5 -37t37.5 -16q23 0 38.5 15.5t15.5 38.5q0 22 -15.5 37.5t-37.5 15.5t-38 -16t-16 -38z" />
<glyph unicode="&#x170;" horiz-adv-x="833" d="M88 196q0 42 17 107l74 275q14 54 14 63q0 17 -13.5 22t-61.5 5h-23l7 54h376l-8 -54h-22q-52 0 -66 -14q-7 -6 -10.5 -15.5t-16.5 -60.5l-81 -304q-15 -55 -15 -88q0 -66 39.5 -102.5t110.5 -36.5q74 0 125 46.5t81 160.5l67 252q22 83 22 107q0 55 -90 55l7 54h274 l-7 -54q-48 0 -78 -27q-21 -19 -29.5 -38.5t-31.5 -96.5l-74 -279q-34 -126 -106.5 -184t-197.5 -58q-129 0 -206 58t-77 153zM391 790l123 122q30 30 41.5 37.5t29.5 7.5q23 0 38.5 -15t15.5 -37q0 -14 -8 -26.5t-20 -17.5l-166 -71h-54zM582 790l123 122q30 30 41.5 37.5 t29.5 7.5q23 0 38.5 -15t15.5 -37q0 -14 -8 -26.5t-20 -17.5l-166 -71h-54z" />
<glyph unicode="&#x171;" horiz-adv-x="685" d="M38 95q0 34 21 103l35 121q16 52 16 67q0 19 -12 25t-49 6h-10l7 47l253 14l-90 -304q-3 -7 -9.5 -31.5t-9.5 -33.5q-2 -12 -2 -14q0 -10 7.5 -17.5t17.5 -7.5q19 0 51 25.5t59 63.5q43 59 68 140l48 165h158l-93 -312q-16 -56 -16 -67q0 -5 4.5 -9.5t9.5 -4.5 q13 0 40.5 30t58.5 79l38 -28q-59 -90 -107 -128t-105 -38q-97 0 -97 85q0 16 1 26q-49 -59 -92 -85t-91 -26q-49 0 -79.5 30t-30.5 79zM250 547l123 122q30 30 41.5 37.5t29.5 7.5q23 0 38.5 -15t15.5 -37q0 -14 -8 -26.5t-20 -17.5l-166 -71h-54zM441 547l123 122 q30 30 41.5 37.5t29.5 7.5q23 0 38.5 -15t15.5 -37q0 -14 -8 -26.5t-20 -17.5l-166 -71h-54z" />
<glyph unicode="&#x172;" horiz-adv-x="833" d="M88 196q0 42 17 107l74 275q14 54 14 63q0 17 -13.5 22t-61.5 5h-23l7 54h376l-8 -54h-22q-52 0 -66 -14q-7 -6 -10.5 -15.5t-16.5 -60.5l-81 -304q-15 -55 -15 -88q0 -66 39.5 -102.5t110.5 -36.5q74 0 125 46.5t81 160.5l67 252q22 83 22 107q0 55 -90 55l7 54h274 l-7 -54q-48 0 -78 -27q-21 -19 -29.5 -38.5t-31.5 -96.5l-74 -279q-30 -112 -89.5 -169.5t-157.5 -69.5q-26 -3 -43.5 -27.5t-17.5 -54.5q0 -20 11.5 -33t28.5 -13q42 0 70 23l28 -36q-22 -33 -57.5 -52t-72.5 -19q-42 0 -72 28t-30 74q0 59 61 108q-114 9 -180 66t-66 144z " />
<glyph unicode="&#x173;" horiz-adv-x="685" d="M38 95q0 34 21 103l35 121q16 52 16 67q0 19 -12 25t-49 6h-10l7 47l253 14l-90 -304q-3 -7 -9.5 -31.5t-9.5 -33.5q-2 -12 -2 -14q0 -10 7.5 -17.5t17.5 -7.5q19 0 51 25.5t59 63.5q43 59 68 140l48 165h158l-93 -312q-16 -56 -16 -67q0 -5 4.5 -9.5t9.5 -4.5 q13 0 40.5 30t58.5 79l38 -28q-86 -131 -158 -157q-27 -10 -44.5 -35.5t-17.5 -53.5q0 -20 11.5 -33t28.5 -13q42 0 70 23l28 -36q-22 -33 -57.5 -52t-72.5 -19q-42 0 -72 28t-30 74q0 62 66 112q-61 14 -61 81q0 16 1 26q-49 -59 -92 -85t-91 -26q-49 0 -79.5 30t-30.5 79z " />
<glyph unicode="&#x174;" horiz-adv-x="944" d="M40 668l7 54h303l-7 -54h-20q-26 0 -33 -6.5t-7 -29.5q8 -72 24.5 -202.5t20.5 -165.5l148 329l-3 30q-3 26 -17.5 35.5t-50.5 9.5h-16l7 54h311l-7 -54h-22q-25 0 -36 -6.5t-10 -21.5q0 -9 3 -27l47 -337l129 310q13 30 13 46t-15 26t-39 10h-18l7 54h235l-7 -54 q-47 -8 -73 -36.5t-59 -107.5l-233 -538h-66l-68 483l-222 -483h-66l-86 644q-3 23 -13 30.5t-41 7.5h-20zM361 775l188 157h122l100 -157h-70l-108 78l-152 -78h-80z" />
<glyph unicode="&#x175;" horiz-adv-x="833" d="M22 95q0 33 20 103l36 121q16 55 16 67q0 19 -12 25t-50 6h-10l7 47l254 14l-90 -301q-14 -51 -14 -69q0 -15 11 -26t25 -11q56 0 103 74q13 21 31 64t28 77l53 178h157l-69 -234q-24 -95 -24 -117t16.5 -39.5t37.5 -17.5q25 0 53.5 20.5t51.5 54.5q61 92 61 165 q0 14 -7 24t-37 37q-29 26 -29 57q0 29 19 47t50 18q35 0 56.5 -24.5t21.5 -64.5q0 -54 -20 -124t-52 -127q-88 -154 -221 -154q-60 0 -98.5 30.5t-51.5 87.5q-47 -62 -94.5 -90t-107.5 -28q-58 0 -89.5 28.5t-31.5 81.5zM280 543l157 174h101l84 -174h-59l-90 86l-126 -86 h-67z" />
<glyph unicode="&#x176;" horiz-adv-x="704" d="M15 668l7 54h366l-7 -54h-43q-26 0 -35 -5t-9 -19q0 -12 9 -34l91 -231l159 210q17 22 17 43q0 36 -57 36h-36l8 54h292l-7 -54q-47 -1 -78 -22t-76 -79l-200 -260l-43 -163q-14 -53 -14 -63q0 -17 15.5 -22t64.5 -5h25l-7 -54h-389l7 54h19q62 0 76 14q7 6 10 15.5 t17 60.5l43 163l-117 304q-13 34 -30.5 45.5t-54.5 11.5h-23zM249 775l188 157h122l100 -157h-70l-108 78l-152 -78h-80z" />
<glyph unicode="&#x177;" horiz-adv-x="519" d="M-66 -111q0 32 20 52.5t51 20.5q30 0 49.5 -18t19.5 -46q0 -12 -6 -28l-1 -6q0 -10 13 -10q20 0 52 25.5t58 62.5l29 40l-100 338q-8 28 -13.5 36.5t-15.5 8.5q-13 0 -23 -19.5t-31 -87.5l-43 13q49 208 162 208q54 0 78 -47q20 -38 37 -99l56 -190q67 113 67 158 q0 22 -19 53q-21 31 -21 59q0 29 20 47.5t51 18.5t49.5 -16.5t18.5 -45.5q0 -43 -40.5 -135t-106.5 -199q-89 -147 -164 -222q-62 -63 -141 -63q-48 0 -77 25t-29 66zM136 543l157 174h101l84 -174h-59l-90 86l-126 -86h-67z" />
<glyph unicode="&#x178;" horiz-adv-x="704" d="M15 668l7 54h366l-7 -54h-43q-26 0 -35 -5t-9 -19q0 -12 9 -34l91 -231l159 210q17 22 17 43q0 36 -57 36h-36l8 54h292l-7 -54q-47 -1 -78 -22t-76 -79l-200 -260l-43 -163q-14 -53 -14 -63q0 -17 15.5 -22t64.5 -5h25l-7 -54h-389l7 54h19q62 0 76 14q7 6 10 15.5 t17 60.5l43 163l-117 304q-13 34 -30.5 45.5t-54.5 11.5h-23zM309 854q0 29 21 50t51 21q29 0 50 -21t21 -50q0 -30 -21 -51t-51 -21q-29 0 -50 21.5t-21 50.5zM499 854q0 29 21 50t51 21q29 0 50 -21t21 -50q0 -30 -21 -51t-51 -21q-29 0 -50 21.5t-21 50.5z" />
<glyph unicode="&#x179;" horiz-adv-x="704" d="M-29 0l8 54l507 614h-79q-97 0 -164 -46t-126 -154l-49 10l66 244h581l-8 -54l-510 -614h91q108 0 181 51t132 168l51 -13l-70 -260h-611zM314 770l149 126q29 25 45.5 32.5t38.5 7.5q27 0 46 -13.5t19 -33.5q0 -25 -34 -39l-199 -80h-65z" />
<glyph unicode="&#x17a;" horiz-adv-x="519" d="M-19 19q0 36 66 112q76 86 177 140q22 12 41.5 21.5t25 12t15.5 8.5t17 11t27 18q-42 -14 -82 -14q-27 0 -90 10q-42 7 -56 7q-24 0 -35.5 -10.5t-28.5 -48.5l-42 15q62 178 198 178q53 0 134 -43q33 -18 44 -18q13 0 21 32q9 29 28 29q12 0 21 -10t9 -23 q0 -58 -113 -166q-35 -33 -65 -52t-119 -65q-28 -14 -64 -37q57 10 90 10q42 0 95 -15q47 -14 55 -14q37 0 66 62l44 -16q-25 -81 -77.5 -124.5t-123.5 -43.5q-40 0 -72 12t-101 52q-15 8 -21 8q-14 0 -14 -29q-2 -43 -38 -43q-13 0 -22.5 10t-9.5 24zM211 538l124 139 q26 28 39 36.5t31 8.5q23 0 38.5 -15t15.5 -37q0 -28 -28 -44l-166 -88h-54z" />
<glyph unicode="&#x17b;" horiz-adv-x="704" d="M-29 0l8 54l507 614h-79q-97 0 -164 -46t-126 -154l-49 10l66 244h581l-8 -54l-510 -614h91q108 0 181 51t132 168l51 -13l-70 -260h-611zM389 854q0 29 21 50t51 21q29 0 50 -21t21 -50q0 -30 -21 -51t-51 -21q-29 0 -50 21.5t-21 50.5z" />
<glyph unicode="&#x17c;" horiz-adv-x="519" d="M-19 19q0 36 66 112q76 86 177 140q22 12 41.5 21.5t25 12t15.5 8.5t17 11t27 18q-42 -14 -82 -14q-27 0 -90 10q-42 7 -56 7q-24 0 -35.5 -10.5t-28.5 -48.5l-42 15q62 178 198 178q53 0 134 -43q33 -18 44 -18q13 0 21 32q9 29 28 29q12 0 21 -10t9 -23 q0 -58 -113 -166q-35 -33 -65 -52t-119 -65q-28 -14 -64 -37q57 10 90 10q42 0 95 -15q47 -14 55 -14q37 0 66 62l44 -16q-25 -81 -77.5 -124.5t-123.5 -43.5q-40 0 -72 12t-101 52q-15 8 -21 8q-14 0 -14 -29q-2 -43 -38 -43q-13 0 -22.5 10t-9.5 24zM261 631q0 29 21 50 t51 21q29 0 50 -21t21 -50q0 -30 -21 -51t-51 -21q-29 0 -50 21.5t-21 50.5z" />
<glyph unicode="&#x17d;" horiz-adv-x="704" d="M-29 0l8 54l507 614h-79q-97 0 -164 -46t-126 -154l-49 10l66 244h581l-8 -54l-510 -614h91q108 0 181 51t132 168l51 -13l-70 -260h-611zM276 932h70l108 -78l152 78h80l-188 -157h-122z" />
<glyph unicode="&#x17e;" horiz-adv-x="519" d="M-19 19q0 36 66 112q76 86 177 140q22 12 41.5 21.5t25 12t15.5 8.5t17 11t27 18q-42 -14 -82 -14q-27 0 -90 10q-42 7 -56 7q-24 0 -35.5 -10.5t-28.5 -48.5l-42 15q62 178 198 178q53 0 134 -43q33 -18 44 -18q13 0 21 32q9 29 28 29q12 0 21 -10t9 -23 q0 -58 -113 -166q-35 -33 -65 -52t-119 -65q-28 -14 -64 -37q57 10 90 10q42 0 95 -15q47 -14 55 -14q37 0 66 62l44 -16q-25 -81 -77.5 -124.5t-123.5 -43.5q-40 0 -72 12t-101 52q-15 8 -21 8q-14 0 -14 -29q-2 -43 -38 -43q-13 0 -22.5 10t-9.5 24zM174 718h59l90 -88 l126 88h68l-157 -176h-102z" />
<glyph unicode="&#x17f;" horiz-adv-x="389" d="M-48 -205q43 67 117 338l64 270h-99l17 61h98q37 134 92 194q73 79 172 79q60 0 98.5 -31t38.5 -79q0 -34 -22 -56.5t-56 -22.5q-29 0 -48.5 19t-19.5 47q0 26 24 57l5 9q0 10 -22 10q-36 0 -57.5 -37.5t-48.5 -147.5q-15 -60 -40 -175t-31 -141q-46 -218 -101 -368z" />
<glyph unicode="&#x18e;" horiz-adv-x="741" d="M-80 0l66 248l58 11q-3 -97 46 -151t135 -54h36q41 0 56 12t23 45l63 236h-32q-46 0 -77.5 -23.5t-57.5 -73.5q-15 -27 -29 -62l-56 -7l89 335l57 7q-11 -68 7.5 -95t82.5 -27h31l59 219q8 29 1 38.5t-38 9.5h-38q-89 0 -145 -41t-116 -150h-52l91 245h615l-20 -54h-19 q-49 0 -67 -5t-27 -22q-6 -11 -21 -63l-127 -476q-8 -32 1.5 -40t54.5 -8h14l-21 -54h-643z" />
<glyph unicode="&#x192;" horiz-adv-x="574" d="M-27 -119q0 22 10 40t27.5 28.5t39.5 10.5q25 0 41 -14t16 -36q0 -31 -26 -60q0 -9 14 -9q39 0 55 63q10 38 21 109q24 146 61 376h-118l9 57h121q29 126 71 190q31 47 77 74t93 27q46 0 74.5 -24.5t28.5 -63.5q0 -34 -20 -55t-52 -21q-28 0 -45 15.5t-17 41.5 q0 19 20 43q4 6 4 12t-11 6q-24 0 -39 -25q-11 -19 -17.5 -43.5t-15.5 -85.5l-14 -91h137l-8 -57h-139q-6 -34 -57 -306q-28 -137 -91 -212t-149 -75q-45 0 -73 23.5t-28 61.5z" />
<glyph unicode="&#x1a0;" horiz-adv-x="833" d="M36 286q0 91 37.5 175t99.5 144t145 96t172 36q94 0 161 -41q17 11 26 26q-56 16 -56 71q0 26 19 42t46 16q36 0 60 -24.5t24 -57.5q0 -31 -19.5 -60.5t-52.5 -46.5q99 -99 99 -221q0 -186 -135 -321t-320 -135q-139 0 -222.5 82.5t-83.5 218.5zM215 193q0 -71 34 -112.5 t93 -41.5q108 0 191 157q37 72 58.5 159t21.5 165q0 76 -33.5 119.5t-92.5 43.5q-110 0 -187 -155q-37 -75 -61 -170t-24 -165z" />
<glyph unicode="&#x1a1;" horiz-adv-x="574" d="M10 187q0 119 93.5 205.5t220.5 86.5q81 0 144 -42q9 5 26.5 22t21.5 25q-56 16 -56 71q0 26 19 42t46 16q36 0 60 -24.5t24 -57.5t-32 -74t-70 -58q33 -47 33 -114q0 -127 -92 -213t-228 -86q-98 0 -154 55t-56 146zM165 108q0 -37 17 -58t47 -21q64 0 106 105 q21 52 35.5 116.5t14.5 103.5q0 35 -18 56.5t-47 21.5q-40 0 -77 -52.5t-57.5 -127.5t-20.5 -144z" />
<glyph unicode="&#x1af;" horiz-adv-x="833" d="M88 196q0 42 17 107l74 275q14 54 14 63q0 17 -15.5 22t-64.5 5h-18l7 54h376l-8 -54h-12q-62 0 -76 -14q-7 -6 -10.5 -15.5t-16.5 -60.5l-81 -304q-15 -55 -15 -88q0 -66 39.5 -102.5t110.5 -36.5q74 0 125 46.5t81 160.5l67 252q22 83 22 107q0 55 -90 55l7 54h186 l-9 -33q29 12 42 34q-56 16 -56 71q0 26 19 42t46 16q36 0 60 -24.5t24 -57.5q0 -50 -41.5 -86t-106.5 -44l-110 -413q-34 -126 -106.5 -184t-197.5 -58q-129 0 -206 58t-77 153z" />
<glyph unicode="&#x1b0;" horiz-adv-x="690" d="M38 95q-1 26 21 103l35 121q16 57 16 67q0 19 -12 25t-49 6h-10l7 61h253l-90 -304q-21 -50 -21 -79q0 -10 7.5 -17.5t17.5 -7.5q40 0 96 71.5t82 157.5l48 165h158l-11 -35q17 5 43.5 24t33.5 31q-56 16 -56 71q0 26 19 42t46 16q36 0 60 -24.5t24 -57.5q0 -50 -58 -97 t-126 -54l-68 -228q-16 -53 -16 -67q0 -5 4.5 -9.5t9.5 -4.5q13 0 40.5 30t58.5 79l38 -28q-59 -90 -107 -128t-105 -38q-97 0 -97 85q0 16 1 26q-49 -59 -92 -85t-91 -26q-49 0 -79.5 30t-30.5 79z" />
<glyph unicode="&#x1dd;" horiz-adv-x="519" d="M-5 107q0 104 170 153q66 20 149 24q2 26 2 44q0 43 -23 67.5t-63 24.5q-39 0 -73 -18t-79 -63l-35 35q93 105 228 105q99 0 151.5 -47.5t52.5 -137.5q0 -123 -95 -215.5t-221 -92.5q-70 0 -117 34.5t-47 86.5zM117 80q0 -22 12 -34.5t32 -12.5q47 0 87 56.5t57 147.5 q-43 -6 -70 -16q-51 -19 -84.5 -59.5t-33.5 -81.5z" />
<glyph unicode="&#x1e6;" horiz-adv-x="815" d="M34 284q0 120 61.5 225t165.5 166.5t224 61.5q62 0 103 -18t82 -62l60 58h45l-57 -283l-51 7q-2 114 -44.5 179t-124.5 65q-119 0 -200 -152q-34 -63 -55 -147.5t-21 -154.5q0 -89 36 -140.5t105 -51.5q47 0 85 31t56 84q24 72 24 103q0 17 -14 22t-63 5h-28l7 54h372 l-7 -54h-20q-15 0 -25 -1t-18 -1.5t-13.5 -5.5t-9 -7t-7.5 -12l-6 -15t-6.5 -22t-7.5 -26l-55 -206h-48l-19 95q-80 -96 -213 -96q-131 0 -222 80t-91 219zM364 932h70l108 -78l152 78h80l-188 -157h-122z" />
<glyph unicode="&#x1e7;" horiz-adv-x="611" d="M-66 -91q0 74 126 97q-34 18 -47 36t-13 44q0 82 120 120q-51 42 -51 98q0 77 63.5 126t163.5 49q55 0 103 -16q70 70 131 70q32 0 52 -18.5t20 -48.5q0 -25 -15 -41.5t-38 -16.5q-34 0 -50 43q-7 17 -17 17q-16 0 -34 -24q79 -46 79 -130q0 -68 -59.5 -112.5 t-150.5 -44.5q-47 0 -117 10q-23 3 -34 3q-20 0 -33.5 -9t-13.5 -22q0 -30 49 -34q139 -14 178 -22q55 -13 79.5 -41t24.5 -77q0 -81 -71.5 -124t-206.5 -43q-113 0 -175.5 29t-62.5 82zM57 -85q0 -70 120 -70q152 0 152 70q0 34 -44 45q-52 13 -144 13q-84 0 -84 -58z M178 718h59l90 -88l126 88h68l-157 -176h-102zM222 277q0 -34 17.5 -53t47.5 -19q43 0 66 48q26 52 26 108q0 31 -17.5 51t-44.5 20q-45 0 -70 -49.5t-25 -105.5z" />
<glyph unicode="&#x1ea;" horiz-adv-x="833" d="M36 286q0 91 37.5 175t99.5 144t145 96t172 36q130 0 218.5 -85.5t88.5 -210.5q0 -160 -103 -286t-258 -160q-29 -7 -49 -33t-20 -56q0 -20 11.5 -33t28.5 -13q42 0 70 23l28 -36q-22 -33 -57.5 -52t-72.5 -19q-42 0 -72 28t-30 74q0 58 59 107q-134 3 -215 85t-81 216z M215 193q0 -71 34 -112.5t93 -41.5q108 0 191 157q37 71 58.5 158t21.5 166q0 76 -33.5 119.5t-92.5 43.5q-110 0 -187 -155q-37 -75 -61 -170t-24 -165z" />
<glyph unicode="&#x1eb;" horiz-adv-x="574" d="M10 187q0 119 93.5 205.5t220.5 86.5q98 0 160 -54q56 -48 56 -140q0 -104 -64.5 -183t-167.5 -105q-30 -7 -50.5 -34t-20.5 -57q0 -20 11.5 -33t28.5 -13q42 0 70 23l28 -36q-22 -33 -57.5 -52t-72.5 -19q-42 0 -72 28t-30 74q0 59 61 108q-89 5 -141.5 59t-52.5 142z M165 108q0 -37 17 -58t47 -21q65 0 106 105q21 52 35.5 116.5t14.5 103.5q0 35 -18 56.5t-47 21.5q-64 0 -110 -110q-19 -47 -32 -108t-13 -106z" />
<glyph unicode="&#x1f4;" horiz-adv-x="815" d="M34 284q0 120 61.5 225t165.5 166.5t224 61.5q62 0 103 -18t82 -62l60 58h45l-57 -283l-51 7q-2 114 -44.5 179t-124.5 65q-119 0 -200 -152q-34 -63 -55 -147.5t-21 -154.5q0 -89 36 -140.5t105 -51.5q47 0 85 31t56 84q24 72 24 103q0 17 -14 22t-63 5h-28l7 54h372 l-7 -54h-20q-15 0 -25 -1t-18 -1.5t-13.5 -5.5t-9 -7t-7.5 -12l-6 -15t-6.5 -22t-7.5 -26l-55 -206h-48l-19 95q-80 -96 -213 -96q-131 0 -222 80t-91 219zM402 770l149 126q29 25 45.5 32.5t38.5 7.5q27 0 46 -13.5t19 -33.5q0 -25 -34 -39l-199 -80h-65z" />
<glyph unicode="&#x1f5;" horiz-adv-x="611" d="M-66 -91q0 74 126 97q-34 18 -47 36t-13 44q0 82 120 120q-51 42 -51 98q0 77 63.5 126t163.5 49q55 0 103 -16q70 70 131 70q32 0 52 -18.5t20 -48.5q0 -25 -15 -41.5t-38 -16.5q-34 0 -50 43q-7 17 -17 17q-16 0 -34 -24q79 -46 79 -130q0 -68 -59.5 -112.5 t-150.5 -44.5q-47 0 -117 10q-23 3 -34 3q-20 0 -33.5 -9t-13.5 -22q0 -30 49 -34q139 -14 178 -22q55 -13 79.5 -41t24.5 -77q0 -81 -71.5 -124t-206.5 -43q-113 0 -175.5 29t-62.5 82zM57 -85q0 -70 120 -70q152 0 152 70q0 34 -44 45q-52 13 -144 13q-84 0 -84 -58z M215 538l124 139q26 28 39 36.5t31 8.5q23 0 38.5 -15t15.5 -37q0 -28 -28 -44l-166 -88h-54zM222 277q0 -34 17.5 -53t47.5 -19q43 0 66 48q26 52 26 108q0 31 -17.5 51t-44.5 20q-45 0 -70 -49.5t-25 -105.5z" />
<glyph unicode="&#x1fa;" horiz-adv-x="741" d="M-75 0l7 54h16q62 0 123 103l348 579h62l131 -622q8 -35 26 -47.5t64 -12.5h14l-7 -54h-374l7 54h16q50 0 66 8q17 7 17 23q0 13 -4 32l-20 103h-232l-46 -81q-14 -23 -14 -43q0 -23 15 -32.5t56 -9.5h23l-8 -54h-286zM217 274h187l-46 241zM377 869q0 44 32 75.5 t76 31.5t75.5 -31.5t31.5 -75.5q0 -45 -31.5 -76.5t-77.5 -31.5q-43 0 -74.5 32t-31.5 76zM395 996l149 126q29 25 45.5 32.5t38.5 7.5q27 0 46 -13.5t19 -33.5q0 -25 -34 -39l-199 -80h-65zM431 868q0 -21 15.5 -37t37.5 -16t38 15.5t16 38.5q0 22 -15.5 37.5t-37.5 15.5 q-23 0 -38.5 -16t-15.5 -38z" />
<glyph unicode="&#x1fb;" horiz-adv-x="667" d="M15 167q0 121 87.5 216.5t198.5 95.5q89 0 125 -63l14 48h157l-98 -332q-10 -39 -10 -46q0 -6 4.5 -11t9.5 -5q13 0 44.5 34t59.5 78l39 -25q-46 -78 -102 -125t-108 -47q-41 0 -63 24t-22 64q-36 -47 -73.5 -67t-89.5 -20q-76 0 -124.5 51t-48.5 130zM178 135 q0 -36 16.5 -57.5t44.5 -21.5q39 0 76.5 53t58.5 121t21 121q0 32 -17 52.5t-45 20.5q-58 0 -106.5 -98.5t-48.5 -190.5zM279 626q0 44 32 75.5t76 31.5t75.5 -31.5t31.5 -75.5q0 -45 -31.5 -76.5t-77.5 -31.5q-43 0 -74.5 32t-31.5 76zM297 753l149 126q29 25 45.5 32.5 t38.5 7.5q27 0 46 -13.5t19 -33.5q0 -25 -34 -39l-199 -80h-65zM333 625q0 -21 15.5 -37t37.5 -16t38 16t16 38t-15.5 37.5t-37.5 15.5q-23 0 -38.5 -15.5t-15.5 -38.5z" />
<glyph unicode="&#x1fc;" horiz-adv-x="889" d="M-81 0l7 54q21 4 33 16t38 52l294 450q20 30 20 52q0 20 -19.5 32t-52.5 12h-31l7 54h688l-40 -245h-49q0 91 -18 127q-32 64 -120 64h-11q-26 0 -38 -10t-19 -38l-58 -219h39q45 0 71.5 28t51.5 94l47 -7l-90 -335l-47 7q6 35 6 62q0 97 -61 97h-32l-63 -236 q-5 -20 -5 -32q0 -25 47 -25h12q79 0 155 56.5t120 148.5l49 -11l-66 -248h-594l8 54h24q29 0 38.5 3t17.5 11q10 11 27 76l34 127h-171l-91 -145q-12 -19 -12 -34q0 -37 80 -38l-7 -54h-219zM205 325h148l89 332l1 4q0 6 -9 6q-7 0 -13 -9zM437 770l149 126 q29 25 45.5 32.5t38.5 7.5q27 0 46 -13.5t19 -33.5q0 -25 -34 -39l-199 -80h-65z" />
<glyph unicode="&#x1fd;" horiz-adv-x="815" d="M-19 90q0 71 76 110.5t267 63.5q17 65 17 96q0 33 -26 52.5t-70 19.5q-51 0 -51 -17q0 -4 14.5 -28t14.5 -33q0 -27 -22 -45.5t-55 -18.5t-55.5 22t-22.5 54q0 50 48 81.5t125 31.5q65 0 106.5 -16t73.5 -53q38 32 90 50.5t103 18.5q67 0 113.5 -35t46.5 -86 q0 -70 -83.5 -119.5t-234.5 -57.5q-3 -23 -3 -45q0 -43 23 -67.5t63 -24.5q39 0 74 18.5t78 63.5l35 -35q-94 -106 -231 -106q-143 0 -176 113q-65 -113 -201 -113q-65 0 -101 28t-36 77zM139 109q0 -23 14.5 -38t36.5 -15q50 0 87 57q14 23 34 101q-83 -8 -127.5 -35 t-44.5 -70zM455 538l124 139q26 28 39 36.5t31 8.5q23 0 38.5 -15t15.5 -37q0 -28 -28 -44l-166 -88h-54zM464 228q78 11 133 55t55 102q0 22 -11.5 34.5t-31.5 12.5q-47 0 -87 -56t-58 -148z" />
<glyph unicode="&#x1fe;" horiz-adv-x="833" d="M17 -83l114 140q-95 83 -95 229q0 120 61 224.5t164.5 165.5t223.5 61q96 0 167 -40l61 76h65l-86 -106q105 -91 105 -226q0 -121 -61.5 -226.5t-166.5 -167.5t-225 -62q-104 0 -172 42l-90 -110h-65zM215 197q0 -10 2 -34l374 460q-34 59 -104 59q-109 0 -187 -154 q-36 -75 -60.5 -169t-24.5 -162zM234 104q34 -64 107 -64q109 0 192 157q36 69 58 156t22 161q0 19 -3 52zM499 770l149 126q29 25 45.5 32.5t38.5 7.5q27 0 46 -13.5t19 -33.5q0 -25 -34 -39l-199 -80h-65z" />
<glyph unicode="&#x1ff;" horiz-adv-x="574" d="M10 187q0 116 92.5 203.5t216.5 87.5q30 0 69 -7l55 96l-55 -29h-54l124 139q26 28 39 36.5t31 8.5q23 0 38.5 -15t15.5 -37q0 -28 -28 -44l-91 -48h40l-70 -121q107 -47 107 -172q0 -127 -92 -213t-227 -86q-27 0 -54 4l-67 -116h-54l74 130q-53 23 -81.5 71t-28.5 112z M165 108q0 -2 2 -22l191 333q-18 12 -39 12q-34 0 -64.5 -35t-49 -87t-29.5 -105.5t-11 -95.5zM194 38q15 -9 34 -9q67 0 107 104q21 52 35.5 116.5t14.5 103.5q0 8 -1 17z" />
<glyph unicode="&#x200;" horiz-adv-x="741" d="M-75 0l7 54h16q62 0 123 103l348 579h62l131 -622q8 -35 26 -47.5t64 -12.5h14l-7 -54h-374l7 54h16q50 0 66 8q17 7 17 23q0 13 -4 32l-20 103h-232l-46 -81q-14 -23 -14 -43q0 -23 15 -32.5t56 -9.5h23l-8 -54h-286zM217 274h187l-46 241zM225 905q12 22 36 37t46 15 q18 0 26 -7.5t21 -37.5l58 -122h-54l-128 71q-21 11 -5 44zM416 905q12 22 36 37t46 15q18 0 26 -7.5t21 -37.5l58 -122h-54l-128 71q-21 11 -5 44z" />
<glyph unicode="&#x201;" horiz-adv-x="667" d="M15 167q0 121 87.5 216.5t198.5 95.5q89 0 125 -63l14 48h157l-98 -332q-10 -39 -10 -46q0 -6 4.5 -11t9.5 -5q13 0 44.5 34t59.5 78l39 -25q-46 -78 -102 -125t-108 -47q-41 0 -63 24t-22 64q-36 -47 -73.5 -67t-89.5 -20q-76 0 -124.5 51t-48.5 130zM127 662 q12 22 36 37t46 15q18 0 26 -7.5t21 -37.5l58 -122h-54l-128 71q-21 11 -5 44zM178 135q0 -36 16.5 -57.5t44.5 -21.5q39 0 76.5 53t58.5 121t21 121q0 32 -17 52.5t-45 20.5q-58 0 -106.5 -98.5t-48.5 -190.5zM318 662q12 22 36 37t46 15q18 0 26 -7.5t21 -37.5l58 -122 h-54l-128 71q-21 11 -5 44z" />
<glyph unicode="&#x204;" horiz-adv-x="741" d="M-41 0l7 54h14q45 0 59.5 8.5t22.5 39.5l128 476q13 51 13 63q0 17 -15 22t-64 5h-19l8 54h615l-40 -245h-52q-2 109 -35.5 150t-122.5 41h-38q-31 0 -43.5 -9.5t-19.5 -38.5l-59 -219h31q64 0 97 27t59 95l53 -7l-90 -335l-53 7q5 37 5 62q0 50 -19 73.5t-65 23.5h-32 l-63 -236q-7 -24 -6 -32q0 -25 54 -25h36q86 0 164 54t127 151l52 -11l-66 -248h-643zM200 905q12 22 36 37t46 15q18 0 26 -7.5t21 -37.5l58 -122h-54l-128 71q-21 11 -5 44zM391 905q12 22 36 37t46 15q18 0 26 -7.5t21 -37.5l58 -122h-54l-128 71q-21 11 -5 44z" />
<glyph unicode="&#x205;" horiz-adv-x="519" d="M-2 171q0 123 95 215.5t221 92.5q70 0 117 -34.5t47 -86.5q0 -104 -170 -153q-66 -20 -149 -24q-2 -26 -2 -44q0 -43 23 -67.5t63 -24.5q39 0 73 18t79 63l35 -35q-93 -105 -228 -105q-99 0 -151.5 47.5t-52.5 137.5zM103 662q12 22 36 37t46 15q18 0 26 -7.5t21 -37.5 l58 -122h-54l-128 71q-21 11 -5 44zM168 228q43 6 70 16q51 19 84.5 59.5t33.5 81.5q0 22 -12 34.5t-32 12.5q-47 0 -87 -56.5t-57 -147.5zM294 662q12 22 36 37t46 15q18 0 26 -7.5t21 -37.5l58 -122h-54l-128 71q-21 11 -5 44z" />
<glyph unicode="&#x208;" horiz-adv-x="444" d="M-41 0l7 54h20q49 0 63 14q7 6 10 15.5t17 60.5l116 434q14 48 14 63q0 17 -15 22t-64 5h-22l8 54h373l-7 -54h-21q-48 0 -62 -14q-7 -5 -10.5 -14.5t-16.5 -61.5l-116 -434q-14 -55 -14 -63q0 -17 15 -22t64 -5h22l-8 -54h-373zM98 905q12 22 36 37t46 15q18 0 26 -7.5 t21 -37.5l58 -122h-54l-128 71q-21 11 -5 44zM289 905q12 22 36 37t46 15q18 0 26 -7.5t21 -37.5l58 -122h-54l-128 71q-21 11 -5 44z" />
<glyph unicode="&#x209;" horiz-adv-x="389" d="M8 662q12 22 36 37t46 15q18 0 26 -7.5t21 -37.5l58 -122h-54l-128 71q-21 11 -5 44zM38 417l7 47l267 14l-105 -356q-10 -34 -10 -42q0 -16 16 -16q30 0 101 113l39 -28q-51 -86 -100.5 -125t-106.5 -39q-45 0 -74.5 25.5t-29.5 64.5q0 23 15 74l51 170q15 50 15 67 q0 19 -12 25t-49 6h-24zM199 662q12 22 36 37t46 15q18 0 26 -7.5t21 -37.5l58 -122h-54l-128 71q-21 11 -5 44z" />
<glyph unicode="&#x20c;" horiz-adv-x="833" d="M36 286q0 91 37.5 175t99.5 144t145 96t172 36q130 0 218.5 -85.5t88.5 -210.5q0 -186 -135 -321t-320 -135q-139 0 -222.5 82.5t-83.5 218.5zM215 193q0 -71 34 -112.5t93 -41.5q108 0 191 157q37 71 58.5 158t21.5 166q0 76 -33.5 119.5t-92.5 43.5q-110 0 -187 -155 q-37 -75 -61 -170t-24 -165zM292 905q12 22 36 37t46 15q18 0 26 -7.5t21 -37.5l58 -122h-54l-128 71q-21 11 -5 44zM483 905q12 22 36 37t46 15q18 0 26 -7.5t21 -37.5l58 -122h-54l-128 71q-21 11 -5 44z" />
<glyph unicode="&#x20d;" horiz-adv-x="574" d="M10 187q0 119 93.5 205.5t220.5 86.5q98 0 160 -54q56 -48 56 -140q0 -127 -92 -213t-228 -86q-96 0 -150 51q-28 25 -44 65.5t-16 84.5zM117 662q12 22 36 37t46 15q18 0 26 -7.5t21 -37.5l58 -122h-54l-128 71q-21 11 -5 44zM165 108q0 -37 17 -58t47 -21q65 0 106 105 q21 52 35.5 116.5t14.5 103.5q0 35 -18 56.5t-47 21.5q-64 0 -110 -110q-19 -47 -32 -108t-13 -106zM308 662q12 22 36 37t46 15q18 0 26 -7.5t21 -37.5l58 -122h-54l-128 71q-21 11 -5 44z" />
<glyph unicode="&#x210;" horiz-adv-x="796" d="M-41 0l7 54h20q46 0 60 14q7 6 10 15.5t17 60.5l116 434q14 51 14 63q0 17 -14.5 22t-62.5 5h-21l7 54h347q152 0 222 -38t70 -129q0 -173 -287 -196q73 -20 106 -61.5t33 -116.5v-34q0 -50 1 -59t6 -16q8 -11 18 -11q36 0 71 96l43 -21q-50 -151 -175 -151 q-63 0 -103 40t-40 102q0 16 6 69t6 73q0 81 -92 81h-40l-55 -206q-13 -46 -13 -63t15 -22t64 -5h26l-8 -54h-374zM238 905q12 22 36 37t46 15q18 0 26 -7.5t21 -37.5l58 -122h-54l-128 71q-21 11 -5 44zM319 404h34q68 0 96 6t53 25q65 49 65 135q0 47 -28 72.5t-80 25.5 h-25q-27 0 -37.5 -7.5t-16.5 -30.5zM429 905q12 22 36 37t46 15q18 0 26 -7.5t21 -37.5l58 -122h-54l-128 71q-21 11 -5 44z" />
<glyph unicode="&#x211;" horiz-adv-x="519" d="M3 0l95 319q15 50 15 67q0 19 -12 25t-49 6h-24l7 47l250 14l-31 -127q46 70 86.5 99t90.5 29q42 0 67.5 -24t25.5 -64q0 -35 -21.5 -59t-53.5 -24q-24 0 -43 13.5t-24 35.5q-3 12 -3 31q0 13 -10 13q-14 0 -40 -26q-37 -35 -71.5 -99.5t-55.5 -136.5l-42 -139h-157z M72 662q12 22 36 37t46 15q18 0 26 -7.5t21 -37.5l58 -122h-54l-128 71q-21 11 -5 44zM263 662q12 22 36 37t46 15q18 0 26 -7.5t21 -37.5l58 -122h-54l-128 71q-21 11 -5 44z" />
<glyph unicode="&#x214;" horiz-adv-x="833" d="M88 196q0 42 17 107l74 275q14 54 14 63q0 17 -13.5 22t-61.5 5h-23l7 54h376l-8 -54h-22q-52 0 -66 -14q-7 -6 -10.5 -15.5t-16.5 -60.5l-81 -304q-15 -55 -15 -88q0 -66 39.5 -102.5t110.5 -36.5q74 0 125 46.5t81 160.5l67 252q22 83 22 107q0 55 -90 55l7 54h274 l-7 -54q-48 0 -78 -27q-21 -19 -29.5 -38.5t-31.5 -96.5l-74 -279q-34 -126 -106.5 -184t-197.5 -58q-129 0 -206 58t-77 153zM291 905q12 22 36 37t46 15q18 0 26 -7.5t21 -37.5l58 -122h-54l-128 71q-21 11 -5 44zM482 905q12 22 36 37t46 15q18 0 26 -7.5t21 -37.5 l58 -122h-54l-128 71q-21 11 -5 44z" />
<glyph unicode="&#x215;" horiz-adv-x="685" d="M38 95q0 34 21 103l35 121q16 52 16 67q0 19 -12 25t-49 6h-10l7 47l253 14l-90 -304q-3 -7 -9.5 -31.5t-9.5 -33.5q-2 -12 -2 -14q0 -10 7.5 -17.5t17.5 -7.5q19 0 51 25.5t59 63.5q43 59 68 140l48 165h158l-93 -312q-16 -56 -16 -67q0 -5 4.5 -9.5t9.5 -4.5 q13 0 40.5 30t58.5 79l38 -28q-59 -90 -107 -128t-105 -38q-97 0 -97 85q0 16 1 26q-49 -59 -92 -85t-91 -26q-49 0 -79.5 30t-30.5 79zM150 662q12 22 36 37t46 15q18 0 26 -7.5t21 -37.5l58 -122h-54l-128 71q-21 11 -5 44zM341 662q12 22 36 37t46 15q18 0 26 -7.5 t21 -37.5l58 -122h-54l-128 71q-21 11 -5 44z" />
<glyph unicode="&#x218;" horiz-adv-x="685" d="M1 0l50 283l52 -8l-1 -30q1 -90 60 -148t155 -58q70 0 113.5 31.5t43.5 81.5q0 44 -35 71.5t-136 61.5q-62 21 -91.5 36t-53.5 38q-56 53 -56 136q0 104 76 173t190 69q113 0 200 -76l53 54h45l-44 -263l-52 9q-4 109 -54 165.5t-136 56.5q-65 0 -104 -29.5t-39 -78.5 q0 -39 22.5 -64t89.5 -47q149 -49 206 -96.5t57 -143.5q0 -106 -81 -172.5t-211 -66.5q-67 0 -117 18.5t-100 61.5l-58 -65h-44zM117 -334q123 55 123 123q-20 -2 -24 -2q-33 0 -51.5 18.5t-18.5 52.5q0 36 24 59t61 23q42 0 68 -29t26 -75q0 -133 -189 -207z" />
<glyph unicode="&#x219;" horiz-adv-x="481" d="M2 101q0 32 19.5 52t50.5 20q20 0 36 -8t25.5 -23t9.5 -33q0 -14 -5 -23.5t-21 -22.5q-5 -5 -5 -9q0 -11 18 -18.5t45 -7.5q41 0 68 19.5t27 49.5q0 20 -13.5 34t-44.5 27q-34 14 -51 22t-41 23t-35.5 29.5t-20 37t-8.5 50.5q0 73 54.5 116t147.5 43q79 0 129 -31.5 t50 -80.5q0 -31 -19 -50.5t-50 -19.5q-30 0 -49.5 17.5t-19.5 43.5q0 19 18 41q6 7 6 12q0 8 -17 14.5t-39 6.5q-39 0 -64 -17t-25 -44q0 -20 17 -35t61 -34q34 -15 55 -26.5t43.5 -30t33.5 -42.5t11 -54q0 -74 -60.5 -119t-158.5 -45q-79 0 -128.5 32t-49.5 84zM27 -334 q123 55 123 123q-20 -2 -24 -2q-33 0 -51.5 18.5t-18.5 52.5q0 36 24 59t61 23q42 0 68 -29t26 -75q0 -65 -48.5 -118t-140.5 -89z" />
<glyph unicode="&#x21a;" horiz-adv-x="722" d="M44 455l71 267h647l-44 -283l-53 5q3 34 3 60q0 79 -30.5 121.5t-87.5 42.5q-22 0 -28.5 -6.5t-14.5 -38.5l-128 -479q-14 -51 -14 -63q0 -17 15.5 -22t64.5 -5h25l-7 -54h-397l7 54h27q62 0 76 14q7 6 10.5 15.5t16.5 60.5l130 485q4 13 4 24q0 15 -28 15 q-64 0 -113.5 -53t-101.5 -176zM122 -334q123 55 123 123q-20 -2 -24 -2q-33 0 -51.5 18.5t-18.5 52.5q0 36 24 59t61 23q42 0 68 -29t26 -75q0 -133 -189 -207z" />
<glyph unicode="&#x21b;" horiz-adv-x="407" d="M-7 -334q123 55 123 123q-20 -2 -24 -2q-33 0 -51.5 18.5t-18.5 52.5q0 36 24 59t61 23q42 0 68 -29t26 -75q0 -133 -189 -207zM24 69q0 20 25 114l65 220h-87l18 61h87l56 186h157l-55 -186h114l-18 -61h-114l-70 -236q-21 -72 -21 -83q0 -7 4.5 -12.5t10.5 -5.5 q15 0 45.5 34t58.5 83l37 -27q-40 -62 -68 -92q-73 -78 -150 -78q-40 0 -67.5 24t-27.5 59z" />
<glyph unicode="&#x258;" horiz-adv-x="519" d="M-33 91l54 35q20 -45 44.5 -63t63.5 -18q40 0 76.5 24.5t58.5 67.5q8 14 22 44q-81 4 -136 24q-144 50 -88 153q28 52 93.5 86.5t135.5 34.5q126 0 171.5 -92.5t-20.5 -215.5q-49 -90 -126.5 -137.5t-176.5 -47.5q-135 0 -172 105zM198 385q-22 -41 -9.5 -81.5 t52.5 -59.5q22 -9 61 -16q32 92 22.5 148t-56.5 56q-44 0 -70 -47z" />
<glyph unicode="&#x259;" horiz-adv-x="519" d="M-5 107q0 104 170 153q66 20 149 24q2 26 2 44q0 43 -23 67.5t-63 24.5q-39 0 -73 -18t-79 -63l-35 35q93 105 228 105q99 0 151.5 -47.5t52.5 -137.5q0 -123 -95 -215.5t-221 -92.5q-70 0 -117 34.5t-47 86.5zM117 80q0 -22 12 -34.5t32 -12.5q47 0 87 56.5t57 147.5 q-43 -6 -70 -16q-51 -19 -84.5 -59.5t-33.5 -81.5z" />
<glyph unicode="&#x2be;" horiz-adv-x="413" d="M77 455q0 33 19 52.5t49 19.5q26 0 42 -15t16 -39q0 -30 -31 -49l-1 -1q-1 -1 -2 -1q2 -11 23 -11q42 0 70 63.5t28 120.5q0 25 -13.5 40.5t-35.5 15.5q-43 0 -96 -62q-6 -9 -12 -3l-24 21q-2 1 -1.5 4.5t2.5 5.5q72 91 162 91q66 0 105.5 -35t39.5 -94 q-1 -88 -66 -151.5t-154 -63.5q-54 0 -87 25t-33 66z" />
<glyph unicode="&#x2bf;" horiz-adv-x="413" d="M83 493q0 88 65 151.5t154 63.5q54 0 87 -25t33 -66q0 -33 -19 -52.5t-49 -19.5q-26 0 -42 15t-16 39q0 30 31 49q1 0 1 1l2 1q-2 11 -22 11q-29 0 -53 -33.5t-35 -74.5t-11 -76q0 -25 13.5 -40.5t35.5 -15.5q43 0 96 62q6 9 12 3l24 -21q4 -5 -1 -10q-72 -91 -162 -91 q-66 0 -105.5 35t-38.5 94z" />
<glyph unicode="&#x2c6;" d="M141 543l157 174h101l84 -174h-59l-90 86l-126 -86h-67z" />
<glyph unicode="&#x2c7;" d="M177 718h59l90 -88l126 88h68l-157 -176h-102z" />
<glyph unicode="&#x2d8;" d="M174 683q0 3 2 29h46q4 -45 27.5 -65t73.5 -20q47 0 82 23.5t45 61.5h47q-5 -57 -42 -102q-52 -62 -142 -62q-66 0 -102.5 35.5t-36.5 99.5z" />
<glyph unicode="&#x2d9;" d="M264 631q0 29 21 50t51 21q29 0 50 -21t21 -50q0 -30 -21 -51t-51 -21q-29 0 -50 21.5t-21 50.5z" />
<glyph unicode="&#x2da;" d="M228 631q0 44 32 75.5t76 31.5t75.5 -31.5t31.5 -75.5q0 -45 -31.5 -76.5t-77.5 -31.5q-43 0 -74.5 32t-31.5 76zM282 630q0 -21 15.5 -37t37.5 -16q23 0 38.5 15.5t15.5 38.5q0 22 -15.5 37.5t-37.5 15.5t-38 -16t-16 -38z" />
<glyph unicode="&#x2db;" d="M43 -122q0 68 85 126h67q-22 -17 -40 -44.5t-18 -53.5q0 -20 11.5 -33t28.5 -13q42 0 70 23l28 -36q-22 -33 -57.5 -52t-72.5 -19q-42 0 -72 28t-30 74z" />
<glyph unicode="&#x2dc;" d="M150 567q4 55 39 90.5t85 35.5q31 0 79 -19q53 -21 70 -21q38 0 50 40h47q-2 -50 -39.5 -88t-84.5 -38q-30 0 -85 21q-53 21 -72 21q-34 0 -42 -42h-47z" />
<glyph unicode="&#x2dd;" d="M174 547l123 122q30 30 41.5 37.5t29.5 7.5q23 0 38.5 -15t15.5 -37q0 -14 -8 -26.5t-20 -17.5l-166 -71h-54zM365 547l123 122q30 30 41.5 37.5t29.5 7.5q23 0 38.5 -15t15.5 -37q0 -14 -8 -26.5t-20 -17.5l-166 -71h-54z" />
<glyph unicode="&#x300;" horiz-adv-x="0" d="M-270 670q12 22 36 37t46 15q18 0 26.5 -8.5t19.5 -36.5l50 -139h-54l-119 88q-20 15 -5 44z" />
<glyph unicode="&#x301;" horiz-adv-x="0" d="M-286 538l124 139q26 28 39 36.5t31 8.5q23 0 38.5 -15t15.5 -37q0 -28 -28 -44l-166 -88h-54z" />
<glyph unicode="&#x302;" horiz-adv-x="0" d="M-359 543l157 174h101l84 -174h-59l-90 86l-126 -86h-67z" />
<glyph unicode="&#x303;" horiz-adv-x="0" d="M-350 567q4 55 39 90.5t85 35.5q31 0 79 -19q53 -21 70 -21q38 0 50 40h47q-2 -50 -39.5 -88t-84.5 -38q-30 0 -85 21q-53 21 -72 21q-34 0 -42 -42h-47z" />
<glyph unicode="&#x304;" horiz-adv-x="0" d="M-342 592l21 76h334l-21 -76h-334z" />
<glyph unicode="&#x306;" horiz-adv-x="0" d="M-326 683q0 3 2 29h46q4 -45 27.5 -65t73.5 -20q47 0 82 23.5t45 61.5h47q-5 -57 -42 -102q-52 -62 -142 -62q-66 0 -102.5 35.5t-36.5 99.5z" />
<glyph unicode="&#x307;" horiz-adv-x="0" d="M-236 631q0 29 21 50t51 21q29 0 50 -21t21 -50q0 -30 -21 -51t-51 -21q-29 0 -50 21.5t-21 50.5z" />
<glyph unicode="&#x308;" horiz-adv-x="0" d="M-331 631q0 29 21 50t51 21q29 0 50 -21t21 -50q0 -30 -21 -51t-51 -21q-29 0 -50 21.5t-21 50.5zM-141 631q0 29 21 50t51 21q29 0 50 -21t21 -50q0 -30 -21 -51t-51 -21q-29 0 -50 21.5t-21 50.5z" />
<glyph unicode="&#x309;" horiz-adv-x="0" d="M-267 660q0 32 40 54t93 22q43 0 66.5 -18t23.5 -41q0 -28 -16 -47t-72 -51q-27 -16 -35 -24.5t-14 -29.5h-34q1 25 8.5 37.5t44.5 50.5q33 35 33 63q0 27 -34 27q-23 0 -23 -5q17 -14 17 -26q0 -19 -17.5 -32t-39.5 -13q-19 0 -30 9t-11 24z" />
<glyph unicode="&#x30a;" horiz-adv-x="0" d="M-272 631q0 44 32 75.5t76 31.5t75.5 -31.5t31.5 -75.5q0 -45 -31.5 -76.5t-77.5 -31.5q-43 0 -74.5 32t-31.5 76zM-218 630q0 -21 15.5 -37t37.5 -16q23 0 38.5 15.5t15.5 38.5q0 22 -15.5 37.5t-37.5 15.5t-38 -16t-16 -38z" />
<glyph unicode="&#x30b;" horiz-adv-x="0" d="M-326 547l123 122q30 30 41.5 37.5t29.5 7.5q23 0 38.5 -15t15.5 -37q0 -14 -8 -26.5t-20 -17.5l-166 -71h-54zM-135 547l123 122q30 30 41.5 37.5t29.5 7.5q23 0 38.5 -15t15.5 -37q0 -14 -8 -26.5t-20 -17.5l-166 -71h-54z" />
<glyph unicode="&#x30c;" horiz-adv-x="0" d="M-323 718h59l90 -88l126 88h68l-157 -176h-102z" />
<glyph unicode="&#x30f;" horiz-adv-x="0" d="M-426 662q12 22 36 37t46 15q18 0 26 -7.5t21 -37.5l58 -122h-54l-128 71q-21 11 -5 44zM-235 662q12 22 36 37t46 15q18 0 26 -7.5t21 -37.5l58 -122h-54l-128 71q-21 11 -5 44z" />
<glyph unicode="&#x311;" horiz-adv-x="0" d="M-365 548q5 57 42 102q52 62 142 62q66 0 102.5 -35.5t36.5 -99.5q0 -3 -2 -29h-46q-4 45 -27.5 65t-73.5 20q-47 0 -82 -23.5t-45 -61.5h-47z" />
<glyph unicode="&#x323;" horiz-adv-x="0" d="M-445 -150q0 29 21 50t51 21q29 0 50 -21t21 -50q0 -30 -21 -51t-51 -21q-29 0 -50 21.5t-21 50.5z" />
<glyph unicode="&#x326;" horiz-adv-x="0" d="M-599 -334q123 55 123 123q-20 -2 -24 -2q-33 0 -51.5 18.5t-18.5 52.5q0 36 24 59t61 23q42 0 68 -29t26 -75q0 -133 -189 -207z" />
<glyph unicode="&#x32e;" horiz-adv-x="0" d="M-559 -77h56q5 -41 33.5 -59t87.5 -18q56 0 98.5 21.5t53.5 55.5h57q-6 -52 -51 -92q-62 -56 -170 -56q-89 0 -133 41t-32 107z" />
<glyph unicode="&#x32f;" horiz-adv-x="0" d="M-597 -225q6 52 51 92q62 56 170 56q89 0 133 -41t32 -107h-56q-5 41 -33.5 59t-87.5 18q-56 0 -98.5 -21.5t-53.5 -55.5h-57z" />
<glyph unicode="&#x330;" horiz-adv-x="0" d="M-559 -214q4 55 39 90.5t85 35.5q31 0 79 -19q53 -21 70 -21q38 0 50 40h47q-2 -50 -39.5 -88t-84.5 -38q-30 0 -85 21q-53 21 -72 21q-34 0 -42 -42h-47z" />
<glyph unicode="&#x331;" horiz-adv-x="0" d="M-551 -189l21 76h334l-21 -76h-334z" />
<glyph unicode="&#x332;" horiz-adv-x="0" d="M-551 -189l21 76h334l-21 -76h-334z" />
<glyph unicode="&#x391;" horiz-adv-x="741" d="M-75 0l7 54h16q62 0 123 103l348 579h62l131 -622q8 -35 26 -47.5t64 -12.5h14l-7 -54h-374l7 54h16q50 0 66 8q17 7 17 23q0 13 -4 32l-20 103h-232l-46 -81q-14 -23 -14 -43q0 -23 15 -32.5t56 -9.5h23l-8 -54h-286zM217 274h187l-46 241z" />
<glyph unicode="&#x392;" horiz-adv-x="759" d="M-50 0l7 54h14q52 0 67 14q6 6 9 15.5t17 60.5l117 434q13 48 13 63q0 17 -15 22t-64 5h-19l8 54h352q264 0 264 -171q0 -75 -60 -122.5t-171 -60.5q194 -34 194 -173q0 -102 -86.5 -148.5t-228.5 -46.5h-418zM227 84q0 -30 53 -30h33q88 0 133.5 47t45.5 132 q0 60 -29.5 85t-118.5 25h-50l-59 -221q-8 -28 -8 -38zM308 397h31q53 0 79.5 5.5t49.5 20.5q32 22 50.5 60.5t18.5 83.5q0 49 -25 75t-72 26h-15q-27 0 -38.5 -11.5t-21.5 -48.5z" />
<glyph unicode="&#x393;" horiz-adv-x="704" d="M-41 0l7 54h14q46 0 60 8t22 40l128 476q13 51 13 63q0 17 -15 22t-64 5h-19l8 54h613l-40 -245h-52q-2 109 -35.5 150t-122.5 41h-36q-31 0 -43.5 -9.5t-19.5 -38.5l-127 -476q-14 -50 -14 -63q0 -17 15 -22t64 -5h27l-8 -54h-375z" />
<glyph unicode="&#x394;" horiz-adv-x="764" d="M22 0l526 737h76l118 -737h-720zM150 55h381l-61 469z" />
<glyph unicode="&#x395;" horiz-adv-x="741" d="M-41 0l7 54h14q45 0 59.5 8.5t22.5 39.5l128 476q13 51 13 63q0 17 -15 22t-64 5h-19l8 54h615l-40 -245h-52q-2 109 -35.5 150t-122.5 41h-38q-31 0 -43.5 -9.5t-19.5 -38.5l-59 -219h31q64 0 97 27t59 95l53 -7l-90 -335l-53 7q5 37 5 62q0 50 -19 73.5t-65 23.5h-32 l-63 -236q-7 -24 -6 -32q0 -25 54 -25h36q86 0 164 54t127 151l52 -11l-66 -248h-643z" />
<glyph unicode="&#x396;" horiz-adv-x="704" d="M-29 0l8 54l507 614h-79q-97 0 -164 -46t-126 -154l-49 10l66 244h581l-8 -54l-510 -614h91q108 0 181 51t132 168l51 -13l-70 -260h-611z" />
<glyph unicode="&#x397;" horiz-adv-x="870" d="M-41 0l7 54h19q42 0 55.5 8.5t21.5 39.5q1 3 5 18.5t6 23.5l117 434q13 49 13 63q0 17 -15 22t-64 5h-19l8 54h375l-7 -54h-22q-52 0 -66 -14q-7 -5 -10 -14.5t-17 -61.5l-48 -177h256l47 177q14 49 14 63q0 17 -11 22t-58 5h-21l8 54h359l-7 -54h-17q-49 0 -64 -14 q-6 -5 -9 -14.5t-17 -61.5l-117 -434q-13 -52 -13 -63q0 -17 15 -22t64 -5h22l-7 -54h-379l7 54h22q52 0 66 14q7 6 10.5 15.5t16.5 60.5l53 196h-256l-52 -196q-14 -48 -14 -63q0 -17 11 -22t58 -5h21l-8 -54h-359z" />
<glyph unicode="&#x398;" horiz-adv-x="833" d="M36 286q0 91 37.5 175t99.5 144t145 96t172 36q130 0 218.5 -85.5t88.5 -210.5q0 -186 -135 -321t-320 -135q-139 0 -222.5 82.5t-83.5 218.5zM215 193q0 -71 34 -112.5t93 -41.5q108 0 191 157q37 71 58.5 158t21.5 166q0 76 -33.5 119.5t-92.5 43.5q-110 0 -187 -155 q-37 -75 -61 -170t-24 -165zM255 187l94 349h54l-4 -15q-17 -60 -12 -70t50 -10q44 0 54.5 10t27.5 70l4 15h54l-94 -349h-54l4 15q17 60 12 70t-50 10q-44 0 -54.5 -10t-27.5 -70l-4 -15h-54z" />
<glyph unicode="&#x399;" horiz-adv-x="444" d="M-41 0l7 54h20q49 0 63 14q7 6 10 15.5t17 60.5l116 434q14 48 14 63q0 17 -15 22t-64 5h-22l8 54h373l-7 -54h-21q-48 0 -62 -14q-7 -5 -10.5 -14.5t-16.5 -61.5l-116 -434q-14 -55 -14 -63q0 -17 15 -22t64 -5h22l-8 -54h-373z" />
<glyph unicode="&#x39a;" horiz-adv-x="778" d="M-41 0l7 54h18q46 0 63 14q6 6 9.5 15.5t17.5 61.5l115 433q14 49 14 63q0 17 -15 22t-64 5h-19l8 54h375l-7 -54h-22q-52 0 -66 -14q-7 -6 -10 -15.5t-17 -60.5l-61 -225l267 248q30 29 30 42q0 25 -41 25h-35l7 54h299l-7 -54q-53 -3 -90.5 -20.5t-81.5 -60.5 l-162 -150l143 -308q24 -53 40 -64t68 -11h15l-8 -54h-374l7 54h31q35 0 47.5 4.5t12.5 17.5q0 8 -11 31l-102 213l-84 -77l-26 -99q-14 -48 -14 -63q0 -17 11 -22t58 -5h21l-8 -54h-359z" />
<glyph unicode="&#x39b;" horiz-adv-x="741" d="M-75 0l7 54h16q62 0 123 103l348 579h62l131 -622q8 -35 26 -47.5t64 -12.5h14l-7 -54h-374l7 54h16q50 0 66 8q17 7 17 23q0 13 -4 32l-79 398l-219 -376q-14 -23 -14 -43q0 -23 15 -32.5t56 -9.5h23l-8 -54h-286z" />
<glyph unicode="&#x39c;" horiz-adv-x="944" d="M-24 0l7 54q41 3 62.5 34.5t47.5 127.5l97 362q14 52 14 63q0 17 -15 22t-64 5h-19l7 54h293l35 -463l278 463h269l-7 -54h-21q-45 0 -60 -14q-6 -5 -9 -14.5t-17 -61.5l-117 -434q-13 -52 -13 -63q0 -17 15 -22t64 -5h19l-8 -54h-367l7 54h20q46 0 60 14q7 6 10 15.5 t17 60.5l112 418l-337 -562h-63l-39 566l-94 -350q-21 -84 -21 -107q0 -55 82 -55l-8 -54h-237z" />
<glyph unicode="&#x39d;" horiz-adv-x="852" d="M-57 0l7 54q51 2 81 27q21 19 29 38t31 98l113 419q-17 32 -59 32h-56l7 54h254l268 -507l78 290q22 84 22 108q0 55 -90 55l7 54h277l-7 -54q-51 0 -81 -27q-21 -21 -29.5 -39t-31.5 -97l-139 -519h-80l-296 566l-90 -335q-21 -84 -21 -108q0 -29 17.5 -42t59.5 -13h21 l-8 -54h-284z" />
<glyph unicode="&#x39e;" horiz-adv-x="747" d="M67 0l2 210h26q8 -61 36 -79.5t116 -18.5h304q88 0 126 18.5t78 79.5h26l-110 -210h-604zM150 512l110 210h604l-2 -210h-26q-8 61 -36 79.5t-116 18.5h-304q-88 0 -125.5 -18.5t-78.5 -79.5h-26zM201 171l93 349h54l-4 -15q-10 -37 -10.5 -52.5t6.5 -20.5q4 -5 14 -6 t59 -1h144q49 0 59.5 1t17.5 6q18 12 34 73l4 15h54l-93 -349h-54l4 15q10 38 10.5 52.5t-6.5 19.5q-4 5 -14.5 6t-58.5 1h-144q-48 0 -59 -1t-18 -6q-18 -12 -34 -72l-4 -15h-54z" />
<glyph unicode="&#x39f;" horiz-adv-x="833" d="M36 286q0 91 37.5 175t99.5 144t145 96t172 36q130 0 218.5 -85.5t88.5 -210.5q0 -186 -135 -321t-320 -135q-139 0 -222.5 82.5t-83.5 218.5zM215 193q0 -71 34 -112.5t93 -41.5q108 0 191 157q37 71 58.5 158t21.5 166q0 76 -33.5 119.5t-92.5 43.5q-110 0 -187 -155 q-37 -75 -61 -170t-24 -165z" />
<glyph unicode="&#x3a0;" horiz-adv-x="870" d="M-41 0l7 54h19q42 0 55.5 8.5t21.5 39.5q1 3 5 18.5t6 23.5l117 434q13 49 13 63q0 17 -15 22t-64 5h-19l8 54h799l-7 -54h-17q-49 0 -64 -14q-6 -5 -9 -14.5t-17 -61.5l-117 -434q-13 -52 -13 -63q0 -17 15 -22t64 -5h22l-7 -54h-379l7 54h22q52 0 66 14q7 6 10.5 15.5 t16.5 60.5l116 434q14 49 14 63q0 17 -11 22t-58 5h-107q-52 0 -66 -14q-7 -5 -10 -14.5t-17 -61.5l-116 -434q-14 -48 -14 -63q0 -17 11 -22t58 -5h21l-8 -54h-359z" />
<glyph unicode="&#x3a1;" horiz-adv-x="741" d="M-38 0l7 54h18q43 0 56.5 8.5t21.5 39.5l127 476q14 52 14 63q0 17 -13.5 22t-61.5 5h-19l7 54h315q86 0 145 -13.5t91.5 -39.5t46.5 -58.5t14 -77.5q0 -113 -84 -167.5t-270 -54.5h-80l-45 -167q-14 -51 -14 -63q0 -17 15.5 -22t64.5 -5h25l-7 -54h-374zM311 365h49 q96 0 144 52t48 146q0 48 -25 76.5t-68 28.5h-17q-32 0 -43.5 -9.5t-20.5 -43.5z" />
<glyph unicode="&#x3a3;" horiz-adv-x="749" d="M15 0l341 324l-129 398h629l-33 -165h-28q3 39 -0.5 59.5t-22.5 31.5t-42.5 13t-75.5 2h-236l90 -264l-231 -219h287q91 0 131.5 18.5t80.5 79.5h28l-131 -278h-658z" />
<glyph unicode="&#x3a4;" horiz-adv-x="722" d="M44 455l71 267h647l-44 -283l-53 5q3 34 3 60q0 79 -30.5 121.5t-87.5 42.5q-22 0 -28.5 -6.5t-14.5 -38.5l-128 -479q-14 -51 -14 -63q0 -17 15.5 -22t64.5 -5h25l-7 -54h-397l7 54h27q62 0 76 14q7 6 10.5 15.5t16.5 60.5l130 485q4 13 4 24q0 15 -28 15 q-64 0 -113.5 -53t-101.5 -176z" />
<glyph unicode="&#x3a5;" horiz-adv-x="704" d="M20 505q25 91 71.5 154t109.5 63q238 0 111 -472h5q21 78 39.5 135.5t48.5 125t63 110.5t80.5 72t102.5 29q107 0 49 -217h-52q7 25 -4 43t-35 18q-29 0 -53.5 -12t-44.5 -38.5t-34.5 -51.5t-29 -68.5t-22.5 -70t-21 -75.5l-31 -106q-14 -53 -14 -63q0 -17 15.5 -22 t64.5 -5h25l-7 -54h-389l7 54h19q62 0 76 14q7 6 10 15.5t17 60.5l28 106q13 50 21 91t10 84.5t-6 73t-31 48.5t-60 19q-29 0 -54.5 -17.5t-32.5 -43.5h-52z" />
<glyph unicode="&#x3a6;" horiz-adv-x="781" d="M141 361q23 86 109 136t203 65l4 16q14 48 14 63q0 17 -15 22t-64 5h-22l8 54h373l-7 -54h-21q-48 0 -62 -14q-7 -5 -10 -14.5t-17 -61.5l-4 -16q109 -14 168 -64t36 -137q-23 -86 -109 -136t-203 -65l-4 -16q-14 -55 -14 -63q0 -17 15 -22t64 -5h22l-8 -54h-373l7 54h20 q49 0 63 14q7 6 10.5 15.5t16.5 60.5l4 16q-109 14 -168 64t-36 137zM313 361q-12 -43 2.5 -78t47.5 -55l72 266q-45 -20 -77.5 -55t-44.5 -78zM540 228q45 20 77.5 55t44.5 78t-2.5 78t-47.5 55z" />
<glyph unicode="&#x3a7;" horiz-adv-x="741" d="M-72 0l7 54q37 -1 70.5 16t77.5 59l217 213l-126 280q-14 29 -27 37.5t-47 8.5h-37l8 54h374l-7 -54h-33q-31 0 -42.5 -4.5t-11.5 -15.5q0 -8 9 -29l69 -151l123 122q24 22 24 46q0 32 -55 32h-21l7 54h304l-7 -54q-54 -4 -83.5 -19.5t-87.5 -71.5l-180 -173l132 -295 q15 -33 34.5 -44t62.5 -11h23l-7 -54h-387l7 54h41q29 0 39.5 4.5t10.5 17.5q0 10 -10 33l-73 170l-135 -132q-31 -30 -31 -53q0 -40 66 -40h22l-7 -54h-313z" />
<glyph unicode="&#x3a8;" horiz-adv-x="956" d="M191 552l14 52q96 0 150.5 -59t30.5 -146q-15 -56 3 -102t61 -70l94 351q14 48 14 63q0 17 -15 22t-64 5h-22l8 54h373l-7 -54h-21q-48 0 -62 -14q-7 -5 -10.5 -14.5t-16.5 -61.5l-94 -351q56 24 98.5 70t57.5 102q24 87 109.5 146t181.5 59l-14 -52q-18 0 -33 -10 t-25 -23t-19.5 -36t-15 -40t-12.5 -44q-26 -98 -122 -159t-224 -79l-4 -17q-14 -55 -14 -63q0 -17 15 -22t64 -5h22l-8 -54h-373l7 54h20q49 0 63 14q7 6 10 15.5t17 60.5l4 17q-117 17 -180.5 78.5t-37.5 159.5q9 33 13.5 55t5.5 47t-9.5 38t-32.5 13z" />
<glyph unicode="&#x3a9;" horiz-adv-x="833" d="M67 0l2 210h26q8 -61 36 -79.5t116 -18.5h42l5 17q-11 37 -34.5 68.5t-45 49.5t-42 46t-24.5 57t7 83q42 156 163.5 230t295.5 74t256.5 -74t40.5 -230q-13 -48 -37 -82.5t-56 -58.5t-65 -44.5t-72.5 -51t-70.5 -67.5l-5 -17h42q88 0 126 18.5t78 79.5h26l-110 -210h-269 l50 186q74 55 108.5 114t59.5 152q13 48 18 81t2.5 63.5t-16.5 49t-43.5 29t-74.5 10.5q-108 0 -159 -56t-83 -177q-26 -79 -22.5 -145t48.5 -121l-50 -186h-269z" />
<glyph unicode="&#x3b1;" horiz-adv-x="922" d="M107 234q20 76 83 136.5t145.5 92t168.5 31.5q83 0 145 -38.5t88 -105.5q104 128 135 153l51 -70q-121 -96 -170 -145q2 -11 2 -33q2 -218 27 -218q26 0 46.5 24t28.5 56h52q-14 -54 -54 -93t-87 -39q-62 0 -103 36.5t-58 97.5q-127 -134 -239 -134q-132 0 -211.5 69 t-49.5 180zM279 234q-22 -80 6 -138.5t97 -58.5q97 0 214 137q-2 26 -2 39q0 32 -0.5 47t-2.5 44.5t-6 44.5t-11.5 36t-18 31t-27.5 18t-38 8q-70 0 -129.5 -62t-81.5 -146z" />
<glyph unicode="&#x3b2;" horiz-adv-x="638" d="M-49 -224q66 120 93 224l128 479q29 106 122.5 182t198.5 76q92 0 146 -52.5t33 -133.5q-13 -48 -53 -89t-93 -64q72 -23 110.5 -75t19.5 -122q-27 -99 -133.5 -157.5t-230.5 -58.5q-50 0 -91 18l-1 -3q-32 -121 -87 -224h-162zM216 61q38 -24 90 -24q58 0 109 48.5 t69 115.5t-13 115.5t-95 48.5l14 52q39 0 66.5 39t43.5 95q8 31 11.5 49t4.5 40.5t-8.5 33.5t-28.5 11q-30 0 -54.5 -17.5t-42.5 -50t-30 -64t-24 -74.5z" />
<glyph unicode="&#x3b3;" horiz-adv-x="683" d="M115 263q25 94 84.5 162.5t132.5 68.5q46 0 75.5 -20t42.5 -52.5t14.5 -81.5t-5 -99.5t-20.5 -113.5l12 10q162 137 216 342h100q-47 -175 -287 -377l-59 -49l-30 -115q-12 -43 -20.5 -68t-24 -57t-36 -47.5t-47.5 -15.5q-41 0 -59 30.5t-8 77t45 91.5q19 26 131 122 q13 59 17 102.5t-1.5 83t-30 60.5t-67.5 21q-42 0 -78 -20.5t-45 -54.5h-52zM276 -198q9 0 18 11.5t17.5 35.5t14 41.5t13.5 47.5l15 57q-63 -56 -73 -69q-23 -29 -32 -58t-2 -47.5t29 -18.5z" />
<glyph unicode="&#x3b4;" horiz-adv-x="592" d="M102 216q20 76 97 119t183 55q-74 90 -48 188q17 65 71.5 112t116.5 47q66 0 109 -32.5t41 -88.5l-103 -23q2 39 -13.5 65.5t-47.5 26.5q-34 0 -62.5 -32t-39.5 -75q-2 -9 -2.5 -18t1 -17t6 -17.5t7.5 -16.5t10.5 -17t12 -15.5t14 -16t13.5 -14t14 -14.5q44 -44 67 -70.5 t44.5 -69.5t12.5 -76q-26 -98 -118.5 -164.5t-195.5 -66.5t-159.5 66.5t-30.5 164.5zM274 216q-10 -37 -15 -64.5t-5 -56t13 -43.5t39 -15q48 0 77 49t51 130q20 74 -10 124q-53 -9 -95.5 -43t-54.5 -81z" />
<glyph unicode="&#x3b5;" horiz-adv-x="574" d="M84 150q21 75 102 111q-38 33 -22 89q18 68 94 99.5t174 31.5q93 0 156 -52l-40 -43q-52 43 -130 43q-32 0 -61 -23t-37 -56q-10 -34 16 -55q51 5 126 5l-23 -83q-81 0 -132 5q-54 -25 -67 -72q-12 -45 20.5 -72.5t86.5 -27.5q93 0 177 68l28 -36q-103 -84 -219 -84 q-57 0 -103 7t-85 23.5t-55.5 47.5t-5.5 74z" />
<glyph unicode="&#x3b6;" horiz-adv-x="511" d="M92 181q37 140 117 259t183 176q-27 48 -2 106h102q-17 -39 -11 -72q34 8 65 8q42 0 67.5 -12t17.5 -41q-14 -52 -113 -52q-45 0 -80 19q-41 -33 -77 -106.5t-52 -126t-45 -158.5q-17 -63 10 -109t85 -46q59 0 85.5 -46.5t9.5 -110.5q-13 -49 -58 -84t-95 -35 q-59 0 -101 27l37 46q33 -21 77 -21q29 0 55 19.5t33 47.5q11 42 -4.5 73.5t-52.5 31.5q-80 0 -142.5 22t-95 70.5t-15.5 114.5z" />
<glyph unicode="&#x3b7;" horiz-adv-x="696" d="M140 359q15 55 52 95t80 40q48 0 82 -23t48 -63q66 86 148 86q95 0 151 -52.5t33 -134.5q-14 -52 -60 -153.5t-60 -153.5q-29 -109 -27 -224h-162q0 99 33 224q14 50 52 152t52 155q36 135 -26 135q-43 0 -80 -40t-52 -95l-82 -307h-156l82 307q8 29 12 47t8.5 41.5 t1.5 35t-12 11.5q-43 0 -66 -83h-52z" />
<glyph unicode="&#x3b8;" horiz-adv-x="563" d="M139 356q27 99 73 182.5t117 141t150 57.5q60 0 98 -32.5t51 -87.5t9.5 -121.5t-23.5 -139.5q-26 -97 -72.5 -179t-116.5 -137t-148 -55q-59 0 -97 31.5t-51.5 85t-11 118.5t21.5 136zM292 37q22 0 42.5 25t39 73.5t31.5 90t30 104.5h-131q-11 -41 -17.5 -69t-14.5 -66 t-10.5 -62.5t-1.5 -48.5t9 -35.5t23 -11.5zM318 382h131q8 31 14 53t13 52t11 52t7.5 46t3 40.5t-3 31t-10 21.5t-18.5 7q-22 0 -43 -25.5t-41 -76.5t-33 -93t-31 -108z" />
<glyph unicode="&#x3b9;" horiz-adv-x="460" d="M120 120l96 359h156l-96 -359q-10 -32 -1 -57.5t35 -25.5q28 0 52.5 25t33.5 58h52q-15 -55 -58.5 -95t-93.5 -40q-87 0 -140.5 35t-35.5 100z" />
<glyph unicode="&#x3ba;" horiz-adv-x="639" d="M44 0l128 479h156l-39 -148q18 15 51 50q109 113 189 113q44 0 75.5 -22t42.5 -60l-52 -25q-7 25 -29 40t-51 15q-24 0 -51.5 -16t-43.5 -30.5t-45 -44.5q-38 -40 -70 -64q82 -6 131 -37t33 -90q-23 -91 -16 -111q5 -11 16 -12q35 0 66 24.5t40 58.5h52 q-15 -56 -65.5 -95.5t-106.5 -39.5q-77 0 -119 50.5t-23 124.5q15 51 -52 69l-61 -229h-156z" />
<glyph unicode="&#x3bb;" horiz-adv-x="671" d="M44 0l372 486l-4 45q-3 29 -5.5 45t-14 32.5t-30.5 16.5q-17 0 -32.5 -15.5t-20.5 -36.5h-52q17 63 52 107.5t80 44.5q15 0 26.5 -7t19 -22.5t12.5 -29t9 -39t5 -38.5t4 -41l33 -371q8 -80 59 -80q19 0 36 15.5t22 36.5h52q-16 -62 -53.5 -107t-83.5 -45 q-20 0 -35.5 10.5t-23.5 24t-14 39.5t-8 42t-5 47l-10 122l-216 -282h-174z" />
<glyph unicode="&#x3bc;" horiz-adv-x="799" d="M21 -250q65 186 114 370l96 359h156l-96 -359q-10 -35 11.5 -59t59.5 -24q61 0 113 41q-4 21 3 42l96 359h156l-96 -359q-23 -83 23 -83q26 0 47.5 24.5t30.5 58.5h52q-15 -55 -56 -95t-88 -40q-104 0 -149 51q-69 -51 -146 -51q-101 0 -158 26q-19 -134 2 -261h-171z " />
<glyph unicode="&#x3bd;" horiz-adv-x="631" d="M125 303q50 191 140 191q37 0 63 -24t37.5 -54.5t19.5 -74.5l45 -232l76 38q78 39 110 155q5 17 -10 37t-29.5 31t-44.5 30l112 136q31 -20 40.5 -61.5t4 -79t-20.5 -93.5q-17 -65 -55 -118.5t-94 -81.5l-236 -118l-54 281q-4 20 31 84q34 61 26 79q-7 14 -35 14 q-13 0 -24 -11t-21 -37t-15 -41.5t-14 -49.5h-52z" />
<glyph unicode="&#x3be;" horiz-adv-x="591" d="M75 115q32 120 178 179q-78 38 -55 125q19 72 79 126t144 84q-21 41 -6 93h100q-10 -37 -2 -70q39 6 76 6q24 0 36.5 -0.5t34 -1.5t33 -4.5t23 -9t15 -15t0.5 -22.5q-5 -18 -21 -29.5t-44.5 -16t-48.5 -5.5t-56 -1q-47 0 -85 19q-38 -26 -66 -66.5t-40 -86.5 q-15 -58 41 -84q70 10 146 10l-22 -84q-78 0 -137 4q-125 -50 -151 -150q-13 -50 22.5 -80.5t96.5 -34.5q74 -5 119 -39t30 -92q-13 -48 -44.5 -83.5t-69.5 -35.5q-44 0 -66 32l48 36q10 -16 32 -16q29 0 48 67q10 39 -23.5 57t-91.5 22q-51 3 -89 8t-80 17t-66.5 29t-36 46 t-1.5 67z" />
<glyph unicode="&#x3bf;" horiz-adv-x="574" d="M10 187q0 119 93.5 205.5t220.5 86.5q98 0 160 -54q56 -48 56 -140q0 -127 -92 -213t-228 -86q-96 0 -150 51q-28 25 -44 65.5t-16 84.5zM165 108q0 -37 17 -58t47 -21q65 0 106 105q21 52 35.5 116.5t14.5 103.5q0 35 -18 56.5t-47 21.5q-64 0 -110 -110 q-19 -47 -32 -108t-13 -106z" />
<glyph unicode="&#x3c0;" horiz-adv-x="796" d="M63 -26l27 100q71 0 134.5 41.5t80.5 104.5l37 138q-54 4 -81 4q-28 0 -51 -11t-28 -32h-52q22 82 67.5 140.5t105.5 58.5t180 -15.5t184 -14.5q87 2 177 27l6 -150q-80 -21 -145 -28l-51 -190q-12 -48 18 -79t83 -31l-14 -52q-55 0 -101.5 8.5t-83.5 26.5t-53.5 51 t-4.5 76l51 188q-24 2 -50 5t-57.5 7t-48.5 6l-36 -133q-26 -101 -112 -173.5t-182 -72.5z" />
<glyph unicode="&#x3c1;" horiz-adv-x="678" d="M-20 -250q60 96 80 167q14 53 23 158t24 159q19 73 76 133t133.5 93.5t154.5 33.5q120 0 187.5 -75t38.5 -185q-19 -71 -76 -129t-132.5 -89t-153.5 -31q-56 0 -101 16q-28 -158 -88 -251h-166zM244 58q48 -21 105 -21q60 0 107.5 58t68.5 139q12 53 14 99t-19 77.5 t-63 31.5q-61 0 -108 -61t-70 -147q-14 -51 -35 -176z" />
<glyph unicode="&#x3c2;" horiz-adv-x="531" d="M119 281q26 95 126 154t214 59q39 0 60 -1t49 -9.5t42 -24.5l-85 -76q-54 59 -80 59q-56 0 -104 -48t-66 -113q-31 -118 32 -165q11 -8 45 -32.5t52 -38.5q63 -50 47 -107q-10 -37 -43 -63t-70 -26q-95 0 -157 57l43 42q49 -47 127 -47q16 0 30 10.5t18 26.5 q4 14 -1.5 26.5t-12.5 19.5t-21 18q-17 13 -49.5 36.5t-46.5 33.5q-52 38 -80.5 62.5t-53.5 66.5t-15 80z" />
<glyph unicode="&#x3c3;" horiz-adv-x="702" d="M103 187q0 119 93.5 205.5t220.5 86.5q27 0 48 -4q116 8 310 87l14 -70q-100 -42 -229 -54q73 -49 73 -153q0 -127 -92 -213t-228 -86q-96 0 -150 51q-28 25 -44 65.5t-16 84.5zM258 108q0 -37 17 -58t47 -21q66 0 106 105q21 52 35.5 116.5t14.5 103.5q0 35 -18 56.5 t-47 21.5q-64 0 -110 -110q-19 -47 -32 -108t-13 -106z" />
<glyph unicode="&#x3c4;" horiz-adv-x="668" d="M130 319q22 82 67.5 140.5t105.5 58.5q17 0 161 -32q111 -23 233 25l25 -142q-115 -46 -224 -46l-54 -203q-10 -32 -1 -57.5t35 -25.5q28 0 52.5 25t33.5 58h52q-15 -55 -58.5 -95t-93.5 -40q-87 0 -140.5 35t-35.5 100l60 225q-53 17 -87 17q-28 0 -51 -11t-28 -32h-52z " />
<glyph unicode="&#x3c5;" horiz-adv-x="657" d="M140 359q15 55 52 95t80 40q74 0 118.5 -37t27.5 -98q-9 -33 -30 -99.5t-30 -99.5q-33 -123 32 -123q78 0 146.5 63.5t91.5 149.5q24 92 -117 144l90 148q49 -19 73.5 -65.5t22.5 -104t-17 -122.5q-29 -108 -117 -186.5t-187 -78.5q-96 0 -154 48t-36 127q9 33 38 99 t38 100l7.5 30t4 25t-2.5 21.5t-13 6.5q-43 0 -66 -83h-52z" />
<glyph unicode="&#x3c6;" horiz-adv-x="793" d="M108 240q21 78 93.5 137.5t180.5 113.5l13 -46q-25 -12 -43.5 -33.5t-32.5 -54.5t-21 -55t-18 -62q-16 -62 1 -114t62 -75q28 146 42 199q27 99 107 171.5t170 72.5q94 0 136.5 -75.5t14.5 -178.5q-26 -96 -117 -161t-210 -86l-13 -55q-33 -120 -86 -188h-175 q83 107 105 188l12 51q-118 15 -183 81.5t-38 169.5zM501 62q50 26 87.5 74t52.5 104q8 29 12.5 46.5t10.5 45t7.5 43.5t1 33.5t-7 25.5t-17.5 8q-19 0 -35 -15t-29.5 -48t-21 -55t-19.5 -67q-1 -5 -2 -7q-17 -66 -40 -188z" />
<glyph unicode="&#x3c7;" horiz-adv-x="618" d="M59 -235q8 30 20 59.5t31.5 62.5t32.5 54.5t42.5 58.5t41 51.5t48 57.5t44.5 53l-20 130q-3 20 -5.5 32.5t-8.5 27.5t-17 22.5t-26 7.5q-19 0 -36 -17.5t-23 -40.5h-52q18 65 54 111.5t84 46.5q14 0 25 -6.5t19.5 -21.5t14 -28t11 -37t8 -37.5t6.5 -39.5l14 -92 q115 147 145 259h156q-12 -44 -31 -86t-55.5 -92.5t-54 -74.5t-72 -88t-64.5 -76l24 -158q7 -42 70 -42q19 0 36.5 17.5t23.5 40.5h52q-17 -65 -54 -111.5t-85 -46.5q-78 0 -96 122l-18 119q-99 -128 -129 -238h-156z" />
<glyph unicode="&#x3c8;" horiz-adv-x="743" d="M140 359q15 55 52 95t80 40q74 0 118.5 -37t27.5 -98q-9 -33 -30 -99.5t-30 -99.5q-18 -66 25 -103l49 183q66 243 78 482h156q-116 -240 -182 -482l-54 -202q4 -1 12 -1q89 0 168.5 62.5t103.5 150.5q24 92 -117 144l90 148q49 -19 73.5 -65.5t22.5 -104t-17 -122.5 q-29 -110 -128 -187.5t-210 -77.5h-12l-63 -235h-52l64 238q-96 12 -147.5 54.5t-31.5 117.5q9 33 38 99t38 100l7.5 30t4 25t-2.5 21.5t-13 6.5q-43 0 -66 -83h-52z" />
<glyph unicode="&#x3c9;" horiz-adv-x="796" d="M110 245q23 86 103.5 151.5t189.5 106.5l7 -48q-99 -37 -144 -210q-8 -31 -12.5 -50t-9.5 -46.5t-4 -44.5t5.5 -34t17.5 -25t33 -8q63 0 105 96q3 73 33 186h100q-11 -39 -17.5 -64.5t-15 -62.5t-11 -61t-2 -47.5t8.5 -35t23 -11.5q24 0 44.5 13.5t34 31t26.5 49.5 t20 54.5t17 59.5q45 174 -32 210l33 48q87 -41 132.5 -106.5t22.5 -151.5q-29 -106 -119.5 -183t-192.5 -77q-77 0 -98 75q-57 -75 -126 -75q-102 0 -151.5 77t-20.5 183z" />
<glyph unicode="&#x3d1;" horiz-adv-x="771" d="M140 359q15 55 55 95t86 40q70 0 111.5 -37.5t25.5 -97.5q-9 -33 -37.5 -99t-37.5 -100q-13 -50 1.5 -86.5t54.5 -36.5q16 0 31.5 7.5t29 23.5t24.5 32.5t22.5 44t19.5 48.5t18 55.5t16 55t15 55.5l25 96q-118 12 -152 96q-24 61 15.5 123.5t100.5 62.5q93 0 144 -62 t57 -162q41 5 92 17l-1 -50q-48 -11 -91 -18q-5 -59 -18 -103q-40 -151 -140.5 -262.5t-221.5 -111.5q-106 0 -171 46t-43 129q9 34 45.5 99.5t45.5 99.5q5 17 7.5 28.5t5 25.5t0.5 21.5t-8 7.5q-25 0 -45.5 -24.5t-29.5 -58.5h-52zM499 580q24 -61 112 -73q33 178 -60 178 q-31 0 -48.5 -35t-3.5 -70z" />
<glyph unicode="&#x3d5;" horiz-adv-x="611" d="M103 187q0 115 88 200.5t210 91.5l48 243h100l-84 -247q78 -14 123 -61t45 -129q0 -123 -87 -208t-217 -91l-64 -236h-54l64 238q-78 10 -125 63.5t-47 135.5zM258 108q0 -51 31 -70q57 209 101 390q-56 -18 -94 -123.5t-38 -196.5zM341 31q53 14 87 103 q21 52 35.5 116.5t14.5 103.5q0 46 -29 67q-49 -167 -108 -390z" />
<glyph unicode="&#x3d6;" horiz-adv-x="796" d="M110 245q23 86 103.5 151.5t189.5 106.5l7 -48q-99 -37 -144 -210q-8 -31 -12.5 -50t-9.5 -46.5t-4 -44.5t5.5 -34t17.5 -25t33 -8q63 0 105 96q3 73 33 186h100q-11 -39 -17.5 -64.5t-15 -62.5t-11 -61t-2 -47.5t8.5 -35t23 -11.5q24 0 44.5 13.5t34 31t26.5 49.5 t20 54.5t17 59.5q15 57 24.5 102t12.5 95t-5 83t-33 54.5t-67 21.5q-132 0 -273 -26l4 51q144 27 283 27q71 0 123 -34t76 -91t29 -130.5t-18 -152.5q-29 -106 -119.5 -183t-192.5 -77q-77 0 -98 75q-57 -75 -126 -75q-102 0 -151.5 77t-20.5 183z" />
<glyph unicode="&#x3f5;" horiz-adv-x="546" d="M112 254q30 112 152 176t266 64h69l-14 -52h-69q-71 0 -136 -49.5t-91 -122.5q18 3 43 10.5t45.5 14t42.5 11t42.5 3.5t36.5 -10l-66 -90q-15 8 -37 11t-36.5 3t-44.5 -2.5t-40 -3.5q-37 -180 64 -180q35 0 121 66l50 -72q-38 -29 -82 -37.5t-103 -8.5q-117 0 -180 78 t-33 191z" />
<glyph unicode="&#x400;" horiz-adv-x="741" d="M-41 0l7 54h4q52 0 68 8.5t24 39.5q25 93 71 264t57 212q13 51 13 63q0 17 -15 22t-64 5h-19l8 54h615l-40 -245h-52q-1 89 -21 127q-30 64 -137 64h-38q-31 0 -43 -9.5t-20 -38.5l-59 -219h21q65 0 103 27.5t63 94.5l53 -7l-90 -335l-53 7q5 37 5 62q0 97 -94 97h-22 l-63 -236q-6 -19 -6 -32q0 -25 54 -25h36q60 0 107 20t96 67q55 52 88 118l52 -11l-66 -248h-643zM389 957q0 21 15 35t38 14q20 0 33.5 -8.5t31.5 -33.5l102 -142h-49l-141 89q-30 18 -30 46z" />
<glyph unicode="&#x401;" horiz-adv-x="741" d="M-41 0l7 54h4q52 0 68 8.5t24 39.5q25 93 71 264t57 212q13 51 13 63q0 17 -15 22t-64 5h-19l8 54h615l-40 -245h-52q-1 89 -21 127q-30 64 -137 64h-38q-31 0 -43 -9.5t-20 -38.5l-59 -219h21q65 0 103 27.5t63 94.5l53 -7l-90 -335l-53 7q5 37 5 62q0 97 -94 97h-22 l-63 -236q-6 -19 -6 -32q0 -25 54 -25h36q60 0 107 20t96 67q55 52 88 118l52 -11l-66 -248h-643zM278 862q0 29 21 50t51 21q29 0 50 -21t21 -50q0 -30 -21 -51t-51 -21q-29 0 -50 21.5t-21 50.5zM493 862q0 19 9.5 35.5t26 26t36.5 9.5q29 0 50 -21t21 -50q0 -30 -21 -51 t-51 -21q-29 0 -50 21.5t-21 50.5z" />
<glyph unicode="&#x402;" horiz-adv-x="848" d="M44 455l71 267h647l-44 -283l-53 5q3 34 3 60q0 79 -30.5 121.5t-87.5 42.5q-22 0 -28.5 -6.5t-14.5 -38.5l-57 -211h112q157 0 222 -53t37 -158q-16 -56 -54 -100t-92 -66q-85 -35 -222 -35h-387l7 54h27q62 0 76 14q6 6 9 13.5t18 62.5l130 485q4 13 4 24q0 15 -28 15 q-64 0 -113.5 -53t-101.5 -176zM370 115q-10 -37 -2.5 -48.5t41.5 -11.5h40q71 0 114.5 35t63.5 110q23 86 -7 121.5t-127 35.5h-58z" />
<glyph unicode="&#x403;" horiz-adv-x="704" d="M-41 0l7 54h4q52 0 68 8.5t24 39.5q25 93 71 264t57 212q13 51 13 63q0 17 -15 22t-64 5h-19l8 54h613l-40 -245h-52q-1 89 -21 127q-30 64 -137 64h-36q-31 0 -43 -9.5t-20 -38.5l-127 -476q-14 -50 -14 -63q0 -17 15 -22t64 -5h27l-8 -54h-375zM296 770l124 139 q26 28 39 36.5t31 8.5q23 0 38.5 -15t15.5 -37q0 -28 -28 -44l-166 -88h-54z" />
<glyph unicode="&#x404;" horiz-adv-x="810" d="M51 352q45 168 180.5 276.5t300.5 108.5q53 0 90 -11.5t79 -41.5l67 49h43l-67 -286l-55 -6q0 125 -40 184.5t-123 59.5q-88 0 -155 -72.5t-109 -213.5h261l-16 -60h-261q-35 -149 -5.5 -220.5t127.5 -71.5q86 0 159 57t121 161l58 -15q-127 -265 -388 -265 q-172 0 -241 110q-67 105 -26 257z" />
<glyph unicode="&#x405;" horiz-adv-x="685" d="M1 0l50 283l52 -8v-15q0 -101 58.5 -161t155.5 -60q70 0 113.5 31.5t43.5 81.5q0 44 -35 71.5t-136 61.5q-62 21 -91.5 36t-53.5 38q-56 53 -56 136q0 104 76 173t190 69q113 0 200 -76l53 54h45l-44 -263l-52 9q-3 77 -25 123q-24 47 -67 73t-98 26q-65 0 -104 -29.5 t-39 -78.5q0 -45 32 -72q18 -18 80 -39q114 -37 173 -72q90 -51 90 -168q0 -106 -81 -172.5t-211 -66.5q-67 0 -117 18.5t-100 61.5l-58 -65h-44z" />
<glyph unicode="&#x406;" horiz-adv-x="444" d="M-41 0l7 54h7q62 0 76 14q7 6 10 15.5t17 60.5l116 434q14 48 14 63q0 17 -15 22t-64 5h-22l8 54h373l-7 -54h-7q-62 0 -76 -14q-7 -5 -10.5 -14.5t-16.5 -61.5l-116 -434q-14 -55 -14 -63q0 -17 15 -22t64 -5h22l-8 -54h-373z" />
<glyph unicode="&#x407;" horiz-adv-x="444" d="M-41 0l7 54h7q62 0 76 14q7 6 10 15.5t17 60.5l116 434q14 48 14 63q0 17 -15 22t-64 5h-22l8 54h373l-7 -54h-7q-62 0 -76 -14q-7 -5 -10.5 -14.5t-16.5 -61.5l-116 -434q-14 -55 -14 -63q0 -17 15 -22t64 -5h22l-8 -54h-373zM140 862q0 29 21 50t51 21q29 0 50 -21 t21 -50q0 -30 -21 -51t-51 -21q-29 0 -50 21.5t-21 50.5zM355 862q0 29 21 50t51 21q29 0 50 -21t21 -50q0 -30 -21 -51t-51 -21q-29 0 -50 21.5t-21 50.5z" />
<glyph unicode="&#x408;" horiz-adv-x="667" d="M-9 169q0 70 37.5 114.5t95.5 44.5q48 0 77.5 -26.5t29.5 -70.5q0 -39 -25 -66t-62 -27q-22 0 -44 13q-17 9 -23 9q-18 0 -18 -25q0 -39 32 -66t79 -27q75 0 120 72q17 27 24.5 48.5t27.5 97.5l85 318q14 50 14 63q0 17 -15 22t-64 5h-30l8 54h378l-7 -54h-4 q-62 0 -77 -14q-6 -6 -9 -15.5t-17 -60.5l-82 -304q-26 -98 -32.5 -118t-19.5 -43q-37 -67 -95.5 -97.5t-148.5 -30.5q-113 0 -174 47.5t-61 136.5z" />
<glyph unicode="&#x409;" horiz-adv-x="1227" d="M-6 138q29 104 128 102q49 -1 67.5 -25t8.5 -57q-10 -35 -26.5 -45t-34 -10.5t-25.5 -10.5q-10 -13 2 -25.5t36 -12.5q59 0 113 94.5t88 221.5l55 207q4 16 6.5 28t3.5 18.5t0.5 13t-1 7.5l-2.5 5l-2 4q-8 15 -78 15h-15l14 54h685l-14 -54h-15q-70 0 -87 -14 q-7 -6 -10 -15.5t-17 -60.5l-45 -166h112q157 0 222 -53t37 -158q-16 -56 -54 -100t-92 -66q-85 -35 -222 -35h-397l14 54h15q65 0 81 15q6 5 9 9t9 20t14 46l139 518h-116q-56 0 -81 -84l-55 -204q-107 -390 -357 -390q-71 0 -100.5 44.5t-12.5 109.5zM749 115 q-10 -37 -2.5 -48.5t41.5 -11.5h40q71 0 114.5 35t63.5 110q23 86 -7 121.5t-127 35.5h-58z" />
<glyph unicode="&#x40a;" horiz-adv-x="1175" d="M-41 0l7 54h4q52 0 68 8.5t24 39.5q1 3 5 18.5t6 23.5l117 434q13 49 13 63q0 17 -15 22t-64 5h-19l8 54h375l-7 -54h-12q-62 0 -76 -14q-7 -5 -10 -14.5t-17 -61.5l-48 -177h256l47 177q14 49 14 63q0 17 -15 22t-64 5h-11l8 54h403l-7 -54h-22q-61 0 -78 -14 q-7 -6 -10 -15.5t-17 -60.5l-45 -166h112q157 0 222 -53t37 -158q-16 -56 -54 -100t-92 -66q-85 -35 -222 -35h-397l7 54h12q62 0 76 14q7 6 10.5 15.5t16.5 60.5l53 196h-256l-52 -196q-14 -48 -14 -63q0 -17 15 -22t64 -5h11l-8 -54h-359zM697 115q-10 -37 -2.5 -48.5 t41.5 -11.5h40q71 0 114.5 35t63.5 110q23 86 -7 121.5t-127 35.5h-58z" />
<glyph unicode="&#x40b;" horiz-adv-x="722" d="M44 455l71 267h647l-44 -283l-53 5q3 34 3 60q0 79 -30.5 121.5t-87.5 42.5q-22 0 -28 -6.5t-15 -38.5l-128 -479q-14 -51 -14 -63q0 -17 15.5 -22t64.5 -5h25l-7 -54h-397l7 54h27q62 0 76 14q7 6 10.5 15.5t16.5 60.5l130 485q4 13 4 24q0 15 -28 15q-64 0 -113.5 -53 t-101.5 -176z" />
<glyph unicode="&#x40c;" horiz-adv-x="823" d="M-41 0l14 54h15q71 0 86 15q7 6 10 14.5t17 60.5l116 434q14 52 15.5 58.5t-1.5 16.5q-8 15 -78 15h-15l14 54h389l-14 -54h-15q-71 0 -87 -15q-7 -6 -10.5 -16.5t-16.5 -58.5l-45 -169l40 -1q46 0 77 18t47.5 47t29 64t27.5 70t36 64t60.5 47t96.5 18q40 0 65.5 -12 t32 -28.5t8.5 -34t-5 -27.5q-10 -29 -33 -52.5t-49 -23.5q-12 0 -23.5 2t-24 6.5t-18 15.5t-1.5 26l4.5 21t6 18t11 15.5t15.5 3.5l6 7q2 7 -11 10l-16 1q-19 0 -38.5 -44.5t-36 -99.5t-50.5 -107.5t-78 -66.5q47 -5 72 -30t28 -58.5t-1 -71.5t-12 -70t-6.5 -53t16.5 -21 q26 0 52 88q3 8 4 12h84q-15 -57 -38.5 -95t-52.5 -54.5t-53.5 -22.5t-54.5 -6q-44 0 -71.5 11t-36.5 30.5t-9 40t7 46.5q9 47 9.5 92t-26.5 78.5t-78 34.5h-37l-46 -173q-18 -67 -14 -75q10 -15 79 -15h15l-14 -54h-389zM326 770l124 139q26 28 39 36.5t31 8.5 q23 0 38.5 -15t15.5 -37q0 -28 -28 -44l-166 -88h-54z" />
<glyph unicode="&#x40d;" horiz-adv-x="940" d="M-41 0l14 54h15q71 0 86 15q7 6 11 16.5t17 58.5l116 433q13 49 15 59t-2 17q-8 15 -78 15h-15l14 54h389l-14 -54h-15q-71 0 -87 -15q-7 -6 -10.5 -16.5t-16.5 -59.5l-85 -315l337 284l9 31q13 51 14.5 58.5t-1.5 17.5q-8 15 -78 15h-15l14 54h389l-14 -54h-15 q-71 0 -87 -15q-7 -6 -10.5 -16.5t-16.5 -59.5l-116 -433q-19 -66 -14 -75q10 -15 79 -15h15l-14 -54h-389l14 54h15q71 0 86 15q7 6 11 16.5t17 58.5l81 302l-338 -284l-4 -18q-19 -66 -14 -75q10 -15 79 -15h15l-14 -54h-389zM502 957q0 21 15 35t38 14q20 0 33.5 -8.5 t31.5 -33.5l102 -142h-49l-141 89q-30 18 -30 46z" />
<glyph unicode="&#x40e;" horiz-adv-x="694" d="M-68 101q11 41 37 64t56 23q33 0 47 -17t5 -48q-6 -24 -32 -40q-1 -1 -5 -2.5t-7 -4t-4 -6.5q-2 -8 3 -13.5t18 -5.5q14 0 28 6.5t28.5 21t23 25t24 31t19.5 26.5l-113 456q-8 30 -22.5 39.5t-49.5 11.5l14 54h358l-14 -54q-77 0 -85 -29q-6 -21 0 -38l64 -249l161 201 q28 32 40 71q7 24 -10.5 34t-65.5 10l14 54h298l-14 -54q-94 -7 -158 -77l-384 -481q-65 -80 -95 -99t-84 -20q-50 -1 -79 30.5t-16 79.5zM283 915q0 14 2 26h49q4 -44 28 -64.5t72 -20.5q46 0 81.5 23.5t45.5 61.5h46q-5 -58 -43 -102q-50 -62 -142 -62q-67 0 -103 35.5 t-36 102.5z" />
<glyph unicode="&#x40f;" horiz-adv-x="940" d="M-41 0l14 54h15q72 0 87 15q9 7 22 56l5 20l116 433q14 54 15 58.5t-1 16.5q-8 15 -79 15h-15l14 54h389l-14 -54h-15q-70 0 -86 -15q-7 -6 -10.5 -16.5t-16.5 -58.5l-139 -518h261l139 518q13 49 14.5 58.5t-1.5 16.5q-8 15 -79 15h-15l14 54h389l-14 -54h-15 q-70 0 -86 -15q-7 -6 -10.5 -16.5t-16.5 -58.5l-116 -433q-18 -68 -14 -76q10 -15 78 -15h15l-14 -54h-830z" />
<glyph unicode="&#x410;" horiz-adv-x="741" d="M-75 0l7 54h6q33 0 69 27.5t64 75.5l348 579h62l131 -622q8 -35 26 -47.5t64 -12.5h14l-7 -54h-374l7 54h16q50 0 66 8q17 7 17 23q0 13 -4 32l-20 103h-232l-46 -81q-14 -23 -14 -43q0 -42 81 -42h13l-8 -54h-286zM217 274h187l-46 241z" />
<glyph unicode="&#x411;" horiz-adv-x="793" d="M-50 0l14 54h15q71 0 86 15q7 6 11 16.5t17 58.5l116 434q13 49 14.5 58.5t-1.5 17.5q-8 14 -78 14h-15l14 54h672l-60 -269h-53q-1 93 -27 140q-43 75 -149 75h-21q-61 0 -78 -14q-22 -17 -33 -56l-53 -200h49q54 0 96.5 -2.5t82 -9t66.5 -17.5t49.5 -27t31.5 -38 t12.5 -50.5t-8.5 -64.5q-31 -111 -149 -159q-78 -30 -216 -30h-405zM257 74q3 -20 52 -20h30q71 0 115 30q57 39 78 116q22 81 -24 119q-31 24 -113 24h-69l-60 -225q-10 -36 -9 -44z" />
<glyph unicode="&#x412;" horiz-adv-x="749" d="M-41 0l7 54h4q62 0 77 14q6 6 9.5 15.5t16.5 60.5l117 434q13 48 13 63q0 17 -15 22t-64 5h-19l8 54h352q129 0 187 -35q77 -46 77 -136q0 -75 -60 -122.5t-171 -60.5q194 -34 194 -173q0 -54 -28 -97t-77 -62q-86 -36 -210 -36h-418zM236 84q0 -30 53 -30h33 q87 0 133 47t46 132q0 62 -37 89q-19 13 -40 17t-71 4h-50l-59 -221q-8 -28 -8 -38zM317 397h31q53 0 79.5 5.5t49.5 20.5q32 22 50.5 60.5t18.5 83.5q0 49 -25 75t-72 26h-15q-27 0 -38.5 -11.5t-21.5 -48.5z" />
<glyph unicode="&#x413;" horiz-adv-x="704" d="M-41 0l7 54h4q52 0 68 8.5t24 39.5q25 93 71 264t57 212q13 51 13 63q0 17 -15 22t-64 5h-19l8 54h613l-40 -245h-52q-1 89 -21 127q-30 64 -137 64h-36q-31 0 -43 -9.5t-20 -38.5l-127 -476q-14 -50 -14 -63q0 -17 15 -22t64 -5h27l-8 -54h-375z" />
<glyph unicode="&#x414;" horiz-adv-x="874" d="M-125 -222l90 276h85q59 0 113 94.5t88 221.5l55 207q3 12 5.5 21.5t3.5 16.5t1.5 12.5t0.5 8.5t-1 6.5t-1.5 4.5t-2.5 3t-2 3q-8 15 -78 15h-15l15 54h685l-15 -54h-15q-71 0 -87 -15q-8 -7 -20 -54q-4 -14 -6 -22l-116 -433q-13 -49 -14.5 -58.5t1.5 -16.5 q8 -15 78 -15h15l-58 -276h-53q6 72 -13.5 125t-61.5 77q-34 20 -125 20h-181q-91 0 -135 -20q-54 -24 -102 -77t-81 -125h-53zM233 95q-9 -11 -10.5 -18t6 -9.5t12.5 -3t17 -1.5h108q65 0 81 15q1 1 3.5 2.5t3.5 2.5t2.5 3t3 4.5t3.5 7t4 10.5t4.5 15t5.5 21l138 514h-116 q-57 0 -81 -81l-54 -203q-51 -183 -131 -279z" />
<glyph unicode="&#x415;" horiz-adv-x="741" d="M-41 0l7 54h4q52 0 68 8.5t24 39.5q25 93 71 264t57 212q13 51 13 63q0 17 -15 22t-64 5h-19l8 54h615l-40 -245h-52q-1 89 -21 127q-30 64 -137 64h-38q-31 0 -43 -9.5t-20 -38.5l-59 -219h21q65 0 103 27.5t63 94.5l53 -7l-90 -335l-53 7q5 37 5 62q0 97 -94 97h-22 l-63 -236q-6 -19 -6 -32q0 -25 54 -25h36q60 0 107 20t96 67q55 52 88 118l52 -11l-66 -248h-643z" />
<glyph unicode="&#x416;" horiz-adv-x="1202" d="M2 162h84q-18 -76 -12 -90q4 -10 15 -10q18 0 32 29t28 72t35 86.5t63 77t102 39.5q-26 9 -36.5 37t-7.5 63t9 74t13 70.5t5 52.5t-16 21q-36 0 -33 -14l2 -4q10 1 14.5 -3.5t3 -15t-3.5 -18.5t-7 -21q-14 -50 -94 -50q-26 0 -36.5 23.5t-4.5 52.5q3 32 41.5 67t113.5 35 q57 0 87 -18t35.5 -47t1.5 -64t-10 -70t-5 -64t22 -47t67 -18l41 1l46 169q17 67 16 71l-2 4q-8 15 -78 15h-15l14 54h389l-14 -54h-15q-71 0 -87 -15q-7 -6 -11 -17.5t-16 -57.5l-46 -169l41 -1q46 0 77 18t47.5 47t29 64t27.5 70t36 64t60.5 47t96.5 18q40 0 65.5 -12 t32 -28.5t8.5 -34t-5 -27.5q-10 -29 -33.5 -52.5t-49.5 -23.5q-12 0 -23.5 2t-23.5 6.5t-17.5 15.5t-1.5 26l4.5 21t6 18t11 15.5t15.5 3.5l6 7q2 7 -11 10l-16 1q-19 0 -38.5 -44.5t-36 -99.5t-50.5 -107.5t-78 -66.5q47 -5 72 -30t27.5 -58.5t-1.5 -71.5t-12 -70t-6.5 -53 t16.5 -21q10 0 17.5 6t15.5 24.5t11.5 28.5t12.5 41h84q-12 -46 -31 -79.5t-38 -52t-43.5 -29.5t-44 -14t-43.5 -3q-58 0 -87 19.5t-29 48t7 60.5q8 36 9 69.5t-7.5 64.5t-33 50.5t-63.5 20.5h-37l-47 -173q-13 -48 -15 -58t2 -17q8 -15 79 -15h15l-14 -54h-389l14 54h15 q70 0 86 15q6 6 9 14t17 61l47 173h-37q-52 -1 -96.5 -35t-69.5 -77.5t-39 -92.5q-16 -57 -55.5 -92.5t-123.5 -35.5q-19 0 -34.5 2t-32 8t-27 19t-17.5 31.5t-5 48.5t12 69z" />
<glyph unicode="&#x417;" horiz-adv-x="719" d="M12 208q22 80 92 80q31 0 45.5 -19t8.5 -41q-8 -31 -40 -52q-15 -9 -31 -7q-3 1 -6 3t-4 2q-9 0 -16 -6t-7 -15q-9 -36 8 -60t52 -34t61 -13t53 -3q80 0 141 40.5t82 120.5q15 54 -21.5 93t-95.5 39h-90l22 81h87q76 0 126 38t65 95q18 66 -9.5 100.5t-88.5 34.5 q-152 0 -299 -215h-53l83 259h45l39 -46q95 54 195 54q119 0 181 -55.5t36 -152.5q-11 -43 -51.5 -92.5t-80.5 -60.5q45 -6 67 -55t6 -111q-15 -57 -41 -97.5t-59 -65.5t-81 -39t-99 -19t-121 -5q-119 -1 -175 54t-26 170z" />
<glyph unicode="&#x418;" horiz-adv-x="940" d="M-41 0l14 54h15q71 0 86 15q7 6 11 16.5t17 58.5l116 433q13 49 15 59t-2 17q-8 15 -78 15h-15l14 54h389l-14 -54h-15q-71 0 -87 -15q-7 -6 -10.5 -16.5t-16.5 -59.5l-85 -315l337 284l9 31q13 51 14.5 58.5t-1.5 17.5q-8 15 -78 15h-15l14 54h389l-14 -54h-15 q-71 0 -87 -15q-7 -6 -10.5 -16.5t-16.5 -59.5l-116 -433q-19 -66 -14 -75q10 -15 79 -15h15l-14 -54h-389l14 54h15q71 0 86 15q7 6 11 16.5t17 58.5l81 302l-338 -284l-4 -18q-19 -66 -14 -75q10 -15 79 -15h15l-14 -54h-389z" />
<glyph unicode="&#x419;" horiz-adv-x="940" d="M-41 0l14 54h15q71 0 86 15q7 6 11 16.5t17 58.5l116 433q13 49 15 59t-2 17q-8 15 -78 15h-15l14 54h389l-14 -54h-15q-71 0 -87 -15q-7 -6 -10.5 -16.5t-16.5 -59.5l-85 -315l337 284l9 31q13 51 14.5 58.5t-1.5 17.5q-8 15 -78 15h-15l14 54h389l-14 -54h-15 q-71 0 -87 -15q-7 -6 -10.5 -16.5t-16.5 -59.5l-116 -433q-19 -66 -14 -75q10 -15 79 -15h15l-14 -54h-389l14 54h15q71 0 86 15q7 6 11 16.5t17 58.5l81 302l-338 -284l-4 -18q-19 -66 -14 -75q10 -15 79 -15h15l-14 -54h-389zM442 915q0 14 2 26h49q4 -44 28 -64.5 t72 -20.5q46 0 81.5 23.5t45.5 61.5h46q-5 -58 -43 -102q-50 -62 -142 -62q-67 0 -103 35.5t-36 102.5z" />
<glyph unicode="&#x41a;" horiz-adv-x="823" d="M-41 0l14 54h15q71 0 86 15q7 6 10 14.5t17 60.5l116 434q14 52 15.5 58.5t-1.5 16.5q-8 15 -78 15h-15l14 54h389l-14 -54h-15q-71 0 -87 -15q-7 -6 -10.5 -16.5t-16.5 -58.5l-45 -169l40 -1q46 0 77 18t47.5 47t29 64t27.5 70t36 64t60.5 47t96.5 18q40 0 65.5 -12 t32 -28.5t8.5 -34t-5 -27.5q-10 -29 -33 -52.5t-49 -23.5q-12 0 -23.5 2t-24 6.5t-18 15.5t-1.5 26l4.5 21t6 18t11 15.5t15.5 3.5l6 7q2 7 -11 10l-16 1q-19 0 -38.5 -44.5t-36 -99.5t-50.5 -107.5t-78 -66.5q47 -5 72 -30t28 -58.5t-1 -71.5t-12 -70t-6.5 -53t16.5 -21 q26 0 52 88q3 8 4 12h84q-15 -57 -38.5 -95t-52.5 -54.5t-53.5 -22.5t-54.5 -6q-44 0 -71.5 11t-36.5 30.5t-9 40t7 46.5q9 47 9.5 92t-26.5 78.5t-78 34.5h-37l-46 -173q-18 -67 -14 -75q10 -15 79 -15h15l-14 -54h-389z" />
<glyph unicode="&#x41b;" horiz-adv-x="975" d="M-6 138q14 52 48.5 77.5t79.5 24.5q49 -1 67.5 -25t8.5 -57q-10 -35 -26.5 -45t-34 -10.5t-25.5 -10.5q-12 -16 0.5 -27t37.5 -11q59 0 113 94.5t88 221.5l55 207q3 12 5.5 21.5t4 16.5t1.5 12.5v8.5t-1 6.5t-1 4.5t-2 3l-2 3q-8 15 -78 15h-15l14 54h685l-14 -54h-15 q-71 0 -87 -15q-7 -6 -10.5 -16.5t-16.5 -59.5l-116 -433q-14 -54 -15 -58.5t1 -16.5q8 -15 79 -15h15l-14 -54h-389l14 54h15q65 0 81 15q6 5 9 9t9 20t14 46l139 518h-116q-56 0 -81 -84l-55 -204q-107 -390 -357 -390q-71 0 -100.5 44.5t-12.5 109.5z" />
<glyph unicode="&#x41c;" horiz-adv-x="929" d="M-41 0l7 54q41 3 62.5 34.5t47.5 127.5l97 362q14 52 14 63q0 17 -15 22t-64 5h-19l7 54h293l35 -463l278 463h269l-7 -54h-4q-62 0 -77 -14q-6 -5 -9 -14.5t-17 -61.5l-117 -434q-13 -52 -13 -63q0 -17 15 -22t64 -5h19l-8 -54h-367l7 54h4q62 0 76 14q7 6 10 15.5 t17 60.5l112 418l-337 -562h-63l-39 566l-94 -350q-21 -84 -21 -107q0 -55 82 -55l-8 -54h-237z" />
<glyph unicode="&#x41d;" horiz-adv-x="870" d="M-41 0l7 54h4q52 0 68 8.5t24 39.5q1 3 5 18.5t6 23.5l117 434q13 49 13 63q0 17 -15 22t-64 5h-19l8 54h375l-7 -54h-12q-62 0 -76 -14q-7 -5 -10 -14.5t-17 -61.5l-48 -177h256l47 177q14 49 14 63q0 17 -15 22t-64 5h-11l8 54h359l-7 -54h-4q-62 0 -77 -14 q-6 -5 -9 -14.5t-17 -61.5l-117 -434q-13 -52 -13 -63q0 -17 15 -22t64 -5h22l-7 -54h-379l7 54h12q62 0 76 14q7 6 10.5 15.5t16.5 60.5l53 196h-256l-52 -196q-14 -48 -14 -63q0 -17 15 -22t64 -5h11l-8 -54h-359z" />
<glyph unicode="&#x41e;" horiz-adv-x="833" d="M36 286q0 90 37 175.5t103 148.5q134 127 314 127q137 0 224 -91q83 -85 83 -205q0 -186 -135 -321t-320 -135q-139 0 -222.5 82.5t-83.5 218.5zM215 193q0 -71 34 -112.5t93 -41.5q108 0 191 157q37 72 58.5 159t21.5 165q0 71 -27 111q-15 23 -42.5 37.5t-56.5 14.5 q-110 0 -187 -155q-37 -75 -61 -170t-24 -165z" />
<glyph unicode="&#x41f;" horiz-adv-x="940" d="M-41 0l14 54h15q71 0 86 15q7 6 11 16.5t17 58.5l116 433q13 49 15 59t-2 17q-8 15 -78 15h-15l14 54h830l-14 -54h-15q-71 0 -87 -15q-8 -7 -20 -54q-4 -14 -6 -22l-116 -433q-19 -67 -15 -75q10 -15 79 -15h15l-14 -54h-389l14 54h15q71 0 86 15q7 6 11 16.5t17 58.5 l138 518h-261l-138 -518q-19 -66 -14 -75q10 -15 79 -15h15l-14 -54h-389z" />
<glyph unicode="&#x420;" horiz-adv-x="741" d="M-38 0l7 54h4q52 0 68 8.5t24 39.5q24 93 70 264t57 212q14 52 14 63q0 17 -15.5 22t-64.5 5h-14l7 54h315q162 0 225 -45q72 -51 72 -144q0 -64 -32.5 -113.5t-90.5 -74.5q-75 -34 -231 -34h-80l-45 -167q-14 -51 -14 -63q0 -17 15.5 -22t64.5 -5h25l-7 -54h-374z M311 365h49q84 0 127 35q28 23 46.5 69t18.5 94t-25 76.5t-68 28.5h-17q-32 0 -43.5 -9.5t-20.5 -43.5z" />
<glyph unicode="&#x421;" horiz-adv-x="759" d="M35 292q0 179 131 312t307 133q117 0 184 -82l56 57h46l-58 -286l-49 6q-4 128 -44.5 190t-120.5 62q-104 0 -167 -108q-44 -72 -69.5 -163t-25.5 -175q0 -88 46.5 -139t125.5 -51q68 0 129.5 46t89.5 118h63q-25 -79 -88 -142q-85 -85 -223 -85q-71 0 -137.5 23 t-108.5 63q-87 82 -87 221z" />
<glyph unicode="&#x422;" horiz-adv-x="722" d="M44 455l71 267h647l-44 -283l-53 5q3 34 3 60q0 79 -30.5 121.5t-87.5 42.5q-22 0 -28 -6.5t-15 -38.5l-128 -479q-14 -51 -14 -63q0 -17 15.5 -22t64.5 -5h25l-7 -54h-397l7 54h27q62 0 76 14q7 6 10.5 15.5t16.5 60.5l130 485q4 13 4 24q0 15 -28 15q-64 0 -113.5 -53 t-101.5 -176z" />
<glyph unicode="&#x423;" horiz-adv-x="693" d="M-68 101q11 41 37 64t56 23q33 0 47 -17t5 -48q-6 -24 -32 -40q-1 -1 -5 -2.5t-7 -4t-4 -6.5q-2 -8 3 -13.5t18 -5.5q14 0 28 6.5t28.5 21t23 25t24 31t19.5 26.5l-113 456q-8 30 -22.5 39.5t-49.5 11.5l14 54h358l-14 -54q-77 0 -85 -29q-6 -21 0 -38l64 -249l161 201 q28 32 40 71q7 24 -10.5 34t-65.5 10l14 54h298l-14 -54q-94 -7 -158 -77l-384 -481q-65 -80 -95 -99t-84 -20q-50 -1 -79 30.5t-16 79.5z" />
<glyph unicode="&#x424;" horiz-adv-x="946" d="M13 376q15 54 45 97.5t63 70t77.5 45.5t78 27.5t74.5 13t56 4.5h33h4l4 14q8 33 3 42q-8 15 -78 15h-15l15 54h389l-15 -54h-15q-71 0 -87 -15q-7 -6 -17 -42l-4 -14q285 0 310 -156q7 -43 -7 -96q-14 -51 -39 -92.5t-55 -68.5t-66 -48.5t-71 -31.5t-69 -18.5t-61.5 -8.5 t-48.5 -2t-29 0h-4l-2 -9q-6 -22 -6 -24t3 -10q8 -15 79 -15h15l-15 -54h-389l15 54h15q70 0 86 15q12 10 19 43h-4q-7 -2 -21 -0.5t-33 1t-41.5 4t-46 9t-46 15t-43 23.5t-35.5 34t-23.5 45.5t-8.5 58.5t11 74zM185 370q-12 -45 -12.5 -81t6.5 -58t23 -38t29.5 -23.5 t33.5 -11.5t28 -4h20h3l118 443h-4q-8 -1 -21 0.5t-31.5 -3.5t-38 -11.5t-42 -24t-42 -40.5t-38.5 -61.5t-32 -86.5zM496 154h4q18 -1 33.5 0t50 12t61.5 32t57 67t47 111q11 41 13.5 75t-3 56t-15.5 39.5t-24 26t-28.5 15.5t-29 7.5t-26 2t-17.5 -0.5h-5z" />
<glyph unicode="&#x425;" horiz-adv-x="741" d="M-72 0l7 54q37 -1 70.5 16t77.5 59l217 213l-126 280q-14 29 -27 37.5t-47 8.5h-37l8 54h374l-7 -54h-33q-31 0 -42.5 -4.5t-11.5 -15.5q0 -8 9 -29l69 -151l123 122q24 22 24 46q0 32 -60 32h-16l7 54h304l-7 -54q-54 -4 -83.5 -19.5t-87.5 -71.5l-180 -173l132 -295 q15 -33 34.5 -44t62.5 -11h23l-7 -54h-387l7 54h41q29 0 39.5 4.5t10.5 17.5q0 10 -10 33l-73 170l-135 -132q-31 -30 -31 -53q0 -40 66 -40h22l-7 -54h-313z" />
<glyph unicode="&#x426;" horiz-adv-x="940" d="M-41 0l14 54h15q72 0 87 15q7 6 11 16.5t17 59.5l116 433q13 49 14.5 58.5t-1.5 16.5q-8 15 -79 15h-15l14 54h389l-14 -54h-15q-70 0 -86 -15q-7 -6 -10.5 -16.5t-16.5 -58.5l-139 -518h261l139 518q13 49 14.5 58.5t-1.5 16.5q-8 15 -79 15h-15l14 54h389l-14 -54h-15 q-70 0 -86 -15q-7 -6 -10.5 -16.5t-16.5 -58.5l-116 -433q-18 -68 -14 -76q10 -15 78 -15h15l-57 -276h-53q11 151 -76 201q-34 21 -124 21h-534z" />
<glyph unicode="&#x427;" horiz-adv-x="894" d="M111 668l14 54h389l-14 -54h-15q-71 0 -87 -15q-7 -6 -10.5 -16.5t-16.5 -59.5l-51 -195q-7 -27 17 -54t57 -28q94 2 162 63l57 214q13 51 14.5 58.5t-1.5 17.5q-8 15 -78 15h-15l14 54h389l-14 -54h-15q-71 0 -87 -15q-7 -6 -10.5 -16.5t-16.5 -59.5l-116 -433 q-19 -66 -14 -75q10 -15 79 -15h15l-14 -54h-389l14 54h15q71 0 86 15q7 6 11 16.5t17 58.5l43 159q-61 -63 -171 -63q-43 0 -80 5t-79.5 18.5t-62 44t-7.5 74.5l51 195q13 49 15 59t-2 17q-8 15 -78 15h-15z" />
<glyph unicode="&#x428;" horiz-adv-x="1304" d="M-41 0l14 54h15q71 0 86 15q7 6 11 16.5t17 59.5l116 433q13 48 15 58t-2 17q-8 15 -78 15h-15l14 54h379l-14 -54h-15q-61 0 -77 -15q-7 -6 -10.5 -16.5t-16.5 -58.5l-139 -518h224l139 518q13 48 15 58t-2 17q-5 9 -18 12t-50 3h-15l14 54h369l-14 -54h-15 q-61 0 -77 -15q-7 -6 -10.5 -16.5t-16.5 -58.5l-139 -518h221l139 518q13 48 15 58t-2 17q-5 9 -18 12t-50 3h-15l14 54h379l-14 -54h-15q-71 0 -87 -15q-7 -6 -10.5 -16.5t-16.5 -58.5l-116 -433q-18 -68 -14 -76q10 -15 79 -15h15l-14 -54h-1194z" />
<glyph unicode="&#x429;" horiz-adv-x="1304" d="M-41 0l14 54h15q71 0 86 15q7 6 11 16.5t17 59.5l116 433q13 48 15 58t-2 17q-8 15 -78 15h-15l14 54h379l-14 -54h-15q-61 0 -77 -15q-7 -6 -10.5 -16.5t-16.5 -58.5l-139 -518h224l139 518q13 48 15 58t-2 17q-5 9 -18 12t-50 3h-15l14 54h369l-14 -54h-15 q-61 0 -77 -15q-7 -6 -10.5 -16.5t-16.5 -58.5l-139 -518h221l139 518q13 48 15 58t-2 17q-5 9 -18 12t-50 3h-15l14 54h379l-14 -54h-15q-71 0 -87 -15q-7 -6 -10.5 -16.5t-16.5 -58.5l-116 -433q-18 -68 -14 -76q10 -15 79 -15h15l-57 -276h-53q11 151 -76 201 q-34 21 -124 21h-898z" />
<glyph unicode="&#x42a;" horiz-adv-x="868" d="M44 451l88 271h533l-15 -54h-22q-70 0 -87 -14q-7 -7 -10.5 -17.5t-16.5 -58.5l-44 -166h112q157 0 221.5 -53t36.5 -158q-15 -56 -53 -100t-92 -66q-85 -35 -223 -35h-397l15 55h15q69 0 86 14q7 7 10.5 17.5t16.5 58.5l130 484q7 25 2 33t-27 8q-68 0 -135 -71 q-46 -48 -91 -148h-53zM390 115q-10 -37 -2.5 -48.5t41.5 -11.5h40q71 0 114.5 35t63.5 110q23 86 -7 121.5t-127 35.5h-58z" />
</font>
</defs>
</svg>
