<?xml version="1.0" standalone="no"?>
<!DOCTYPE svg PUBLIC "-//W3C//DTD SVG 1.1//EN" "http://www.w3.org/Graphics/SVG/1.1/DTD/svg11.dtd" >
<svg xmlns="http://www.w3.org/2000/svg">
<metadata></metadata>
<defs>
<font id="texgyrescholaitalic" horiz-adv-x="333" >
<font-face units-per-em="1000" ascent="798" descent="-202" />
<missing-glyph horiz-adv-x="278" />
<glyph unicode="IJ" horiz-adv-x="930" d="M79 0l5 47q70 1 84 14q9 9 23 62l128 476q10 39 10 49q0 17 -15.5 22t-64.5 5h-22l6 47h310l-5 -47q-70 -1 -84 -14q-9 -9 -23 -62l-128 -476q-10 -38 -10 -48q0 -17 15.5 -22.5t64.5 -5.5h22l-6 -47h-310zM416 143q0 61 35 103t86 42q35 0 57 -19.5t22 -51.5 q0 -31 -18.5 -50.5t-47.5 -19.5q-10 0 -29 8.5t-31 8.5q-11 0 -18.5 -9t-7.5 -23q0 -44 35 -74t87 -30q63 0 100.5 43.5t65.5 147.5l102 380q10 40 10 49q0 17 -15 22t-64 5h-30l6 47h314l-5 -47h-18q-49 0 -63 -14q-6 -6 -9.5 -14.5t-13.5 -47.5l-109 -407 q-29 -107 -89.5 -157t-160.5 -50q-90 0 -140.5 41.5t-50.5 116.5z" />
<glyph unicode="ij" horiz-adv-x="649" d="M150 48q0 24 22 101l58 195q9 33 9 44q0 31 -57 31h-24l4 36l192 15l-106 -357q-12 -42 -12 -56q0 -21 17 -21q42 0 121 121l31 -17q-23 -35 -38.5 -55.5t-40 -47t-51 -39t-56.5 -12.5q-29 0 -49 18t-20 44zM290 -122q0 26 15.5 43t40.5 17q21 0 34.5 -13t13.5 -34 q0 -12 -8 -27q-5 -8 -5 -14q0 -7 6.5 -12.5t14.5 -5.5q66 0 108 163q17 69 25 92l76 257q9 30 9 43q0 17 -13 24.5t-44 7.5h-35l4 36l203 15l-119 -400q-32 -109 -45.5 -141.5t-35.5 -60.5q-61 -70 -143 -70q-47 0 -74.5 21.5t-27.5 58.5zM295 610q0 20 14.5 34.5t34.5 14.5 t34.5 -14.5t14.5 -34.5t-14.5 -34.5t-34.5 -14.5t-34.5 14.5t-14.5 34.5zM675 610q0 20 14.5 34.5t34.5 14.5t34.5 -14.5t14.5 -34.5t-14.5 -34.5t-34.5 -14.5t-34.5 14.5t-14.5 34.5z" />
<glyph unicode="fk" horiz-adv-x="849" d="M-68 -202q94 209 148 436l41 174h-89l13 47h87q33 121 70 181q60 100 157 100q30 0 55 -11l155 12l-124 -418q51 79 98 115t99 36q41 0 69.5 -26.5t28.5 -64.5q0 -102 -183 -167q24 -20 34 -45t14 -77q2 -30 6 -39.5t15 -9.5q18 0 39.5 23.5t64.5 89.5l31 -20 q-47 -78 -86.5 -113.5t-80.5 -35.5q-74 0 -74 100l1 49v37q0 27 -16 27l-34 -3q-9 0 -15.5 6.5t-6.5 15.5q0 27 31 27q15 0 27 -5l13 -3q10 0 42 16q97 48 97 107q0 22 -13 36.5t-33 14.5q-28 0 -64.5 -25t-69.5 -67q-24 -31 -49.5 -84t-40.5 -104l-38 -130h-87l177 599 q-11 -6 -25 -6q-22 0 -37 13t-15 32q0 14 9 28q7 12 7 18q0 17 -24 17q-53 0 -88 -86q-21 -50 -49 -160h129l-14 -47h-126l-62 -247q-50 -198 -104 -345z" />
<glyph unicode="ff" horiz-adv-x="686" d="M-68 -202q94 209 148 436l41 174h-89l13 47h87q33 121 70 181q60 100 157 100q48 0 79.5 -25.5t31.5 -64.5q0 -23 -15.5 -38t-38.5 -15q-22 0 -37 13t-15 32q0 14 9 28q7 12 7 18q0 17 -24 17q-53 0 -88 -86q-21 -50 -49 -160h202q33 121 70 181q60 100 157 100 q48 0 79.5 -25.5t31.5 -64.5q0 -23 -15.5 -38t-38.5 -15q-22 0 -37 13t-15 32q0 14 9 28q7 12 7 18q0 17 -24 17q-53 0 -88 -86q-21 -50 -49 -160h129l-14 -47h-126l-62 -247q-50 -198 -104 -345l-110 -18q94 209 148 436l41 174h-202l-62 -247q-50 -198 -104 -345z" />
<glyph unicode="fi" horiz-adv-x="611" d="M-60 -202q85 180 148 436l41 174h-89l13 47h87q26 88 38.5 116.5t38.5 64.5q73 100 198 100q55 0 89.5 -24t34.5 -62q0 -24 -16 -40.5t-40 -16.5q-22 0 -37.5 13t-15.5 32q0 14 8 28t8 18q0 18 -36 18q-83 0 -127 -87q-26 -49 -56 -160h90q81 0 196 14l-106 -356 q-12 -44 -12 -56q0 -21 17 -21q20 0 53 33t69 89l30 -18q-91 -154 -187 -154q-29 0 -48.5 18t-19.5 45q0 26 23 100l54 184q12 43 12 52q0 13 -12.5 18t-43.5 5h-126l-62 -247q-16 -64 -51.5 -181.5t-52.5 -163.5z" />
<glyph unicode="fl" horiz-adv-x="611" d="M-60 -202q85 181 148 436l41 174h-89l13 47h87q28 91 39.5 118t38.5 63q38 52 86 76t116 24q33 0 65 -7l109 7l-185 -623q-13 -44 -13 -57q0 -20 18 -20q21 0 54 33t69 89l31 -18q-91 -155 -187 -155q-30 0 -47.5 19t-17.5 51q0 38 27 128l124 418q-23 12 -23 37 q0 6 8 24t8 23q0 16 -43 16q-89 0 -134 -86q-26 -53 -56 -160h143l-13 -47h-141l-62 -247q-16 -64 -51.5 -181.5t-52.5 -163.5z" />
<glyph unicode="ffi" horiz-adv-x="904" d="M-68 -202q94 209 148 436l41 174h-89l13 47h87q33 121 70 181q60 100 157 100q48 0 79.5 -25.5t31.5 -64.5q0 -23 -15.5 -38t-38.5 -15q-22 0 -37 13t-15 32q0 14 9 28q7 12 7 18q0 17 -24 17q-53 0 -88 -86q-21 -50 -49 -160h200q26 88 38.5 116.5t38.5 64.5 q73 100 198 100q55 0 89.5 -24t34.5 -62q0 -24 -16 -40.5t-40 -16.5q-22 0 -37.5 13t-15.5 32q0 14 8 28t8 18q0 18 -36 18q-83 0 -127 -87q-26 -49 -56 -160h90q81 0 196 14l-106 -356q-12 -44 -12 -56q0 -21 17 -21q20 0 53 33t69 89l30 -18q-91 -154 -187 -154 q-29 0 -48.5 18t-19.5 45q0 26 23 100l54 184q12 43 12 52q0 13 -12.5 18t-43.5 5h-126l-62 -247q-16 -64 -51.5 -181.5t-52.5 -163.5l-110 -18q85 180 148 436l41 174h-200l-62 -247q-50 -198 -104 -345z" />
<glyph unicode="ffl" horiz-adv-x="904" d="M-68 -202q94 209 148 436l41 174h-89l13 47h87q33 121 70 181q60 100 157 100q48 0 79.5 -25.5t31.5 -64.5q0 -23 -15.5 -38t-38.5 -15q-22 0 -37 13t-15 32q0 14 9 28q7 12 7 18q0 17 -24 17q-53 0 -88 -86q-21 -50 -49 -160h190q28 91 39.5 118t38.5 63q38 52 86 76 t116 24q33 0 65 -7l109 7l-185 -623q-13 -44 -13 -57q0 -20 18 -20q21 0 54 33t69 89l31 -18q-91 -155 -187 -155q-30 0 -47.5 19t-17.5 51q0 38 27 128l124 418q-23 12 -23 37q0 6 8 24t8 23q0 16 -43 16q-89 0 -134 -86q-26 -53 -56 -160h143l-13 -47h-141l-62 -247 q-16 -64 -51.5 -181.5t-52.5 -163.5l-110 -18q85 181 148 436l41 174h-190l-62 -247q-50 -198 -104 -345z" />
<glyph unicode=" "  horiz-adv-x="278" />
<glyph unicode="&#x09;" horiz-adv-x="278" />
<glyph unicode="&#xa0;" horiz-adv-x="278" />
<glyph unicode="!" d="M30 47q0 25 18 43.5t44 18.5t44 -18.5t18 -43.5q0 -26 -18.5 -44t-44.5 -18q-25 0 -43 18.5t-18 43.5zM104 192q66 249 79 434q4 52 23.5 81.5t50.5 29.5q26 0 42.5 -16t16.5 -42q0 -22 -6.5 -39.5t-43.5 -96.5q-67 -147 -126 -361z" />
<glyph unicode="&#x22;" horiz-adv-x="400" d="M100 520l56 175q11 37 42 37q18 0 31.5 -13t13.5 -30q0 -13 -13 -32l-110 -147zM252 520l56 175q11 37 42 37q18 0 31.5 -13t13.5 -30q0 -15 -13 -32l-110 -147z" />
<glyph unicode="#" horiz-adv-x="556" d="M33 220v56h109l21 148h-103v56h111l30 206h65l-30 -206h123l30 206h65l-30 -206h100v-56h-108l-21 -148h102v-56h-110l-32 -220h-65l32 220h-123l-32 -220h-65l32 220h-101zM207 276h123l21 148h-123z" />
<glyph unicode="$" horiz-adv-x="556" d="M3 143q0 40 21.5 65.5t55.5 25.5q27 0 44.5 -16.5t17.5 -42.5q0 -43 -49 -57q-20 -5 -20 -18q0 -21 29.5 -41.5t69.5 -28.5l74 274l-6 3l-6 2q-63 26 -97 72t-34 104q0 87 70 147.5t170 60.5h7l27 99h43l-28 -103q66 -12 105 -52t39 -96q0 -36 -18 -56.5t-49 -20.5 q-25 0 -41.5 15.5t-16.5 38.5q0 35 34 52q17 9 17 21q0 16 -23 32t-58 24l-70 -259q46 -19 66 -31q96 -62 96 -158q0 -59 -33.5 -107.5t-94.5 -77.5q-58 -27 -134 -28h-7l-33 -121h-43l34 124q-71 12 -115 54.5t-44 99.5zM183 522q0 -40 24 -70.5t66 -47.5l66 247 q-73 -1 -114.5 -35.5t-41.5 -93.5zM215 26q37 1 67 10q46 14 74.5 49t28.5 78q0 85 -87 120q-7 3 -13 5z" />
<glyph unicode="%" horiz-adv-x="833" d="M46 445q0 90 73.5 176.5t159.5 86.5q55 0 91 -47q39 -22 73 -22q101 0 162 83h46l-414 -722h-50l362 635q-53 -30 -97 -30q-29 0 -65 12q4 -23 4 -36q0 -95 -67 -177.5t-150 -82.5q-56 0 -92 35t-36 89zM130 419q0 -27 16.5 -44.5t42.5 -17.5q61 0 114.5 73t53.5 157 q0 17 -6 43q-40 15 -64 43q-33 -11 -49.5 -28t-45.5 -67q-62 -109 -62 -159zM445 136q0 93 72 179t158 86q51 0 84 -33.5t33 -85.5q0 -89 -65 -178t-152 -89q-56 0 -93 34.5t-37 86.5zM527 111q0 -25 17 -42.5t42 -17.5q62 0 116.5 73.5t54.5 155.5q0 35 -19 59.5t-46 24.5 q-46 0 -91 -74q-74 -120 -74 -179z" />
<glyph unicode="&#x26;" horiz-adv-x="852" d="M24 170q0 81 53 139.5t186 114.5q-8 60 -8 93q0 100 51 160t136 60q68 0 110 -36.5t42 -94.5q0 -67 -49.5 -111t-172.5 -79q44 -186 106 -270q110 102 110 159q0 49 -64 49h-17l6 43h260l-5 -43q-50 -5 -78 -28.5t-83 -101.5q-47 -67 -100 -116q45 -52 91 -52 q34 0 59.5 19t61.5 71l34 -21q-89 -140 -201 -140q-75 0 -130 58q-104 -58 -200 -58q-89 0 -143.5 51t-54.5 134zM139 196q0 -62 36.5 -108.5t98.5 -46.5q56 0 118 39q-81 130 -121 299q-132 -66 -132 -183zM354 565q0 -40 10 -106q73 24 116 63t43 87q0 35 -22.5 58.5 t-56.5 23.5q-41 0 -65.5 -34t-24.5 -92z" />
<glyph unicode="'" horiz-adv-x="278" d="M114 520l58 175q11 37 43 37q19 0 33 -12.5t14 -28.5q0 -15 -14 -34l-114 -147z" />
<glyph unicode="(" d="M40 213q0 170 99 318.5t250 204.5l10 -23q-63 -33 -100.5 -66.5t-66.5 -83.5q-52 -89 -82.5 -208t-30.5 -233q0 -66 12.5 -116t45.5 -114l-21 -15q-116 144 -116 336z" />
<glyph unicode=")" d="M-93 -100q63 34 100.5 67.5t65.5 82.5q52 90 82.5 208.5t30.5 233.5q0 65 -12.5 114.5t-44.5 114.5l21 15q115 -143 115 -336q0 -170 -98.5 -318t-249.5 -205z" />
<glyph unicode="*" horiz-adv-x="500" d="M34 450q0 17 13.5 30.5t31.5 13.5q3 0 19 -2q34 -6 49 -6q19 0 43 6l32 9l-23 24q-19 17 -33.5 25.5t-47.5 20.5q-39 16 -39 47q0 17 11.5 29t29.5 12q33 0 47 -39q13 -35 20.5 -48t26.5 -32l23 -24l9 33q6 21 6 42q0 5 -3.5 32.5t-3.5 37.5q0 17 13.5 30.5t30.5 13.5 q16 0 28 -13t12 -31q0 -17 -17 -37q-23 -27 -30.5 -40t-14.5 -41l-9 -32l33 8q36 10 80 46q21 17 37 17q18 0 31 -12t13 -29t-14 -30.5t-31 -13.5q-3 0 -19 2q-33 7 -47 7q-13 0 -45 -7l-32 -9l24 -24q26 -26 79 -46q40 -16 40 -47q0 -18 -11.5 -29.5t-29.5 -11.5 q-33 0 -47 39q-12 34 -19.5 46.5t-27.5 33.5l-23 24l-9 -33q-6 -21 -6 -41q0 -5 3.5 -32t3.5 -38q0 -18 -13 -31.5t-31 -13.5q-16 0 -28 13t-12 31q0 17 17 37q23 29 30.5 41.5t14.5 39.5l9 32l-33 -8q-35 -10 -80 -46q-21 -17 -37 -17q-18 0 -31 12t-13 29z" />
<glyph unicode="+" horiz-adv-x="606" d="M35 210v80h223v223h80v-223h223v-80h-223v-223h-80v223h-223z" />
<glyph unicode="," horiz-adv-x="278" d="M-39 -136q113 52 127 131q-7 -1 -17 -1q-25 0 -40.5 14.5t-15.5 38.5q0 26 19.5 44t47.5 18q30 0 49.5 -22.5t19.5 -57.5q0 -58 -48 -111.5t-129 -84.5z" />
<glyph unicode="-" d="M32 195l22 83h205l-22 -83h-205z" />
<glyph unicode="." horiz-adv-x="278" d="M17 47q0 25 18.5 43.5t43.5 18.5t43.5 -18.5t18.5 -43.5q0 -26 -18.5 -44t-44.5 -18q-25 0 -43 18.5t-18 43.5z" />
<glyph unicode="/" horiz-adv-x="606" d="M140 -108l268 830h58l-268 -830h-58z" />
<glyph unicode="0" horiz-adv-x="556" d="M29 232q0 117 43 225.5t118 177.5t161 69q79 0 127.5 -69t48.5 -181q0 -121 -45 -230t-120 -174t-159 -65q-77 0 -125.5 69t-48.5 178zM124 158q0 -64 22 -98.5t62 -34.5q53 0 98 61.5t70.5 148t39.5 166.5t14 130q0 133 -81 133q-62 0 -116 -90t-81.5 -205.5 t-27.5 -210.5z" />
<glyph unicode="1" horiz-adv-x="556" d="M50 0l5 47h43q69 0 84 14q9 9 23 62l107 400q10 36 10 45q0 13 -11 16.5t-57 3.5h-69l12 44q54 0 123 22.5t110 53.5h29l-157 -585q-9 -41 -9 -49q0 -17 15 -22t64 -5h54l-6 -47h-370z" />
<glyph unicode="2" horiz-adv-x="556" d="M-35 0q7 42 62 100t253 229q68 59 95.5 105.5t27.5 102.5q0 53 -32.5 85t-84.5 32q-50 0 -96 -29.5t-46 -61.5q0 -9 5.5 -14.5t22.5 -14.5q46 -25 46 -61q0 -27 -18.5 -45.5t-46.5 -18.5q-35 0 -56 25t-21 67q0 82 71.5 142.5t167.5 60.5q86 0 139.5 -48.5t53.5 -126.5 q0 -59 -26.5 -106.5t-86.5 -93.5q-13 -10 -169 -119q-113 -79 -148 -125h232q36 0 53.5 13.5t45.5 62.5l26 46l36 -14l-77 -193h-429z" />
<glyph unicode="3" horiz-adv-x="556" d="M-2 143q0 39 19.5 62.5t51.5 23.5q26 0 45 -18.5t19 -43.5q0 -40 -41 -58q-20 -9 -20 -22q0 -24 31.5 -42t72.5 -18q80 0 127 60.5t47 151.5q0 46 -22 75t-57 29q-8 0 -29.5 -3t-28.5 -3q-29 0 -29 26q0 28 34 28q11 -4 58 -4q50 0 90 53.5t40 119.5q0 46 -28.5 72.5 t-78.5 26.5q-35 0 -66 -15.5t-31 -33.5q0 -5 17.5 -29t17.5 -39q0 -25 -16 -41t-41 -16q-28 0 -45.5 19t-17.5 50q0 61 59.5 105.5t141.5 44.5q83 0 135.5 -44.5t52.5 -114.5q0 -58 -35 -102.5t-97 -67.5q-21 -6 -34 -11q118 -38 118 -144q0 -100 -76.5 -167.5t-189.5 -67.5 q-90 0 -142 42.5t-52 115.5z" />
<glyph unicode="4" horiz-adv-x="556" d="M-8 184v42l466 482h54l-126 -470h114l-14 -54h-114l-17 -61q-10 -36 -10 -49q0 -17 15.5 -22t64.5 -5h18l-5 -47h-311l6 47h18q69 0 84 14q6 5 8.5 12.5t14.5 49.5l16 61h-282zM65 238h224l85 318z" />
<glyph unicode="5" horiz-adv-x="556" d="M4 137q0 36 22 60.5t55 24.5q26 0 43 -16t17 -40q0 -33 -26 -51q-38 -17 -38 -28q0 -25 32 -43t75 -18q77 0 132 69.5t55 166.5q0 62 -30 95.5t-86 33.5t-103 -36q-5 -56 -44 -56q-15 0 -25.5 10t-10.5 24t8.5 24.5t31.5 25.5l91 321q110 -29 205 -29q56 0 124 29 q8 0 8 -12q0 -37 -56 -71.5t-129 -34.5q-52 0 -131 16l-56 -189q69 33 126 33q82 0 134 -48.5t52 -123.5q0 -119 -86 -204t-207 -85q-79 0 -131 43t-52 109z" />
<glyph unicode="6" horiz-adv-x="556" d="M36 221q0 82 28.5 168t76 156t114.5 114.5t139 44.5q67 0 110 -33.5t43 -84.5q0 -34 -19 -54.5t-50 -20.5q-26 0 -42 15t-16 39q0 12 11 38t11 30q0 14 -13.5 22.5t-36.5 8.5q-80 0 -143 -93.5t-91 -235.5q61 94 165 94q75 0 122 -48t47 -125q0 -111 -75 -191t-186 -80 q-91 0 -143 63t-52 173zM129 153q0 -60 27 -93.5t75 -33.5q66 0 111 64.5t45 159.5q0 58 -25.5 89.5t-71.5 31.5q-69 0 -115 -62.5t-46 -155.5z" />
<glyph unicode="7" horiz-adv-x="556" d="M69 493l97 211l25 -1l101 -6q54 -3 95 -3q87 0 174 10v-30l-94 -146q-104 -169 -143 -253t-76 -225q-10 -35 -25.5 -50t-42.5 -15t-42.5 15.5t-15.5 42.5q0 50 62 150q49 80 177 260l109 156h-169q-79 0 -107 -14.5t-64 -73.5l-24 -40z" />
<glyph unicode="8" horiz-adv-x="556" d="M8 142q0 140 181 209q-40 29 -57.5 61t-17.5 78q0 90 66 152t163 62q80 0 132 -44t52 -112q0 -60 -33 -99t-118 -79q59 -38 81.5 -74.5t22.5 -86.5q0 -97 -74.5 -160.5t-189.5 -63.5q-96 0 -152 42.5t-56 114.5zM89 154q0 -58 37 -91.5t101 -33.5q70 0 118 39t48 96 q0 50 -37 83t-129 77q-138 -62 -138 -170zM194 538q0 -43 31.5 -75.5t107.5 -69.5q52 18 85.5 63.5t33.5 97.5q0 47 -33 77t-84 30q-58 0 -99.5 -36t-41.5 -87z" />
<glyph unicode="9" horiz-adv-x="556" d="M7 102q0 32 19 53t49 21q26 0 43 -16.5t17 -41.5q0 -12 -12.5 -35t-12.5 -26q0 -30 50 -30q77 0 138.5 82.5t94.5 232.5q-67 -85 -163 -85q-72 0 -121 48t-49 119q0 107 75.5 193.5t184.5 86.5q93 0 146 -66.5t53 -183.5q0 -105 -47 -213t-131.5 -182t-180.5 -74 q-67 0 -110 33t-43 84zM166 434q0 -56 25.5 -87t72.5 -31q69 0 114.5 61t45.5 154q0 60 -28.5 95.5t-76.5 35.5q-65 0 -109 -68t-44 -160z" />
<glyph unicode=":" horiz-adv-x="278" d="M42 47q0 25 18 43.5t44 18.5t44 -18.5t18 -43.5q0 -26 -18.5 -44t-44.5 -18q-25 0 -43 18.5t-18 43.5zM130 401q0 25 18 43.5t44 18.5t44 -18.5t18 -43.5q0 -26 -18.5 -44t-44.5 -18q-25 0 -43 18.5t-18 43.5z" />
<glyph unicode=";" horiz-adv-x="278" d="M-14 -135q113 51 127 130q-7 -1 -17 -1q-25 0 -40.5 14.5t-15.5 38.5q0 26 19.5 44t47.5 18q30 0 49.5 -22.5t19.5 -57.5q0 -58 -47.5 -111t-129.5 -85zM137 401q0 25 18.5 43.5t43.5 18.5t43.5 -18.5t18.5 -43.5q0 -26 -18.5 -44t-44.5 -18q-25 0 -43 18.5t-18 43.5z " />
<glyph unicode="&#x3c;" horiz-adv-x="606" d="M57 214v72l464 229v-90l-356 -175l356 -175v-90z" />
<glyph unicode="=" horiz-adv-x="606" d="M35 120v80h526v-80h-526zM35 300v80h526v-80h-526z" />
<glyph unicode="&#x3e;" horiz-adv-x="606" d="M57 -15v90l356 175l-356 175v90l464 -229v-72z" />
<glyph unicode="?" horiz-adv-x="444" d="M102 47q0 25 18 43.5t44 18.5t44 -18.5t18 -43.5q0 -26 -18.5 -44t-44.5 -18q-25 0 -43 18.5t-18 43.5zM113 550q0 82 47.5 134.5t120.5 52.5q60 0 98 -39t38 -100q0 -63 -37 -108.5t-146 -115.5q-67 -43 -67 -88q0 -23 12 -36t33 -13q30 0 47.5 16.5t30.5 56.5l36 -6 q-9 -47 -40.5 -76t-74.5 -29q-42 0 -68 27.5t-26 72.5q0 53 35.5 101.5t123.5 116.5q43 33 60.5 58.5t17.5 53.5t-21.5 47.5t-53.5 19.5q-59 0 -93 -41.5t-34 -128.5h-38q-1 11 -1 24z" />
<glyph unicode="@" horiz-adv-x="747" d="M28 356q0 162 105.5 271t259.5 109q139 0 237 -88t98 -213q0 -107 -77.5 -197.5t-169.5 -90.5q-31 0 -50 18t-19 47q0 12 1 20q-29 -43 -53.5 -61t-54.5 -18q-52 0 -88.5 42t-36.5 107q0 91 63 166t138 75q59 0 78 -65l16 56h88l-73 -289q-4 -16 -4 -30q0 -11 7.5 -17.5 t19.5 -6.5q52 0 107.5 78t55.5 160q0 102 -81.5 179t-195.5 77q-137 0 -226 -91.5t-89 -232.5t89.5 -232.5t227.5 -91.5q155 0 240 151h61q-37 -85 -122 -143.5t-187 -58.5q-155 0 -260 106.5t-105 263.5zM270 271q0 -37 12.5 -57.5t35.5 -20.5q29 0 58 40t46.5 95.5 t17.5 101.5q0 33 -12 52.5t-33 19.5q-33 0 -63 -43t-46 -96t-16 -92z" />
<glyph unicode="A" horiz-adv-x="704" d="M-82 0l5 47q41 0 74.5 27.5t73.5 93.5l330 569h41l125 -629q8 -39 21.5 -50t54.5 -11h25l-5 -47h-301l5 47h23q42 0 53.5 7t11.5 29q0 8 -4 32l-23 123h-255l-55 -96q-18 -30 -18 -55q0 -23 15 -31.5t54 -8.5h24l-6 -47h-269zM200 285h220l-57 287z" />
<glyph unicode="B" horiz-adv-x="722" d="M-31 0l5 47h15q57 0 73 14q8 8 23 62l128 476q9 36 9 49q0 17 -15 22t-64 5h-26l6 47h301q123 0 183.5 -43.5t60.5 -123.5q0 -73 -51 -120t-144 -64q157 -47 157 -165q0 -98 -76 -152t-222 -54h-363zM187 74q0 -16 14.5 -21.5t55.5 -5.5h50q99 0 150 50.5t51 127.5 q0 62 -44.5 92t-143.5 30h-63l-64 -238q-6 -23 -6 -35zM269 394h83q97 0 147 47t50 129q0 55 -28 80t-90 25h-29q-39 0 -51 -11t-24 -57z" />
<glyph unicode="C" horiz-adv-x="722" d="M40 280q0 115 56.5 221t150 171t195.5 65q108 0 175 -80l60 58h36l-56 -280h-41q-5 137 -46 198t-120 61q-63 0 -118 -43.5t-90.5 -111t-56 -146.5t-20.5 -153q0 -92 48 -149t138 -57q81 0 137 42.5t105 146.5l41 -18q-49 -115 -122.5 -167.5t-177.5 -52.5 q-133 0 -213.5 80.5t-80.5 214.5z" />
<glyph unicode="D" horiz-adv-x="778" d="M-38 0l5 47h20q53 0 68 14q8 8 23 62l128 476q9 36 9 49q0 17 -15 22t-64 5h-26l6 47h290q84 0 136 -12t89 -40q104 -78 104 -235q0 -100 -47.5 -197t-127.5 -161q-52 -41 -121 -59t-175 -18h-302zM181 79q0 -32 46 -32h32q140 0 206 57q61 53 105 167.5t44 217.5 q0 186 -188 186h-30q-40 0 -52 -10.5t-24 -54.5l-133 -500q-6 -22 -6 -31z" />
<glyph unicode="E" horiz-adv-x="722" d="M-37 0l5 47h19q54 0 69 14q9 9 23 62l128 476q9 36 9 49q0 17 -15 22t-64 5h-26l6 47h584l-39 -241h-45v35q0 90 -35 124.5t-104 34.5h-58q-56 0 -71.5 -10.5t-28.5 -58.5l-55 -205h33q71 0 108.5 28.5t59.5 96.5l45 -6l-89 -334l-45 8q9 41 9 69q0 47 -23.5 69t-77.5 22 h-32l-59 -220q-11 -42 -11 -55q0 -18 15.5 -25t54.5 -7h54q105 0 164.5 39.5t124.5 158.5l5 8l41 -8l-78 -245h-601z" />
<glyph unicode="F" horiz-adv-x="667" d="M-34 0l5 47h22q34 0 45.5 3t20.5 11q9 9 23 62l128 476q9 36 9 49q0 17 -15 22t-64 5h-26l6 47h578l-39 -241h-45v35q0 52 -8 79.5t-29 46.5q-37 33 -102 33h-52q-56 0 -71.5 -10.5t-28.5 -58.5l-55 -205h33q71 0 108.5 28.5t59.5 96.5l45 -6l-89 -334l-45 8q9 41 9 69 q0 47 -23.5 69t-77.5 22h-32l-62 -231q-10 -41 -10 -49q0 -17 15 -22t64 -5h26l-5 -47h-318z" />
<glyph unicode="G" horiz-adv-x="778" d="M39 273q0 111 56 218.5t153.5 176.5t206.5 69q61 0 105 -20t83 -64l62 62h34l-55 -281l-42 7q-2 126 -48.5 189.5t-130.5 63.5q-136 0 -225 -169q-35 -68 -56 -149.5t-21 -153.5q0 -91 47.5 -142.5t130.5 -51.5q148 0 188 150l18 80v5q0 13 -17 17.5t-62 4.5h-33l5 47 h325l-6 -47h-21q-47 0 -63 -13q-8 -6 -11.5 -15t-14.5 -48l-60 -223h-44l-12 81q-47 -44 -96.5 -63t-120.5 -19q-129 0 -202 76t-73 212z" />
<glyph unicode="H" horiz-adv-x="833" d="M-38 0l5 47h15q58 0 73 14q9 9 23 62l128 476q9 36 9 49q0 17 -15 22t-64 5h-26l6 47h317l-5 -47h-17q-56 0 -70 -14q-7 -5 -10 -13t-13 -49l-54 -198h322l53 198q10 34 10 49q0 17 -15 22t-64 5h-26l5 47h318l-5 -47h-17q-56 0 -71 -14q-6 -5 -9 -13t-14 -49l-128 -476 q-9 -34 -9 -49q0 -17 15 -22t64 -5h26l-6 -47h-317l5 47h17q56 0 71 14q8 8 23 62l61 231h-321l-62 -231q-10 -41 -10 -49q0 -17 15 -22t64 -5h26l-5 -47h-318z" />
<glyph unicode="I" horiz-adv-x="407" d="M-33 0l5 47q70 1 84 14q9 9 23 62l128 476q10 39 10 49q0 17 -15.5 22t-64.5 5h-22l6 47h310l-5 -47q-70 -1 -84 -14q-9 -9 -23 -62l-128 -476q-10 -38 -10 -48q0 -17 15.5 -22.5t64.5 -5.5h22l-6 -47h-310z" />
<glyph unicode="J" horiz-adv-x="611" d="M-13 143q0 61 35 103t86 42q35 0 57 -19.5t22 -51.5q0 -31 -18.5 -50.5t-47.5 -19.5q-9 0 -28 8.5t-32 8.5q-11 0 -18.5 -9t-7.5 -23q0 -44 35 -74t87 -30q63 0 100.5 43.5t65.5 147.5l102 380q10 40 10 49q0 17 -15 22t-64 5h-30l6 47h314l-5 -47h-18q-49 0 -63 -14 q-6 -6 -9.5 -14.5t-13.5 -47.5l-109 -407q-29 -107 -89.5 -157t-160.5 -50q-90 0 -140.5 41.5t-50.5 116.5z" />
<glyph unicode="K" horiz-adv-x="741" d="M-40 0l5 47h19q54 0 69 14q6 5 9.5 14t13.5 48l128 476q9 36 9 49q0 17 -15 22t-64 5h-26l6 47h317l-5 -47h-17q-56 0 -70 -14q-7 -5 -10 -13t-14 -49l-68 -257l288 240q54 44 54 68q0 14 -12.5 19.5t-46.5 5.5h-22l6 47h300l-5 -47q-60 -5 -101 -24.5t-100 -73.5 l-188 -157l152 -315q21 -44 32.5 -51t61.5 -7h31l-6 -47h-327l5 47h33q40 0 54 3.5t14 14.5q0 6 -16 39l-117 246l-113 -93l-36 -134q-10 -41 -10 -49q0 -17 15 -22t64 -5h26l-5 -47h-318z" />
<glyph unicode="L" horiz-adv-x="667" d="M-37 0l5 47h19q54 0 69 14q9 9 23 62l128 476q9 36 9 49q0 17 -15 22t-64 5h-26l6 47h336l-6 -47h-22q-69 0 -83 -14q-7 -6 -9.5 -13.5t-13.5 -48.5l-125 -465q-11 -41 -11 -55q0 -18 15.5 -25t54.5 -7h42q106 0 167 42.5t127 163.5l41 -8l-78 -245h-589z" />
<glyph unicode="M" horiz-adv-x="944" d="M-26 0l5 47q54 2 78 33t52 137l102 382q10 38 10 49q0 17 -15 22t-64 5h-26l5 47h242l53 -540l341 540h216l-5 -47h-14q-59 0 -74 -14q-6 -5 -9 -13t-14 -49l-127 -476q-10 -33 -10 -49q0 -17 15 -22t64 -5h26l-6 -47h-317l5 47h17q56 0 71 14q8 8 23 62l132 493 l-386 -616h-36l-62 602l-103 -385q-23 -93 -23 -115q0 -55 89 -55l-5 -47h-250z" />
<glyph unicode="N" horiz-adv-x="815" d="M-48 0l5 47q46 1 69 14t39.5 46.5t36.5 109.5l114 426q-6 20 -17.5 26t-47.5 6h-52l5 47h211l253 -552l90 335q23 93 23 115q0 55 -90 55l6 47h262l-5 -47q-63 -2 -88.5 -32t-53.5 -138l-139 -519h-39l-278 601l-99 -370q-24 -93 -24 -115q0 -29 18 -42t62 -13h21l-6 -47 h-276z" />
<glyph unicode="O" horiz-adv-x="778" d="M40 275q0 121 59.5 228.5t155.5 170.5t202 63q120 0 199 -80.5t79 -206.5q0 -118 -56.5 -225t-155 -173.5t-211.5 -66.5q-125 0 -198.5 78.5t-73.5 211.5zM158 207q0 -83 42 -131t114 -48q59 0 110.5 30.5t85.5 85.5q47 75 77.5 175t30.5 177q0 89 -38.5 143.5 t-119.5 54.5q-101 0 -179 -100q-49 -63 -86 -179.5t-37 -207.5z" />
<glyph unicode="P" horiz-adv-x="667" d="M-33 0l5 47h15q58 0 73 14q8 8 23 62l128 476q9 36 9 49q0 17 -15 22t-64 5h-26l6 47h295q247 0 247 -181q0 -123 -109 -182q-52 -27 -97 -34t-182 -7h-28l-52 -195q-7 -27 -10 -49q0 -17 15 -22t64 -5h26l-5 -47h-318zM260 365h29q65 -1 102 2q80 8 120 58.5t40 126.5 q0 67 -33 95t-112 28h-12q-31 0 -43.5 -9.5t-20.5 -38.5z" />
<glyph unicode="Q" horiz-adv-x="778" d="M40 278q0 119 57 225t152.5 170t202.5 64q124 0 203.5 -78.5t79.5 -211.5q0 -250 -237 -420v-22q1 -62 12 -89t38 -27q40 0 75 73l35 -22q-35 -65 -72 -96.5t-86 -31.5q-50 0 -82.5 38.5t-32.5 98.5q0 20 4 43q-35 -7 -66 -7q-132 0 -207.5 78t-75.5 215zM157 200 q0 -81 38 -128q-9 30 -9 51q0 63 41.5 103.5t105.5 40.5q65 0 105 -39t47 -112q60 83 95 187.5t35 201.5q0 188 -160 188q-83 0 -153.5 -78t-107.5 -190.5t-37 -224.5zM223 118q0 -42 26 -65.5t72 -23.5q35 0 75 16q9 50 9 72q0 46 -23.5 73.5t-63.5 27.5q-41 0 -68 -28.5 t-27 -71.5z" />
<glyph unicode="R" horiz-adv-x="741" d="M-41 0l5 47h16q57 0 72 14q9 9 23 62l128 476q9 36 9 49q0 17 -15 22t-64 5h-26l6 47h320q258 0 258 -164q0 -49 -27.5 -91.5t-74.5 -66.5q-48 -24 -153 -36q55 -20 79 -58.5t24 -103.5q0 -5 -0.5 -17t-0.5 -19l-1 -51q-1 -61 30 -61q21 0 36 20t34 73l36 -15 q-29 -79 -62 -113t-81 -34q-47 0 -76.5 33.5t-29.5 87.5q0 24 6 100q3 31 3 54q0 49 -26.5 69.5t-89.5 20.5h-69l-61 -227q-7 -27 -10 -49q0 -17 15 -22t64 -5h26l-5 -47h-318zM260 397h78q63 0 93 5.5t58 21.5q82 49 82 141q0 53 -34.5 81.5t-97.5 28.5h-49 q-35 0 -47.5 -11t-23.5 -49z" />
<glyph unicode="S" horiz-adv-x="667" d="M0 0l55 285l40 -7q-1 -11 -1 -28q0 -101 56 -161.5t149 -60.5q77 0 125.5 39.5t48.5 103.5q0 55 -44 87q-12 8 -78 36l-86 36q-84 35 -115.5 78t-31.5 105q0 95 69.5 159.5t170.5 64.5q107 0 182 -74l54 52h38l-54 -261l-42 7q1 9 1 20q0 99 -46 156t-126 57 q-67 0 -111.5 -37.5t-44.5 -93.5q0 -39 27.5 -67.5t86.5 -51.5l85 -34q90 -36 125.5 -79.5t35.5 -116.5q0 -99 -76 -164t-193 -65q-122 0 -206 78l-59 -63h-35z" />
<glyph unicode="T" horiz-adv-x="685" d="M40 464l88 258h598l-42 -275l-42 5q2 41 2 70q0 81 -27.5 117t-94.5 36h-14q-23 0 -31.5 -9t-18.5 -47l-133 -496q-9 -34 -9 -49q0 -17 15 -22t64 -5h37l-6 -47h-346l5 47h22q69 0 84 14q9 9 23 62l136 510q5 18 5 25q0 17 -33 17h-14q-67 0 -110 -41.5t-117 -175.5z" />
<glyph unicode="U" horiz-adv-x="815" d="M93 176q0 45 20 118l82 305q9 36 9 49q0 17 -15 22t-64 5h-25l5 47h318l-6 -47h-18q-55 0 -69 -14q-7 -6 -9.5 -12.5t-13.5 -49.5l-90 -333q-14 -49 -14 -103q0 -64 42.5 -99.5t118.5 -35.5q114 0 174 84q18 25 30 58.5t35 119.5l58 215q23 93 23 115q0 29 -22.5 42 t-70.5 13l6 47h263l-5 -47q-36 -2 -53 -5.5t-33.5 -23.5t-26 -48.5t-27.5 -92.5l-56 -211q-33 -126 -68.5 -189.5t-92.5 -91.5t-155 -28q-122 0 -186 49t-64 142z" />
<glyph unicode="V" horiz-adv-x="704" d="M36 675l7 47h295l-5 -47h-34q-37 0 -48.5 -6t-11.5 -26q0 -15 8 -52l87 -436l223 401q31 54 31 78q0 41 -75 41h-18l5 47h272l-5 -47q-53 -5 -84.5 -34t-89.5 -128l-297 -528h-37l-117 592q-12 60 -27 79t-51 19h-28z" />
<glyph unicode="W" horiz-adv-x="926" d="M53 675l5 47h267l-6 -47h-20q-31 0 -43 -6.5t-12 -23.5q0 -11 5 -46l54 -403l168 383l-7 50q-5 33 -14.5 39.5t-55.5 6.5h-18l5 47h278l-5 -47h-19q-36 0 -48.5 -5.5t-12.5 -21.5q0 -7 2 -27l54 -425l163 376q23 55 23 72q0 31 -64 31h-17l5 47h233l-5 -47 q-51 -11 -75.5 -37t-59.5 -106l-238 -547h-38l-70 505l-227 -505h-35l-79 602q-8 61 -19 72q-13 16 -48 16h-26z" />
<glyph unicode="X" horiz-adv-x="704" d="M-73 0l5 47q52 7 85 27t89 79l197 207l-104 245q-20 47 -37 58.5t-66 11.5h-24l5 47h315l-5 -47h-18q-67 0 -67 -28q0 -8 10 -32l72 -172l122 125q48 51 48 78q0 29 -52 29h-20l5 47h283l-5 -47q-52 -1 -85.5 -19.5t-91.5 -77.5l-182 -186l116 -272q22 -52 37 -62.5 t65 -10.5h26l-5 -47h-321l6 47h31q36 0 48.5 4.5t12.5 18.5q0 12 -6 25l-90 214l-151 -159q-39 -41 -39 -68q0 -35 62 -35h21l-6 -47h-286z" />
<glyph unicode="Y" horiz-adv-x="685" d="M32 675l5 47h308l-5 -47h-28q-61 0 -61 -24q0 -11 11 -38l100 -249l170 218q26 31 26 54q0 18 -17 28.5t-47 10.5h-23l5 47h282l-5 -47q-54 -3 -86 -24t-85 -87l-200 -256l-50 -185q-10 -41 -10 -49q0 -17 15.5 -22t64.5 -5h36l-5 -47h-347l6 47h22q69 0 83 14 q7 6 9.5 13.5t13.5 48.5l50 185l-120 298q-17 42 -37 55.5t-64 13.5h-17z" />
<glyph unicode="Z" horiz-adv-x="667" d="M-25 0l6 38l533 637h-96q-122 0 -177 -42q-27 -20 -41 -39t-59 -94q-11 -18 -17 -28l-41 11l81 239h503l-6 -39l-534 -636h135q118 0 178 42.5t129 178.5l42 -12l-82 -256h-554z" />
<glyph unicode="[" d="M-33 -108l223 830h220l-9 -33h-135l-205 -765h146l-9 -32h-231z" />
<glyph unicode="\" horiz-adv-x="606" d="M89 708h54l379 -708h-54z" />
<glyph unicode="]" d="M-83 -108l9 33h134l205 765h-146l9 32h231l-223 -830h-219z" />
<glyph unicode="^" horiz-adv-x="606" d="M52 318l209 404h85l208 -404h-87l-163 311l-165 -311h-87z" />
<glyph unicode="_" horiz-adv-x="500" d="M0 -81h500v-42h-500v42z" />
<glyph unicode="`" d="M244 621q-21 23 2.5 48.5t47.5 25.5q11 0 18 -6t16 -24l63 -140h-39z" />
<glyph unicode="a" horiz-adv-x="574" d="M1 148q0 125 81 230q72 92 165 92q49 0 83 -29.5t39 -75.5l27 90h87l-100 -336q-11 -39 -11 -54q0 -10 6.5 -17.5t14.5 -7.5q40 0 99 118l31 -17q-17 -38 -49 -83q-52 -73 -117 -73q-27 0 -44 18t-17 47q0 13 5 32q-37 -54 -71 -75.5t-81 -21.5q-67 0 -107.5 44.5 t-40.5 118.5zM92 134q0 -46 21.5 -72t58.5 -26q72 0 117 90q51 104 51 200q0 41 -20.5 65t-55.5 24q-47 0 -80 -35q-40 -41 -66 -110.5t-26 -135.5z" />
<glyph unicode="b" horiz-adv-x="556" d="M32 128q0 31 14 79l120 404q9 33 9 43q0 17 -13 24.5t-44 7.5h-24l4 36l192 15l-106 -358q42 50 78 70.5t79 20.5q67 0 107 -46.5t40 -123.5q0 -140 -101 -238q-80 -77 -192 -77q-74 0 -118.5 39t-44.5 104zM117 120q0 -46 22.5 -71.5t63.5 -25.5q77 0 132 92 q54 91 54 190q0 49 -21.5 76.5t-59.5 27.5q-74 0 -132 -91q-59 -98 -59 -198z" />
<glyph unicode="c" horiz-adv-x="444" d="M5 166q0 120 80.5 212t185.5 92q54 0 92 -31.5t38 -76.5q0 -32 -18 -53.5t-45 -21.5q-23 0 -38 13.5t-15 35.5q0 32 37 48q16 6 16 15q0 13 -20 23t-44 10q-52 0 -94 -47.5t-62.5 -110.5t-20.5 -122q0 -56 24.5 -87.5t68.5 -31.5q75 0 151 99l29 -22q-80 -125 -193 -125 q-78 0 -125 49.5t-47 131.5z" />
<glyph unicode="d" horiz-adv-x="611" d="M3 150q0 124 85 222t193 98q56 0 90 -36q15 -17 25 -46l66 223q9 30 9 44q0 31 -57 31h-31l4 36l199 15l-178 -600q-15 -53 -15 -72q0 -27 25 -27t48.5 24.5t67.5 95.5l30 -18q-82 -155 -175 -155q-68 0 -68 71q0 14 1 22q-64 -93 -162 -93q-70 0 -113.5 46t-43.5 119z M100 140q0 -49 24.5 -78.5t64.5 -29.5q73 0 123 97q24 46 40.5 105.5t16.5 99.5t-24 65.5t-61 25.5q-74 0 -131 -99q-53 -93 -53 -186z" />
<glyph unicode="e" horiz-adv-x="444" d="M-6 158q0 122 84.5 217t193.5 95q53 0 86 -28.5t33 -74.5q0 -90 -120 -143q-51 -23 -182 -54q-2 -26 -2 -34q0 -48 26 -76t71 -28q74 0 155 84l24 -27q-80 -104 -196 -104q-81 0 -127 46t-46 127zM94 209q67 14 102 30q111 49 111 134q0 26 -15 41.5t-40 15.5 q-55 0 -98 -60t-60 -161z" />
<glyph unicode="f" d="M-68 -202q94 209 148 436l41 174h-89l13 47h87q33 121 70 181q60 100 157 100q48 0 79.5 -25.5t31.5 -64.5q0 -23 -15.5 -38t-38.5 -15q-22 0 -37 13t-15 32q0 14 9 28q7 12 7 18q0 17 -24 17q-53 0 -88 -86q-21 -50 -49 -160h129l-14 -47h-126l-62 -247 q-50 -198 -104 -345z" />
<glyph unicode="g" horiz-adv-x="537" d="M-79 -90q0 54 49 83q27 17 79 28q-55 27 -55 74q0 41 33 67q29 25 90 33q-62 33 -62 104q0 69 61 120t144 51q43 0 86 -19q68 54 114 54q26 0 44.5 -15.5t18.5 -36.5q0 -19 -11.5 -31.5t-28.5 -12.5q-12 0 -19 5t-19 21t-26 16q-15 0 -37 -19q59 -42 59 -111 q0 -34 -18 -69t-47 -58q-52 -42 -135 -42q-24 0 -72 7q-21 3 -41 3q-26 0 -43 -11.5t-17 -28.5q0 -26 37 -35q17 -4 110 -9q89 -5 132 -28q52 -28 52 -90q0 -74 -68 -118q-67 -44 -205 -44q-113 0 -169 39q-36 28 -36 73zM2 -83q0 -77 142 -77q86 0 132 23.5t46 67.5 q0 37 -37 52q-17 7 -61.5 13.5t-78.5 6.5q-67 0 -105 -22.5t-38 -63.5zM146 279q0 -42 23.5 -66t64.5 -24q57 0 87.5 48.5t30.5 114.5q0 37 -23 58.5t-62 21.5q-54 0 -87.5 -42.5t-33.5 -110.5z" />
<glyph unicode="h" horiz-adv-x="611" d="M0 0l181 611q9 31 9 44q0 31 -57 31h-31l4 36l199 15l-119 -402q98 135 188 135q43 0 72 -28t29 -70q0 -44 -24 -112l-47 -138q-19 -53 -19 -67q0 -8 5 -13.5t13 -5.5q47 0 123 118l29 -21q-40 -71 -87.5 -109.5t-94.5 -38.5q-30 0 -50 21.5t-20 53.5q0 28 18 83l53 156 q15 46 15 70q0 18 -12.5 29.5t-31.5 11.5q-72 0 -143 -103q-27 -38 -40.5 -70t-33.5 -98l-41 -139h-87z" />
<glyph unicode="i" d="M27 48q0 24 22 101l58 195q9 33 9 44q0 31 -57 31h-24l4 36l192 15l-106 -357q-12 -42 -12 -56q0 -21 17 -21q42 0 121 121l31 -17q-23 -35 -38.5 -55.5t-40 -47t-51 -39t-56.5 -12.5q-29 0 -49 18t-20 44zM172 610q0 20 14.5 34.5t34.5 14.5t34.5 -14.5t14.5 -34.5 t-14.5 -34.5t-34.5 -14.5t-34.5 14.5t-14.5 34.5z" />
<glyph unicode="j" horiz-adv-x="315" d="M-166 -122q0 26 15.5 43t40.5 17q21 0 34.5 -13t13.5 -34q0 -12 -8 -27q-5 -8 -5 -14q0 -7 6.5 -12.5t14.5 -5.5q66 0 108 163q17 69 25 92l76 257q9 30 9 43q0 17 -13 24.5t-44 7.5h-35l4 36l203 15l-119 -400q-32 -109 -45.5 -141.5t-35.5 -60.5q-61 -70 -143 -70 q-47 0 -74.5 21.5t-27.5 58.5zM219 610q0 20 14.5 34.5t34.5 14.5t34.5 -14.5t14.5 -34.5t-14.5 -34.5t-34.5 -14.5t-34.5 14.5t-14.5 34.5z" />
<glyph unicode="k" horiz-adv-x="556" d="M-5 0l181 611q9 33 9 44q0 31 -57 31h-31l4 36l199 15l-124 -418q51 79 98 115t99 36q41 0 69.5 -26.5t28.5 -64.5q0 -102 -183 -167q24 -20 34 -45t14 -77q2 -30 6 -39.5t15 -9.5q18 0 39.5 23.5t64.5 89.5l31 -20q-47 -78 -86.5 -113.5t-80.5 -35.5q-74 0 -74 100l1 49 v37q0 27 -16 27l-34 -3q-9 0 -15.5 6.5t-6.5 15.5q0 27 31 27q15 0 27 -5l13 -3q10 0 42 16q97 48 97 107q0 22 -13 36.5t-33 14.5q-28 0 -64.5 -25t-69.5 -67q-24 -31 -49.5 -84t-40.5 -104l-38 -130h-87z" />
<glyph unicode="l" d="M16 55q0 37 27 127l127 429q9 30 9 44q0 31 -57 31h-31l4 36l199 15l-185 -625q-13 -43 -13 -55q0 -21 18 -21q44 0 123 121l31 -17q-91 -155 -187 -155q-30 0 -47.5 19t-17.5 51z" />
<glyph unicode="m" horiz-adv-x="889" d="M15 0l102 344q8 29 8 43q0 32 -56 32h-24l3 36l182 15l-29 -135q53 75 92.5 105t86.5 30q41 0 69 -26.5t28 -66.5q0 -19 -6 -48q87 141 193 141q41 0 67 -25.5t26 -65.5q0 -37 -12 -75l-63 -194q-12 -39 -12 -49t6.5 -17.5t14.5 -7.5q37 0 115 116l31 -21 q-49 -71 -76 -98q-51 -48 -99 -48q-35 0 -56.5 19.5t-21.5 50.5q0 21 4 38t24 74l46 142q14 44 14 64q0 37 -39 37q-28 0 -63 -23t-62 -60q-46 -61 -82 -182l-43 -145h-87l80 271q20 63 20 100q0 39 -42 39q-56 0 -116.5 -77t-94.5 -192l-41 -141h-87z" />
<glyph unicode="n" horiz-adv-x="611" d="M14 0l102 344q9 33 9 44q0 31 -57 31h-24l4 36l181 15l-29 -135q98 135 185 135q40 0 68 -28.5t28 -68.5q0 -45 -24 -113l-47 -138q-19 -52 -19 -67q0 -8 5 -13.5t13 -5.5q48 0 124 120l29 -21q-87 -150 -183 -150q-30 0 -50 21t-20 53q0 30 18 84l53 156q15 46 15 70 q0 17 -11.5 29t-28.5 12q-32 0 -69.5 -27.5t-69.5 -75.5q-27 -39 -40.5 -70.5t-33.5 -97.5l-41 -139h-87z" />
<glyph unicode="o" horiz-adv-x="500" d="M5 172q0 125 84 212q83 86 184 86q73 0 125 -55.5t52 -133.5q0 -118 -85 -214q-73 -82 -182 -82q-82 0 -130 50.5t-48 136.5zM95 128q0 -105 89 -105q40 0 69 23.5t55 75.5q20 41 33.5 94.5t13.5 92.5q0 58 -23 90.5t-64 32.5q-56 0 -98 -54q-31 -41 -53 -114.5 t-22 -135.5z" />
<glyph unicode="p" horiz-adv-x="574" d="M-101 -202l4 36q51 2 62.5 12t26.5 64l128 434q9 28 9 44q0 31 -57 31h-24l4 36l182 15l-15 -85q70 85 149 85q63 0 105 -52q33 -42 33 -111q0 -129 -80 -229q-72 -93 -180 -93q-50 0 -74.5 18t-44.5 70l-49 -163q-11 -39 -11 -50q0 -15 14 -20.5t50 -5.5h12l-4 -36h-240 zM153 127q0 -40 23.5 -66t60.5 -26q77 0 128 109q47 97 47 185q0 40 -20.5 64t-54.5 24q-64 0 -115 -78q-28 -43 -48.5 -105.5t-20.5 -106.5z" />
<glyph unicode="q" horiz-adv-x="556" d="M0 145q0 127 82.5 226t188.5 99q77 0 128 -69l61 69h39l-166 -560q-11 -39 -11 -50q0 -15 14 -20.5t50 -5.5h8l-4 -36h-246l4 36q58 1 70.5 11t27.5 65l43 145q-65 -69 -138 -69q-30 0 -60 12t-49 31q-42 40 -42 116zM95 138q0 -46 21.5 -75t56.5 -29q40 0 76.5 31 t62.5 88q18 39 31 92.5t13 90.5q0 42 -22.5 68.5t-57.5 26.5q-36 0 -71.5 -29.5t-63.5 -82.5q-20 -38 -33 -89t-13 -92z" />
<glyph unicode="r" horiz-adv-x="444" d="M9 0l102 344q10 36 10 47q0 28 -58 28h-24l4 36l181 15l-23 -116q40 62 75.5 89t77.5 27q34 0 56.5 -21t22.5 -53q0 -28 -16.5 -46t-42.5 -18q-30 0 -43 22q-4 6 -4 32q0 23 -18 23q-34 0 -86 -78.5t-80 -172.5l-47 -158h-87z" />
<glyph unicode="s" horiz-adv-x="444" d="M-1 98q0 29 16.5 48t41.5 19q22 0 36.5 -14.5t14.5 -35.5q0 -13 -3.5 -20.5t-17.5 -22.5q-7 -5 -7 -15q0 -15 24.5 -24.5t62.5 -9.5q52 0 83 24t31 64q0 26 -14.5 40.5t-56.5 31.5l-37.5 15t-33.5 15.5t-31.5 19.5t-22.5 22t-17 29t-5 35q0 65 51 108t130 43 q65 0 106.5 -29t41.5 -75q0 -27 -16 -44t-41 -17q-23 0 -37.5 13t-14.5 33q0 17 16 40q5 8 5 14q0 12 -18 19.5t-47 7.5q-44 0 -73 -23t-29 -57q0 -29 16.5 -45t65.5 -33q60 -22 87 -39q50 -34 50 -96q0 -68 -54 -111t-140 -43q-75 0 -119 30.5t-44 82.5z" />
<glyph unicode="t" horiz-adv-x="352" d="M25 61q0 27 19 95l75 252h-94l14 47h94l49 166h87l-49 -166h109l-14 -47h-109l-95 -319q-3 -12 -3 -23q0 -28 23 -28q25 0 51.5 26t72.5 96l30 -20q-35 -57 -50 -77q-26 -35 -64.5 -56.5t-73.5 -21.5q-30 0 -51 22t-21 54z" />
<glyph unicode="u" horiz-adv-x="611" d="M41 419l3 36l193 15l-98 -328q-11 -37 -11 -57q0 -18 12.5 -30.5t30.5 -12.5q53 0 113 74.5t91 178.5l47 160h87l-99 -332q-12 -44 -12 -59q0 -10 5.5 -17t13.5 -7q32 0 109 113l30 -18q-53 -82 -94 -116t-87 -34q-28 0 -46 18.5t-18 47.5q0 26 12 68q-85 -133 -186 -133 q-42 0 -68.5 25.5t-26.5 66.5q0 23 4 39.5t27 91.5l40 135q8 29 8 43q0 17 -12.5 24.5t-43.5 7.5h-24z" />
<glyph unicode="v" horiz-adv-x="519" d="M34 419l3 36l185 15l-68 -231q-24 -80 -24 -124q0 -33 19 -55.5t47 -22.5q39 0 78.5 35t68.5 96q44 90 44 149q0 16 -5 26.5t-23 30.5q-21 24 -21 46q0 20 13 35t32 15q26 0 44 -23t18 -56q0 -59 -25 -137.5t-62 -139.5q-82 -130 -186 -130q-54 0 -90.5 37.5t-36.5 93.5 q0 49 19 114l34 115q10 30 10 46q0 29 -57 29h-17z" />
<glyph unicode="w" horiz-adv-x="778" d="M32 82q0 30 17 85l52 177q8 26 8 43t-12.5 24.5t-43.5 7.5h-17l4 36l185 15l-87 -293q-20 -67 -20 -91q0 -20 15 -34t37 -14q51 0 104 75q60 82 87 175l50 167h87l-65 -216q-23 -81 -23 -130q0 -33 14.5 -52t40.5 -19q70 0 139 128q45 87 45 152q0 16 -5 26t-23 30 q-21 24 -21 46q0 21 13.5 35.5t32.5 14.5q26 0 44 -23t18 -56q0 -61 -27 -143.5t-68 -145.5q-40 -61 -81.5 -89t-92.5 -28q-49 0 -78.5 29.5t-29.5 78.5q0 9 2 41q-42 -63 -76 -97q-50 -52 -118 -52q-49 0 -78 26.5t-29 70.5z" />
<glyph unicode="x" horiz-adv-x="500" d="M-33 47q0 26 14.5 42t36.5 16q36 0 43 -39q3 -20 15 -20q26 0 69 79l45 80l-12 58q-20 99 -29 115q-7 15 -21 15q-13 0 -28.5 -16.5t-53.5 -71.5l-29 21q58 84 75 103q37 41 69 41q31 0 49 -27t31 -92l11 -55l29 52q24 45 31.5 56.5t23.5 28.5q34 37 78 37q25 0 41 -17.5 t16 -43.5q0 -25 -13.5 -39.5t-36.5 -14.5q-14 0 -20.5 5t-13.5 20q-6 13 -17 13q-27 0 -63 -67l-44 -81l19 -95q14 -62 24 -83t27 -21q24 0 64 54q14 20 28 42l31 -17q-28 -50 -47 -72q-34 -42 -53.5 -55t-47.5 -13q-37 0 -58 23.5t-34 79.5l-15 67l-30 -54 q-66 -116 -138 -116q-30 0 -48 17t-18 45z" />
<glyph unicode="y" horiz-adv-x="500" d="M-79 -128q0 23 15 38.5t37 15.5q32 0 43 -31q3 -8 3 -39q0 -16 19 -16q43 0 106 77q21 27 57 84q-31 176 -71 324q-16 64 -38 64q-13 0 -25 -18t-40 -78l-31 14q62 163 130 163q32 0 54.5 -36.5t39.5 -118.5l44 -211q104 165 104 247q0 18 -6 52q-2 12 -2 17 q0 20 14.5 35t34.5 15t32.5 -14.5t12.5 -37.5q0 -25 -13.5 -58.5t-55.5 -115.5q-121 -236 -201 -338q-86 -108 -171 -108q-39 0 -65.5 21.5t-26.5 52.5z" />
<glyph unicode="z" horiz-adv-x="463" d="M-33 9q0 48 72 128q43 47 80.5 75t146.5 96q42 26 74 60q-33 -8 -51 -8q-34 0 -92 20q-45 14 -60 14q-37 0 -82 -80l-33 17q71 139 165 139q27 0 84 -28q46 -23 72 -23q11 0 16.5 5.5t9.5 20.5q7 25 24 25q10 0 17 -6.5t7 -16.5q0 -20 -22 -57.5t-57 -76.5 q-37 -42 -73 -70.5t-94 -61.5q-59 -34 -81.5 -50.5t-39.5 -38.5q31 9 49 9q31 0 101 -24q45 -16 67 -16q47 0 86 90l35 -12q-23 -71 -67 -112.5t-95 -41.5q-49 0 -119 32q-65 31 -77 31q-6 0 -7.5 -2.5t-1.5 -14.5q0 -46 -30 -46q-24 0 -24 24z" />
<glyph unicode="{" d="M52 -21q0 35 17 95l23 88q13 48 13 69q0 46 -49 62l7 28q49 14 70.5 41t36.5 92l32 118q26 94 68 123q39 27 101 27h10l-8 -29q-41 -5 -64 -33.5t-42 -99.5l-35 -128q-17 -59 -40 -86t-68 -39q52 -20 52 -65q0 -22 -13 -67l-29 -111q-15 -54 -15 -84q0 -56 50 -59l-8 -29 h-21q-41 0 -64.5 23t-23.5 64z" />
<glyph unicode="|" horiz-adv-x="606" d="M258 -108v830h80v-830h-80z" />
<glyph unicode="}" d="M-98 -108l8 29q41 5 63.5 33.5t41.5 99.5l35 128q16 58 39.5 85.5t67.5 39.5q-51 20 -51 65q0 22 12 67l30 111q15 54 15 85q0 25 -13.5 40.5t-36.5 17.5l8 29h21q40 0 64.5 -23t24.5 -60q0 -31 -18 -99l-23 -88q-13 -48 -13 -69q0 -48 50 -62l-8 -28q-48 -14 -70 -41 t-38 -92l-31 -118q-26 -94 -69 -123q-37 -27 -101 -27h-8z" />
<glyph unicode="~" horiz-adv-x="606" d="M41 220q28 49 66 78t74 29q32 0 99 -32l46 -22q57 -28 80 -28q43 0 86 65l53 -38q-28 -49 -66 -78t-74 -29q-32 0 -99 31l-46 23q-44 21 -54.5 24.5t-25.5 3.5q-43 0 -86 -65z" />
<glyph unicode="&#xa0;" />
<glyph unicode="&#xa1;" d="M143 -209q0 22 6.5 39.5t43.5 96.5q67 147 126 361l36 -10q-66 -249 -79 -434q-4 -52 -23.5 -81.5t-50.5 -29.5q-26 0 -42.5 16t-16.5 42zM305 423q0 26 18.5 44t44.5 18q25 0 43 -18.5t18 -43.5t-18.5 -43.5t-43.5 -18.5t-43.5 18.5t-18.5 43.5z" />
<glyph unicode="&#xa2;" horiz-adv-x="556" d="M61 167q0 121 81.5 211.5t189.5 90.5q27 0 56 -12l55 124h43l-64 -145q35 -31 35 -73q0 -32 -18.5 -53t-47.5 -21q-18 0 -30 9l-117 -263q48 5 79 25.5t74 74.5l31 -22q-90 -133 -206 -127l-54 -121h-43l57 127q-56 16 -88.5 63t-32.5 112zM156 156q0 -79 49 -110 l139 311q10 25 34 30q10 2 12.5 4t2.5 9q0 13 -19.5 22.5t-45.5 9.5q-74 0 -127 -106q-45 -90 -45 -170z" />
<glyph unicode="&#xa3;" horiz-adv-x="556" d="M-8 65q0 35 25 60t62 25q36 0 90 -21q15 48 15 93q0 36 -8 103h-126l5 43h117q-2 35 -2 56q0 129 65 204.5t165 75.5q63 0 104 -33.5t41 -85.5q0 -39 -20 -63.5t-51 -24.5q-25 0 -40.5 15t-15.5 38q0 32 30 53q15 11 18.5 15.5t3.5 11.5q0 16 -16.5 26t-43.5 10 q-137 0 -137 -252q0 -26 1 -46h136l-5 -43h-132q0 -112 -51 -220q69 -36 128 -36q84 0 137 81l35 -14q-31 -78 -77 -114.5t-111 -36.5q-38 0 -69 12.5t-79 47.5q-31 -34 -54.5 -47t-55.5 -13q-37 0 -60.5 22.5t-23.5 57.5zM31 65q0 -19 13 -31t34 -12q46 0 71 53 q-41 34 -73 34q-19 0 -32 -12.5t-13 -31.5z" />
<glyph unicode="&#xa4;" horiz-adv-x="556" d="M25 145l53 53q-52 69 -52 151q0 83 50 147l-51 51l52 51l50 -51q67 50 147 50q82 0 151 -52l54 53l51 -51l-53 -53q52 -67 52 -152q0 -80 -50 -147l51 -50l-51 -52l-51 51q-67 -50 -147 -50q-84 0 -151 52l-53 -53zM109 346q0 -70 49.5 -120t117.5 -50q71 0 121 49.5 t50 120.5q0 70 -49.5 119.5t-119.5 49.5t-119.5 -49.5t-49.5 -119.5z" />
<glyph unicode="&#xa5;" horiz-adv-x="556" d="M40 202l5 43h154l21 78l-1 2h-146l5 43h126l-80 220q-23 69 -80 69h-4l5 47h256l-5 -47h-14q-62 0 -62 -24q0 -10 11 -39l76 -215l128 185q26 36 26 55q0 17 -17.5 27.5t-47.5 10.5h-9l5 47h231l-5 -47q-46 -10 -69 -28.5t-70 -83.5l-126 -177h120l-5 -43h-146l-1 -2 l-21 -78h146l-5 -43h-152l-22 -79q-9 -41 -9 -49q0 -16 15.5 -21.5t63.5 -5.5h27l-5 -47h-317l5 47h13q69 0 83 14q7 6 9.5 13.5t13.5 48.5l22 79h-148z" />
<glyph unicode="&#xa6;" horiz-adv-x="606" d="M258 -108v332h80v-332h-80zM258 390v332h80v-332h-80z" />
<glyph unicode="&#xa7;" horiz-adv-x="500" d="M-11 -32q0 28 16.5 45.5t41.5 17.5q24 0 39.5 -15t15.5 -39q0 -25 -22 -46q-9 -8 -9 -15q0 -13 20.5 -23.5t46.5 -10.5q37 0 59.5 23.5t22.5 61.5q0 32 -15 63.5t-58 86.5l-61 78q-55 69 -55 136q0 56 39.5 94t98.5 38q22 0 49 -9q-31 46 -43 75.5t-12 63.5q0 66 45 105 t121 39q65 0 108 -33.5t43 -83.5q0 -28 -16 -46t-41 -18q-24 0 -40.5 16t-16.5 39q0 16 6 26.5t25 26.5q6 4 6 9q0 13 -21 22.5t-48 9.5q-41 0 -65.5 -23t-24.5 -62q0 -30 17 -63t64 -94l57 -75q54 -70 54 -130q0 -57 -39 -95.5t-96 -38.5q-19 0 -48 7q51 -85 51 -138 q0 -62 -45.5 -102.5t-115.5 -40.5q-66 0 -110 34t-44 84zM108 358q0 -33 26 -68l48 -67q28 -40 47 -53t48 -13q34 0 58.5 21.5t24.5 51.5q0 38 -38 90l-42 57q-40 53 -96 53q-34 0 -55 -20t-21 -52z" />
<glyph unicode="&#xa8;" d="M186 610q0 20 14.5 34.5t34.5 14.5t34.5 -14.5t14.5 -34.5t-14.5 -34.5t-34.5 -14.5t-34.5 14.5t-14.5 34.5zM376 610q0 20 14.5 34.5t34.5 14.5t34.5 -14.5t14.5 -34.5t-14.5 -34.5t-34.5 -14.5t-34.5 14.5t-14.5 34.5z" />
<glyph unicode="&#xa9;" horiz-adv-x="747" d="M16 339q0 146 103.5 250t249.5 104t250 -104t104 -250t-104 -249.5t-250 -103.5t-249.5 103.5t-103.5 249.5zM60 339q0 -128 90.5 -218.5t218.5 -90.5t219 90.5t91 218.5t-91 219t-219 91t-218.5 -91t-90.5 -219zM177 296q-2 92 67 165.5t160 73.5q60 0 100 -41l32 29h24 l-29 -149h-27q-5 71 -28.5 102.5t-67.5 31.5q-46 0 -82.5 -38t-53.5 -90t-15 -103q2 -47 28.5 -76t76.5 -29q45 0 75.5 22t57.5 77l28 -11q-51 -118 -171 -118q-77 0 -125 42t-50 112z" />
<glyph unicode="&#xaa;" horiz-adv-x="422" d="M83 330v40h283v-40h-283zM83 539q0 74 48.5 133t109.5 59q33 0 55 -17t26 -46l18 54h56l-65 -200q-7 -22 -7 -32q0 -15 14 -15q23 0 65 70l19 -10q-46 -93 -107 -93q-18 0 -29 11t-11 28q0 4 3 19q-25 -32 -46.5 -45t-52.5 -13q-43 0 -69.5 26.5t-26.5 70.5zM142 531 q0 -28 14 -43.5t38 -15.5q45 0 77 57.5t32 115.5q0 25 -13 39t-36 14q-46 0 -79 -54t-33 -113z" />
<glyph unicode="&#xab;" horiz-adv-x="426" d="M-15 243l186 144q19 15 24 15q9 0 9 -13q0 -7 -7.5 -16t-53.5 -56l-78 -84l61 -119q2 -8 2 -12q0 -17 -16 -17q-7 0 -18 15q-31 43 -109 143zM183 243l186 144q19 15 24 15q9 0 9 -13q0 -7 -7.5 -16t-53.5 -56l-78 -84l61 -119q2 -8 2 -12q0 -17 -16 -17q-7 0 -18 15z " />
<glyph unicode="&#xac;" horiz-adv-x="606" d="M35 300v80h526v-220h-80v140h-446z" />
<glyph unicode="&#xad;" d="M32 195l22 83h205l-22 -83h-205z" />
<glyph unicode="&#xae;" horiz-adv-x="747" d="M16 339q0 146 103.5 250t249.5 104t250 -104t104 -250t-104 -249.5t-250 -103.5t-249.5 103.5t-103.5 249.5zM60 339q0 -128 90.5 -218.5t218.5 -90.5t219 90.5t91 218.5t-91 219t-219 91t-218.5 -91t-90.5 -219zM162 154l3 29h11q30 0 36 6q5 4 12 31l66 245q4 20 4 25 q0 7 -8 9.5t-33 2.5h-16l3 29h183q150 0 152 -86q1 -26 -14.5 -48.5t-42.5 -35.5q-26 -13 -77 -18q52 -21 53 -82v-45q0 -29 15 -29q11 0 18.5 10t17.5 38l26 -9q-16 -43 -35.5 -61.5t-48.5 -18.5q-28 0 -46 18t-19 47q3 60 3 79q-1 24 -15.5 34t-48.5 10h-35l-31 -114 q-2 -8 -3.5 -15.5t-1.5 -9.5q1 -7 9 -9.5t33 -2.5h16l-3 -29h-183zM334 363h40q57 0 82 14q45 25 43 70q-2 55 -73 55h-28q-18 0 -24 -5t-11 -24z" />
<glyph unicode="&#xaf;" d="M174 585l11 51h301l-11 -51h-301z" />
<glyph unicode="&#xb0;" horiz-adv-x="400" d="M70 534q0 64 44.5 108t108.5 44q62 0 104.5 -44t42.5 -109q0 -64 -43.5 -108.5t-106.5 -44.5t-106.5 44.5t-43.5 109.5zM126 533q0 -40 28 -68t66 -28q39 0 66 28t27 68t-26.5 68t-64.5 28q-40 0 -68 -28t-28 -68z" />
<glyph unicode="&#xb1;" horiz-adv-x="606" d="M35 0v80h526v-80h-526zM35 290v80h223v223h80v-223h223v-80h-223v-138h-80v138h-223z" />
<glyph unicode="&#xb2;" d="M0 288q4 28 38 61t165 139q42 34 59.5 61t17.5 59q0 30 -20 48t-53 18q-30 0 -58 -16.5t-28 -33.5q0 -7 16 -15q30 -16 30 -39q0 -17 -12.5 -29t-31.5 -12q-24 0 -38 16t-14 42q0 49 46 86t108 37q57 0 92.5 -29.5t35.5 -77.5q0 -67 -73 -120q-28 -20 -108 -71 q-70 -45 -89 -67h142q22 0 32.5 7.5t26.5 35.5l18 30l29 -11l-51 -119h-280z" />
<glyph unicode="&#xb3;" d="M1 375q0 24 13 39t35 15q18 0 31 -11.5t13 -27.5q0 -25 -28 -37q-11 -5 -11 -10q0 -13 19 -22.5t45 -9.5q49 0 78.5 33.5t29.5 87.5q0 26 -13.5 42t-36.5 16q-3 0 -17 -1.5t-19 -1.5q-22 0 -22 18q0 20 25 20l22 -1l14 -1q31 0 56.5 30t25.5 68q0 26 -17.5 41t-48.5 15 q-21 0 -40 -8.5t-19 -17.5q0 -4 8 -11q14 -14 14 -29q0 -16 -11 -26.5t-28 -10.5q-19 0 -31 12.5t-12 31.5q0 37 38.5 64.5t91.5 27.5q55 0 90 -27t35 -70q0 -76 -100 -107q70 -22 70 -85q0 -61 -50 -101.5t-124 -40.5q-58 0 -92 26t-34 70z" />
<glyph unicode="&#xb4;" d="M224 525l138 140q31 30 50 30q14 0 24.5 -10.5t10.5 -24.5q0 -22 -25 -39l-159 -96h-39z" />
<glyph unicode="&#xb5;" horiz-adv-x="611" d="M-70 -180q0 23 9.5 45.5t42.5 78.5q26 47 35 76l96 324q8 29 8 43q0 17 -12.5 24.5t-43.5 7.5h-24l3 36l193 15l-98 -328q-11 -37 -11 -57q0 -18 12.5 -30.5t30.5 -12.5q53 0 113 74.5t91 178.5l47 160h87l-99 -332q-12 -44 -12 -59q0 -10 5.5 -17t13.5 -7q32 0 109 113 l30 -18q-53 -82 -94 -116t-87 -34q-28 0 -46 18.5t-18 47.5q0 26 12 68q-85 -133 -184 -133q-53 0 -79 46q-11 -36 -12 -80q-2 -81 -17 -116q-11 -23 -30 -39t-38 -16q-14 0 -23.5 11t-9.5 28z" />
<glyph unicode="&#xb6;" horiz-adv-x="650" d="M88 -144l3 36h5q49 0 65 14q8 10 26 73l92 345h-33q-151 0 -151 131q0 60 27 120t71 97q37 31 74.5 40.5t123.5 9.5h254l-3 -36q-45 -2 -57 -9t-18 -31l-179 -667q-15 -57 -15 -65q0 -11 11 -15.5t46 -6.5l-3 -36h-339zM219 416q0 -28 13 -43.5t36 -15.5h20l88 329 q-51 0 -78.5 -27t-46.5 -96l-22 -82q-10 -38 -10 -65zM229 -107h71l212 793h-71z" />
<glyph unicode="&#xb7;" horiz-adv-x="278" d="M72 250q0 26 18 44t44 18t44 -18t18 -44t-18 -44t-44 -18t-44 18t-18 44z" />
<glyph unicode="&#xb8;" d="M3 -199l18 33q36 -12 62 -12q25 0 40.5 11t15.5 29t-13 28.5t-35 10.5q-13 0 -33 -6l-9 6l59 104h35l-39 -69q21 3 30 3q36 0 58.5 -19t22.5 -49q0 -39 -34 -63t-90 -24q-48 0 -88 17z" />
<glyph unicode="&#xb9;" d="M43 288l4 34h31q42 0 50 7q4 4 13 35l68 237q1 1 4 11.5t3 14.5q0 5 -6.5 6.5t-33.5 1.5h-48l9 32q35 0 79 13t69 32h24l-100 -349q-6 -24 -6 -28q0 -8 9 -10.5t38 -2.5h38l-5 -34h-240z" />
<glyph unicode="&#xba;" horiz-adv-x="372" d="M83 329v40h284v-40h-284zM83 555q0 70 52.5 123t121.5 53q47 0 81 -33t34 -79q0 -70 -51 -123.5t-125 -53.5q-53 0 -83 30t-30 83zM142 528q0 -63 58 -63q43 0 76.5 53t33.5 120q0 33 -15 51.5t-41 18.5q-46 0 -79 -56t-33 -124z" />
<glyph unicode="&#xbb;" horiz-adv-x="426" d="M-17 98q0 7 7.5 16t52.5 56l79 84l-61 119q-2 6 -2 12q0 17 16 17q7 0 18 -15l109 -144l-186 -143q-19 -15 -24 -15q-9 0 -9 13zM181 98q0 7 7.5 16t52.5 56l79 84l-61 119q-2 6 -2 12q0 17 16 17q7 0 18 -15l109 -144l-186 -143q-19 -15 -24 -15q-9 0 -9 13z" />
<glyph unicode="&#xbc;" horiz-adv-x="834" d="M33 288l4 34h31q42 0 50 7q4 4 13 35l68 237q1 1 4 11.5t3 14.5q0 5 -6.5 6.5t-33.5 1.5h-48l9 32q35 0 79 13t69 32h24l-100 -349q-6 -24 -6 -28q0 -8 9 -10.5t38 -2.5h38l-5 -34h-240zM223 0l383 708h54l-383 -708h-54zM498 109v30l295 285h40l-79 -276h71l-10 -39h-72 l-10 -34q-6 -23 -6 -27q0 -8 9 -10.5t38 -2.5h15l-4 -35h-202l4 35h15q35 0 44.5 4t14.5 22l14 48h-177zM555 148h131l49 173z" />
<glyph unicode="&#xbd;" horiz-adv-x="834" d="M33 288l4 34h31q42 0 50 7q4 4 13 35l68 237q1 1 4 11.5t3 14.5q0 5 -6.5 6.5t-33.5 1.5h-48l9 32q35 0 79 13t69 32h24l-100 -349q-6 -24 -6 -28q0 -8 9 -10.5t38 -2.5h38l-5 -34h-240zM216 0l383 708h54l-383 -708h-54zM491 0q4 28 38 61t165 139q42 34 59.5 61 t17.5 59q0 30 -20 48t-53 18q-30 0 -58 -16.5t-28 -33.5q0 -7 16 -15q30 -16 30 -39q0 -17 -12.5 -29t-31.5 -12q-24 0 -38 16t-14 42q0 49 46 86t108 37q57 0 92.5 -29.5t35.5 -77.5q0 -67 -73 -120q-28 -20 -108 -71q-70 -45 -89 -67h142q22 0 32.5 7.5t26.5 35.5l18 30 l29 -11l-51 -119h-280z" />
<glyph unicode="&#xbe;" horiz-adv-x="834" d="M1 375q0 24 13 39t35 15q18 0 31 -11.5t13 -27.5q0 -25 -28 -37q-11 -5 -11 -10q0 -13 19 -22.5t45 -9.5q49 0 78.5 33.5t29.5 87.5q0 26 -13.5 42t-36.5 16q-3 0 -17 -1.5t-19 -1.5q-22 0 -22 18q0 20 25 20l22 -1l14 -1q31 0 56.5 30t25.5 68q0 26 -17.5 41t-48.5 15 q-21 0 -40 -8.5t-19 -17.5q0 -4 8 -11q14 -14 14 -29q0 -16 -11 -26.5t-28 -10.5q-19 0 -31 12.5t-12 31.5q0 37 38.5 64.5t91.5 27.5q55 0 90 -27t35 -70q0 -76 -100 -107q70 -22 70 -85q0 -61 -50 -101.5t-124 -40.5q-58 0 -92 26t-34 70zM235 0l383 708h54l-383 -708h-54 zM498 109v30l295 285h40l-79 -276h71l-10 -39h-72l-10 -34q-6 -23 -6 -27q0 -8 9 -10.5t38 -2.5h15l-4 -35h-202l4 35h15q35 0 44.5 4t14.5 22l14 48h-177zM555 148h131l49 173z" />
<glyph unicode="&#xbf;" horiz-adv-x="444" d="M153 -128q0 63 37 108.5t146 115.5q67 43 67 88q0 23 -12 36t-33 13q-30 0 -47.5 -16.5t-30.5 -56.5l-36 6q9 47 40.5 76t74.5 29q42 0 68 -27.5t26 -72.5q0 -53 -35.5 -101.5t-123.5 -116.5q-43 -33 -60.5 -58.5t-17.5 -53.5t21.5 -47.5t53.5 -19.5q59 0 93 41.5 t34 128.5h38q1 -11 1 -24q0 -82 -47.5 -134.5t-120.5 -52.5q-60 0 -98 39t-38 100zM344 423q0 26 18.5 44t44.5 18q25 0 43 -18.5t18 -43.5t-18 -43.5t-44 -18.5t-44 18.5t-18 43.5z" />
<glyph unicode="&#xc0;" horiz-adv-x="704" d="M-82 0l5 47q41 0 74.5 27.5t73.5 93.5l330 569h41l125 -629q8 -39 21.5 -50t54.5 -11h25l-5 -47h-301l5 47h23q42 0 53.5 7t11.5 29q0 8 -4 32l-23 123h-255l-55 -96q-18 -30 -18 -55q0 -23 15 -31.5t54 -8.5h24l-6 -47h-269zM200 285h220l-57 287zM334 887q7 13 24.5 22 t34.5 9q25 0 46 -27l98 -126h-47l-145 86q-23 13 -11 36z" />
<glyph unicode="&#xc1;" horiz-adv-x="704" d="M-82 0l5 47q41 0 74.5 27.5t73.5 93.5l330 569h41l125 -629q8 -39 21.5 -50t54.5 -11h25l-5 -47h-301l5 47h23q42 0 53.5 7t11.5 29q0 8 -4 32l-23 123h-255l-55 -96q-18 -30 -18 -55q0 -23 15 -31.5t54 -8.5h24l-6 -47h-269zM200 285h220l-57 287zM321 765l166 126 q35 27 60 27q17 0 29.5 -9t12.5 -22q0 -23 -30 -36l-191 -86h-47z" />
<glyph unicode="&#xc2;" horiz-adv-x="704" d="M-82 0l5 47q41 0 74.5 27.5t73.5 93.5l330 569h41l125 -629q8 -39 21.5 -50t54.5 -11h25l-5 -47h-301l5 47h23q42 0 53.5 7t11.5 29q0 8 -4 32l-23 123h-255l-55 -96q-18 -30 -18 -55q0 -23 15 -31.5t54 -8.5h24l-6 -47h-269zM200 285h220l-57 287zM253 766l184 152h60 l109 -152h-43l-104 94l-163 -94h-43z" />
<glyph unicode="&#xc3;" horiz-adv-x="704" d="M-82 0l5 47q41 0 74.5 27.5t73.5 93.5l330 569h41l125 -629q8 -39 21.5 -50t54.5 -11h25l-5 -47h-301l5 47h23q42 0 53.5 7t11.5 29q0 8 -4 32l-23 123h-255l-55 -96q-18 -30 -18 -55q0 -23 15 -31.5t54 -8.5h24l-6 -47h-269zM200 285h220l-57 287zM285 789 q9 50 32.5 77.5t57.5 27.5q23 0 100 -26q42 -15 59 -15q32 0 49 42h30q-5 -43 -32.5 -74t-60.5 -31q-26 0 -86 23q-58 21 -74 21q-33 0 -45 -45h-30z" />
<glyph unicode="&#xc4;" horiz-adv-x="704" d="M-82 0l5 47q41 0 74.5 27.5t73.5 93.5l330 569h41l125 -629q8 -39 21.5 -50t54.5 -11h25l-5 -47h-301l5 47h23q42 0 53.5 7t11.5 29q0 8 -4 32l-23 123h-255l-55 -96q-18 -30 -18 -55q0 -23 15 -31.5t54 -8.5h24l-6 -47h-269zM200 285h220l-57 287zM306 842 q0 20 14.5 34.5t34.5 14.5t34.5 -14.5t14.5 -34.5t-14.5 -34.5t-34.5 -14.5t-34.5 14.5t-14.5 34.5zM496 842q0 20 14.5 34.5t34.5 14.5t34.5 -14.5t14.5 -34.5t-14.5 -34.5t-34.5 -14.5t-34.5 14.5t-14.5 34.5z" />
<glyph unicode="&#xc5;" horiz-adv-x="704" d="M-82 0l5 47q41 0 74.5 27.5t73.5 93.5l330 569h41l125 -629q8 -39 21.5 -50t54.5 -11h25l-5 -47h-301l5 47h23q42 0 53.5 7t11.5 29q0 8 -4 32l-23 123h-255l-55 -96q-18 -30 -18 -55q0 -23 15 -31.5t54 -8.5h24l-6 -47h-269zM200 285h220l-57 287zM354 858q0 41 29.5 70 t70.5 29q40 0 69.5 -29.5t29.5 -69.5q0 -42 -29.5 -71t-71.5 -29q-40 0 -69 29.5t-29 70.5zM390 858q0 -26 18.5 -45t44.5 -19q27 0 45.5 18.5t18.5 45.5q0 26 -18.5 44.5t-44.5 18.5t-45 -18.5t-19 -44.5z" />
<glyph unicode="&#xc6;" horiz-adv-x="870" d="M-92 0l5 47q35 0 69 46l320 460q37 53 37 80q0 23 -18 32.5t-62 9.5h-27l5 47h633l-39 -241h-45l1 71q0 123 -118 123h-27q-39 0 -52 -11.5t-25 -57.5l-55 -205h27q59 0 86.5 27t50.5 98l46 -6l-90 -334l-45 8q9 37 9 70q0 49 -14 69.5t-56 20.5h-27l-59 -220 q-12 -41 -12 -56q0 -31 64 -31h22q94 0 155.5 50.5t109.5 155.5l40 -8l-78 -245h-532l6 47h18q55 0 69 14q7 6 9.5 13.5t13.5 48.5l42 155h-191l-95 -137q-25 -37 -25 -58q0 -38 77 -36l-6 -47h-217zM205 325h172l83 310q11 39 -1 39q-11 0 -23 -20z" />
<glyph unicode="&#xc7;" horiz-adv-x="722" d="M40 280q0 115 56.5 221t150 171t195.5 65q108 0 175 -80l60 58h36l-56 -280h-41q-5 137 -46 198t-120 61q-63 0 -118 -43.5t-90.5 -111t-56 -146.5t-20.5 -153q0 -92 48 -149t138 -57q81 0 137 42.5t105 146.5l41 -18q-93 -220 -296 -220h-17l-29 -49q21 3 29 3 q37 0 59.5 -19t22.5 -49q0 -39 -34 -63t-90 -24q-48 0 -88 17l18 33q36 -12 62 -12q25 0 40.5 11t15.5 29q0 17 -13 28t-35 11q-11 0 -34 -6l-8 6l50 87q-117 16 -182 93t-65 199z" />
<glyph unicode="&#xc8;" horiz-adv-x="722" d="M-37 0l5 47h19q54 0 69 14q9 9 23 62l128 476q9 36 9 49q0 17 -15 22t-64 5h-26l6 47h584l-39 -241h-45v35q0 90 -35 124.5t-104 34.5h-58q-56 0 -71.5 -10.5t-28.5 -58.5l-55 -205h33q71 0 108.5 28.5t59.5 96.5l45 -6l-89 -334l-45 8q9 41 9 69q0 47 -23.5 69t-77.5 22 h-32l-59 -220q-11 -42 -11 -55q0 -18 15.5 -25t54.5 -7h54q105 0 164.5 39.5t124.5 158.5l5 8l41 -8l-78 -245h-601zM326 887q7 13 24.5 22t34.5 9q25 0 46 -27l98 -126h-47l-145 86q-23 13 -11 36z" />
<glyph unicode="&#xc9;" horiz-adv-x="722" d="M-37 0l5 47h19q54 0 69 14q9 9 23 62l128 476q9 36 9 49q0 17 -15 22t-64 5h-26l6 47h584l-39 -241h-45v35q0 90 -35 124.5t-104 34.5h-58q-56 0 -71.5 -10.5t-28.5 -58.5l-55 -205h33q71 0 108.5 28.5t59.5 96.5l45 -6l-89 -334l-45 8q9 41 9 69q0 47 -23.5 69t-77.5 22 h-32l-59 -220q-11 -42 -11 -55q0 -18 15.5 -25t54.5 -7h54q105 0 164.5 39.5t124.5 158.5l5 8l41 -8l-78 -245h-601zM313 765l166 126q35 27 60 27q17 0 29.5 -9t12.5 -22q0 -23 -30 -36l-191 -86h-47z" />
<glyph unicode="&#xca;" horiz-adv-x="722" d="M-37 0l5 47h19q54 0 69 14q9 9 23 62l128 476q9 36 9 49q0 17 -15 22t-64 5h-26l6 47h584l-39 -241h-45v35q0 90 -35 124.5t-104 34.5h-58q-56 0 -71.5 -10.5t-28.5 -58.5l-55 -205h33q71 0 108.5 28.5t59.5 96.5l45 -6l-89 -334l-45 8q9 41 9 69q0 47 -23.5 69t-77.5 22 h-32l-59 -220q-11 -42 -11 -55q0 -18 15.5 -25t54.5 -7h54q105 0 164.5 39.5t124.5 158.5l5 8l41 -8l-78 -245h-601zM245 766l184 152h60l109 -152h-43l-104 94l-163 -94h-43z" />
<glyph unicode="&#xcb;" horiz-adv-x="722" d="M-37 0l5 47h19q54 0 69 14q9 9 23 62l128 476q9 36 9 49q0 17 -15 22t-64 5h-26l6 47h584l-39 -241h-45v35q0 90 -35 124.5t-104 34.5h-58q-56 0 -71.5 -10.5t-28.5 -58.5l-55 -205h33q71 0 108.5 28.5t59.5 96.5l45 -6l-89 -334l-45 8q9 41 9 69q0 47 -23.5 69t-77.5 22 h-32l-59 -220q-11 -42 -11 -55q0 -18 15.5 -25t54.5 -7h54q105 0 164.5 39.5t124.5 158.5l5 8l41 -8l-78 -245h-601zM298 842q0 20 14.5 34.5t34.5 14.5t34.5 -14.5t14.5 -34.5t-14.5 -34.5t-34.5 -14.5t-34.5 14.5t-14.5 34.5zM488 842q0 20 14.5 34.5t34.5 14.5 t34.5 -14.5t14.5 -34.5t-14.5 -34.5t-34.5 -14.5t-34.5 14.5t-14.5 34.5z" />
<glyph unicode="&#xcc;" horiz-adv-x="407" d="M-33 0l5 47q70 1 84 14q9 9 23 62l128 476q10 39 10 49q0 17 -15.5 22t-64.5 5h-22l6 47h310l-5 -47q-70 -1 -84 -14q-9 -9 -23 -62l-128 -476q-10 -38 -10 -48q0 -17 15.5 -22.5t64.5 -5.5h22l-6 -47h-310zM212 887q7 13 24.5 22t34.5 9q25 0 46 -27l98 -126h-47 l-145 86q-23 13 -11 36z" />
<glyph unicode="&#xcd;" horiz-adv-x="407" d="M-33 0l5 47q70 1 84 14q9 9 23 62l128 476q10 39 10 49q0 17 -15.5 22t-64.5 5h-22l6 47h310l-5 -47q-70 -1 -84 -14q-9 -9 -23 -62l-128 -476q-10 -38 -10 -48q0 -17 15.5 -22.5t64.5 -5.5h22l-6 -47h-310zM199 765l166 126q35 27 60 27q17 0 29.5 -9t12.5 -22 q0 -23 -30 -36l-191 -86h-47z" />
<glyph unicode="&#xce;" horiz-adv-x="407" d="M-33 0l5 47q70 1 84 14q9 9 23 62l128 476q10 39 10 49q0 17 -15.5 22t-64.5 5h-22l6 47h310l-5 -47q-70 -1 -84 -14q-9 -9 -23 -62l-128 -476q-10 -38 -10 -48q0 -17 15.5 -22.5t64.5 -5.5h22l-6 -47h-310zM131 766l184 152h60l109 -152h-43l-104 94l-163 -94h-43z" />
<glyph unicode="&#xcf;" horiz-adv-x="407" d="M-33 0l5 47q70 1 84 14q9 9 23 62l128 476q10 39 10 49q0 17 -15.5 22t-64.5 5h-22l6 47h310l-5 -47q-70 -1 -84 -14q-9 -9 -23 -62l-128 -476q-10 -38 -10 -48q0 -17 15.5 -22.5t64.5 -5.5h22l-6 -47h-310zM184 842q0 20 14.5 34.5t34.5 14.5t34.5 -14.5t14.5 -34.5 t-14.5 -34.5t-34.5 -14.5t-34.5 14.5t-14.5 34.5zM374 842q0 20 14.5 34.5t34.5 14.5t34.5 -14.5t14.5 -34.5t-14.5 -34.5t-34.5 -14.5t-34.5 14.5t-14.5 34.5z" />
<glyph unicode="&#xd0;" horiz-adv-x="778" d="M-38 0l5 47h18q55 0 70 14q6 6 9.5 14.5t13.5 47.5l60 231h-102l12 47h103l55 198q9 32 9 49t-15 22t-64 5h-26l6 47h290q84 0 136 -12t89 -40q104 -78 104 -235q0 -100 -47.5 -197t-127.5 -161q-97 -77 -289 -77h-309zM181 75q0 -28 46 -28h32q141 0 205 57 q61 55 105 166t44 210q0 100 -45 147.5t-142 47.5h-30q-24 0 -31 -0.5t-18 -6.5t-15.5 -19t-11.5 -39l-57 -209h198l-12 -47h-199l-63 -244q-7 -24 -6 -35z" />
<glyph unicode="&#xd1;" horiz-adv-x="815" d="M-48 0l5 47q46 1 69 14t39.5 46.5t36.5 109.5l114 426q-6 20 -17.5 26t-47.5 6h-52l5 47h211l253 -552l90 335q23 93 23 115q0 55 -90 55l6 47h262l-5 -47q-63 -2 -88.5 -32t-53.5 -138l-139 -519h-39l-278 601l-99 -370q-24 -93 -24 -115q0 -29 18 -42t62 -13h21l-6 -47 h-276zM372 789q9 50 32.5 77.5t57.5 27.5q23 0 100 -26q42 -15 59 -15q32 0 49 42h30q-5 -43 -32.5 -74t-60.5 -31q-26 0 -86 23q-58 21 -74 21q-33 0 -45 -45h-30z" />
<glyph unicode="&#xd2;" horiz-adv-x="778" d="M40 275q0 121 59.5 228.5t155.5 170.5t202 63q120 0 199 -80.5t79 -206.5q0 -118 -56.5 -225t-155 -173.5t-211.5 -66.5q-125 0 -198.5 78.5t-73.5 211.5zM158 207q0 -83 42 -131t114 -48q59 0 110.5 30.5t85.5 85.5q47 75 77.5 175t30.5 177q0 89 -38.5 143.5 t-119.5 54.5q-101 0 -179 -100q-49 -63 -86 -179.5t-37 -207.5zM398 887q7 13 24.5 22t34.5 9q25 0 46 -27l98 -126h-47l-145 86q-23 13 -11 36z" />
<glyph unicode="&#xd3;" horiz-adv-x="778" d="M40 275q0 121 59.5 228.5t155.5 170.5t202 63q120 0 199 -80.5t79 -206.5q0 -118 -56.5 -225t-155 -173.5t-211.5 -66.5q-125 0 -198.5 78.5t-73.5 211.5zM158 207q0 -83 42 -131t114 -48q59 0 110.5 30.5t85.5 85.5q47 75 77.5 175t30.5 177q0 89 -38.5 143.5 t-119.5 54.5q-101 0 -179 -100q-49 -63 -86 -179.5t-37 -207.5zM385 765l166 126q35 27 60 27q17 0 29.5 -9t12.5 -22q0 -23 -30 -36l-191 -86h-47z" />
<glyph unicode="&#xd4;" horiz-adv-x="778" d="M40 275q0 121 59.5 228.5t155.5 170.5t202 63q120 0 199 -80.5t79 -206.5q0 -118 -56.5 -225t-155 -173.5t-211.5 -66.5q-125 0 -198.5 78.5t-73.5 211.5zM158 207q0 -83 42 -131t114 -48q59 0 110.5 30.5t85.5 85.5q47 75 77.5 175t30.5 177q0 89 -38.5 143.5 t-119.5 54.5q-101 0 -179 -100q-49 -63 -86 -179.5t-37 -207.5zM317 766l184 152h60l109 -152h-43l-104 94l-163 -94h-43z" />
<glyph unicode="&#xd5;" horiz-adv-x="778" d="M40 275q0 121 59.5 228.5t155.5 170.5t202 63q120 0 199 -80.5t79 -206.5q0 -118 -56.5 -225t-155 -173.5t-211.5 -66.5q-125 0 -198.5 78.5t-73.5 211.5zM158 207q0 -83 42 -131t114 -48q59 0 110.5 30.5t85.5 85.5q47 75 77.5 175t30.5 177q0 89 -38.5 143.5 t-119.5 54.5q-101 0 -179 -100q-49 -63 -86 -179.5t-37 -207.5zM349 789q9 50 32.5 77.5t57.5 27.5q23 0 100 -26q42 -15 59 -15q32 0 49 42h30q-5 -43 -32.5 -74t-60.5 -31q-26 0 -86 23q-58 21 -74 21q-33 0 -45 -45h-30z" />
<glyph unicode="&#xd6;" horiz-adv-x="778" d="M40 275q0 121 59.5 228.5t155.5 170.5t202 63q120 0 199 -80.5t79 -206.5q0 -118 -56.5 -225t-155 -173.5t-211.5 -66.5q-125 0 -198.5 78.5t-73.5 211.5zM158 207q0 -83 42 -131t114 -48q59 0 110.5 30.5t85.5 85.5q47 75 77.5 175t30.5 177q0 89 -38.5 143.5 t-119.5 54.5q-101 0 -179 -100q-49 -63 -86 -179.5t-37 -207.5zM370 842q0 20 14.5 34.5t34.5 14.5t34.5 -14.5t14.5 -34.5t-14.5 -34.5t-34.5 -14.5t-34.5 14.5t-14.5 34.5zM560 842q0 20 14.5 34.5t34.5 14.5t34.5 -14.5t14.5 -34.5t-14.5 -34.5t-34.5 -14.5t-34.5 14.5 t-14.5 34.5z" />
<glyph unicode="&#xd7;" horiz-adv-x="606" d="M84 92l157 158l-157 158l56 56l158 -157l158 157l56 -56l-157 -158l157 -158l-56 -56l-158 157l-158 -157z" />
<glyph unicode="&#xd8;" horiz-adv-x="778" d="M1 -87l118 145q-79 77 -79 218q0 120 57 227t153 170.5t203 63.5q98 0 171 -53l53 66h58l-77 -95q77 -80 77 -204q0 -118 -56.5 -225.5t-154.5 -174t-211 -66.5q-93 0 -160 44l-94 -116h-58zM158 209q0 -47 14 -84l412 509q-39 59 -127 59q-99 0 -176 -99 q-49 -64 -86 -180t-37 -205zM195 82q41 -53 120 -53q69 0 127.5 45t95 116t57 154.5t20.5 164.5q0 43 -11 79z" />
<glyph unicode="&#xd9;" horiz-adv-x="815" d="M93 176q0 45 20 118l82 305q9 36 9 49q0 17 -15 22t-64 5h-25l5 47h318l-6 -47h-18q-55 0 -69 -14q-7 -6 -9.5 -12.5t-13.5 -49.5l-90 -333q-14 -49 -14 -103q0 -64 42.5 -99.5t118.5 -35.5q114 0 174 84q18 25 30 58.5t35 119.5l58 215q23 93 23 115q0 29 -22.5 42 t-70.5 13l6 47h263l-5 -47q-36 -2 -53 -5.5t-33.5 -23.5t-26 -48.5t-27.5 -92.5l-56 -211q-33 -126 -68.5 -189.5t-92.5 -91.5t-155 -28q-122 0 -186 49t-64 142zM417 887q7 13 24.5 22t34.5 9q25 0 46 -27l98 -126h-47l-145 86q-23 13 -11 36z" />
<glyph unicode="&#xda;" horiz-adv-x="815" d="M93 176q0 45 20 118l82 305q9 36 9 49q0 17 -15 22t-64 5h-25l5 47h318l-6 -47h-18q-55 0 -69 -14q-7 -6 -9.5 -12.5t-13.5 -49.5l-90 -333q-14 -49 -14 -103q0 -64 42.5 -99.5t118.5 -35.5q114 0 174 84q18 25 30 58.5t35 119.5l58 215q23 93 23 115q0 29 -22.5 42 t-70.5 13l6 47h263l-5 -47q-36 -2 -53 -5.5t-33.5 -23.5t-26 -48.5t-27.5 -92.5l-56 -211q-33 -126 -68.5 -189.5t-92.5 -91.5t-155 -28q-122 0 -186 49t-64 142zM404 765l166 126q35 27 60 27q17 0 29.5 -9t12.5 -22q0 -23 -30 -36l-191 -86h-47z" />
<glyph unicode="&#xdb;" horiz-adv-x="815" d="M93 176q0 45 20 118l82 305q9 36 9 49q0 17 -15 22t-64 5h-25l5 47h318l-6 -47h-18q-55 0 -69 -14q-7 -6 -9.5 -12.5t-13.5 -49.5l-90 -333q-14 -49 -14 -103q0 -64 42.5 -99.5t118.5 -35.5q114 0 174 84q18 25 30 58.5t35 119.5l58 215q23 93 23 115q0 29 -22.5 42 t-70.5 13l6 47h263l-5 -47q-36 -2 -53 -5.5t-33.5 -23.5t-26 -48.5t-27.5 -92.5l-56 -211q-33 -126 -68.5 -189.5t-92.5 -91.5t-155 -28q-122 0 -186 49t-64 142zM336 766l184 152h60l109 -152h-43l-104 94l-163 -94h-43z" />
<glyph unicode="&#xdc;" horiz-adv-x="815" d="M93 176q0 45 20 118l82 305q9 36 9 49q0 17 -15 22t-64 5h-25l5 47h318l-6 -47h-18q-55 0 -69 -14q-7 -6 -9.5 -12.5t-13.5 -49.5l-90 -333q-14 -49 -14 -103q0 -64 42.5 -99.5t118.5 -35.5q114 0 174 84q18 25 30 58.5t35 119.5l58 215q23 93 23 115q0 29 -22.5 42 t-70.5 13l6 47h263l-5 -47q-36 -2 -53 -5.5t-33.5 -23.5t-26 -48.5t-27.5 -92.5l-56 -211q-33 -126 -68.5 -189.5t-92.5 -91.5t-155 -28q-122 0 -186 49t-64 142zM389 842q0 20 14.5 34.5t34.5 14.5t34.5 -14.5t14.5 -34.5t-14.5 -34.5t-34.5 -14.5t-34.5 14.5t-14.5 34.5z M579 842q0 20 14.5 34.5t34.5 14.5t34.5 -14.5t14.5 -34.5t-14.5 -34.5t-34.5 -14.5t-34.5 14.5t-14.5 34.5z" />
<glyph unicode="&#xdd;" horiz-adv-x="685" d="M32 675l5 47h308l-5 -47h-28q-61 0 -61 -24q0 -11 11 -38l100 -249l170 218q26 31 26 54q0 18 -17 28.5t-47 10.5h-23l5 47h282l-5 -47q-54 -3 -86 -24t-85 -87l-200 -256l-50 -185q-10 -41 -10 -49q0 -17 15.5 -22t64.5 -5h36l-5 -47h-347l6 47h22q69 0 83 14 q7 6 9.5 13.5t13.5 48.5l50 185l-120 298q-17 42 -37 55.5t-64 13.5h-17zM340 765l166 126q35 27 60 27q17 0 29.5 -9t12.5 -22q0 -23 -30 -36l-191 -86h-47z" />
<glyph unicode="&#xde;" horiz-adv-x="667" d="M-33 0l5 47q70 1 84 14q8 8 23 62l128 477q10 39 10 48q0 17 -15.5 22t-64.5 5h-22l6 47h310l-5 -47q-27 0 -43 -2t-26.5 -3.5t-16 -10t-8 -14t-7.5 -24t-9 -30.5h61q247 0 247 -181q0 -124 -109 -183q-51 -27 -100.5 -34t-188.5 -7h-18l-17 -63q-10 -38 -10 -48 q0 -17 15.5 -22.5t64.5 -5.5h22l-6 -47h-310zM221 233h19q74 -1 112 2q80 8 120 59t40 127q0 67 -33 95t-112 28h-12q-31 0 -43.5 -9.5t-20.5 -38.5z" />
<glyph unicode="&#xdf;" horiz-adv-x="556" d="M-76 -202q47 76 129 378l44 175q32 128 56 192.5t55 107.5q62 85 158 85q72 0 115.5 -39t43.5 -104q0 -136 -148 -186q92 -62 92 -160q0 -101 -56.5 -181t-144.5 -80q-46 0 -76 24t-30 62q0 25 15 41.5t38 16.5q20 0 34.5 -12.5t14.5 -29.5q0 -7 -7 -26.5t-7 -24.5 t6.5 -9.5t14.5 -4.5q37 0 73.5 93.5t36.5 181.5q0 47 -21.5 70.5t-74.5 33.5q-29 4 -29 22q0 8 6 13.5t13 5.5q55 -8 63 -8q41 0 72 53t31 123q0 43 -21 66.5t-59 23.5q-72 0 -114 -110q-12 -29 -68 -247l-35 -143q-48 -210 -114 -385z" />
<glyph unicode="&#xe0;" horiz-adv-x="574" d="M1 148q0 125 81 230q72 92 165 92q49 0 83 -29.5t39 -75.5l27 90h87l-100 -336q-11 -39 -11 -54q0 -10 6.5 -17.5t14.5 -7.5q40 0 99 118l31 -17q-17 -38 -49 -83q-52 -73 -117 -73q-27 0 -44 18t-17 47q0 13 5 32q-37 -54 -71 -75.5t-81 -21.5q-67 0 -107.5 44.5 t-40.5 118.5zM92 134q0 -46 21.5 -72t58.5 -26q72 0 117 90q51 104 51 200q0 41 -20.5 65t-55.5 24q-47 0 -80 -35q-40 -41 -66 -110.5t-26 -135.5zM230 621q-21 23 2.5 48.5t47.5 25.5q11 0 18 -6t16 -24l63 -140h-39z" />
<glyph unicode="&#xe1;" horiz-adv-x="574" d="M1 148q0 125 81 230q72 92 165 92q49 0 83 -29.5t39 -75.5l27 90h87l-100 -336q-11 -39 -11 -54q0 -10 6.5 -17.5t14.5 -7.5q40 0 99 118l31 -17q-17 -38 -49 -83q-52 -73 -117 -73q-27 0 -44 18t-17 47q0 13 5 32q-37 -54 -71 -75.5t-81 -21.5q-67 0 -107.5 44.5 t-40.5 118.5zM92 134q0 -46 21.5 -72t58.5 -26q72 0 117 90q51 104 51 200q0 41 -20.5 65t-55.5 24q-47 0 -80 -35q-40 -41 -66 -110.5t-26 -135.5zM210 525l138 140q31 30 50 30q14 0 24.5 -10.5t10.5 -24.5q0 -22 -25 -39l-159 -96h-39z" />
<glyph unicode="&#xe2;" horiz-adv-x="574" d="M1 148q0 125 81 230q72 92 165 92q49 0 83 -29.5t39 -75.5l27 90h87l-100 -336q-11 -39 -11 -54q0 -10 6.5 -17.5t14.5 -7.5q40 0 99 118l31 -17q-17 -38 -49 -83q-52 -73 -117 -73q-27 0 -44 18t-17 47q0 13 5 32q-37 -54 -71 -75.5t-81 -21.5q-67 0 -107.5 44.5 t-40.5 118.5zM92 134q0 -46 21.5 -72t58.5 -26q72 0 117 90q51 104 51 200q0 41 -20.5 65t-55.5 24q-47 0 -80 -35q-40 -41 -66 -110.5t-26 -135.5zM146 526l153 169h50l91 -169h-36l-86 104l-136 -104h-36z" />
<glyph unicode="&#xe3;" horiz-adv-x="574" d="M1 148q0 125 81 230q72 92 165 92q49 0 83 -29.5t39 -75.5l27 90h87l-100 -336q-11 -39 -11 -54q0 -10 6.5 -17.5t14.5 -7.5q40 0 99 118l31 -17q-17 -38 -49 -83q-52 -73 -117 -73q-27 0 -44 18t-17 47q0 13 5 32q-37 -54 -71 -75.5t-81 -21.5q-67 0 -107.5 44.5 t-40.5 118.5zM92 134q0 -46 21.5 -72t58.5 -26q72 0 117 90q51 104 51 200q0 41 -20.5 65t-55.5 24q-47 0 -80 -35q-40 -41 -66 -110.5t-26 -135.5zM152 557q9 50 32.5 77.5t57.5 27.5q23 0 100 -26q42 -15 59 -15q32 0 49 42h30q-5 -43 -32.5 -74t-60.5 -31q-26 0 -86 23 q-58 21 -74 21q-33 0 -45 -45h-30z" />
<glyph unicode="&#xe4;" horiz-adv-x="574" d="M1 148q0 125 81 230q72 92 165 92q49 0 83 -29.5t39 -75.5l27 90h87l-100 -336q-11 -39 -11 -54q0 -10 6.5 -17.5t14.5 -7.5q40 0 99 118l31 -17q-17 -38 -49 -83q-52 -73 -117 -73q-27 0 -44 18t-17 47q0 13 5 32q-37 -54 -71 -75.5t-81 -21.5q-67 0 -107.5 44.5 t-40.5 118.5zM92 134q0 -46 21.5 -72t58.5 -26q72 0 117 90q51 104 51 200q0 41 -20.5 65t-55.5 24q-47 0 -80 -35q-40 -41 -66 -110.5t-26 -135.5zM172 610q0 20 14.5 34.5t34.5 14.5t34.5 -14.5t14.5 -34.5t-14.5 -34.5t-34.5 -14.5t-34.5 14.5t-14.5 34.5zM362 610 q0 20 14.5 34.5t34.5 14.5t34.5 -14.5t14.5 -34.5t-14.5 -34.5t-34.5 -14.5t-34.5 14.5t-14.5 34.5z" />
<glyph unicode="&#xe5;" horiz-adv-x="574" d="M1 148q0 125 81 230q72 92 165 92q49 0 83 -29.5t39 -75.5l27 90h87l-100 -336q-11 -39 -11 -54q0 -10 6.5 -17.5t14.5 -7.5q40 0 99 118l31 -17q-17 -38 -49 -83q-52 -73 -117 -73q-27 0 -44 18t-17 47q0 13 5 32q-37 -54 -71 -75.5t-81 -21.5q-67 0 -107.5 44.5 t-40.5 118.5zM92 134q0 -46 21.5 -72t58.5 -26q72 0 117 90q51 104 51 200q0 41 -20.5 65t-55.5 24q-47 0 -80 -35q-40 -41 -66 -110.5t-26 -135.5zM216 611q0 41 29.5 70t70.5 29q40 0 69.5 -29t29.5 -70q0 -42 -29.5 -71t-71.5 -29q-40 0 -69 29.5t-29 70.5zM252 611 q0 -26 18.5 -45t44.5 -19q27 0 45.5 18.5t18.5 45.5q0 25 -18.5 44t-44.5 19t-45 -18.5t-19 -44.5z" />
<glyph unicode="&#xe6;" horiz-adv-x="722" d="M-18 84q0 72 74 113t247 63q15 59 15 88q0 37 -27.5 60t-72.5 23q-29 0 -50 -9t-21 -22q0 -1 6.5 -8t12.5 -19t6 -24q0 -23 -14.5 -36.5t-38.5 -13.5q-25 0 -39.5 15t-14.5 41q0 48 47 81.5t114 33.5q95 0 153 -73q79 73 173 73q52 0 83.5 -27.5t31.5 -73.5 q0 -71 -66 -110t-231 -67q-9 -32 -9 -55q0 -49 25 -76.5t70 -27.5q84 0 154 84l28 -26q-90 -106 -208 -106q-121 0 -142 106q-39 -58 -82 -82t-106 -24q-55 0 -86.5 26.5t-31.5 72.5zM75 95q0 -26 17 -43t44 -17q58 0 95 43t62 142q-111 -16 -164.5 -44.5t-53.5 -80.5z M378 232q100 16 151.5 48.5t51.5 94.5q0 24 -14 38t-37 14q-50 0 -86 -46.5t-66 -148.5z" />
<glyph unicode="&#xe7;" horiz-adv-x="444" d="M5 165q0 121 80.5 213t185.5 92q54 0 92 -31.5t38 -76.5q0 -32 -18 -53.5t-45 -21.5q-23 0 -38 13.5t-15 35.5q0 32 37 48q16 6 16 15q0 13 -20 23t-44 10q-68 0 -116 -74q-26 -39 -43.5 -100.5t-17.5 -112.5t26 -81.5t70 -30.5q71 0 148 99l29 -22q-74 -119 -185 -124 l-27 -50q21 3 30 3q36 0 58.5 -19t22.5 -49q0 -39 -34 -63t-90 -24q-48 0 -88 17l18 33q34 -12 63 -12q25 0 40 11t15 29q0 17 -13 28t-35 11q-13 0 -33 -6l-9 6l47 85q-70 11 -107.5 57.5t-37.5 121.5z" />
<glyph unicode="&#xe8;" horiz-adv-x="444" d="M-6 158q0 122 84.5 217t193.5 95q53 0 86 -28.5t33 -74.5q0 -90 -120 -143q-51 -23 -182 -54q-2 -26 -2 -34q0 -48 26 -76t71 -28q74 0 155 84l24 -27q-80 -104 -196 -104q-81 0 -127 46t-46 127zM94 209q67 14 102 30q111 49 111 134q0 26 -15 41.5t-40 15.5 q-55 0 -98 -60t-60 -161zM236 621q-21 23 2.5 48.5t47.5 25.5q11 0 18 -6t16 -24l63 -140h-39z" />
<glyph unicode="&#xe9;" horiz-adv-x="444" d="M-6 158q0 122 84.5 217t193.5 95q53 0 86 -28.5t33 -74.5q0 -90 -120 -143q-51 -23 -182 -54q-2 -26 -2 -34q0 -48 26 -76t71 -28q74 0 155 84l24 -27q-80 -104 -196 -104q-81 0 -127 46t-46 127zM94 209q67 14 102 30q111 49 111 134q0 26 -15 41.5t-40 15.5 q-55 0 -98 -60t-60 -161zM216 525l138 140q31 30 50 30q14 0 24.5 -10.5t10.5 -24.5q0 -22 -25 -39l-159 -96h-39z" />
<glyph unicode="&#xea;" horiz-adv-x="444" d="M-6 158q0 122 84.5 217t193.5 95q53 0 86 -28.5t33 -74.5q0 -90 -120 -143q-51 -23 -182 -54q-2 -26 -2 -34q0 -48 26 -76t71 -28q74 0 155 84l24 -27q-80 -104 -196 -104q-81 0 -127 46t-46 127zM94 209q67 14 102 30q111 49 111 134q0 26 -15 41.5t-40 15.5 q-55 0 -98 -60t-60 -161zM152 526l153 169h50l91 -169h-36l-86 104l-136 -104h-36z" />
<glyph unicode="&#xeb;" horiz-adv-x="444" d="M-6 158q0 122 84.5 217t193.5 95q53 0 86 -28.5t33 -74.5q0 -90 -120 -143q-51 -23 -182 -54q-2 -26 -2 -34q0 -48 26 -76t71 -28q74 0 155 84l24 -27q-80 -104 -196 -104q-81 0 -127 46t-46 127zM94 209q67 14 102 30q111 49 111 134q0 26 -15 41.5t-40 15.5 q-55 0 -98 -60t-60 -161zM178 610q0 20 14.5 34.5t34.5 14.5t34.5 -14.5t14.5 -34.5t-14.5 -34.5t-34.5 -14.5t-34.5 14.5t-14.5 34.5zM368 610q0 20 14.5 34.5t34.5 14.5t34.5 -14.5t14.5 -34.5t-14.5 -34.5t-34.5 -14.5t-34.5 14.5t-14.5 34.5z" />
<glyph unicode="&#xec;" d="M27 48q0 24 22 101l58 195q9 33 9 44q0 31 -57 31h-24l4 36l192 15l-106 -357q-12 -42 -12 -56q0 -21 17 -21q42 0 121 121l31 -17q-23 -35 -38.5 -55.5t-40 -47t-51 -39t-56.5 -12.5q-29 0 -49 18t-20 44zM135 621q-21 23 2.5 48.5t47.5 25.5q11 0 18 -6t16 -24l63 -140 h-39z" />
<glyph unicode="&#xed;" d="M27 48q0 24 22 101l58 195q9 33 9 44q0 31 -57 31h-24l4 36l192 15l-106 -357q-12 -42 -12 -56q0 -21 17 -21q42 0 121 121l31 -17q-23 -35 -38.5 -55.5t-40 -47t-51 -39t-56.5 -12.5q-29 0 -49 18t-20 44zM114 525l138 140q31 30 50 30q14 0 24.5 -10.5t10.5 -24.5 q0 -22 -25 -39l-159 -96h-39z" />
<glyph unicode="&#xee;" d="M27 48q0 24 22 101l58 195q9 33 9 44q0 31 -57 31h-24l4 36l192 15l-106 -357q-12 -42 -12 -56q0 -21 17 -21q42 0 121 121l31 -17q-23 -35 -38.5 -55.5t-40 -47t-51 -39t-56.5 -12.5q-29 0 -49 18t-20 44zM51 526l153 169h50l91 -169h-36l-86 104l-136 -104h-36z" />
<glyph unicode="&#xef;" d="M27 48q0 24 22 101l58 195q9 33 9 44q0 31 -57 31h-24l4 36l192 15l-106 -357q-12 -42 -12 -56q0 -21 17 -21q42 0 121 121l31 -17q-23 -35 -38.5 -55.5t-40 -47t-51 -39t-56.5 -12.5q-29 0 -49 18t-20 44zM77 610q0 20 14.5 34.5t34.5 14.5t34.5 -14.5t14.5 -34.5 t-14.5 -34.5t-34.5 -14.5t-34.5 14.5t-14.5 34.5zM267 610q0 20 14.5 34.5t34.5 14.5t34.5 -14.5t14.5 -34.5t-14.5 -34.5t-34.5 -14.5t-34.5 14.5t-14.5 34.5z" />
<glyph unicode="&#xf0;" horiz-adv-x="500" d="M5 173q0 78 38 147t100.5 109.5t130.5 40.5q34 0 68 -15q-4 8 -11.5 22t-8.5 17q-25 47 -67 89l-135 -67l-17 35l121 61q-32 27 -73 60l38 39q53 -29 101 -66l142 71l18 -35l-126 -63q126 -126 126 -326q0 -128 -79.5 -217.5t-187.5 -89.5q-82 0 -130 51t-48 137zM95 128 q0 -51 23 -78t66 -27q85 0 135 124q16 38 26 84t10 77q0 59 -23 91.5t-64 32.5q-48 0 -88.5 -46t-62.5 -115.5t-22 -142.5z" />
<glyph unicode="&#xf1;" horiz-adv-x="611" d="M14 0l102 344q9 33 9 44q0 31 -57 31h-24l4 36l181 15l-29 -135q98 135 185 135q40 0 68 -28.5t28 -68.5q0 -45 -24 -113l-47 -138q-19 -52 -19 -67q0 -8 5 -13.5t13 -5.5q48 0 124 120l29 -21q-87 -150 -183 -150q-30 0 -50 21t-20 53q0 30 18 84l53 156q15 46 15 70 q0 17 -11.5 29t-28.5 12q-32 0 -69.5 -27.5t-69.5 -75.5q-27 -39 -40.5 -70.5t-33.5 -97.5l-41 -139h-87zM205 557q9 50 32.5 77.5t57.5 27.5q23 0 100 -26q42 -15 59 -15q32 0 49 42h30q-5 -43 -32.5 -74t-60.5 -31q-26 0 -86 23q-58 21 -74 21q-33 0 -45 -45h-30z" />
<glyph unicode="&#xf2;" horiz-adv-x="500" d="M5 172q0 125 84 212q83 86 184 86q73 0 125 -55.5t52 -133.5q0 -118 -85 -214q-73 -82 -182 -82q-82 0 -130 50.5t-48 136.5zM95 128q0 -105 89 -105q40 0 69 23.5t55 75.5q20 41 33.5 94.5t13.5 92.5q0 58 -23 90.5t-64 32.5q-56 0 -98 -54q-31 -41 -53 -114.5 t-22 -135.5zM245 621q-21 23 2.5 48.5t47.5 25.5q11 0 18 -6t16 -24l63 -140h-39z" />
<glyph unicode="&#xf3;" horiz-adv-x="500" d="M5 172q0 125 84 212q83 86 184 86q73 0 125 -55.5t52 -133.5q0 -118 -85 -214q-73 -82 -182 -82q-82 0 -130 50.5t-48 136.5zM95 128q0 -105 89 -105q40 0 69 23.5t55 75.5q20 41 33.5 94.5t13.5 92.5q0 58 -23 90.5t-64 32.5q-56 0 -98 -54q-31 -41 -53 -114.5 t-22 -135.5zM224 525l138 140q31 30 50 30q14 0 24.5 -10.5t10.5 -24.5q0 -22 -25 -39l-159 -96h-39z" />
<glyph unicode="&#xf4;" horiz-adv-x="500" d="M5 172q0 125 84 212q83 86 184 86q73 0 125 -55.5t52 -133.5q0 -118 -85 -214q-73 -82 -182 -82q-82 0 -130 50.5t-48 136.5zM95 128q0 -105 89 -105q40 0 69 23.5t55 75.5q20 41 33.5 94.5t13.5 92.5q0 58 -23 90.5t-64 32.5q-56 0 -98 -54q-31 -41 -53 -114.5 t-22 -135.5zM161 526l153 169h50l91 -169h-36l-86 104l-136 -104h-36z" />
<glyph unicode="&#xf5;" horiz-adv-x="500" d="M5 172q0 125 84 212q83 86 184 86q73 0 125 -55.5t52 -133.5q0 -118 -85 -214q-73 -82 -182 -82q-82 0 -130 50.5t-48 136.5zM95 128q0 -105 89 -105q40 0 69 23.5t55 75.5q20 41 33.5 94.5t13.5 92.5q0 58 -23 90.5t-64 32.5q-56 0 -98 -54q-31 -41 -53 -114.5 t-22 -135.5zM167 557q9 50 32.5 77.5t57.5 27.5q23 0 100 -26q42 -15 59 -15q32 0 49 42h30q-5 -43 -32.5 -74t-60.5 -31q-26 0 -86 23q-58 21 -74 21q-33 0 -45 -45h-30z" />
<glyph unicode="&#xf6;" horiz-adv-x="500" d="M5 172q0 125 84 212q83 86 184 86q73 0 125 -55.5t52 -133.5q0 -118 -85 -214q-73 -82 -182 -82q-82 0 -130 50.5t-48 136.5zM95 128q0 -105 89 -105q40 0 69 23.5t55 75.5q20 41 33.5 94.5t13.5 92.5q0 58 -23 90.5t-64 32.5q-56 0 -98 -54q-31 -41 -53 -114.5 t-22 -135.5zM187 610q0 20 14.5 34.5t34.5 14.5t34.5 -14.5t14.5 -34.5t-14.5 -34.5t-34.5 -14.5t-34.5 14.5t-14.5 34.5zM377 610q0 20 14.5 34.5t34.5 14.5t34.5 -14.5t14.5 -34.5t-14.5 -34.5t-34.5 -14.5t-34.5 14.5t-14.5 34.5z" />
<glyph unicode="&#xf7;" horiz-adv-x="606" d="M35 210v80h526v-80h-526zM236 70q0 26 18 44t44 18t44 -18t18 -44t-18 -44t-44 -18t-44 18t-18 44zM236 431q0 25 18 43.5t44 18.5t44 -18.5t18 -43.5q0 -26 -18 -44t-44 -18t-44 18t-18 44z" />
<glyph unicode="&#xf8;" horiz-adv-x="500" d="M-5 173q0 118 81.5 207.5t186.5 89.5q33 0 63 -12l52 90h43l-62 -108q81 -60 81 -158q0 -113 -77.5 -205t-191.5 -92q-30 0 -64 8l-64 -113h-43l72 129q-77 49 -77 164zM85 129q0 -38 16 -70l203 359q-21 14 -47 14q-46 0 -86.5 -46t-63 -115.5t-22.5 -141.5zM129 33 q21 -10 45 -10q40 0 69 23.5t55 75.5q47 96 47 190q0 43 -15 76z" />
<glyph unicode="&#xf9;" horiz-adv-x="611" d="M41 419l3 36l193 15l-98 -328q-11 -37 -11 -57q0 -18 12.5 -30.5t30.5 -12.5q53 0 113 74.5t91 178.5l47 160h87l-99 -332q-12 -44 -12 -59q0 -10 5.5 -17t13.5 -7q32 0 109 113l30 -18q-53 -82 -94 -116t-87 -34q-28 0 -46 18.5t-18 47.5q0 26 12 68q-85 -133 -186 -133 q-42 0 -68.5 25.5t-26.5 66.5q0 23 4 39.5t27 91.5l40 135q8 29 8 43q0 17 -12.5 24.5t-43.5 7.5h-24zM280 621q-21 23 2.5 48.5t47.5 25.5q11 0 18 -6t16 -24l63 -140h-39z" />
<glyph unicode="&#xfa;" horiz-adv-x="611" d="M41 419l3 36l193 15l-98 -328q-11 -37 -11 -57q0 -18 12.5 -30.5t30.5 -12.5q53 0 113 74.5t91 178.5l47 160h87l-99 -332q-12 -44 -12 -59q0 -10 5.5 -17t13.5 -7q32 0 109 113l30 -18q-53 -82 -94 -116t-87 -34q-28 0 -46 18.5t-18 47.5q0 26 12 68q-85 -133 -186 -133 q-42 0 -68.5 25.5t-26.5 66.5q0 23 4 39.5t27 91.5l40 135q8 29 8 43q0 17 -12.5 24.5t-43.5 7.5h-24zM259 525l138 140q31 30 50 30q14 0 24.5 -10.5t10.5 -24.5q0 -22 -25 -39l-159 -96h-39z" />
<glyph unicode="&#xfb;" horiz-adv-x="611" d="M41 419l3 36l193 15l-98 -328q-11 -37 -11 -57q0 -18 12.5 -30.5t30.5 -12.5q53 0 113 74.5t91 178.5l47 160h87l-99 -332q-12 -44 -12 -59q0 -10 5.5 -17t13.5 -7q32 0 109 113l30 -18q-53 -82 -94 -116t-87 -34q-28 0 -46 18.5t-18 47.5q0 26 12 68q-85 -133 -186 -133 q-42 0 -68.5 25.5t-26.5 66.5q0 23 4 39.5t27 91.5l40 135q8 29 8 43q0 17 -12.5 24.5t-43.5 7.5h-24zM196 526l153 169h50l91 -169h-36l-86 104l-136 -104h-36z" />
<glyph unicode="&#xfc;" horiz-adv-x="611" d="M41 419l3 36l193 15l-98 -328q-11 -37 -11 -57q0 -18 12.5 -30.5t30.5 -12.5q53 0 113 74.5t91 178.5l47 160h87l-99 -332q-12 -44 -12 -59q0 -10 5.5 -17t13.5 -7q32 0 109 113l30 -18q-53 -82 -94 -116t-87 -34q-28 0 -46 18.5t-18 47.5q0 26 12 68q-85 -133 -186 -133 q-42 0 -68.5 25.5t-26.5 66.5q0 23 4 39.5t27 91.5l40 135q8 29 8 43q0 17 -12.5 24.5t-43.5 7.5h-24zM222 610q0 20 14.5 34.5t34.5 14.5t34.5 -14.5t14.5 -34.5t-14.5 -34.5t-34.5 -14.5t-34.5 14.5t-14.5 34.5zM412 610q0 20 14.5 34.5t34.5 14.5t34.5 -14.5t14.5 -34.5 t-14.5 -34.5t-34.5 -14.5t-34.5 14.5t-14.5 34.5z" />
<glyph unicode="&#xfd;" horiz-adv-x="500" d="M-79 -128q0 23 15 38.5t37 15.5q32 0 43 -31q3 -8 3 -39q0 -16 19 -16q43 0 106 77q21 27 57 84q-31 176 -71 324q-16 64 -38 64q-13 0 -25 -18t-40 -78l-31 14q62 163 130 163q32 0 54.5 -36.5t39.5 -118.5l44 -211q104 165 104 247q0 18 -6 52q-2 12 -2 17 q0 20 14.5 35t34.5 15t32.5 -14.5t12.5 -37.5q0 -25 -13.5 -58.5t-55.5 -115.5q-121 -236 -201 -338q-86 -108 -171 -108q-39 0 -65.5 21.5t-26.5 52.5zM199 525l138 140q31 30 50 30q14 0 24.5 -10.5t10.5 -24.5q0 -22 -25 -39l-159 -96h-39z" />
<glyph unicode="&#xfe;" horiz-adv-x="574" d="M-101 -202l4 36q51 2 62 12t26 64l209 701q9 32 9 43q0 17 -13 24.5t-44 7.5h-32l4 36l199 15l-104 -352q70 85 149 85q58 0 98 -44.5t40 -118.5q0 -124 -76 -223t-184 -99q-50 0 -74.5 18t-45.5 70l-48 -163q-11 -42 -11 -51q0 -14 14 -19.5t50 -5.5h12l-4 -36h-240z M152 127q0 -40 24 -66t60 -26q77 0 129 109q47 97 47 185q0 40 -20.5 64t-54.5 24q-46 0 -90 -48t-69.5 -115.5t-25.5 -126.5z" />
<glyph unicode="&#xff;" horiz-adv-x="500" d="M-79 -128q0 23 15 38.5t37 15.5q32 0 43 -31q3 -8 3 -39q0 -16 19 -16q43 0 106 77q21 27 57 84q-31 176 -71 324q-16 64 -38 64q-13 0 -25 -18t-40 -78l-31 14q62 163 130 163q32 0 54.5 -36.5t39.5 -118.5l44 -211q104 165 104 247q0 18 -6 52q-2 12 -2 17 q0 20 14.5 35t34.5 15t32.5 -14.5t12.5 -37.5q0 -25 -13.5 -58.5t-55.5 -115.5q-121 -236 -201 -338q-86 -108 -171 -108q-39 0 -65.5 21.5t-26.5 52.5zM161 610q0 20 14.5 34.5t34.5 14.5t34.5 -14.5t14.5 -34.5t-14.5 -34.5t-34.5 -14.5t-34.5 14.5t-14.5 34.5zM351 610 q0 20 14.5 34.5t34.5 14.5t34.5 -14.5t14.5 -34.5t-14.5 -34.5t-34.5 -14.5t-34.5 14.5t-14.5 34.5z" />
<glyph unicode="&#x100;" horiz-adv-x="704" d="M-82 0l5 47q41 0 74.5 27.5t73.5 93.5l330 569h41l125 -629q8 -39 21.5 -50t54.5 -11h25l-5 -47h-301l5 47h23q42 0 53.5 7t11.5 29q0 8 -4 32l-23 123h-255l-55 -96q-18 -30 -18 -55q0 -23 15 -31.5t54 -8.5h24l-6 -47h-269zM200 285h220l-57 287zM294 817l11 51h301 l-11 -51h-301z" />
<glyph unicode="&#x101;" horiz-adv-x="574" d="M1 148q0 125 81 230q72 92 165 92q49 0 83 -29.5t39 -75.5l27 90h87l-100 -336q-11 -39 -11 -54q0 -10 6.5 -17.5t14.5 -7.5q40 0 99 118l31 -17q-17 -38 -49 -83q-52 -73 -117 -73q-27 0 -44 18t-17 47q0 13 5 32q-37 -54 -71 -75.5t-81 -21.5q-67 0 -107.5 44.5 t-40.5 118.5zM92 134q0 -46 21.5 -72t58.5 -26q72 0 117 90q51 104 51 200q0 41 -20.5 65t-55.5 24q-47 0 -80 -35q-40 -41 -66 -110.5t-26 -135.5zM160 585l11 51h301l-11 -51h-301z" />
<glyph unicode="&#x102;" horiz-adv-x="704" d="M-82 0l5 47q41 0 74.5 27.5t73.5 93.5l330 569h41l125 -629q8 -39 21.5 -50t54.5 -11h25l-5 -47h-301l5 47h23q42 0 53.5 7t11.5 29q0 8 -4 32l-23 123h-255l-55 -96q-18 -30 -18 -55q0 -23 15 -31.5t54 -8.5h24l-6 -47h-269zM200 285h220l-57 287zM270 914h36 q3 -40 37.5 -63t91.5 -23q112 0 158 86h37q-16 -65 -70 -104t-130 -39q-79 0 -125 42t-35 101z" />
<glyph unicode="&#x103;" horiz-adv-x="574" d="M1 148q0 125 81 230q72 92 165 92q49 0 83 -29.5t39 -75.5l27 90h87l-100 -336q-11 -39 -11 -54q0 -10 6.5 -17.5t14.5 -7.5q40 0 99 118l31 -17q-17 -38 -49 -83q-52 -73 -117 -73q-27 0 -44 18t-17 47q0 13 5 32q-37 -54 -71 -75.5t-81 -21.5q-67 0 -107.5 44.5 t-40.5 118.5zM92 134q0 -46 21.5 -72t58.5 -26q72 0 117 90q51 104 51 200q0 41 -20.5 65t-55.5 24q-47 0 -80 -35q-40 -41 -66 -110.5t-26 -135.5zM161 666q0 14 1 24h30q2 -45 31 -70.5t76 -25.5q93 0 132 96h31q-14 -73 -59 -116t-108 -43q-59 0 -96.5 38t-37.5 97z" />
<glyph unicode="&#x104;" horiz-adv-x="704" d="M-82 0l5 47q41 0 74.5 27.5t73.5 93.5l330 569h41l125 -629q8 -39 21.5 -50t54.5 -11h25l-5 -47h-47q-45 0 -82 -28.5t-37 -65.5q0 -26 11.5 -43.5t32.5 -17.5q31 0 64 31l20 -18q-24 -32 -57.5 -56t-59.5 -24q-30 0 -55.5 27t-27.5 64q4 60 80 131h-143l5 47h23 q42 0 53.5 7t11.5 29q0 8 -4 32l-23 123h-255l-55 -96q-18 -30 -18 -55q0 -23 15 -31.5t54 -8.5h24l-6 -47h-269zM200 285h220l-57 287z" />
<glyph unicode="&#x105;" horiz-adv-x="574" d="M1 148q0 125 81 230q72 92 165 92q49 0 83 -29.5t39 -75.5l27 90h87l-100 -336q-11 -39 -11 -54q0 -10 6.5 -17.5t14.5 -7.5q40 0 99 118l31 -17q-17 -38 -49 -83q-36 -51 -79 -66q-31 -12 -53.5 -36t-22.5 -50t11.5 -43.5t32.5 -17.5q31 0 64 31l20 -18 q-24 -32 -57.5 -56t-59.5 -24q-30 0 -55.5 27t-27.5 64q4 56 75 126q-26 18 -26 55q0 13 5 32q-37 -54 -71 -75.5t-81 -21.5q-67 0 -107.5 44.5t-40.5 118.5zM92 134q0 -46 21.5 -72t58.5 -26q72 0 117 90q51 104 51 200q0 41 -20.5 65t-55.5 24q-47 0 -80 -35 q-40 -41 -66 -110.5t-26 -135.5z" />
<glyph unicode="&#x106;" horiz-adv-x="722" d="M40 280q0 115 56.5 221t150 171t195.5 65q108 0 175 -80l60 58h36l-56 -280h-41q-5 137 -46 198t-120 61q-63 0 -118 -43.5t-90.5 -111t-56 -146.5t-20.5 -153q0 -92 48 -149t138 -57q81 0 137 42.5t105 146.5l41 -18q-49 -115 -122.5 -167.5t-177.5 -52.5 q-133 0 -213.5 80.5t-80.5 214.5zM388 765l166 126q35 27 60 27q17 0 29.5 -9t12.5 -22q0 -23 -30 -36l-191 -86h-47z" />
<glyph unicode="&#x107;" horiz-adv-x="444" d="M5 166q0 120 80.5 212t185.5 92q54 0 92 -31.5t38 -76.5q0 -32 -18 -53.5t-45 -21.5q-23 0 -38 13.5t-15 35.5q0 32 37 48q16 6 16 15q0 13 -20 23t-44 10q-52 0 -94 -47.5t-62.5 -110.5t-20.5 -122q0 -56 24.5 -87.5t68.5 -31.5q75 0 151 99l29 -22q-80 -125 -193 -125 q-78 0 -125 49.5t-47 131.5zM220 525l138 140q31 30 50 30q14 0 24.5 -10.5t10.5 -24.5q0 -22 -25 -39l-159 -96h-39z" />
<glyph unicode="&#x108;" horiz-adv-x="722" d="M40 280q0 115 56.5 221t150 171t195.5 65q108 0 175 -80l60 58h36l-56 -280h-41q-5 137 -46 198t-120 61q-63 0 -118 -43.5t-90.5 -111t-56 -146.5t-20.5 -153q0 -92 48 -149t138 -57q81 0 137 42.5t105 146.5l41 -18q-49 -115 -122.5 -167.5t-177.5 -52.5 q-133 0 -213.5 80.5t-80.5 214.5zM320 766l184 152h60l109 -152h-43l-104 94l-163 -94h-43z" />
<glyph unicode="&#x109;" horiz-adv-x="444" d="M5 166q0 120 80.5 212t185.5 92q54 0 92 -31.5t38 -76.5q0 -32 -18 -53.5t-45 -21.5q-23 0 -38 13.5t-15 35.5q0 32 37 48q16 6 16 15q0 13 -20 23t-44 10q-52 0 -94 -47.5t-62.5 -110.5t-20.5 -122q0 -56 24.5 -87.5t68.5 -31.5q75 0 151 99l29 -22q-80 -125 -193 -125 q-78 0 -125 49.5t-47 131.5zM157 526l153 169h50l91 -169h-36l-86 104l-136 -104h-36z" />
<glyph unicode="&#x10a;" horiz-adv-x="722" d="M40 280q0 115 56.5 221t150 171t195.5 65q108 0 175 -80l60 58h36l-56 -280h-41q-5 137 -46 198t-120 61q-63 0 -118 -43.5t-90.5 -111t-56 -146.5t-20.5 -153q0 -92 48 -149t138 -57q81 0 137 42.5t105 146.5l41 -18q-49 -115 -122.5 -167.5t-177.5 -52.5 q-133 0 -213.5 80.5t-80.5 214.5zM468 842q0 20 14.5 34.5t34.5 14.5t34.5 -14.5t14.5 -34.5t-14.5 -34.5t-34.5 -14.5t-34.5 14.5t-14.5 34.5z" />
<glyph unicode="&#x10b;" horiz-adv-x="444" d="M5 166q0 120 80.5 212t185.5 92q54 0 92 -31.5t38 -76.5q0 -32 -18 -53.5t-45 -21.5q-23 0 -38 13.5t-15 35.5q0 32 37 48q16 6 16 15q0 13 -20 23t-44 10q-52 0 -94 -47.5t-62.5 -110.5t-20.5 -122q0 -56 24.5 -87.5t68.5 -31.5q75 0 151 99l29 -22q-80 -125 -193 -125 q-78 0 -125 49.5t-47 131.5zM278 610q0 20 14.5 34.5t34.5 14.5t34.5 -14.5t14.5 -34.5t-14.5 -34.5t-34.5 -14.5t-34.5 14.5t-14.5 34.5z" />
<glyph unicode="&#x10c;" horiz-adv-x="722" d="M40 280q0 115 56.5 221t150 171t195.5 65q108 0 175 -80l60 58h36l-56 -280h-41q-5 137 -46 198t-120 61q-63 0 -118 -43.5t-90.5 -111t-56 -146.5t-20.5 -153q0 -92 48 -149t138 -57q81 0 137 42.5t105 146.5l41 -18q-49 -115 -122.5 -167.5t-177.5 -52.5 q-133 0 -213.5 80.5t-80.5 214.5zM360 918h43l104 -94l163 94h43l-184 -152h-60z" />
<glyph unicode="&#x10d;" horiz-adv-x="444" d="M5 166q0 120 80.5 212t185.5 92q54 0 92 -31.5t38 -76.5q0 -32 -18 -53.5t-45 -21.5q-23 0 -38 13.5t-15 35.5q0 32 37 48q16 6 16 15q0 13 -20 23t-44 10q-52 0 -94 -47.5t-62.5 -110.5t-20.5 -122q0 -56 24.5 -87.5t68.5 -31.5q75 0 151 99l29 -22q-80 -125 -193 -125 q-78 0 -125 49.5t-47 131.5zM185 692h37l89 -98l142 98h37l-159 -163h-51z" />
<glyph unicode="&#x10e;" horiz-adv-x="778" d="M-38 0l5 47h20q53 0 68 14q8 8 23 62l128 476q9 36 9 49q0 17 -15 22t-64 5h-26l6 47h290q84 0 136 -12t89 -40q104 -78 104 -235q0 -100 -47.5 -197t-127.5 -161q-52 -41 -121 -59t-175 -18h-302zM181 79q0 -32 46 -32h32q140 0 206 57q61 53 105 167.5t44 217.5 q0 186 -188 186h-30q-40 0 -52 -10.5t-24 -54.5l-133 -500q-6 -22 -6 -31zM303 918h43l104 -94l163 94h43l-184 -152h-60z" />
<glyph unicode="&#x10f;" horiz-adv-x="611" d="M3 150q0 124 85 222t193 98q56 0 90 -36q15 -17 25 -46l66 223q9 30 9 44q0 31 -57 31h-31l4 36l199 15l-178 -600q-15 -53 -15 -72q0 -27 25 -27t48.5 24.5t67.5 95.5l30 -18q-82 -155 -175 -155q-68 0 -68 71q0 14 1 22q-64 -93 -162 -93q-70 0 -113.5 46t-43.5 119z M100 140q0 -49 24.5 -78.5t64.5 -29.5q73 0 123 97q24 46 40.5 105.5t16.5 99.5t-24 65.5t-61 25.5q-74 0 -131 -99q-53 -93 -53 -186zM567 517q103 46 114 117l-15 -1q-23 0 -36.5 13t-13.5 35q0 23 17.5 39.5t42.5 16.5q27 0 45 -20.5t18 -51.5q0 -52 -43.5 -100 t-116.5 -76z" />
<glyph unicode="&#x110;" horiz-adv-x="778" d="M-38 0l5 47h18q55 0 70 14q6 6 9.5 14.5t13.5 47.5l60 231h-102l12 47h103l55 198q9 32 9 49t-15 22t-64 5h-26l6 47h290q84 0 136 -12t89 -40q104 -78 104 -235q0 -100 -47.5 -197t-127.5 -161q-97 -77 -289 -77h-309zM181 75q0 -28 46 -28h32q141 0 205 57 q61 55 105 166t44 210q0 100 -45 147.5t-142 47.5h-30q-24 0 -31 -0.5t-18 -6.5t-15.5 -19t-11.5 -39l-57 -209h198l-12 -47h-199l-63 -244q-7 -24 -6 -35z" />
<glyph unicode="&#x111;" horiz-adv-x="611" d="M3 150q0 124 85 222t193 98q56 0 90 -36q15 -17 25 -46l52 175h-124l10 47h128q9 30 9 44q0 17 -13 24.5t-44 7.5h-31l4 36l199 15l-38 -127h87l-10 -47h-90l-127 -426q-15 -53 -15 -72q0 -27 25 -27t48.5 24.5t67.5 95.5l30 -18q-82 -155 -175 -155q-68 0 -68 71 q0 14 1 22q-64 -93 -162 -93q-70 0 -113.5 46t-43.5 119zM100 140q0 -49 24.5 -78.5t64.5 -29.5q73 0 123 97q24 46 40.5 105.5t16.5 99.5t-24 65.5t-61 25.5q-74 0 -131 -99q-53 -93 -53 -186z" />
<glyph unicode="&#x112;" horiz-adv-x="722" d="M-37 0l5 47h19q54 0 69 14q9 9 23 62l128 476q9 36 9 49q0 17 -15 22t-64 5h-26l6 47h584l-39 -241h-45v35q0 90 -35 124.5t-104 34.5h-58q-56 0 -71.5 -10.5t-28.5 -58.5l-55 -205h33q71 0 108.5 28.5t59.5 96.5l45 -6l-89 -334l-45 8q9 41 9 69q0 47 -23.5 69t-77.5 22 h-32l-59 -220q-11 -42 -11 -55q0 -18 15.5 -25t54.5 -7h54q105 0 164.5 39.5t124.5 158.5l5 8l41 -8l-78 -245h-601zM286 817l11 51h301l-11 -51h-301z" />
<glyph unicode="&#x113;" horiz-adv-x="444" d="M-6 158q0 122 84.5 217t193.5 95q53 0 86 -28.5t33 -74.5q0 -90 -120 -143q-51 -23 -182 -54q-2 -26 -2 -34q0 -48 26 -76t71 -28q74 0 155 84l24 -27q-80 -104 -196 -104q-81 0 -127 46t-46 127zM94 209q67 14 102 30q111 49 111 134q0 26 -15 41.5t-40 15.5 q-55 0 -98 -60t-60 -161zM166 585l11 51h301l-11 -51h-301z" />
<glyph unicode="&#x114;" horiz-adv-x="722" d="M-37 0l5 47h19q54 0 69 14q9 9 23 62l128 476q9 36 9 49q0 17 -15 22t-64 5h-26l6 47h584l-39 -241h-45v35q0 90 -35 124.5t-104 34.5h-58q-56 0 -71.5 -10.5t-28.5 -58.5l-55 -205h33q71 0 108.5 28.5t59.5 96.5l45 -6l-89 -334l-45 8q9 41 9 69q0 47 -23.5 69t-77.5 22 h-32l-59 -220q-11 -42 -11 -55q0 -18 15.5 -25t54.5 -7h54q105 0 164.5 39.5t124.5 158.5l5 8l41 -8l-78 -245h-601zM262 914h36q3 -40 37.5 -63t91.5 -23q112 0 158 86h37q-16 -65 -70 -104t-130 -39q-79 0 -125 42t-35 101z" />
<glyph unicode="&#x115;" horiz-adv-x="444" d="M-6 158q0 122 84.5 217t193.5 95q53 0 86 -28.5t33 -74.5q0 -90 -120 -143q-51 -23 -182 -54q-2 -26 -2 -34q0 -48 26 -76t71 -28q74 0 155 84l24 -27q-80 -104 -196 -104q-81 0 -127 46t-46 127zM94 209q67 14 102 30q111 49 111 134q0 26 -15 41.5t-40 15.5 q-55 0 -98 -60t-60 -161zM167 666q0 14 1 24h30q2 -45 31 -70.5t76 -25.5q93 0 132 96h31q-14 -73 -59 -116t-108 -43q-59 0 -96.5 38t-37.5 97z" />
<glyph unicode="&#x116;" horiz-adv-x="722" d="M-37 0l5 47h19q54 0 69 14q9 9 23 62l128 476q9 36 9 49q0 17 -15 22t-64 5h-26l6 47h584l-39 -241h-45v35q0 90 -35 124.5t-104 34.5h-58q-56 0 -71.5 -10.5t-28.5 -58.5l-55 -205h33q71 0 108.5 28.5t59.5 96.5l45 -6l-89 -334l-45 8q9 41 9 69q0 47 -23.5 69t-77.5 22 h-32l-59 -220q-11 -42 -11 -55q0 -18 15.5 -25t54.5 -7h54q105 0 164.5 39.5t124.5 158.5l5 8l41 -8l-78 -245h-601zM393 842q0 20 14.5 34.5t34.5 14.5t34.5 -14.5t14.5 -34.5t-14.5 -34.5t-34.5 -14.5t-34.5 14.5t-14.5 34.5z" />
<glyph unicode="&#x117;" horiz-adv-x="444" d="M-6 158q0 122 84.5 217t193.5 95q53 0 86 -28.5t33 -74.5q0 -90 -120 -143q-51 -23 -182 -54q-2 -26 -2 -34q0 -48 26 -76t71 -28q74 0 155 84l24 -27q-80 -104 -196 -104q-81 0 -127 46t-46 127zM94 209q67 14 102 30q111 49 111 134q0 26 -15 41.5t-40 15.5 q-55 0 -98 -60t-60 -161zM273 610q0 20 14.5 34.5t34.5 14.5t34.5 -14.5t14.5 -34.5t-14.5 -34.5t-34.5 -14.5t-34.5 14.5t-14.5 34.5z" />
<glyph unicode="&#x118;" horiz-adv-x="722" d="M-37 0l5 47h19q54 0 69 14q9 9 23 62l128 476q9 36 9 49q0 17 -15 22t-64 5h-26l6 47h584l-39 -241h-45v35q0 90 -35 124.5t-104 34.5h-58q-56 0 -71.5 -10.5t-28.5 -58.5l-55 -205h33q71 0 108.5 28.5t59.5 96.5l45 -6l-89 -334l-45 8q9 41 9 69q0 47 -23.5 69t-77.5 22 h-32l-59 -220q-11 -42 -11 -55q0 -18 15.5 -25t54.5 -7h54q105 0 164.5 39.5t124.5 158.5l5 8l41 -8l-78 -245h-63q-39 0 -71 -29t-32 -65q0 -26 11.5 -43.5t32.5 -17.5q31 0 64 31l20 -18q-24 -32 -57.5 -56t-59.5 -24q-30 0 -55.5 27t-27.5 64q4 60 80 131h-443z" />
<glyph unicode="&#x119;" horiz-adv-x="444" d="M-6 158q0 122 84.5 217t193.5 95q53 0 86 -28.5t33 -74.5q0 -90 -120 -143q-51 -23 -182 -54q-2 -26 -2 -34q0 -48 26 -76t71 -28q74 0 155 84l24 -27q-56 -72 -130 -95q-30 -8 -50 -34t-20 -54q0 -26 11.5 -43.5t32.5 -17.5q31 0 64 31l20 -18q-24 -32 -57.5 -56 t-59.5 -24q-30 0 -55.5 27t-27.5 64q4 55 65 116q-76 4 -119 49.5t-43 123.5zM94 209q67 14 102 30q111 49 111 134q0 26 -15 41.5t-40 15.5q-55 0 -98 -60t-60 -161z" />
<glyph unicode="&#x11a;" horiz-adv-x="722" d="M-37 0l5 47h19q54 0 69 14q9 9 23 62l128 476q9 36 9 49q0 17 -15 22t-64 5h-26l6 47h584l-39 -241h-45v35q0 90 -35 124.5t-104 34.5h-58q-56 0 -71.5 -10.5t-28.5 -58.5l-55 -205h33q71 0 108.5 28.5t59.5 96.5l45 -6l-89 -334l-45 8q9 41 9 69q0 47 -23.5 69t-77.5 22 h-32l-59 -220q-11 -42 -11 -55q0 -18 15.5 -25t54.5 -7h54q105 0 164.5 39.5t124.5 158.5l5 8l41 -8l-78 -245h-601zM285 918h43l104 -94l163 94h43l-184 -152h-60z" />
<glyph unicode="&#x11b;" horiz-adv-x="444" d="M-6 158q0 122 84.5 217t193.5 95q53 0 86 -28.5t33 -74.5q0 -90 -120 -143q-51 -23 -182 -54q-2 -26 -2 -34q0 -48 26 -76t71 -28q74 0 155 84l24 -27q-80 -104 -196 -104q-81 0 -127 46t-46 127zM94 209q67 14 102 30q111 49 111 134q0 26 -15 41.5t-40 15.5 q-55 0 -98 -60t-60 -161zM180 692h37l89 -98l142 98h37l-159 -163h-51z" />
<glyph unicode="&#x11c;" horiz-adv-x="778" d="M39 273q0 111 56 218.5t153.5 176.5t206.5 69q61 0 105 -20t83 -64l62 62h34l-55 -281l-42 7q-2 126 -48.5 189.5t-130.5 63.5q-136 0 -225 -169q-35 -68 -56 -149.5t-21 -153.5q0 -91 47.5 -142.5t130.5 -51.5q148 0 188 150l18 80v5q0 13 -17 17.5t-62 4.5h-33l5 47 h325l-6 -47h-21q-47 0 -63 -13q-8 -6 -11.5 -15t-14.5 -48l-60 -223h-44l-12 81q-47 -44 -96.5 -63t-120.5 -19q-129 0 -202 76t-73 212zM317 766l184 152h60l109 -152h-43l-104 94l-163 -94h-43z" />
<glyph unicode="&#x11d;" horiz-adv-x="537" d="M-79 -90q0 54 49 83q27 17 79 28q-55 27 -55 74q0 41 33 67q29 25 90 33q-62 33 -62 104q0 69 61 120t144 51q43 0 86 -19q68 54 114 54q26 0 44.5 -15.5t18.5 -36.5q0 -19 -11.5 -31.5t-28.5 -12.5q-12 0 -19 5t-19 21t-26 16q-15 0 -37 -19q59 -42 59 -111 q0 -34 -18 -69t-47 -58q-52 -42 -135 -42q-24 0 -72 7q-21 3 -41 3q-26 0 -43 -11.5t-17 -28.5q0 -26 37 -35q17 -4 110 -9q89 -5 132 -28q52 -28 52 -90q0 -74 -68 -118q-67 -44 -205 -44q-113 0 -169 39q-36 28 -36 73zM2 -83q0 -77 142 -77q86 0 132 23.5t46 67.5 q0 37 -37 52q-17 7 -61.5 13.5t-78.5 6.5q-67 0 -105 -22.5t-38 -63.5zM128 526l153 169h50l91 -169h-36l-86 104l-136 -104h-36zM146 279q0 -42 23.5 -66t64.5 -24q57 0 87.5 48.5t30.5 114.5q0 37 -23 58.5t-62 21.5q-54 0 -87.5 -42.5t-33.5 -110.5z" />
<glyph unicode="&#x11e;" horiz-adv-x="778" d="M39 273q0 111 56 218.5t153.5 176.5t206.5 69q61 0 105 -20t83 -64l62 62h34l-55 -281l-42 7q-2 126 -48.5 189.5t-130.5 63.5q-136 0 -225 -169q-35 -68 -56 -149.5t-21 -153.5q0 -91 47.5 -142.5t130.5 -51.5q148 0 188 150l18 80v5q0 13 -17 17.5t-62 4.5h-33l5 47 h325l-6 -47h-21q-47 0 -63 -13q-8 -6 -11.5 -15t-14.5 -48l-60 -223h-44l-12 81q-47 -44 -96.5 -63t-120.5 -19q-129 0 -202 76t-73 212zM334 914h36q3 -40 37.5 -63t91.5 -23q112 0 158 86h37q-16 -65 -70 -104t-130 -39q-79 0 -125 42t-35 101z" />
<glyph unicode="&#x11f;" horiz-adv-x="537" d="M-79 -90q0 54 49 83q27 17 79 28q-55 27 -55 74q0 41 33 67q29 25 90 33q-62 33 -62 104q0 69 61 120t144 51q43 0 86 -19q68 54 114 54q26 0 44.5 -15.5t18.5 -36.5q0 -19 -11.5 -31.5t-28.5 -12.5q-12 0 -19 5t-19 21t-26 16q-15 0 -37 -19q59 -42 59 -111 q0 -34 -18 -69t-47 -58q-52 -42 -135 -42q-24 0 -72 7q-21 3 -41 3q-26 0 -43 -11.5t-17 -28.5q0 -26 37 -35q17 -4 110 -9q89 -5 132 -28q52 -28 52 -90q0 -74 -68 -118q-67 -44 -205 -44q-113 0 -169 39q-36 28 -36 73zM2 -83q0 -77 142 -77q86 0 132 23.5t46 67.5 q0 37 -37 52q-17 7 -61.5 13.5t-78.5 6.5q-67 0 -105 -22.5t-38 -63.5zM143 666q0 14 1 24h30q2 -45 31 -70.5t76 -25.5q93 0 132 96h31q-14 -73 -59 -116t-108 -43q-59 0 -96.5 38t-37.5 97zM146 279q0 -42 23.5 -66t64.5 -24q57 0 87.5 48.5t30.5 114.5q0 37 -23 58.5 t-62 21.5q-54 0 -87.5 -42.5t-33.5 -110.5z" />
<glyph unicode="&#x120;" horiz-adv-x="778" d="M39 273q0 111 56 218.5t153.5 176.5t206.5 69q61 0 105 -20t83 -64l62 62h34l-55 -281l-42 7q-2 126 -48.5 189.5t-130.5 63.5q-136 0 -225 -169q-35 -68 -56 -149.5t-21 -153.5q0 -91 47.5 -142.5t130.5 -51.5q148 0 188 150l18 80v5q0 13 -17 17.5t-62 4.5h-33l5 47 h325l-6 -47h-21q-47 0 -63 -13q-8 -6 -11.5 -15t-14.5 -48l-60 -223h-44l-12 81q-47 -44 -96.5 -63t-120.5 -19q-129 0 -202 76t-73 212zM465 842q0 20 14.5 34.5t34.5 14.5t34.5 -14.5t14.5 -34.5t-14.5 -34.5t-34.5 -14.5t-34.5 14.5t-14.5 34.5z" />
<glyph unicode="&#x121;" horiz-adv-x="537" d="M-79 -90q0 54 49 83q27 17 79 28q-55 27 -55 74q0 41 33 67q29 25 90 33q-62 33 -62 104q0 69 61 120t144 51q43 0 86 -19q68 54 114 54q26 0 44.5 -15.5t18.5 -36.5q0 -19 -11.5 -31.5t-28.5 -12.5q-12 0 -19 5t-19 21t-26 16q-15 0 -37 -19q59 -42 59 -111 q0 -34 -18 -69t-47 -58q-52 -42 -135 -42q-24 0 -72 7q-21 3 -41 3q-26 0 -43 -11.5t-17 -28.5q0 -26 37 -35q17 -4 110 -9q89 -5 132 -28q52 -28 52 -90q0 -74 -68 -118q-67 -44 -205 -44q-113 0 -169 39q-36 28 -36 73zM2 -83q0 -77 142 -77q86 0 132 23.5t46 67.5 q0 37 -37 52q-17 7 -61.5 13.5t-78.5 6.5q-67 0 -105 -22.5t-38 -63.5zM146 279q0 -42 23.5 -66t64.5 -24q57 0 87.5 48.5t30.5 114.5q0 37 -23 58.5t-62 21.5q-54 0 -87.5 -42.5t-33.5 -110.5zM249 610q0 20 14.5 34.5t34.5 14.5t34.5 -14.5t14.5 -34.5t-14.5 -34.5 t-34.5 -14.5t-34.5 14.5t-14.5 34.5z" />
<glyph unicode="&#x122;" horiz-adv-x="778" d="M39 273q0 111 56 218.5t153.5 176.5t206.5 69q61 0 105 -20t83 -64l62 62h34l-55 -281l-42 7q-2 126 -48.5 189.5t-130.5 63.5q-136 0 -225 -169q-35 -68 -56 -149.5t-21 -153.5q0 -91 47.5 -142.5t130.5 -51.5q148 0 188 150l18 80v5q0 13 -17 17.5t-62 4.5h-33l5 47 h325l-6 -47h-21q-47 0 -63 -13q-8 -6 -11.5 -15t-14.5 -48l-60 -223h-44l-12 81q-47 -44 -96.5 -63t-120.5 -19q-129 0 -202 76t-73 212zM168 -260q103 46 114 117l-15 -1q-23 0 -36.5 13t-13.5 35q0 23 17.5 39.5t42.5 16.5q27 0 45 -20.5t18 -51.5q0 -52 -43.5 -100 t-116.5 -76z" />
<glyph unicode="&#x123;" horiz-adv-x="537" d="M-79 -90q0 54 49 83q27 17 79 28q-55 27 -55 74q0 41 33 67q29 25 90 33q-62 33 -62 104q0 69 61 120t144 51q43 0 86 -19q68 54 114 54q26 0 44.5 -15.5t18.5 -36.5q0 -19 -11.5 -31.5t-28.5 -12.5q-12 0 -19 5t-19 21t-26 16q-15 0 -37 -19q59 -42 59 -111 q0 -34 -18 -69t-47 -58q-52 -42 -135 -42q-24 0 -72 7q-21 3 -41 3q-26 0 -43 -11.5t-17 -28.5q0 -26 37 -35q17 -4 110 -9q89 -5 132 -28q52 -28 52 -90q0 -74 -68 -118q-67 -44 -205 -44q-113 0 -169 39q-36 28 -36 73zM2 -83q0 -77 142 -77q86 0 132 23.5t46 67.5 q0 37 -37 52q-17 7 -61.5 13.5t-78.5 6.5q-67 0 -105 -22.5t-38 -63.5zM146 279q0 -42 23.5 -66t64.5 -24q57 0 87.5 48.5t30.5 114.5q0 37 -23 58.5t-62 21.5q-54 0 -87.5 -42.5t-33.5 -110.5zM225 578q0 52 43.5 100t116.5 76l12 -28q-103 -46 -114 -117l15 1 q23 0 36.5 -13t13.5 -35q0 -23 -17.5 -39.5t-42.5 -16.5q-27 0 -45 20.5t-18 51.5z" />
<glyph unicode="&#x124;" horiz-adv-x="833" d="M-38 0l5 47h15q58 0 73 14q9 9 23 62l128 476q9 36 9 49q0 17 -15 22t-64 5h-26l6 47h317l-5 -47h-17q-56 0 -70 -14q-7 -5 -10 -13t-13 -49l-54 -198h322l53 198q10 34 10 49q0 17 -15 22t-64 5h-26l5 47h318l-5 -47h-17q-56 0 -71 -14q-6 -5 -9 -13t-14 -49l-128 -476 q-9 -34 -9 -49q0 -17 15 -22t64 -5h26l-6 -47h-317l5 47h17q56 0 71 14q8 8 23 62l61 231h-321l-62 -231q-10 -41 -10 -49q0 -17 15 -22t64 -5h26l-5 -47h-318zM347 766l184 152h60l109 -152h-43l-104 94l-163 -94h-43z" />
<glyph unicode="&#x125;" horiz-adv-x="611" d="M0 0l181 611q9 31 9 44q0 31 -57 31h-31l4 36l199 15l-119 -402q98 135 188 135q43 0 72 -28t29 -70q0 -44 -24 -112l-47 -138q-19 -53 -19 -67q0 -8 5 -13.5t13 -5.5q47 0 123 118l29 -21q-40 -71 -87.5 -109.5t-94.5 -38.5q-30 0 -50 21.5t-20 53.5q0 28 18 83l53 156 q15 46 15 70q0 18 -12.5 29.5t-31.5 11.5q-72 0 -143 -103q-27 -38 -40.5 -70t-33.5 -98l-41 -139h-87zM339 781l184 152h60l109 -152h-43l-104 94l-163 -94h-43z" />
<glyph unicode="&#x126;" horiz-adv-x="833" d="M-38 0l5 47h15q58 0 73 14q9 9 23 62l107 398h-122l11 42h122l10 36q9 36 9 49q0 17 -15 22t-64 5h-26l6 47h317l-5 -47h-17q-56 0 -70 -14q-7 -5 -10 -13t-13 -49l-10 -36h321l10 36q10 34 10 49q0 17 -15 22t-64 5h-26l5 47h318l-5 -47h-17q-56 0 -71 -14q-6 -5 -9 -13 t-14 -49l-10 -36h123l-11 -42h-123l-107 -398q-9 -34 -9 -49q0 -17 15 -22t64 -5h26l-6 -47h-317l5 47h17q56 0 71 14q8 8 23 62l61 231h-321l-62 -231q-10 -41 -10 -49q0 -17 15 -22t64 -5h26l-5 -47h-318zM264 401h322l32 120h-321z" />
<glyph unicode="&#x127;" horiz-adv-x="687" d="M127 0l144 485l-110 -33l9 36l111 32l27 91q9 31 9 44q0 31 -57 31h-31l4 36l199 15l-56 -189l221 66l-10 -36l-221 -65l-53 -178q98 135 188 135q43 0 72 -28t29 -70q0 -44 -24 -112l-47 -138q-19 -53 -19 -67q0 -8 5 -13.5t13 -5.5q47 0 123 118l29 -21 q-40 -71 -87.5 -109.5t-94.5 -38.5q-30 0 -50 21.5t-20 53.5q0 28 18 83l53 156q15 46 15 70q0 18 -12.5 29.5t-31.5 11.5q-72 0 -143 -103q-27 -38 -40.5 -70t-33.5 -98l-41 -139h-87z" />
<glyph unicode="&#x128;" horiz-adv-x="407" d="M-33 0l5 47q70 1 84 14q9 9 23 62l128 476q10 39 10 49q0 17 -15.5 22t-64.5 5h-22l6 47h310l-5 -47q-70 -1 -84 -14q-9 -9 -23 -62l-128 -476q-10 -38 -10 -48q0 -17 15.5 -22.5t64.5 -5.5h22l-6 -47h-310zM163 789q9 50 32.5 77.5t57.5 27.5q23 0 100 -26 q42 -15 59 -15q32 0 49 42h30q-5 -43 -32.5 -74t-60.5 -31q-26 0 -86 23q-58 21 -74 21q-33 0 -45 -45h-30z" />
<glyph unicode="&#x129;" d="M27 48q0 24 22 101l58 195q9 33 9 44q0 31 -57 31h-24l4 36l192 15l-106 -357q-12 -42 -12 -56q0 -21 17 -21q42 0 121 121l31 -17q-23 -35 -38.5 -55.5t-40 -47t-51 -39t-56.5 -12.5q-29 0 -49 18t-20 44zM57 557q9 50 32.5 77.5t57.5 27.5q23 0 100 -26q42 -15 59 -15 q32 0 49 42h30q-5 -43 -32.5 -74t-60.5 -31q-26 0 -86 23q-58 21 -74 21q-33 0 -45 -45h-30z" />
<glyph unicode="&#x12a;" horiz-adv-x="407" d="M-33 0l5 47q70 1 84 14q9 9 23 62l128 476q10 39 10 49q0 17 -15.5 22t-64.5 5h-22l6 47h310l-5 -47q-70 -1 -84 -14q-9 -9 -23 -62l-128 -476q-10 -38 -10 -48q0 -17 15.5 -22.5t64.5 -5.5h22l-6 -47h-310zM172 817l11 51h301l-11 -51h-301z" />
<glyph unicode="&#x12b;" d="M27 48q0 24 22 101l58 195q9 33 9 44q0 31 -57 31h-24l4 36l192 15l-106 -357q-12 -42 -12 -56q0 -21 17 -21q42 0 121 121l31 -17q-23 -35 -38.5 -55.5t-40 -47t-51 -39t-56.5 -12.5q-29 0 -49 18t-20 44zM65 585l11 51h301l-11 -51h-301z" />
<glyph unicode="&#x12c;" horiz-adv-x="407" d="M-33 0l5 47q70 1 84 14q9 9 23 62l128 476q10 39 10 49q0 17 -15.5 22t-64.5 5h-22l6 47h310l-5 -47q-70 -1 -84 -14q-9 -9 -23 -62l-128 -476q-10 -38 -10 -48q0 -17 15.5 -22.5t64.5 -5.5h22l-6 -47h-310zM148 914h36q3 -40 37.5 -63t91.5 -23q112 0 158 86h37 q-16 -65 -70 -104t-130 -39q-79 0 -125 42t-35 101z" />
<glyph unicode="&#x12d;" d="M27 48q0 24 22 101l58 195q9 33 9 44q0 31 -57 31h-24l4 36l192 15l-106 -357q-12 -42 -12 -56q0 -21 17 -21q42 0 121 121l31 -17q-23 -35 -38.5 -55.5t-40 -47t-51 -39t-56.5 -12.5q-29 0 -49 18t-20 44zM66 666q0 14 1 24h30q2 -45 31 -70.5t76 -25.5q93 0 132 96h31 q-14 -73 -59 -116t-108 -43q-59 0 -96.5 38t-37.5 97z" />
<glyph unicode="&#x12e;" horiz-adv-x="407" d="M-33 0l5 47q70 1 84 14q9 9 23 62l128 476q10 39 10 49q0 17 -15.5 22t-64.5 5h-22l6 47h310l-5 -47q-70 -1 -84 -14q-9 -9 -23 -62l-128 -476q-10 -38 -10 -48q0 -17 15.5 -22.5t64.5 -5.5h22l-6 -47h-48q-44 0 -81 -28.5t-37 -65.5q0 -26 11.5 -43.5t32.5 -17.5 q31 0 64 31l20 -18q-24 -32 -57.5 -56t-59.5 -24q-30 0 -55.5 27t-27.5 64q4 60 80 131h-152z" />
<glyph unicode="&#x12f;" d="M7 -131q2 54 68 120q-21 6 -34.5 22t-13.5 37q0 24 22 101l58 195q9 33 9 44q0 31 -57 31h-24l4 36l192 15l-106 -357q-12 -42 -12 -56q0 -21 17 -21q42 0 121 121l31 -17q-38 -58 -62 -85q-36 -42 -73 -58q-30 -13 -49.5 -38.5t-19.5 -52.5q0 -26 11.5 -43.5t32.5 -17.5 q31 0 64 31l20 -18q-24 -32 -57.5 -56t-59.5 -24q-31 0 -56 27t-26 64zM172 610q0 20 14.5 34.5t34.5 14.5t34.5 -14.5t14.5 -34.5t-14.5 -34.5t-34.5 -14.5t-34.5 14.5t-14.5 34.5z" />
<glyph unicode="&#x130;" horiz-adv-x="407" d="M-33 0l5 47q70 1 84 14q9 9 23 62l128 476q10 39 10 49q0 17 -15.5 22t-64.5 5h-22l6 47h310l-5 -47q-70 -1 -84 -14q-9 -9 -23 -62l-128 -476q-10 -38 -10 -48q0 -17 15.5 -22.5t64.5 -5.5h22l-6 -47h-310zM279 842q0 20 14.5 34.5t34.5 14.5t34.5 -14.5t14.5 -34.5 t-14.5 -34.5t-34.5 -14.5t-34.5 14.5t-14.5 34.5z" />
<glyph unicode="&#x131;" d="M27 48q0 24 22 101l58 195q9 33 9 44q0 31 -57 31h-24l4 36l192 15l-106 -357q-12 -42 -12 -56q0 -21 17 -21q42 0 121 121l31 -17q-23 -35 -38.5 -55.5t-40 -47t-51 -39t-56.5 -12.5q-29 0 -49 18t-20 44z" />
<glyph unicode="&#x134;" horiz-adv-x="611" d="M-13 143q0 61 35 103t86 42q35 0 57 -19.5t22 -51.5q0 -31 -18.5 -50.5t-47.5 -19.5q-9 0 -28 8.5t-32 8.5q-11 0 -18.5 -9t-7.5 -23q0 -44 35 -74t87 -30q63 0 100.5 43.5t65.5 147.5l102 380q10 40 10 49q0 17 -15 22t-64 5h-30l6 47h314l-5 -47h-18q-49 0 -63 -14 q-6 -6 -9.5 -14.5t-13.5 -47.5l-109 -407q-29 -107 -89.5 -157t-160.5 -50q-90 0 -140.5 41.5t-50.5 116.5zM350 766l184 152h60l109 -152h-43l-104 94l-163 -94h-43z" />
<glyph unicode="&#x135;" horiz-adv-x="315" d="M-166 -122q0 26 15.5 43t40.5 17q21 0 34.5 -13t13.5 -34q0 -12 -8 -27q-5 -8 -5 -14q0 -7 6.5 -12.5t14.5 -5.5q66 0 108 163q17 69 25 92l76 257q9 30 9 43q0 17 -13 24.5t-44 7.5h-35l4 36l203 15l-119 -400q-32 -109 -45.5 -141.5t-35.5 -60.5q-61 -70 -143 -70 q-47 0 -74.5 21.5t-27.5 58.5zM98 526l153 169h50l91 -169h-36l-86 104l-136 -104h-36z" />
<glyph unicode="&#x136;" horiz-adv-x="741" d="M-40 0l5 47h19q54 0 69 14q6 5 9.5 14t13.5 48l128 476q9 36 9 49q0 17 -15 22t-64 5h-26l6 47h317l-5 -47h-17q-56 0 -70 -14q-7 -5 -10 -13t-14 -49l-68 -257l288 240q54 44 54 68q0 14 -12.5 19.5t-46.5 5.5h-22l6 47h300l-5 -47q-60 -5 -101 -24.5t-100 -73.5 l-188 -157l152 -315q21 -44 32.5 -51t61.5 -7h31l-6 -47h-327l5 47h33q40 0 54 3.5t14 14.5q0 6 -16 39l-117 246l-113 -93l-36 -134q-10 -41 -10 -49q0 -17 15 -22t64 -5h26l-5 -47h-318zM201 -260q103 46 114 117l-15 -1q-23 0 -36.5 13t-13.5 35q0 23 17.5 39.5 t42.5 16.5q27 0 45 -20.5t18 -51.5q0 -52 -43.5 -100t-116.5 -76z" />
<glyph unicode="&#x137;" horiz-adv-x="556" d="M-5 0l181 611q9 33 9 44q0 31 -57 31h-31l4 36l199 15l-124 -418q51 79 98 115t99 36q41 0 69.5 -26.5t28.5 -64.5q0 -102 -183 -167q24 -20 34 -45t14 -77q2 -30 6 -39.5t15 -9.5q18 0 39.5 23.5t64.5 89.5l31 -20q-47 -78 -86.5 -113.5t-80.5 -35.5q-74 0 -74 100l1 49 v37q0 27 -16 27l-34 -3q-9 0 -15.5 6.5t-6.5 15.5q0 27 31 27q15 0 27 -5l13 -3q10 0 42 16q97 48 97 107q0 22 -13 36.5t-33 14.5q-28 0 -64.5 -25t-69.5 -67q-24 -31 -49.5 -84t-40.5 -104l-38 -130h-87zM86 -260q103 46 114 117l-15 -1q-23 0 -36.5 13t-13.5 35 q0 23 17.5 39.5t42.5 16.5q27 0 45 -20.5t18 -51.5q0 -52 -43.5 -100t-116.5 -76z" />
<glyph unicode="&#x139;" horiz-adv-x="667" d="M-37 0l5 47h19q54 0 69 14q9 9 23 62l128 476q9 36 9 49q0 17 -15 22t-64 5h-26l6 47h336l-6 -47h-22q-69 0 -83 -14q-7 -6 -9.5 -13.5t-13.5 -48.5l-125 -465q-11 -41 -11 -55q0 -18 15.5 -25t54.5 -7h42q106 0 167 42.5t127 163.5l41 -8l-78 -245h-589zM192 765 l166 126q35 27 60 27q17 0 29.5 -9t12.5 -22q0 -23 -30 -36l-191 -86h-47z" />
<glyph unicode="&#x13a;" d="M16 55q0 37 27 127l127 429q9 30 9 44q0 31 -57 31h-31l4 36l199 15l-185 -625q-13 -43 -13 -55q0 -21 18 -21q44 0 123 121l31 -17q-91 -155 -187 -155q-30 0 -47.5 19t-17.5 51zM133 780l166 126q35 27 60 27q17 0 29.5 -9t12.5 -22q0 -23 -30 -36l-191 -86h-47z" />
<glyph unicode="&#x13b;" horiz-adv-x="667" d="M-37 0l5 47h19q54 0 69 14q9 9 23 62l128 476q9 36 9 49q0 17 -15 22t-64 5h-26l6 47h336l-6 -47h-22q-69 0 -83 -14q-7 -6 -9.5 -13.5t-13.5 -48.5l-125 -465q-11 -41 -11 -55q0 -18 15.5 -25t54.5 -7h42q106 0 167 42.5t127 163.5l41 -8l-78 -245h-589zM214 -260 q103 46 114 117l-15 -1q-23 0 -36.5 13t-13.5 35q0 23 17.5 39.5t42.5 16.5q27 0 45 -20.5t18 -51.5q0 -52 -43.5 -100t-116.5 -76z" />
<glyph unicode="&#x13c;" d="M-74 -260q103 46 114 117l-15 -1q-23 0 -36.5 13t-13.5 35q0 23 17.5 39.5t42.5 16.5q27 0 45 -20.5t18 -51.5q0 -52 -43.5 -100t-116.5 -76zM16 55q0 37 27 127l127 429q9 30 9 44q0 31 -57 31h-31l4 36l199 15l-185 -625q-13 -43 -13 -55q0 -21 18 -21q44 0 123 121 l31 -17q-91 -155 -187 -155q-30 0 -47.5 19t-17.5 51z" />
<glyph unicode="&#x13d;" horiz-adv-x="667" d="M-37 0l5 47h19q54 0 69 14q9 9 23 62l128 476q9 36 9 49q0 17 -15 22t-64 5h-26l6 47h336l-6 -47h-22q-69 0 -83 -14q-7 -6 -9.5 -13.5t-13.5 -48.5l-125 -465q-11 -41 -11 -55q0 -18 15.5 -25t54.5 -7h42q106 0 167 42.5t127 163.5l41 -8l-78 -245h-589zM441 502 q103 46 114 117l-15 -1q-23 0 -36.5 13t-13.5 35q0 23 17.5 39.5t42.5 16.5q27 0 45 -20.5t18 -51.5q0 -52 -43.5 -100t-116.5 -76z" />
<glyph unicode="&#x13e;" d="M16 55q0 37 27 127l127 429q9 30 9 44q0 31 -57 31h-31l4 36l199 15l-185 -625q-13 -43 -13 -55q0 -21 18 -21q44 0 123 121l31 -17q-91 -155 -187 -155q-30 0 -47.5 19t-17.5 51zM275 517q103 46 114 117l-15 -1q-23 0 -36.5 13t-13.5 35q0 23 17.5 39.5t42.5 16.5 q27 0 45 -20.5t18 -51.5q0 -52 -43.5 -100t-116.5 -76z" />
<glyph unicode="&#x13f;" horiz-adv-x="667" d="M-37 0l5 47h19q54 0 69 14q9 9 23 62l128 476q9 36 9 49q0 17 -15 22t-64 5h-26l6 47h336l-6 -47h-22q-69 0 -83 -14q-7 -6 -9.5 -13.5t-13.5 -48.5l-125 -465q-11 -41 -11 -55q0 -18 15.5 -25t54.5 -7h42q106 0 167 42.5t127 163.5l41 -8l-78 -245h-589zM489 384 q0 20 14.5 34.5t34.5 14.5t34.5 -14.5t14.5 -34.5t-14.5 -34.5t-34.5 -14.5t-34.5 14.5t-14.5 34.5z" />
<glyph unicode="&#x140;" d="M16 55q0 37 27 127l127 429q9 30 9 44q0 31 -57 31h-31l4 36l199 15l-185 -625q-13 -43 -13 -55q0 -21 18 -21q44 0 123 121l31 -17q-91 -155 -187 -155q-30 0 -47.5 19t-17.5 51zM263 384q0 20 14.5 34.5t34.5 14.5t34.5 -14.5t14.5 -34.5t-14.5 -34.5t-34.5 -14.5 t-34.5 14.5t-14.5 34.5z" />
<glyph unicode="&#x141;" horiz-adv-x="667" d="M-37 0l5 47h17q56 0 71 14q9 9 23 62l37 135l-120 -69l18 65l119 68l74 277q9 36 9 49q0 17 -15 22t-64 5h-26l6 47h336l-6 -47h-22q-69 0 -83 -14q-7 -6 -9.5 -13.5t-13.5 -48.5l-58 -214l198 114l-19 -64l-196 -114l-50 -187q-11 -41 -11 -55q0 -18 15.5 -25t54.5 -7 h42q112 0 171.5 45t122.5 161l41 -8l-78 -245h-589z" />
<glyph unicode="&#x142;" d="M-20 262l18 60l111 75l64 214q11 40 11 47q0 28 -59 28h-32l4 36l200 15l-85 -282l122 83l-17 -60l-123 -83l-82 -283q-14 -43 -14 -55q0 -21 18 -21q43 0 124 121l30 -17q-91 -155 -187 -155q-30 0 -47.5 19t-17.5 51q0 24 4 42.5t24 85.5l45 154z" />
<glyph unicode="&#x143;" horiz-adv-x="815" d="M-48 0l5 47q46 1 69 14t39.5 46.5t36.5 109.5l114 426q-6 20 -17.5 26t-47.5 6h-52l5 47h211l253 -552l90 335q23 93 23 115q0 55 -90 55l6 47h262l-5 -47q-63 -2 -88.5 -32t-53.5 -138l-139 -519h-39l-278 601l-99 -370q-24 -93 -24 -115q0 -29 18 -42t62 -13h21l-6 -47 h-276zM408 765l166 126q35 27 60 27q17 0 29.5 -9t12.5 -22q0 -23 -30 -36l-191 -86h-47z" />
<glyph unicode="&#x144;" horiz-adv-x="611" d="M14 0l102 344q9 33 9 44q0 31 -57 31h-24l4 36l181 15l-29 -135q98 135 185 135q40 0 68 -28.5t28 -68.5q0 -45 -24 -113l-47 -138q-19 -52 -19 -67q0 -8 5 -13.5t13 -5.5q48 0 124 120l29 -21q-87 -150 -183 -150q-30 0 -50 21t-20 53q0 30 18 84l53 156q15 46 15 70 q0 17 -11.5 29t-28.5 12q-32 0 -69.5 -27.5t-69.5 -75.5q-27 -39 -40.5 -70.5t-33.5 -97.5l-41 -139h-87zM263 525l138 140q31 30 50 30q14 0 24.5 -10.5t10.5 -24.5q0 -22 -25 -39l-159 -96h-39z" />
<glyph unicode="&#x145;" horiz-adv-x="815" d="M-48 0l5 47q46 1 69 14t39.5 46.5t36.5 109.5l114 426q-6 20 -17.5 26t-47.5 6h-52l5 47h211l253 -552l90 335q23 93 23 115q0 55 -90 55l6 47h262l-5 -47q-63 -2 -88.5 -32t-53.5 -138l-139 -519h-39l-278 601l-99 -370q-24 -93 -24 -115q0 -29 18 -42t62 -13h21l-6 -47 h-276zM191 -260q103 46 114 117l-15 -1q-23 0 -36.5 13t-13.5 35q0 23 17.5 39.5t42.5 16.5q27 0 45 -20.5t18 -51.5q0 -52 -43.5 -100t-116.5 -76z" />
<glyph unicode="&#x146;" horiz-adv-x="611" d="M14 0l102 344q9 33 9 44q0 31 -57 31h-24l4 36l181 15l-29 -135q98 135 185 135q40 0 68 -28.5t28 -68.5q0 -45 -24 -113l-47 -138q-19 -52 -19 -67q0 -8 5 -13.5t13 -5.5q48 0 124 120l29 -21q-87 -150 -183 -150q-30 0 -50 21t-20 53q0 30 18 84l53 156q15 46 15 70 q0 17 -11.5 29t-28.5 12q-32 0 -69.5 -27.5t-69.5 -75.5q-27 -39 -40.5 -70.5t-33.5 -97.5l-41 -139h-87zM86 -260q103 46 114 117l-15 -1q-23 0 -36.5 13t-13.5 35q0 23 17.5 39.5t42.5 16.5q27 0 45 -20.5t18 -51.5q0 -52 -43.5 -100t-116.5 -76z" />
<glyph unicode="&#x147;" horiz-adv-x="815" d="M-48 0l5 47q46 1 69 14t39.5 46.5t36.5 109.5l114 426q-6 20 -17.5 26t-47.5 6h-52l5 47h211l253 -552l90 335q23 93 23 115q0 55 -90 55l6 47h262l-5 -47q-63 -2 -88.5 -32t-53.5 -138l-139 -519h-39l-278 601l-99 -370q-24 -93 -24 -115q0 -29 18 -42t62 -13h21l-6 -47 h-276zM380 918h43l104 -94l163 94h43l-184 -152h-60z" />
<glyph unicode="&#x148;" horiz-adv-x="611" d="M14 0l102 344q9 33 9 44q0 31 -57 31h-24l4 36l181 15l-29 -135q98 135 185 135q40 0 68 -28.5t28 -68.5q0 -45 -24 -113l-47 -138q-19 -52 -19 -67q0 -8 5 -13.5t13 -5.5q48 0 124 120l29 -21q-87 -150 -183 -150q-30 0 -50 21t-20 53q0 30 18 84l53 156q15 46 15 70 q0 17 -11.5 29t-28.5 12q-32 0 -69.5 -27.5t-69.5 -75.5q-27 -39 -40.5 -70.5t-33.5 -97.5l-41 -139h-87zM227 692h37l89 -98l142 98h37l-159 -163h-51z" />
<glyph unicode="&#x14a;" horiz-adv-x="815" d="M-48 0l5 47q46 1 69 14t39.5 46.5t36.5 109.5l114 426q-6 20 -17.5 26t-47.5 6h-52l5 47h211l253 -552l90 335q23 93 23 115q0 55 -90 55l6 47h262l-5 -47q-63 -2 -88.5 -32t-53.5 -138l-139 -519q-25 -95 -93.5 -165.5t-148.5 -70.5q-47 0 -74.5 21.5t-27.5 58.5 q0 26 15.5 43t40.5 17q21 0 34.5 -13t13.5 -34q0 -12 -8 -27q-5 -8 -5 -14q0 -7 6.5 -12.5t14.5 -5.5q65 0 113 64t72 155l-270 584l-99 -370q-24 -93 -24 -115q0 -29 18 -42t62 -13h21l-6 -47h-276z" />
<glyph unicode="&#x14b;" horiz-adv-x="611" d="M14 0l102 344q9 33 9 44q0 31 -57 31h-24l4 36l181 15l-29 -135q98 135 185 135q40 0 68 -28.5t28 -68.5q0 -45 -24 -113l-47 -138q-13 -47 -22.5 -79t-25.5 -75t-33 -71t-39 -54.5t-50 -39.5t-60 -13q-37 0 -59 17.5t-22 46.5q0 21 12.5 34.5t32.5 13.5q17 0 27.5 -10.5 t10.5 -26.5q0 -9 -6 -22q-4 -5 -4 -11q0 -5 5 -9.5t11 -4.5q18 0 37 28t39 85.5t32 99t31 112.5l53 156q15 46 15 70q0 17 -11.5 29t-28.5 12q-32 0 -69.5 -27.5t-69.5 -75.5q-27 -39 -40.5 -70.5t-33.5 -97.5l-41 -139h-87z" />
<glyph unicode="&#x14c;" horiz-adv-x="778" d="M40 275q0 121 59.5 228.5t155.5 170.5t202 63q120 0 199 -80.5t79 -206.5q0 -118 -56.5 -225t-155 -173.5t-211.5 -66.5q-125 0 -198.5 78.5t-73.5 211.5zM158 207q0 -83 42 -131t114 -48q59 0 110.5 30.5t85.5 85.5q47 75 77.5 175t30.5 177q0 89 -38.5 143.5 t-119.5 54.5q-101 0 -179 -100q-49 -63 -86 -179.5t-37 -207.5zM358 817l11 51h301l-11 -51h-301z" />
<glyph unicode="&#x14d;" horiz-adv-x="500" d="M5 172q0 125 84 212q83 86 184 86q73 0 125 -55.5t52 -133.5q0 -118 -85 -214q-73 -82 -182 -82q-82 0 -130 50.5t-48 136.5zM95 128q0 -105 89 -105q40 0 69 23.5t55 75.5q20 41 33.5 94.5t13.5 92.5q0 58 -23 90.5t-64 32.5q-56 0 -98 -54q-31 -41 -53 -114.5 t-22 -135.5zM175 585l11 51h301l-11 -51h-301z" />
<glyph unicode="&#x14e;" horiz-adv-x="778" d="M40 275q0 121 59.5 228.5t155.5 170.5t202 63q120 0 199 -80.5t79 -206.5q0 -118 -56.5 -225t-155 -173.5t-211.5 -66.5q-125 0 -198.5 78.5t-73.5 211.5zM158 207q0 -83 42 -131t114 -48q59 0 110.5 30.5t85.5 85.5q47 75 77.5 175t30.5 177q0 89 -38.5 143.5 t-119.5 54.5q-101 0 -179 -100q-49 -63 -86 -179.5t-37 -207.5zM334 914h36q3 -40 37.5 -63t91.5 -23q112 0 158 86h37q-16 -65 -70 -104t-130 -39q-79 0 -125 42t-35 101z" />
<glyph unicode="&#x14f;" horiz-adv-x="500" d="M5 172q0 125 84 212q83 86 184 86q73 0 125 -55.5t52 -133.5q0 -118 -85 -214q-73 -82 -182 -82q-82 0 -130 50.5t-48 136.5zM95 128q0 -105 89 -105q40 0 69 23.5t55 75.5q20 41 33.5 94.5t13.5 92.5q0 58 -23 90.5t-64 32.5q-56 0 -98 -54q-31 -41 -53 -114.5 t-22 -135.5zM176 666q0 14 1 24h30q2 -45 31 -70.5t76 -25.5q93 0 132 96h31q-14 -73 -59 -116t-108 -43q-59 0 -96.5 38t-37.5 97z" />
<glyph unicode="&#x150;" horiz-adv-x="778" d="M40 275q0 121 59.5 228.5t155.5 170.5t202 63q120 0 199 -80.5t79 -206.5q0 -118 -56.5 -225t-155 -173.5t-211.5 -66.5q-125 0 -198.5 78.5t-73.5 211.5zM158 207q0 -83 42 -131t114 -48q59 0 110.5 30.5t85.5 85.5q47 75 77.5 175t30.5 177q0 89 -38.5 143.5 t-119.5 54.5q-101 0 -179 -100q-49 -63 -86 -179.5t-37 -207.5zM395 778l140 139q31 30 50 30q14 0 24.5 -10.5t10.5 -24.5q0 -23 -25 -39l-159 -95h-41zM546 778l140 139q31 30 50 30q14 0 24.5 -10.5t10.5 -24.5q0 -24 -25 -39l-159 -95h-41z" />
<glyph unicode="&#x151;" horiz-adv-x="500" d="M5 172q0 125 84 212q83 86 184 86q73 0 125 -55.5t52 -133.5q0 -118 -85 -214q-73 -82 -182 -82q-82 0 -130 50.5t-48 136.5zM95 128q0 -105 89 -105q40 0 69 23.5t55 75.5q20 41 33.5 94.5t13.5 92.5q0 58 -23 90.5t-64 32.5q-56 0 -98 -54q-31 -41 -53 -114.5 t-22 -135.5zM207 526l140 139q31 30 50 30q14 0 24.5 -10.5t10.5 -24.5q0 -23 -25 -39l-159 -95h-41zM358 526l140 139q31 30 50 30q14 0 24.5 -10.5t10.5 -24.5q0 -24 -25 -39l-159 -95h-41z" />
<glyph unicode="&#x152;" horiz-adv-x="981" d="M36 284q0 118 58.5 223t155.5 163q48 28 105.5 40t146.5 12h461l-39 -241h-45v20q0 10 0.5 23t0.5 18v10q0 123 -118 123h-28q-39 0 -52 -11.5t-25 -57.5l-55 -205h27q59 0 86.5 27t50.5 98l45 -6l-89 -334l-45 8q9 39 9 71q0 48 -14 68.5t-56 20.5h-27l-59 -220 q-11 -40 -11 -56q0 -31 63 -31h22q86 0 140 36.5t103 130.5l21 39l41 -8l-78 -245h-509q-141 0 -213.5 75t-72.5 209zM159 223q0 -79 43 -128t111 -49q49 0 72 24.5t42 94.5l101 378q13 51 13 69q0 65 -94 65q-118 0 -204 -143q-37 -62 -60.5 -149.5t-23.5 -161.5z" />
<glyph unicode="&#x153;" horiz-adv-x="778" d="M0 177q0 114 82.5 203.5t185.5 89.5q93 0 148 -88q81 88 186 88q52 0 85 -29t33 -74q0 -90 -120 -143q-52 -23 -182 -54q-2 -26 -2 -34q0 -48 26 -76t71 -28q40 0 75.5 19t79.5 65l24 -27q-42 -55 -89 -79.5t-109 -24.5q-52 0 -85 16.5t-58 54.5q-69 -71 -177 -71 q-82 0 -128 51t-46 141zM91 128q0 -107 89 -107q40 0 69 23.5t55 76.5q46 95 46 200q0 50 -23 79.5t-63 29.5q-48 0 -88.5 -45t-62.5 -114.5t-22 -142.5zM424 209q110 25 161 65.5t51 98.5q0 25 -15 40t-39 15q-56 0 -100.5 -61t-57.5 -158z" />
<glyph unicode="&#x154;" horiz-adv-x="741" d="M-41 0l5 47h16q57 0 72 14q9 9 23 62l128 476q9 36 9 49q0 17 -15 22t-64 5h-26l6 47h320q258 0 258 -164q0 -49 -27.5 -91.5t-74.5 -66.5q-48 -24 -153 -36q55 -20 79 -58.5t24 -103.5q0 -5 -0.5 -17t-0.5 -19l-1 -51q-1 -61 30 -61q21 0 36 20t34 73l36 -15 q-29 -79 -62 -113t-81 -34q-47 0 -76.5 33.5t-29.5 87.5q0 24 6 100q3 31 3 54q0 49 -26.5 69.5t-89.5 20.5h-69l-61 -227q-7 -27 -10 -49q0 -17 15 -22t64 -5h26l-5 -47h-318zM260 397h78q63 0 93 5.5t58 21.5q82 49 82 141q0 53 -34.5 81.5t-97.5 28.5h-49 q-35 0 -47.5 -11t-23.5 -49zM320 765l166 126q35 27 60 27q17 0 29.5 -9t12.5 -22q0 -23 -30 -36l-191 -86h-47z" />
<glyph unicode="&#x155;" horiz-adv-x="444" d="M9 0l102 344q10 36 10 47q0 28 -58 28h-24l4 36l181 15l-23 -116q40 62 75.5 89t77.5 27q34 0 56.5 -21t22.5 -53q0 -28 -16.5 -46t-42.5 -18q-30 0 -43 22q-4 6 -4 32q0 23 -18 23q-34 0 -86 -78.5t-80 -172.5l-47 -158h-87zM158 525l138 140q31 30 50 30 q14 0 24.5 -10.5t10.5 -24.5q0 -22 -25 -39l-159 -96h-39z" />
<glyph unicode="&#x156;" horiz-adv-x="741" d="M-41 0l5 47h16q57 0 72 14q9 9 23 62l128 476q9 36 9 49q0 17 -15 22t-64 5h-26l6 47h320q258 0 258 -164q0 -49 -27.5 -91.5t-74.5 -66.5q-48 -24 -153 -36q55 -20 79 -58.5t24 -103.5q0 -5 -0.5 -17t-0.5 -19l-1 -51q-1 -61 30 -61q21 0 36 20t34 73l36 -15 q-29 -79 -62 -113t-81 -34q-47 0 -76.5 33.5t-29.5 87.5q0 24 6 100q3 31 3 54q0 49 -26.5 69.5t-89.5 20.5h-69l-61 -227q-7 -27 -10 -49q0 -17 15 -22t64 -5h26l-5 -47h-318zM103 -260q103 46 114 117l-15 -1q-23 0 -36.5 13t-13.5 35q0 23 17.5 39.5t42.5 16.5 q27 0 45 -20.5t18 -51.5q0 -52 -43.5 -100t-116.5 -76zM260 397h78q63 0 93 5.5t58 21.5q82 49 82 141q0 53 -34.5 81.5t-97.5 28.5h-49q-35 0 -47.5 -11t-23.5 -49z" />
<glyph unicode="&#x157;" horiz-adv-x="444" d="M-65 -260q103 46 114 117l-15 -1q-23 0 -36.5 13t-13.5 35q0 23 17.5 39.5t42.5 16.5q27 0 45 -20.5t18 -51.5q0 -52 -43.5 -100t-116.5 -76zM9 0l102 344q10 36 10 47q0 28 -58 28h-24l4 36l181 15l-23 -116q40 62 75.5 89t77.5 27q34 0 56.5 -21t22.5 -53 q0 -28 -16.5 -46t-42.5 -18q-30 0 -43 22q-4 6 -4 32q0 23 -18 23q-34 0 -86 -78.5t-80 -172.5l-47 -158h-87z" />
<glyph unicode="&#x158;" horiz-adv-x="741" d="M-41 0l5 47h16q57 0 72 14q9 9 23 62l128 476q9 36 9 49q0 17 -15 22t-64 5h-26l6 47h320q258 0 258 -164q0 -49 -27.5 -91.5t-74.5 -66.5q-48 -24 -153 -36q55 -20 79 -58.5t24 -103.5q0 -5 -0.5 -17t-0.5 -19l-1 -51q-1 -61 30 -61q21 0 36 20t34 73l36 -15 q-29 -79 -62 -113t-81 -34q-47 0 -76.5 33.5t-29.5 87.5q0 24 6 100q3 31 3 54q0 49 -26.5 69.5t-89.5 20.5h-69l-61 -227q-7 -27 -10 -49q0 -17 15 -22t64 -5h26l-5 -47h-318zM260 397h78q63 0 93 5.5t58 21.5q82 49 82 141q0 53 -34.5 81.5t-97.5 28.5h-49 q-35 0 -47.5 -11t-23.5 -49zM292 918h43l104 -94l163 94h43l-184 -152h-60z" />
<glyph unicode="&#x159;" horiz-adv-x="444" d="M9 0l102 344q10 36 10 47q0 28 -58 28h-24l4 36l181 15l-23 -116q40 62 75.5 89t77.5 27q34 0 56.5 -21t22.5 -53q0 -28 -16.5 -46t-42.5 -18q-30 0 -43 22q-4 6 -4 32q0 23 -18 23q-34 0 -86 -78.5t-80 -172.5l-47 -158h-87zM122 692h37l89 -98l142 98h37l-159 -163h-51 z" />
<glyph unicode="&#x15a;" horiz-adv-x="667" d="M0 0l55 285l40 -7q-1 -11 -1 -28q0 -101 56 -161.5t149 -60.5q77 0 125.5 39.5t48.5 103.5q0 55 -44 87q-12 8 -78 36l-86 36q-84 35 -115.5 78t-31.5 105q0 95 69.5 159.5t170.5 64.5q107 0 182 -74l54 52h38l-54 -261l-42 7q1 9 1 20q0 99 -46 156t-126 57 q-67 0 -111.5 -37.5t-44.5 -93.5q0 -39 27.5 -67.5t86.5 -51.5l85 -34q90 -36 125.5 -79.5t35.5 -116.5q0 -99 -76 -164t-193 -65q-122 0 -206 78l-59 -63h-35zM329 765l166 126q35 27 60 27q17 0 29.5 -9t12.5 -22q0 -23 -30 -36l-191 -86h-47z" />
<glyph unicode="&#x15b;" horiz-adv-x="444" d="M-1 98q0 29 16.5 48t41.5 19q22 0 36.5 -14.5t14.5 -35.5q0 -13 -3.5 -20.5t-17.5 -22.5q-7 -5 -7 -15q0 -15 24.5 -24.5t62.5 -9.5q52 0 83 24t31 64q0 26 -14.5 40.5t-56.5 31.5l-37.5 15t-33.5 15.5t-31.5 19.5t-22.5 22t-17 29t-5 35q0 65 51 108t130 43 q65 0 106.5 -29t41.5 -75q0 -27 -16 -44t-41 -17q-23 0 -37.5 13t-14.5 33q0 17 16 40q5 8 5 14q0 12 -18 19.5t-47 7.5q-44 0 -73 -23t-29 -57q0 -29 16.5 -45t65.5 -33q60 -22 87 -39q50 -34 50 -96q0 -68 -54 -111t-140 -43q-75 0 -119 30.5t-44 82.5zM199 525l138 140 q31 30 50 30q14 0 24.5 -10.5t10.5 -24.5q0 -22 -25 -39l-159 -96h-39z" />
<glyph unicode="&#x15c;" horiz-adv-x="667" d="M0 0l55 285l40 -7q-1 -11 -1 -28q0 -101 56 -161.5t149 -60.5q77 0 125.5 39.5t48.5 103.5q0 55 -44 87q-12 8 -78 36l-86 36q-84 35 -115.5 78t-31.5 105q0 95 69.5 159.5t170.5 64.5q107 0 182 -74l54 52h38l-54 -261l-42 7q1 9 1 20q0 99 -46 156t-126 57 q-67 0 -111.5 -37.5t-44.5 -93.5q0 -39 27.5 -67.5t86.5 -51.5l85 -34q90 -36 125.5 -79.5t35.5 -116.5q0 -99 -76 -164t-193 -65q-122 0 -206 78l-59 -63h-35zM261 766l184 152h60l109 -152h-43l-104 94l-163 -94h-43z" />
<glyph unicode="&#x15d;" horiz-adv-x="444" d="M-1 98q0 29 16.5 48t41.5 19q22 0 36.5 -14.5t14.5 -35.5q0 -13 -3.5 -20.5t-17.5 -22.5q-7 -5 -7 -15q0 -15 24.5 -24.5t62.5 -9.5q52 0 83 24t31 64q0 26 -14.5 40.5t-56.5 31.5l-37.5 15t-33.5 15.5t-31.5 19.5t-22.5 22t-17 29t-5 35q0 65 51 108t130 43 q65 0 106.5 -29t41.5 -75q0 -27 -16 -44t-41 -17q-23 0 -37.5 13t-14.5 33q0 17 16 40q5 8 5 14q0 12 -18 19.5t-47 7.5q-44 0 -73 -23t-29 -57q0 -29 16.5 -45t65.5 -33q60 -22 87 -39q50 -34 50 -96q0 -68 -54 -111t-140 -43q-75 0 -119 30.5t-44 82.5zM136 526l153 169 h50l91 -169h-36l-86 104l-136 -104h-36z" />
<glyph unicode="&#x15e;" horiz-adv-x="667" d="M0 0l55 285l40 -7q-1 -11 -1 -28q0 -98 53 -158q57 -64 152 -64q77 0 125.5 39.5t48.5 103.5q0 55 -44 87q-16 11 -78 36l-86 36q-72 31 -100 61q-47 52 -47 122q0 95 69.5 159.5t170.5 64.5q107 0 182 -74l54 52h38l-54 -261l-42 7q1 9 1 20q0 99 -46 156t-126 57 q-67 0 -111.5 -37.5t-44.5 -93.5q0 -74 114 -119l85 -34q89 -35 125 -79t36 -117q0 -100 -75.5 -164t-193.5 -65l-29 -49q21 3 30 3q36 0 58.5 -19t22.5 -49q0 -40 -34 -63.5t-90 -23.5q-47 0 -88 17l18 33q36 -12 62 -12q25 0 40.5 11t15.5 29t-13 28.5t-35 10.5 q-13 0 -33 -6l-9 6l50 86q-47 4 -94 24.5t-78 51.5l-59 -63h-35z" />
<glyph unicode="&#x15f;" horiz-adv-x="444" d="M-1 98q0 29 16.5 48t41.5 19q22 0 36.5 -14.5t14.5 -35.5q0 -13 -3.5 -20.5t-17.5 -22.5q-7 -5 -7 -15q0 -15 24.5 -24.5t62.5 -9.5q52 0 83 24t31 64q0 26 -14.5 40.5t-56.5 31.5l-37.5 15t-33.5 15.5t-31.5 19.5t-22.5 22t-17 29t-5 35q0 64 51 107.5t127 43.5 q67 0 109 -29t42 -75q0 -27 -16 -44t-41 -17q-23 0 -37.5 13t-14.5 33q0 17 16 40q5 8 5 14q0 12 -18 19.5t-47 7.5q-44 0 -73 -23t-29 -57q0 -29 16.5 -45t65.5 -33q60 -22 87 -39q50 -34 50 -96q0 -67 -51.5 -109.5t-135.5 -44.5l-29 -49q21 3 29 3q37 0 59.5 -19 t22.5 -49q0 -39 -34 -63t-90 -24q-48 0 -88 17l18 33q36 -12 62 -12q25 0 40.5 11t15.5 29t-13 28.5t-35 10.5q-13 0 -34 -6l-8 6l49 85q-65 7 -100 36t-35 76z" />
<glyph unicode="&#x160;" horiz-adv-x="667" d="M0 0l55 285l40 -7q-1 -11 -1 -28q0 -101 56 -161.5t149 -60.5q77 0 125.5 39.5t48.5 103.5q0 55 -44 87q-12 8 -78 36l-86 36q-84 35 -115.5 78t-31.5 105q0 95 69.5 159.5t170.5 64.5q107 0 182 -74l54 52h38l-54 -261l-42 7q1 9 1 20q0 99 -46 156t-126 57 q-67 0 -111.5 -37.5t-44.5 -93.5q0 -39 27.5 -67.5t86.5 -51.5l85 -34q90 -36 125.5 -79.5t35.5 -116.5q0 -99 -76 -164t-193 -65q-122 0 -206 78l-59 -63h-35zM301 918h43l104 -94l163 94h43l-184 -152h-60z" />
<glyph unicode="&#x161;" horiz-adv-x="444" d="M-1 98q0 29 16.5 48t41.5 19q22 0 36.5 -14.5t14.5 -35.5q0 -13 -3.5 -20.5t-17.5 -22.5q-7 -5 -7 -15q0 -15 24.5 -24.5t62.5 -9.5q52 0 83 24t31 64q0 26 -14.5 40.5t-56.5 31.5l-37.5 15t-33.5 15.5t-31.5 19.5t-22.5 22t-17 29t-5 35q0 65 51 108t130 43 q65 0 106.5 -29t41.5 -75q0 -27 -16 -44t-41 -17q-23 0 -37.5 13t-14.5 33q0 17 16 40q5 8 5 14q0 12 -18 19.5t-47 7.5q-44 0 -73 -23t-29 -57q0 -29 16.5 -45t65.5 -33q60 -22 87 -39q50 -34 50 -96q0 -68 -54 -111t-140 -43q-75 0 -119 30.5t-44 82.5zM164 692h37l89 -98 l142 98h37l-159 -163h-51z" />
<glyph unicode="&#x162;" horiz-adv-x="685" d="M40 464l88 258h598l-42 -275l-42 5q2 41 2 70q0 81 -27.5 117t-94.5 36h-14q-23 0 -31.5 -9t-18.5 -47l-133 -496q-9 -34 -9 -49q0 -17 15 -22t64 -5h37l-6 -47h-166l-36 -64q21 3 30 3q36 0 58.5 -19t22.5 -49q0 -39 -34 -63t-90 -24q-48 0 -88 17l18 33q36 -12 62 -12 q25 0 40.5 11t15.5 29t-13 28.5t-35 10.5q-13 0 -33 -6l-9 6l56 99h-145l5 47h22q69 0 84 14q9 9 23 62l136 510q5 18 5 25q0 17 -33 17h-14q-67 0 -110 -41.5t-117 -175.5z" />
<glyph unicode="&#x163;" horiz-adv-x="352" d="M-27 -199l18 33q36 -12 62 -12q25 0 40.5 11t15.5 29t-13 28.5t-35 10.5q-13 0 -33 -6l-9 6l51 89q-45 21 -45 71q0 27 19 95l75 252h-94l14 47h94l49 166h87l-49 -166h109l-14 -47h-109l-95 -319q-3 -12 -3 -23q0 -28 23 -28q25 0 51.5 26t72.5 96l30 -20 q-35 -57 -50 -77q-25 -34 -61.5 -55t-71.5 -23l-28 -49q21 3 30 3q36 0 58.5 -19t22.5 -49q0 -39 -34 -63t-90 -24q-48 0 -88 17z" />
<glyph unicode="&#x164;" horiz-adv-x="685" d="M40 464l88 258h598l-42 -275l-42 5q2 41 2 70q0 81 -27.5 117t-94.5 36h-14q-23 0 -31.5 -9t-18.5 -47l-133 -496q-9 -34 -9 -49q0 -17 15 -22t64 -5h37l-6 -47h-346l5 47h22q69 0 84 14q9 9 23 62l136 510q5 18 5 25q0 17 -33 17h-14q-67 0 -110 -41.5t-117 -175.5z M306 918h43l104 -94l163 94h43l-184 -152h-60z" />
<glyph unicode="&#x165;" horiz-adv-x="352" d="M25 61q0 27 19 95l75 252h-94l14 47h94l49 166h87l-49 -166h109l-14 -47h-109l-95 -319q-3 -12 -3 -23q0 -28 23 -28q25 0 51.5 26t72.5 96l30 -20q-35 -57 -50 -77q-26 -35 -64.5 -56.5t-73.5 -21.5q-30 0 -51 22t-21 54zM261 518q103 46 114 117l-15 -1q-23 0 -36.5 13 t-13.5 35q0 23 17.5 39.5t42.5 16.5q27 0 45 -20.5t18 -51.5q0 -52 -43.5 -100t-116.5 -76z" />
<glyph unicode="&#x168;" horiz-adv-x="815" d="M93 176q0 45 20 118l82 305q9 36 9 49q0 17 -15 22t-64 5h-25l5 47h318l-6 -47h-18q-55 0 -69 -14q-7 -6 -9.5 -12.5t-13.5 -49.5l-90 -333q-14 -49 -14 -103q0 -64 42.5 -99.5t118.5 -35.5q114 0 174 84q18 25 30 58.5t35 119.5l58 215q23 93 23 115q0 29 -22.5 42 t-70.5 13l6 47h263l-5 -47q-36 -2 -53 -5.5t-33.5 -23.5t-26 -48.5t-27.5 -92.5l-56 -211q-33 -126 -68.5 -189.5t-92.5 -91.5t-155 -28q-122 0 -186 49t-64 142zM368 789q9 50 32.5 77.5t57.5 27.5q23 0 100 -26q42 -15 59 -15q32 0 49 42h30q-5 -43 -32.5 -74t-60.5 -31 q-26 0 -86 23q-58 21 -74 21q-33 0 -45 -45h-30z" />
<glyph unicode="&#x169;" horiz-adv-x="611" d="M41 419l3 36l193 15l-98 -328q-11 -37 -11 -57q0 -18 12.5 -30.5t30.5 -12.5q53 0 113 74.5t91 178.5l47 160h87l-99 -332q-12 -44 -12 -59q0 -10 5.5 -17t13.5 -7q32 0 109 113l30 -18q-53 -82 -94 -116t-87 -34q-28 0 -46 18.5t-18 47.5q0 26 12 68q-85 -133 -186 -133 q-42 0 -68.5 25.5t-26.5 66.5q0 23 4 39.5t27 91.5l40 135q8 29 8 43q0 17 -12.5 24.5t-43.5 7.5h-24zM202 557q9 50 32.5 77.5t57.5 27.5q23 0 100 -26q42 -15 59 -15q32 0 49 42h30q-5 -43 -32.5 -74t-60.5 -31q-26 0 -86 23q-58 21 -74 21q-33 0 -45 -45h-30z" />
<glyph unicode="&#x16a;" horiz-adv-x="815" d="M93 176q0 45 20 118l82 305q9 36 9 49q0 17 -15 22t-64 5h-25l5 47h318l-6 -47h-18q-55 0 -69 -14q-7 -6 -9.5 -12.5t-13.5 -49.5l-90 -333q-14 -49 -14 -103q0 -64 42.5 -99.5t118.5 -35.5q114 0 174 84q18 25 30 58.5t35 119.5l58 215q23 93 23 115q0 29 -22.5 42 t-70.5 13l6 47h263l-5 -47q-36 -2 -53 -5.5t-33.5 -23.5t-26 -48.5t-27.5 -92.5l-56 -211q-33 -126 -68.5 -189.5t-92.5 -91.5t-155 -28q-122 0 -186 49t-64 142zM377 817l11 51h301l-11 -51h-301z" />
<glyph unicode="&#x16b;" horiz-adv-x="611" d="M41 419l3 36l193 15l-98 -328q-11 -37 -11 -57q0 -18 12.5 -30.5t30.5 -12.5q53 0 113 74.5t91 178.5l47 160h87l-99 -332q-12 -44 -12 -59q0 -10 5.5 -17t13.5 -7q32 0 109 113l30 -18q-53 -82 -94 -116t-87 -34q-28 0 -46 18.5t-18 47.5q0 26 12 68q-85 -133 -186 -133 q-42 0 -68.5 25.5t-26.5 66.5q0 23 4 39.5t27 91.5l40 135q8 29 8 43q0 17 -12.5 24.5t-43.5 7.5h-24zM210 585l11 51h301l-11 -51h-301z" />
<glyph unicode="&#x16c;" horiz-adv-x="815" d="M93 176q0 45 20 118l82 305q9 36 9 49q0 17 -15 22t-64 5h-25l5 47h318l-6 -47h-18q-55 0 -69 -14q-7 -6 -9.5 -12.5t-13.5 -49.5l-90 -333q-14 -49 -14 -103q0 -64 42.5 -99.5t118.5 -35.5q114 0 174 84q18 25 30 58.5t35 119.5l58 215q23 93 23 115q0 29 -22.5 42 t-70.5 13l6 47h263l-5 -47q-36 -2 -53 -5.5t-33.5 -23.5t-26 -48.5t-27.5 -92.5l-56 -211q-33 -126 -68.5 -189.5t-92.5 -91.5t-155 -28q-122 0 -186 49t-64 142zM353 914h36q3 -40 37.5 -63t91.5 -23q112 0 158 86h37q-16 -65 -70 -104t-130 -39q-79 0 -125 42t-35 101z " />
<glyph unicode="&#x16d;" horiz-adv-x="611" d="M41 419l3 36l193 15l-98 -328q-11 -37 -11 -57q0 -18 12.5 -30.5t30.5 -12.5q53 0 113 74.5t91 178.5l47 160h87l-99 -332q-12 -44 -12 -59q0 -10 5.5 -17t13.5 -7q32 0 109 113l30 -18q-53 -82 -94 -116t-87 -34q-28 0 -46 18.5t-18 47.5q0 26 12 68q-85 -133 -186 -133 q-42 0 -68.5 25.5t-26.5 66.5q0 23 4 39.5t27 91.5l40 135q8 29 8 43q0 17 -12.5 24.5t-43.5 7.5h-24zM211 666q0 14 1 24h30q2 -45 31 -70.5t76 -25.5q93 0 132 96h31q-14 -73 -59 -116t-108 -43q-59 0 -96.5 38t-37.5 97z" />
<glyph unicode="&#x16e;" horiz-adv-x="815" d="M93 176q0 45 20 118l82 305q9 36 9 49q0 17 -15 22t-64 5h-25l5 47h318l-6 -47h-18q-55 0 -69 -14q-7 -6 -9.5 -12.5t-13.5 -49.5l-90 -333q-14 -49 -14 -103q0 -64 42.5 -99.5t118.5 -35.5q114 0 174 84q18 25 30 58.5t35 119.5l58 215q23 93 23 115q0 29 -22.5 42 t-70.5 13l6 47h263l-5 -47q-36 -2 -53 -5.5t-33.5 -23.5t-26 -48.5t-27.5 -92.5l-56 -211q-33 -126 -68.5 -189.5t-92.5 -91.5t-155 -28q-122 0 -186 49t-64 142zM437 858q0 41 29.5 70t70.5 29t70 -29.5t29 -69.5q0 -42 -29.5 -71t-71.5 -29q-40 0 -69 29.5t-29 70.5z M473 858q0 -26 18.5 -45t44.5 -19q27 0 45.5 18.5t18.5 45.5q0 26 -19 44.5t-44 18.5q-26 0 -45 -18.5t-19 -44.5z" />
<glyph unicode="&#x16f;" horiz-adv-x="611" d="M41 419l3 36l193 15l-98 -328q-11 -37 -11 -57q0 -18 12.5 -30.5t30.5 -12.5q53 0 113 74.5t91 178.5l47 160h87l-99 -332q-12 -44 -12 -59q0 -10 5.5 -17t13.5 -7q32 0 109 113l30 -18q-53 -82 -94 -116t-87 -34q-28 0 -46 18.5t-18 47.5q0 26 12 68q-85 -133 -186 -133 q-42 0 -68.5 25.5t-26.5 66.5q0 23 4 39.5t27 91.5l40 135q8 29 8 43q0 17 -12.5 24.5t-43.5 7.5h-24zM266 611q0 41 29.5 70t70.5 29q40 0 69.5 -29t29.5 -70q0 -42 -29.5 -71t-71.5 -29q-40 0 -69 29.5t-29 70.5zM302 611q0 -26 18.5 -45t44.5 -19q27 0 45.5 18.5 t18.5 45.5q0 25 -18.5 44t-44.5 19t-45 -18.5t-19 -44.5z" />
<glyph unicode="&#x170;" horiz-adv-x="815" d="M93 176q0 45 20 118l82 305q9 36 9 49q0 17 -15 22t-64 5h-25l5 47h318l-6 -47h-18q-55 0 -69 -14q-7 -6 -9.5 -12.5t-13.5 -49.5l-90 -333q-14 -49 -14 -103q0 -64 42.5 -99.5t118.5 -35.5q114 0 174 84q18 25 30 58.5t35 119.5l58 215q23 93 23 115q0 29 -22.5 42 t-70.5 13l6 47h263l-5 -47q-36 -2 -53 -5.5t-33.5 -23.5t-26 -48.5t-27.5 -92.5l-56 -211q-33 -126 -68.5 -189.5t-92.5 -91.5t-155 -28q-122 0 -186 49t-64 142zM414 778l140 139q31 30 50 30q14 0 24.5 -10.5t10.5 -24.5q0 -23 -25 -39l-159 -95h-41zM565 778l140 139 q31 30 50 30q14 0 24.5 -10.5t10.5 -24.5q0 -24 -25 -39l-159 -95h-41z" />
<glyph unicode="&#x171;" horiz-adv-x="611" d="M41 419l3 36l193 15l-98 -328q-11 -37 -11 -57q0 -18 12.5 -30.5t30.5 -12.5q53 0 113 74.5t91 178.5l47 160h87l-99 -332q-12 -44 -12 -59q0 -10 5.5 -17t13.5 -7q32 0 109 113l30 -18q-53 -82 -94 -116t-87 -34q-28 0 -46 18.5t-18 47.5q0 26 12 68q-85 -133 -186 -133 q-42 0 -68.5 25.5t-26.5 66.5q0 23 4 39.5t27 91.5l40 135q8 29 8 43q0 17 -12.5 24.5t-43.5 7.5h-24zM242 526l140 139q31 30 50 30q14 0 24.5 -10.5t10.5 -24.5q0 -23 -25 -39l-159 -95h-41zM393 526l140 139q31 30 50 30q14 0 24.5 -10.5t10.5 -24.5q0 -24 -25 -39 l-159 -95h-41z" />
<glyph unicode="&#x172;" horiz-adv-x="815" d="M93 176q0 45 20 118l82 305q9 36 9 49q0 17 -15 22t-64 5h-25l5 47h318l-6 -47h-18q-55 0 -69 -14q-7 -6 -9.5 -12.5t-13.5 -49.5l-90 -333q-14 -49 -14 -103q0 -64 42.5 -99.5t118.5 -35.5q114 0 174 84q18 25 30 58.5t35 119.5l58 215q23 93 23 115q0 29 -22.5 42 t-70.5 13l6 47h263l-5 -47q-36 -2 -53 -5.5t-33.5 -23.5t-26 -48.5t-27.5 -92.5l-56 -211q-42 -159 -91.5 -224.5t-146.5 -79.5q-37 -5 -65.5 -29.5t-28.5 -54.5q0 -26 11.5 -43.5t32.5 -17.5q31 0 64 31l20 -18q-24 -32 -57.5 -56t-59.5 -24q-30 0 -55.5 27t-27.5 64 q4 55 65 116q-111 5 -169 54t-58 137z" />
<glyph unicode="&#x173;" horiz-adv-x="611" d="M41 419l3 36l193 15l-98 -328q-11 -37 -11 -57q0 -18 12.5 -30.5t30.5 -12.5q53 0 113 74.5t91 178.5l47 160h87l-99 -332q-12 -44 -12 -59q0 -10 5.5 -17t13.5 -7q32 0 109 113l30 -18q-73 -113 -128 -138q-32 -15 -53 -39.5t-21 -51.5q0 -26 11.5 -43.5t32.5 -17.5 q31 0 64 31l20 -18q-24 -32 -58 -56t-60 -24q-30 0 -55 27t-27 64q3 55 69 120q-40 17 -40 62q0 26 12 68q-85 -133 -186 -133q-42 0 -68.5 25.5t-26.5 66.5q0 23 4 39.5t27 91.5l40 135q8 29 8 43q0 17 -12.5 24.5t-43.5 7.5h-24z" />
<glyph unicode="&#x174;" horiz-adv-x="926" d="M53 675l5 47h267l-6 -47h-20q-31 0 -43 -6.5t-12 -23.5q0 -11 5 -46l54 -403l168 383l-7 50q-5 33 -14.5 39.5t-55.5 6.5h-18l5 47h278l-5 -47h-19q-36 0 -48.5 -5.5t-12.5 -21.5q0 -7 2 -27l54 -425l163 376q23 55 23 72q0 31 -64 31h-17l5 47h233l-5 -47 q-51 -11 -75.5 -37t-59.5 -106l-238 -547h-38l-70 505l-227 -505h-35l-79 602q-8 61 -19 72q-13 16 -48 16h-26zM356 766l184 152h60l109 -152h-43l-104 94l-163 -94h-43z" />
<glyph unicode="&#x175;" horiz-adv-x="778" d="M32 82q0 30 17 85l52 177q8 26 8 43t-12.5 24.5t-43.5 7.5h-17l4 36l185 15l-87 -293q-20 -67 -20 -91q0 -20 15 -34t37 -14q51 0 104 75q60 82 87 175l50 167h87l-65 -216q-23 -81 -23 -130q0 -33 14.5 -52t40.5 -19q70 0 139 128q45 87 45 152q0 16 -5 26t-23 30 q-21 24 -21 46q0 21 13.5 35.5t32.5 14.5q26 0 44 -23t18 -56q0 -61 -27 -143.5t-68 -145.5q-40 -61 -81.5 -89t-92.5 -28q-49 0 -78.5 29.5t-29.5 78.5q0 9 2 41q-42 -63 -76 -97q-50 -52 -118 -52q-49 0 -78 26.5t-29 70.5zM291 526l153 169h50l91 -169h-36l-86 104 l-136 -104h-36z" />
<glyph unicode="&#x176;" horiz-adv-x="685" d="M32 675l5 47h308l-5 -47h-28q-61 0 -61 -24q0 -11 11 -38l100 -249l170 218q26 31 26 54q0 18 -17 28.5t-47 10.5h-23l5 47h282l-5 -47q-54 -3 -86 -24t-85 -87l-200 -256l-50 -185q-10 -41 -10 -49q0 -17 15.5 -22t64.5 -5h36l-5 -47h-347l6 47h22q69 0 83 14 q7 6 9.5 13.5t13.5 48.5l50 185l-120 298q-17 42 -37 55.5t-64 13.5h-17zM272 766l184 152h60l109 -152h-43l-104 94l-163 -94h-43z" />
<glyph unicode="&#x177;" horiz-adv-x="500" d="M-79 -128q0 23 15 38.5t37 15.5q32 0 43 -31q3 -8 3 -39q0 -16 19 -16q43 0 106 77q21 27 57 84q-31 176 -71 324q-16 64 -38 64q-13 0 -25 -18t-40 -78l-31 14q62 163 130 163q32 0 54.5 -36.5t39.5 -118.5l44 -211q104 165 104 247q0 18 -6 52q-2 12 -2 17 q0 20 14.5 35t34.5 15t32.5 -14.5t12.5 -37.5q0 -25 -13.5 -58.5t-55.5 -115.5q-121 -236 -201 -338q-86 -108 -171 -108q-39 0 -65.5 21.5t-26.5 52.5zM135 526l153 169h50l91 -169h-36l-86 104l-136 -104h-36z" />
<glyph unicode="&#x178;" horiz-adv-x="685" d="M32 675l5 47h308l-5 -47h-28q-61 0 -61 -24q0 -11 11 -38l100 -249l170 218q26 31 26 54q0 18 -17 28.5t-47 10.5h-23l5 47h282l-5 -47q-54 -3 -86 -24t-85 -87l-200 -256l-50 -185q-10 -41 -10 -49q0 -17 15.5 -22t64.5 -5h36l-5 -47h-347l6 47h22q69 0 83 14 q7 6 9.5 13.5t13.5 48.5l50 185l-120 298q-17 42 -37 55.5t-64 13.5h-17zM325 842q0 20 14.5 34.5t34.5 14.5t34.5 -14.5t14.5 -34.5t-14.5 -34.5t-34.5 -14.5t-34.5 14.5t-14.5 34.5zM515 842q0 20 14.5 34.5t34.5 14.5t34.5 -14.5t14.5 -34.5t-14.5 -34.5t-34.5 -14.5 t-34.5 14.5t-14.5 34.5z" />
<glyph unicode="&#x179;" horiz-adv-x="667" d="M-25 0l6 38l533 637h-96q-122 0 -177 -42q-27 -20 -41 -39t-59 -94q-11 -18 -17 -28l-41 11l81 239h503l-6 -39l-534 -636h135q118 0 178 42.5t129 178.5l42 -12l-82 -256h-554zM319 765l166 126q35 27 60 27q17 0 29.5 -9t12.5 -22q0 -23 -30 -36l-191 -86h-47z" />
<glyph unicode="&#x17a;" horiz-adv-x="463" d="M-33 9q0 48 72 128q43 47 80.5 75t146.5 96q42 26 74 60q-33 -8 -51 -8q-34 0 -92 20q-45 14 -60 14q-37 0 -82 -80l-33 17q71 139 165 139q27 0 84 -28q46 -23 72 -23q11 0 16.5 5.5t9.5 20.5q7 25 24 25q10 0 17 -6.5t7 -16.5q0 -20 -22 -57.5t-57 -76.5 q-37 -42 -73 -70.5t-94 -61.5q-59 -34 -81.5 -50.5t-39.5 -38.5q31 9 49 9q31 0 101 -24q45 -16 67 -16q47 0 86 90l35 -12q-23 -71 -67 -112.5t-95 -41.5q-49 0 -119 32q-65 31 -77 31q-6 0 -7.5 -2.5t-1.5 -14.5q0 -46 -30 -46q-24 0 -24 24zM188 525l138 140q31 30 50 30 q14 0 24.5 -10.5t10.5 -24.5q0 -22 -25 -39l-159 -96h-39z" />
<glyph unicode="&#x17b;" horiz-adv-x="667" d="M-25 0l6 38l533 637h-96q-122 0 -177 -42q-27 -20 -41 -39t-59 -94q-11 -18 -17 -28l-41 11l81 239h503l-6 -39l-534 -636h135q118 0 178 42.5t129 178.5l42 -12l-82 -256h-554zM399 842q0 20 14.5 34.5t34.5 14.5t34.5 -14.5t14.5 -34.5t-14.5 -34.5t-34.5 -14.5 t-34.5 14.5t-14.5 34.5z" />
<glyph unicode="&#x17c;" horiz-adv-x="463" d="M-33 9q0 48 72 128q43 47 80.5 75t146.5 96q42 26 74 60q-33 -8 -51 -8q-34 0 -92 20q-45 14 -60 14q-37 0 -82 -80l-33 17q71 139 165 139q27 0 84 -28q46 -23 72 -23q11 0 16.5 5.5t9.5 20.5q7 25 24 25q10 0 17 -6.5t7 -16.5q0 -20 -22 -57.5t-57 -76.5 q-37 -42 -73 -70.5t-94 -61.5q-59 -34 -81.5 -50.5t-39.5 -38.5q31 9 49 9q31 0 101 -24q45 -16 67 -16q47 0 86 90l35 -12q-23 -71 -67 -112.5t-95 -41.5q-49 0 -119 32q-65 31 -77 31q-6 0 -7.5 -2.5t-1.5 -14.5q0 -46 -30 -46q-24 0 -24 24zM245 610q0 20 14.5 34.5 t34.5 14.5t34.5 -14.5t14.5 -34.5t-14.5 -34.5t-34.5 -14.5t-34.5 14.5t-14.5 34.5z" />
<glyph unicode="&#x17d;" horiz-adv-x="667" d="M-25 0l6 38l533 637h-96q-122 0 -177 -42q-27 -20 -41 -39t-59 -94q-11 -18 -17 -28l-41 11l81 239h503l-6 -39l-534 -636h135q118 0 178 42.5t129 178.5l42 -12l-82 -256h-554zM291 918h43l104 -94l163 94h43l-184 -152h-60z" />
<glyph unicode="&#x17e;" horiz-adv-x="463" d="M-33 9q0 48 72 128q43 47 80.5 75t146.5 96q42 26 74 60q-33 -8 -51 -8q-34 0 -92 20q-45 14 -60 14q-37 0 -82 -80l-33 17q71 139 165 139q27 0 84 -28q46 -23 72 -23q11 0 16.5 5.5t9.5 20.5q7 25 24 25q10 0 17 -6.5t7 -16.5q0 -20 -22 -57.5t-57 -76.5 q-37 -42 -73 -70.5t-94 -61.5q-59 -34 -81.5 -50.5t-39.5 -38.5q31 9 49 9q31 0 101 -24q45 -16 67 -16q47 0 86 90l35 -12q-23 -71 -67 -112.5t-95 -41.5q-49 0 -119 32q-65 31 -77 31q-6 0 -7.5 -2.5t-1.5 -14.5q0 -46 -30 -46q-24 0 -24 24zM152 692h37l89 -98l142 98h37 l-159 -163h-51z" />
<glyph unicode="&#x17f;" d="M-68 -202q94 209 148 436l41 174h-89l13 47h87q33 121 70 181q60 100 157 100q48 0 79.5 -25.5t31.5 -64.5q0 -23 -15.5 -38t-38.5 -15q-22 0 -37 13t-15 32q0 14 9 28q7 12 7 18q0 17 -24 17q-53 0 -88 -86q-21 -50 -49 -160l-73 -294q-50 -198 -104 -345z" />
<glyph unicode="&#x18e;" horiz-adv-x="722" d="M-64 0l53 245l45 8l1 -8q1 -119 39.5 -158.5t143.5 -39.5h54q39 0 58 7t29 25q6 10 19 55l59 220h-32q-54 0 -89.5 -22t-60.5 -69q-15 -28 -28 -69l-49 -8l90 334l48 6q-14 -68 8 -96.5t93 -28.5h33l55 205q13 48 3 58.5t-66 10.5h-58q-69 0 -122.5 -34.5t-102.5 -124.5 l-18 -35h-45l90 241h584l-19 -47h-26q-49 0 -67 -5t-27 -22q-6 -12 -17 -49l-127 -476q-15 -52 -10 -62q4 -8 15 -11t46 -3h19l-20 -47h-601z" />
<glyph unicode="&#x192;" horiz-adv-x="556" d="M-57 -126q0 27 17.5 45t44.5 18q21 0 34.5 -12.5t13.5 -32.5q0 -16 -17 -35q-4 -4 -4 -9q0 -10 14 -10q22 0 43.5 17t34.5 45q24 53 52 205l53 285h-120l5 43h122l10 43q24 115 75 182q59 78 150 78q42 0 67 -20.5t25 -55.5q0 -28 -17 -46t-44 -18q-21 0 -35 12t-14 31 q0 16 15 36q6 9 6 12q0 10 -16 10q-47 0 -77 -64q-21 -44 -45 -158l-9 -42h136l-5 -43h-138l-48 -253q-19 -99 -36.5 -151.5t-45.5 -94.5q-64 -93 -156 -93q-40 0 -65.5 21t-25.5 55z" />
<glyph unicode="&#x1a0;" horiz-adv-x="778" d="M40 275q0 121 59.5 228.5t155.5 170.5t202 63q74 0 137 -34q15 9 22 19q-22 13 -30.5 21.5t-8.5 24.5q0 21 16.5 35t36.5 14q25 0 41.5 -17.5t16.5 -41.5q0 -22 -15 -45t-38 -37q100 -87 100 -226q0 -118 -56.5 -225t-155 -173.5t-211.5 -66.5q-125 0 -198.5 78.5 t-73.5 211.5zM158 207q0 -83 42 -131t114 -48q59 0 110.5 30.5t85.5 85.5q47 75 77.5 175t30.5 177q0 89 -38.5 143.5t-119.5 54.5q-101 0 -179 -100q-49 -63 -86 -179.5t-37 -207.5z" />
<glyph unicode="&#x1a1;" horiz-adv-x="500" d="M5 172q0 121 83 209.5t185 88.5q56 0 102 -35q11 6 23 20q-22 13 -30.5 21.5t-8.5 24.5q0 21 16.5 35t36.5 14q25 0 41.5 -17.5t16.5 -41.5q0 -26 -17.5 -49t-46.5 -38q44 -54 44 -123q0 -71 -33 -138.5t-96 -112.5t-138 -45q-82 0 -130 50.5t-48 136.5zM95 128 q0 -105 89 -105q40 0 69 23.5t55 75.5q20 41 33.5 94.5t13.5 92.5q0 58 -23 90.5t-64 32.5q-72 0 -122.5 -95t-50.5 -209z" />
<glyph unicode="&#x1af;" horiz-adv-x="790" d="M93 176q0 45 20 118l82 305q9 36 9 49q0 17 -15 22t-64 5h-25l5 47h318l-6 -47h-4q-69 0 -83 -14q-7 -6 -9.5 -12.5t-13.5 -49.5l-90 -333q-14 -49 -14 -103q0 -64 42.5 -99.5t118.5 -35.5q114 0 174 84q18 24 29.5 57t35.5 121l58 215q23 85 23 115q0 29 -22.5 42 t-70.5 13l6 47h176l-8 -28q23 10 38 28q-22 13 -30.5 21.5t-8.5 24.5q0 21 16.5 35t36.5 14q25 0 41.5 -17.5t16.5 -41.5q0 -39 -35 -68t-86 -39l-95 -357q-27 -102 -41 -137q-36 -93 -101.5 -132.5t-173.5 -39.5q-122 0 -186 49t-64 142z" />
<glyph unicode="&#x1b0;" horiz-adv-x="605" d="M41 419l3 36l193 15l-98 -328q-11 -37 -11 -57q0 -18 12.5 -30.5t30.5 -12.5q53 0 113 74.5t91 178.5l47 160h87l-9 -28q25 11 39 28q-22 13 -30.5 21.5t-8.5 24.5q0 21 16.5 35t36.5 14q25 0 41.5 -17.5t16.5 -41.5q0 -39 -35.5 -68t-87.5 -38l-78 -262q-12 -39 -12 -59 q0 -10 5.5 -17t13.5 -7q32 0 109 113l30 -18q-53 -82 -94 -116t-87 -34q-28 0 -46 18.5t-18 47.5q0 26 12 68q-85 -133 -186 -133q-42 0 -68.5 25.5t-26.5 66.5q0 22 3.5 37t27.5 94l40 135q8 29 8 43q0 17 -12.5 24.5t-43.5 7.5h-24z" />
<glyph unicode="&#x1dd;" horiz-adv-x="444" d="M11 88q0 90 120 143q51 23 182 54q2 26 2 34q0 48 -26 76t-71 28q-74 0 -155 -84l-24 27q80 104 196 104q81 0 127 -46t46 -127q0 -122 -84.5 -217t-193.5 -95q-53 0 -86 28.5t-33 74.5zM95 82q0 -26 15 -41.5t40 -15.5q55 0 98 60t60 161q-67 -14 -102 -30 q-111 -49 -111 -134z" />
<glyph unicode="&#x1e6;" horiz-adv-x="778" d="M39 273q0 111 56 218.5t153.5 176.5t206.5 69q61 0 105 -20t83 -64l62 62h34l-55 -281l-42 7q-2 126 -48.5 189.5t-130.5 63.5q-136 0 -225 -169q-35 -68 -56 -149.5t-21 -153.5q0 -91 47.5 -142.5t130.5 -51.5q148 0 188 150l18 80v5q0 13 -17 17.5t-62 4.5h-33l5 47 h325l-6 -47h-21q-47 0 -63 -13q-8 -6 -11.5 -15t-14.5 -48l-60 -223h-44l-12 81q-47 -44 -96.5 -63t-120.5 -19q-129 0 -202 76t-73 212zM357 918h43l104 -94l163 94h43l-184 -152h-60z" />
<glyph unicode="&#x1e7;" horiz-adv-x="537" d="M-79 -90q0 54 49 83q27 17 79 28q-55 27 -55 74q0 41 33 67q29 25 90 33q-62 33 -62 104q0 69 61 120t144 51q43 0 86 -19q68 54 114 54q26 0 44.5 -15.5t18.5 -36.5q0 -19 -11.5 -31.5t-28.5 -12.5q-12 0 -19 5t-19 21t-26 16q-15 0 -37 -19q59 -42 59 -111 q0 -34 -18 -69t-47 -58q-52 -42 -135 -42q-24 0 -72 7q-21 3 -41 3q-26 0 -43 -11.5t-17 -28.5q0 -26 37 -35q17 -4 110 -9q89 -5 132 -28q52 -28 52 -90q0 -74 -68 -118q-67 -44 -205 -44q-113 0 -169 39q-36 28 -36 73zM2 -83q0 -77 142 -77q86 0 132 23.5t46 67.5 q0 37 -37 52q-17 7 -61.5 13.5t-78.5 6.5q-67 0 -105 -22.5t-38 -63.5zM146 279q0 -42 23.5 -66t64.5 -24q57 0 87.5 48.5t30.5 114.5q0 37 -23 58.5t-62 21.5q-54 0 -87.5 -42.5t-33.5 -110.5zM156 692h37l89 -98l142 98h37l-159 -163h-51z" />
<glyph unicode="&#x1ea;" horiz-adv-x="778" d="M40 275q0 121 59.5 228.5t155.5 170.5t202 63q120 0 199 -80.5t79 -206.5q0 -152 -92 -281t-230 -169q-44 -13 -75 -38t-31 -56q0 -26 11.5 -43.5t32.5 -17.5q31 0 64 31l20 -18q-24 -32 -57.5 -56t-59.5 -24q-30 0 -55.5 27t-27.5 64q4 55 65 116q-120 5 -190 83 t-70 207zM158 207q0 -83 42 -131t114 -48q59 0 110.5 30.5t85.5 85.5q47 75 77.5 175t30.5 177q0 89 -38.5 143.5t-119.5 54.5q-101 0 -179 -100q-49 -63 -86 -179.5t-37 -207.5z" />
<glyph unicode="&#x1eb;" horiz-adv-x="500" d="M5 172q0 125 84 212q83 86 184 86q73 0 125 -55.5t52 -133.5q0 -118 -85 -214q-35 -39 -82 -61q-96 -44 -96 -100q0 -26 11.5 -43.5t32.5 -17.5q31 0 64 31l20 -18q-24 -32 -57.5 -56t-59.5 -24q-30 0 -55.5 27t-27.5 64q4 55 65 116q-80 1 -127.5 51.5t-47.5 135.5z M95 128q0 -105 89 -105q40 0 69 23.5t55 75.5q20 41 33.5 94.5t13.5 92.5q0 58 -23 90.5t-64 32.5q-56 0 -98 -54q-31 -41 -53 -114.5t-22 -135.5z" />
<glyph unicode="&#x1f4;" horiz-adv-x="778" d="M39 273q0 111 56 218.5t153.5 176.5t206.5 69q61 0 105 -20t83 -64l62 62h34l-55 -281l-42 7q-2 126 -48.5 189.5t-130.5 63.5q-136 0 -225 -169q-35 -68 -56 -149.5t-21 -153.5q0 -91 47.5 -142.5t130.5 -51.5q148 0 188 150l18 80v5q0 13 -17 17.5t-62 4.5h-33l5 47 h325l-6 -47h-21q-47 0 -63 -13q-8 -6 -11.5 -15t-14.5 -48l-60 -223h-44l-12 81q-47 -44 -96.5 -63t-120.5 -19q-129 0 -202 76t-73 212zM385 765l166 126q35 27 60 27q17 0 29.5 -9t12.5 -22q0 -23 -30 -36l-191 -86h-47z" />
<glyph unicode="&#x1f5;" horiz-adv-x="537" d="M-79 -90q0 54 49 83q27 17 79 28q-55 27 -55 74q0 41 33 67q29 25 90 33q-62 33 -62 104q0 69 61 120t144 51q43 0 86 -19q68 54 114 54q26 0 44.5 -15.5t18.5 -36.5q0 -19 -11.5 -31.5t-28.5 -12.5q-12 0 -19 5t-19 21t-26 16q-15 0 -37 -19q59 -42 59 -111 q0 -34 -18 -69t-47 -58q-52 -42 -135 -42q-24 0 -72 7q-21 3 -41 3q-26 0 -43 -11.5t-17 -28.5q0 -26 37 -35q17 -4 110 -9q89 -5 132 -28q52 -28 52 -90q0 -74 -68 -118q-67 -44 -205 -44q-113 0 -169 39q-36 28 -36 73zM2 -83q0 -77 142 -77q86 0 132 23.5t46 67.5 q0 37 -37 52q-17 7 -61.5 13.5t-78.5 6.5q-67 0 -105 -22.5t-38 -63.5zM146 279q0 -42 23.5 -66t64.5 -24q57 0 87.5 48.5t30.5 114.5q0 37 -23 58.5t-62 21.5q-54 0 -87.5 -42.5t-33.5 -110.5zM191 525l138 140q31 30 50 30q14 0 24.5 -10.5t10.5 -24.5q0 -22 -25 -39 l-159 -96h-39z" />
<glyph unicode="&#x1fa;" horiz-adv-x="704" d="M-82 0l5 47q41 0 74.5 27.5t73.5 93.5l330 569h41l125 -629q8 -39 21.5 -50t54.5 -11h25l-5 -47h-301l5 47h23q42 0 53.5 7t11.5 29q0 8 -4 32l-23 123h-255l-55 -96q-18 -30 -18 -55q0 -23 15 -31.5t54 -8.5h24l-6 -47h-269zM200 285h220l-57 287zM354 858q0 41 29.5 70 t70.5 29q40 0 69.5 -29.5t29.5 -69.5q0 -42 -29.5 -71t-71.5 -29q-40 0 -69 29.5t-29 70.5zM378 977l166 126q35 27 60 27q17 0 29.5 -9t12.5 -22q0 -23 -30 -36l-191 -86h-47zM390 858q0 -26 18.5 -45t44.5 -19q27 0 45.5 18.5t18.5 45.5q0 26 -18.5 44.5t-44.5 18.5 t-45 -18.5t-19 -44.5z" />
<glyph unicode="&#x1fb;" horiz-adv-x="574" d="M1 148q0 125 81 230q72 92 165 92q49 0 83 -29.5t39 -75.5l27 90h87l-100 -336q-11 -39 -11 -54q0 -10 6.5 -17.5t14.5 -7.5q40 0 99 118l31 -17q-17 -38 -49 -83q-52 -73 -117 -73q-27 0 -44 18t-17 47q0 13 5 32q-37 -54 -71 -75.5t-81 -21.5q-67 0 -107.5 44.5 t-40.5 118.5zM92 134q0 -46 21.5 -72t58.5 -26q72 0 117 90q51 104 51 200q0 41 -20.5 65t-55.5 24q-47 0 -80 -35q-40 -41 -66 -110.5t-26 -135.5zM215 606q0 41 29.5 70t70.5 29t70 -29.5t29 -69.5q0 -42 -29.5 -71t-71.5 -29q-40 0 -69 29.5t-29 70.5zM239 725l166 126 q35 27 60 27q17 0 29.5 -9t12.5 -22q0 -23 -30 -36l-191 -86h-47zM251 606q0 -26 18.5 -45t44.5 -19q27 0 45.5 18.5t18.5 45.5q0 26 -19 44.5t-44 18.5q-26 0 -45 -18.5t-19 -44.5z" />
<glyph unicode="&#x1fc;" horiz-adv-x="870" d="M-92 0l5 47q35 0 69 46l320 460q37 53 37 80q0 23 -18 32.5t-62 9.5h-27l5 47h633l-39 -241h-45l1 71q0 123 -118 123h-27q-39 0 -52 -11.5t-25 -57.5l-55 -205h27q59 0 86.5 27t50.5 98l46 -6l-90 -334l-45 8q9 37 9 70q0 49 -14 69.5t-56 20.5h-27l-59 -220 q-12 -41 -12 -56q0 -31 64 -31h22q94 0 155.5 50.5t109.5 155.5l40 -8l-78 -245h-532l6 47h18q55 0 69 14q7 6 9.5 13.5t13.5 48.5l42 155h-191l-95 -137q-25 -37 -25 -58q0 -38 77 -36l-6 -47h-217zM205 325h172l83 310q11 39 -1 39q-11 0 -23 -20zM443 765l166 126 q35 27 60 27q17 0 29.5 -9t12.5 -22q0 -23 -30 -36l-191 -86h-47z" />
<glyph unicode="&#x1fd;" horiz-adv-x="722" d="M-18 84q0 72 74 113t247 63q15 59 15 88q0 37 -27.5 60t-72.5 23q-29 0 -50 -9t-21 -22q0 -1 6.5 -8t12.5 -19t6 -24q0 -23 -14.5 -36.5t-38.5 -13.5q-25 0 -39.5 15t-14.5 41q0 48 47 81.5t114 33.5q95 0 153 -73q79 73 173 73q52 0 83.5 -27.5t31.5 -73.5 q0 -71 -66 -110t-231 -67q-9 -32 -9 -55q0 -49 25 -76.5t70 -27.5q84 0 154 84l28 -26q-90 -106 -208 -106q-121 0 -142 106q-39 -58 -82 -82t-106 -24q-55 0 -86.5 26.5t-31.5 72.5zM75 95q0 -26 17 -43t44 -17q58 0 95 43t62 142q-111 -16 -164.5 -44.5t-53.5 -80.5z M378 232q100 16 151.5 48.5t51.5 94.5q0 24 -14 38t-37 14q-50 0 -86 -46.5t-66 -148.5zM418 525l138 140q31 30 50 30q14 0 24.5 -10.5t10.5 -24.5q0 -22 -25 -39l-159 -96h-39z" />
<glyph unicode="&#x1fe;" horiz-adv-x="778" d="M1 -87l118 145q-79 77 -79 218q0 120 57 227t153 170.5t203 63.5q98 0 171 -53l53 66h58l-77 -95q77 -80 77 -204q0 -118 -56.5 -225.5t-154.5 -174t-211 -66.5q-93 0 -160 44l-94 -116h-58zM158 209q0 -47 14 -84l412 509q-39 59 -127 59q-99 0 -176 -99 q-49 -64 -86 -180t-37 -205zM195 82q41 -53 120 -53q69 0 127.5 45t95 116t57 154.5t20.5 164.5q0 43 -11 79zM486 765l166 126q35 27 60 27q17 0 29.5 -9t12.5 -22q0 -23 -30 -36l-191 -86h-47z" />
<glyph unicode="&#x1ff;" horiz-adv-x="500" d="M-5 173q0 118 81.5 207.5t186.5 89.5q33 0 63 -12l49 84l-29 -17h-39l138 140q31 30 50 30q14 0 24.5 -10.5t10.5 -24.5q0 -22 -25 -39l-121 -73h37l-62 -108q81 -60 81 -158q0 -113 -77.5 -205t-191.5 -92q-30 0 -64 8l-64 -113h-43l72 129q-77 49 -77 164zM85 129 q0 -38 16 -70l203 359q-21 14 -47 14q-46 0 -86.5 -46t-63 -115.5t-22.5 -141.5zM129 33q21 -10 45 -10q40 0 69 23.5t55 75.5q47 96 47 190q0 43 -15 76z" />
<glyph unicode="&#x200;" horiz-adv-x="704" d="M-82 0l5 47q41 0 74.5 27.5t73.5 93.5l330 569h41l125 -629q8 -39 21.5 -50t54.5 -11h25l-5 -47h-301l5 47h23q42 0 53.5 7t11.5 29q0 8 -4 32l-23 123h-255l-55 -96q-18 -30 -18 -55q0 -23 15 -31.5t54 -8.5h24l-6 -47h-269zM200 285h220l-57 287zM230 912 q8 14 23.5 24.5t29.5 10.5q11 0 18 -6t16 -24l66 -139h-41l-108 95q-17 16 -4 39zM381 912q8 14 23.5 24.5t29.5 10.5q11 0 18 -6t16 -24l66 -139h-41l-108 95q-16 16 -4 39z" />
<glyph unicode="&#x201;" horiz-adv-x="574" d="M1 148q0 125 81 230q72 92 165 92q49 0 83 -29.5t39 -75.5l27 90h87l-100 -336q-11 -39 -11 -54q0 -10 6.5 -17.5t14.5 -7.5q40 0 99 118l31 -17q-17 -38 -49 -83q-52 -73 -117 -73q-27 0 -44 18t-17 47q0 13 5 32q-37 -54 -71 -75.5t-81 -21.5q-67 0 -107.5 44.5 t-40.5 118.5zM91 660q8 14 23.5 24.5t29.5 10.5q11 0 18 -6t16 -24l66 -139h-41l-108 95q-17 16 -4 39zM92 134q0 -46 21.5 -72t58.5 -26q72 0 117 90q51 104 51 200q0 41 -20.5 65t-55.5 24q-47 0 -80 -35q-40 -41 -66 -110.5t-26 -135.5zM242 660q8 14 23.5 24.5 t29.5 10.5q11 0 18 -6t16 -24l66 -139h-41l-108 95q-16 16 -4 39z" />
<glyph unicode="&#x204;" horiz-adv-x="722" d="M-37 0l5 47h19q54 0 69 14q9 9 23 62l128 476q9 36 9 49q0 17 -15 22t-64 5h-26l6 47h584l-39 -241h-45v35q0 90 -35 124.5t-104 34.5h-58q-56 0 -71.5 -10.5t-28.5 -58.5l-55 -205h33q71 0 108.5 28.5t59.5 96.5l45 -6l-89 -334l-45 8q9 41 9 69q0 47 -23.5 69t-77.5 22 h-32l-59 -220q-11 -42 -11 -55q0 -18 15.5 -25t54.5 -7h54q105 0 164.5 39.5t124.5 158.5l5 8l41 -8l-78 -245h-601zM222 912q8 14 23.5 24.5t29.5 10.5q11 0 18 -6t16 -24l66 -139h-41l-108 95q-17 16 -4 39zM373 912q8 14 23.5 24.5t29.5 10.5q11 0 18 -6t16 -24l66 -139 h-41l-108 95q-16 16 -4 39z" />
<glyph unicode="&#x205;" horiz-adv-x="444" d="M-6 158q0 122 84.5 217t193.5 95q53 0 86 -28.5t33 -74.5q0 -90 -120 -143q-51 -23 -182 -54q-2 -26 -2 -34q0 -48 26 -76t71 -28q74 0 155 84l24 -27q-80 -104 -196 -104q-81 0 -127 46t-46 127zM94 209q67 14 102 30q111 49 111 134q0 26 -15 41.5t-40 15.5 q-55 0 -98 -60t-60 -161zM97 660q8 14 23.5 24.5t29.5 10.5q11 0 18 -6t16 -24l66 -139h-41l-108 95q-17 16 -4 39zM248 660q8 14 23.5 24.5t29.5 10.5q11 0 18 -6t16 -24l66 -139h-41l-108 95q-16 16 -4 39z" />
<glyph unicode="&#x208;" horiz-adv-x="407" d="M-33 0l5 47q70 1 84 14q9 9 23 62l128 476q10 39 10 49q0 17 -15.5 22t-64.5 5h-22l6 47h310l-5 -47q-70 -1 -84 -14q-9 -9 -23 -62l-128 -476q-10 -38 -10 -48q0 -17 15.5 -22.5t64.5 -5.5h22l-6 -47h-310zM108 912q8 14 23.5 24.5t29.5 10.5q11 0 18 -6t16 -24l66 -139 h-41l-108 95q-17 16 -4 39zM259 912q8 14 23.5 24.5t29.5 10.5q11 0 18 -6t16 -24l66 -139h-41l-108 95q-16 16 -4 39z" />
<glyph unicode="&#x209;" d="M-4 660q8 14 23.5 24.5t29.5 10.5q11 0 18 -6t16 -24l66 -139h-41l-108 95q-17 16 -4 39zM27 48q0 24 22 101l58 195q9 33 9 44q0 31 -57 31h-24l4 36l192 15l-106 -357q-12 -42 -12 -56q0 -21 17 -21q42 0 121 121l31 -17q-23 -35 -38.5 -55.5t-40 -47t-51 -39 t-56.5 -12.5q-29 0 -49 18t-20 44zM147 660q8 14 23.5 24.5t29.5 10.5q11 0 18 -6t16 -24l66 -139h-41l-108 95q-16 16 -4 39z" />
<glyph unicode="&#x20c;" horiz-adv-x="778" d="M40 275q0 121 59.5 228.5t155.5 170.5t202 63q120 0 199 -80.5t79 -206.5q0 -118 -56.5 -225t-155 -173.5t-211.5 -66.5q-125 0 -198.5 78.5t-73.5 211.5zM158 207q0 -83 42 -131t114 -48q59 0 110.5 30.5t85.5 85.5q47 75 77.5 175t30.5 177q0 89 -38.5 143.5 t-119.5 54.5q-101 0 -179 -100q-49 -63 -86 -179.5t-37 -207.5zM294 912q8 14 23.5 24.5t29.5 10.5q11 0 18 -6t16 -24l66 -139h-41l-108 95q-17 16 -4 39zM445 912q8 14 23.5 24.5t29.5 10.5q11 0 18 -6t16 -24l66 -139h-41l-108 95q-16 16 -4 39z" />
<glyph unicode="&#x20d;" horiz-adv-x="500" d="M5 172q0 125 84 212q83 86 184 86q73 0 125 -55.5t52 -133.5q0 -118 -85 -214q-73 -82 -182 -82q-82 0 -130 50.5t-48 136.5zM95 128q0 -105 89 -105q40 0 69 23.5t55 75.5q20 41 33.5 94.5t13.5 92.5q0 58 -23 90.5t-64 32.5q-56 0 -98 -54q-31 -41 -53 -114.5 t-22 -135.5zM106 660q8 14 23.5 24.5t29.5 10.5q11 0 18 -6t16 -24l66 -139h-41l-108 95q-17 16 -4 39zM257 660q8 14 23.5 24.5t29.5 10.5q11 0 18 -6t16 -24l66 -139h-41l-108 95q-16 16 -4 39z" />
<glyph unicode="&#x210;" horiz-adv-x="741" d="M-41 0l5 47h16q57 0 72 14q9 9 23 62l128 476q9 36 9 49q0 17 -15 22t-64 5h-26l6 47h320q258 0 258 -164q0 -49 -27.5 -91.5t-74.5 -66.5q-48 -24 -153 -36q55 -20 79 -58.5t24 -103.5q0 -5 -0.5 -17t-0.5 -19l-1 -51q-1 -61 30 -61q21 0 36 20t34 73l36 -15 q-29 -79 -62 -113t-81 -34q-47 0 -76.5 33.5t-29.5 87.5q0 24 6 100q3 31 3 54q0 49 -26.5 69.5t-89.5 20.5h-69l-61 -227q-7 -27 -10 -49q0 -17 15 -22t64 -5h26l-5 -47h-318zM229 912q8 14 23.5 24.5t29.5 10.5q11 0 18 -6t16 -24l66 -139h-41l-108 95q-17 16 -4 39z M260 397h78q63 0 93 5.5t58 21.5q82 49 82 141q0 53 -34.5 81.5t-97.5 28.5h-49q-35 0 -47.5 -11t-23.5 -49zM380 912q8 14 23.5 24.5t29.5 10.5q11 0 18 -6t16 -24l66 -139h-41l-108 95q-16 16 -4 39z" />
<glyph unicode="&#x211;" horiz-adv-x="444" d="M9 0l102 344q10 36 10 47q0 28 -58 28h-24l4 36l181 15l-23 -116q40 62 75.5 89t77.5 27q34 0 56.5 -21t22.5 -53q0 -28 -16.5 -46t-42.5 -18q-30 0 -43 22q-4 6 -4 32q0 23 -18 23q-34 0 -86 -78.5t-80 -172.5l-47 -158h-87zM39 660q8 14 23.5 24.5t29.5 10.5 q11 0 18 -6t16 -24l66 -139h-41l-108 95q-17 16 -4 39zM190 660q8 14 23.5 24.5t29.5 10.5q11 0 18 -6t16 -24l66 -139h-41l-108 95q-16 16 -4 39z" />
<glyph unicode="&#x214;" horiz-adv-x="815" d="M93 176q0 45 20 118l82 305q9 36 9 49q0 17 -15 22t-64 5h-25l5 47h318l-6 -47h-18q-55 0 -69 -14q-7 -6 -9.5 -12.5t-13.5 -49.5l-90 -333q-14 -49 -14 -103q0 -64 42.5 -99.5t118.5 -35.5q114 0 174 84q18 25 30 58.5t35 119.5l58 215q23 93 23 115q0 29 -22.5 42 t-70.5 13l6 47h263l-5 -47q-36 -2 -53 -5.5t-33.5 -23.5t-26 -48.5t-27.5 -92.5l-56 -211q-33 -126 -68.5 -189.5t-92.5 -91.5t-155 -28q-122 0 -186 49t-64 142zM313 912q8 14 23.5 24.5t29.5 10.5q11 0 18 -6t16 -24l66 -139h-41l-108 95q-17 16 -4 39zM464 912 q8 14 23.5 24.5t29.5 10.5q11 0 18 -6t16 -24l66 -139h-41l-108 95q-16 16 -4 39z" />
<glyph unicode="&#x215;" horiz-adv-x="611" d="M41 419l3 36l193 15l-98 -328q-11 -37 -11 -57q0 -18 12.5 -30.5t30.5 -12.5q53 0 113 74.5t91 178.5l47 160h87l-99 -332q-12 -44 -12 -59q0 -10 5.5 -17t13.5 -7q32 0 109 113l30 -18q-53 -82 -94 -116t-87 -34q-28 0 -46 18.5t-18 47.5q0 26 12 68q-85 -133 -186 -133 q-42 0 -68.5 25.5t-26.5 66.5q0 23 4 39.5t27 91.5l40 135q8 29 8 43q0 17 -12.5 24.5t-43.5 7.5h-24zM141 660q8 14 23.5 24.5t29.5 10.5q11 0 18 -6t16 -24l66 -139h-41l-108 95q-17 16 -4 39zM292 660q8 14 23.5 24.5t29.5 10.5q11 0 18 -6t16 -24l66 -139h-41l-108 95 q-16 16 -4 39z" />
<glyph unicode="&#x218;" horiz-adv-x="667" d="M0 0l55 285l40 -7q-1 -11 -1 -28q0 -101 56 -161.5t149 -60.5q77 0 125.5 39.5t48.5 103.5q0 55 -44 87q-12 8 -78 36l-86 36q-84 35 -115.5 78t-31.5 105q0 95 69.5 159.5t170.5 64.5q107 0 182 -74l54 52h38l-54 -261l-42 7q1 9 1 20q0 99 -46 156t-126 57 q-67 0 -111.5 -37.5t-44.5 -93.5q0 -39 27.5 -67.5t86.5 -51.5l85 -34q90 -36 125.5 -79.5t35.5 -116.5q0 -99 -76 -164t-193 -65q-122 0 -206 78l-59 -63h-35zM113 -260q103 46 114 117l-15 -1q-23 0 -36.5 13t-13.5 35q0 23 17.5 39.5t42.5 16.5q27 0 45 -20.5t18 -51.5 q0 -52 -43.5 -100t-116.5 -76z" />
<glyph unicode="&#x219;" horiz-adv-x="444" d="M-1 98q0 29 16.5 48t41.5 19q22 0 36.5 -14.5t14.5 -35.5q0 -13 -3.5 -20.5t-17.5 -22.5q-7 -5 -7 -15q0 -15 24.5 -24.5t62.5 -9.5q52 0 83 24t31 64q0 26 -14.5 40.5t-56.5 31.5l-37.5 15t-33.5 15.5t-31.5 19.5t-22.5 22t-17 29t-5 35q0 65 51 108t130 43 q65 0 106.5 -29t41.5 -75q0 -27 -16 -44t-41 -17q-23 0 -37.5 13t-14.5 33q0 17 16 40q5 8 5 14q0 12 -18 19.5t-47 7.5q-44 0 -73 -23t-29 -57q0 -29 16.5 -45t65.5 -33q60 -22 87 -39q50 -34 50 -96q0 -68 -54 -111t-140 -43q-75 0 -119 30.5t-44 82.5zM22 -260 q50 22 79.5 52.5t34.5 64.5l-15 -1q-15 0 -26.5 6t-17.5 17t-6 25q0 15 8 28t21.5 20.5t30.5 7.5q27 0 45 -20.5t18 -51.5q0 -52 -43.5 -100t-116.5 -76z" />
<glyph unicode="&#x21a;" horiz-adv-x="685" d="M40 464l88 258h598l-42 -275l-42 5q2 41 2 70q0 81 -27.5 117t-94.5 36h-14q-23 0 -31.5 -9t-18.5 -47l-133 -496q-9 -34 -9 -49q0 -17 15 -22t64 -5h37l-6 -47h-346l5 47h22q69 0 84 14q9 9 23 62l136 510q5 18 5 25q0 17 -33 17h-14q-67 0 -110 -41.5t-117 -175.5z M117 -260q103 46 114 117l-15 -1q-23 0 -36.5 13t-13.5 35q0 23 17.5 39.5t42.5 16.5q27 0 45 -20.5t18 -51.5q0 -52 -43.5 -100t-116.5 -76z" />
<glyph unicode="&#x21b;" horiz-adv-x="352" d="M-19 -260q103 46 114 117l-15 -1q-23 0 -36.5 13t-13.5 35q0 23 17.5 39.5t42.5 16.5q27 0 45 -20.5t18 -51.5q0 -52 -43.5 -100t-116.5 -76zM25 61q0 27 19 95l75 252h-94l14 47h94l49 166h87l-49 -166h109l-14 -47h-109l-95 -319q-3 -12 -3 -23q0 -28 23 -28 q25 0 51.5 26t72.5 96l30 -20q-35 -57 -50 -77q-26 -35 -64.5 -56.5t-73.5 -21.5q-30 0 -51 22t-21 54z" />
<glyph unicode="&#x258;" horiz-adv-x="444" d="M-35 89l38 27q19 -45 45 -64.5t65 -19.5q45 0 86 28t67 76q2 3 16 34q-115 31 -153 54q-91 53 -43 143q24 46 72.5 74.5t101.5 28.5q109 0 142.5 -95t-31.5 -217q-43 -81 -114 -127t-152 -46q-116 0 -140 104zM173 373q-46 -84 39 -134q27 -16 86 -30q37 101 26 161 t-66 60q-25 0 -48 -15.5t-37 -41.5z" />
<glyph unicode="&#x259;" horiz-adv-x="444" d="M11 88q0 90 120 143q51 23 182 54q2 26 2 34q0 48 -26 76t-71 28q-74 0 -155 -84l-24 27q80 104 196 104q81 0 127 -46t46 -127q0 -122 -84.5 -217t-193.5 -95q-53 0 -86 28.5t-33 74.5zM95 82q0 -26 15 -41.5t40 -15.5q55 0 98 60t60 161q-67 -14 -102 -30 q-111 -49 -111 -134z" />
<glyph unicode="&#x2be;" horiz-adv-x="356" d="M86 449q0 26 15 43t37 17q19 0 30.5 -11t10.5 -28q1 -27 -31 -41q-1 -1 -3 -1h-1q1 -7 12 -11.5t25 -4.5q47 0 77 59t30 118q1 35 -13.5 54t-41.5 19q-46 0 -93 -61q-6 -9 -12 -3l-20 14q-3 3 0 10q57 88 138 88q55 0 88 -34t32 -92q1 -84 -56 -148.5t-131 -64.5 q-39 0 -66.5 23t-26.5 55z" />
<glyph unicode="&#x2bf;" horiz-adv-x="356" d="M82 497q-1 84 56 148.5t131 64.5q39 0 66.5 -23t26.5 -55q0 -26 -15 -43t-37 -17q-19 0 -30 11t-11 28q-1 27 31 41h3q1 0 1 1q-1 7 -12 11.5t-25 4.5q-47 0 -77 -59t-30 -118q0 -73 55 -73q46 0 93 61q6 9 12 3l20 -14q3 -3 0 -10q-57 -88 -138 -88q-55 0 -87.5 34 t-32.5 92z" />
<glyph unicode="&#x2c6;" d="M160 526l153 169h50l91 -169h-36l-86 104l-136 -104h-36z" />
<glyph unicode="&#x2c7;" d="M188 692h37l89 -98l142 98h37l-159 -163h-51z" />
<glyph unicode="&#x2d8;" d="M175 666q0 14 1 24h30q2 -45 31 -70.5t76 -25.5q93 0 132 96h31q-14 -73 -59 -116t-108 -43q-59 0 -96.5 38t-37.5 97z" />
<glyph unicode="&#x2d9;" d="M281 610q0 20 14.5 34.5t34.5 14.5t34.5 -14.5t14.5 -34.5t-14.5 -34.5t-34.5 -14.5t-34.5 14.5t-14.5 34.5z" />
<glyph unicode="&#x2da;" d="M230 611q0 41 29.5 70t70.5 29q40 0 69.5 -29t29.5 -70q0 -42 -29.5 -71t-71.5 -29q-40 0 -69 29.5t-29 70.5zM266 611q0 -26 18.5 -45t44.5 -19q27 0 45.5 18.5t18.5 45.5q0 25 -18.5 44t-44.5 19t-45 -18.5t-19 -44.5z" />
<glyph unicode="&#x2db;" d="M55 -131q4 60 85 136h36q-49 -60 -49 -99q0 -26 11.5 -43.5t32.5 -17.5q31 0 64 31l20 -18q-24 -32 -57.5 -56t-59.5 -24q-30 0 -55.5 27t-27.5 64z" />
<glyph unicode="&#x2dc;" d="M166 557q9 50 32.5 77.5t57.5 27.5q23 0 100 -26q42 -15 59 -15q32 0 49 42h30q-5 -43 -32.5 -74t-60.5 -31q-26 0 -86 23q-58 21 -74 21q-33 0 -45 -45h-30z" />
<glyph unicode="&#x2dd;" d="M206 526l140 139q31 30 50 30q14 0 24.5 -10.5t10.5 -24.5q0 -23 -25 -39l-159 -95h-41zM357 526l140 139q31 30 50 30q14 0 24.5 -10.5t10.5 -24.5q0 -24 -25 -39l-159 -95h-41z" />
<glyph unicode="&#x300;" horiz-adv-x="0" d="M-209 621q-21 23 2.5 48.5t47.5 25.5q11 0 18 -6t16 -24l63 -140h-39z" />
<glyph unicode="&#x301;" horiz-adv-x="0" d="M-229 525l138 140q31 30 50 30q14 0 24.5 -10.5t10.5 -24.5q0 -22 -25 -39l-159 -96h-39z" />
<glyph unicode="&#x302;" horiz-adv-x="0" d="M-293 526l153 169h50l91 -169h-36l-86 104l-136 -104h-36z" />
<glyph unicode="&#x303;" horiz-adv-x="0" d="M-287 557q9 50 32.5 77.5t57.5 27.5q23 0 100 -26q42 -15 59 -15q32 0 49 42h30q-5 -43 -32.5 -74t-60.5 -31q-26 0 -86 23q-58 21 -74 21q-33 0 -45 -45h-30z" />
<glyph unicode="&#x304;" horiz-adv-x="0" d="M-279 585l11 51h301l-11 -51h-301z" />
<glyph unicode="&#x306;" horiz-adv-x="0" d="M-278 666q0 14 1 24h30q2 -45 31 -70.5t76 -25.5q93 0 132 96h31q-14 -73 -59 -116t-108 -43q-59 0 -96.5 38t-37.5 97z" />
<glyph unicode="&#x307;" horiz-adv-x="0" d="M-172 610q0 20 14.5 34.5t34.5 14.5t34.5 -14.5t14.5 -34.5t-14.5 -34.5t-34.5 -14.5t-34.5 14.5t-14.5 34.5z" />
<glyph unicode="&#x308;" horiz-adv-x="0" d="M-267 610q0 20 14.5 34.5t34.5 14.5t34.5 -14.5t14.5 -34.5t-14.5 -34.5t-34.5 -14.5t-34.5 14.5t-14.5 34.5zM-77 610q0 20 14.5 34.5t34.5 14.5t34.5 -14.5t14.5 -34.5t-14.5 -34.5t-34.5 -14.5t-34.5 14.5t-14.5 34.5z" />
<glyph unicode="&#x309;" horiz-adv-x="0" d="M-217 627q0 34 37.5 57t86.5 23q36 0 56 -18.5t20 -43.5q0 -26 -15 -40t-65 -38q-24 -11 -32 -20t-14 -33h-33l5 18q1 4 2.5 11.5t3 10t5 8t11 10.5t18.5 13t31 21h-1q21 15 21 31q0 12 -9.5 21t-26.5 9q-24 0 -34 -6q12 -16 12 -25q0 -15 -15 -27t-32 -12 q-15 0 -23.5 8.5t-8.5 21.5z" />
<glyph unicode="&#x30a;" horiz-adv-x="0" d="M-223 611q0 41 29.5 70t70.5 29t70 -29t29 -70q0 -42 -29.5 -71t-71.5 -29q-40 0 -69 29.5t-29 70.5zM-187 611q0 -26 18.5 -45t44.5 -19q27 0 45.5 18.5t18.5 45.5q0 25 -19 44t-44 19q-26 0 -45 -18.5t-19 -44.5z" />
<glyph unicode="&#x30b;" horiz-adv-x="0" d="M-247 526l140 139q31 30 50 30q14 0 24.5 -10.5t10.5 -24.5q0 -23 -25 -39l-159 -95h-41zM-96 526l140 139q31 30 50 30q14 0 24.5 -10.5t10.5 -24.5q0 -24 -25 -39l-159 -95h-41z" />
<glyph unicode="&#x30c;" horiz-adv-x="0" d="M-265 692h37l89 -98l142 98h37l-159 -163h-51z" />
<glyph unicode="&#x30f;" horiz-adv-x="0" d="M-348 660q8 14 23.5 24.5t29.5 10.5q11 0 18 -6t16 -24l66 -139h-41l-108 95q-17 16 -4 39zM-197 660q8 14 23.5 24.5t29.5 10.5q11 0 18 -6t16 -24l66 -139h-41l-108 95q-16 16 -4 39z" />
<glyph unicode="&#x311;" horiz-adv-x="0" d="M-319 531q14 73 59 116t108 43q59 0 96.5 -38t37.5 -97q0 -14 -1 -24h-30q-2 45 -31 70.5t-76 25.5q-93 0 -132 -96h-31z" />
<glyph unicode="&#x323;" horiz-adv-x="0" d="M-373 -140q0 20 14.5 34.5t34.5 14.5t34.5 -14.5t14.5 -34.5t-14.5 -34.5t-34.5 -14.5t-34.5 14.5t-14.5 34.5z" />
<glyph unicode="&#x326;" horiz-adv-x="0" d="M-407 -260q103 46 114 117l-15 -1q-23 0 -36.5 13t-13.5 35q0 23 17.5 39.5t42.5 16.5q27 0 45 -20.5t18 -51.5q0 -52 -43.5 -100t-116.5 -76z" />
<glyph unicode="&#x32e;" horiz-adv-x="0" d="M-503 -68h36q3 -40 37.5 -63t91.5 -23q112 0 158 86h37q-16 -65 -70 -104t-130 -39q-79 0 -125 42t-35 101z" />
<glyph unicode="&#x32f;" horiz-adv-x="0" d="M-541 -211q16 65 70 104t130 39q79 0 125 -42t35 -101h-36q-3 40 -37.5 63t-91.5 23q-112 0 -158 -86h-37z" />
<glyph unicode="&#x330;" horiz-adv-x="0" d="M-488 -193q9 50 32.5 77.5t57.5 27.5q23 0 100 -26q42 -15 59 -15q32 0 49 42h30q-5 -43 -32.5 -74t-60.5 -31q-26 0 -86 23q-58 21 -74 21q-33 0 -45 -45h-30z" />
<glyph unicode="&#x331;" horiz-adv-x="0" d="M-480 -165l11 51h301l-11 -51h-301z" />
<glyph unicode="&#x332;" horiz-adv-x="0" d="M-480 -165l11 51h301l-11 -51h-301z" />
<glyph unicode="&#x391;" horiz-adv-x="704" d="M-82 0l5 47q41 0 74.5 27.5t73.5 93.5l330 569h41l125 -629q8 -39 21.5 -50t54.5 -11h25l-5 -47h-301l5 47h23q42 0 53.5 7t11.5 29q0 8 -4 32l-23 123h-255l-55 -96q-18 -30 -18 -55q0 -23 15 -31.5t54 -8.5h24l-6 -47h-269zM200 285h220l-57 287z" />
<glyph unicode="&#x392;" horiz-adv-x="722" d="M-31 0l5 47h15q57 0 73 14q8 8 23 62l128 476q9 36 9 49q0 17 -15 22t-64 5h-26l6 47h301q123 0 183.5 -43.5t60.5 -123.5q0 -73 -51 -120t-144 -64q157 -47 157 -165q0 -98 -76 -152t-222 -54h-363zM187 74q0 -16 14.5 -21.5t55.5 -5.5h50q99 0 150 50.5t51 127.5 q0 62 -44.5 92t-143.5 30h-63l-64 -238q-6 -23 -6 -35zM269 394h83q97 0 147 47t50 129q0 55 -28 80t-90 25h-29q-39 0 -51 -11t-24 -57z" />
<glyph unicode="&#x393;" horiz-adv-x="667" d="M-34 0l5 47h22q34 0 45.5 3t20.5 11q9 9 23 62l128 476q9 36 9 49q0 17 -15 22t-64 5h-26l6 47h578l-39 -241h-45v35q0 52 -8 79.5t-29 46.5q-37 33 -102 33h-52q-56 0 -71.5 -10.5t-28.5 -58.5l-129 -483q-10 -41 -10 -49q0 -17 15 -22t64 -5h26l-5 -47h-318z" />
<glyph unicode="&#x394;" horiz-adv-x="612" d="M6 0l321 688l281 -688h-602zM77 51h402l-189 458z" />
<glyph unicode="&#x395;" horiz-adv-x="722" d="M-37 0l5 47h19q54 0 69 14q9 9 23 62l128 476q9 36 9 49q0 17 -15 22t-64 5h-26l6 47h584l-39 -241h-45v35q0 90 -35 124.5t-104 34.5h-58q-56 0 -71.5 -10.5t-28.5 -58.5l-55 -205h33q71 0 108.5 28.5t59.5 96.5l45 -6l-89 -334l-45 8q9 41 9 69q0 47 -23.5 69t-77.5 22 h-32l-59 -220q-11 -42 -11 -55q0 -18 15.5 -25t54.5 -7h54q105 0 164.5 39.5t124.5 158.5l5 8l41 -8l-78 -245h-601z" />
<glyph unicode="&#x396;" horiz-adv-x="667" d="M-25 0l6 38l533 637h-96q-122 0 -177 -42q-27 -20 -41 -39t-59 -94q-11 -18 -17 -28l-41 11l81 239h503l-6 -39l-534 -636h135q118 0 178 42.5t129 178.5l42 -12l-82 -256h-554z" />
<glyph unicode="&#x397;" horiz-adv-x="833" d="M-38 0l5 47h15q58 0 73 14q9 9 23 62l128 476q9 36 9 49q0 17 -15 22t-64 5h-26l6 47h317l-5 -47h-17q-56 0 -70 -14q-7 -5 -10 -13t-13 -49l-54 -198h322l53 198q10 34 10 49q0 17 -15 22t-64 5h-26l5 47h318l-5 -47h-17q-56 0 -71 -14q-6 -5 -9 -13t-14 -49l-128 -476 q-9 -34 -9 -49q0 -17 15 -22t64 -5h26l-6 -47h-317l5 47h17q56 0 71 14q8 8 23 62l61 231h-321l-62 -231q-10 -41 -10 -49q0 -17 15 -22t64 -5h26l-5 -47h-318z" />
<glyph unicode="&#x398;" horiz-adv-x="778" d="M141 360q42 157 169 267t280 110q144 0 213.5 -108.5t26.5 -267.5q-44 -161 -171 -268.5t-274 -107.5q-146 0 -216.5 107.5t-27.5 267.5zM274 363q-15 -56 -22 -100.5t-5.5 -89t16.5 -74.5t49 -48.5t86 -18.5q64 0 114.5 26.5t85.5 76t58 103t42 123.5q18 70 24 123 t-2 102.5t-44 76.5t-99 27q-65 0 -116 -26t-86.5 -74.5t-58.5 -102t-42 -124.5zM298 203l84 311h47l-6 -20q-14 -61 -10.5 -69.5t36.5 -8.5h104q33 0 43 10.5t26 69.5l5 20h47l-83 -311h-47l5 20q15 60 11 69.5t-37 9.5h-104q-33 0 -43 -11.5t-25 -69.5l-6 -20h-47z" />
<glyph unicode="&#x399;" horiz-adv-x="407" d="M-33 0l5 47q70 1 84 14q9 9 23 62l128 476q10 39 10 49q0 17 -15.5 22t-64.5 5h-22l6 47h310l-5 -47q-70 -1 -84 -14q-9 -9 -23 -62l-128 -476q-10 -38 -10 -48q0 -17 15.5 -22.5t64.5 -5.5h22l-6 -47h-310z" />
<glyph unicode="&#x39a;" horiz-adv-x="741" d="M-40 0l5 47h19q54 0 69 14q6 5 9.5 14t13.5 48l128 476q9 36 9 49q0 17 -15 22t-64 5h-26l6 47h317l-5 -47h-17q-56 0 -70 -14q-7 -5 -10 -13t-14 -49l-68 -257l288 240q54 44 54 68q0 14 -12.5 19.5t-46.5 5.5h-22l6 47h300l-5 -47q-60 -5 -101 -24.5t-100 -73.5 l-188 -157l152 -315q21 -44 32.5 -51t61.5 -7h31l-6 -47h-327l5 47h33q40 0 54 3.5t14 14.5q0 6 -16 39l-117 246l-113 -93l-36 -134q-10 -41 -10 -49q0 -17 15 -22t64 -5h26l-5 -47h-318z" />
<glyph unicode="&#x39b;" horiz-adv-x="704" d="M-82 0l5 47q41 0 74.5 27.5t73.5 93.5l330 569h41l125 -629q8 -39 21.5 -50t54.5 -11h25l-5 -47h-301l5 47h23q42 0 53.5 7t11.5 29q0 8 -4 32l-88 457l-245 -430q-18 -30 -18 -55q0 -23 15 -31.5t54 -8.5h24l-6 -47h-269z" />
<glyph unicode="&#x39c;" horiz-adv-x="944" d="M-26 0l5 47q54 2 78 33t52 137l102 382q10 38 10 49q0 17 -15 22t-64 5h-26l5 47h242l53 -540l341 540h216l-5 -47h-14q-59 0 -74 -14q-6 -5 -9 -13t-14 -49l-127 -476q-10 -33 -10 -49q0 -17 15 -22t64 -5h26l-6 -47h-317l5 47h17q56 0 71 14q8 8 23 62l132 493 l-386 -616h-36l-62 602l-103 -385q-23 -93 -23 -115q0 -55 89 -55l-5 -47h-250z" />
<glyph unicode="&#x39d;" horiz-adv-x="815" d="M-48 0l5 47q46 1 69 14t39.5 46.5t36.5 109.5l114 426q-6 20 -17.5 26t-47.5 6h-52l5 47h211l253 -552l90 335q23 93 23 115q0 55 -90 55l6 47h262l-5 -47q-63 -2 -88.5 -32t-53.5 -138l-139 -519h-39l-278 601l-99 -370q-24 -93 -24 -115q0 -29 18 -42t62 -13h21l-6 -47 h-276z" />
<glyph unicode="&#x39e;" horiz-adv-x="768" d="M55 0l5 220h26q4 -34 9.5 -50t22.5 -32t50.5 -21t90.5 -5h311q75 0 118 12.5t63 31.5t50 64h26l-113 -220h-659zM136 502l112 220h659l-4 -220h-26q-5 34 -10.5 50t-22.5 32t-50.5 21t-90.5 5h-311q-75 0 -118 -12.5t-62.5 -31.5t-49.5 -64h-26zM216 203l84 311h47 l-6 -20q-14 -61 -10.5 -69.5t36.5 -8.5h254q33 0 43 10.5t26 69.5l5 20h47l-83 -311h-47l5 20q15 60 11 69.5t-37 9.5h-254q-33 0 -43 -11.5t-25 -69.5l-6 -20h-47z" />
<glyph unicode="&#x39f;" horiz-adv-x="778" d="M40 275q0 121 59.5 228.5t155.5 170.5t202 63q120 0 199 -80.5t79 -206.5q0 -118 -56.5 -225t-155 -173.5t-211.5 -66.5q-125 0 -198.5 78.5t-73.5 211.5zM158 207q0 -83 42 -131t114 -48q59 0 110.5 30.5t85.5 85.5q47 75 77.5 175t30.5 177q0 89 -38.5 143.5 t-119.5 54.5q-101 0 -179 -100q-49 -63 -86 -179.5t-37 -207.5z" />
<glyph unicode="&#x3a0;" horiz-adv-x="833" d="M-38 0l5 47h15q58 0 73 14q9 9 23 62l128 476q9 36 9 49q0 17 -15 22t-64 5h-26l6 47h751l-5 -47h-17q-56 0 -71 -14q-6 -5 -9 -13t-14 -49l-128 -476q-9 -34 -9 -49q0 -17 15 -22t64 -5h26l-6 -47h-317l5 47h17q56 0 71 14q8 8 23 62l127 476q10 34 10 49q0 17 -15 22 t-64 5h-159q-56 0 -70 -14q-7 -5 -10 -13t-13 -49l-128 -476q-10 -41 -10 -49q0 -17 15 -22t64 -5h26l-5 -47h-318z" />
<glyph unicode="&#x3a1;" horiz-adv-x="667" d="M-33 0l5 47h15q58 0 73 14q8 8 23 62l128 476q9 36 9 49q0 17 -15 22t-64 5h-26l6 47h295q247 0 247 -181q0 -123 -109 -182q-52 -27 -97 -34t-182 -7h-28l-52 -195q-7 -27 -10 -49q0 -17 15 -22t64 -5h26l-5 -47h-318zM260 365h29q65 -1 102 2q80 8 120 58.5t40 126.5 q0 67 -33 95t-112 28h-12q-31 0 -43.5 -9.5t-20.5 -38.5z" />
<glyph unicode="&#x3a3;" horiz-adv-x="678" d="M14 0l327 319l-125 403h593l-34 -165h-26q7 76 -18 100t-111 24h-262l106 -306l-271 -263h292q87 0 125.5 18.5t78.5 79.5h26l-110 -210h-591z" />
<glyph unicode="&#x3a4;" horiz-adv-x="685" d="M40 464l88 258h598l-42 -275l-42 5q2 41 2 70q0 81 -27.5 117t-94.5 36h-14q-23 0 -31.5 -9t-18.5 -47l-133 -496q-9 -34 -9 -49q0 -17 15 -22t64 -5h37l-6 -47h-346l5 47h22q69 0 84 14q9 9 23 62l136 510q5 18 5 25q0 17 -33 17h-14q-67 0 -110 -41.5t-117 -175.5z" />
<glyph unicode="&#x3a5;" horiz-adv-x="685" d="M46 542q20 73 65 126.5t102 53.5q47 0 78 -19t45 -54.5t19 -78t-2 -99t-17.5 -108t-27.5 -113.5h4q13 49 20.5 75t21.5 72.5t24.5 73.5t27.5 66t32.5 61.5t37 49t44 41t51 24t59.5 9.5q36 0 52.5 -27.5t15.5 -66.5t-14 -86h-42q5 22 4 41.5t-12 32t-30 12.5 q-29 0 -54.5 -13t-44 -30.5t-38 -52t-31 -59.5t-27 -73t-22.5 -73t-21 -77l-34 -127q-10 -41 -10 -49q0 -17 15.5 -22t64.5 -5h36l-5 -47h-347l6 47h22q69 0 83 14q7 6 9.5 13.5t13.5 48.5l34 127q14 51 22.5 90.5t15.5 86t4.5 80t-12.5 62.5t-34.5 44t-61.5 15 q-32 0 -61 -25.5t-39 -60.5h-42z" />
<glyph unicode="&#x3a6;" horiz-adv-x="710" d="M137 361q23 86 110.5 137t201.5 62l11 39q10 39 10 49q0 17 -15.5 22t-64.5 5h-22l6 47h310l-5 -47q-70 -1 -84 -14q-9 -9 -23 -62l-11 -39q108 -11 168.5 -62t37.5 -137t-110.5 -137t-201.5 -62l-11 -39q-10 -38 -10 -48q0 -17 15.5 -22.5t64.5 -5.5h22l-6 -47h-310 l5 47q70 1 84 14q9 9 23 62l11 39q-108 11 -168.5 62t-37.5 137zM241 361q-16 -59 17 -100t97 -54l82 308q-70 -13 -125 -54t-71 -100zM467 207q70 13 125 54t71 100t-17 100t-97 54z" />
<glyph unicode="&#x3a7;" horiz-adv-x="704" d="M-73 0l5 47q52 7 85 27t89 79l197 207l-104 245q-20 47 -37 58.5t-66 11.5h-24l5 47h315l-5 -47h-18q-67 0 -67 -28q0 -8 10 -32l72 -172l122 125q48 51 48 78q0 29 -52 29h-20l5 47h283l-5 -47q-52 -1 -85.5 -19.5t-91.5 -77.5l-182 -186l116 -272q22 -52 37 -62.5 t65 -10.5h26l-5 -47h-321l6 47h31q36 0 48.5 4.5t12.5 18.5q0 12 -6 25l-90 214l-151 -159q-39 -41 -39 -68q0 -35 62 -35h21l-6 -47h-286z" />
<glyph unicode="&#x3a8;" horiz-adv-x="743" d="M189 557l11 42q71 0 100.5 -59.5t7.5 -140.5q-17 -63 1 -115t63 -72l104 387q10 39 10 49q0 17 -15.5 22t-64.5 5h-22l6 47h310l-5 -47q-70 -1 -84 -14q-9 -9 -23 -62l-104 -387q57 20 102 72t62 115q22 81 83 140.5t132 59.5l-11 -42q-21 0 -37 -13t-28 -40t-19 -48 t-16 -57q-23 -89 -103 -153.5t-178 -80.5l-11 -42q-10 -38 -10 -48q0 -17 15.5 -22.5t64.5 -5.5h22l-6 -47h-310l5 47q70 1 84 14q9 9 23 62l11 42q-89 17 -133.5 81t-21.5 153q7 24 10 37.5t7.5 35.5t4 34t-3 25.5t-11 19.5t-22.5 6z" />
<glyph unicode="&#x3a9;" horiz-adv-x="768" d="M55 0l2 210h26q7 -57 49.5 -77.5t152.5 -20.5q8 31 -5.5 61.5t-38.5 56.5t-49.5 53t-37 62t-2.5 73q41 151 157.5 235t275.5 84q151 0 223.5 -82.5t31.5 -235.5q-10 -38 -42 -73.5t-71.5 -62.5t-78.5 -53.5t-69.5 -56.5t-38.5 -61q115 0 167.5 20t90.5 78h26l-110 -210 h-267l30 112q8 30 31 59t51.5 54t57.5 51.5t54.5 63.5t36.5 79q22 84 24 144.5t-37 93.5t-123 33q-66 0 -114 -17t-80.5 -54t-53 -83t-39.5 -115q-11 -42 -6 -80t20 -62.5t30 -53.5t22.5 -53t-1.5 -60l-30 -112h-265z" />
<glyph unicode="&#x3b1;" horiz-adv-x="795" d="M102 232q29 107 131.5 180t217.5 73q72 0 119.5 -42t63.5 -111q80 117 135 160l41 -56q-108 -85 -170 -166q0 -10 -2 -30q-3 -32 -4.5 -49t-3.5 -46.5t0 -46.5t6 -35.5t13 -27t23 -8.5q26 0 44.5 26t27.5 63h42q-15 -53 -49 -92t-76 -39q-108 0 -121 145 q-116 -145 -223 -145q-115 0 -179 71t-36 176zM206 232q-22 -83 12 -144t110 -61q58 0 108 43.5t102 119.5q0 5 1 17t2 17q22 219 -102 219q-76 0 -143 -62.5t-90 -148.5z" />
<glyph unicode="&#x3b2;" horiz-adv-x="580" d="M-53 -229q63 117 93 229l126 470q29 109 121 188t195 79q87 0 136.5 -52t28.5 -130q-15 -56 -68.5 -98.5t-122.5 -61.5q77 -21 119.5 -72t23.5 -123q-25 -93 -119 -154t-199 -61q-82 0 -140 41l-7 -26q-34 -123 -90 -229h-97zM154 76q54 -49 138 -49q66 0 125 51t78 122 q22 81 -43 127t-171 46l11 42q87 0 160 36.5t91 103.5q15 57 -4.5 98.5t-67.5 41.5q-71 0 -129 -67t-82 -158z" />
<glyph unicode="&#x3b3;" horiz-adv-x="597" d="M109 259q25 93 76.5 159.5t119.5 66.5q49 0 75.5 -29.5t30 -85.5t-4.5 -117.5t-27 -142.5l21 20q151 148 203 340h80q-25 -93 -90.5 -180t-165.5 -185l-64 -62l-28 -105q-12 -44 -19.5 -67.5t-21.5 -56.5t-32 -48.5t-40 -15.5q-38 0 -53.5 30t-3 76.5t49.5 91.5 q5 6 109 108q18 72 26.5 125.5t8 104.5t-20 78t-58.5 27q-43 0 -79 -39.5t-50 -92.5h-42zM233 -208q22 0 60 146l14 49l-61 -60q-49 -58 -45 -104q2 -31 32 -31z" />
<glyph unicode="&#x3b4;" horiz-adv-x="515" d="M97 211q20 75 92.5 121t169.5 60q-74 97 -47 196q16 61 64.5 105t103.5 44q60 0 96.5 -35t26.5 -90l-82 -7q7 37 -6.5 63.5t-45.5 26.5t-56 -31.5t-36 -75.5q-7 -26 4 -57.5t25.5 -51t40.5 -49.5q15 -17 22.5 -26.5t21 -27t20 -30t14.5 -30t10.5 -33t2 -34.5t-5.5 -38 q-25 -93 -106.5 -159.5t-172.5 -66.5q-90 0 -135.5 66.5t-20.5 159.5zM201 211q-11 -47 -12 -88t18.5 -68.5t57.5 -27.5q55 0 98.5 54t64.5 130q18 69 -38 142q-66 -8 -120 -46.5t-69 -95.5z" />
<glyph unicode="&#x3b5;" horiz-adv-x="481" d="M81 152q19 74 109 107q-51 34 -34 96q16 59 79.5 93.5t137.5 34.5q95 0 144 -69l-38 -29q-40 56 -117 56q-36 0 -69 -25t-43 -61q-12 -49 36 -74q42 6 108 6l-18 -67q-63 0 -113 10q-73 -22 -88 -78q-14 -52 18 -87t89 -35q41 0 82 22t69 59l33 -19q-36 -48 -89 -76 t-106 -28q-95 0 -153 44t-37 120z" />
<glyph unicode="&#x3b6;" horiz-adv-x="484" d="M88 181q39 145 115.5 265t175.5 173q-29 46 -3 103h81q-19 -44 -8 -76q33 7 60 7q38 0 60.5 -9.5t16.5 -33.5q-12 -42 -100 -42q-46 0 -76 21q-41 -23 -75 -65.5t-60.5 -103t-44.5 -113.5t-38 -126q-18 -68 24 -114t116 -46q58 0 86.5 -43.5t11.5 -103.5 q-14 -51 -58.5 -87.5t-94.5 -36.5q-60 0 -101 32l32 36q32 -26 80 -26q33 0 62 24t38 58q11 43 -8 74t-60 31q-115 0 -185.5 54.5t-46.5 147.5z" />
<glyph unicode="&#x3b7;" horiz-adv-x="606" d="M134 353q15 55 44 93.5t68 38.5q37 0 60 -22.5t29 -59.5q65 82 150 82t134.5 -49.5t29.5 -124.5q-14 -53 -59 -156t-59 -155q-30 -110 -30 -229h-97q0 108 33 229q14 52 54 155t54 156q15 53 -4.5 92.5t-66.5 39.5t-88.5 -39t-56.5 -93l-83 -311h-94l83 311 q6 20 8.5 30.5t6.5 29.5t4.5 29t0 21.5t-5.5 16.5t-14 5q-16 0 -28.5 -16.5t-17 -30t-13.5 -43.5h-42z" />
<glyph unicode="&#x3b8;" horiz-adv-x="535" d="M136 358q20 73 50.5 138.5t71 120.5t94.5 87.5t113 32.5t95.5 -32.5t48 -87.5t7 -120.5t-24.5 -138.5q-26 -97 -70.5 -179t-112.5 -138t-145 -56q-58 0 -94 32t-48 86t-8 118.5t23 136.5zM234 337q-12 -46 -19 -75.5t-14 -70t-5.5 -66t8 -50t24.5 -36.5t47 -12t53.5 12 t44 36.5t34.5 50t29.5 66t23.5 70t21 75.5h-247zM246 379h247q9 35 14.5 57t12.5 55t9 54.5t3 47.5t-3.5 42t-13 31t-24 22t-37.5 7q-34 0 -63.5 -19.5t-49 -47t-39 -74.5t-30.5 -83.5t-26 -91.5z" />
<glyph unicode="&#x3b9;" horiz-adv-x="334" d="M111 118l95 352h94l-95 -352q-11 -32 -9.5 -61.5t26.5 -29.5q24 0 37 24t24 67h42q-14 -55 -44.5 -94t-69.5 -39q-56 0 -85 39t-15 94z" />
<glyph unicode="&#x3ba;" horiz-adv-x="553" d="M40 0l126 470h94l-48 -178q36 18 102 82q111 111 190 111q38 0 57.5 -27.5t8.5 -66.5l-41 1q6 21 -4.5 36t-31.5 15q-26 0 -55.5 -16t-47.5 -31.5t-49 -46.5q-49 -49 -86 -74q69 -8 109.5 -37t26.5 -81q-8 -31 -11.5 -47t-5.5 -39t5.5 -33.5t24.5 -10.5q33 0 61 27t37 64 h42q-14 -54 -57.5 -93.5t-93.5 -39.5q-61 0 -88 51t-8 121t-100 79l-63 -236h-94z" />
<glyph unicode="&#x3bb;" horiz-adv-x="585" d="M40 0l350 471l-2 83l-1.5 37.5t-4 31.5t-11.5 27.5t-21 8.5q-36 0 -54 -65h-42q16 62 46 103.5t72 41.5q14 0 24 -6.5t16.5 -22.5t10 -28t5.5 -38.5t2.5 -38t1.5 -40.5l7 -384q1 -28 1.5 -42.5t4.5 -35.5t12.5 -30.5t21.5 -9.5q20 0 36 19t22 46h42q-16 -61 -47.5 -103 t-73.5 -42q-14 0 -25 7t-17.5 24t-10.5 30t-6 41t-2.5 40.5t-1.5 43.5l-3 165l-248 -334h-104z" />
<glyph unicode="&#x3bc;" horiz-adv-x="692" d="M13 -250q64 181 114 368l94 352h94l-94 -352q-11 -39 13.5 -65t67.5 -26q71 0 126 63q0 8 4 28l95 352h94l-95 -352q-11 -34 -0.5 -62.5t39.5 -28.5q27 0 47 27t29 64h42q-14 -54 -50 -93.5t-79 -39.5q-41 0 -72 16.5t-45 45.5q-69 -62 -146 -62q-92 0 -139 41 q-28 -139 -30 -276h-109z" />
<glyph unicode="&#x3bd;" horiz-adv-x="551" d="M135 356q35 129 102 129q70 0 82 -107l33 -308l43 22q113 56 153 204q17 64 -57 130l75 76q64 -56 24 -206q-21 -77 -68 -142t-116 -99l-144 -72l-38 351q-1 10 4 25.5t10.5 29t8.5 26.5t-1.5 20.5t-19.5 7.5q-9 0 -16.5 -7t-14 -23t-9.5 -26t-9 -31h-42z" />
<glyph unicode="&#x3be;" horiz-adv-x="539" d="M71 115q31 119 186 175q-96 37 -71 130q20 72 80 126.5t142 81.5q-23 41 -10 94h80q-11 -45 4 -75q35 6 71 6q29 0 44.5 -1t37 -4.5t29.5 -13t4 -24.5t-17 -24t-36 -12.5t-39 -4.5t-46 -1q-48 0 -84 22q-56 -24 -98.5 -69.5t-57.5 -100.5q-20 -77 75 -103q65 11 143 11 l-18 -67q-84 0 -134 6q-152 -42 -181 -152q-11 -44 5.5 -77t55.5 -38q43 -6 63.5 -9.5t59 -11t58 -16t40.5 -21t27.5 -30t0.5 -38.5q-13 -50 -44 -87t-70 -37q-46 0 -67 37l40 26q11 -21 38 -21q40 0 61 82q3 13 -4 23.5t-26.5 18.5t-37 14t-51 12t-51.5 8.5l-54 7.5 q-76 11 -120.5 52t-27.5 105z" />
<glyph unicode="&#x3bf;" horiz-adv-x="500" d="M5 172q0 125 84 212q83 86 184 86q73 0 125 -55.5t52 -133.5q0 -118 -85 -214q-73 -82 -182 -82q-82 0 -130 50.5t-48 136.5zM95 128q0 -105 89 -105q40 0 69 23.5t55 75.5q20 41 33.5 94.5t13.5 92.5q0 58 -23 90.5t-64 32.5q-56 0 -98 -54q-31 -41 -53 -114.5 t-22 -135.5z" />
<glyph unicode="&#x3c0;" horiz-adv-x="706" d="M53 -31l21 80q68 0 128.5 51.5t79.5 122.5l47 173q-42 4 -64 4q-32 0 -61 -26t-38 -61h-42q20 74 65 127.5t101 53.5q53 0 156 -16t158 -15q82 2 163 28l7 -89q-73 -24 -147 -30l-60 -223q-14 -46 -3 -84t48 -38l-11 -42q-70 0 -108.5 48t-19.5 116l59 222q-32 2 -162 21 l-46 -169q-27 -103 -104.5 -178.5t-166.5 -75.5z" />
<glyph unicode="&#x3c1;" horiz-adv-x="590" d="M-25 -250q56 89 78 167q14 53 24.5 157.5t24.5 157.5q29 105 123 179t200 74q105 0 160 -74t27 -179q-28 -103 -122 -175t-199 -72q-69 0 -124 29q-25 -159 -92 -264h-100zM175 64q54 -37 127 -37q68 0 126 61t80 144q13 55 10 102t-30.5 78t-73.5 31q-69 0 -127 -62.5 t-81 -148.5q-15 -56 -31 -168z" />
<glyph unicode="&#x3c2;" horiz-adv-x="478" d="M115 278q24 90 115 148.5t193 58.5q104 0 135 -38l-70 -59q-15 18 -23 26.5t-23.5 18.5t-30.5 10q-66 0 -125 -48.5t-77 -116.5q-26 -98 65 -167q71 -54 89 -71q56 -48 42 -102q-10 -35 -40 -59.5t-64 -24.5q-65 0 -97 49l39 28q22 -35 69 -35q16 0 31 12.5t20 29.5 q8 32 -34 68q-29 26 -87 69q-16 12 -23.5 18t-23 18.5t-23 20t-19.5 20.5t-18 22.5t-13 23t-9 25.5t-2 26.5t4 28.5z" />
<glyph unicode="&#x3c3;" horiz-adv-x="625" d="M98 172q0 125 84 212q83 86 184 86q20 0 35 -4q119 5 304 80l11 -58q-113 -45 -248 -53q75 -57 75 -154q0 -118 -85 -214q-73 -82 -182 -82q-82 0 -130 50.5t-48 136.5zM188 128q0 -105 89 -105q40 0 69 23.5t55 75.5q20 41 33.5 94.5t13.5 92.5q0 58 -23 90.5t-64 32.5 q-56 0 -98 -54q-31 -41 -53 -114.5t-22 -135.5z" />
<glyph unicode="&#x3c4;" horiz-adv-x="591" d="M124 313q20 74 65 127.5t101 53.5q15 0 130 -32q104 -28 217 26l23 -83q-111 -53 -221 -45l-65 -242q-11 -32 -9.5 -61.5t25.5 -29.5q25 0 38 24t24 67h42q-14 -55 -44.5 -94t-70.5 -39q-56 0 -85 39t-14 94l70 259q-13 4 -36.5 10t-35.5 9.5t-13 3.5q-32 0 -61 -26 t-38 -61h-42z" />
<glyph unicode="&#x3c5;" horiz-adv-x="572" d="M134 353q15 55 44 93.5t68 38.5q54 0 81.5 -39t12.5 -93q-9 -35 -31.5 -100.5t-30.5 -95.5q-14 -52 1.5 -91t58.5 -39q73 0 134 66.5t85 156.5q22 84 -57 179l82 70q64 -77 17 -249q-28 -107 -105 -186t-167 -79q-81 0 -127 49t-26 123q9 31 36 96.5t36 99.5q6 21 8.5 33 t4 27t-4.5 22.5t-19 7.5q-16 0 -28.5 -16.5t-17 -30t-13.5 -43.5h-42z" />
<glyph unicode="&#x3c6;" horiz-adv-x="690" d="M103 235q38 141 233 247l13 -36q-100 -54 -142 -211q-20 -76 11.5 -134t99.5 -71q40 194 47 220q25 95 91.5 165t144.5 70q82 0 110.5 -74.5t1.5 -175.5q-25 -95 -113 -161.5t-197 -83.5l-13 -52q-29 -111 -89 -188h-106q78 98 101 188l12 48q-110 10 -171 79t-34 170z M413 36q68 20 122.5 75t73.5 124q9 32 13 49.5t10 46.5t5.5 45t-3.5 33.5t-14.5 25.5t-29.5 8q-28 0 -49.5 -16t-37 -48.5t-24 -58.5t-20.5 -70q-4 -15 -46 -214z" />
<glyph unicode="&#x3c7;" horiz-adv-x="540" d="M24 -235q13 48 38 95t60.5 91t70.5 82t79 83l21 21l-16 169q-2 23 -4 35.5t-6.5 30.5t-13 26.5t-21.5 8.5q-22 0 -37 -20.5t-23 -50.5h-42q17 64 48.5 107.5t74.5 43.5q18 0 31 -14t20 -44t10 -50.5t7 -58.5l13 -141q75 79 123 147.5t68 143.5h94q-17 -63 -63.5 -133 t-79 -106t-111.5 -116q-15 -16 -23 -24l18 -185q6 -78 51 -78q22 0 37 20.5t23 50.5h42q-17 -64 -48.5 -107.5t-74.5 -43.5q-17 0 -30 9.5t-20 21t-12.5 35.5t-7 36.5t-4.5 41.5l-14 156q-151 -158 -184 -283h-94z" />
<glyph unicode="&#x3c8;" horiz-adv-x="647" d="M134 353q15 55 44 93.5t68 38.5q54 0 81.5 -39t12.5 -93q-9 -35 -31.5 -100.5t-30.5 -95.5q-12 -46 8 -80t62 -45l54 203q66 245 105 487h94q-90 -240 -157 -487l-56 -208q81 2 150.5 68t93.5 155q22 84 -57 179l82 70q64 -77 17 -249q-28 -106 -113.5 -184.5 t-183.5 -80.5l-63 -235h-42l64 237q-86 9 -133.5 54t-28.5 116q9 31 36 96.5t36 99.5q6 21 8.5 33t4 27t-4.5 22.5t-19 7.5q-16 0 -28.5 -16.5t-17 -30t-13.5 -43.5h-42z" />
<glyph unicode="&#x3c9;" horiz-adv-x="741" d="M104 238q31 118 192 247l22 -30q-79 -64 -120 -217q-56 -211 51 -211q81 0 138 138q6 66 27 148h80q-43 -165 -40 -222q4 -64 52 -64q109 0 165 211q41 153 -4 217l38 30q90 -130 60 -247q-27 -102 -104 -177.5t-166 -75.5q-92 0 -107 103q-66 -103 -150 -103 q-89 0 -125 75.5t-9 177.5z" />
<glyph unicode="&#x3d1;" horiz-adv-x="688" d="M134 353q15 54 46.5 93t72.5 39q52 0 77 -39t10 -93q-9 -34 -38.5 -99t-38.5 -97q-15 -54 15.5 -92t86.5 -38q38 0 70.5 20.5t54 49t41.5 77t31.5 86t26.5 93.5l25 96q-51 0 -85 3.5t-71.5 14t-58 33.5t-23.5 58q-5 65 50 122t124 57q89 0 130 -66.5t37 -173.5 q36 8 54 14l3 -40q-31 -9 -61 -15q-4 -50 -20 -103q-25 -96 -72.5 -177.5t-118.5 -136t-148 -54.5q-98 0 -157 46.5t-38 125.5q9 33 43.5 97.5t43.5 98.5q6 22 8.5 32.5t4.5 27t-2.5 23.5t-14.5 7q-25 0 -39.5 -24.5t-26.5 -65.5h-42zM419 572q2 -26 19.5 -43.5t50 -25 t61 -10t72.5 -2.5q39 204 -83 204q-48 0 -86 -39t-34 -84z" />
<glyph unicode="&#x3d5;" horiz-adv-x="517" d="M98 172q0 125 84 212q80 83 177 86l53 252h80l-83 -258q58 -16 96 -67t38 -116q0 -118 -85 -214q-73 -82 -181 -82l-63 -235h-44l64 239q-63 13 -99.5 61t-36.5 122zM188 128q0 -82 56 -100q58 213 106 403q-49 -4 -87 -53q-31 -41 -53 -114.5t-22 -135.5zM287 23 q36 3 63 26.5t51 72.5q20 41 33.5 94.5t13.5 92.5q0 90 -51 115q-50 -177 -110 -401z" />
<glyph unicode="&#x3d6;" horiz-adv-x="741" d="M104 238q31 118 192 247l22 -30q-79 -64 -120 -217q-56 -211 51 -211q81 0 138 138q6 66 27 148h80q-43 -165 -40 -222q4 -64 52 -64q109 0 165 211q19 69 24 130.5t-3.5 114t-41.5 83t-87 30.5q-126 0 -255 -21l4 42q133 21 263 21q68 0 116 -33.5t69.5 -89.5t24.5 -128 t-20 -149q-27 -102 -104 -177.5t-166 -75.5q-92 0 -107 103q-66 -103 -150 -103q-89 0 -125 75.5t-9 177.5z" />
<glyph unicode="&#x3f5;" horiz-adv-x="472" d="M107 249q28 104 135 170t229 66h59l-11 -42h-59q-79 0 -150.5 -53.5t-95.5 -130.5q23 0 104.5 22t115.5 4l-53 -72q-22 12 -51 13t-68.5 -4t-58.5 -5q-16 -81 4.5 -135.5t81.5 -54.5q40 0 103 63l52 -47q-58 -58 -166 -58q-102 0 -151 78t-20 186z" />
<glyph unicode="&#x400;" horiz-adv-x="722" d="M-37 0l5 47h5q68 0 83 14q9 9 23 62l128 476q9 36 9 49q0 17 -15 22t-64 5h-26l6 47h584l-39 -241h-45v35q0 52 -8 79.5t-29 46.5q-38 33 -102 33h-58q-56 0 -71.5 -10.5t-28.5 -58.5l-55 -205h23q73 0 114.5 29.5t63.5 95.5l45 -6l-89 -334l-45 8q9 41 9 69 q0 91 -111 91h-22l-59 -220q-11 -42 -11 -55q0 -18 15.5 -25t54.5 -7h54q118 0 187 59q29 24 48.5 51t53.5 88l5 8l41 -8l-78 -245h-601zM393 955q0 15 12 27t27 12q11 0 18 -5t20 -23l113 -144h-41l-134 107q-15 12 -15 26z" />
<glyph unicode="&#x401;" horiz-adv-x="722" d="M-37 0l5 47h5q68 0 83 14q9 9 23 62l128 476q9 36 9 49q0 17 -15 22t-64 5h-26l6 47h584l-39 -241h-45v35q0 52 -8 79.5t-29 46.5q-38 33 -102 33h-58q-56 0 -71.5 -10.5t-28.5 -58.5l-55 -205h23q73 0 114.5 29.5t63.5 95.5l45 -6l-89 -334l-45 8q9 41 9 69 q0 91 -111 91h-22l-59 -220q-11 -42 -11 -55q0 -18 15.5 -25t54.5 -7h54q118 0 187 59q29 24 48.5 51t53.5 88l5 8l41 -8l-78 -245h-601zM307 851q0 20 14.5 34.5t34.5 14.5t34.5 -14.5t14.5 -34.5t-14.5 -34.5t-35.5 -14.5q-20 0 -34 14.5t-14 34.5zM509 851 q0 20 14.5 34.5t34.5 14.5t34.5 -14.5t14.5 -34.5t-14.5 -34.5t-35.5 -14.5q-20 0 -34 14.5t-14 34.5z" />
<glyph unicode="&#x402;" horiz-adv-x="685" d="M40 464l88 258h598l-42 -275l-42 5q2 41 2 70q0 93 -37 128q-28 25 -85 25h-14q-23 0 -31.5 -9t-18.5 -47l-57 -218h113q122 0 170 -26q46 -25 63 -71.5t1 -105.5q-26 -97 -109 -147.5t-214 -50.5h-345l5 47h22q69 0 84 14q9 9 23 62l136 510q5 18 5 25q0 17 -33 17h-14 q-82 0 -141 -77q-29 -37 -86 -140zM321 98q-10 -34 -2 -42.5t49 -8.5h64q153 0 194 155q40 152 -117 152h-121z" />
<glyph unicode="&#x403;" horiz-adv-x="667" d="M-66 0l12 47h18q61 0 77.5 7.5t25.5 39.5q25 98 73 278t60 227l7 29q9 32 -3.5 39.5t-73.5 7.5h-18l12 47h595l-53 -256h-44q13 128 -22 168.5t-159 40.5h-46q-41 0 -54.5 -9t-21.5 -41l-133 -502l-7 -29q-9 -32 3.5 -39.5t73.5 -7.5h33l-12 -47h-343zM266 760l138 140 q31 30 50 30q14 0 24.5 -10.5t10.5 -24.5q0 -22 -25 -39l-159 -96h-39z" />
<glyph unicode="&#x404;" horiz-adv-x="750" d="M56 354q41 153 165 263q132 120 277 120q54 0 81.5 -9.5t68.5 -46.5l56 59h38l-63 -289h-44q-3 126 -32 182.5t-119 56.5q-48 0 -97.5 -24.5t-83.5 -66.5q-64 -76 -103 -202h287l-13 -47h-287q-43 -161 -10.5 -239.5t143.5 -78.5q124 0 214 104q35 40 72 119l45 -8 q-51 -126 -143.5 -194t-212.5 -68q-148 0 -215 104t-24 265z" />
<glyph unicode="&#x405;" horiz-adv-x="667" d="M0 0l55 285l40 -7q-1 -11 -1 -28q0 -98 53 -158q57 -64 152 -64q77 0 125.5 39.5t48.5 103.5q0 55 -44 87q-16 11 -78 36l-86 36q-72 31 -100 61q-47 52 -47 122q0 95 69.5 159.5t170.5 64.5q107 0 182 -74l54 52h38l-54 -261l-42 7q1 9 1 20q0 99 -46 156t-126 57 q-67 0 -111.5 -37.5t-44.5 -93.5q0 -74 114 -119l85 -34q89 -35 125 -79t36 -117q0 -99 -76 -164t-193 -65q-122 0 -206 78l-59 -63h-35z" />
<glyph unicode="&#x406;" horiz-adv-x="407" d="M-33 0l5 47q70 1 84 14q9 9 23 62l128 476q10 39 10 49q0 17 -15.5 22t-64.5 5h-22l6 47h310l-5 -47q-70 -1 -84 -14q-9 -9 -23 -62l-128 -476q-10 -38 -10 -48q0 -17 15.5 -22.5t64.5 -5.5h22l-6 -47h-310z" />
<glyph unicode="&#x407;" horiz-adv-x="407" d="M-33 0l5 47q70 1 84 14q9 9 23 62l128 476q10 39 10 49q0 17 -15.5 22t-64.5 5h-22l6 47h310l-5 -47q-70 -1 -84 -14q-9 -9 -23 -62l-128 -476q-10 -38 -10 -48q0 -17 15.5 -22.5t64.5 -5.5h22l-6 -47h-310zM146 861q0 20 14.5 34.5t34.5 14.5t34.5 -14.5t14.5 -34.5 t-14.5 -34.5t-35.5 -14.5q-20 0 -34 14.5t-14 34.5zM348 861q0 20 14.5 34.5t34.5 14.5t34.5 -14.5t14.5 -34.5t-14.5 -34.5t-35.5 -14.5q-20 0 -34 14.5t-14 34.5z" />
<glyph unicode="&#x408;" horiz-adv-x="611" d="M-13 143q0 61 35 103t86 42q35 0 57 -19.5t22 -51.5q0 -31 -18.5 -50.5t-47.5 -19.5q-23 0 -46 14q-6 3 -14 3q-11 0 -18.5 -9t-7.5 -23q0 -44 35 -74t87 -30q63 0 100.5 43.5t65.5 147.5l102 380q10 40 10 49q0 17 -15 22t-64 5h-30l6 47h314l-5 -47h-4q-63 0 -77 -14 q-8 -8 -23 -62l-109 -407q-29 -107 -89.5 -157t-160.5 -50q-90 0 -140.5 41.5t-50.5 116.5z" />
<glyph unicode="&#x409;" horiz-adv-x="916" d="M-2 121q0 34 19 53t50 19q27 0 46 -17t19 -38q0 -40 -20 -50q-28 -12 -24 -31q3 -15 25 -15q78 0 130 77q31 45 53 86.5t39.5 93.5t25.5 79t25.5 97t23.5 95q3 23 5.5 46t-14 41t-53.5 18h-18l12 47h608l-12 -47h-18q-57 0 -76.5 -13t-29.5 -47q-12 -44 -33.5 -126.5 t-26.5 -100.5h113q122 0 170 -26q46 -25 63 -71.5t1 -105.5q-26 -97 -109 -147.5t-214 -50.5h-350l16 60h18q61 0 78.5 8t24.5 39q25 98 73 278.5t60 227.5q8 24 -7.5 46t-50.5 23l-53 -1q-51 1 -79.5 -38t-54.5 -138q-50 -186 -79 -258q-106 -244 -274 -249q-50 0 -76 36.5 t-26 99.5zM674 85q-10 -35 -2 -43t49 -8h64q153 0 194 155q40 152 -117 152h-121z" />
<glyph unicode="&#x40a;" horiz-adv-x="833" d="M-38 0l5 47h5q68 0 83 14q9 9 23 62l128 476q9 36 9 49q0 17 -15 22t-64 5h-26l6 47h317l-5 -47h-4q-69 0 -83 -14q-7 -5 -10 -13t-13 -49l-54 -198h322l53 198q10 34 10 49q0 17 -15 22t-64 5h-26l5 47h318l-5 -47h-4q-69 0 -84 -14q-11 -9 -24 -62l-52 -198h113 q122 0 170 -26q46 -25 63 -71.5t1 -105.5q-26 -97 -109 -147.5t-214 -50.5h-326l5 47h4q69 0 84 14q8 8 23 62l61 231h-321l-62 -231q-10 -41 -10 -49q0 -17 15 -22t64 -5h26l-5 -47h-318zM618 98q-10 -34 -2 -42.5t49 -8.5h64q153 0 194 155q40 152 -117 152h-121z" />
<glyph unicode="&#x40b;" horiz-adv-x="685" d="M40 464l88 258h598l-42 -275l-42 5q2 41 2 70q0 93 -37 128q-28 25 -85 25h-14q-23 0 -31.5 -9t-18.5 -47l-133 -496q-9 -34 -9 -49q0 -17 15 -22t64 -5h37l-6 -47h-346l5 47h22q69 0 84 14q9 9 23 62l136 510q5 18 5 25q0 17 -33 17h-14q-82 0 -141 -77 q-29 -37 -86 -140z" />
<glyph unicode="&#x40c;" horiz-adv-x="748" d="M-38 0l12 47h18q61 0 78 8t25 39q25 98 73 278t60 227l8 29q8 32 -4.5 39.5t-73.5 7.5h-18l12 47h329l-12 -47h-19q-61 0 -77.5 -7.5t-24.5 -39.5q-13 -46 -35.5 -133.5t-27.5 -105.5q121 -1 182 40.5t91 148.5q41 158 168 158q50 0 69 -17t22 -63q2 -28 -17 -53t-48 -33 q-30 -9 -53 6.5t-16 43.5q4 15 11.5 24.5t13.5 12.5t10.5 7t4.5 8q0 10 -19 12q-13 1 -45 -32.5t-43 -76.5q-26 -94 -59.5 -143.5t-84.5 -67.5q71 -10 95.5 -68.5t2.5 -148.5q-8 -31 -9 -50t6 -26t12.5 -8.5t17.5 -1.5q20 0 36 23.5t33 75.5h42q-26 -90 -67.5 -132.5 t-102.5 -42.5q-59 0 -79 37t-7 122q28 107 -12.5 148t-169.5 42l-56 -211l-7 -29q-8 -32 4.5 -39.5t72.5 -7.5h19l-12 -47h-329zM303 760l138 140q31 30 50 30q14 0 24.5 -10.5t10.5 -24.5q0 -22 -25 -39l-159 -96h-39z" />
<glyph unicode="&#x40d;" horiz-adv-x="893" d="M-38 0l12 47h18q61 0 78.5 8t24.5 39q12 48 26 100.5t27.5 103t26 98.5t27 103t26.5 100l7 29q8 32 -4.5 39.5t-72.5 7.5h-18l12 47h329l-12 -47h-19q-61 0 -78.5 -8t-24.5 -39q-21 -81 -60.5 -228.5t-49.5 -185.5l425 336l13 49l7 29q8 32 -4.5 39.5t-72.5 7.5h-14 l12 47h324l-12 -47h-18q-22 0 -35.5 -0.5t-25 -2.5t-17.5 -4.5t-11.5 -8.5t-8 -13t-5.5 -18q-25 -98 -73 -278t-60 -227l-7 -29q-8 -32 4.5 -39.5t72.5 -7.5h18l-12 -47h-328l12 47h18q43 0 61.5 3.5t27.5 12.5t14 31q19 75 55.5 212t45.5 171l-425 -337q-2 -10 -11 -46 q-9 -32 3.5 -39.5t73.5 -7.5h19l-12 -47h-329zM491 955q0 15 12 27t27 12q11 0 18 -5t20 -23l113 -144h-41l-134 107q-15 12 -15 26z" />
<glyph unicode="&#x40e;" horiz-adv-x="755" d="M-8 101q2 27 20 43.5t45 16.5q24 0 42 -11t18 -30v-4q0 -23 -6 -29l-4 -4l-15 -16q-20 -9 -26 -15t-0.5 -8.5t14 -3.5t20.5 -1h4q16 0 27 3t24.5 13t19 15.5t24.5 26.5t27 30l67 85l-126 425q-7 25 -21 31.5t-53 6.5h-17l12 47h309l-12 -47h-38q-48 0 -52 -13 q0 -2 0.5 -5.5t2 -9.5l2.5 -10l78 -319l213 284q21 28 23 34q5 20 -9 29.5t-50 9.5h-14l12 47h275l-12 -47h-16q-40 0 -72.5 -19t-89.5 -75l-370 -486q-3 -3 -19 -23.5t-21.5 -26t-22 -19.5t-30 -19t-35.5 -10t-48 -5q-60 0 -81.5 28.5t-18.5 80.5zM360 914q0 12 1 21h29 q3 -46 31.5 -72t75.5 -26q94 0 133 98h31q-14 -74 -59 -117.5t-109 -43.5q-60 0 -96.5 38.5t-36.5 101.5z" />
<glyph unicode="&#x40f;" horiz-adv-x="893" d="M-38 0l12 47h18q61 0 77.5 7.5t25.5 39.5q25 98 73 278t60 227l7 29q9 32 -3.5 39.5t-73.5 7.5h-18l12 47h328l-12 -47h-18q-61 0 -77.5 -7.5t-25.5 -39.5q-29 -111 -83 -315.5t-68 -258.5h335l144 545l7 29q9 32 -3.5 39.5t-73.5 7.5h-19l12 47h329l-12 -47h-18 q-61 0 -77.5 -7.5t-25.5 -39.5q-19 -74 -42 -160.5t-49 -184t-42 -160.5l-7 -29q-9 -32 3.5 -39.5t73.5 -7.5h18l-12 -47h-775z" />
<glyph unicode="&#x410;" horiz-adv-x="704" d="M-82 0l5 47q41 0 74.5 27.5t73.5 93.5l330 569h41l125 -629q8 -39 21.5 -50t54.5 -11h25l-5 -47h-301l5 47h16q43 0 57.5 7t14.5 29q0 8 -4 32l-23 123h-255l-55 -96q-18 -30 -18 -55q0 -23 15 -31.5t54 -8.5h24l-6 -47h-269zM200 285h220l-57 287z" />
<glyph unicode="&#x411;" horiz-adv-x="701" d="M-31 0l12 47h18q61 0 78.5 8t24.5 39q19 74 42 160.5t49 184t42 160.5l7 29q8 32 -5 41t-72 9h-18l12 44h594l-53 -256h-44q13 129 -20 169t-154 40h-49q-39 0 -55 -10.5t-24 -39.5l-61 -228h89q57 0 94.5 -1.5t46.5 -2.5l9 -1q173 -32 128 -196q-24 -92 -111 -144 t-217 -52h-363zM218 110q-11 -41 -4 -52t45 -11h42q92 0 142 23q33 14 58 48t37 81q27 98 -37 132q-38 19 -132 19h-88z" />
<glyph unicode="&#x412;" horiz-adv-x="722" d="M-31 0l5 47h15q57 0 73 14q6 6 9.5 14.5t13.5 47.5l128 476q9 36 9 49q0 17 -15 22t-64 5h-26l6 47h301q108 0 163 -31q38 -21 59.5 -57t21.5 -79q0 -95 -83 -145q-44 -26 -112 -39q157 -47 157 -165q0 -59 -33 -106.5t-91 -72.5q-60 -27 -174 -27h-363zM187 74 q0 -16 14.5 -21.5t55.5 -5.5h50q93 0 139 40q62 54 62 138q0 77 -72 107q-37 15 -116 15h-63l-64 -238q-6 -23 -6 -35zM269 394h83q88 0 134 36q29 22 46 60t17 80q0 55 -28 80t-90 25h-29q-38 0 -50.5 -11t-24.5 -57z" />
<glyph unicode="&#x413;" horiz-adv-x="667" d="M-66 0l12 47h18q61 0 77.5 7.5t25.5 39.5q25 98 73 278t60 227l7 29q9 32 -3.5 39.5t-73.5 7.5h-18l12 47h595l-53 -256h-44q13 128 -22 168.5t-159 40.5h-46q-41 0 -54.5 -9t-21.5 -41l-133 -502l-7 -29q-9 -32 3.5 -39.5t73.5 -7.5h33l-12 -47h-343z" />
<glyph unicode="&#x414;" horiz-adv-x="865" d="M-125 -190l71 238h146q68 41 118.5 148t114.5 349l7 29q5 19 6 34t-2.5 31.5t-20 26t-45.5 9.5h-18l12 47h630l-12 -47h-18q-41 0 -61.5 -6t-29.5 -18t-15 -38q-25 -94 -71.5 -269.5t-58.5 -220.5l-7 -29q-9 -31 -3 -38.5t41 -8.5q52 0 60.5 0.5t60.5 0.5l-53 -238h-44 q4 38 4 64.5t-3 48t-13 34.5t-22.5 22t-35.5 13.5t-48 6t-63 1.5h-302q-54 0 -86.5 -3.5t-62 -13.5t-50 -32.5t-40 -55t-42.5 -85.5h-44zM181 54h317l133 503l7 29q5 22 6 40.5t-17.5 30.5t-56.5 12h-21q-61 0 -90 -20t-45 -71l-8 -29q-61 -228 -111 -340.5t-114 -154.5z " />
<glyph unicode="&#x415;" horiz-adv-x="722" d="M-37 0l5 47h5q68 0 83 14q9 9 23 62l128 476q9 36 9 49q0 17 -15 22t-64 5h-26l6 47h584l-39 -241h-45v35q0 52 -8 79.5t-29 46.5q-38 33 -102 33h-58q-56 0 -71.5 -10.5t-28.5 -58.5l-55 -205h23q73 0 114.5 29.5t63.5 95.5l45 -6l-89 -334l-45 8q9 41 9 69 q0 91 -111 91h-22l-59 -220q-11 -42 -11 -55q0 -18 15.5 -25t54.5 -7h54q118 0 187 59q29 24 48.5 51t53.5 88l5 8l41 -8l-78 -245h-601z" />
<glyph unicode="&#x416;" horiz-adv-x="1074" d="M-14 160h42q-11 -52 -7 -75.5t24 -23.5q12 0 18.5 1.5t17 8.5t19.5 26t18 50q25 90 80.5 148.5t131.5 68.5q-42 18 -49.5 69t17.5 142q5 19 4.5 36t-4.5 30.5t-9.5 23t-11.5 14.5t-11 5q-19 -2 -25 -12q-3 -5 2 -10t10 -12.5t0 -29.5q-7 -28 -38 -43t-57 -7 q-25 8 -30 33.5t11 52.5q18 32 36 49t40.5 24t56.5 7q128 0 84 -158q-30 -108 -3.5 -149t143.5 -40l55 211l8 28q8 32 -4.5 39.5t-73.5 7.5h-18l12 47h329l-12 -47h-19q-43 0 -61 -3.5t-26.5 -12.5t-14.5 -31q-13 -46 -35.5 -133.5t-27.5 -105.5q80 -1 124.5 17.5t68.5 56.5 t45 115q41 158 168 158q50 0 69 -17t22 -63q2 -28 -17 -53t-48 -33q-30 -9 -53 6.5t-16 43.5q4 15 11.5 24.5t13.5 12.5t10.5 7t4.5 8q0 10 -19 12q-13 1 -45 -32.5t-43 -76.5q-26 -94 -59.5 -143.5t-84.5 -67.5q71 -10 95.5 -68.5t2.5 -148.5q-8 -31 -9 -50t6 -26 t12.5 -8.5t17.5 -1.5q20 0 36 23.5t33 75.5h42q-26 -90 -67.5 -132.5t-102.5 -42.5q-59 0 -79 37t-7 122q32 108 4 148.5t-151 41.5l-56 -211l-7 -29q-8 -32 4.5 -39.5t72.5 -7.5h19l-12 -47h-329l12 47h18q61 0 78 8t25 39q12 47 35 134.5t28 105.5q-85 -1 -132 -19.5 t-70.5 -56t-44.5 -114.5q-32 -85 -71.5 -122t-98.5 -37q-62 0 -81 42.5t3 132.5z" />
<glyph unicode="&#x417;" horiz-adv-x="656" d="M2 191q0 28 16 49.5t42 22.5q28 1 45 -11t17 -36q0 -23 -7.5 -32.5t-29.5 -18.5q-19 -7 -24 -22.5t5 -29.5q28 -46 64.5 -61.5t104.5 -14.5q75 -1 138 47.5t64 122.5q1 151 -146 156h-83l14 53h113q66 1 119 52t53 103q0 60 -28 90.5t-82 29.5q-105 -1 -189 -89 q-55 -56 -96 -134h-43l81 260h37l24 -60q90 69 200 69q96 0 144.5 -42.5t46.5 -117.5q-1 -38 -22.5 -73t-52 -58.5t-60 -38.5t-50.5 -19q22 -3 43 -11t44 -24.5t37 -49.5t14 -78q0 -239 -332 -241q-103 -1 -162.5 55.5t-58.5 151.5z" />
<glyph unicode="&#x418;" horiz-adv-x="893" d="M-38 0l12 47h18q61 0 78.5 8t24.5 39q12 48 26 100.5t27.5 103t26 98.5t27 103t26.5 100l7 29q8 32 -4.5 39.5t-72.5 7.5h-18l12 47h329l-12 -47h-19q-61 0 -78.5 -8t-24.5 -39q-21 -81 -60.5 -228.5t-49.5 -185.5l425 336l13 49l7 29q8 32 -4.5 39.5t-72.5 7.5h-14 l12 47h324l-12 -47h-18q-22 0 -35.5 -0.5t-25 -2.5t-17.5 -4.5t-11.5 -8.5t-8 -13t-5.5 -18q-25 -98 -73 -278t-60 -227l-7 -29q-8 -32 4.5 -39.5t72.5 -7.5h18l-12 -47h-328l12 47h18q43 0 61.5 3.5t27.5 12.5t14 31q19 75 55.5 212t45.5 171l-425 -337q-2 -10 -11 -46 q-9 -32 3.5 -39.5t73.5 -7.5h19l-12 -47h-329z" />
<glyph unicode="&#x419;" horiz-adv-x="893" d="M-38 0l12 47h18q61 0 78.5 8t24.5 39q12 48 26 100.5t27.5 103t26 98.5t27 103t26.5 100l7 29q8 32 -4.5 39.5t-72.5 7.5h-18l12 47h329l-12 -47h-19q-61 0 -78.5 -8t-24.5 -39q-21 -81 -60.5 -228.5t-49.5 -185.5l425 336l13 49l7 29q8 32 -4.5 39.5t-72.5 7.5h-14 l12 47h324l-12 -47h-18q-22 0 -35.5 -0.5t-25 -2.5t-17.5 -4.5t-11.5 -8.5t-8 -13t-5.5 -18q-25 -98 -73 -278t-60 -227l-7 -29q-8 -32 4.5 -39.5t72.5 -7.5h18l-12 -47h-328l12 47h18q43 0 61.5 3.5t27.5 12.5t14 31q19 75 55.5 212t45.5 171l-425 -337q-2 -10 -11 -46 q-9 -32 3.5 -39.5t73.5 -7.5h19l-12 -47h-329zM430 914q0 12 1 21h29q2 -30 15.5 -52.5t37 -34t54.5 -11.5q46 0 80 25.5t53 72.5h31q-14 -74 -59 -117.5t-109 -43.5q-60 0 -96.5 38.5t-36.5 101.5z" />
<glyph unicode="&#x41a;" horiz-adv-x="748" d="M-38 0l12 47h18q61 0 78 8t25 39q25 98 73 278t60 227l8 29q8 32 -4.5 39.5t-73.5 7.5h-18l12 47h329l-12 -47h-19q-61 0 -77.5 -7.5t-24.5 -39.5q-13 -46 -35.5 -133.5t-27.5 -105.5q121 -1 182 40.5t91 148.5q41 158 168 158q50 0 69 -17t22 -63q2 -28 -17 -53t-48 -33 q-30 -9 -53 6.5t-16 43.5q4 15 11.5 24.5t13.5 12.5t10.5 7t4.5 8q0 10 -19 12q-13 1 -45 -32.5t-43 -76.5q-26 -94 -59.5 -143.5t-84.5 -67.5q71 -10 95.5 -68.5t2.5 -148.5q-8 -31 -9 -50t6 -26t12.5 -8.5t17.5 -1.5q20 0 36 23.5t33 75.5h42q-26 -90 -67.5 -132.5 t-102.5 -42.5q-59 0 -79 37t-7 122q28 107 -12.5 148t-169.5 42l-56 -211l-7 -29q-8 -32 4.5 -39.5t72.5 -7.5h19l-12 -47h-329z" />
<glyph unicode="&#x41b;" horiz-adv-x="916" d="M-2 121q0 34 19 53t50 19q27 0 46 -17t19 -38q0 -40 -20 -50q-28 -12 -24 -31q3 -15 25 -15q78 0 130 77q31 45 53 86.5t39.5 93.5t25.5 79t25.5 97t23.5 95q3 23 5.5 46t-14 41t-53.5 18h-18l12 47h608l-12 -47h-18q-57 0 -76.5 -13t-29.5 -47q-25 -95 -71.5 -270.5 t-58.5 -221.5l-7 -29q-8 -32 4.5 -39.5t72.5 -7.5h18l-12 -47h-328l12 47h18q61 0 78.5 8t24.5 39q25 98 73 278.5t60 227.5q8 24 -7.5 46t-50.5 23l-53 -1q-51 1 -79.5 -38t-54.5 -138q-50 -186 -79 -258q-106 -244 -274 -249q-50 0 -76 36.5t-26 99.5z" />
<glyph unicode="&#x41c;" horiz-adv-x="927" d="M-38 0l5 47q54 2 78 33t52 137l102 382q10 38 10 49q0 17 -15 22t-64 5h-26l5 47h242l53 -540l341 540h216l-5 -47h-4q-69 0 -84 -14q-6 -5 -9 -13t-14 -49l-127 -476q-10 -33 -10 -49q0 -17 15 -22t64 -5h26l-6 -47h-317l5 47h4q69 0 84 14q8 8 23 62l132 493l-386 -616 h-36l-62 602l-103 -385q-23 -93 -23 -115q0 -55 89 -55l-5 -47h-250z" />
<glyph unicode="&#x41d;" horiz-adv-x="833" d="M-38 0l5 47h5q68 0 83 14q9 9 23 62l128 476q9 36 9 49q0 17 -15 22t-64 5h-26l6 47h317l-5 -47h-4q-69 0 -83 -14q-7 -5 -10 -13t-13 -49l-54 -198h322l53 198q10 34 10 49q0 17 -15 22t-64 5h-26l5 47h318l-5 -47h-4q-69 0 -84 -14q-6 -5 -9 -13t-14 -49l-128 -476 q-9 -34 -9 -49q0 -17 15 -22t64 -5h26l-6 -47h-317l5 47h4q69 0 84 14q8 8 23 62l61 231h-321l-62 -231q-10 -41 -10 -49q0 -17 15 -22t64 -5h26l-5 -47h-318z" />
<glyph unicode="&#x41e;" horiz-adv-x="778" d="M40 275q0 190 129 327q126 135 288 135q117 0 198 -79q80 -79 80 -208q0 -96 -38 -186.5t-107 -159.5q-121 -119 -278 -119q-125 0 -198.5 78.5t-73.5 211.5zM158 207q0 -83 42 -131t114 -48q59 0 110.5 30.5t85.5 85.5q47 75 77.5 175t30.5 177q0 35 -10 75t-24 63 q-16 27 -50.5 43.5t-73.5 16.5q-101 0 -179 -100q-49 -63 -86 -179.5t-37 -207.5z" />
<glyph unicode="&#x41f;" horiz-adv-x="893" d="M-38 0l12 47h18q61 0 77.5 7.5t25.5 39.5q12 48 26 100.5t27.5 103t26 98.5t27 103t26.5 100l7 29q9 32 -3.5 39.5t-73.5 7.5h-18l12 47h775l-12 -47h-18q-61 0 -77.5 -7.5t-25.5 -39.5q-25 -98 -73 -278t-60 -227l-7 -29q-9 -32 3.5 -39.5t73.5 -7.5h18l-12 -47h-328 l12 47h18q43 0 61 3.5t27 12.5t15 31q29 111 83 315.5t68 258.5h-335l-144 -545l-7 -29q-9 -32 3.5 -39.5t73.5 -7.5h19l-12 -47h-329z" />
<glyph unicode="&#x420;" horiz-adv-x="667" d="M-33 0l5 47h5q68 0 83 14q6 6 9.5 14.5t13.5 47.5l128 476q9 36 9 49q0 17 -15 22t-64 5h-26l6 47h295q120 0 173 -36q74 -51 74 -145q0 -123 -109 -182q-51 -27 -100.5 -34t-188.5 -7h-18l-52 -195q-10 -41 -10 -49q0 -17 15 -22t64 -5h26l-5 -47h-318zM260 365h19 q98 0 112 2q78 7 117 55q43 54 43 130q0 67 -33 95t-112 28h-12q-31 0 -43.5 -9.5t-20.5 -38.5z" />
<glyph unicode="&#x421;" horiz-adv-x="722" d="M40 280q0 169 112 305q122 152 290 152q108 0 175 -80l60 58h36l-56 -280h-41q-4 108 -26 158q-41 101 -140 101q-52 0 -100 -29t-82 -82q-47 -73 -75 -165.5t-28 -177.5q0 -90 46 -147q45 -59 140 -59q112 0 185 91q24 28 57 98l41 -18q-36 -85 -80 -130 q-87 -90 -220 -90t-213.5 80.5t-80.5 214.5z" />
<glyph unicode="&#x422;" horiz-adv-x="685" d="M40 464l88 258h598l-42 -275l-42 5q2 41 2 70q0 93 -37 128q-28 25 -85 25h-14q-23 0 -31.5 -9t-18.5 -47l-133 -496q-9 -34 -9 -49q0 -17 15 -22t64 -5h37l-6 -47h-346l5 47h22q69 0 84 14q9 9 23 62l136 510q5 18 5 25q0 17 -33 17h-14q-82 0 -141 -77 q-29 -37 -86 -140z" />
<glyph unicode="&#x423;" horiz-adv-x="755" d="M-8 101q2 27 20 43.5t45 16.5q24 0 42 -11t18 -30v-4q0 -23 -6 -29l-4 -4l-15 -16q-20 -9 -26 -15t-0.5 -8.5t14 -3.5t20.5 -1h4q16 0 27 3t24.5 13t19 15.5t24.5 26.5t27 30l67 85l-126 425q-7 25 -21 31.5t-53 6.5h-17l12 47h309l-12 -47h-38q-48 0 -52 -13 q0 -2 0.5 -5.5t2 -9.5l2.5 -10l78 -319l213 284q21 28 23 34q5 20 -9 29.5t-50 9.5h-14l12 47h275l-12 -47h-16q-40 0 -72.5 -19t-89.5 -75l-370 -486q-3 -3 -19 -23.5t-21.5 -26t-22 -19.5t-30 -19t-35.5 -10t-48 -5q-60 0 -81.5 28.5t-18.5 80.5z" />
<glyph unicode="&#x424;" horiz-adv-x="861" d="M21 379q69 256 420 256l8 30q8 32 -4.5 39.5t-72.5 7.5h-20l12 47h331l-12 -47h-20q-60 0 -77 -8t-25 -39l-8 -30q181 0 252.5 -63.5t36.5 -196.5t-140.5 -197.5t-285.5 -63.5l-5 -20q-8 -32 4 -39.5t72 -7.5h20l-12 -47h-331l12 47h20q61 0 78 8t25 39l5 21 q-178 1 -249.5 63t-33.5 201zM139 377q-14 -53 -15 -90t15 -69t59.5 -48t116.5 -16l116 443q-72 0 -123.5 -15.5t-84 -47t-51.5 -68t-33 -89.5zM426 153q75 0 128 15t85.5 47.5t50.5 69t33 90.5q14 54 14.5 90.5t-15.5 68t-60.5 47.5t-118.5 16z" />
<glyph unicode="&#x425;" horiz-adv-x="704" d="M-73 0l5 47q52 7 85 27t89 79l197 207l-104 245q-20 47 -37 58.5t-66 11.5h-24l5 47h315l-5 -47h-18q-67 0 -67 -28q0 -8 10 -32l72 -172l122 125q48 51 48 78q0 29 -52 29h-20l5 47h283l-5 -47q-52 -1 -85.5 -19.5t-91.5 -77.5l-182 -186l116 -272q22 -52 37 -62.5 t65 -10.5h26l-5 -47h-321l6 47h31q36 0 48.5 4.5t12.5 18.5q0 12 -6 25l-90 214l-151 -159q-39 -41 -39 -68q0 -35 68 -35h15l-6 -47h-286z" />
<glyph unicode="&#x426;" horiz-adv-x="898" d="M-38 0l12 47h18q61 0 78 8t25 39q25 98 73 278t60 227l8 29q8 32 -4.5 39.5t-73.5 7.5h-18l12 47h329l-12 -47h-19q-61 0 -77.5 -7.5t-24.5 -39.5q-30 -111 -84 -315.5t-68 -258.5h335q14 51 68 257t84 317q8 32 -4.5 39.5t-73.5 7.5h-18l12 47h328l-12 -47h-18 q-43 0 -61 -3.5t-26.5 -12.5t-14.5 -31q-26 -97 -74 -277.5t-60 -227.5l-7 -29q-8 -31 3 -40t48 -7h52l-53 -237h-44q4 36 5.5 57.5t0.5 44t-4 34t-11.5 23.5t-19.5 16.5t-30 8.5t-41 5t-55 1h-543zM757 47v1v-1z" />
<glyph unicode="&#x427;" horiz-adv-x="821" d="M115 675l12 47h329l-12 -47h-19q-61 0 -77.5 -7.5t-25.5 -39.5q-12 -48 -35 -135.5t-28 -105.5q-6 -20 6.5 -37.5t37.5 -28t55 -10.5q56 -1 99 13.5t85 44.5l61 230l7 29q9 32 -3.5 39.5t-73.5 7.5h-14l12 47h324l-12 -47h-18q-61 0 -77.5 -7.5t-25.5 -39.5 q-25 -98 -73 -278t-60 -227l-7 -29q-9 -32 3.5 -39.5t73.5 -7.5h18l-12 -47h-328l12 47h18q61 0 77.5 7.5t25.5 39.5q11 44 32.5 124t25.5 97q-47 -31 -87 -44t-96 -13q-90 0 -153 31t-48 86l59 224l7 29q9 32 -3.5 39.5t-73.5 7.5h-18z" />
<glyph unicode="&#x428;" horiz-adv-x="1255" d="M-38 0l12 47h18q61 0 77.5 7.5t25.5 39.5q25 98 73 278t60 227l7 29q9 32 -3.5 39.5t-73.5 7.5h-18l12 47h329l-12 -47h-19q-61 0 -77.5 -7.5t-25.5 -39.5q-29 -111 -83 -315.5t-68 -258.5h293l144 545l7 29q9 32 -3.5 39.5t-73.5 7.5h-18l12 47h328l-12 -47h-18 q-61 0 -77.5 -7.5t-25.5 -39.5q-29 -111 -83 -315.5t-68 -258.5h292l144 545l7 29q9 32 -3.5 39.5t-73.5 7.5h-18l12 47h328l-12 -47h-18q-61 0 -77.5 -7.5t-25.5 -39.5q-25 -98 -73 -278t-60 -227l-7 -29q-9 -32 3.5 -39.5t73.5 -7.5h18l-12 -47h-1137z" />
<glyph unicode="&#x429;" horiz-adv-x="1260" d="M-38 0l12 47h18q61 0 78 8t25 39q25 98 73 278t60 227l8 29q8 32 -4.5 39.5t-73.5 7.5h-18l12 47h329l-12 -47h-19q-61 0 -77.5 -7.5t-24.5 -39.5q-30 -111 -84 -315.5t-68 -258.5h293q14 51 68 257t84 317q8 32 -4.5 39.5t-73.5 7.5h-18l12 47h328l-12 -47h-18 q-43 0 -61 -3.5t-26.5 -12.5t-14.5 -31q-30 -111 -84 -315.5t-68 -258.5h292q14 51 68 257t84 317q8 32 -4.5 39.5t-73.5 7.5h-18l12 47h328l-12 -47h-18q-33 0 -49 -1t-28 -6.5t-16.5 -14t-8.5 -25.5q-26 -97 -74 -277.5t-60 -227.5l-7 -29q-8 -29 4 -37.5t45 -9.5h59 l-53 -237h-44q3 31 8.5 64t10 49t4.5 33t-3.5 23.5t-17.5 12.5t-34.5 7t-58.5 1h-974z" />
<glyph unicode="&#x42a;" horiz-adv-x="842" d="M40 466l81 256h513l-12 -47h-26q-61 0 -77.5 -7.5t-25.5 -39.5q-11 -45 -32.5 -127t-26.5 -100h113q122 0 170 -26q46 -25 63 -71.5t1 -105.5q-26 -97 -109 -147.5t-214 -50.5h-350l12 47h18q61 0 77.5 7.5t25.5 39.5q25 98 73 278t60 227l7 29q9 32 -3.5 39.5t-73.5 7.5 h-16q-46 0 -84 -21.5t-59.5 -52.5t-36 -61.5t-19.5 -51.5l-5 -22h-44zM354 98q-10 -34 -2 -42.5t49 -8.5h64q52 0 90.5 16.5t64 51t39.5 87.5q20 77 -8.5 114.5t-108.5 37.5h-121z" />
<glyph unicode="&#x42b;" horiz-adv-x="1157" d="M-38 0l13 47h18q61 0 77.5 7.5t24.5 39.5q26 97 74 277.5t60 227.5l7 29q8 32 -4.5 39.5t-72.5 7.5h-18l12 47h336l-12 -47h-26q-61 0 -78 -8t-25 -39q-11 -45 -33 -127t-27 -100h113q122 0 170 -26q47 -26 64 -72t1 -105q-26 -97 -109.5 -147.5t-214.5 -50.5h-350z M208 98q-9 -34 -1 -42.5t49 -8.5h64q78 0 125.5 38t68.5 117q10 39 8 67.5t-16.5 47t-41.5 28t-67 9.5h-121zM669 2l12 47h20q61 0 78 8t25 39q25 98 73 278t60 227l8 29q8 32 -4.5 39.5t-73.5 7.5h-20l13 47h331l-13 -47h-20q-60 0 -76.5 -7.5t-24.5 -39.5 q-26 -97 -74 -277.5t-60 -227.5l-7 -29q-4 -14 -4 -21.5t2.5 -13t13 -8t24.5 -3.5t40 -1h20l-12 -47h-331z" />
<glyph unicode="&#x42c;" horiz-adv-x="696" d="M-38 0l12 47h18q61 0 77.5 7.5t25.5 39.5q25 98 73 278t60 227l7 29q9 32 -3.5 39.5t-73.5 7.5h-18l12 47h336l-12 -47h-26q-61 0 -77.5 -7.5t-25.5 -39.5q-8 -34 -18 -72.5t-22 -82.5t-19 -72h113q122 0 170 -26q46 -25 63 -71.5t1 -105.5q-26 -97 -109 -147.5 t-214 -50.5h-350zM208 98q-10 -34 -2 -42.5t49 -8.5h64q78 0 125.5 38t68.5 117q20 77 -8.5 114.5t-108.5 37.5h-121z" />
</font>
</defs>
</svg>
