<?xml version="1.0" standalone="no"?>
<!DOCTYPE svg PUBLIC "-//W3C//DTD SVG 1.1//EN" "http://www.w3.org/Graphics/SVG/1.1/DTD/svg11.dtd" >
<svg xmlns="http://www.w3.org/2000/svg">
<metadata></metadata>
<defs>
<font id="texgyrescholaregular" horiz-adv-x="333" >
<font-face units-per-em="1000" ascent="798" descent="-202" />
<missing-glyph horiz-adv-x="278" />
<glyph unicode="IJ" horiz-adv-x="988" d="M40 0v47h20q61 0 75.5 7.5t14.5 39.5v534q0 32 -14.5 39.5t-75.5 7.5h-20v47h331v-47h-20q-60 0 -74.5 -7.5t-14.5 -39.5v-534q0 -32 14.5 -39.5t74.5 -7.5h20v-47h-331zM416 155q0 53 28 87.5t72 34.5q33 0 54 -20t21 -52q0 -31 -18 -51.5t-45 -20.5q-16 0 -37 5h-3 q-12 0 -12 -16q0 -35 36 -62.5t85 -27.5q89 0 118 87q13 39 13 158v351q0 32 -14.5 39.5t-74.5 7.5h-19v47h328v-47h-19q-61 0 -75.5 -7.5t-14.5 -39.5v-360q0 -159 -53 -221t-171 -62q-94 0 -146.5 47.5t-52.5 122.5z" />
<glyph unicode="ij" horiz-adv-x="584" d="M40 412v43l188 11v-383q0 -31 11.5 -39t59.5 -8h12v-36h-259v36h12q47 0 58.5 8t11.5 39v279q0 32 -7.5 41t-35.5 9h-51zM131 610q0 20 15 35t35 15t35 -15t15 -35q0 -21 -15 -35.5t-36 -14.5q-20 0 -34.5 15t-14.5 35zM255 -120q0 26 16 43t40 17q21 0 36.5 -14 t15.5 -33q0 -9 -7 -24q-5 -12 -5 -16q0 -13 25 -13q16 0 32 10t23 25q19 39 19 148v339q0 32 -7.5 41t-35.5 9h-58v43l195 11v-395q0 -85 -9 -130t-32 -78q-47 -65 -136 -65q-50 0 -81 22.5t-31 59.5zM447 610q0 20 15 35t35 15t35 -15t15 -35q0 -21 -15 -35.5t-36 -14.5 q-20 0 -34.5 15t-14.5 35z" />
<glyph unicode="fk" horiz-adv-x="886" d="M19 423v43h88v31q0 123 51.5 181.5t143.5 58.5h206v-495l135 130q23 23 23 39q0 19 -47 19h-31v36h263v-36q-51 -6 -88.5 -25t-80.5 -62l-45 -44l142 -194q31 -39 53 -52t64 -17v-36h-264v36h19q44 0 44 17q0 6 -7 18l-119 167l-61 -58v-97q0 -32 9.5 -39.5t56.5 -7.5h14 v-36h-253v36h14q46 0 55.5 7.5t9.5 39.5v513q-16 -14 -37 -14q-23 0 -39 15.5t-16 37.5q0 8 4 18.5t7.5 18t3.5 8.5q0 17 -34 17q-51 0 -76.5 -41t-25.5 -133v-57h110v-43h-110v-340q0 -30 13.5 -38.5t62.5 -8.5h18v-36h-267v36h14q46 0 55.5 7.5t9.5 39.5v340h-88z" />
<glyph unicode="ff" horiz-adv-x="626" d="M19 423v43h88v31q0 123 51.5 181.5t143.5 58.5q61 0 96 -25t35 -69q0 -27 -15.5 -44t-40.5 -17q-23 0 -39 15.5t-16 37.5q0 8 4 18.5t7.5 18t3.5 8.5q0 17 -34 17q-51 0 -76.5 -41t-25.5 -133v-57h215v31q0 123 51.5 181.5t143.5 58.5q61 0 96 -25t35 -69 q0 -27 -15.5 -44t-40.5 -17q-23 0 -39 15.5t-16 37.5q0 8 3.5 18.5t7.5 18t4 8.5q0 17 -34 17q-51 0 -76.5 -41t-25.5 -133v-57h110v-43h-110v-340q0 -30 13.5 -38.5t62.5 -8.5h18v-36h-267v36h14q46 0 55.5 7.5t9.5 39.5v340h-215v-340q0 -30 13.5 -38.5t62.5 -8.5h18v-36 h-267v36h14q46 0 55.5 7.5t9.5 39.5v340h-88z" />
<glyph unicode="fi" horiz-adv-x="611" d="M16 423v43h95v9q0 131 67 196t180 65q68 0 108 -26.5t40 -70.5q0 -27 -17.5 -43.5t-45.5 -16.5q-26 0 -44 15t-18 37q0 9 4.5 20.5t8.5 19.5t4 9q0 16 -47 16q-146 0 -146 -209v-21h151q52 0 153 7v-391q0 -31 9.5 -38.5t55.5 -7.5h14v-36h-253v36h14q47 0 56.5 7.5 t9.5 39.5v271q0 49 -6.5 59t-36.5 10h-167v-341q0 -31 9.5 -38.5t55.5 -7.5h14v-36h-253v36h14q47 0 56.5 7.5t9.5 39.5v340h-95z" />
<glyph unicode="fl" horiz-adv-x="611" d="M16 423v43h88v31q0 120 62 180t199 60h142v-654q0 -32 9.5 -39.5t56.5 -7.5h17v-36h-259v36h17q46 0 55.5 7.5t9.5 39.5v501q-13 -4 -22 -4q-20 0 -33.5 13.5t-13.5 35.5q0 7 8.5 22.5t8.5 26.5q0 19 -40 19q-62 0 -92.5 -41t-30.5 -133v-57h110v-43h-110v-340 q0 -30 13.5 -38.5t62.5 -8.5h18v-36h-267v36h14q46 0 55.5 7.5t9.5 39.5v340h-88z" />
<glyph unicode="ffi" horiz-adv-x="904" d="M19 423v43h88v31q0 123 51.5 181.5t143.5 58.5q61 0 96 -25t35 -69q0 -27 -15.5 -44t-40.5 -17q-23 0 -39 15.5t-16 37.5q0 8 4 18.5t7.5 18t3.5 8.5q0 17 -34 17q-51 0 -76.5 -41t-25.5 -133v-57h219v9q0 131 67 196t180 65q68 0 108 -26.5t40 -70.5q0 -27 -17.5 -43.5 t-45.5 -16.5q-26 0 -44 15t-18 37q0 9 4 20.5t8.5 19.5t4.5 9q0 16 -47 16q-146 0 -146 -209v-21h151q52 0 153 7v-391q0 -31 9.5 -38.5t55.5 -7.5h14v-36h-253v36h14q47 0 56.5 7.5t9.5 39.5v271q0 49 -6.5 59t-36.5 10h-167v-341q0 -31 9.5 -38.5t55.5 -7.5h14v-36h-253 v36h14q47 0 56.5 7.5t9.5 39.5v340h-219v-340q0 -30 13.5 -38.5t62.5 -8.5h18v-36h-267v36h14q46 0 55.5 7.5t9.5 39.5v340h-88z" />
<glyph unicode="ffl" horiz-adv-x="904" d="M19 423v43h88v31q0 123 51.5 181.5t143.5 58.5q61 0 96 -25t35 -69q0 -27 -15.5 -44t-40.5 -17q-23 0 -39 15.5t-16 37.5q0 8 4 18.5t7.5 18t3.5 8.5q0 17 -34 17q-51 0 -76.5 -41t-25.5 -133v-57h212v31q0 120 62 180t199 60h142v-654q0 -32 9.5 -39.5t56.5 -7.5h17v-36 h-259v36h17q46 0 55.5 7.5t9.5 39.5v501q-13 -4 -22 -4q-20 0 -33.5 13.5t-13.5 35.5q0 7 8.5 22.5t8.5 26.5q0 19 -40 19q-62 0 -92.5 -41t-30.5 -133v-57h110v-43h-110v-340q0 -30 13.5 -38.5t62.5 -8.5h18v-36h-267v36h14q46 0 55.5 7.5t9.5 39.5v340h-212v-340 q0 -30 13.5 -38.5t62.5 -8.5h18v-36h-267v36h14q46 0 55.5 7.5t9.5 39.5v340h-88z" />
<glyph unicode=" "  horiz-adv-x="278" />
<glyph unicode="&#x09;" horiz-adv-x="278" />
<glyph unicode="&#xa0;" horiz-adv-x="278" />
<glyph unicode="!" horiz-adv-x="296" d="M87 49q0 26 18.5 44t44.5 18t44 -18.5t18 -43.5q0 -26 -18.5 -44.5t-44.5 -18.5t-44 18.5t-18 44.5zM88 642q0 94 62 94q61 0 61 -95q0 -40 -18 -130q-14 -71 -18.5 -130t-5.5 -190h-39q-2 136 -6 193t-18 127q-18 90 -18 131z" />
<glyph unicode="&#x22;" horiz-adv-x="389" d="M61 694q0 18 12.5 30t30.5 12q19 0 31 -12t12 -31q0 -11 -1 -16l-31 -179h-22l-31 179q-1 6 -1 17zM242 693q0 19 12.5 31t30.5 12q19 0 31 -12t12 -31q0 -11 -1 -16l-31 -179h-22l-31 179q-1 6 -1 16z" />
<glyph unicode="#" horiz-adv-x="556" d="M33 228v56h110l19 132h-102v56h110l31 214h65l-31 -214h123l31 214h65l-31 -214h101v-56h-109l-19 -132h101v-56h-109l-33 -228h-65l33 228h-123l-33 -228h-65l33 228h-102zM208 284h123l19 132h-123z" />
<glyph unicode="$" horiz-adv-x="556" d="M45 148q0 37 20 61.5t51 24.5q26 0 43.5 -18t17.5 -44q0 -22 -10 -36t-36 -29q-8 -4 -8 -11q0 -23 37 -41.5t91 -22.5v279q-105 31 -149 75t-44 121q0 78 51 128t142 61v105h47v-104q82 -6 132 -46.5t50 -100.5q0 -33 -16.5 -51.5t-45.5 -18.5q-27 0 -43.5 16t-16.5 42 q0 17 7 28t29 27q6 6 6 10q0 16 -30.5 30.5t-71.5 18.5v-247q126 -42 169 -81t43 -122q0 -94 -56.5 -150.5t-155.5 -61.5v-120h-47v119q-95 5 -150.5 47.5t-55.5 111.5zM130 539q0 -43 27.5 -70t93.5 -49v230q-53 -4 -87 -35.5t-34 -75.5zM298 33q62 7 100 43.5t38 89.5 q0 50 -34 81.5t-104 50.5v-265z" />
<glyph unicode="%" horiz-adv-x="833" d="M45 445q0 91 74 177t159 86q55 0 91 -47q39 -22 73 -22q101 0 162 83h46l-414 -722h-50l360 631q-49 -29 -96 -29q-30 0 -63 12q3 -22 3 -32q0 -97 -67 -179t-150 -82q-56 0 -92 35t-36 89zM132 418q0 -26 15.5 -42.5t40.5 -16.5q60 0 112.5 72.5t52.5 155.5q0 22 -6 41 q-37 13 -61 41q-31 -11 -47.5 -27t-44.5 -66q-62 -108 -62 -158zM445 136q0 93 72 179t158 86q51 0 84 -33.5t33 -85.5q0 -89 -65 -178t-152 -89q-56 0 -93 34.5t-37 86.5zM530 111q0 -24 16.5 -40.5t39.5 -16.5q60 0 114 72t54 154q0 34 -18 57.5t-44 23.5q-44 0 -88 -73 q-74 -120 -74 -177z" />
<glyph unicode="&#x26;" horiz-adv-x="815" d="M51 189q0 67 44.5 124t128.5 98q-42 89 -42 149q0 80 48 128.5t127 48.5q70 0 113 -37.5t43 -97.5q0 -65 -40.5 -107.5t-132.5 -83.5q88 -162 161 -248q70 81 70 151q0 47 -80 47h-20v43h282v-43h-21q-42 -1 -68 -27l-5 -5t-5 -5.5t-4.5 -5.5t-4.5 -7.5t-5 -9t-7 -12.5 t-9 -16t-11.5 -21.5t-14.5 -26.5q-25 -45 -66 -96q57 -61 110 -61q33 0 56.5 27t32.5 74l44 -6q-11 -84 -58.5 -129t-116.5 -45q-41 0 -73.5 15t-68.5 52q-92 -71 -192 -71q-98 0 -156.5 60t-58.5 144zM158 243q0 -75 51 -132.5t117 -57.5q43 0 101 37q-63 74 -98.5 128 t-85.5 152q-45 -26 -65 -56t-20 -71zM276 595q0 -53 43 -142q60 30 87 63t27 84q0 41 -22 67.5t-57 26.5q-34 0 -56 -28t-22 -71z" />
<glyph unicode="'" horiz-adv-x="204" d="M59 694q0 18 12.5 30t30.5 12q19 0 31 -12t12 -31q0 -11 -1 -16l-31 -179h-22l-31 179q-1 6 -1 17z" />
<glyph unicode="(" d="M36 307q0 278 243 429v-37q-75 -66 -107.5 -157t-32.5 -235t32.5 -235.5t107.5 -157.5v-37q-243 150 -243 430z" />
<glyph unicode=")" d="M54 -86q75 66 107.5 157t32.5 236q0 144 -32.5 235t-107.5 157v37q122 -74 182.5 -184.5t60.5 -244.5q0 -281 -243 -430v37z" />
<glyph unicode="*" horiz-adv-x="500" d="M56 428q0 42 52 48q54 6 89 25l31 17l-31 18q-32 19 -89 25q-52 5 -52 48q0 16 12.5 27.5t29.5 11.5q24 0 44 -28t33.5 -41t32.5 -24l31 -18v36q0 24 -3.5 38t-19.5 51q-8 19 -8 30q0 17 12.5 30.5t28.5 13.5t29 -13.5t13 -30.5q0 -12 -17 -52q-14 -31 -14 -67v-36l31 18 q33 19 66 65q20 28 44 28q17 0 29.5 -11.5t12.5 -27.5q0 -42 -52 -48q-56 -6 -89 -25l-31 -18l31 -18q19 -11 34.5 -15t54.5 -9q52 -6 52 -48q0 -16 -12.5 -27.5t-29.5 -11.5q-24 0 -44 28q-33 46 -66 65l-31 18v-36q0 -24 4 -38.5t19 -51.5q8 -19 8 -31q0 -16 -13 -29.5 t-29 -13.5t-29 14t-13 30q0 11 8 30q16 36 20 51t4 39v36l-31 -18q-34 -20 -66 -66q-20 -27 -44 -27q-17 0 -29.5 11.5t-12.5 27.5z" />
<glyph unicode="+" horiz-adv-x="606" d="M40 210v80h223v223h80v-223h223v-80h-223v-223h-80v223h-223z" />
<glyph unicode="," horiz-adv-x="278" d="M64 -155q101 71 101 136q0 9 -7 9h-3q-2 -1 -16 -1q-31 0 -49.5 16t-18.5 43q0 26 18.5 43t46.5 17q37 0 59.5 -27t22.5 -72q0 -102 -131 -192z" />
<glyph unicode="-" d="M42 195v83h249v-83h-249z" />
<glyph unicode="." horiz-adv-x="278" d="M74 49q0 26 18.5 44t44.5 18q25 0 43.5 -18.5t18.5 -43.5q0 -26 -18.5 -44.5t-44.5 -18.5t-44 18.5t-18 44.5z" />
<glyph unicode="/" horiz-adv-x="278" d="M-23 -14l267 750h58l-267 -750h-58z" />
<glyph unicode="0" horiz-adv-x="556" d="M42 342q0 157 68.5 259.5t173.5 102.5q103 0 166.5 -104.5t63.5 -260.5t-66.5 -255t-171.5 -99q-101 0 -167.5 101.5t-66.5 255.5zM153 363q0 -123 7.5 -180.5t28.5 -92.5q37 -62 89 -62q60 0 97 79q27 59 27 250q0 102 -8 154.5t-28 87.5q-37 62 -89 62q-61 0 -97 -80 q-27 -58 -27 -218z" />
<glyph unicode="1" horiz-adv-x="556" d="M100 0v47h65q60 0 74.5 7.5t14.5 39.5v430q0 44 -9 53.5t-53 9.5h-88v43q68 0 130 21.5t88 52.5h36q-7 -99 -7 -168v-413q0 -41 1 -49t6 -13q11 -14 83 -14h55v-47h-396z" />
<glyph unicode="2" horiz-adv-x="556" d="M35 0v28q57 75 98 123l137 146q62 66 90 120t28 109q0 63 -35 99t-97 36q-55 0 -96.5 -32t-41.5 -71q0 -10 5.5 -14t33.5 -16q36 -15 36 -57q0 -27 -17 -44t-45 -17q-36 0 -58 29.5t-22 76.5q0 80 65 134t160 54q98 0 161.5 -55t63.5 -140q0 -73 -48 -137 q-27 -37 -153 -135q-48 -38 -76 -63.5t-80 -79.5h224q46 0 59.5 11.5t23.5 59.5l10 51h44l-19 -216h-451z" />
<glyph unicode="3" horiz-adv-x="556" d="M42 149q0 39 20 63.5t51 24.5q28 0 46 -18t18 -45q0 -37 -39 -59q-16 -9 -19 -12t-3 -10q0 -23 42 -44t89 -21q67 0 103.5 42.5t36.5 119.5q0 74 -29 113t-85 39q-2 0 -8 -0.5t-21.5 -1t-41.5 -0.5q-31 0 -31 25q0 27 32 27q9 0 32 -1.5t30 -1.5q110 0 110 142 q0 130 -110 130q-42 0 -78.5 -18.5t-36.5 -39.5q0 -9 13 -18q31 -22 31 -51q0 -27 -16.5 -43.5t-42.5 -16.5q-29 0 -47.5 19.5t-18.5 50.5q0 68 59 114t147 46q93 0 148.5 -47t55.5 -125q0 -116 -133 -164q152 -43 152 -180q0 -92 -65.5 -147.5t-173.5 -55.5 q-96 0 -156.5 45.5t-60.5 118.5z" />
<glyph unicode="4" horiz-adv-x="556" d="M28 175v56l340 473h43q-5 -75 -5 -200v-273h121v-56h-121v-81q0 -33 10.5 -40t69.5 -7h14v-47h-292v47h21q59 0 69.5 7t10.5 40v81h-281zM89 231h220v303z" />
<glyph unicode="5" horiz-adv-x="556" d="M45 149q0 35 21 59.5t51 24.5q27 0 45 -18t18 -44q0 -20 -8.5 -32.5t-31.5 -26.5q-18 -10 -18 -22q0 -23 38.5 -42.5t83.5 -19.5q149 0 149 190q0 85 -38 134t-105 49q-58 0 -108 -36q-6 -61 -45 -61q-14 0 -23 9.5t-9 24.5q0 22 28 51q21 184 27 315q126 -30 206 -30 q72 0 133 26q7 4 13 4q8 0 8 -9q0 -10 -15 -36q-51 -85 -180 -85q-50 0 -121 17l-17 -170q72 30 129 30q101 0 163.5 -62.5t62.5 -164.5q0 -110 -69 -174.5t-187 -64.5q-90 0 -145.5 47.5t-55.5 116.5z" />
<glyph unicode="6" horiz-adv-x="556" d="M42 308q0 105 33 193.5t101 145.5t158 57q71 0 117.5 -34t46.5 -86q0 -31 -18.5 -51.5t-47.5 -20.5q-26 0 -43.5 17t-17.5 42q0 19 15 47q5 9 5 14q0 29 -56 29q-99 0 -145 -112q-16 -38 -22.5 -76t-14.5 -133q67 90 165 90q85 0 141.5 -59t56.5 -147q0 -98 -66 -168.5 t-164 -70.5q-111 0 -177.5 88.5t-66.5 234.5zM160 203q0 -74 37.5 -124.5t90.5 -50.5q55 0 87 51.5t32 137.5q0 71 -31 111.5t-85 40.5q-61 0 -96 -44.5t-35 -121.5z" />
<glyph unicode="7" horiz-adv-x="556" d="M59 462l31 242q156 -10 262 -10q82 0 156 6v-29q-3 -6 -5 -11.5t-3.5 -8.5t-1.5 -4l-45 -94q-73 -162 -97 -241.5t-24 -168.5q0 -6 0.5 -18.5t0.5 -19.5q0 -65 -15 -92t-51 -27q-29 0 -46 20t-17 54q0 62 47 180q16 40 108 227l68 137l-62 -1q-21 0 -91 3.5t-102 3.5 q-22 0 -31 -13.5t-20 -62.5l-18 -79z" />
<glyph unicode="8" horiz-adv-x="556" d="M41 168q0 62 34.5 104t111.5 72q-113 60 -113 169q0 83 60 137t151 54q86 0 142.5 -45t56.5 -114q0 -95 -110 -155q73 -33 106 -78.5t33 -110.5q0 -96 -66 -156t-180 -60q-103 0 -164.5 50.5t-61.5 132.5zM124 168q0 -66 39 -103t109 -37q74 0 117.5 35.5t43.5 95.5 q0 49 -25.5 80.5t-82.5 51.5l-92 33q-58 -27 -83.5 -63.5t-25.5 -92.5zM151 555q0 -44 28 -74t88 -52l66 -24q43 36 60 65.5t17 68.5q0 55 -35 88.5t-93 33.5q-59 0 -95 -29.5t-36 -76.5z" />
<glyph unicode="9" horiz-adv-x="556" d="M39 463q0 101 66.5 171t162.5 70q112 0 178.5 -89.5t66.5 -240.5q0 -106 -33 -193t-101 -141.5t-160 -54.5q-69 0 -115.5 33.5t-46.5 82.5q0 30 20 51t48 21q25 0 42 -17t17 -42q0 -16 -14 -44q-6 -12 -6 -17q0 -11 15.5 -18t40.5 -7q50 0 89.5 31t58.5 86q21 58 36 202 q-41 -51 -77.5 -71t-89.5 -20q-85 0 -141.5 59t-56.5 148zM148 481q0 -79 31 -122t88 -43t92.5 41.5t35.5 117.5q0 84 -33.5 135t-89.5 51q-57 0 -90.5 -48.5t-33.5 -131.5z" />
<glyph unicode=":" horiz-adv-x="278" d="M86 49q0 26 18.5 44t44.5 18q25 0 43.5 -18.5t18.5 -43.5q0 -26 -18.5 -44.5t-44.5 -18.5t-44 18.5t-18 44.5zM86 411q0 26 18.5 44t44.5 18q25 0 43.5 -18.5t18.5 -43.5q0 -26 -18.5 -44.5t-44.5 -18.5t-44 18.5t-18 44.5z" />
<glyph unicode=";" horiz-adv-x="278" d="M72 -155q101 71 101 136q0 9 -7 9h-3q-2 -1 -16 -1q-31 0 -49.5 16t-18.5 43q0 26 18.5 43t46.5 17q37 0 59.5 -27t22.5 -72q0 -102 -131 -192zM87 410q0 26 18.5 44t44.5 18t44 -18t18 -44t-18.5 -44.5t-44.5 -18.5t-44 18.5t-18 44.5z" />
<glyph unicode="&#x3c;" horiz-adv-x="606" d="M63 214v72l463 224v-88l-354 -172l354 -172v-88z" />
<glyph unicode="=" horiz-adv-x="606" d="M40 120v80h526v-80h-526zM40 300v80h526v-80h-526z" />
<glyph unicode="&#x3e;" horiz-adv-x="606" d="M63 -10v88l354 172l-354 172v88l463 -224v-72z" />
<glyph unicode="?" horiz-adv-x="444" d="M25 588q0 64 55 106t140 42q86 0 138.5 -48t52.5 -126q0 -52 -23.5 -89.5t-96.5 -101.5q-48 -42 -61 -74t-13 -106h-44v32q0 62 14 101q2 7 4 12t4 9.5t5.5 10.5t6.5 10.5t10.5 15t13.5 19t19 26.5t24 33q32 45 32 108q0 58 -29.5 90.5t-82.5 32.5q-36 0 -64 -15t-28 -35 q0 -3 22.5 -30t22.5 -45q0 -23 -16.5 -39t-40.5 -16q-28 0 -46.5 22t-18.5 55zM130 48q0 26 18.5 44t44.5 18q25 0 43.5 -18t18.5 -44t-18.5 -44.5t-44.5 -18.5t-44 18.5t-18 44.5z" />
<glyph unicode="@" horiz-adv-x="737" d="M43 356q0 162 100 271t246 109q131 0 223.5 -88.5t92.5 -212.5q0 -106 -71 -197t-157 -91q-31 0 -50 18t-19 47q0 12 1 20q-29 -43 -53.5 -61t-54.5 -18q-52 0 -88.5 42t-36.5 107q0 91 63 166t138 75q59 0 78 -65l16 56h88l-73 -289q-4 -16 -4 -30q0 -10 7.5 -17 t18.5 -7q47 0 96 77.5t49 159.5q0 102 -75.5 179.5t-183.5 77.5q-128 0 -211.5 -91.5t-83.5 -232.5q0 -142 84.5 -233t215.5 -91q153 0 238 151h61q-37 -85 -122 -143.5t-185 -58.5q-148 0 -248 106.5t-100 263.5zM266 271q0 -37 12.5 -57.5t35.5 -20.5q29 0 58 40 t46.5 95.5t17.5 101.5q0 33 -12 52.5t-33 19.5q-33 0 -63 -43t-46 -96t-16 -92z" />
<glyph unicode="A" horiz-adv-x="722" d="M-8 0v47h14q37 0 55 19t45 87l230 583h42l255 -625q18 -43 30 -53.5t49 -10.5h19v-47h-310v47h42q62 0 62 26q0 7 -8 27l-54 134h-265l-33 -88q-9 -24 -9 -42q0 -57 81 -57h20v-47h-265zM218 288h224l-113 284z" />
<glyph unicode="B" horiz-adv-x="722" d="M30 0v47h18q61 0 75.5 7.5t14.5 39.5v534q0 32 -14.5 39.5t-75.5 7.5h-18v47h359q115 0 179 -45t64 -131q0 -63 -41 -107.5t-121 -61.5q102 -18 151 -62.5t49 -118.5q0 -92 -73.5 -144t-203.5 -52h-363zM250 110q0 -41 10 -52t48 -11h42q107 0 152 33t45 119 q0 83 -46.5 117t-162.5 34h-88v-240zM250 397h89q96 0 136.5 31t40.5 105q0 73 -37 107.5t-123 34.5h-40q-39 0 -52.5 -10.5t-13.5 -39.5v-228z" />
<glyph unicode="C" horiz-adv-x="722" d="M45 354q0 157 100.5 270t238.5 113q50 0 87 -14t90 -53l40 59h53v-289h-44q-31 104 -57 149q-29 48 -73.5 74.5t-96.5 26.5q-103 0 -154.5 -87t-51.5 -253q0 -161 53.5 -239.5t164.5 -78.5q184 0 226 223l47 -8q-17 -126 -91 -194t-194 -68q-148 0 -243 104t-95 265z" />
<glyph unicode="D" horiz-adv-x="778" d="M29 0v47h19q60 0 74.5 7.5t14.5 39.5v534q0 32 -14.5 39.5t-74.5 7.5h-19v47h318q163 0 243 -51q69 -45 105.5 -124.5t36.5 -181.5q0 -178 -92 -271.5t-275 -93.5h-336zM249 102q0 -37 9.5 -46t47.5 -9h68q121 0 173.5 73t52.5 241q0 166 -57 240t-185 74h-52 q-37 0 -47 -9.5t-10 -46.5v-517z" />
<glyph unicode="E" horiz-adv-x="722" d="M29 0v47h18q61 0 75.5 7.5t14.5 39.5v534q0 32 -14.5 39.5t-75.5 7.5h-18v47h615v-256h-43q-11 68 -25.5 107t-42 63t-66 31.5t-103.5 7.5h-52q-41 0 -52 -9t-11 -41v-228h24q71 0 103.5 32t36.5 105h47v-328h-47q-2 78 -29.5 111t-114.5 33h-20v-255q0 -30 15.5 -39 t56.5 -9h66q114 0 161 46.5t71 173.5h44l-20 -267h-614z" />
<glyph unicode="F" horiz-adv-x="667" d="M29 0v47h18q61 0 75.5 7.5t14.5 39.5v534q0 32 -14.5 39.5t-75.5 7.5h-18v47h609v-256h-44q-21 128 -66.5 168.5t-169.5 40.5h-46q-41 0 -52 -9t-11 -41v-228h24q71 0 103.5 32t36.5 105h47v-328h-47q-2 79 -29.5 111.5t-114.5 32.5h-20v-256q0 -32 14.5 -39.5t75.5 -7.5 h33v-47h-343z" />
<glyph unicode="G" horiz-adv-x="778" d="M42 348q0 101 43 189.5t124 144t182 55.5q55 0 94 -15t88 -54l39 61h52v-281h-43q-62 242 -234 242q-104 0 -158.5 -87.5t-54.5 -254.5q0 -155 55.5 -235.5t160.5 -80.5q83 0 128.5 49.5t45.5 140.5q0 41 -14 50.5t-77 9.5h-19v47h318v-47h-15q-71 0 -84 -14 q-6 -7 -6 -62v-220h-42l-37 90q-49 -49 -97 -70t-111 -21q-144 0 -241 102t-97 261z" />
<glyph unicode="H" horiz-adv-x="833" d="M29 0v47h18q61 0 75.5 7.5t14.5 39.5v534q0 32 -14.5 39.5t-75.5 7.5h-18v47h329v-47h-19q-61 0 -75.5 -7.5t-14.5 -39.5v-227h335v227q0 32 -14.5 39.5t-75.5 7.5h-14v47h324v-47h-18q-61 0 -75.5 -7.5t-14.5 -39.5v-534q0 -32 14.5 -39.5t75.5 -7.5h18v-47h-328v47h18 q61 0 75.5 7.5t14.5 39.5v253h-335v-253q0 -32 14.5 -39.5t75.5 -7.5h19v-47h-329z" />
<glyph unicode="I" horiz-adv-x="407" d="M38 0v47h20q61 0 75.5 7.5t14.5 39.5v534q0 32 -14.5 39.5t-75.5 7.5h-20v47h331v-47h-20q-60 0 -74.5 -7.5t-14.5 -39.5v-534q0 -32 14.5 -39.5t74.5 -7.5h20v-47h-331z" />
<glyph unicode="J" horiz-adv-x="556" d="M5 155q0 53 28 87.5t72 34.5q33 0 54 -20t21 -52q0 -31 -18 -51.5t-45 -20.5q-16 0 -37 5h-3q-12 0 -12 -16q0 -35 36 -62.5t85 -27.5q89 0 118 87q13 39 13 158v351q0 32 -14.5 39.5t-74.5 7.5h-19v47h328v-47h-19q-61 0 -75.5 -7.5t-14.5 -39.5v-360q0 -159 -53 -221 t-171 -62q-94 0 -146.5 47.5t-52.5 122.5z" />
<glyph unicode="K" horiz-adv-x="778" d="M30 0v47h18q61 0 75.5 7.5t14.5 39.5v534q0 32 -14.5 39.5t-75.5 7.5h-18v47h329v-47h-19q-61 0 -75.5 -7.5t-14.5 -39.5v-301l245 246q49 49 49 72q0 30 -65 30h-25v47h308v-47q-94 0 -169 -80l-149 -149l242 -349q22 -33 39 -41.5t59 -8.5h19v-47h-342v47h31 q68 0 68 23q0 12 -20 42l-174 255l-116 -117v-156q0 -32 14.5 -39.5t75.5 -7.5h19v-47h-329z" />
<glyph unicode="L" horiz-adv-x="667" d="M35 0v47h18q61 0 75.5 7.5t14.5 39.5v534q0 32 -14.5 39.5t-75.5 7.5h-18v47h328v-47h-18q-61 0 -75.5 -7.5t-14.5 -39.5v-533q0 -30 15.5 -39t56.5 -9h42q119 0 167 51.5t66 175.5h44l-21 -274h-590z" />
<glyph unicode="M" horiz-adv-x="944" d="M22 0v47q72 3 94 35t22 134v412q0 32 -14.5 39.5t-75.5 7.5h-19v47h258l192 -533l183 533h251v-47h-18q-61 0 -75.5 -7.5t-14.5 -39.5v-534q0 -32 14.5 -39.5t75.5 -7.5h18v-47h-328v47h18q61 0 75.5 7.5t14.5 39.5v564l-223 -658h-40l-238 658v-442q0 -102 22 -134 t93 -35v-47h-285z" />
<glyph unicode="N" horiz-adv-x="815" d="M19 675v47h206l399 -531v314q0 103 -22 135t-93 35v47h285v-47q-72 -3 -94 -35t-22 -135v-519h-42l-446 602v-371q0 -103 22 -135t93 -35v-47h-285v47q72 3 94 35t22 135v425q-13 19 -33.5 26t-58.5 7h-25z" />
<glyph unicode="O" horiz-adv-x="778" d="M45 360q0 157 97.5 267t250.5 110q144 0 242 -108.5t98 -267.5q0 -161 -98.5 -268.5t-245.5 -107.5q-146 0 -245 107.5t-99 267.5zM177 363q0 -170 53 -250.5t159 -80.5q212 0 212 329t-209 329q-108 0 -161.5 -79.5t-53.5 -247.5z" />
<glyph unicode="P" horiz-adv-x="667" d="M28 0v47h18q61 0 75.5 7.5t14.5 39.5v534q0 32 -14.5 39.5t-75.5 7.5h-18v47h350q135 0 203 -51.5t68 -146.5q0 -59 -29 -105.5t-82 -71.5q-55 -26 -177 -26h-113v-227q0 -32 14.5 -39.5t75.5 -7.5h26v-47h-336zM248 368h121q157 0 157 152q0 79 -37.5 117t-115.5 38h-64 q-41 0 -51 -8.5t-10 -42.5v-256z" />
<glyph unicode="Q" horiz-adv-x="778" d="M45 360q0 151 99 264t244 113t245.5 -107t100.5 -261q0 -195 -158 -326q26 -82 45.5 -116.5t41.5 -34.5q19 0 27.5 20t12.5 68h45q0 -79 -34 -124t-94 -45q-62 0 -97.5 49.5t-38.5 139.5q-45 -15 -89 -15q-146 0 -248 109t-102 266zM177 360q0 -171 59 -249q-1 8 -1 18 q0 60 40.5 98t103.5 38t107.5 -38t63.5 -108q29 47 40.5 101.5t11.5 142.5q0 162 -51 244.5t-161 82.5q-112 0 -162.5 -89.5t-50.5 -240.5zM281 119q0 -41 27.5 -64t77.5 -23q51 0 94 22v10q0 74 -27.5 114t-78.5 40q-41 0 -67 -27.5t-26 -71.5z" />
<glyph unicode="R" horiz-adv-x="722" d="M26 0v47h18q61 0 75.5 7.5t14.5 39.5v534q0 32 -14.5 39.5t-75.5 7.5h-18v47h346q126 0 195 -47t69 -132q0 -149 -213 -179q59 -15 90.5 -50t48.5 -104l16 -63q13 -53 22.5 -69.5t27.5 -16.5q20 0 30 23.5t13 75.5h42q-2 -90 -32 -132.5t-92 -42.5q-59 0 -89.5 37.5 t-38.5 121.5l-5 51q-9 86 -45.5 120.5t-106.5 34.5h-58v-256q0 -32 14.5 -39.5t75.5 -7.5h18v-47h-328zM246 397h110q78 0 117.5 34t39.5 111q0 68 -35 100.5t-109 32.5h-54q-48 0 -58.5 -5t-10.5 -28v-245z" />
<glyph unicode="S" horiz-adv-x="630" d="M51 277h43q21 -107 78 -171q68 -75 174 -75q75 0 121 40q45 41 45 100q0 60 -46 95q-15 12 -30 17t-72 20l-95 24q-110 29 -155.5 74t-45.5 127q0 94 60.5 151.5t158.5 57.5q110 0 182 -69l40 60h37l12 -260h-43q-20 77 -60 134q-61 87 -167 87q-64 0 -103 -32.5 t-39 -85.5q0 -89 131 -123l107 -27q109 -27 146 -63q60 -58 60 -153q0 -101 -65.5 -160.5t-175.5 -59.5q-65 0 -112.5 17t-97.5 58l-45 -68h-39z" />
<glyph unicode="T" horiz-adv-x="667" d="M19 444l15 278h599l15 -278h-43q-12 85 -33 137q-19 45 -54 69.5t-81 24.5q-47 0 -47 -36v-545q0 -32 14.5 -39.5t74.5 -7.5h26v-47h-343v47h26q61 0 75.5 7.5t14.5 39.5v545q0 36 -47 36q-102 0 -142 -111q-17 -50 -27 -120h-43z" />
<glyph unicode="U" horiz-adv-x="815" d="M17 675v47h327v-47h-19q-61 0 -75.5 -7.5t-14.5 -39.5v-364q0 -113 43 -169t149 -56q110 0 156 64.5t46 180.5v221q0 103 -22 135t-93 35v47h285v-47q-72 -3 -94 -35t-22 -135v-227q0 -154 -71.5 -223.5t-211.5 -69.5q-129 0 -203 53t-74 163v427q0 32 -14.5 39.5 t-74.5 7.5h-17z" />
<glyph unicode="V" horiz-adv-x="722" d="M-8 675v47h312v-47h-40q-62 0 -62 -25q0 -11 8 -30l183 -465l155 412q12 33 12 56q0 24 -21.5 38t-59.5 14h-19v47h271v-47h-18q-41 0 -59.5 -18.5t-41.5 -79.5l-230 -592h-40l-253 634q-14 34 -29 45t-48 11h-20z" />
<glyph unicode="W" horiz-adv-x="981" d="M6 675v47h282v-47h-45q-43 0 -43 -20q0 -10 5 -25l144 -448l116 384l-26 78q-6 18 -19 24.5t-44 6.5h-23v47h289v-47h-16q-33 0 -49.5 -3.5t-19.5 -8.5t-3 -15q0 -6 7 -28l138 -438l120 406q6 16 6 35q0 27 -17 39.5t-59 12.5h-18v47h245v-47h-14q-40 0 -56.5 -20 t-34.5 -83l-176 -587h-41l-162 497l-148 -497h-43l-216 651q-9 26 -19 32.5t-41 6.5h-19z" />
<glyph unicode="X" horiz-adv-x="704" d="M-6 675v47h309v-47h-38q-48 0 -48 -13q0 -9 11 -25l133 -192l108 157q14 20 14 34q0 21 -12 30t-47 9h-24v47h275v-47h-16q-40 0 -68 -19t-69 -75l-133 -181l210 -301q26 -37 40.5 -44.5t62.5 -7.5h14v-47h-328v47h28q46 0 56.5 3t10.5 15q0 11 -13 31l-149 211 l-116 -168q-16 -24 -16 -44q0 -22 17.5 -35t47.5 -13h25v-47h-284v47h14q37 -1 63 17.5t58 62.5l162 225l-197 285q-17 25 -32 31.5t-52 6.5h-17z" />
<glyph unicode="Y" horiz-adv-x="704" d="M-13 675v47h321v-47h-59q-39 0 -39 -19q0 -12 11 -28l168 -271l124 221q17 31 17 52q0 24 -18.5 34.5t-59.5 10.5h-23v47h284v-47h-16q-44 0 -69 -21t-61 -86l-149 -269v-205q0 -32 14 -39.5t75 -7.5h26v-47h-343v47h26q61 0 75.5 7.5t14.5 39.5v193l-216 342 q-17 28 -33 37t-48 9h-22z" />
<glyph unicode="Z" horiz-adv-x="611" d="M24 0v36l409 639h-130q-101 0 -141 -40.5t-64 -165.5h-45l20 253h496v-36l-411 -639h166q105 0 144 52q41 50 60 179h47l-18 -278h-533z" />
<glyph unicode="[" d="M66 -108v830h231v-37h-141v-757h141v-36h-231z" />
<glyph unicode="\" horiz-adv-x="606" d="M74 737h58l400 -737h-58z" />
<glyph unicode="]" d="M36 -71h140v757h-140v36h230v-830h-230v37z" />
<glyph unicode="^" horiz-adv-x="606" d="M52 318l209 404h85l208 -404h-87l-163 311l-165 -311h-87z" />
<glyph unicode="_" horiz-adv-x="500" d="M0 -73h500v-61h-500v61z" />
<glyph unicode="`" d="M17 660q0 14 10.5 24.5t24.5 10.5q19 0 50 -31l140 -140h-41l-159 97q-25 15 -25 39z" />
<glyph unicode="a" horiz-adv-x="556" d="M44 102q0 74 70 115.5t244 71.5v39q0 62 -27 86t-81 24q-36 0 -62.5 -11.5t-26.5 -27.5q0 -1 11 -22t11 -32q0 -22 -15.5 -36.5t-38.5 -14.5q-26 0 -42 17t-16 45q0 54 55.5 89.5t139.5 35.5q94 0 140 -34t46 -125v-201q0 -38 8.5 -53.5t29.5 -15.5q2 0 18.5 5.5 t24.5 5.5q10 0 10 -12q0 -22 -29 -40t-63 -18q-35 0 -55.5 16.5t-32.5 54.5q-67 -79 -174 -79q-66 0 -105.5 32t-39.5 85zM145 116q0 -34 22.5 -56t56.5 -22q32 0 63.5 17t50.5 45q13 20 16.5 37.5t3.5 62.5v46q-127 -21 -170 -48.5t-43 -81.5z" />
<glyph unicode="b" horiz-adv-x="556" d="M8 683v43l172 11v-334q28 43 59 60.5t77 17.5q90 0 147 -68.5t57 -176.5t-61.5 -179.5t-153.5 -71.5q-90 0 -150 79l-49 -78h-38q18 82 18 258v389q0 32 -7.5 41t-35.5 9h-35zM175 224q0 -92 33.5 -144t92.5 -52q55 0 84.5 51.5t29.5 146.5q0 98 -30.5 151t-86.5 53 q-60 0 -91.5 -53t-31.5 -153z" />
<glyph unicode="c" horiz-adv-x="444" d="M34 225q0 112 63 184t160 72q67 0 111.5 -34.5t44.5 -84.5q0 -30 -17.5 -49t-43.5 -19t-43 15.5t-17 40.5q0 22 20 46q6 9 6 12q0 12 -17 21t-39 9q-55 0 -89 -55.5t-34 -146.5q0 -88 35 -139t95 -51q39 0 66.5 23.5t51.5 77.5l39 -15q-32 -80 -74 -113.5t-109 -33.5 q-93 0 -151 66.5t-58 173.5z" />
<glyph unicode="d" horiz-adv-x="574" d="M43 228q0 108 57 180.5t142 72.5q84 0 138 -74v226q0 32 -8 41t-35 9h-59v43l196 11v-621q0 -47 11 -60t51 -13h18v-43l-174 -7v79q-46 -87 -138 -87q-87 0 -143 68.5t-56 174.5zM148 216q0 -83 30 -130t83 -47q54 0 86 52.5t32 139.5q0 73 -19 120q-13 34 -40 55t-58 21 t-56.5 -20t-38.5 -53q-19 -50 -19 -138z" />
<glyph unicode="e" horiz-adv-x="500" d="M35 220q0 112 64 186.5t160 74.5q92 0 149 -71.5t57 -184.5h-324q0 -92 37.5 -139t101.5 -47q50 0 84.5 24.5t65.5 82.5l35 -19q-61 -142 -204 -142q-101 0 -163.5 65t-62.5 170zM142 268h175q24 0 32.5 7.5t8.5 29.5q0 60 -27.5 96.5t-73.5 36.5q-48 0 -81.5 -46.5 t-33.5 -123.5z" />
<glyph unicode="f" d="M19 423v43h88v31q0 123 51.5 181.5t143.5 58.5q61 0 96 -25t35 -69q0 -27 -15.5 -44t-40.5 -17q-23 0 -39 15.5t-16 37.5q0 8 4 18.5t7.5 18t3.5 8.5q0 17 -34 17q-51 0 -76.5 -41t-25.5 -133v-57h110v-43h-110v-340q0 -30 13.5 -38.5t62.5 -8.5h18v-36h-267v36h14 q46 0 55.5 7.5t9.5 39.5v340h-88z" />
<glyph unicode="g" horiz-adv-x="537" d="M23 -100q0 62 92 95q-67 23 -67 86q0 41 22.5 65t72.5 35q-39 18 -61.5 54t-22.5 80q0 75 54 120.5t143 45.5q67 0 124 -38q35 32 53.5 42t42.5 10q29 0 47.5 -16t18.5 -42q0 -20 -13 -34t-32 -14t-30 12.5t-16 25.5t-9 13q-11 0 -34 -24q37 -44 37 -98q0 -103 -94 -145 q-25 -11 -48.5 -14.5t-94.5 -4.5q-50 -1 -72 -11.5t-22 -33.5q0 -19 12 -26q18 -9 70 -9h102q91 0 127 -14q28 -11 44 -39.5t16 -65.5q0 -158 -251 -158q-101 0 -156 27t-55 76zM106 -92q0 -34 34.5 -52t97.5 -18q84 0 130.5 23.5t46.5 66.5q0 24 -17.5 39.5t-47.5 18.5 q-15 2 -104 2h-74q-36 -19 -51 -37t-15 -43zM150 314q0 -56 27 -89t74 -33q48 0 75 33t27 92q0 58 -25.5 89.5t-72.5 31.5q-50 0 -77.5 -32.5t-27.5 -91.5z" />
<glyph unicode="h" horiz-adv-x="611" d="M15 683v43l185 11v-353q65 97 158 97q45 0 80.5 -20.5t54.5 -56.5q13 -25 17 -47.5t4 -76.5v-197q0 -32 9.5 -39.5t55.5 -7.5h14v-36h-253v36h14q47 0 56.5 7.5t9.5 39.5v201q0 69 -22 101q-11 15 -31.5 25t-39.5 10q-32 0 -62.5 -21t-46.5 -55q-18 -38 -18 -118v-143 q0 -32 9.5 -39.5t56.5 -7.5h14v-36h-253v36h14q46 0 55.5 7.5t9.5 39.5v550q0 32 -7.5 41t-35.5 9h-48z" />
<glyph unicode="i" horiz-adv-x="315" d="M18 412v43l188 11v-383q0 -31 11.5 -39t59.5 -8h12v-36h-259v36h12q47 0 58.5 8t11.5 39v279q0 32 -7.5 41t-35.5 9h-51zM109 610q0 20 15 35t35 15t35 -15t15 -35q0 -21 -15 -35.5t-36 -14.5q-20 0 -34.5 15t-14.5 35z" />
<glyph unicode="j" horiz-adv-x="296" d="M-82 -120q0 26 16 43t40 17q21 0 36.5 -14t15.5 -33q0 -9 -7 -24q-5 -13 -5 -16q0 -13 25 -13q16 0 32 10t23 25q19 39 19 148v339q0 32 -7.5 41t-35.5 9h-58v43l195 11v-395q0 -85 -9 -130t-32 -78q-47 -65 -136 -65q-50 0 -81 22.5t-31 59.5zM110 610q0 20 15 35t35 15 t35 -15t15 -35q0 -21 -15 -35.5t-36 -14.5q-20 0 -34.5 15t-14.5 35z" />
<glyph unicode="k" horiz-adv-x="593" d="M14 683v43l185 11v-495l135 130q23 23 23 39q0 19 -47 19h-31v36h263v-36q-51 -6 -88.5 -25t-80.5 -62l-45 -44l142 -194q31 -39 53 -52t64 -17v-36h-264v36h19q44 0 44 17q0 6 -7 18l-119 167l-61 -58v-97q0 -32 9.5 -39.5t56.5 -7.5h14v-36h-253v36h14q46 0 55.5 7.5 t9.5 39.5v550q0 32 -7.5 41t-35.5 9h-48z" />
<glyph unicode="l" horiz-adv-x="315" d="M19 683v43l185 11v-654q0 -32 9.5 -39.5t56.5 -7.5h17v-36h-259v36h17q46 0 55.5 7.5t9.5 39.5v550q0 32 -7.5 41t-34.5 9h-49z" />
<glyph unicode="m" horiz-adv-x="889" d="M23 412v43l178 11v-77q57 92 144 92q50 0 87.5 -27.5t50.5 -72.5q62 100 156 100q73 0 118 -57q20 -26 26 -48.5t6 -68.5v-223q0 -32 9.5 -40t55.5 -8h14v-36h-253v36h14q47 0 56.5 7.5t9.5 39.5v204q0 54 -12 83q-21 50 -73 50q-53 0 -84 -44.5t-31 -119.5v-173 q0 -32 9.5 -39.5t55.5 -7.5h14v-36h-253v36h14q47 0 56.5 7.5t9.5 39.5v215q0 62 -20 89q-9 14 -28 23.5t-38 9.5q-49 0 -81.5 -44t-32.5 -111v-181q0 -32 9.5 -40t55.5 -8h14v-36h-252v36h14q46 0 55.5 8t9.5 40v278q0 32 -7.5 41t-35.5 9h-41z" />
<glyph unicode="n" horiz-adv-x="611" d="M27 0v36h14q46 0 55.5 7.5t9.5 39.5v279q0 32 -7.5 41t-35.5 9h-36v43l173 11v-81q64 96 158 96q44 0 80 -20.5t55 -56.5q13 -25 17 -47.5t4 -76.5v-197q0 -32 9.5 -39.5t55.5 -7.5h14v-36h-253v36h14q47 0 56.5 7.5t9.5 39.5v202q0 69 -22 100q-11 15 -31.5 25t-39.5 10 q-32 0 -62.5 -21t-46.5 -55q-18 -38 -18 -117v-144q0 -32 9.5 -39.5t56.5 -7.5h14v-36h-253z" />
<glyph unicode="o" horiz-adv-x="500" d="M34 232q0 105 63 177t155 72q89 0 151.5 -72.5t62.5 -175.5t-63 -175.5t-153 -72.5t-153 72t-63 175zM139 232q0 -99 28.5 -151.5t82.5 -52.5t82.5 52.5t28.5 152.5q0 99 -28 152t-81 53q-113 0 -113 -206z" />
<glyph unicode="p" horiz-adv-x="574" d="M28 -166h14q46 0 55.5 7.5t9.5 39.5v481q0 32 -7.5 41t-35.5 9h-36v43l173 11v-71q50 86 138 86q82 0 139 -71t57 -175q0 -107 -57.5 -178.5t-144.5 -71.5q-46 0 -76.5 19t-55.5 62v-185q0 -30 12.5 -38.5t60.5 -8.5h14v-36h-260v36zM200 228q0 -86 32.5 -137.5 t85.5 -51.5t82.5 52.5t29.5 149.5q0 88 -28.5 137t-80.5 49q-57 0 -89 -53t-32 -146z" />
<glyph unicode="q" horiz-adv-x="556" d="M36 222q0 111 61 185t153 74q93 0 152 -83l47 68h37q-14 -66 -16 -85l-1 -72v-428q0 -32 9.5 -39.5t55.5 -7.5h14v-36h-260v36h13q48 0 61 8.5t13 38.5v177q-30 -41 -59.5 -57t-76.5 -16q-88 0 -145.5 67t-57.5 170zM141 228q0 -90 30.5 -139.5t86.5 -49.5q117 0 117 205 q0 80 -21 126q-14 32 -39.5 50t-55.5 18q-118 0 -118 -210z" />
<glyph unicode="r" horiz-adv-x="444" d="M21 412v43l177 11v-124q24 66 63.5 102.5t86.5 36.5q40 0 63.5 -22t23.5 -58q0 -31 -17 -49.5t-44 -18.5q-24 0 -39.5 15.5t-15.5 39.5t18 45q-36 -4 -64 -34t-43.5 -75t-23.5 -93.5t-8 -97.5v-50q0 -30 13.5 -38.5t61.5 -8.5h19v-36h-267v36h14q47 0 56.5 7.5t9.5 39.5 v279q0 32 -7.5 41t-35.5 9h-41z" />
<glyph unicode="s" horiz-adv-x="463" d="M51 -7v189h40q18 -75 61.5 -114.5t106.5 -39.5q44 0 72 22.5t28 57.5q0 30 -23.5 47.5t-83.5 31.5l-53 12q-76 18 -106 45q-35 32 -35 92q0 65 40 105t106 40q71 0 122 -40l29 36h35v-168h-35q-21 60 -49 88q-41 40 -97 40q-41 0 -67 -19.5t-26 -49.5q0 -37 35 -53 q18 -10 73 -22l50 -11q46 -10 66.5 -18t38.5 -24q42 -35 42 -101q0 -70 -44.5 -112t-118.5 -42q-76 0 -137 49l-35 -41h-35z" />
<glyph unicode="t" horiz-adv-x="389" d="M18 423v39q120 9 135 202h41v-198h147v-43h-147v-273q0 -60 12.5 -82t46.5 -22q73 0 78 136h42q1 -10 1 -23q0 -75 -38.5 -124.5t-109.5 -49.5q-88 0 -114 65q-12 28 -12 118v255h-82z" />
<glyph unicode="u" horiz-adv-x="611" d="M21 412v43l175 11v-305q0 -41 2.5 -55.5t12.5 -28.5q20 -31 70 -31q77 0 110 70q21 46 21 123v123q0 32 -7.5 41t-35.5 9h-51v43l188 11v-350q0 -48 11 -60.5t52 -12.5h25v-43l-182 -7v83q-33 -48 -70 -69.5t-86 -21.5q-93 0 -135 64q-19 29 -19 97v216q0 32 -7.5 41 t-35.5 9h-38z" />
<glyph unicode="v" horiz-adv-x="537" d="M8 430v36h236v-36h-14q-31 0 -42.5 -5t-11.5 -18q0 -11 5 -21l114 -265l92 232q7 17 9 42q0 35 -54 35h-14v36h200v-36h-14q-27 0 -44 -20.5t-39 -73.5l-142 -351h-35l-172 402q-12 27 -22.5 35t-37.5 8h-14z" />
<glyph unicode="w" horiz-adv-x="778" d="M15 430v36h220v-36h-18q-41 0 -41 -23q0 -8 4 -22l97 -251l88 233l-9 26q-8 22 -18 29.5t-34 7.5h-17v36h224v-36h-24q-25 0 -33.5 -4.5t-8.5 -18.5q0 -12 4 -21l98 -257l85 228q8 24 8 37q0 36 -49 36h-17v36h189v-36h-13q-25 0 -38 -15t-30 -61l-140 -369h-31l-122 316 l-119 -316h-35l-150 396q-10 30 -20.5 39.5t-31.5 9.5h-18z" />
<glyph unicode="x" horiz-adv-x="537" d="M9 0v36h16q36 0 80 52l115 134l-122 154q-25 32 -40 42t-43 12v36h237v-36h-16q-42 0 -42 -18q0 -10 10 -22l77 -98l63 75q20 25 20 41q0 22 -45 22h-19v36h207v-36h-15q-33 0 -69 -42l-114 -133l126 -170q20 -27 37.5 -38t42.5 -11h14v-36h-252v36h13q28 0 37.5 4 t9.5 14q0 11 -13 30l-76 101l-84 -101q-8 -8 -8 -21q0 -14 9.5 -20.5t39.5 -6.5h15v-36h-211z" />
<glyph unicode="y" horiz-adv-x="537" d="M3 -129q0 27 17 44.5t43 17.5q22 0 36.5 -13t14.5 -32q0 -6 -3.5 -19t-3.5 -16q0 -10 16 -10q24 0 55.5 35.5t59.5 93.5l17 35l-163 369q-14 30 -28 42t-38 12h-13v36h238v-36h-21q-46 0 -46 -25q0 -7 6 -21l110 -257l91 226q10 24 10 40q0 37 -54 37h-16v36h200v-36h-12 q-28 0 -43.5 -17t-34.5 -64l-114 -282q-58 -143 -95 -193q-59 -80 -138 -80q-39 0 -65 22t-26 55z" />
<glyph unicode="z" horiz-adv-x="481" d="M39 0v36l273 387h-87q-61 0 -90.5 -29t-36.5 -97h-40l9 169h361v-36l-273 -387h102q68 0 99.5 31t38.5 105h40l-7 -179h-389z" />
<glyph unicode="{" d="M66 291v32q22 7 28.5 9.5t19 9.5t15 13.5t7.5 21t5.5 32.5t0.5 47v116q0 86 29.5 118t99.5 32h26v-34q-49 -3 -65 -28.5t-16 -97.5v-130q0 -51 -13 -75.5t-54 -49.5q41 -25 54 -49.5t13 -75.5v-130q0 -72 16 -97.5t65 -28.5v-34h-26q-70 0 -99.5 32t-29.5 118v116 q0 76 -11.5 96t-54.5 34q-6 2 -10 3z" />
<glyph unicode="|" horiz-adv-x="606" d="M263 -108v830h80v-830h-80z" />
<glyph unicode="}" d="M36 -74q48 3 64 28.5t16 97.5v130q0 51 13 75.5t54 49.5q-41 25 -54 49.5t-13 75.5v130q0 72 -16 97.5t-64 28.5v34h25q69 0 99 -31.5t30 -118.5v-116q0 -43 2 -64.5t13.5 -36t21.5 -18.5t40 -14v-32q-23 -7 -29 -9.5t-19 -9.5t-15.5 -13.5t-7.5 -21t-5.5 -32.5t-0.5 -47 v-116q0 -87 -30 -118.5t-99 -31.5h-25v34z" />
<glyph unicode="~" horiz-adv-x="606" d="M51 220q28 49 66 78t74 29q32 0 99 -32l46 -22q41 -20 53 -24.5t27 -3.5q43 0 86 65l53 -38q-28 -49 -66 -78t-74 -29q-37 0 -99 31l-46 23q-54 27 -80 28q-43 0 -86 -65z" />
<glyph unicode="&#xa0;" />
<glyph unicode="&#xa1;" horiz-adv-x="296" d="M84 417q0 26 18.5 44.5t44.5 18.5t44 -18.5t18 -44.5t-18.5 -44t-44.5 -18t-44 18.5t-18 43.5zM85 -175q0 40 18 130q14 71 18.5 130t5.5 190h39q2 -136 6 -193t18 -127q18 -90 18 -131q0 -94 -62 -94q-61 0 -61 95z" />
<glyph unicode="&#xa2;" horiz-adv-x="556" d="M71 224q0 113 66 185t170 72q42 0 78 -13l46 117h43l-53 -135q21 -15 35 -40.5t14 -49.5q0 -26 -19.5 -45.5t-45.5 -19.5q-21 0 -39 15l-99 -254q25 -8 45 -8q89 0 128 99l39 -14q-50 -148 -186 -148q-23 0 -52 6l-52 -132h-43l57 145q-62 27 -97 85t-35 135zM175 240 q0 -116 56 -164l136 345q-19 17 -56 17q-64 0 -100 -52.5t-36 -145.5z" />
<glyph unicode="&#xa3;" horiz-adv-x="556" d="M17 65q0 38 26 62t68 24q32 0 85 -23q7 28 7 44q0 59 -33 153h-134v47h120q-25 89 -25 134q0 88 54.5 143t143.5 55q77 0 127 -40.5t50 -101.5q0 -37 -20 -60.5t-52 -23.5q-26 0 -43 16.5t-17 42.5q0 21 10 33t37 26q15 7 15 17q0 18 -29 33t-63 15q-53 0 -83.5 -31.5 t-30.5 -86.5q0 -33 33 -171h169v-47h-160q10 -49 10 -87q0 -78 -27 -132q71 -34 121 -34q49 0 77 20t49 70l35 -15q-17 -79 -60 -120.5t-106 -41.5q-72 0 -153 59q-55 -59 -114 -59q-38 0 -62.5 22.5t-24.5 57.5zM58 68q0 -18 14.5 -30.5t34.5 -12.5q42 0 71 50 q-45 35 -77 35q-17 0 -30 -12.5t-13 -29.5z" />
<glyph unicode="&#xa4;" horiz-adv-x="556" d="M26 144l53 53q-52 70 -52 151q0 83 50 147l-51 50l51 52l51 -51q67 50 147 50q81 0 151 -52l53 53l51 -52l-53 -52q52 -67 52 -151q0 -82 -50 -147l51 -51l-51 -51l-51 51q-65 -50 -147 -50q-83 0 -151 52l-53 -53zM109 345q0 -69 49.5 -119t117.5 -50q72 0 121.5 49 t49.5 120q0 70 -49.5 119.5t-119.5 49.5t-119.5 -49.5t-49.5 -119.5z" />
<glyph unicode="&#xa5;" horiz-adv-x="556" d="M-1 675v47h233v-47h-24q-28 0 -28 -19q0 -12 8 -28l125 -271l91 221q13 32 12 53q0 44 -46 44h-17v47h204v-47h-14q-32 0 -46.5 -19t-43.5 -88l-97 -236h101v-47h-115v-86h115v-47h-115v-29q0 -54 5 -62q8 -14 63 -14h19v-47h-285v47h19q46 0 56.5 8t10.5 40v57h-116v47 h116v86h-116v47h95l-137 297q-14 30 -22.5 38t-30.5 8h-20z" />
<glyph unicode="&#xa6;" horiz-adv-x="606" d="M263 -108v332h80v-332h-80zM263 390v332h80v-332h-80z" />
<glyph unicode="&#xa7;" horiz-adv-x="500" d="M58 315q0 55 36 93t89 38h17q-59 57 -77 85.5t-18 72.5q0 58 41.5 95t105.5 37q58 0 100 -33t42 -77q0 -23 -16 -39t-39 -16q-24 0 -39.5 14t-15.5 35q0 15 17.5 35t17.5 21q0 10 -19.5 18.5t-43.5 8.5q-35 0 -58.5 -20t-23.5 -50q0 -38 68 -95l110 -92q96 -83 96 -164 q0 -59 -37 -99.5t-90 -40.5q-10 0 -18 1q57 -46 80 -80t23 -79q0 -56 -43 -94t-108 -38q-58 0 -100.5 33t-42.5 78q0 23 16 39t39 16q24 0 39.5 -14t15.5 -36q0 -25 -27 -45q-8 -6 -8 -11q0 -10 20 -18.5t43 -8.5q38 0 62.5 19.5t24.5 49.5q0 26 -18 50t-73 69l-78 64 q-60 50 -85 90t-25 88zM124 346q0 -28 14.5 -50.5t56.5 -60.5q73 -67 119 -67q27 0 47.5 21.5t20.5 50.5q0 58 -93 135q-55 44 -93 44q-31 0 -51.5 -21t-20.5 -52z" />
<glyph unicode="&#xa8;" d="M17 610q0 20 15 35t35 15t35 -15t15 -35q0 -21 -15 -35.5t-36 -14.5q-20 0 -34.5 15t-14.5 35zM216 610q0 20 15 35t35 15t35 -15t15 -35q0 -21 -15 -35.5t-36 -14.5q-20 0 -34.5 15t-14.5 35z" />
<glyph unicode="&#xa9;" horiz-adv-x="737" d="M21 334q0 144 102 246.5t246 102.5t246.5 -102.5t102.5 -246.5t-102.5 -246t-246.5 -102t-246 102t-102 246zM65 334q0 -126 89 -215t215 -89t215.5 89t89.5 215t-89.5 215.5t-215.5 89.5t-215 -89.5t-89 -215.5zM188 330q0 82 58.5 141t139.5 59q49 0 100 -33l22 29h34 v-154h-30q-18 56 -32 78q-32 51 -95 51q-111 0 -111 -173q0 -162 118 -162q104 0 126 116l32 -5q-10 -67 -52.5 -103.5t-112.5 -36.5q-86 0 -141.5 54t-55.5 139z" />
<glyph unicode="&#xaa;" horiz-adv-x="334" d="M5 503q0 44 45 69t159 43v24q0 35 -17 50t-54 15q-23 0 -40 -6.5t-17 -16.5q0 -1 7 -14t7 -18q0 -13 -10 -22t-25 -9q-17 0 -27.5 10t-10.5 27q0 32 36 53.5t91 21.5q60 0 90.5 -20t30.5 -75v-121q0 -41 24 -41q1 0 12 3.5t16 3.5q7 0 7 -7q0 -13 -19 -24t-41 -11 q-42 0 -56 42q-45 -47 -114 -47q-43 0 -68.5 19t-25.5 51zM23 329v40h260v-40h-260zM71 511q0 -20 14.5 -33.5t36.5 -13.5q38 0 62.5 23.5t24.5 74.5v28q-80 -13 -109 -29.5t-29 -49.5z" />
<glyph unicode="&#xab;" horiz-adv-x="426" d="M38 243l148 144q16 15 23 15q11 0 11 -12q1 -6 -44 -72l-51 -75q95 -135 95 -147q0 -11 -12 -11q-6 -1 -22 15q-109 106 -128 124q-13 13 -20 19zM205 243l110 106q57 51 62 53q11 0 11 -12q0 -3 -7 -15t-17.5 -27.5t-23 -34t-23 -33.5t-17.5 -26l-8 -11q95 -135 95 -147 q0 -11 -12 -11q-6 -1 -22 15q-109 106 -128 124q-13 13 -20 19z" />
<glyph unicode="&#xac;" horiz-adv-x="606" d="M40 300v80h526v-220h-80v140h-446z" />
<glyph unicode="&#xad;" d="M42 195v83h249v-83h-249z" />
<glyph unicode="&#xae;" horiz-adv-x="737" d="M21 334q0 144 102 246.5t246 102.5t246.5 -102.5t102.5 -246.5t-102.5 -246t-246.5 -102t-246 102t-102 246zM65 334q0 -126 89 -215t215 -89t215.5 89t89.5 215t-89.5 215.5t-215.5 89.5t-215 -89.5t-89 -215.5zM170 149v29h11q30 0 38 4t8 18v276q0 14 -7.5 17.5 t-38.5 3.5h-11v30h198q74 0 114.5 -24.5t40.5 -70.5q0 -75 -113 -93q29 -9 45.5 -27t25.5 -52l9 -32q7 -27 11 -35t12 -8q19 0 22 51h32q-1 -95 -76 -95q-36 0 -55 19.5t-23 65.5l-3 26q-5 42 -24.5 60t-56.5 18h-27v-130q0 -14 7.5 -18t37.5 -4h12v-29h-189zM302 359h57 q83 0 83 72q0 66 -76 66h-31q-23 0 -28 -2t-5 -12v-124z" />
<glyph unicode="&#xaf;" d="M10 583v54h313v-54h-313z" />
<glyph unicode="&#xb0;" horiz-adv-x="400" d="M50 534q0 64 44.5 108t108.5 44q62 0 104.5 -44t42.5 -109q0 -64 -43.5 -108.5t-106.5 -44.5t-106.5 44.5t-43.5 109.5zM106 533q0 -40 28 -68t66 -28q39 0 66 28t27 68t-26.5 68t-64.5 28q-40 0 -68 -28t-28 -68z" />
<glyph unicode="&#xb1;" horiz-adv-x="606" d="M40 0v80h526v-80h-526zM40 290v80h223v223h80v-223h223v-80h-223v-138h-80v138h-223z" />
<glyph unicode="&#xb2;" d="M13 289v22q10 12 22 27q22 27 95 100l32 32q74 73 74 133q0 36 -21 56t-59 20q-33 0 -58.5 -17.5t-25.5 -39.5q0 -3 12 -8.5t24 -16.5t12 -27q0 -17 -12 -28t-31 -11q-24 0 -39 18.5t-15 47.5q0 49 42 82t104 33q63 0 104 -33.5t41 -85.5q0 -43 -25 -75t-102 -88 q-47 -35 -93 -78h136q27 0 34.5 6.5t13.5 32.5l7 33h34l-12 -135h-294z" />
<glyph unicode="&#xb3;" d="M18 381q0 25 13.5 40.5t35.5 15.5q18 0 30.5 -12t12.5 -29q0 -14 -6.5 -22.5t-26.5 -19.5l-5 -6q0 -12 26 -23.5t53 -11.5q41 0 63 24t22 68q0 86 -69 86h-7.5t-15 -0.5t-22.5 -0.5q-22 0 -22 19t24 19q9 0 14 -1l24 -1q67 -3 67 80q0 73 -66 73q-24 0 -46.5 -10 t-22.5 -20q0 -3 13.5 -17t13.5 -24q0 -17 -11.5 -28t-29.5 -11q-20 0 -32.5 12.5t-12.5 32.5q0 42 38.5 70t95.5 28q61 0 97 -28.5t36 -76.5q0 -34 -19 -56t-57 -41q88 -24 88 -107q0 -55 -43 -89t-113 -34q-61 0 -100.5 28.5t-39.5 72.5z" />
<glyph unicode="&#xb4;" d="M91 524l140 140q31 31 50 31q14 0 24.5 -10.5t10.5 -24.5q0 -24 -25 -39l-159 -97h-41z" />
<glyph unicode="&#xb5;" horiz-adv-x="611" d="M21 412v43l175 11v-305q0 -41 2.5 -55.5t12.5 -28.5q20 -31 70 -31q77 0 110 70q21 46 21 123v123q0 32 -7.5 41t-35.5 9h-51v43l188 11v-350q0 -48 11 -60.5t52 -12.5h25v-43l-182 -7v83q-61 -91 -154 -91q-73 0 -117 54q0 -51 12 -92q19 -68 19 -92q0 -33 -13.5 -53.5 t-35.5 -20.5t-36 20.5t-14 51.5q0 26 17 91q12 43 12 76v342q0 32 -7.5 41t-35.5 9h-38z" />
<glyph unicode="&#xb6;" horiz-adv-x="606" d="M49 523q0 94 44.5 146.5t128.5 52.5h335v-36q-44 -2 -54.5 -10t-10.5 -37v-660q0 -49 1 -58t6 -15q8 -11 58 -14v-36h-359v36h4q57 0 69 14q5 6 5.5 15t0.5 58v345h-30q-97 0 -147.5 51t-50.5 148zM185 481q0 -124 80 -124h12v329q-52 0 -72 -27t-20 -96v-82zM342 -107 h85v793h-85v-793z" />
<glyph unicode="&#xb7;" horiz-adv-x="278" d="M77 250q0 26 18.5 44t43.5 18t43.5 -18t18.5 -44t-18.5 -44t-43.5 -18t-43.5 18t-18.5 44z" />
<glyph unicode="&#xb8;" d="M29 -198l14 33q36 -12 61 -12q26 0 41.5 11t15.5 29q0 17 -13 28t-34 11q-14 0 -34 -5l-9 5l44 103h35l-24 -68q21 3 29 3q37 0 59.5 -19t22.5 -49q0 -38 -33.5 -62.5t-86.5 -24.5q-45 0 -88 17z" />
<glyph unicode="&#xb9;" d="M39 289v35h43q43 0 50 7q3 3 3 34v237q0 25 -5 29.5t-31 4.5h-59v33q45 0 84.5 12t56.5 31h28q-5 -57 -5 -102v-245q0 -30 3 -34q7 -7 49 -7h38v-35h-255z" />
<glyph unicode="&#xba;" horiz-adv-x="300" d="M10 581q0 63 40.5 106t101.5 43q59 0 99 -44t40 -108q0 -65 -39.5 -105t-103.5 -40q-61 0 -99.5 41.5t-38.5 106.5zM21 329v40h260v-40h-260zM78 579q0 -120 72 -120q73 0 73 128q0 117 -71 117q-74 0 -74 -125z" />
<glyph unicode="&#xbb;" horiz-adv-x="426" d="M39 96q0 8 16.5 34t78.5 113q-62 89 -78.5 114.5t-16.5 32.5q0 4 4 8t8 4q8 0 22 -15q43 -43 148 -144q-67 -64 -109 -105l-39 -38q-14 -15 -23 -15q-11 0 -11 11zM206 96q0 8 16.5 34t78.5 113q-62 89 -78.5 114.5t-16.5 32.5q0 4 4 8t8 4q8 0 22 -15q43 -43 148 -144 q-67 -64 -109 -105l-39 -38q-14 -15 -23 -15q-4 0 -7.5 3.5t-3.5 7.5z" />
<glyph unicode="&#xbc;" horiz-adv-x="834" d="M39 289v35h43q38 0 45.5 5.5t7.5 35.5v237q0 25 -5 29.5t-31 4.5h-59v33q45 0 84.5 12t56.5 31h28q-5 -57 -5 -102v-245q0 -30 7 -35.5t45 -5.5h38v-35h-255zM155 0l502 708h54l-502 -708h-54zM473 103v37l216 283h32q-3 -50 -3 -122v-158h77v-40h-77v-44q0 -17 7.5 -20 t51.5 -4v-35h-191v35h11q37 0 45 3.5t8 20.5v44h-177zM523 143h127v165z" />
<glyph unicode="&#xbd;" horiz-adv-x="834" d="M39 289v35h43q38 0 45.5 5.5t7.5 35.5v237q0 25 -5 29.5t-31 4.5h-59v33q45 0 84.5 12t56.5 31h28q-5 -57 -5 -102v-245q0 -30 7 -35.5t45 -5.5h38v-35h-255zM149 0l502 708h54l-502 -708h-54zM515 0v22q61 76 112 123q60 55 85.5 93t25.5 76q0 36 -21 56t-59 20 q-33 0 -58.5 -17.5t-25.5 -39.5q0 -1 24 -16t24 -36q0 -17 -12 -28t-31 -11q-24 0 -39 18.5t-15 47.5q0 49 42 82t104 33q63 0 104 -33.5t41 -85.5q0 -43 -25 -75t-102 -88q-46 -33 -93 -78h136q27 0 34.5 6.5t13.5 32.5l7 33h34l-12 -135h-294z" />
<glyph unicode="&#xbe;" horiz-adv-x="834" d="M28 381q0 25 13.5 40.5t35.5 15.5q18 0 30.5 -12t12.5 -29q0 -14 -6.5 -22.5t-26.5 -19.5l-5 -6q0 -12 26 -23.5t53 -11.5q41 0 63 24t22 68q0 86 -69 86h-7.5t-15 -0.5t-22.5 -0.5q-22 0 -22 19t24 19q9 0 14 -1l24 -1q67 -3 67 80q0 73 -66 73q-24 0 -46.5 -10 t-22.5 -20q0 -3 13.5 -17t13.5 -24q0 -17 -11.5 -28t-29.5 -11q-20 0 -32.5 12.5t-12.5 32.5q0 42 38.5 70t95.5 28q61 0 97 -28.5t36 -76.5q0 -34 -19 -56t-57 -41q88 -24 88 -107q0 -55 -43 -89t-113 -34q-61 0 -100.5 28.5t-39.5 72.5zM165 0l502 708h54l-502 -708h-54z M473 103v37l216 283h32q-3 -50 -3 -122v-158h77v-40h-77v-44q0 -17 7.5 -20t51.5 -4v-35h-191v35h11q37 0 45 3.5t8 20.5v44h-177zM523 143h127v165z" />
<glyph unicode="&#xbf;" horiz-adv-x="444" d="M33 -96q0 52 23.5 89.5t96.5 101.5q48 42 61 74t13 106h44v-32q0 -62 -14 -101q-2 -7 -4 -12t-4 -9.5t-5.5 -10.5t-6.5 -10.5t-10.5 -15t-13.5 -19t-19 -26.5t-24 -33q-32 -45 -32 -108q0 -58 29.5 -90.5t82.5 -32.5q36 0 64 15t28 35q0 3 -22.5 29.5t-22.5 45.5 q0 23 16.5 39t40.5 16q28 0 46.5 -22t18.5 -55q0 -64 -55 -106t-140 -42q-86 0 -138.5 48t-52.5 126zM189 418q0 26 18.5 44.5t44.5 18.5t44 -18.5t18 -44.5t-18.5 -44t-44.5 -18q-25 0 -43.5 18t-18.5 44z" />
<glyph unicode="&#xc0;" horiz-adv-x="722" d="M-8 0v47h14q37 0 55 19t45 87l230 583h42l255 -625q18 -43 30 -53.5t49 -10.5h19v-47h-310v47h42q62 0 62 26q0 7 -8 27l-54 134h-265l-33 -88q-9 -24 -9 -42q0 -57 81 -57h20v-47h-265zM189 892q0 13 12.5 22t29.5 9q23 0 60 -28l168 -126h-49l-191 88q-30 15 -30 35z M218 288h224l-113 284z" />
<glyph unicode="&#xc1;" horiz-adv-x="722" d="M-8 0v47h14q37 0 55 19t45 87l230 583h42l255 -625q18 -43 30 -53.5t49 -10.5h19v-47h-310v47h42q62 0 62 26q0 7 -8 27l-54 134h-265l-33 -88q-9 -24 -9 -42q0 -57 81 -57h20v-47h-265zM218 288h224l-113 284zM255 769l168 126q37 28 60 28q17 0 29.5 -9t12.5 -22 q0 -20 -30 -35l-191 -88h-49z" />
<glyph unicode="&#xc2;" horiz-adv-x="722" d="M-8 0v47h14q37 0 55 19t45 87l230 583h42l255 -625q18 -43 30 -53.5t49 -10.5h19v-47h-310v47h42q62 0 62 26q0 7 -8 27l-54 134h-265l-33 -88q-9 -24 -9 -42q0 -57 81 -57h20v-47h-265zM169 771l150 150h76l150 -150h-44l-144 91l-145 -91h-43zM218 288h224l-113 284z " />
<glyph unicode="&#xc3;" horiz-adv-x="722" d="M-8 0v47h14q37 0 55 19t45 87l230 583h42l255 -625q18 -43 30 -53.5t49 -10.5h19v-47h-310v47h42q62 0 62 26q0 7 -8 27l-54 134h-265l-33 -88q-9 -24 -9 -42q0 -57 81 -57h20v-47h-265zM192 793q10 47 36.5 74t63.5 27q27 0 86 -27q43 -19 59 -19q17 0 32 14.5t19 36.5 h35q-5 -47 -35 -76.5t-73 -29.5q-19 0 -34.5 5t-54.5 23q-30 14 -52 14q-36 0 -47 -42h-35zM218 288h224l-113 284z" />
<glyph unicode="&#xc4;" horiz-adv-x="722" d="M-8 0v47h14q37 0 55 19t45 87l230 583h42l255 -625q18 -43 30 -53.5t49 -10.5h19v-47h-310v47h42q62 0 62 26q0 7 -8 27l-54 134h-265l-33 -88q-9 -24 -9 -42q0 -57 81 -57h20v-47h-265zM208 846q0 20 15 35t35 15t35 -15t15 -35q0 -21 -15 -35.5t-36 -14.5 q-20 0 -34.5 15t-14.5 35zM218 288h224l-113 284zM407 846q0 20 15 35t35 15t35 -15t15 -35q0 -21 -15 -35.5t-36 -14.5q-20 0 -34.5 15t-14.5 35z" />
<glyph unicode="&#xc5;" horiz-adv-x="722" d="M-8 0v47h14q37 0 55 19t45 87l230 583h42l255 -625q18 -43 30 -53.5t49 -10.5h19v-47h-310v47h42q62 0 62 26q0 7 -8 27l-54 134h-265l-33 -88q-9 -24 -9 -42q0 -57 81 -57h20v-47h-265zM218 288h224l-113 284zM258 862q0 40 29 69.5t70 29.5t70.5 -29t29.5 -70 q0 -42 -29.5 -71t-71.5 -29q-40 0 -69 29.5t-29 70.5zM294 862q0 -26 18.5 -45t44.5 -19q27 0 45.5 18.5t18.5 45.5q0 26 -18.5 44.5t-44.5 18.5t-45 -18.5t-19 -44.5z" />
<glyph unicode="&#xc6;" horiz-adv-x="1000" d="M0 0v47q26 5 45.5 23t43.5 62l247 444q13 24 13 45q0 31 -16 42.5t-66 11.5h-27v47h693l14 -256h-43q-15 91 -39.5 134t-68 59t-129.5 16h-24q-41 0 -52 -9t-11 -41v-228h28q61 0 91 32t34 105h47v-328h-47q-2 78 -27 111t-102 33h-24v-255q0 -30 15.5 -39t56.5 -9h35 q115 0 161 46.5t72 173.5h43l-20 -267h-584v47h19q61 0 75.5 7.5t14.5 39.5v175h-239l-71 -130q-14 -25 -14 -46q0 -24 15.5 -35t53.5 -11h20v-47h-233zM258 323h210v325q0 15 -2 19t-8 4q-8 0 -17 -18z" />
<glyph unicode="&#xc7;" horiz-adv-x="722" d="M45 354q0 157 100.5 270t238.5 113q50 0 87 -14t90 -53l40 59h53v-289h-44q-31 104 -57 149q-29 48 -73.5 74.5t-96.5 26.5q-103 0 -154.5 -87t-51.5 -253q0 -161 53.5 -239.5t164.5 -78.5q184 0 226 223l47 -8q-17 -125 -90.5 -193.5t-190.5 -68.5q-21 0 -41 2l-19 -51 q22 3 30 3q36 0 58.5 -19t22.5 -49q0 -38 -33.5 -62.5t-87.5 -24.5q-47 0 -87 17l14 33q36 -12 62 -12q25 0 40.5 11t15.5 29q0 17 -13 28t-34 11q-15 0 -34 -6l-8 5l39 92q-119 20 -193 123.5t-74 238.5z" />
<glyph unicode="&#xc8;" horiz-adv-x="722" d="M29 0v47h18q61 0 75.5 7.5t14.5 39.5v534q0 32 -14.5 39.5t-75.5 7.5h-18v47h615v-256h-43q-11 68 -25.5 107t-42 63t-66 31.5t-103.5 7.5h-52q-41 0 -52 -9t-11 -41v-228h24q71 0 103.5 32t36.5 105h47v-328h-47q-2 78 -29.5 111t-114.5 33h-20v-255q0 -30 15.5 -39 t56.5 -9h66q114 0 161 46.5t71 173.5h44l-20 -267h-614zM193 892q0 13 12.5 22t29.5 9q23 0 60 -28l168 -126h-49l-191 88q-30 15 -30 35z" />
<glyph unicode="&#xc9;" horiz-adv-x="722" d="M29 0v47h18q61 0 75.5 7.5t14.5 39.5v534q0 32 -14.5 39.5t-75.5 7.5h-18v47h615v-256h-43q-11 68 -25.5 107t-42 63t-66 31.5t-103.5 7.5h-52q-41 0 -52 -9t-11 -41v-228h24q71 0 103.5 32t36.5 105h47v-328h-47q-2 78 -29.5 111t-114.5 33h-20v-255q0 -30 15.5 -39 t56.5 -9h66q114 0 161 46.5t71 173.5h44l-20 -267h-614zM259 769l168 126q37 28 60 28q17 0 29.5 -9t12.5 -22q0 -20 -30 -35l-191 -88h-49z" />
<glyph unicode="&#xca;" horiz-adv-x="722" d="M29 0v47h18q61 0 75.5 7.5t14.5 39.5v534q0 32 -14.5 39.5t-75.5 7.5h-18v47h615v-256h-43q-11 68 -25.5 107t-42 63t-66 31.5t-103.5 7.5h-52q-41 0 -52 -9t-11 -41v-228h24q71 0 103.5 32t36.5 105h47v-328h-47q-2 78 -29.5 111t-114.5 33h-20v-255q0 -30 15.5 -39 t56.5 -9h66q114 0 161 46.5t71 173.5h44l-20 -267h-614zM173 771l150 150h76l150 -150h-44l-144 91l-145 -91h-43z" />
<glyph unicode="&#xcb;" horiz-adv-x="722" d="M29 0v47h18q61 0 75.5 7.5t14.5 39.5v534q0 32 -14.5 39.5t-75.5 7.5h-18v47h615v-256h-43q-11 68 -25.5 107t-42 63t-66 31.5t-103.5 7.5h-52q-41 0 -52 -9t-11 -41v-228h24q71 0 103.5 32t36.5 105h47v-328h-47q-2 78 -29.5 111t-114.5 33h-20v-255q0 -30 15.5 -39 t56.5 -9h66q114 0 161 46.5t71 173.5h44l-20 -267h-614zM212 846q0 20 15 35t35 15t35 -15t15 -35q0 -21 -15 -35.5t-36 -14.5q-20 0 -34.5 15t-14.5 35zM411 846q0 20 15 35t35 15t35 -15t15 -35q0 -21 -15 -35.5t-36 -14.5q-20 0 -34.5 15t-14.5 35z" />
<glyph unicode="&#xcc;" horiz-adv-x="407" d="M35 892q0 13 12.5 22t29.5 9q23 0 60 -28l168 -126h-49l-191 88q-30 15 -30 35zM38 0v47h20q61 0 75.5 7.5t14.5 39.5v534q0 32 -14.5 39.5t-75.5 7.5h-20v47h331v-47h-20q-60 0 -74.5 -7.5t-14.5 -39.5v-534q0 -32 14.5 -39.5t74.5 -7.5h20v-47h-331z" />
<glyph unicode="&#xcd;" horiz-adv-x="407" d="M38 0v47h20q61 0 75.5 7.5t14.5 39.5v534q0 32 -14.5 39.5t-75.5 7.5h-20v47h331v-47h-20q-60 0 -74.5 -7.5t-14.5 -39.5v-534q0 -32 14.5 -39.5t74.5 -7.5h20v-47h-331zM102 769l168 126q37 28 60 28q17 0 29.5 -9t12.5 -22q0 -20 -30 -35l-191 -88h-49z" />
<glyph unicode="&#xce;" horiz-adv-x="407" d="M16 771l150 150h76l150 -150h-44l-144 91l-145 -91h-43zM38 0v47h20q61 0 75.5 7.5t14.5 39.5v534q0 32 -14.5 39.5t-75.5 7.5h-20v47h331v-47h-20q-60 0 -74.5 -7.5t-14.5 -39.5v-534q0 -32 14.5 -39.5t74.5 -7.5h20v-47h-331z" />
<glyph unicode="&#xcf;" horiz-adv-x="407" d="M38 0v47h20q61 0 75.5 7.5t14.5 39.5v534q0 32 -14.5 39.5t-75.5 7.5h-20v47h331v-47h-20q-60 0 -74.5 -7.5t-14.5 -39.5v-534q0 -32 14.5 -39.5t74.5 -7.5h20v-47h-331zM54 846q0 20 15 35t35 15t35 -15t15 -35q0 -21 -15 -35.5t-36 -14.5q-20 0 -34.5 15t-14.5 35z M253 846q0 20 15 35t35 15t35 -15t15 -35q0 -21 -15 -35.5t-36 -14.5q-20 0 -34.5 15t-14.5 35z" />
<glyph unicode="&#xd0;" horiz-adv-x="778" d="M29 0v47h19q60 0 74.5 7.5t14.5 39.5v256h-108v47h108v231q0 32 -14.5 39.5t-74.5 7.5h-19v47h318q164 0 243 -51q67 -43 104.5 -125t37.5 -185q0 -175 -92.5 -268t-274.5 -93h-336zM249 102q0 -37 9.5 -46t47.5 -9h68q121 0 173.5 72.5t52.5 241.5q0 166 -57 240 t-184 74h-53q-37 0 -47 -9.5t-10 -46.5v-222h180v-47h-180v-248z" />
<glyph unicode="&#xd1;" horiz-adv-x="815" d="M19 675v47h206l399 -531v314q0 103 -22 135t-93 35v47h285v-47q-72 -3 -94 -35t-22 -135v-519h-42l-446 602v-371q0 -103 22 -135t93 -35v-47h-285v47q72 3 94 35t22 135v425q-13 19 -33.5 26t-58.5 7h-25zM242 793q10 47 36.5 74t63.5 27q27 0 86 -27q43 -19 59 -19 q17 0 32 14.5t19 36.5h35q-5 -47 -35 -76.5t-73 -29.5q-19 0 -34.5 5t-54.5 23q-30 14 -52 14q-36 0 -47 -42h-35z" />
<glyph unicode="&#xd2;" horiz-adv-x="778" d="M45 360q0 157 97.5 267t250.5 110q144 0 242 -108.5t98 -267.5q0 -161 -98.5 -268.5t-245.5 -107.5q-146 0 -245 107.5t-99 267.5zM177 363q0 -170 53 -250.5t159 -80.5q212 0 212 329t-209 329q-108 0 -161.5 -79.5t-53.5 -247.5zM221 892q0 13 12.5 22t29.5 9 q23 0 60 -28l168 -126h-49l-191 88q-30 15 -30 35z" />
<glyph unicode="&#xd3;" horiz-adv-x="778" d="M45 360q0 157 97.5 267t250.5 110q144 0 242 -108.5t98 -267.5q0 -161 -98.5 -268.5t-245.5 -107.5q-146 0 -245 107.5t-99 267.5zM177 363q0 -170 53 -250.5t159 -80.5q212 0 212 329t-209 329q-108 0 -161.5 -79.5t-53.5 -247.5zM287 769l168 126q37 28 60 28 q17 0 29.5 -9t12.5 -22q0 -20 -30 -35l-191 -88h-49z" />
<glyph unicode="&#xd4;" horiz-adv-x="778" d="M45 360q0 157 97.5 267t250.5 110q144 0 242 -108.5t98 -267.5q0 -161 -98.5 -268.5t-245.5 -107.5q-146 0 -245 107.5t-99 267.5zM177 363q0 -170 53 -250.5t159 -80.5q212 0 212 329t-209 329q-108 0 -161.5 -79.5t-53.5 -247.5zM201 771l150 150h76l150 -150h-44 l-144 91l-145 -91h-43z" />
<glyph unicode="&#xd5;" horiz-adv-x="778" d="M45 360q0 157 97.5 267t250.5 110q144 0 242 -108.5t98 -267.5q0 -161 -98.5 -268.5t-245.5 -107.5q-146 0 -245 107.5t-99 267.5zM177 363q0 -170 53 -250.5t159 -80.5q212 0 212 329t-209 329q-108 0 -161.5 -79.5t-53.5 -247.5zM224 793q10 47 36.5 74t63.5 27 q27 0 86 -27q43 -19 59 -19q17 0 32 14.5t19 36.5h35q-5 -47 -35 -76.5t-73 -29.5q-19 0 -34.5 5t-54.5 23q-30 14 -52 14q-36 0 -47 -42h-35z" />
<glyph unicode="&#xd6;" horiz-adv-x="778" d="M45 360q0 157 97.5 267t250.5 110q144 0 242 -108.5t98 -267.5q0 -161 -98.5 -268.5t-245.5 -107.5q-146 0 -245 107.5t-99 267.5zM177 363q0 -170 53 -250.5t159 -80.5q212 0 212 329t-209 329q-108 0 -161.5 -79.5t-53.5 -247.5zM240 846q0 20 15 35t35 15t35 -15 t15 -35q0 -21 -15 -35.5t-36 -14.5q-20 0 -34.5 15t-14.5 35zM439 846q0 20 15 35t35 15t35 -15t15 -35q0 -21 -15 -35.5t-36 -14.5q-20 0 -34.5 15t-14.5 35z" />
<glyph unicode="&#xd7;" horiz-adv-x="606" d="M89 92l157 158l-157 158l56 56l158 -157l158 157l56 -56l-157 -158l157 -158l-56 -56l-158 157l-158 -157z" />
<glyph unicode="&#xd8;" horiz-adv-x="778" d="M30 -76l121 164q-50 52 -78.5 125t-28.5 147q0 151 100 264t247 113q105 0 194 -63l65 88h54l-86 -117q54 -54 84.5 -128t30.5 -151q0 -152 -98 -266.5t-248 -114.5q-112 0 -204 73l-99 -134h-54zM176 353q0 -123 30 -190l336 453q-55 74 -154 74q-104 0 -158 -85.5 t-54 -251.5zM229 120q56 -88 161 -88q211 0 211 340q0 130 -35 203z" />
<glyph unicode="&#xd9;" horiz-adv-x="815" d="M17 675v47h327v-47h-19q-61 0 -75.5 -7.5t-14.5 -39.5v-364q0 -113 43 -169t149 -56q110 0 156 64.5t46 180.5v221q0 103 -22 135t-93 35v47h285v-47q-72 -3 -94 -35t-22 -135v-227q0 -154 -71.5 -223.5t-211.5 -69.5q-129 0 -203 53t-74 163v427q0 32 -14.5 39.5 t-74.5 7.5h-17zM239 892q0 13 12.5 22t29.5 9q23 0 60 -28l168 -126h-49l-191 88q-30 15 -30 35z" />
<glyph unicode="&#xda;" horiz-adv-x="815" d="M17 675v47h327v-47h-19q-61 0 -75.5 -7.5t-14.5 -39.5v-364q0 -113 43 -169t149 -56q110 0 156 64.5t46 180.5v221q0 103 -22 135t-93 35v47h285v-47q-72 -3 -94 -35t-22 -135v-227q0 -154 -71.5 -223.5t-211.5 -69.5q-129 0 -203 53t-74 163v427q0 32 -14.5 39.5 t-74.5 7.5h-17zM306 769l168 126q37 28 60 28q17 0 29.5 -9t12.5 -22q0 -20 -30 -35l-191 -88h-49z" />
<glyph unicode="&#xdb;" horiz-adv-x="815" d="M17 675v47h327v-47h-19q-61 0 -75.5 -7.5t-14.5 -39.5v-364q0 -113 43 -169t149 -56q110 0 156 64.5t46 180.5v221q0 103 -22 135t-93 35v47h285v-47q-72 -3 -94 -35t-22 -135v-227q0 -154 -71.5 -223.5t-211.5 -69.5q-129 0 -203 53t-74 163v427q0 32 -14.5 39.5 t-74.5 7.5h-17zM220 771l150 150h76l150 -150h-44l-144 91l-145 -91h-43z" />
<glyph unicode="&#xdc;" horiz-adv-x="815" d="M17 675v47h327v-47h-19q-61 0 -75.5 -7.5t-14.5 -39.5v-364q0 -113 43 -169t149 -56q110 0 156 64.5t46 180.5v221q0 103 -22 135t-93 35v47h285v-47q-72 -3 -94 -35t-22 -135v-227q0 -154 -71.5 -223.5t-211.5 -69.5q-129 0 -203 53t-74 163v427q0 32 -14.5 39.5 t-74.5 7.5h-17zM258 846q0 20 15 35t35 15t35 -15t15 -35q0 -21 -15 -35.5t-36 -14.5q-20 0 -34.5 15t-14.5 35zM457 846q0 20 15 35t35 15t35 -15t15 -35q0 -21 -15 -35.5t-36 -14.5q-20 0 -34.5 15t-14.5 35z" />
<glyph unicode="&#xdd;" horiz-adv-x="704" d="M-13 675v47h321v-47h-59q-39 0 -39 -19q0 -12 11 -28l168 -271l124 221q17 31 17 52q0 24 -18.5 34.5t-59.5 10.5h-23v47h284v-47h-16q-44 0 -69 -21t-61 -86l-149 -269v-205q0 -32 14 -39.5t75 -7.5h26v-47h-343v47h26q61 0 75.5 7.5t14.5 39.5v193l-216 342 q-17 28 -33 37t-48 9h-22zM260 769l168 126q37 28 60 28q17 0 29.5 -9t12.5 -22q0 -20 -30 -35l-191 -88h-49z" />
<glyph unicode="&#xde;" horiz-adv-x="667" d="M28 0v47h20q61 0 75.5 8t14.5 40v533q0 32 -14.5 39.5t-75.5 7.5h-20v47h331v-47h-20q-60 0 -74.5 -7.5t-14.5 -39.5v-54h66q167 0 250 -51.5t83 -143.5q0 -100 -86.5 -151.5t-255.5 -51.5h-57v-82q0 -32 14.5 -39.5t74.5 -7.5h20v-47h-331zM250 221h46q130 0 180 34.5 t50 125.5q0 79 -46 113t-157 34h-22q-35 0 -43 -8t-8 -44v-255z" />
<glyph unicode="&#xdf;" horiz-adv-x="574" d="M29 0v36h14q46 0 55.5 8t9.5 40v409q0 71 8 106t31 66q53 72 159 72q87 0 139 -47.5t52 -126.5q0 -52 -24.5 -87t-81.5 -64q144 -54 144 -218q0 -93 -45.5 -151t-118.5 -58q-55 0 -87 25t-32 67q0 28 15 44.5t40 16.5q23 0 38.5 -15.5t15.5 -37.5q0 -13 -12 -36 q-2 -6 -2 -10q0 -16 19 -16q28 0 46 47.5t18 124.5q0 101 -31.5 147.5t-101.5 51.5q-28 1 -28 20q0 13 8 17.5t29 4.5q51 0 74 29t23 94q0 136 -98 136q-49 0 -76 -36.5t-27 -101.5v-557h-173z" />
<glyph unicode="&#xe0;" horiz-adv-x="556" d="M44 102q0 74 70 115.5t244 71.5v39q0 62 -27 86t-81 24q-36 0 -62.5 -11.5t-26.5 -27.5q0 -1 11 -22t11 -32q0 -22 -15.5 -36.5t-38.5 -14.5q-26 0 -42 17t-16 45q0 54 55.5 89.5t139.5 35.5q94 0 140 -34t46 -125v-201q0 -38 8.5 -53.5t29.5 -15.5q2 0 18.5 5.5 t24.5 5.5q10 0 10 -12q0 -22 -29 -40t-63 -18q-35 0 -55.5 16.5t-32.5 54.5q-67 -79 -174 -79q-66 0 -105.5 32t-39.5 85zM117 660q0 14 10.5 24.5t24.5 10.5q19 0 50 -31l140 -140h-41l-159 97q-25 15 -25 39zM145 116q0 -34 22.5 -56t56.5 -22q32 0 63.5 17t50.5 45 q13 20 16.5 37.5t3.5 62.5v46q-127 -21 -170 -48.5t-43 -81.5z" />
<glyph unicode="&#xe1;" horiz-adv-x="556" d="M44 102q0 74 70 115.5t244 71.5v39q0 62 -27 86t-81 24q-36 0 -62.5 -11.5t-26.5 -27.5q0 -1 11 -22t11 -32q0 -22 -15.5 -36.5t-38.5 -14.5q-26 0 -42 17t-16 45q0 54 55.5 89.5t139.5 35.5q94 0 140 -34t46 -125v-201q0 -38 8.5 -53.5t29.5 -15.5q2 0 18.5 5.5 t24.5 5.5q10 0 10 -12q0 -22 -29 -40t-63 -18q-35 0 -55.5 16.5t-32.5 54.5q-67 -79 -174 -79q-66 0 -105.5 32t-39.5 85zM145 116q0 -34 22.5 -56t56.5 -22q32 0 63.5 17t50.5 45q13 20 16.5 37.5t3.5 62.5v46q-127 -21 -170 -48.5t-43 -81.5zM190 524l140 140q31 31 50 31 q14 0 24.5 -10.5t10.5 -24.5q0 -24 -25 -39l-159 -97h-41z" />
<glyph unicode="&#xe2;" horiz-adv-x="556" d="M44 102q0 74 70 115.5t244 71.5v39q0 62 -27 86t-81 24q-36 0 -62.5 -11.5t-26.5 -27.5q0 -1 11 -22t11 -32q0 -22 -15.5 -36.5t-38.5 -14.5q-26 0 -42 17t-16 45q0 54 55.5 89.5t139.5 35.5q94 0 140 -34t46 -125v-201q0 -38 8.5 -53.5t29.5 -15.5q2 0 18.5 5.5 t24.5 5.5q10 0 10 -12q0 -22 -29 -40t-63 -18q-35 0 -55.5 16.5t-32.5 54.5q-67 -79 -174 -79q-66 0 -105.5 32t-39.5 85zM109 527l125 166h63l125 -166h-36l-120 101l-121 -101h-36zM145 116q0 -34 22.5 -56t56.5 -22q32 0 63.5 17t50.5 45q13 20 16.5 37.5t3.5 62.5v46 q-127 -21 -170 -48.5t-43 -81.5z" />
<glyph unicode="&#xe3;" horiz-adv-x="556" d="M44 102q0 74 70 115.5t244 71.5v39q0 62 -27 86t-81 24q-36 0 -62.5 -11.5t-26.5 -27.5q0 -1 11 -22t11 -32q0 -22 -15.5 -36.5t-38.5 -14.5q-26 0 -42 17t-16 45q0 54 55.5 89.5t139.5 35.5q94 0 140 -34t46 -125v-201q0 -38 8.5 -53.5t29.5 -15.5q2 0 18.5 5.5 t24.5 5.5q10 0 10 -12q0 -22 -29 -40t-63 -18q-35 0 -55.5 16.5t-32.5 54.5q-67 -79 -174 -79q-66 0 -105.5 32t-39.5 85zM100 557q10 47 36.5 74t63.5 27q27 0 86 -27q43 -19 59 -19q17 0 31.5 14.5t19.5 36.5h35q-5 -47 -35 -76.5t-73 -29.5q-19 0 -34.5 5t-54.5 23 q-30 14 -52 14q-36 0 -47 -42h-35zM145 116q0 -34 22.5 -56t56.5 -22q32 0 63.5 17t50.5 45q13 20 16.5 37.5t3.5 62.5v46q-127 -21 -170 -48.5t-43 -81.5z" />
<glyph unicode="&#xe4;" horiz-adv-x="556" d="M44 102q0 74 70 115.5t244 71.5v39q0 62 -27 86t-81 24q-36 0 -62.5 -11.5t-26.5 -27.5q0 -1 11 -22t11 -32q0 -22 -15.5 -36.5t-38.5 -14.5q-26 0 -42 17t-16 45q0 54 55.5 89.5t139.5 35.5q94 0 140 -34t46 -125v-201q0 -38 8.5 -53.5t29.5 -15.5q2 0 18.5 5.5 t24.5 5.5q10 0 10 -12q0 -22 -29 -40t-63 -18q-35 0 -55.5 16.5t-32.5 54.5q-67 -79 -174 -79q-66 0 -105.5 32t-39.5 85zM116 610q0 20 15 35t35 15t35 -15t15 -35q0 -21 -15 -35.5t-36 -14.5q-20 0 -34.5 15t-14.5 35zM145 116q0 -34 22.5 -56t56.5 -22q32 0 63.5 17 t50.5 45q13 20 16.5 37.5t3.5 62.5v46q-127 -21 -170 -48.5t-43 -81.5zM315 610q0 20 15 35t35 15t35 -15t15 -35q0 -21 -15 -35.5t-36 -14.5q-20 0 -34.5 15t-14.5 35z" />
<glyph unicode="&#xe5;" horiz-adv-x="556" d="M44 102q0 74 70 115.5t244 71.5v39q0 62 -27 86t-81 24q-36 0 -62.5 -11.5t-26.5 -27.5q0 -1 11 -22t11 -32q0 -22 -15.5 -36.5t-38.5 -14.5q-26 0 -42 17t-16 45q0 54 55.5 89.5t139.5 35.5q94 0 140 -34t46 -125v-201q0 -38 8.5 -53.5t29.5 -15.5q2 0 18.5 5.5 t24.5 5.5q10 0 10 -12q0 -22 -29 -40t-63 -18q-35 0 -55.5 16.5t-32.5 54.5q-67 -79 -174 -79q-66 0 -105.5 32t-39.5 85zM145 116q0 -34 22.5 -56t56.5 -22q32 0 63.5 17t50.5 45q13 20 16.5 37.5t3.5 62.5v46q-127 -21 -170 -48.5t-43 -81.5zM166 611q0 41 29 70t70 29 t70.5 -29t29.5 -70q0 -42 -29.5 -71t-71.5 -29q-40 0 -69 29.5t-29 70.5zM202 611q0 -26 18.5 -45t44.5 -19q27 0 45.5 18.5t18.5 45.5q0 25 -18.5 44t-44.5 19t-45 -18.5t-19 -44.5z" />
<glyph unicode="&#xe6;" horiz-adv-x="796" d="M36 99q0 100 118 145q58 23 183 45v46q0 56 -22 79.5t-75 23.5q-35 0 -60.5 -11t-25.5 -27q0 -6 7 -14q15 -21 15 -41q0 -22 -15.5 -36.5t-38.5 -14.5q-27 0 -43 17t-16 45q0 53 55 89t135 36q110 0 154 -57q62 57 145 57q98 0 153 -78q53 -72 53 -160v-18h-325 q1 -81 24 -120q40 -66 116 -66q49 0 84 25t66 82l36 -19q-66 -142 -205 -142q-97 0 -156 53q-6 5 -35 35q-39 -47 -80.5 -67.5t-98.5 -20.5q-67 0 -107.5 31t-40.5 83zM137 120q0 -36 21 -59.5t54 -23.5q31 0 59.5 15t45.5 40q13 20 16.5 37.5t3.5 63.5v53 q-106 -18 -141 -37q-59 -33 -59 -89zM434 268h175q24 0 32.5 7.5t8.5 29.5q0 59 -27.5 95.5t-73.5 36.5q-71 0 -101 -89q-14 -38 -14 -80z" />
<glyph unicode="&#xe7;" horiz-adv-x="444" d="M34 225q0 112 63 184t160 72q67 0 111.5 -34.5t44.5 -84.5q0 -30 -17.5 -49t-43.5 -19t-43 15.5t-17 40.5q0 22 20 46q6 9 6 12q0 12 -17 21t-39 9q-55 0 -89 -55.5t-34 -146.5q0 -88 35 -139t95 -51q39 0 66.5 23.5t51.5 77.5l39 -15q-30 -77 -74 -112t-110 -35l-19 -48 q21 3 29 3q37 0 59.5 -19t22.5 -49q0 -38 -33.5 -62.5t-86.5 -24.5q-45 0 -88 17l15 33q35 -12 61 -12q25 0 40.5 11t15.5 29q0 17 -13 28t-34 11q-11 0 -34 -5l-8 5l37 86q-78 13 -125 77.5t-47 159.5z" />
<glyph unicode="&#xe8;" horiz-adv-x="500" d="M35 220q0 112 64 186.5t160 74.5q92 0 149 -71.5t57 -184.5h-324q0 -92 37.5 -139t101.5 -47q50 0 84.5 24.5t65.5 82.5l35 -19q-61 -142 -204 -142q-101 0 -163.5 65t-62.5 170zM110 660q0 14 10.5 24.5t24.5 10.5q19 0 50 -31l140 -140h-41l-159 97q-25 15 -25 39z M142 268h175q24 0 32.5 7.5t8.5 29.5q0 60 -27.5 96.5t-73.5 36.5q-48 0 -81.5 -46.5t-33.5 -123.5z" />
<glyph unicode="&#xe9;" horiz-adv-x="500" d="M35 220q0 112 64 186.5t160 74.5q92 0 149 -71.5t57 -184.5h-324q0 -92 37.5 -139t101.5 -47q50 0 84.5 24.5t65.5 82.5l35 -19q-61 -142 -204 -142q-101 0 -163.5 65t-62.5 170zM142 268h175q24 0 32.5 7.5t8.5 29.5q0 60 -27.5 96.5t-73.5 36.5q-48 0 -81.5 -46.5 t-33.5 -123.5zM183 524l140 140q31 31 50 31q14 0 24.5 -10.5t10.5 -24.5q0 -24 -25 -39l-159 -97h-41z" />
<glyph unicode="&#xea;" horiz-adv-x="500" d="M35 220q0 112 64 186.5t160 74.5q92 0 149 -71.5t57 -184.5h-324q0 -92 37.5 -139t101.5 -47q50 0 84.5 24.5t65.5 82.5l35 -19q-61 -142 -204 -142q-101 0 -163.5 65t-62.5 170zM102 527l125 166h63l125 -166h-36l-120 101l-121 -101h-36zM142 268h175q24 0 32.5 7.5 t8.5 29.5q0 60 -27.5 96.5t-73.5 36.5q-48 0 -81.5 -46.5t-33.5 -123.5z" />
<glyph unicode="&#xeb;" horiz-adv-x="500" d="M35 220q0 112 64 186.5t160 74.5q92 0 149 -71.5t57 -184.5h-324q0 -92 37.5 -139t101.5 -47q50 0 84.5 24.5t65.5 82.5l35 -19q-61 -142 -204 -142q-101 0 -163.5 65t-62.5 170zM109 610q0 20 15 35t35 15t35 -15t15 -35q0 -21 -15 -35.5t-36 -14.5q-20 0 -34.5 15 t-14.5 35zM142 268h175q24 0 32.5 7.5t8.5 29.5q0 60 -27.5 96.5t-73.5 36.5q-48 0 -81.5 -46.5t-33.5 -123.5zM308 610q0 20 15 35t35 15t35 -15t15 -35q0 -21 -15 -35.5t-36 -14.5q-20 0 -34.5 15t-14.5 35z" />
<glyph unicode="&#xec;" horiz-adv-x="315" d="M10 660q0 14 10.5 24.5t24.5 10.5q19 0 50 -31l140 -140h-41l-159 97q-25 15 -25 39zM18 412v43l188 11v-383q0 -31 11.5 -39t59.5 -8h12v-36h-259v36h12q47 0 58.5 8t11.5 39v279q0 32 -7.5 41t-35.5 9h-51z" />
<glyph unicode="&#xed;" horiz-adv-x="315" d="M18 412v43l188 11v-383q0 -31 11.5 -39t59.5 -8h12v-36h-259v36h12q47 0 58.5 8t11.5 39v279q0 32 -7.5 41t-35.5 9h-51zM83 524l140 140q31 31 50 31q14 0 24.5 -10.5t10.5 -24.5q0 -24 -25 -39l-159 -97h-41z" />
<glyph unicode="&#xee;" horiz-adv-x="315" d="M2 527l125 166h63l125 -166h-36l-120 101l-121 -101h-36zM18 412v43l188 11v-383q0 -31 11.5 -39t59.5 -8h12v-36h-259v36h12q47 0 58.5 8t11.5 39v279q0 32 -7.5 41t-35.5 9h-51z" />
<glyph unicode="&#xef;" horiz-adv-x="315" d="M9 610q0 20 15 35t35 15t35 -15t15 -35q0 -21 -15 -35.5t-36 -14.5q-20 0 -34.5 15t-14.5 35zM18 412v43l188 11v-383q0 -31 11.5 -39t59.5 -8h12v-36h-259v36h12q47 0 58.5 8t11.5 39v279q0 32 -7.5 41t-35.5 9h-51zM208 610q0 20 15 35t35 15t35 -15t15 -35 q0 -21 -15 -35.5t-36 -14.5q-20 0 -34.5 15t-14.5 35z" />
<glyph unicode="&#xf0;" horiz-adv-x="500" d="M34 233q0 104 63 176t154 72q18 0 43 -5q-28 34 -45 51t-74 70l-118 -68l-23 38l102 59l-91 60l26 39q64 -29 121 -66l122 72l25 -37l-105 -62q123 -90 177.5 -184.5t54.5 -211.5q0 -106 -62.5 -178.5t-153.5 -72.5q-90 0 -153 72.5t-63 175.5zM139 232 q0 -99 28.5 -151.5t82.5 -52.5t82.5 52.5t28.5 152.5q0 99 -28 152t-81 53q-113 0 -113 -206z" />
<glyph unicode="&#xf1;" horiz-adv-x="611" d="M27 0v36h14q46 0 55.5 7.5t9.5 39.5v279q0 32 -7.5 41t-35.5 9h-36v43l173 11v-81q64 96 158 96q44 0 80 -20.5t55 -56.5q13 -25 17 -47.5t4 -76.5v-197q0 -32 9.5 -39.5t55.5 -7.5h14v-36h-253v36h14q47 0 56.5 7.5t9.5 39.5v202q0 69 -22 100q-11 15 -31.5 25t-39.5 10 q-32 0 -62.5 -21t-46.5 -55q-18 -38 -18 -117v-144q0 -32 9.5 -39.5t56.5 -7.5h14v-36h-253zM140 557q10 47 36.5 74t63.5 27q27 0 86 -27q43 -19 59 -19q17 0 31.5 14.5t19.5 36.5h35q-5 -47 -35 -76.5t-73 -29.5q-19 0 -34.5 5t-54.5 23q-30 14 -52 14q-36 0 -47 -42h-35z " />
<glyph unicode="&#xf2;" horiz-adv-x="500" d="M34 232q0 105 63 177t155 72q89 0 151.5 -72.5t62.5 -175.5t-63 -175.5t-153 -72.5t-153 72t-63 175zM103 660q0 14 10.5 24.5t24.5 10.5q19 0 50 -31l140 -140h-41l-159 97q-25 15 -25 39zM139 232q0 -99 28.5 -151.5t82.5 -52.5t82.5 52.5t28.5 152.5q0 99 -28 152 t-81 53q-113 0 -113 -206z" />
<glyph unicode="&#xf3;" horiz-adv-x="500" d="M34 232q0 105 63 177t155 72q89 0 151.5 -72.5t62.5 -175.5t-63 -175.5t-153 -72.5t-153 72t-63 175zM139 232q0 -99 28.5 -151.5t82.5 -52.5t82.5 52.5t28.5 152.5q0 99 -28 152t-81 53q-113 0 -113 -206zM176 524l140 140q31 31 50 31q14 0 24.5 -10.5t10.5 -24.5 q0 -24 -25 -39l-159 -97h-41z" />
<glyph unicode="&#xf4;" horiz-adv-x="500" d="M34 232q0 105 63 177t155 72q89 0 151.5 -72.5t62.5 -175.5t-63 -175.5t-153 -72.5t-153 72t-63 175zM95 527l125 166h63l125 -166h-36l-120 101l-121 -101h-36zM139 232q0 -99 28.5 -151.5t82.5 -52.5t82.5 52.5t28.5 152.5q0 99 -28 152t-81 53q-113 0 -113 -206z" />
<glyph unicode="&#xf5;" horiz-adv-x="500" d="M34 232q0 105 63 177t155 72q89 0 151.5 -72.5t62.5 -175.5t-63 -175.5t-153 -72.5t-153 72t-63 175zM86 557q10 47 36.5 74t63.5 27q27 0 86 -27q43 -19 59 -19q17 0 32 14.5t19 36.5h35q-5 -47 -35 -76.5t-73 -29.5q-19 0 -34.5 5t-54.5 23q-30 14 -52 14 q-36 0 -47 -42h-35zM139 232q0 -99 28.5 -151.5t82.5 -52.5t82.5 52.5t28.5 152.5q0 99 -28 152t-81 53q-113 0 -113 -206z" />
<glyph unicode="&#xf6;" horiz-adv-x="500" d="M34 232q0 105 63 177t155 72q89 0 151.5 -72.5t62.5 -175.5t-63 -175.5t-153 -72.5t-153 72t-63 175zM102 610q0 20 15 35t35 15t35 -15t15 -35q0 -21 -15 -35.5t-36 -14.5q-20 0 -34.5 15t-14.5 35zM139 232q0 -99 28.5 -151.5t82.5 -52.5t82.5 52.5t28.5 152.5 q0 99 -28 152t-81 53q-113 0 -113 -206zM301 610q0 20 15 35t35 15t35 -15t15 -35q0 -21 -15 -35.5t-36 -14.5q-20 0 -34.5 15t-14.5 35z" />
<glyph unicode="&#xf7;" horiz-adv-x="606" d="M40 210v80h526v-80h-526zM241 70q0 26 18.5 44t43.5 18t43.5 -18t18.5 -44t-18 -44t-44 -18t-44 18t-18 44zM241 431q0 25 18.5 43.5t43.5 18.5t43.5 -18.5t18.5 -43.5q0 -26 -18 -44t-44 -18t-44 18t-18 44z" />
<glyph unicode="&#xf8;" horiz-adv-x="500" d="M34 232q0 104 63 176.5t153 72.5q46 0 91 -23l50 97h50l-63 -122q41 -35 64.5 -89.5t23.5 -115.5q0 -107 -61.5 -175t-157.5 -68q-52 0 -89 19l-49 -95h-50l61 119q-86 75 -86 204zM139 229q0 -74 19 -127l158 307q-28 29 -65 29q-112 0 -112 -209zM185 57q25 -29 64 -29 q112 0 112 214q0 70 -18 122z" />
<glyph unicode="&#xf9;" horiz-adv-x="611" d="M21 412v43l175 11v-305q0 -41 2.5 -55.5t12.5 -28.5q20 -31 70 -31q77 0 110 70q21 46 21 123v123q0 32 -7.5 41t-35.5 9h-51v43l188 11v-350q0 -48 11 -60.5t52 -12.5h25v-43l-182 -7v83q-33 -48 -70 -69.5t-86 -21.5q-93 0 -135 64q-19 29 -19 97v216q0 32 -7.5 41 t-35.5 9h-38zM155 660q0 14 10.5 24.5t24.5 10.5q19 0 50 -31l140 -140h-41l-159 97q-25 15 -25 39z" />
<glyph unicode="&#xfa;" horiz-adv-x="611" d="M21 412v43l175 11v-305q0 -41 2.5 -55.5t12.5 -28.5q20 -31 70 -31q77 0 110 70q21 46 21 123v123q0 32 -7.5 41t-35.5 9h-51v43l188 11v-350q0 -48 11 -60.5t52 -12.5h25v-43l-182 -7v83q-33 -48 -70 -69.5t-86 -21.5q-93 0 -135 64q-19 29 -19 97v216q0 32 -7.5 41 t-35.5 9h-38zM228 524l140 140q31 31 50 31q14 0 24.5 -10.5t10.5 -24.5q0 -24 -25 -39l-159 -97h-41z" />
<glyph unicode="&#xfb;" horiz-adv-x="611" d="M21 412v43l175 11v-305q0 -41 2.5 -55.5t12.5 -28.5q20 -31 70 -31q77 0 110 70q21 46 21 123v123q0 32 -7.5 41t-35.5 9h-51v43l188 11v-350q0 -48 11 -60.5t52 -12.5h25v-43l-182 -7v83q-33 -48 -70 -69.5t-86 -21.5q-93 0 -135 64q-19 29 -19 97v216q0 32 -7.5 41 t-35.5 9h-38zM147 527l125 166h63l125 -166h-36l-120 101l-121 -101h-36z" />
<glyph unicode="&#xfc;" horiz-adv-x="611" d="M21 412v43l175 11v-305q0 -41 2.5 -55.5t12.5 -28.5q20 -31 70 -31q77 0 110 70q21 46 21 123v123q0 32 -7.5 41t-35.5 9h-51v43l188 11v-350q0 -48 11 -60.5t52 -12.5h25v-43l-182 -7v83q-33 -48 -70 -69.5t-86 -21.5q-93 0 -135 64q-19 29 -19 97v216q0 32 -7.5 41 t-35.5 9h-38zM154 610q0 20 15 35t35 15t35 -15t15 -35q0 -21 -15 -35.5t-36 -14.5q-20 0 -34.5 15t-14.5 35zM353 610q0 20 15 35t35 15t35 -15t15 -35q0 -21 -15 -35.5t-36 -14.5q-20 0 -34.5 15t-14.5 35z" />
<glyph unicode="&#xfd;" horiz-adv-x="537" d="M3 -129q0 27 17 44.5t43 17.5q22 0 36.5 -13t14.5 -32q0 -6 -3.5 -19t-3.5 -16q0 -10 16 -10q24 0 55.5 35.5t59.5 93.5l17 35l-163 369q-14 30 -28 42t-38 12h-13v36h238v-36h-21q-46 0 -46 -25q0 -7 6 -21l110 -257l91 226q10 24 10 40q0 37 -54 37h-16v36h200v-36h-12 q-28 0 -43.5 -17t-34.5 -64l-114 -282q-58 -143 -95 -193q-59 -80 -138 -80q-39 0 -65 22t-26 55zM215 524l140 140q31 31 50 31q14 0 24.5 -10.5t10.5 -24.5q0 -24 -25 -39l-159 -97h-41z" />
<glyph unicode="&#xfe;" horiz-adv-x="574" d="M28 -166h14q46 0 55.5 7.5t9.5 39.5v752q0 32 -7.5 41t-35.5 9h-36v44l173 10v-343q26 46 59 66.5t79 20.5q82 0 139 -71.5t57 -174.5q0 -107 -57.5 -178.5t-144.5 -71.5q-46 0 -76.5 19t-55.5 62v-185q0 -30 12.5 -38.5t60.5 -8.5h14v-36h-260v36zM200 228 q0 -86 32.5 -137.5t85.5 -51.5t82.5 52.5t29.5 149.5q0 88 -29 137t-80 49q-56 0 -88.5 -53t-32.5 -146z" />
<glyph unicode="&#xff;" horiz-adv-x="537" d="M3 -129q0 27 17 44.5t43 17.5q22 0 36.5 -13t14.5 -32q0 -6 -3.5 -19t-3.5 -16q0 -10 16 -10q24 0 55.5 35.5t59.5 93.5l17 35l-163 369q-14 30 -28 42t-38 12h-13v36h238v-36h-21q-46 0 -46 -25q0 -7 6 -21l110 -257l91 226q10 24 10 40q0 37 -54 37h-16v36h200v-36h-12 q-28 0 -43.5 -17t-34.5 -64l-114 -282q-58 -143 -95 -193q-59 -80 -138 -80q-39 0 -65 22t-26 55zM141 610q0 20 15 35t35 15t35 -15t15 -35q0 -21 -15 -35.5t-36 -14.5q-20 0 -34.5 15t-14.5 35zM340 610q0 20 15 35t35 15t35 -15t15 -35q0 -21 -15 -35.5t-36 -14.5 q-20 0 -34.5 15t-14.5 35z" />
<glyph unicode="&#x100;" horiz-adv-x="722" d="M-8 0v47h14q37 0 55 19t45 87l230 583h42l255 -625q18 -43 30 -53.5t49 -10.5h19v-47h-310v47h42q62 0 62 26q0 7 -8 27l-54 134h-265l-33 -88q-9 -24 -9 -42q0 -57 81 -57h20v-47h-265zM201 819v54h313v-54h-313zM218 288h224l-113 284z" />
<glyph unicode="&#x101;" horiz-adv-x="556" d="M44 102q0 74 70 115.5t244 71.5v39q0 62 -27 86t-81 24q-36 0 -62.5 -11.5t-26.5 -27.5q0 -1 11 -22t11 -32q0 -22 -15.5 -36.5t-38.5 -14.5q-26 0 -42 17t-16 45q0 54 55.5 89.5t139.5 35.5q94 0 140 -34t46 -125v-201q0 -38 8.5 -53.5t29.5 -15.5q2 0 18.5 5.5 t24.5 5.5q10 0 10 -12q0 -22 -29 -40t-63 -18q-35 0 -55.5 16.5t-32.5 54.5q-67 -79 -174 -79q-66 0 -105.5 32t-39.5 85zM109 583v54h313v-54h-313zM145 116q0 -34 22.5 -56t56.5 -22q32 0 63.5 17t50.5 45q13 20 16.5 37.5t3.5 62.5v46q-127 -21 -170 -48.5t-43 -81.5z " />
<glyph unicode="&#x102;" horiz-adv-x="722" d="M-8 0v47h14q37 0 55 19t45 87l230 583h42l255 -625q18 -43 30 -53.5t49 -10.5h19v-47h-310v47h42q62 0 62 26q0 7 -8 27l-54 134h-265l-33 -88q-9 -24 -9 -42q0 -57 81 -57h20v-47h-265zM187 917h43q5 -41 38 -63.5t89 -22.5t88.5 22.5t37.5 63.5h44q0 -64 -48.5 -103 t-122.5 -39t-121.5 39t-47.5 103zM218 288h224l-113 284z" />
<glyph unicode="&#x103;" horiz-adv-x="556" d="M44 102q0 74 70 115.5t244 71.5v39q0 62 -27 86t-81 24q-36 0 -62.5 -11.5t-26.5 -27.5q0 -1 11 -22t11 -32q0 -22 -15.5 -36.5t-38.5 -14.5q-26 0 -42 17t-16 45q0 54 55.5 89.5t139.5 35.5q94 0 140 -34t46 -125v-201q0 -38 8.5 -53.5t29.5 -15.5q2 0 18.5 5.5 t24.5 5.5q10 0 10 -12q0 -22 -29 -40t-63 -18q-35 0 -55.5 16.5t-32.5 54.5q-67 -79 -174 -79q-66 0 -105.5 32t-39.5 85zM124 676v13h36q4 -45 31.5 -70t74.5 -25q46 0 73.5 25t31.5 70h36v-14q0 -61 -40.5 -102t-101.5 -41t-101 41t-40 103zM145 116q0 -34 22.5 -56 t56.5 -22q32 0 63.5 17t50.5 45q13 20 16.5 37.5t3.5 62.5v46q-127 -21 -170 -48.5t-43 -81.5z" />
<glyph unicode="&#x104;" horiz-adv-x="722" d="M-8 0v47h14q37 0 55 19t45 87l230 583h42l255 -625q18 -43 30 -53.5t49 -10.5h19v-47h-9q-94 0 -118 -45q-18 -36 -18 -76q0 -51 40 -51q29 0 49.5 10t31 20t14.5 10q10 0 10 -12q0 -35 -29.5 -63.5t-89.5 -28.5q-47 0 -80.5 30.5t-33.5 81.5q0 60 84 124h-161v47h42 q62 0 62 26q0 7 -8 27l-54 134h-265l-33 -88q-9 -24 -9 -42q0 -57 81 -57h20v-47h-265zM218 288h224l-113 284z" />
<glyph unicode="&#x105;" horiz-adv-x="556" d="M44 102q0 74 70 115.5t244 71.5v39q0 32 -7 54t-22 34t-33.5 17t-45.5 5q-36 0 -62.5 -11.5t-26.5 -27.5q0 -1 11 -22t11 -32q0 -22 -15.5 -36.5t-38.5 -14.5q-17 0 -30.5 7.5t-20.5 21.5t-7 33q0 54 55.5 89.5t139.5 35.5q46 0 78 -7t57.5 -24.5t38 -49t12.5 -78.5v-201 q0 -38 8.5 -53.5t29.5 -15.5q2 0 18.5 5.5t24.5 5.5q4 0 7 -3.5t3 -8.5q0 -17 -19 -32.5t-46 -22.5q-38 -9 -59 -39.5t-21 -77.5q0 -51 40 -51q29 0 49.5 10t31 20t14.5 10q10 0 10 -12q0 -35 -29.5 -63.5t-89.5 -28.5q-47 0 -80.5 30.5t-33.5 81.5q0 32 27 67t64 62 q-25 16 -38 59q-67 -79 -174 -79q-66 0 -105.5 32t-39.5 85zM145 116q0 -34 22.5 -56t56.5 -22q32 0 63.5 17t50.5 45q13 20 16.5 37.5t3.5 62.5v46q-87 -15 -132.5 -31.5t-63 -39t-17.5 -59.5z" />
<glyph unicode="&#x106;" horiz-adv-x="722" d="M45 354q0 157 100.5 270t238.5 113q50 0 87 -14t90 -53l40 59h53v-289h-44q-31 104 -57 149q-29 48 -73.5 74.5t-96.5 26.5q-103 0 -154.5 -87t-51.5 -253q0 -161 53.5 -239.5t164.5 -78.5q184 0 226 223l47 -8q-17 -126 -91 -194t-194 -68q-148 0 -243 104t-95 265z M282 769l168 126q37 28 60 28q17 0 29.5 -9t12.5 -22q0 -20 -30 -35l-191 -88h-49z" />
<glyph unicode="&#x107;" horiz-adv-x="444" d="M34 225q0 112 63 184t160 72q67 0 111.5 -34.5t44.5 -84.5q0 -30 -17.5 -49t-43.5 -19t-43 15.5t-17 40.5q0 22 20 46q6 9 6 12q0 12 -17 21t-39 9q-55 0 -89 -55.5t-34 -146.5q0 -88 35 -139t95 -51q39 0 66.5 23.5t51.5 77.5l39 -15q-32 -80 -74 -113.5t-109 -33.5 q-93 0 -151 66.5t-58 173.5zM181 524l140 140q31 31 50 31q14 0 24.5 -10.5t10.5 -24.5q0 -24 -25 -39l-159 -97h-41z" />
<glyph unicode="&#x108;" horiz-adv-x="722" d="M45 354q0 157 100.5 270t238.5 113q50 0 87 -14t90 -53l40 59h53v-289h-44q-31 104 -57 149q-29 48 -73.5 74.5t-96.5 26.5q-103 0 -154.5 -87t-51.5 -253q0 -161 53.5 -239.5t164.5 -78.5q184 0 226 223l47 -8q-17 -126 -91 -194t-194 -68q-148 0 -243 104t-95 265z M196 771l150 150h76l150 -150h-44l-144 91l-145 -91h-43z" />
<glyph unicode="&#x109;" horiz-adv-x="444" d="M34 225q0 112 63 184t160 72q67 0 111.5 -34.5t44.5 -84.5q0 -30 -17.5 -49t-43.5 -19t-43 15.5t-17 40.5q0 22 20 46q6 9 6 12q0 12 -17 21t-39 9q-55 0 -89 -55.5t-34 -146.5q0 -88 35 -139t95 -51q39 0 66.5 23.5t51.5 77.5l39 -15q-32 -80 -74 -113.5t-109 -33.5 q-93 0 -151 66.5t-58 173.5zM100 527l125 166h63l125 -166h-36l-120 101l-121 -101h-36z" />
<glyph unicode="&#x10a;" horiz-adv-x="722" d="M45 354q0 157 100.5 270t238.5 113q50 0 87 -14t90 -53l40 59h53v-289h-44q-31 104 -57 149q-29 48 -73.5 74.5t-96.5 26.5q-103 0 -154.5 -87t-51.5 -253q0 -161 53.5 -239.5t164.5 -78.5q184 0 226 223l47 -8q-17 -126 -91 -194t-194 -68q-148 0 -243 104t-95 265z M335 846q0 20 15 35t35 15t35 -15t15 -35q0 -21 -15 -35.5t-36 -14.5q-20 0 -34.5 15t-14.5 35z" />
<glyph unicode="&#x10b;" horiz-adv-x="444" d="M34 225q0 112 63 184t160 72q67 0 111.5 -34.5t44.5 -84.5q0 -30 -17.5 -49t-43.5 -19t-43 15.5t-17 40.5q0 22 20 46q6 9 6 12q0 12 -17 21t-39 9q-55 0 -89 -55.5t-34 -146.5q0 -88 35 -139t95 -51q39 0 66.5 23.5t51.5 77.5l39 -15q-32 -80 -74 -113.5t-109 -33.5 q-93 0 -151 66.5t-58 173.5zM207 610q0 20 15 35t35 15t35 -15t15 -35q0 -21 -15 -35.5t-36 -14.5q-20 0 -34.5 15t-14.5 35z" />
<glyph unicode="&#x10c;" horiz-adv-x="722" d="M45 354q0 157 100.5 270t238.5 113q50 0 87 -14t90 -53l40 59h53v-289h-44q-31 104 -57 149q-29 48 -73.5 74.5t-96.5 26.5q-103 0 -154.5 -87t-51.5 -253q0 -161 53.5 -239.5t164.5 -78.5q184 0 226 223l47 -8q-17 -126 -91 -194t-194 -68q-148 0 -243 104t-95 265z M197 921h44l144 -91l145 91h43l-150 -150h-76z" />
<glyph unicode="&#x10d;" horiz-adv-x="444" d="M34 225q0 112 63 184t160 72q67 0 111.5 -34.5t44.5 -84.5q0 -30 -17.5 -49t-43.5 -19t-43 15.5t-17 40.5q0 22 20 46q6 9 6 12q0 12 -17 21t-39 9q-55 0 -89 -55.5t-34 -146.5q0 -88 35 -139t95 -51q39 0 66.5 23.5t51.5 77.5l39 -15q-32 -80 -74 -113.5t-109 -33.5 q-93 0 -151 66.5t-58 173.5zM100 693h36l120 -101l121 101h36l-125 -166h-63z" />
<glyph unicode="&#x10e;" horiz-adv-x="778" d="M29 0v47h19q60 0 74.5 7.5t14.5 39.5v534q0 32 -14.5 39.5t-74.5 7.5h-19v47h318q163 0 243 -51q69 -45 105.5 -124.5t36.5 -181.5q0 -178 -92 -271.5t-275 -93.5h-336zM202 921h44l144 -91l145 91h43l-150 -150h-76zM249 102q0 -37 9.5 -46t47.5 -9h68q121 0 173.5 73 t52.5 241q0 166 -57 240t-185 74h-52q-37 0 -47 -9.5t-10 -46.5v-517z" />
<glyph unicode="&#x10f;" horiz-adv-x="574" d="M43 228q0 108 57 180.5t142 72.5q84 0 138 -74v226q0 32 -8 41t-35 9h-59v43l196 11v-621q0 -47 11 -60t51 -13h18v-43l-174 -7v79q-46 -87 -138 -87q-87 0 -143 68.5t-56 174.5zM148 216q0 -83 30 -130t83 -47q54 0 86 52.5t32 139.5q0 73 -19 120q-13 34 -40 55t-58 21 t-56.5 -20t-38.5 -53q-19 -50 -19 -138zM514 500q91 57 91 123q0 8 -6 8h-3q-4 -1 -12 -1q-30 0 -47 14t-17 39q0 23 17 38.5t42 15.5q32 0 53 -24t21 -62q0 -58 -38 -109q-27 -35 -81 -67z" />
<glyph unicode="&#x110;" horiz-adv-x="778" d="M29 0v47h19q60 0 74.5 7.5t14.5 39.5v256h-108v47h108v231q0 32 -14.5 39.5t-74.5 7.5h-19v47h318q164 0 243 -51q67 -43 104.5 -125t37.5 -185q0 -175 -92.5 -268t-274.5 -93h-336zM249 102q0 -37 9.5 -46t47.5 -9h68q121 0 173.5 72.5t52.5 241.5q0 166 -57 240 t-184 74h-53q-37 0 -47 -9.5t-10 -46.5v-222h180v-47h-180v-248z" />
<glyph unicode="&#x111;" horiz-adv-x="574" d="M43 228q0 108 57.5 180.5t142.5 72.5q83 0 137 -74v161h-139v47h139v18q0 32 -8 41t-35 9h-59v43l196 11v-122h80v-47h-80v-452q0 -47 11 -60t51 -13h18v-43l-174 -7v79q-46 -87 -138 -87q-87 0 -143 68.5t-56 174.5zM148 216q0 -83 30 -130t83 -47q54 0 86 52t32 140 q0 73 -19 120q-13 34 -40 55t-58 21t-56.5 -20t-38.5 -53q-19 -50 -19 -138z" />
<glyph unicode="&#x112;" horiz-adv-x="722" d="M29 0v47h18q61 0 75.5 7.5t14.5 39.5v534q0 32 -14.5 39.5t-75.5 7.5h-18v47h615v-256h-43q-11 68 -25.5 107t-42 63t-66 31.5t-103.5 7.5h-52q-41 0 -52 -9t-11 -41v-228h24q71 0 103.5 32t36.5 105h47v-328h-47q-2 78 -29.5 111t-114.5 33h-20v-255q0 -30 15.5 -39 t56.5 -9h66q114 0 161 46.5t71 173.5h44l-20 -267h-614zM205 819v54h313v-54h-313z" />
<glyph unicode="&#x113;" horiz-adv-x="500" d="M35 220q0 112 64 186.5t160 74.5q92 0 149 -71.5t57 -184.5h-324q0 -92 37.5 -139t101.5 -47q50 0 84.5 24.5t65.5 82.5l35 -19q-61 -142 -204 -142q-101 0 -163.5 65t-62.5 170zM102 583v54h313v-54h-313zM142 268h175q24 0 32.5 7.5t8.5 29.5q0 60 -27.5 96.5 t-73.5 36.5q-48 0 -81.5 -46.5t-33.5 -123.5z" />
<glyph unicode="&#x114;" horiz-adv-x="722" d="M29 0v47h18q61 0 75.5 7.5t14.5 39.5v534q0 32 -14.5 39.5t-75.5 7.5h-18v47h615v-256h-43q-11 68 -25.5 107t-42 63t-66 31.5t-103.5 7.5h-52q-41 0 -52 -9t-11 -41v-228h24q71 0 103.5 32t36.5 105h47v-328h-47q-2 78 -29.5 111t-114.5 33h-20v-255q0 -30 15.5 -39 t56.5 -9h66q114 0 161 46.5t71 173.5h44l-20 -267h-614zM191 917h43q5 -41 38 -63.5t89 -22.5t88.5 22.5t37.5 63.5h44q0 -64 -48.5 -103t-122.5 -39t-121.5 39t-47.5 103z" />
<glyph unicode="&#x115;" horiz-adv-x="500" d="M35 220q0 112 64 186.5t160 74.5q92 0 149 -71.5t57 -184.5h-324q0 -92 37.5 -139t101.5 -47q50 0 84.5 24.5t65.5 82.5l35 -19q-61 -142 -204 -142q-101 0 -163.5 65t-62.5 170zM117 676v13h36q4 -45 31.5 -70t74.5 -25q46 0 73.5 25t31.5 70h36v-14q0 -61 -40.5 -102 t-101.5 -41t-101 41t-40 103zM142 268h175q24 0 32.5 7.5t8.5 29.5q0 60 -27.5 96.5t-73.5 36.5q-48 0 -81.5 -46.5t-33.5 -123.5z" />
<glyph unicode="&#x116;" horiz-adv-x="722" d="M29 0v47h18q61 0 75.5 7.5t14.5 39.5v534q0 32 -14.5 39.5t-75.5 7.5h-18v47h615v-256h-43q-11 68 -25.5 107t-42 63t-66 31.5t-103.5 7.5h-52q-41 0 -52 -9t-11 -41v-228h24q71 0 103.5 32t36.5 105h47v-328h-47q-2 78 -29.5 111t-114.5 33h-20v-255q0 -30 15.5 -39 t56.5 -9h66q114 0 161 46.5t71 173.5h44l-20 -267h-614zM312 846q0 20 15 35t35 15t35 -15t15 -35q0 -21 -15 -35.5t-36 -14.5q-20 0 -34.5 15t-14.5 35z" />
<glyph unicode="&#x117;" horiz-adv-x="500" d="M35 220q0 112 64 186.5t160 74.5q92 0 149 -71.5t57 -184.5h-324q0 -92 37.5 -139t101.5 -47q50 0 84.5 24.5t65.5 82.5l35 -19q-61 -142 -204 -142q-101 0 -163.5 65t-62.5 170zM142 268h175q24 0 32.5 7.5t8.5 29.5q0 60 -27.5 96.5t-73.5 36.5q-48 0 -81.5 -46.5 t-33.5 -123.5zM209 610q0 20 15 35t35 15t35 -15t15 -35q0 -21 -15 -35.5t-36 -14.5q-20 0 -34.5 15t-14.5 35z" />
<glyph unicode="&#x118;" horiz-adv-x="722" d="M29 0v47h18q61 0 75.5 7.5t14.5 39.5v534q0 32 -14.5 39.5t-75.5 7.5h-18v47h615v-256h-43q-11 68 -25.5 107t-42 63t-66 31.5t-103.5 7.5h-52q-41 0 -52 -9t-11 -41v-228h24q71 0 103.5 32t36.5 105h47v-328h-47q-2 78 -29.5 111t-114.5 33h-20v-255q0 -30 15.5 -39 t56.5 -9h66q114 0 161 46.5t71 173.5h44l-20 -267h-17q-86 0 -110 -45q-18 -36 -18 -76q0 -51 40 -51q29 0 49.5 10t31 20t14.5 10q10 0 10 -12q0 -35 -29.5 -63.5t-89.5 -28.5q-47 0 -80.5 30.5t-33.5 81.5q0 60 84 124h-465z" />
<glyph unicode="&#x119;" horiz-adv-x="500" d="M35 220q0 112 64 186.5t160 74.5q92 0 149 -71.5t57 -184.5h-324q0 -92 37.5 -139t101.5 -47q50 0 84.5 24.5t65.5 82.5l35 -19q-30 -70 -82 -107q-33 -23 -48 -35.5t-30 -40.5t-15 -65q0 -51 40 -51q29 0 49.5 10t31 20t14.5 10q10 0 10 -12q0 -35 -29.5 -63.5 t-89.5 -28.5q-47 0 -80.5 30.5t-33.5 81.5t66 109h-7q-101 0 -163.5 65t-62.5 170zM142 268h175q24 0 32.5 7.5t8.5 29.5q0 60 -27.5 96.5t-73.5 36.5q-48 0 -81.5 -46.5t-33.5 -123.5z" />
<glyph unicode="&#x11a;" horiz-adv-x="722" d="M29 0v47h18q61 0 75.5 7.5t14.5 39.5v534q0 32 -14.5 39.5t-75.5 7.5h-18v47h615v-256h-43q-11 68 -25.5 107t-42 63t-66 31.5t-103.5 7.5h-52q-41 0 -52 -9t-11 -41v-228h24q71 0 103.5 32t36.5 105h47v-328h-47q-2 78 -29.5 111t-114.5 33h-20v-255q0 -30 15.5 -39 t56.5 -9h66q114 0 161 46.5t71 173.5h44l-20 -267h-614zM174 921h44l144 -91l145 91h43l-150 -150h-76z" />
<glyph unicode="&#x11b;" horiz-adv-x="500" d="M35 220q0 112 64 186.5t160 74.5q92 0 149 -71.5t57 -184.5h-324q0 -92 37.5 -139t101.5 -47q50 0 84.5 24.5t65.5 82.5l35 -19q-61 -142 -204 -142q-101 0 -163.5 65t-62.5 170zM102 693h36l120 -101l121 101h36l-125 -166h-63zM142 268h175q24 0 32.5 7.5t8.5 29.5 q0 60 -27.5 96.5t-73.5 36.5q-48 0 -81.5 -46.5t-33.5 -123.5z" />
<glyph unicode="&#x11c;" horiz-adv-x="778" d="M42 348q0 101 43 189.5t124 144t182 55.5q55 0 94 -15t88 -54l39 61h52v-281h-43q-62 242 -234 242q-104 0 -158.5 -87.5t-54.5 -254.5q0 -155 55.5 -235.5t160.5 -80.5q83 0 128.5 49.5t45.5 140.5q0 41 -14 50.5t-77 9.5h-19v47h318v-47h-15q-71 0 -84 -14 q-6 -7 -6 -62v-220h-42l-37 90q-49 -49 -97 -70t-111 -21q-144 0 -241 102t-97 261zM201 771l150 150h76l150 -150h-44l-144 91l-145 -91h-43z" />
<glyph unicode="&#x11d;" horiz-adv-x="537" d="M23 -100q0 62 92 95q-67 23 -67 86q0 41 22.5 65t72.5 35q-39 18 -61.5 54t-22.5 80q0 75 54 120.5t143 45.5q67 0 124 -38q35 32 53.5 42t42.5 10q29 0 47.5 -16t18.5 -42q0 -20 -13 -34t-32 -14t-30 12.5t-16 25.5t-9 13q-11 0 -34 -24q37 -44 37 -98q0 -103 -94 -145 q-25 -11 -48.5 -14.5t-94.5 -4.5q-50 -1 -72 -11.5t-22 -33.5q0 -19 12 -26q18 -9 70 -9h102q91 0 127 -14q28 -11 44 -39.5t16 -65.5q0 -158 -251 -158q-101 0 -156 27t-55 76zM99 527l125 166h63l125 -166h-36l-120 101l-121 -101h-36zM106 -92q0 -34 34.5 -52t97.5 -18 q84 0 130.5 23.5t46.5 66.5q0 24 -17.5 39.5t-47.5 18.5q-15 2 -104 2h-74q-36 -19 -51 -37t-15 -43zM150 314q0 -56 27 -89t74 -33q48 0 75 33t27 92q0 58 -25.5 89.5t-72.5 31.5q-50 0 -77.5 -32.5t-27.5 -91.5z" />
<glyph unicode="&#x11e;" horiz-adv-x="778" d="M42 348q0 101 43 189.5t124 144t182 55.5q55 0 94 -15t88 -54l39 61h52v-281h-43q-62 242 -234 242q-104 0 -158.5 -87.5t-54.5 -254.5q0 -155 55.5 -235.5t160.5 -80.5q83 0 128.5 49.5t45.5 140.5q0 41 -14 50.5t-77 9.5h-19v47h318v-47h-15q-71 0 -84 -14 q-6 -7 -6 -62v-220h-42l-37 90q-49 -49 -97 -70t-111 -21q-144 0 -241 102t-97 261zM219 917h43q5 -41 38 -63.5t89 -22.5t88.5 22.5t37.5 63.5h44q0 -64 -48.5 -103t-122.5 -39t-121.5 39t-47.5 103z" />
<glyph unicode="&#x11f;" horiz-adv-x="537" d="M23 -100q0 62 92 95q-67 23 -67 86q0 41 22.5 65t72.5 35q-39 18 -61.5 54t-22.5 80q0 75 54 120.5t143 45.5q67 0 124 -38q35 32 53.5 42t42.5 10q29 0 47.5 -16t18.5 -42q0 -20 -13 -34t-32 -14t-30 12.5t-16 25.5t-9 13q-11 0 -34 -24q37 -44 37 -98q0 -103 -94 -145 q-25 -11 -48.5 -14.5t-94.5 -4.5q-50 -1 -72 -11.5t-22 -33.5q0 -19 12 -26q18 -9 70 -9h102q91 0 127 -14q28 -11 44 -39.5t16 -65.5q0 -158 -251 -158q-101 0 -156 27t-55 76zM106 -92q0 -34 34.5 -52t97.5 -18q84 0 130.5 23.5t46.5 66.5q0 24 -17.5 39.5t-47.5 18.5 q-15 2 -104 2h-74q-36 -19 -51 -37t-15 -43zM114 676v13h36q4 -45 31.5 -70t74.5 -25q46 0 73.5 25t31.5 70h36v-14q0 -61 -40.5 -102t-101.5 -41t-101 41t-40 103zM150 314q0 -56 27 -89t74 -33q48 0 75 33t27 92q0 58 -25.5 89.5t-72.5 31.5q-50 0 -77.5 -32.5 t-27.5 -91.5z" />
<glyph unicode="&#x120;" horiz-adv-x="778" d="M42 348q0 101 43 189.5t124 144t182 55.5q55 0 94 -15t88 -54l39 61h52v-281h-43q-62 242 -234 242q-104 0 -158.5 -87.5t-54.5 -254.5q0 -155 55.5 -235.5t160.5 -80.5q83 0 128.5 49.5t45.5 140.5q0 41 -14 50.5t-77 9.5h-19v47h318v-47h-15q-71 0 -84 -14 q-6 -7 -6 -62v-220h-42l-37 90q-49 -49 -97 -70t-111 -21q-144 0 -241 102t-97 261zM340 846q0 20 15 35t35 15t35 -15t15 -35q0 -21 -15 -35.5t-36 -14.5q-20 0 -34.5 15t-14.5 35z" />
<glyph unicode="&#x121;" horiz-adv-x="537" d="M23 -100q0 62 92 95q-67 23 -67 86q0 41 22.5 65t72.5 35q-39 18 -61.5 54t-22.5 80q0 75 54 120.5t143 45.5q67 0 124 -38q35 32 53.5 42t42.5 10q29 0 47.5 -16t18.5 -42q0 -20 -13 -34t-32 -14t-30 12.5t-16 25.5t-9 13q-11 0 -34 -24q37 -44 37 -98q0 -103 -94 -145 q-25 -11 -48.5 -14.5t-94.5 -4.5q-50 -1 -72 -11.5t-22 -33.5q0 -19 12 -26q18 -9 70 -9h102q91 0 127 -14q28 -11 44 -39.5t16 -65.5q0 -158 -251 -158q-101 0 -156 27t-55 76zM106 -92q0 -34 34.5 -52t97.5 -18q84 0 130.5 23.5t46.5 66.5q0 24 -17.5 39.5t-47.5 18.5 q-15 2 -104 2h-74q-36 -19 -51 -37t-15 -43zM150 314q0 -56 27 -89t74 -33q48 0 75 33t27 92q0 58 -25.5 89.5t-72.5 31.5q-50 0 -77.5 -32.5t-27.5 -91.5zM206 610q0 20 15 35t35 15t35 -15t15 -35q0 -21 -15 -35.5t-36 -14.5q-20 0 -34.5 15t-14.5 35z" />
<glyph unicode="&#x122;" horiz-adv-x="778" d="M42 348q0 101 43 189.5t124 144t182 55.5q55 0 94 -15t88 -54l39 61h52v-281h-43q-62 242 -234 242q-104 0 -158.5 -87.5t-54.5 -254.5q0 -155 55.5 -235.5t160.5 -80.5q83 0 128.5 49.5t45.5 140.5q0 41 -14 50.5t-77 9.5h-19v47h318v-47h-15q-71 0 -84 -14 q-6 -7 -6 -62v-220h-42l-37 90q-49 -49 -97 -70t-111 -21q-144 0 -241 102t-97 261zM319 -277q91 57 91 123q0 8 -6 8h-3q-4 -1 -12 -1q-30 0 -47 14t-17 39q0 23 17 38.5t42 15.5q32 0 53 -24t21 -62q0 -58 -38 -109q-27 -35 -81 -67z" />
<glyph unicode="&#x123;" horiz-adv-x="537" d="M23 -100q0 62 92 95q-67 23 -67 86q0 41 22.5 65t72.5 35q-39 18 -61.5 54t-22.5 80q0 75 54 120.5t143 45.5q67 0 124 -38q35 32 53.5 42t42.5 10q29 0 47.5 -16t18.5 -42q0 -20 -13 -34t-32 -14t-30 12.5t-16 25.5t-9 13q-11 0 -34 -24q37 -44 37 -98q0 -103 -94 -145 q-25 -11 -48.5 -14.5t-94.5 -4.5q-50 -1 -72 -11.5t-22 -33.5q0 -19 12 -26q18 -9 70 -9h102q91 0 127 -14q28 -11 44 -39.5t16 -65.5q0 -158 -251 -158q-101 0 -156 27t-55 76zM106 -92q0 -34 34.5 -52t97.5 -18q84 0 130.5 23.5t46.5 66.5q0 24 -17.5 39.5t-47.5 18.5 q-15 2 -104 2h-74q-36 -19 -51 -37t-15 -43zM150 314q0 -56 27 -89t74 -33q48 0 75 33t27 92q0 58 -25.5 89.5t-72.5 31.5q-50 0 -77.5 -32.5t-27.5 -91.5zM187 585q0 58 38 109q27 35 81 67l20 -25q-91 -57 -91 -123q0 -8 6 -8h3q4 1 12 1q30 0 47 -14t17 -39 q0 -23 -17 -38.5t-42 -15.5q-32 0 -53 24t-21 62z" />
<glyph unicode="&#x124;" horiz-adv-x="833" d="M29 0v47h18q61 0 75.5 7.5t14.5 39.5v534q0 32 -14.5 39.5t-75.5 7.5h-18v47h329v-47h-19q-61 0 -75.5 -7.5t-14.5 -39.5v-227h335v227q0 32 -14.5 39.5t-75.5 7.5h-14v47h324v-47h-18q-61 0 -75.5 -7.5t-14.5 -39.5v-534q0 -32 14.5 -39.5t75.5 -7.5h18v-47h-328v47h18 q61 0 75.5 7.5t14.5 39.5v253h-335v-253q0 -32 14.5 -39.5t75.5 -7.5h19v-47h-329zM229 771l150 150h76l150 -150h-44l-144 91l-145 -91h-43z" />
<glyph unicode="&#x125;" horiz-adv-x="611" d="M15 683v43l185 11v-353q65 97 158 97q45 0 80.5 -20.5t54.5 -56.5q13 -25 17 -47.5t4 -76.5v-197q0 -32 9.5 -39.5t55.5 -7.5h14v-36h-253v36h14q47 0 56.5 7.5t9.5 39.5v201q0 69 -22 101q-11 15 -31.5 25t-39.5 10q-32 0 -62.5 -21t-46.5 -55q-18 -38 -18 -118v-143 q0 -32 9.5 -39.5t56.5 -7.5h14v-36h-253v36h14q46 0 55.5 7.5t9.5 39.5v550q0 32 -7.5 41t-35.5 9h-48zM118 786l150 150h76l150 -150h-44l-144 91l-145 -91h-43z" />
<glyph unicode="&#x126;" horiz-adv-x="833" d="M29 0v47h18q61 0 75.5 7.5t14.5 39.5v427h-108v42h108v65q0 32 -14.5 39.5t-75.5 7.5h-18v47h329v-47h-19q-61 0 -75.5 -7.5t-14.5 -39.5v-65h335v65q0 32 -14.5 39.5t-75.5 7.5h-14v47h324v-47h-18q-61 0 -75.5 -7.5t-14.5 -39.5v-65h108v-42h-108v-427 q0 -32 14.5 -39.5t75.5 -7.5h18v-47h-328v47h18q61 0 75.5 7.5t14.5 39.5v253h-335v-253q0 -32 14.5 -39.5t75.5 -7.5h19v-47h-329zM249 401h335v120h-335v-120z" />
<glyph unicode="&#x127;" horiz-adv-x="658" d="M40 448v36l91 40v109q0 32 -7.5 41t-35.5 9h-48v43l185 11v-171l106 46v-36l-106 -47v-145q65 97 158 97q45 0 80.5 -20.5t54.5 -56.5q13 -25 17 -47.5t4 -76.5v-197q0 -32 9.5 -39.5t55.5 -7.5h14v-36h-253v36h14q47 0 56.5 7.5t9.5 39.5v201q0 69 -22 101 q-11 15 -31.5 25t-39.5 10q-32 0 -62.5 -21t-46.5 -55q-18 -38 -18 -118v-143q0 -32 9.5 -39.5t56.5 -7.5h14v-36h-253v36h14q46 0 55.5 7.5t9.5 39.5v405z" />
<glyph unicode="&#x128;" horiz-adv-x="407" d="M38 0v47h20q61 0 75.5 7.5t14.5 39.5v534q0 32 -14.5 39.5t-75.5 7.5h-20v47h331v-47h-20q-60 0 -74.5 -7.5t-14.5 -39.5v-534q0 -32 14.5 -39.5t74.5 -7.5h20v-47h-331zM38 793q10 47 36.5 74t63.5 27q27 0 86 -27q43 -19 59 -19q17 0 32 14.5t19 36.5h35 q-5 -47 -35 -76.5t-73 -29.5q-19 0 -34.5 5t-54.5 23q-30 14 -52 14q-36 0 -47 -42h-35z" />
<glyph unicode="&#x129;" horiz-adv-x="315" d="M-7 557q10 47 36.5 74t63.5 27q27 0 86 -27q43 -19 59 -19q17 0 31.5 14.5t19.5 36.5h35q-5 -47 -35 -76.5t-73 -29.5q-30 0 -89 28q-30 14 -52 14q-36 0 -47 -42h-35zM18 412v43l188 11v-383q0 -31 11.5 -39t59.5 -8h12v-36h-259v36h12q47 0 58.5 8t11.5 39v279 q0 32 -7.5 41t-35.5 9h-51z" />
<glyph unicode="&#x12a;" horiz-adv-x="407" d="M38 0v47h20q61 0 75.5 7.5t14.5 39.5v534q0 32 -14.5 39.5t-75.5 7.5h-20v47h331v-47h-20q-60 0 -74.5 -7.5t-14.5 -39.5v-534q0 -32 14.5 -39.5t74.5 -7.5h20v-47h-331zM47 819v54h313v-54h-313z" />
<glyph unicode="&#x12b;" horiz-adv-x="315" d="M2 583v54h313v-54h-313zM18 412v43l188 11v-383q0 -31 11.5 -39t59.5 -8h12v-36h-259v36h12q47 0 58.5 8t11.5 39v279q0 32 -7.5 41t-35.5 9h-51z" />
<glyph unicode="&#x12c;" horiz-adv-x="407" d="M34 917h43q5 -41 38 -63.5t89 -22.5t88.5 22.5t37.5 63.5h44q0 -64 -48.5 -103t-122.5 -39t-121.5 39t-47.5 103zM38 0v47h20q61 0 75.5 7.5t14.5 39.5v534q0 32 -14.5 39.5t-75.5 7.5h-20v47h331v-47h-20q-60 0 -74.5 -7.5t-14.5 -39.5v-534q0 -32 14.5 -39.5t74.5 -7.5 h20v-47h-331z" />
<glyph unicode="&#x12d;" horiz-adv-x="315" d="M17 676v13h36q4 -45 31.5 -70t74.5 -25q46 0 73.5 25t31.5 70h36v-14q0 -61 -40.5 -102t-101.5 -41t-101 41t-40 103zM18 412v43l188 11v-383q0 -31 11.5 -39t59.5 -8h12v-36h-259v36h12q47 0 58.5 8t11.5 39v279q0 32 -7.5 41t-35.5 9h-51z" />
<glyph unicode="&#x12e;" horiz-adv-x="407" d="M38 0v47h20q61 0 75.5 7.5t14.5 39.5v534q0 32 -14.5 39.5t-75.5 7.5h-20v47h331v-47h-20q-60 0 -74.5 -7.5t-14.5 -39.5v-534q0 -32 14.5 -39.5t74.5 -7.5h20v-47h-9q-37 0 -57 -1.5t-45 -12t-36 -31.5q-18 -36 -18 -76q0 -51 40 -51q29 0 49.5 10t31 20t14.5 10 q10 0 10 -12q0 -35 -29.5 -63.5t-89.5 -28.5q-47 0 -80.5 30.5t-33.5 81.5q0 60 84 124h-162z" />
<glyph unicode="&#x12f;" horiz-adv-x="315" d="M18 412v43l188 11v-383q0 -31 11.5 -39t59.5 -8h12v-36h-56q-41 0 -65 -35.5t-24 -85.5q0 -51 40 -51q29 0 49.5 10t31 20t14.5 10q10 0 10 -12q0 -35 -29.5 -63.5t-89.5 -28.5q-47 0 -80.5 30.5t-33.5 81.5q0 60 84 124h-110v36h12q47 0 58.5 8t11.5 39v279 q0 32 -7.5 41t-35.5 9h-51zM109 610q0 20 15 35t35 15t35 -15t15 -35q0 -21 -15 -35.5t-36 -14.5q-20 0 -34.5 15t-14.5 35z" />
<glyph unicode="&#x130;" horiz-adv-x="407" d="M38 0v47h20q61 0 75.5 7.5t14.5 39.5v534q0 32 -14.5 39.5t-75.5 7.5h-20v47h331v-47h-20q-60 0 -74.5 -7.5t-14.5 -39.5v-534q0 -32 14.5 -39.5t74.5 -7.5h20v-47h-331zM154 846q0 20 15 35t35 15t35 -15t15 -35q0 -21 -15 -35.5t-36 -14.5q-20 0 -34.5 15t-14.5 35z " />
<glyph unicode="&#x131;" horiz-adv-x="315" d="M18 412v43l188 11v-383q0 -31 11.5 -39t59.5 -8h12v-36h-259v36h12q47 0 58.5 8t11.5 39v279q0 32 -7.5 41t-35.5 9h-51z" />
<glyph unicode="&#x134;" horiz-adv-x="556" d="M5 155q0 53 28 87.5t72 34.5q33 0 54 -20t21 -52q0 -31 -18 -51.5t-45 -20.5q-16 0 -37 5h-3q-12 0 -12 -16q0 -35 36 -62.5t85 -27.5q89 0 118 87q13 39 13 158v351q0 32 -14.5 39.5t-74.5 7.5h-19v47h328v-47h-19q-61 0 -75.5 -7.5t-14.5 -39.5v-360q0 -159 -53 -221 t-171 -62q-94 0 -146.5 47.5t-52.5 122.5zM185 771l150 150h76l150 -150h-44l-144 91l-145 -91h-43z" />
<glyph unicode="&#x135;" horiz-adv-x="296" d="M-82 -120q0 26 16 43t40 17q21 0 36.5 -14t15.5 -33q0 -9 -7 -24q-5 -13 -5 -16q0 -13 25 -13q16 0 32 10t23 25q19 39 19 148v339q0 32 -7.5 41t-35.5 9h-58v43l195 11v-395q0 -85 -9 -130t-32 -78q-47 -65 -136 -65q-50 0 -81 22.5t-31 59.5zM3 527l125 166h63 l125 -166h-36l-120 101l-121 -101h-36z" />
<glyph unicode="&#x136;" horiz-adv-x="778" d="M30 0v47h18q61 0 75.5 7.5t14.5 39.5v534q0 32 -14.5 39.5t-75.5 7.5h-18v47h329v-47h-19q-61 0 -75.5 -7.5t-14.5 -39.5v-301l245 246q49 49 49 72q0 30 -65 30h-25v47h308v-47q-94 0 -169 -80l-149 -149l242 -349q22 -33 39 -41.5t59 -8.5h19v-47h-342v47h31 q68 0 68 23q0 12 -20 42l-174 255l-116 -117v-156q0 -32 14.5 -39.5t75.5 -7.5h19v-47h-329zM340 -277q91 57 91 123q0 8 -6 8h-3q-4 -1 -12 -1q-30 0 -47 14t-17 39q0 23 17 38.5t42 15.5q32 0 53 -24t21 -62q0 -58 -38 -109q-27 -35 -81 -67z" />
<glyph unicode="&#x137;" horiz-adv-x="593" d="M14 683v43l185 11v-495l135 130q23 23 23 39q0 19 -47 19h-31v36h263v-36q-51 -6 -88.5 -25t-80.5 -62l-45 -44l142 -194q31 -39 53 -52t64 -17v-36h-264v36h19q44 0 44 17q0 6 -7 18l-119 167l-61 -58v-97q0 -32 9.5 -39.5t56.5 -7.5h14v-36h-253v36h14q46 0 55.5 7.5 t9.5 39.5v550q0 32 -7.5 41t-35.5 9h-48zM231 -277q91 57 91 123q0 8 -6 8h-3q-4 -1 -12 -1q-30 0 -47 14t-17 39q0 23 17 38.5t42 15.5q32 0 53 -24t21 -62q0 -58 -38 -109q-27 -35 -81 -67z" />
<glyph unicode="&#x139;" horiz-adv-x="667" d="M35 0v47h18q61 0 75.5 7.5t14.5 39.5v534q0 32 -14.5 39.5t-75.5 7.5h-18v47h328v-47h-18q-61 0 -75.5 -7.5t-14.5 -39.5v-533q0 -30 15.5 -39t56.5 -9h42q119 0 167 51.5t66 175.5h44l-21 -274h-590zM97 769l168 126q37 28 60 28q17 0 29.5 -9t12.5 -22q0 -20 -30 -35 l-191 -88h-49z" />
<glyph unicode="&#x13a;" horiz-adv-x="315" d="M19 683v43l185 11v-654q0 -32 9.5 -39.5t56.5 -7.5h17v-36h-259v36h17q46 0 55.5 7.5t9.5 39.5v550q0 32 -7.5 41t-34.5 9h-49zM40 784l168 126q37 28 60 28q17 0 29.5 -9t12.5 -22q0 -20 -30 -35l-191 -88h-49z" />
<glyph unicode="&#x13b;" horiz-adv-x="667" d="M35 0v47h18q61 0 75.5 7.5t14.5 39.5v534q0 32 -14.5 39.5t-75.5 7.5h-18v47h328v-47h-18q-61 0 -75.5 -7.5t-14.5 -39.5v-533q0 -30 15.5 -39t56.5 -9h42q119 0 167 51.5t66 175.5h44l-21 -274h-590zM263 -277q91 57 91 123q0 8 -6 8h-3q-4 -1 -12 -1q-30 0 -47 14 t-17 39q0 23 17 38.5t42 15.5q32 0 53 -24t21 -62q0 -58 -38 -109q-27 -35 -81 -67z" />
<glyph unicode="&#x13c;" horiz-adv-x="315" d="M19 683v43l185 11v-654q0 -32 9.5 -39.5t56.5 -7.5h17v-36h-259v36h17q46 0 55.5 7.5t9.5 39.5v550q0 32 -7.5 41t-34.5 9h-49zM87 -277q91 57 91 123q0 8 -6 8h-3q-4 -1 -12 -1q-30 0 -47 14t-17 39q0 23 17 38.5t42 15.5q32 0 53 -24t21 -62q0 -58 -38 -109 q-27 -35 -81 -67z" />
<glyph unicode="&#x13d;" horiz-adv-x="667" d="M35 0v47h18q61 0 75.5 7.5t14.5 39.5v534q0 32 -14.5 39.5t-75.5 7.5h-18v47h328v-47h-18q-61 0 -75.5 -7.5t-14.5 -39.5v-533q0 -30 15.5 -39t56.5 -9h42q119 0 167 51.5t66 175.5h44l-21 -274h-590zM403 485q91 57 91 123q0 8 -6 8h-3q-4 -1 -12 -1q-30 0 -47 14 t-17 39q0 23 17 38.5t42 15.5q32 0 53 -24t21 -62q0 -58 -38 -109q-27 -35 -81 -67z" />
<glyph unicode="&#x13e;" horiz-adv-x="315" d="M19 683v43l185 11v-654q0 -32 9.5 -39.5t56.5 -7.5h17v-36h-259v36h17q46 0 55.5 7.5t9.5 39.5v550q0 32 -7.5 41t-34.5 9h-49zM244 500q91 57 91 123q0 8 -6 8h-3q-4 -1 -12 -1q-30 0 -47 14t-17 39q0 23 17 38.5t42 15.5q32 0 53 -24t21 -62q0 -58 -38 -109 q-27 -35 -81 -67z" />
<glyph unicode="&#x13f;" horiz-adv-x="667" d="M35 0v47h18q61 0 75.5 7.5t14.5 39.5v534q0 32 -14.5 39.5t-75.5 7.5h-18v47h328v-47h-18q-61 0 -75.5 -7.5t-14.5 -39.5v-533q0 -30 15.5 -39t56.5 -9h42q119 0 167 51.5t66 175.5h44l-21 -274h-590zM483 384q0 20 15 35t35 15t35 -15t15 -35q0 -21 -15 -35.5t-36 -14.5 q-20 0 -34.5 15t-14.5 35z" />
<glyph unicode="&#x140;" horiz-adv-x="315" d="M19 683v43l185 11v-654q0 -32 9.5 -39.5t56.5 -7.5h17v-36h-259v36h17q46 0 55.5 7.5t9.5 39.5v550q0 32 -7.5 41t-34.5 9h-49zM265 384q0 20 15 35t35 15t35 -15t15 -35q0 -21 -15 -35.5t-36 -14.5q-20 0 -34.5 15t-14.5 35z" />
<glyph unicode="&#x141;" horiz-adv-x="667" d="M34 0v47h18q61 0 75.5 7.5t14.5 39.5v174l-108 -75v55l108 76v304q0 32 -14.5 39.5t-75.5 7.5h-18v47h328v-47h-18q-61 0 -75.5 -7.5t-14.5 -39.5v-239l187 137v-58l-187 -136v-237q0 -30 15.5 -39t56.5 -9h43q62 0 103 13t67 43t39.5 69.5t22.5 101.5h44l-20 -274h-591z " />
<glyph unicode="&#x142;" horiz-adv-x="315" d="M19 683v43l185 11v-249l78 79v-64l-78 -79v-341q0 -30 13.5 -38.5t62.5 -8.5h7v-36h-259v36h7q48 0 61.5 8.5t13.5 38.5v262l-78 -79v64l78 79v224q0 32 -7.5 41t-34.5 9h-49z" />
<glyph unicode="&#x143;" horiz-adv-x="815" d="M19 675v47h206l399 -531v314q0 103 -22 135t-93 35v47h285v-47q-72 -3 -94 -35t-22 -135v-519h-42l-446 602v-371q0 -103 22 -135t93 -35v-47h-285v47q72 3 94 35t22 135v425q-13 19 -33.5 26t-58.5 7h-25zM305 769l168 126q37 28 60 28q17 0 29.5 -9t12.5 -22 q0 -20 -30 -35l-191 -88h-49z" />
<glyph unicode="&#x144;" horiz-adv-x="611" d="M27 0v36h14q46 0 55.5 7.5t9.5 39.5v279q0 32 -7.5 41t-35.5 9h-36v43l173 11v-81q64 96 158 96q44 0 80 -20.5t55 -56.5q13 -25 17 -47.5t4 -76.5v-197q0 -32 9.5 -39.5t55.5 -7.5h14v-36h-253v36h14q47 0 56.5 7.5t9.5 39.5v202q0 69 -22 100q-11 15 -31.5 25t-39.5 10 q-32 0 -62.5 -21t-46.5 -55q-18 -38 -18 -117v-144q0 -32 9.5 -39.5t56.5 -7.5h14v-36h-253zM230 524l140 140q31 31 50 31q14 0 24.5 -10.5t10.5 -24.5q0 -24 -25 -39l-159 -97h-41z" />
<glyph unicode="&#x145;" horiz-adv-x="815" d="M19 675v47h206l399 -531v314q0 103 -22 135t-93 35v47h285v-47q-72 -3 -94 -35t-22 -135v-519h-42l-446 602v-371q0 -103 22 -135t93 -35v-47h-285v47q72 3 94 35t22 135v425q-13 19 -33.5 26t-58.5 7h-25zM337 -277q91 57 91 123q0 8 -6 8h-3q-4 -1 -12 -1q-30 0 -47 14 t-17 39q0 23 17 38.5t42 15.5q32 0 53 -24t21 -62q0 -58 -38 -109q-27 -35 -81 -67z" />
<glyph unicode="&#x146;" horiz-adv-x="611" d="M27 0v36h14q46 0 55.5 7.5t9.5 39.5v279q0 32 -7.5 41t-35.5 9h-36v43l173 11v-81q64 96 158 96q44 0 80 -20.5t55 -56.5q13 -25 17 -47.5t4 -76.5v-197q0 -32 9.5 -39.5t55.5 -7.5h14v-36h-253v36h14q47 0 56.5 7.5t9.5 39.5v202q0 69 -22 100q-11 15 -31.5 25t-39.5 10 q-32 0 -62.5 -21t-46.5 -55q-18 -38 -18 -117v-144q0 -32 9.5 -39.5t56.5 -7.5h14v-36h-253zM235 -277q91 57 91 123q0 8 -6 8h-3q-4 -1 -12 -1q-30 0 -47 14t-17 39q0 23 17 38.5t42 15.5q32 0 53 -24t21 -62q0 -58 -38 -109q-27 -35 -81 -67z" />
<glyph unicode="&#x147;" horiz-adv-x="815" d="M19 675v47h206l399 -531v314q0 103 -22 135t-93 35v47h285v-47q-72 -3 -94 -35t-22 -135v-519h-42l-446 602v-371q0 -103 22 -135t93 -35v-47h-285v47q72 3 94 35t22 135v425q-13 19 -33.5 26t-58.5 7h-25zM220 921h44l144 -91l145 91h43l-150 -150h-76z" />
<glyph unicode="&#x148;" horiz-adv-x="611" d="M27 0v36h14q46 0 55.5 7.5t9.5 39.5v279q0 32 -7.5 41t-35.5 9h-36v43l173 11v-81q64 96 158 96q44 0 80 -20.5t55 -56.5q13 -25 17 -47.5t4 -76.5v-197q0 -32 9.5 -39.5t55.5 -7.5h14v-36h-253v36h14q47 0 56.5 7.5t9.5 39.5v202q0 69 -22 100q-11 15 -31.5 25t-39.5 10 q-32 0 -62.5 -21t-46.5 -55q-18 -38 -18 -117v-144q0 -32 9.5 -39.5t56.5 -7.5h14v-36h-253zM149 693h36l120 -101l121 101h36l-125 -166h-63z" />
<glyph unicode="&#x14a;" horiz-adv-x="815" d="M19 675v47h206l399 -531v314q0 103 -22 135t-93 35v47h285v-47q-72 -3 -94 -35t-22 -135v-519q0 -83 -20 -153t-67 -117.5t-113 -47.5q-50 0 -81 22.5t-31 59.5q0 26 16 43t40 17q21 0 36.5 -14t15.5 -33q0 -9 -7 -24q-5 -12 -5 -16q0 -13 25 -13q43 0 71.5 25t42 70.5 t18.5 91.5t5 106l-434 585v-371q0 -103 22 -135t93 -35v-47h-285v47q72 3 94 35t22 135v425q-13 19 -33.5 26t-58.5 7h-25z" />
<glyph unicode="&#x14b;" horiz-adv-x="611" d="M27 0v36h14q46 0 55.5 7.5t9.5 39.5v279q0 32 -7.5 41t-35.5 9h-36v43l173 11v-81q64 96 158 96q44 0 80 -20.5t55 -56.5q13 -25 17 -47.5t4 -76.5v-197q0 -415 -209 -415q-50 0 -81 22.5t-31 59.5q0 26 16 43t40 17q21 0 36.5 -14t15.5 -33q0 -9 -7 -24q-5 -12 -5 -16 q0 -13 25 -13q19 0 35 8.5t26.5 27t18.5 37.5t12.5 51.5t7.5 56t4.5 64.5t1.5 63.5v64.5v202q0 69 -22 100q-11 15 -31.5 25t-39.5 10q-32 0 -62.5 -21t-46.5 -55q-18 -38 -18 -117v-144q0 -32 9.5 -39.5t56.5 -7.5h14v-36h-253z" />
<glyph unicode="&#x14c;" horiz-adv-x="778" d="M45 360q0 157 97.5 267t250.5 110q144 0 242 -108.5t98 -267.5q0 -161 -98.5 -268.5t-245.5 -107.5q-146 0 -245 107.5t-99 267.5zM177 363q0 -170 53 -250.5t159 -80.5q212 0 212 329t-209 329q-108 0 -161.5 -79.5t-53.5 -247.5zM233 819v54h313v-54h-313z" />
<glyph unicode="&#x14d;" horiz-adv-x="500" d="M34 232q0 105 63 177t155 72q89 0 151.5 -72.5t62.5 -175.5t-63 -175.5t-153 -72.5t-153 72t-63 175zM95 583v54h313v-54h-313zM139 232q0 -99 28.5 -151.5t82.5 -52.5t82.5 52.5t28.5 152.5q0 99 -28 152t-81 53q-113 0 -113 -206z" />
<glyph unicode="&#x14e;" horiz-adv-x="778" d="M45 360q0 157 97.5 267t250.5 110q144 0 242 -108.5t98 -267.5q0 -161 -98.5 -268.5t-245.5 -107.5q-146 0 -245 107.5t-99 267.5zM177 363q0 -170 53 -250.5t159 -80.5q212 0 212 329t-209 329q-108 0 -161.5 -79.5t-53.5 -247.5zM219 917h43q5 -41 38 -63.5t89 -22.5 t88.5 22.5t37.5 63.5h44q0 -64 -48.5 -103t-122.5 -39t-121.5 39t-47.5 103z" />
<glyph unicode="&#x14f;" horiz-adv-x="500" d="M34 232q0 105 63 177t155 72q89 0 151.5 -72.5t62.5 -175.5t-63 -175.5t-153 -72.5t-153 72t-63 175zM110 676v13h36q4 -45 31.5 -70t74.5 -25q46 0 73.5 25t31.5 70h36v-14q0 -61 -40.5 -102t-101.5 -41t-101 41t-40 103zM139 232q0 -99 28.5 -151.5t82.5 -52.5 t82.5 52.5t28.5 152.5q0 99 -28 152t-81 53q-113 0 -113 -206z" />
<glyph unicode="&#x150;" horiz-adv-x="778" d="M45 360q0 157 97.5 267t250.5 110q144 0 242 -108.5t98 -267.5q0 -161 -98.5 -268.5t-245.5 -107.5q-146 0 -245 107.5t-99 267.5zM177 363q0 -170 53 -250.5t159 -80.5q212 0 212 329t-209 329q-108 0 -161.5 -79.5t-53.5 -247.5zM317 792l35 98q21 59 53 59 q11 0 19 -8.5t8 -19.5q0 -19 -18 -40l-81 -98zM435 792l35 98q21 59 53 59q11 0 19 -8.5t8 -19.5q0 -18 -18 -40l-81 -98z" />
<glyph unicode="&#x151;" horiz-adv-x="500" d="M34 232q0 105 63 177t155 72q89 0 151.5 -72.5t62.5 -175.5t-63 -175.5t-153 -72.5t-153 72t-63 175zM139 232q0 -99 28.5 -151.5t82.5 -52.5t82.5 52.5t28.5 152.5q0 99 -28 152t-81 53q-113 0 -113 -206zM180 536l35 98q21 59 53 59q11 0 19 -8.5t8 -19.5 q0 -19 -18 -40l-81 -98zM298 536l35 98q21 59 53 59q11 0 19 -8.5t8 -19.5q0 -18 -18 -40l-81 -98z" />
<glyph unicode="&#x152;" horiz-adv-x="1000" d="M19 366q0 154 96 255t266 101h570l14 -256h-44q-22 131 -67 170t-169 39h-26q-41 0 -52 -9t-11 -41v-228h23q70 0 98 31t32 106h47v-328h-47q-1 33 -3 51.5t-9.5 39t-21.5 30.5t-38.5 16.5t-61.5 6.5h-19v-255q0 -30 15.5 -39t56.5 -9h37q111 0 158.5 45.5t73.5 174.5h44 l-20 -267h-588q-81 0 -139 21.5t-104 68.5q-52 54 -81.5 126.5t-29.5 149.5zM151 360q0 -313 197 -313q39 0 70 14.5t46 40.5q20 35 20 135v272q0 56 -5 78.5t-21 42.5q-36 45 -111 45q-196 0 -196 -315z" />
<glyph unicode="&#x153;" horiz-adv-x="833" d="M34 232q0 104 63.5 176.5t155.5 72.5q49 0 94 -23.5t73 -63.5q68 87 172 87q92 0 150 -71.5t58 -184.5h-328q0 -96 38.5 -141t102.5 -45q50 0 85.5 25t66.5 82l35 -19q-61 -142 -206 -142q-115 0 -176 77q-64 -77 -170 -77q-94 0 -154 69t-60 178zM139 229q0 -97 29 -149 t84 -52q114 0 114 211q0 96 -29 147.5t-83 51.5q-115 0 -115 -209zM473 268h177q25 0 33.5 7.5t8.5 29.5q0 60 -28 96.5t-74 36.5q-49 0 -81.5 -45t-35.5 -125z" />
<glyph unicode="&#x154;" horiz-adv-x="722" d="M26 0v47h18q61 0 75.5 7.5t14.5 39.5v534q0 32 -14.5 39.5t-75.5 7.5h-18v47h346q126 0 195 -47t69 -132q0 -149 -213 -179q59 -15 90.5 -50t48.5 -104l16 -63q13 -53 22.5 -69.5t27.5 -16.5q20 0 30 23.5t13 75.5h42q-2 -90 -32 -132.5t-92 -42.5q-59 0 -89.5 37.5 t-38.5 121.5l-5 51q-9 86 -45.5 120.5t-106.5 34.5h-58v-256q0 -32 14.5 -39.5t75.5 -7.5h18v-47h-328zM246 397h110q78 0 117.5 34t39.5 111q0 68 -35 100.5t-109 32.5h-54q-48 0 -58.5 -5t-10.5 -28v-245zM259 769l168 126q37 28 60 28q17 0 29.5 -9t12.5 -22 q0 -20 -30 -35l-191 -88h-49z" />
<glyph unicode="&#x155;" horiz-adv-x="444" d="M21 412v43l177 11v-124q24 66 63.5 102.5t86.5 36.5q40 0 63.5 -22t23.5 -58q0 -31 -17 -49.5t-44 -18.5q-24 0 -39.5 15.5t-15.5 39.5t18 45q-36 -4 -64 -34t-43.5 -75t-23.5 -93.5t-8 -97.5v-50q0 -30 13.5 -38.5t61.5 -8.5h19v-36h-267v36h14q47 0 56.5 7.5t9.5 39.5 v279q0 32 -7.5 41t-35.5 9h-41zM122 524l140 140q31 31 50 31q14 0 24.5 -10.5t10.5 -24.5q0 -24 -25 -39l-159 -97h-41z" />
<glyph unicode="&#x156;" horiz-adv-x="722" d="M26 0v47h18q61 0 75.5 7.5t14.5 39.5v534q0 32 -14.5 39.5t-75.5 7.5h-18v47h346q126 0 195 -47t69 -132q0 -149 -213 -179q59 -15 90.5 -50t48.5 -104l16 -63q13 -53 22.5 -69.5t27.5 -16.5q20 0 30 23.5t13 75.5h42q-2 -90 -32 -132.5t-92 -42.5q-59 0 -89.5 37.5 t-38.5 121.5l-5 51q-9 86 -45.5 120.5t-106.5 34.5h-58v-256q0 -32 14.5 -39.5t75.5 -7.5h18v-47h-328zM246 397h110q78 0 117.5 34t39.5 111q0 68 -35 100.5t-109 32.5h-54q-48 0 -58.5 -5t-10.5 -28v-245zM291 -277q91 57 91 123q0 8 -6 8h-3q-4 -1 -12 -1q-30 0 -47 14 t-17 39q0 23 17 38.5t42 15.5q32 0 53 -24t21 -62q0 -58 -38 -109q-27 -35 -81 -67z" />
<glyph unicode="&#x157;" horiz-adv-x="444" d="M21 412v43l177 11v-124q24 66 63.5 102.5t86.5 36.5q40 0 63.5 -22t23.5 -58q0 -31 -17 -49.5t-44 -18.5q-24 0 -39.5 15.5t-15.5 39.5t18 45q-36 -4 -64 -34t-43.5 -75t-23.5 -93.5t-8 -97.5v-50q0 -30 13.5 -38.5t61.5 -8.5h19v-36h-267v36h14q47 0 56.5 7.5t9.5 39.5 v279q0 32 -7.5 41t-35.5 9h-41zM88 -277q91 57 91 123q0 8 -6 8h-3q-4 -1 -12 -1q-30 0 -47 14t-17 39q0 23 17 38.5t42 15.5q32 0 53 -24t21 -62q0 -58 -38 -109q-27 -35 -81 -67z" />
<glyph unicode="&#x158;" horiz-adv-x="722" d="M26 0v47h18q61 0 75.5 7.5t14.5 39.5v534q0 32 -14.5 39.5t-75.5 7.5h-18v47h346q126 0 195 -47t69 -132q0 -149 -213 -179q59 -15 90.5 -50t48.5 -104l16 -63q13 -53 22.5 -69.5t27.5 -16.5q20 0 30 23.5t13 75.5h42q-2 -90 -32 -132.5t-92 -42.5q-59 0 -89.5 37.5 t-38.5 121.5l-5 51q-9 86 -45.5 120.5t-106.5 34.5h-58v-256q0 -32 14.5 -39.5t75.5 -7.5h18v-47h-328zM174 921h44l144 -91l145 91h43l-150 -150h-76zM246 397h110q78 0 117.5 34t39.5 111q0 68 -35 100.5t-109 32.5h-54q-48 0 -58.5 -5t-10.5 -28v-245z" />
<glyph unicode="&#x159;" horiz-adv-x="444" d="M21 412v43l177 11v-124q24 66 63.5 102.5t86.5 36.5q40 0 63.5 -22t23.5 -58q0 -31 -17 -49.5t-44 -18.5q-24 0 -39.5 15.5t-15.5 39.5t18 45q-36 -4 -64 -34t-43.5 -75t-23.5 -93.5t-8 -97.5v-50q0 -30 13.5 -38.5t61.5 -8.5h19v-36h-267v36h14q47 0 56.5 7.5t9.5 39.5 v279q0 32 -7.5 41t-35.5 9h-41zM41 693h36l120 -101l121 101h36l-125 -166h-63z" />
<glyph unicode="&#x15a;" horiz-adv-x="630" d="M51 277h43q21 -107 78 -171q68 -75 174 -75q75 0 121 40q45 41 45 100q0 60 -46 95q-15 12 -30 17t-72 20l-95 24q-110 29 -155.5 74t-45.5 127q0 94 60.5 151.5t158.5 57.5q110 0 182 -69l40 60h37l12 -260h-43q-20 77 -60 134q-61 87 -167 87q-64 0 -103 -32.5 t-39 -85.5q0 -89 131 -123l107 -27q109 -27 146 -63q60 -58 60 -153q0 -101 -65.5 -160.5t-175.5 -59.5q-65 0 -112.5 17t-97.5 58l-45 -68h-39zM213 769l168 126q37 28 60 28q17 0 29.5 -9t12.5 -22q0 -20 -30 -35l-191 -88h-49z" />
<glyph unicode="&#x15b;" horiz-adv-x="463" d="M51 -7v189h40q18 -75 61.5 -114.5t106.5 -39.5q44 0 72 22.5t28 57.5q0 30 -23.5 47.5t-83.5 31.5l-53 12q-76 18 -106 45q-35 32 -35 92q0 65 40 105t106 40q71 0 122 -40l29 36h35v-168h-35q-21 60 -49 88q-41 40 -97 40q-41 0 -67 -19.5t-26 -49.5q0 -37 35 -53 q18 -10 73 -22l50 -11q46 -10 66.5 -18t38.5 -24q42 -35 42 -101q0 -70 -44.5 -112t-118.5 -42q-76 0 -137 49l-35 -41h-35zM156 524l140 140q31 31 50 31q14 0 24.5 -10.5t10.5 -24.5q0 -24 -25 -39l-159 -97h-41z" />
<glyph unicode="&#x15c;" horiz-adv-x="630" d="M51 277h43q21 -107 78 -171q68 -75 174 -75q75 0 121 40q45 41 45 100q0 60 -46 95q-15 12 -30 17t-72 20l-95 24q-110 29 -155.5 74t-45.5 127q0 94 60.5 151.5t158.5 57.5q110 0 182 -69l40 60h37l12 -260h-43q-20 77 -60 134q-61 87 -167 87q-64 0 -103 -32.5 t-39 -85.5q0 -89 131 -123l107 -27q109 -27 146 -63q60 -58 60 -153q0 -101 -65.5 -160.5t-175.5 -59.5q-65 0 -112.5 17t-97.5 58l-45 -68h-39zM127 771l150 150h76l150 -150h-44l-144 91l-145 -91h-43z" />
<glyph unicode="&#x15d;" horiz-adv-x="463" d="M51 -7v189h40q18 -75 61.5 -114.5t106.5 -39.5q44 0 72 22.5t28 57.5q0 30 -23.5 47.5t-83.5 31.5l-53 12q-76 18 -106 45q-35 32 -35 92q0 65 40 105t106 40q71 0 122 -40l29 36h35v-168h-35q-21 60 -49 88q-41 40 -97 40q-41 0 -67 -19.5t-26 -49.5q0 -37 35 -53 q18 -10 73 -22l50 -11q46 -10 66.5 -18t38.5 -24q42 -35 42 -101q0 -70 -44.5 -112t-118.5 -42q-76 0 -137 49l-35 -41h-35zM75 527l125 166h63l125 -166h-36l-120 101l-121 -101h-36z" />
<glyph unicode="&#x15e;" horiz-adv-x="630" d="M51 277h43q21 -107 78 -171q68 -75 174 -75q75 0 121 40q45 41 45 100q0 60 -46 95q-15 12 -30 17t-72 20l-95 24q-110 29 -155.5 74t-45.5 127q0 94 60.5 151.5t158.5 57.5q110 0 182 -69l40 60h37l12 -260h-43q-20 77 -60 134q-61 87 -167 87q-64 0 -103 -32.5 t-39 -85.5q0 -89 131 -123l107 -27q109 -27 146 -63q60 -58 60 -153q0 -100 -65 -160t-173 -60q-15 0 -26 1l-18 -49q21 3 29 3q37 0 59.5 -19t22.5 -49q0 -38 -33.5 -62.5t-87.5 -24.5q-44 0 -87 17l14 33q36 -12 61 -12q26 0 41.5 11t15.5 29q0 17 -13 28t-34 11 q-14 0 -34 -5l-9 5l39 87q-48 8 -81 23t-72 48l-45 -68h-39z" />
<glyph unicode="&#x15f;" horiz-adv-x="463" d="M51 -7v189h40q18 -75 61.5 -114.5t106.5 -39.5q44 0 72 22.5t28 57.5q0 30 -23.5 47.5t-83.5 31.5l-53 12q-76 18 -106 45q-35 32 -35 92q0 65 40 105t106 40q71 0 122 -40l29 36h35v-168h-35q-21 60 -49 88q-41 40 -97 40q-41 0 -67 -19.5t-26 -49.5q0 -37 35 -53 q18 -10 73 -22l50 -11q46 -10 66.5 -18t38.5 -24q42 -35 42 -101q0 -69 -44.5 -111.5t-117.5 -42.5h-16l-18 -48q19 3 28 3q37 0 59.5 -19t22.5 -49q0 -38 -33.5 -62.5t-86.5 -24.5q-45 0 -88 17l15 33q35 -12 61 -12q25 0 40.5 11t15.5 29q0 17 -13 28t-34 11q-14 0 -34 -5 l-8 5l39 89q-53 13 -88 43l-35 -41h-35z" />
<glyph unicode="&#x160;" horiz-adv-x="630" d="M51 277h43q21 -107 78 -171q68 -75 174 -75q75 0 121 40q45 41 45 100q0 60 -46 95q-15 12 -30 17t-72 20l-95 24q-110 29 -155.5 74t-45.5 127q0 94 60.5 151.5t158.5 57.5q110 0 182 -69l40 60h37l12 -260h-43q-20 77 -60 134q-61 87 -167 87q-64 0 -103 -32.5 t-39 -85.5q0 -89 131 -123l107 -27q109 -27 146 -63q60 -58 60 -153q0 -101 -65.5 -160.5t-175.5 -59.5q-65 0 -112.5 17t-97.5 58l-45 -68h-39zM128 921h44l144 -91l145 91h43l-150 -150h-76z" />
<glyph unicode="&#x161;" horiz-adv-x="463" d="M51 -7v189h40q18 -75 61.5 -114.5t106.5 -39.5q44 0 72 22.5t28 57.5q0 30 -23.5 47.5t-83.5 31.5l-53 12q-76 18 -106 45q-35 32 -35 92q0 65 40 105t106 40q71 0 122 -40l29 36h35v-168h-35q-21 60 -49 88q-41 40 -97 40q-41 0 -67 -19.5t-26 -49.5q0 -37 35 -53 q18 -10 73 -22l50 -11q46 -10 66.5 -18t38.5 -24q42 -35 42 -101q0 -70 -44.5 -112t-118.5 -42q-76 0 -137 49l-35 -41h-35zM75 693h36l120 -101l121 101h36l-125 -166h-63z" />
<glyph unicode="&#x162;" horiz-adv-x="667" d="M19 444l15 278h599l15 -278h-43q-12 85 -33 137q-19 45 -54 69.5t-81 24.5q-47 0 -47 -36v-545q0 -32 14.5 -39.5t74.5 -7.5h26v-47h-157l-22 -63q21 3 29 3q37 0 59.5 -19t22.5 -49q0 -38 -33.5 -62.5t-86.5 -24.5q-45 0 -88 17l14 33q36 -12 61 -12q26 0 41.5 11 t15.5 29q0 17 -13 28t-34 11q-14 0 -34 -5l-9 5l42 98h-151v47h26q61 0 75.5 7.5t14.5 39.5v545q0 36 -47 36q-102 0 -142 -111q-17 -50 -27 -120h-43z" />
<glyph unicode="&#x163;" horiz-adv-x="389" d="M18 423v39q120 9 135 202h41v-198h147v-43h-147v-273q0 -60 12.5 -82t46.5 -22q73 0 78 136h42q1 -10 1 -23q0 -73 -36.5 -122t-104.5 -52l-17 -48q21 3 29 3q37 0 59.5 -19t22.5 -49q0 -38 -33.5 -62.5t-86.5 -24.5q-45 0 -88 17l14 33q36 -12 61 -12q26 0 41.5 11 t15.5 29q0 17 -13 28t-34 11q-14 0 -34 -5l-9 5l36 85q-64 11 -85 63q-12 28 -12 118v255h-82z" />
<glyph unicode="&#x164;" horiz-adv-x="667" d="M19 444l15 278h599l15 -278h-43q-12 85 -33 137q-19 45 -54 69.5t-81 24.5q-47 0 -47 -36v-545q0 -32 14.5 -39.5t74.5 -7.5h26v-47h-343v47h26q61 0 75.5 7.5t14.5 39.5v545q0 36 -47 36q-102 0 -142 -111q-17 -50 -27 -120h-43zM146 921h44l144 -91l145 91h43 l-150 -150h-76z" />
<glyph unicode="&#x165;" horiz-adv-x="389" d="M18 423v39q120 9 135 202h41v-198h147v-43h-147v-273q0 -60 12.5 -82t46.5 -22q73 0 78 136h42q1 -10 1 -23q0 -75 -38.5 -124.5t-109.5 -49.5q-88 0 -114 65q-12 28 -12 118v255h-82zM214 511q91 57 91 123q0 8 -6 8h-3q-4 -1 -12 -1q-30 0 -47 14t-17 39q0 23 17 38.5 t42 15.5q32 0 53 -24t21 -62q0 -58 -38 -109q-27 -35 -81 -67z" />
<glyph unicode="&#x168;" horiz-adv-x="815" d="M17 675v47h327v-47h-19q-61 0 -75.5 -7.5t-14.5 -39.5v-364q0 -113 43 -169t149 -56q110 0 156 64.5t46 180.5v221q0 103 -22 135t-93 35v47h285v-47q-72 -3 -94 -35t-22 -135v-227q0 -154 -71.5 -223.5t-211.5 -69.5q-129 0 -203 53t-74 163v427q0 32 -14.5 39.5 t-74.5 7.5h-17zM242 793q10 47 36.5 74t63.5 27q27 0 86 -27q43 -19 59 -19q17 0 32 14.5t19 36.5h35q-5 -47 -35 -76.5t-73 -29.5q-19 0 -34.5 5t-54.5 23q-30 14 -52 14q-36 0 -47 -42h-35z" />
<glyph unicode="&#x169;" horiz-adv-x="611" d="M21 412v43l175 11v-305q0 -41 2.5 -55.5t12.5 -28.5q20 -31 70 -31q77 0 110 70q21 46 21 123v123q0 32 -7.5 41t-35.5 9h-51v43l188 11v-350q0 -48 11 -60.5t52 -12.5h25v-43l-182 -7v83q-33 -48 -70 -69.5t-86 -21.5q-93 0 -135 64q-19 29 -19 97v216q0 32 -7.5 41 t-35.5 9h-38zM138 557q10 47 36.5 74t63.5 27q27 0 86 -27q43 -19 59 -19q17 0 32 14.5t19 36.5h35q-5 -47 -35 -76.5t-73 -29.5q-19 0 -34.5 5t-54.5 23q-30 14 -52 14q-36 0 -47 -42h-35z" />
<glyph unicode="&#x16a;" horiz-adv-x="815" d="M17 675v47h327v-47h-19q-61 0 -75.5 -7.5t-14.5 -39.5v-364q0 -113 43 -169t149 -56q110 0 156 64.5t46 180.5v221q0 103 -22 135t-93 35v47h285v-47q-72 -3 -94 -35t-22 -135v-227q0 -154 -71.5 -223.5t-211.5 -69.5q-129 0 -203 53t-74 163v427q0 32 -14.5 39.5 t-74.5 7.5h-17zM251 819v54h313v-54h-313z" />
<glyph unicode="&#x16b;" horiz-adv-x="611" d="M21 412v43l175 11v-305q0 -41 2.5 -55.5t12.5 -28.5q20 -31 70 -31q77 0 110 70q21 46 21 123v123q0 32 -7.5 41t-35.5 9h-51v43l188 11v-350q0 -48 11 -60.5t52 -12.5h25v-43l-182 -7v83q-33 -48 -70 -69.5t-86 -21.5q-93 0 -135 64q-19 29 -19 97v216q0 32 -7.5 41 t-35.5 9h-38zM147 583v54h313v-54h-313z" />
<glyph unicode="&#x16c;" horiz-adv-x="815" d="M17 675v47h327v-47h-19q-61 0 -75.5 -7.5t-14.5 -39.5v-364q0 -113 43 -169t149 -56q110 0 156 64.5t46 180.5v221q0 103 -22 135t-93 35v47h285v-47q-72 -3 -94 -35t-22 -135v-227q0 -154 -71.5 -223.5t-211.5 -69.5q-129 0 -203 53t-74 163v427q0 32 -14.5 39.5 t-74.5 7.5h-17zM238 917h43q5 -41 38 -63.5t89 -22.5t88.5 22.5t37.5 63.5h44q0 -64 -48.5 -103t-122.5 -39t-121.5 39t-47.5 103z" />
<glyph unicode="&#x16d;" horiz-adv-x="611" d="M21 412v43l175 11v-305q0 -41 2.5 -55.5t12.5 -28.5q20 -31 70 -31q77 0 110 70q21 46 21 123v123q0 32 -7.5 41t-35.5 9h-51v43l188 11v-350q0 -48 11 -60.5t52 -12.5h25v-43l-182 -7v83q-33 -48 -70 -69.5t-86 -21.5q-93 0 -135 64q-19 29 -19 97v216q0 32 -7.5 41 t-35.5 9h-38zM162 676v13h36q4 -45 31.5 -70t74.5 -25q46 0 73.5 25t31.5 70h36v-14q0 -61 -40.5 -102t-101.5 -41t-101 41t-40 103z" />
<glyph unicode="&#x16e;" horiz-adv-x="815" d="M17 675v47h327v-47h-19q-61 0 -75.5 -7.5t-14.5 -39.5v-364q0 -113 43 -169t149 -56q110 0 156 64.5t46 180.5v221q0 103 -22 135t-93 35v47h285v-47q-72 -3 -94 -35t-22 -135v-227q0 -154 -71.5 -223.5t-211.5 -69.5q-129 0 -203 53t-74 163v427q0 32 -14.5 39.5 t-74.5 7.5h-17zM308 862q0 40 29 69.5t70 29.5t70.5 -29t29.5 -70q0 -42 -29.5 -71t-71.5 -29q-40 0 -69 29.5t-29 70.5zM344 862q0 -26 18.5 -45t44.5 -19q27 0 45.5 18.5t18.5 45.5q0 26 -18.5 44.5t-44.5 18.5t-45 -18.5t-19 -44.5z" />
<glyph unicode="&#x16f;" horiz-adv-x="611" d="M21 412v43l175 11v-305q0 -41 2.5 -55.5t12.5 -28.5q20 -31 70 -31q77 0 110 70q21 46 21 123v123q0 32 -7.5 41t-35.5 9h-51v43l188 11v-350q0 -48 11 -60.5t52 -12.5h25v-43l-182 -7v83q-33 -48 -70 -69.5t-86 -21.5q-93 0 -135 64q-19 29 -19 97v216q0 32 -7.5 41 t-35.5 9h-38zM204 611q0 41 29 70t70 29t70.5 -29t29.5 -70q0 -42 -29.5 -71t-71.5 -29q-40 0 -69 29.5t-29 70.5zM240 611q0 -26 18.5 -45t44.5 -19q27 0 45.5 18.5t18.5 45.5q0 25 -18.5 44t-44.5 19t-45 -18.5t-19 -44.5z" />
<glyph unicode="&#x170;" horiz-adv-x="815" d="M17 675v47h327v-47h-19q-61 0 -75.5 -7.5t-14.5 -39.5v-364q0 -113 43 -169t149 -56q110 0 156 64.5t46 180.5v221q0 103 -22 135t-93 35v47h285v-47q-72 -3 -94 -35t-22 -135v-227q0 -154 -71.5 -223.5t-211.5 -69.5q-129 0 -203 53t-74 163v427q0 32 -14.5 39.5 t-74.5 7.5h-17zM336 792l35 98q21 59 53 59q11 0 19 -8.5t8 -19.5q0 -19 -18 -40l-81 -98zM454 792l35 98q21 59 53 59q11 0 19 -8.5t8 -19.5q0 -18 -18 -40l-81 -98z" />
<glyph unicode="&#x171;" horiz-adv-x="611" d="M21 412v43l175 11v-305q0 -41 2.5 -55.5t12.5 -28.5q20 -31 70 -31q77 0 110 70q21 46 21 123v123q0 32 -7.5 41t-35.5 9h-51v43l188 11v-350q0 -48 11 -60.5t52 -12.5h25v-43l-182 -7v83q-33 -48 -70 -69.5t-86 -21.5q-93 0 -135 64q-19 29 -19 97v216q0 32 -7.5 41 t-35.5 9h-38zM232 536l35 98q21 59 53 59q11 0 19 -8.5t8 -19.5q0 -19 -18 -40l-81 -98zM350 536l35 98q21 59 53 59q11 0 19 -8.5t8 -19.5q0 -18 -18 -40l-81 -98z" />
<glyph unicode="&#x172;" horiz-adv-x="815" d="M17 675v47h327v-47h-19q-61 0 -75.5 -7.5t-14.5 -39.5v-364q0 -113 43 -169t149 -56q110 0 156 64.5t46 180.5v221q0 103 -22 135t-93 35v47h285v-47q-72 -3 -94 -35t-22 -135v-227q0 -239 -184 -283q-62 -15 -78 -56q-11 -28 -11 -60q0 -51 40 -51q29 0 49.5 10t31 20 t14.5 10q10 0 10 -12q0 -35 -29.5 -63.5t-89.5 -28.5q-47 0 -80.5 30.5t-33.5 81.5t66 109q-124 2 -194.5 55.5t-70.5 160.5v427q0 32 -14.5 39.5t-74.5 7.5h-17z" />
<glyph unicode="&#x173;" horiz-adv-x="611" d="M21 412v43l175 11v-305q0 -41 2.5 -55.5t12.5 -28.5q20 -31 70 -31q77 0 110 70q21 46 21 123v123q0 32 -7.5 41t-35.5 9h-51v43l188 11v-350q0 -48 11 -60.5t52 -12.5h25v-43l-39 -2q-67 -2 -88 -43q-18 -36 -18 -76q0 -51 40 -51q29 0 49.5 10t31 20t14.5 10 q10 0 10 -12q0 -35 -29.5 -63.5t-89.5 -28.5q-47 0 -80.5 30.5t-33.5 81.5q0 56 76 118l-25 -1v83q-33 -48 -70 -69.5t-86 -21.5q-93 0 -135 64q-19 29 -19 97v216q0 32 -7.5 41t-35.5 9h-38z" />
<glyph unicode="&#x174;" horiz-adv-x="981" d="M6 675v47h282v-47h-45q-43 0 -43 -20q0 -10 5 -25l144 -448l116 384l-26 78q-6 18 -19 24.5t-44 6.5h-23v47h289v-47h-16q-33 0 -49.5 -3.5t-19.5 -8.5t-3 -15q0 -6 7 -28l138 -438l120 406q6 16 6 35q0 27 -17 39.5t-59 12.5h-18v47h245v-47h-14q-40 0 -56.5 -20 t-34.5 -83l-176 -587h-41l-162 497l-148 -497h-43l-216 651q-9 26 -19 32.5t-41 6.5h-19zM303 771l150 150h76l150 -150h-44l-144 91l-145 -91h-43z" />
<glyph unicode="&#x175;" horiz-adv-x="778" d="M15 430v36h220v-36h-18q-41 0 -41 -23q0 -8 4 -22l97 -251l88 233l-9 26q-8 22 -18 29.5t-34 7.5h-17v36h224v-36h-24q-25 0 -33.5 -4.5t-8.5 -18.5q0 -12 4 -21l98 -257l85 228q8 24 8 37q0 36 -49 36h-17v36h189v-36h-13q-25 0 -38 -15t-30 -61l-140 -369h-31l-122 316 l-119 -316h-35l-150 396q-10 30 -20.5 39.5t-31.5 9.5h-18zM232 527l125 166h63l125 -166h-36l-120 101l-121 -101h-36z" />
<glyph unicode="&#x176;" horiz-adv-x="704" d="M-13 675v47h321v-47h-59q-39 0 -39 -19q0 -12 11 -28l168 -271l124 221q17 31 17 52q0 24 -18.5 34.5t-59.5 10.5h-23v47h284v-47h-16q-44 0 -69 -21t-61 -86l-149 -269v-205q0 -32 14 -39.5t75 -7.5h26v-47h-343v47h26q61 0 75.5 7.5t14.5 39.5v193l-216 342 q-17 28 -33 37t-48 9h-22zM174 771l150 150h76l150 -150h-44l-144 91l-145 -91h-43z" />
<glyph unicode="&#x177;" horiz-adv-x="537" d="M3 -129q0 27 17 44.5t43 17.5q22 0 36.5 -13t14.5 -32q0 -6 -3.5 -19t-3.5 -16q0 -10 16 -10q24 0 55.5 35.5t59.5 93.5l17 35l-163 369q-14 30 -28 42t-38 12h-13v36h238v-36h-21q-46 0 -46 -25q0 -7 6 -21l110 -257l91 226q10 24 10 40q0 37 -54 37h-16v36h200v-36h-12 q-28 0 -43.5 -17t-34.5 -64l-114 -282q-58 -143 -95 -193q-59 -80 -138 -80q-39 0 -65 22t-26 55zM134 527l125 166h63l125 -166h-36l-120 101l-121 -101h-36z" />
<glyph unicode="&#x178;" horiz-adv-x="704" d="M-13 675v47h321v-47h-59q-39 0 -39 -19q0 -12 11 -28l168 -271l124 221q17 31 17 52q0 24 -18.5 34.5t-59.5 10.5h-23v47h284v-47h-16q-44 0 -69 -21t-61 -86l-149 -269v-205q0 -32 14 -39.5t75 -7.5h26v-47h-343v47h26q61 0 75.5 7.5t14.5 39.5v193l-216 342 q-17 28 -33 37t-48 9h-22zM213 846q0 20 15 35t35 15t35 -15t15 -35q0 -21 -15 -35.5t-36 -14.5q-20 0 -34.5 15t-14.5 35zM412 846q0 20 15 35t35 15t35 -15t15 -35q0 -21 -15 -35.5t-36 -14.5q-20 0 -34.5 15t-14.5 35z" />
<glyph unicode="&#x179;" horiz-adv-x="611" d="M24 0v36l409 639h-130q-101 0 -141 -40.5t-64 -165.5h-45l20 253h496v-36l-411 -639h166q105 0 144 52q41 50 60 179h47l-18 -278h-533zM219 769l168 126q37 28 60 28q17 0 29.5 -9t12.5 -22q0 -20 -30 -35l-191 -88h-49z" />
<glyph unicode="&#x17a;" horiz-adv-x="481" d="M39 0v36l273 387h-87q-61 0 -90.5 -29t-36.5 -97h-40l9 169h361v-36l-273 -387h102q68 0 99.5 31t38.5 105h40l-7 -179h-389zM172 524l140 140q31 31 50 31q14 0 24.5 -10.5t10.5 -24.5q0 -24 -25 -39l-159 -97h-41z" />
<glyph unicode="&#x17b;" horiz-adv-x="611" d="M24 0v36l409 639h-130q-101 0 -141 -40.5t-64 -165.5h-45l20 253h496v-36l-411 -639h166q105 0 144 52q41 50 60 179h47l-18 -278h-533zM272 846q0 20 15 35t35 15t35 -15t15 -35q0 -21 -15 -35.5t-36 -14.5q-20 0 -34.5 15t-14.5 35z" />
<glyph unicode="&#x17c;" horiz-adv-x="481" d="M39 0v36l273 387h-87q-61 0 -90.5 -29t-36.5 -97h-40l9 169h361v-36l-273 -387h102q68 0 99.5 31t38.5 105h40l-7 -179h-389zM198 610q0 20 15 35t35 15t35 -15t15 -35q0 -21 -15 -35.5t-36 -14.5q-20 0 -34.5 15t-14.5 35z" />
<glyph unicode="&#x17d;" horiz-adv-x="611" d="M24 0v36l409 639h-130q-101 0 -141 -40.5t-64 -165.5h-45l20 253h496v-36l-411 -639h166q105 0 144 52q41 50 60 179h47l-18 -278h-533zM134 921h44l144 -91l145 91h43l-150 -150h-76z" />
<glyph unicode="&#x17e;" horiz-adv-x="481" d="M39 0v36l273 387h-87q-61 0 -90.5 -29t-36.5 -97h-40l9 169h361v-36l-273 -387h102q68 0 99.5 31t38.5 105h40l-7 -179h-389zM91 693h36l120 -101l121 101h36l-125 -166h-63z" />
<glyph unicode="&#x17f;" d="M19 423v43h88v31q0 123 51.5 181.5t143.5 58.5q61 0 96 -25t35 -69q0 -27 -15.5 -44t-40.5 -17q-23 0 -39 15.5t-16 37.5q0 8 4 18.5t7.5 18t3.5 8.5q0 17 -34 17q-51 0 -76.5 -41t-25.5 -133v-440q0 -30 13.5 -38.5t62.5 -8.5h18v-36h-267v36h4q48 0 61.5 8.5t13.5 38.5 v340h-88z" />
<glyph unicode="&#x18e;" horiz-adv-x="722" d="M29 267h44q24 -127 71 -173.5t161 -46.5h66q41 0 56.5 9t15.5 39v255h-20q-87 0 -114.5 -33t-29.5 -111h-47v328h47q4 -73 36.5 -105t103.5 -32h24v228q0 32 -11 41t-52 9h-52q-65 0 -103.5 -7.5t-66 -31.5t-42 -63t-25.5 -107h-43v256h615v-47h-18q-61 0 -75.5 -7.5 t-14.5 -39.5v-534q0 -32 14.5 -39.5t75.5 -7.5h18v-47h-614z" />
<glyph unicode="&#x192;" horiz-adv-x="556" d="M3 -126q0 27 16 45t41 18q22 0 37 -13.5t15 -33.5q0 -11 -8 -26l-9 -16q0 -10 14 -10q20 0 40.5 18.5t31.5 46.5q14 38 19 78t18 200l17 209h-116v47h120l6 48q16 125 66 188.5t131 63.5q44 0 71.5 -22.5t27.5 -59.5q0 -26 -15.5 -42t-40.5 -16q-22 0 -37.5 12.5 t-15.5 30.5q0 17 15 41l3 7q0 9 -18 9q-76 0 -94 -197l-6 -63h133v-47h-137l-19 -227q-18 -210 -66 -284q-56 -84 -138 -84q-43 0 -72.5 23t-29.5 56z" />
<glyph unicode="&#x1a0;" horiz-adv-x="778" d="M45 360q0 157 97.5 267t250.5 110q73 0 140 -32q18 9 15 23q-13 6 -22 23t-9 29q0 18 15 33t35 15q24 0 42 -19.5t18 -44.5q0 -23 -15 -45t-40 -37q75 -49 118 -134t43 -187q0 -161 -98.5 -268.5t-245.5 -107.5q-146 0 -245 107.5t-99 267.5zM177 363q0 -170 53 -250.5 t159 -80.5q212 0 212 329t-209 329q-108 0 -161.5 -79.5t-53.5 -247.5z" />
<glyph unicode="&#x1a1;" horiz-adv-x="500" d="M34 232q0 105 63 177t155 72q54 0 104 -32q19 11 16 24q-13 6 -22 23t-9 29q0 18 15 33t35 15q24 0 42 -19.5t18 -44.5q0 -24 -17 -47.5t-45 -38.5q77 -75 77 -190q0 -103 -63 -175.5t-153 -72.5t-153 72t-63 175zM139 232q0 -99 28.5 -151.5t82.5 -52.5t82.5 52.5 t28.5 152.5q0 99 -28 152t-81 53q-113 0 -113 -206z" />
<glyph unicode="&#x1af;" horiz-adv-x="769" d="M17 675v47h327v-47h-19q-61 0 -75.5 -7.5t-14.5 -39.5v-364q0 -70 6 -98t26 -56q52 -71 160 -71q60 0 106.5 25.5t71.5 72.5q14 26 19 56.5t5 90.5v221q0 103 -22 135t-93 35v47h169v-24q10 4 19.5 12.5t7.5 17.5q-13 6 -22 23t-9 29q0 18 15 33t35 15q24 0 42 -19.5 t18 -44.5q0 -35 -31.5 -64t-74.5 -40v-382q0 -154 -71.5 -223.5t-211.5 -69.5q-265 0 -277 216v427q0 32 -14.5 39.5t-74.5 7.5h-17z" />
<glyph unicode="&#x1b0;" horiz-adv-x="611" d="M21 412v43l175 11v-305q0 -70 20 -92.5t65 -22.5q64 0 97.5 49t33.5 144v123q0 32 -7.5 41t-35.5 9h-51v54h188v-24q10 4 19.5 12.5t7.5 17.5q-13 6 -22 23t-9 29q0 18 15 33t35 15q24 0 42 -19.5t18 -44.5q0 -35 -31.5 -64t-74.5 -40v-288q0 -48 11 -60.5t52 -12.5h25 v-43h-182v76q-33 -48 -70 -69.5t-86 -21.5q-154 0 -154 161v216q0 32 -7.5 41t-35.5 9h-38z" />
<glyph unicode="&#x1dd;" horiz-adv-x="500" d="M35 241h324q0 92 -37.5 139t-101.5 47q-50 0 -84.5 -24.5t-65.5 -82.5l-35 19q61 142 204 142q101 0 163.5 -65t62.5 -170q0 -112 -64 -186.5t-160 -74.5q-92 0 -149 71.5t-57 184.5zM142 161q0 -60 27.5 -96.5t73.5 -36.5q48 0 81.5 46.5t33.5 123.5h-175 q-24 0 -32.5 -7.5t-8.5 -29.5z" />
<glyph unicode="&#x1e6;" horiz-adv-x="778" d="M42 348q0 101 43 189.5t124 144t182 55.5q55 0 94 -15t88 -54l39 61h52v-281h-43q-62 242 -234 242q-104 0 -158.5 -87.5t-54.5 -254.5q0 -155 55.5 -235.5t160.5 -80.5q83 0 128.5 49.5t45.5 140.5q0 41 -14 50.5t-77 9.5h-19v47h318v-47h-15q-71 0 -84 -14 q-6 -7 -6 -62v-220h-42l-37 90q-49 -49 -97 -70t-111 -21q-144 0 -241 102t-97 261zM202 921h44l144 -91l145 91h43l-150 -150h-76z" />
<glyph unicode="&#x1e7;" horiz-adv-x="537" d="M23 -100q0 62 92 95q-67 23 -67 86q0 41 22.5 65t72.5 35q-39 18 -61.5 54t-22.5 80q0 75 54 120.5t143 45.5q67 0 124 -38q35 32 53.5 42t42.5 10q29 0 47.5 -16t18.5 -42q0 -20 -13 -34t-32 -14t-30 12.5t-16 25.5t-9 13q-11 0 -34 -24q37 -44 37 -98q0 -103 -94 -145 q-25 -11 -48.5 -14.5t-94.5 -4.5q-50 -1 -72 -11.5t-22 -33.5q0 -19 12 -26q18 -9 70 -9h102q91 0 127 -14q28 -11 44 -39.5t16 -65.5q0 -158 -251 -158q-101 0 -156 27t-55 76zM99 693h36l120 -101l121 101h36l-125 -166h-63zM106 -92q0 -34 34.5 -52t97.5 -18 q84 0 130.5 23.5t46.5 66.5q0 24 -17.5 39.5t-47.5 18.5q-15 2 -104 2h-74q-36 -19 -51 -37t-15 -43zM150 314q0 -56 27 -89t74 -33q48 0 75 33t27 92q0 58 -25.5 89.5t-72.5 31.5q-50 0 -77.5 -32.5t-27.5 -91.5z" />
<glyph unicode="&#x1ea;" horiz-adv-x="778" d="M45 360q0 157 97.5 267t250.5 110q144 0 242 -108.5t98 -267.5q0 -127 -64 -224t-169 -133q-27 -10 -42 -16t-33 -19.5t-24 -29.5q-11 -28 -11 -60q0 -51 40 -51q29 0 49.5 10t31 20t14.5 10q10 0 10 -12q0 -35 -29.5 -63.5t-89.5 -28.5q-47 0 -80.5 30.5t-33.5 81.5 q0 52 66 110q-138 8 -230.5 114.5t-92.5 259.5zM177 363q0 -170 53 -250.5t159 -80.5q212 0 212 329t-209 329q-108 0 -161.5 -79.5t-53.5 -247.5z" />
<glyph unicode="&#x1eb;" horiz-adv-x="500" d="M34 232q0 105 63 177t155 72q89 0 151.5 -72.5t62.5 -175.5q0 -71 -31.5 -130t-84.5 -91q-45 -25 -67.5 -53t-22.5 -80q0 -51 40 -51q29 0 49.5 10t31 20t14.5 10q10 0 10 -12q0 -35 -29.5 -63.5t-89.5 -28.5q-47 0 -80.5 30.5t-33.5 81.5q0 52 66 109q-86 5 -145 76.5 t-59 170.5zM139 232q0 -99 28.5 -151.5t82.5 -52.5t82.5 52.5t28.5 152.5q0 99 -28 152t-81 53q-113 0 -113 -206z" />
<glyph unicode="&#x1f4;" horiz-adv-x="778" d="M42 348q0 101 43 189.5t124 144t182 55.5q55 0 94 -15t88 -54l39 61h52v-281h-43q-62 242 -234 242q-104 0 -158.5 -87.5t-54.5 -254.5q0 -155 55.5 -235.5t160.5 -80.5q83 0 128.5 49.5t45.5 140.5q0 41 -14 50.5t-77 9.5h-19v47h318v-47h-15q-71 0 -84 -14 q-6 -7 -6 -62v-220h-42l-37 90q-49 -49 -97 -70t-111 -21q-144 0 -241 102t-97 261zM287 769l168 126q37 28 60 28q17 0 29.5 -9t12.5 -22q0 -20 -30 -35l-191 -88h-49z" />
<glyph unicode="&#x1f5;" horiz-adv-x="537" d="M23 -100q0 62 92 95q-67 23 -67 86q0 41 22.5 65t72.5 35q-39 18 -61.5 54t-22.5 80q0 75 54 120.5t143 45.5q67 0 124 -38q35 32 53.5 42t42.5 10q29 0 47.5 -16t18.5 -42q0 -20 -13 -34t-32 -14t-30 12.5t-16 25.5t-9 13q-11 0 -34 -24q37 -44 37 -98q0 -103 -94 -145 q-25 -11 -48.5 -14.5t-94.5 -4.5q-50 -1 -72 -11.5t-22 -33.5q0 -19 12 -26q18 -9 70 -9h102q91 0 127 -14q28 -11 44 -39.5t16 -65.5q0 -158 -251 -158q-101 0 -156 27t-55 76zM106 -92q0 -34 34.5 -52t97.5 -18q84 0 130.5 23.5t46.5 66.5q0 24 -17.5 39.5t-47.5 18.5 q-15 2 -104 2h-74q-36 -19 -51 -37t-15 -43zM150 314q0 -56 27 -89t74 -33q48 0 75 33t27 92q0 58 -25.5 89.5t-72.5 31.5q-50 0 -77.5 -32.5t-27.5 -91.5zM180 524l140 140q31 31 50 31q14 0 24.5 -10.5t10.5 -24.5q0 -24 -25 -39l-159 -97h-41z" />
<glyph unicode="&#x1fa;" horiz-adv-x="722" d="M-8 0v47h14q37 0 55 19t45 87l230 583h42l255 -625q18 -43 30 -53.5t49 -10.5h19v-47h-310v47h42q62 0 62 26q0 7 -8 27l-54 134h-265l-33 -88q-9 -24 -9 -42q0 -57 81 -57h20v-47h-265zM218 288h224l-113 284zM255 981l168 126q37 28 60 28q17 0 29.5 -9t12.5 -22 q0 -20 -30 -35l-191 -88h-49zM258 862q0 40 29 69.5t70 29.5t70.5 -29t29.5 -70q0 -42 -29.5 -71t-71.5 -29q-40 0 -69 29.5t-29 70.5zM294 862q0 -26 18.5 -45t44.5 -19q27 0 45.5 18.5t18.5 45.5q0 26 -18.5 44.5t-44.5 18.5t-45 -18.5t-19 -44.5z" />
<glyph unicode="&#x1fb;" horiz-adv-x="556" d="M44 102q0 74 70 115.5t244 71.5v39q0 62 -27 86t-81 24q-36 0 -62.5 -11.5t-26.5 -27.5q0 -1 11 -22t11 -32q0 -22 -15.5 -36.5t-38.5 -14.5q-26 0 -42 17t-16 45q0 54 55.5 89.5t139.5 35.5q94 0 140 -34t46 -125v-201q0 -38 8.5 -53.5t29.5 -15.5q2 0 18.5 5.5 t24.5 5.5q10 0 10 -12q0 -22 -29 -40t-63 -18q-35 0 -55.5 16.5t-32.5 54.5q-67 -79 -174 -79q-66 0 -105.5 32t-39.5 85zM145 116q0 -34 22.5 -56t56.5 -22q32 0 63.5 17t50.5 45q13 20 16.5 37.5t3.5 62.5v46q-127 -21 -170 -48.5t-43 -81.5zM164 725l168 126q37 28 60 28 q17 0 29.5 -9t12.5 -22q0 -20 -30 -35l-191 -88h-49zM167 606q0 40 29.5 69.5t69.5 29.5q41 0 70.5 -29t29.5 -70q0 -42 -29.5 -71t-71.5 -29q-40 0 -69 29.5t-29 70.5zM203 606q0 -26 18.5 -45t44.5 -19q27 0 45.5 18.5t18.5 45.5q0 26 -19 44.5t-44 18.5q-26 0 -45 -18.5 t-19 -44.5z" />
<glyph unicode="&#x1fc;" horiz-adv-x="1000" d="M0 0v47q26 5 45.5 23t43.5 62l247 444q13 24 13 45q0 31 -16 42.5t-66 11.5h-27v47h693l14 -256h-43q-15 91 -39.5 134t-68 59t-129.5 16h-24q-41 0 -52 -9t-11 -41v-228h28q61 0 91 32t34 105h47v-328h-47q-2 78 -27 111t-102 33h-24v-255q0 -30 15.5 -39t56.5 -9h35 q115 0 161 46.5t72 173.5h43l-20 -267h-584v47h19q61 0 75.5 7.5t14.5 39.5v175h-239l-71 -130q-14 -25 -14 -46q0 -24 15.5 -35t53.5 -11h20v-47h-233zM258 323h210v325q0 15 -2 19t-8 4q-8 0 -17 -18zM398 769l168 126q37 28 60 28q17 0 29.5 -9t12.5 -22q0 -20 -30 -35 l-191 -88h-49z" />
<glyph unicode="&#x1fd;" horiz-adv-x="796" d="M36 99q0 100 118 145q58 23 183 45v46q0 56 -22 79.5t-75 23.5q-35 0 -60.5 -11t-25.5 -27q0 -6 7 -14q15 -21 15 -41q0 -22 -15.5 -36.5t-38.5 -14.5q-27 0 -43 17t-16 45q0 53 55 89t135 36q110 0 154 -57q62 57 145 57q98 0 153 -78q53 -72 53 -160v-18h-325 q1 -81 24 -120q40 -66 116 -66q49 0 84 25t66 82l36 -19q-66 -142 -205 -142q-97 0 -156 53q-6 5 -35 35q-39 -47 -80.5 -67.5t-98.5 -20.5q-67 0 -107.5 31t-40.5 83zM137 120q0 -36 21 -59.5t54 -23.5q31 0 59.5 15t45.5 40q13 20 16.5 37.5t3.5 63.5v53 q-106 -18 -141 -37q-59 -33 -59 -89zM322 524l140 140q31 31 50 31q14 0 24.5 -10.5t10.5 -24.5q0 -24 -25 -39l-159 -97h-41zM434 268h175q24 0 32.5 7.5t8.5 29.5q0 59 -27.5 95.5t-73.5 36.5q-71 0 -101 -89q-14 -38 -14 -80z" />
<glyph unicode="&#x1fe;" horiz-adv-x="778" d="M30 -76l121 164q-50 52 -78.5 125t-28.5 147q0 151 100 264t247 113q105 0 194 -63l65 88h54l-86 -117q54 -54 84.5 -128t30.5 -151q0 -152 -98 -266.5t-248 -114.5q-112 0 -204 73l-99 -134h-54zM176 353q0 -123 30 -190l336 453q-55 74 -154 74q-104 0 -158 -85.5 t-54 -251.5zM229 120q56 -88 161 -88q211 0 211 340q0 130 -35 203zM287 769l168 126q37 28 60 28q17 0 29.5 -9t12.5 -22q0 -20 -30 -35l-191 -88h-49z" />
<glyph unicode="&#x1ff;" horiz-adv-x="500" d="M34 232q0 104 63 176.5t153 72.5q46 0 91 -23l50 97h50l-63 -122q41 -35 64.5 -89.5t23.5 -115.5q0 -107 -61.5 -175t-157.5 -68q-52 0 -89 19l-49 -95h-50l61 119q-86 75 -86 204zM139 229q0 -74 19 -127l158 307q-28 29 -65 29q-112 0 -112 -209zM174 524l140 140 q31 31 50 31q14 0 24.5 -10.5t10.5 -24.5q0 -24 -25 -39l-159 -97h-41zM185 57q25 -29 64 -29q112 0 112 214q0 70 -18 122z" />
<glyph unicode="&#x200;" horiz-adv-x="722" d="M-8 0v47h14q37 0 55 19t45 87l230 583h42l255 -625q18 -43 30 -53.5t49 -10.5h19v-47h-310v47h42q62 0 62 26q0 7 -8 27l-54 134h-265l-33 -88q-9 -24 -9 -42q0 -57 81 -57h20v-47h-265zM196 921q0 11 8 19.5t19 8.5q32 0 53 -59l35 -98l-16 -9l-81 98q-18 22 -18 40z M218 288h224l-113 284zM314 921q0 11 8 19.5t19 8.5q32 0 53 -59l35 -98l-16 -9l-81 98q-18 21 -18 40z" />
<glyph unicode="&#x201;" horiz-adv-x="556" d="M44 102q0 74 70 115.5t244 71.5v39q0 62 -27 86t-81 24q-36 0 -62.5 -11.5t-26.5 -27.5q0 -1 11 -22t11 -32q0 -22 -15.5 -36.5t-38.5 -14.5q-26 0 -42 17t-16 45q0 54 55.5 89.5t139.5 35.5q94 0 140 -34t46 -125v-201q0 -38 8.5 -53.5t29.5 -15.5q2 0 18.5 5.5 t24.5 5.5q10 0 10 -12q0 -22 -29 -40t-63 -18q-35 0 -55.5 16.5t-32.5 54.5q-67 -79 -174 -79q-66 0 -105.5 32t-39.5 85zM105 665q0 11 8 19.5t19 8.5q32 0 53 -59l35 -98l-16 -9l-81 98q-18 22 -18 40zM145 116q0 -34 22.5 -56t56.5 -22q32 0 63.5 17t50.5 45 q13 20 16.5 37.5t3.5 62.5v46q-127 -21 -170 -48.5t-43 -81.5zM223 665q0 11 8 19.5t19 8.5q32 0 53 -59l35 -98l-16 -9l-81 98q-18 21 -18 40z" />
<glyph unicode="&#x204;" horiz-adv-x="722" d="M29 0v47h18q61 0 75.5 7.5t14.5 39.5v534q0 32 -14.5 39.5t-75.5 7.5h-18v47h615v-256h-43q-11 68 -25.5 107t-42 63t-66 31.5t-103.5 7.5h-52q-41 0 -52 -9t-11 -41v-228h24q71 0 103.5 32t36.5 105h47v-328h-47q-2 78 -29.5 111t-114.5 33h-20v-255q0 -30 15.5 -39 t56.5 -9h66q114 0 161 46.5t71 173.5h44l-20 -267h-614zM200 921q0 11 8 19.5t19 8.5q32 0 53 -59l35 -98l-16 -9l-81 98q-18 22 -18 40zM318 921q0 11 8 19.5t19 8.5q32 0 53 -59l35 -98l-16 -9l-81 98q-18 21 -18 40z" />
<glyph unicode="&#x205;" horiz-adv-x="500" d="M35 220q0 112 64 186.5t160 74.5q92 0 149 -71.5t57 -184.5h-324q0 -92 37.5 -139t101.5 -47q50 0 84.5 24.5t65.5 82.5l35 -19q-61 -142 -204 -142q-101 0 -163.5 65t-62.5 170zM98 665q0 11 8 19.5t19 8.5q32 0 53 -59l35 -98l-16 -9l-81 98q-18 22 -18 40zM142 268 h175q24 0 32.5 7.5t8.5 29.5q0 60 -27.5 96.5t-73.5 36.5q-48 0 -81.5 -46.5t-33.5 -123.5zM216 665q0 11 8 19.5t19 8.5q32 0 53 -59l35 -98l-16 -9l-81 98q-18 21 -18 40z" />
<glyph unicode="&#x208;" horiz-adv-x="407" d="M38 0v47h20q61 0 75.5 7.5t14.5 39.5v534q0 32 -14.5 39.5t-75.5 7.5h-20v47h331v-47h-20q-60 0 -74.5 -7.5t-14.5 -39.5v-534q0 -32 14.5 -39.5t74.5 -7.5h20v-47h-331zM42 921q0 11 8 19.5t19 8.5q32 0 53 -59l35 -98l-16 -9l-81 98q-18 22 -18 40zM160 921 q0 11 8 19.5t19 8.5q32 0 53 -59l35 -98l-16 -9l-81 98q-18 21 -18 40z" />
<glyph unicode="&#x209;" horiz-adv-x="315" d="M-2 665q0 11 8 19.5t19 8.5q32 0 53 -59l35 -98l-16 -9l-81 98q-18 22 -18 40zM18 412v43l188 11v-383q0 -31 11.5 -39t59.5 -8h12v-36h-259v36h12q47 0 58.5 8t11.5 39v279q0 32 -7.5 41t-35.5 9h-51zM116 665q0 11 8 19.5t19 8.5q32 0 53 -59l35 -98l-16 -9l-81 98 q-18 21 -18 40z" />
<glyph unicode="&#x20c;" horiz-adv-x="778" d="M45 360q0 157 97.5 267t250.5 110q144 0 242 -108.5t98 -267.5q0 -161 -98.5 -268.5t-245.5 -107.5q-146 0 -245 107.5t-99 267.5zM177 363q0 -170 53 -250.5t159 -80.5q212 0 212 329t-209 329q-108 0 -161.5 -79.5t-53.5 -247.5zM228 921q0 11 8 19.5t19 8.5 q32 0 53 -59l35 -98l-16 -9l-81 98q-18 22 -18 40zM346 921q0 11 8 19.5t19 8.5q32 0 53 -59l35 -98l-16 -9l-81 98q-18 21 -18 40z" />
<glyph unicode="&#x20d;" horiz-adv-x="500" d="M34 232q0 105 63 177t155 72q89 0 151.5 -72.5t62.5 -175.5t-63 -175.5t-153 -72.5t-153 72t-63 175zM91 665q0 11 8 19.5t19 8.5q32 0 53 -59l35 -98l-16 -9l-81 98q-18 22 -18 40zM139 232q0 -99 28.5 -151.5t82.5 -52.5t82.5 52.5t28.5 152.5q0 99 -28 152t-81 53 q-113 0 -113 -206zM209 665q0 11 8 19.5t19 8.5q32 0 53 -59l35 -98l-16 -9l-81 98q-18 21 -18 40z" />
<glyph unicode="&#x210;" horiz-adv-x="722" d="M26 0v47h18q61 0 75.5 7.5t14.5 39.5v534q0 32 -14.5 39.5t-75.5 7.5h-18v47h346q126 0 195 -47t69 -132q0 -149 -213 -179q59 -15 90.5 -50t48.5 -104l16 -63q13 -53 22.5 -69.5t27.5 -16.5q20 0 30 23.5t13 75.5h42q-2 -90 -32 -132.5t-92 -42.5q-59 0 -89.5 37.5 t-38.5 121.5l-5 51q-9 86 -45.5 120.5t-106.5 34.5h-58v-256q0 -32 14.5 -39.5t75.5 -7.5h18v-47h-328zM200 921q0 11 8 19.5t19 8.5q32 0 53 -59l35 -98l-16 -9l-81 98q-18 22 -18 40zM246 397h110q78 0 117.5 34t39.5 111q0 68 -35 100.5t-109 32.5h-54q-48 0 -58.5 -5 t-10.5 -28v-245zM318 921q0 11 8 19.5t19 8.5q32 0 53 -59l35 -98l-16 -9l-81 98q-18 21 -18 40z" />
<glyph unicode="&#x211;" horiz-adv-x="444" d="M21 412v43l177 11v-124q24 66 63.5 102.5t86.5 36.5q40 0 63.5 -22t23.5 -58q0 -31 -17 -49.5t-44 -18.5q-24 0 -39.5 15.5t-15.5 39.5t18 45q-36 -4 -64 -34t-43.5 -75t-23.5 -93.5t-8 -97.5v-50q0 -30 13.5 -38.5t61.5 -8.5h19v-36h-267v36h14q47 0 56.5 7.5t9.5 39.5 v279q0 32 -7.5 41t-35.5 9h-41zM37 665q0 11 8 19.5t19 8.5q32 0 53 -59l35 -98l-16 -9l-81 98q-18 22 -18 40zM155 665q0 11 8 19.5t19 8.5q32 0 53 -59l35 -98l-16 -9l-81 98q-18 21 -18 40z" />
<glyph unicode="&#x214;" horiz-adv-x="815" d="M17 675v47h327v-47h-19q-61 0 -75.5 -7.5t-14.5 -39.5v-364q0 -113 43 -169t149 -56q110 0 156 64.5t46 180.5v221q0 103 -22 135t-93 35v47h285v-47q-72 -3 -94 -35t-22 -135v-227q0 -154 -71.5 -223.5t-211.5 -69.5q-129 0 -203 53t-74 163v427q0 32 -14.5 39.5 t-74.5 7.5h-17zM246 921q0 11 8 19.5t19 8.5q32 0 53 -59l35 -98l-16 -9l-81 98q-18 22 -18 40zM364 921q0 11 8 19.5t19 8.5q32 0 53 -59l35 -98l-16 -9l-81 98q-18 21 -18 40z" />
<glyph unicode="&#x215;" horiz-adv-x="611" d="M21 412v43l175 11v-305q0 -41 2.5 -55.5t12.5 -28.5q20 -31 70 -31q77 0 110 70q21 46 21 123v123q0 32 -7.5 41t-35.5 9h-51v43l188 11v-350q0 -48 11 -60.5t52 -12.5h25v-43l-182 -7v83q-33 -48 -70 -69.5t-86 -21.5q-93 0 -135 64q-19 29 -19 97v216q0 32 -7.5 41 t-35.5 9h-38zM143 665q0 11 8 19.5t19 8.5q32 0 53 -59l35 -98l-16 -9l-81 98q-18 22 -18 40zM261 665q0 11 8 19.5t19 8.5q32 0 53 -59l35 -98l-16 -9l-81 98q-18 21 -18 40z" />
<glyph unicode="&#x218;" horiz-adv-x="630" d="M51 277h43q21 -107 78 -171q68 -75 174 -75q75 0 121 40q45 41 45 100q0 60 -46 95q-15 12 -30 17t-72 20l-95 24q-110 29 -155.5 74t-45.5 127q0 94 60.5 151.5t158.5 57.5q110 0 182 -69l40 60h37l12 -260h-43q-20 77 -60 134q-61 87 -167 87q-64 0 -103 -32.5 t-39 -85.5q0 -89 131 -123l107 -27q109 -27 146 -63q60 -58 60 -153q0 -101 -65.5 -160.5t-175.5 -59.5q-65 0 -112.5 17t-97.5 58l-45 -68h-39zM245 -277q91 57 91 123q0 8 -6 8h-3q-4 -1 -12 -1q-30 0 -47 14t-17 39q0 23 17 38.5t42 15.5q32 0 53 -24t21 -62 q0 -58 -38 -109q-27 -35 -81 -67z" />
<glyph unicode="&#x219;" horiz-adv-x="463" d="M51 -7v189h40q18 -75 61.5 -114.5t106.5 -39.5q44 0 72 22.5t28 57.5q0 30 -23.5 47.5t-83.5 31.5l-53 12q-76 18 -106 45q-35 32 -35 92q0 65 40 105t106 40q71 0 122 -40l29 36h35v-168h-35q-21 60 -49 88q-41 40 -97 40q-41 0 -67 -19.5t-26 -49.5q0 -37 35 -53 q18 -10 73 -22l50 -11q46 -10 66.5 -18t38.5 -24q42 -35 42 -101q0 -70 -44.5 -112t-118.5 -42q-76 0 -137 49l-35 -41h-35zM161 -277q91 57 91 123q0 8 -6 8h-3q-4 -1 -12 -1q-30 0 -47 14t-17 39q0 23 17 38.5t42 15.5q32 0 53 -24t21 -62q0 -58 -38 -109q-27 -35 -81 -67 z" />
<glyph unicode="&#x21a;" horiz-adv-x="667" d="M19 444l15 278h599l15 -278h-43q-12 85 -33 137q-19 45 -54 69.5t-81 24.5q-47 0 -47 -36v-545q0 -32 14.5 -39.5t74.5 -7.5h26v-47h-343v47h26q61 0 75.5 7.5t14.5 39.5v545q0 36 -47 36q-102 0 -142 -111q-17 -50 -27 -120h-43zM263 -277q91 57 91 123q0 8 -6 8h-3 q-4 -1 -12 -1q-30 0 -47 14t-17 39q0 23 17 38.5t42 15.5q32 0 53 -24t21 -62q0 -58 -38 -109q-27 -35 -81 -67z" />
<glyph unicode="&#x21b;" horiz-adv-x="389" d="M18 423v39q120 9 135 202h41v-198h147v-43h-147v-273q0 -60 12.5 -82t46.5 -22q73 0 78 136h42q1 -10 1 -23q0 -75 -38.5 -124.5t-109.5 -49.5q-88 0 -114 65q-12 28 -12 118v255h-82zM156 -277q91 57 91 123q0 8 -6 8h-3q-4 -1 -12 -1q-30 0 -47 14t-17 39q0 23 17 38.5 t42 15.5q32 0 53 -24t21 -62q0 -58 -38 -109q-27 -35 -81 -67z" />
<glyph unicode="&#x258;" horiz-adv-x="500" d="M35 127l35 19q31 -58 65.5 -82.5t84.5 -24.5q64 0 101.5 47t37.5 139h-324q0 113 57 184.5t149 71.5q96 0 160 -74.5t64 -186.5q0 -105 -62.5 -170t-163.5 -65q-143 0 -204 142zM142 305q0 -22 8.5 -29.5t32.5 -7.5h175q0 77 -33.5 123.5t-81.5 46.5q-46 0 -73.5 -36.5 t-27.5 -96.5z" />
<glyph unicode="&#x259;" horiz-adv-x="500" d="M35 241h324q0 92 -37.5 139t-101.5 47q-50 0 -84.5 -24.5t-65.5 -82.5l-35 19q61 142 204 142q101 0 163.5 -65t62.5 -170q0 -112 -64 -186.5t-160 -74.5q-92 0 -149 71.5t-57 184.5zM142 161q0 -60 27.5 -96.5t73.5 -36.5q48 0 81.5 46.5t33.5 123.5h-175 q-24 0 -32.5 -7.5t-8.5 -29.5z" />
<glyph unicode="&#x2be;" horiz-adv-x="357" d="M40 607q23 56 53 79.5t77 23.5q65 0 106 -47t41 -121q0 -79 -44.5 -129t-112.5 -50q-48 0 -80 25.5t-32 61.5q0 24 14 39t35 15t34.5 -13t13.5 -33q0 -18 -15 -35q0 -1 -1 -2l-1 -1q0 -12 29 -12q34 0 54 34.5t20 91.5q0 55 -21 87t-58 32q-23 0 -39.5 -15t-31.5 -48 q-4 -6 -10 -4l-26 10q-7 3 -5 11z" />
<glyph unicode="&#x2bf;" horiz-adv-x="357" d="M40 531q0 79 44.5 129t112.5 50q48 0 80 -25.5t32 -61.5q0 -24 -14 -39t-35 -15t-34.5 13t-13.5 33q0 17 15 35l1.5 1.5t0.5 1.5q0 12 -29 12q-34 0 -54 -34.5t-20 -91.5q0 -55 21 -87t58 -32q23 0 39.5 15t31.5 48q4 6 10 4l26 -10q7 -3 5 -11q-23 -56 -53 -79.5 t-77 -23.5q-65 0 -106 47t-41 121z" />
<glyph unicode="&#x2c6;" d="M10 527l125 166h63l125 -166h-36l-120 101l-121 -101h-36z" />
<glyph unicode="&#x2c7;" d="M10 693h36l120 -101l121 101h36l-125 -166h-63z" />
<glyph unicode="&#x2d8;" d="M25 676v13h36q4 -45 31.5 -70t74.5 -25q46 0 73.5 25t31.5 70h36v-14q0 -61 -40.5 -102t-101.5 -41t-101 41t-40 103z" />
<glyph unicode="&#x2d9;" d="M117 610q0 20 15 35t35 15t35 -15t15 -35q0 -21 -15 -35.5t-36 -14.5q-20 0 -34.5 15t-14.5 35z" />
<glyph unicode="&#x2da;" d="M67 611q0 41 29.5 70t69.5 29q41 0 70.5 -29t29.5 -70q0 -42 -29.5 -71t-71.5 -29q-40 0 -69 29.5t-29 70.5zM103 611q0 -26 18.5 -45t44.5 -19q27 0 45.5 18.5t18.5 45.5q0 25 -19 44t-44 19q-26 0 -45 -18.5t-19 -44.5z" />
<glyph unicode="&#x2db;" d="M62 -124q0 35 32 74t72 64h57q-25 -13 -49 -49t-24 -86q0 -51 40 -51q29 0 49.5 10t31 20t14.5 10q10 0 10 -12q0 -35 -29.5 -63.5t-89.5 -28.5q-47 0 -80.5 30.5t-33.5 81.5z" />
<glyph unicode="&#x2dc;" d="M1 557q10 47 36.5 74t63.5 27q27 0 86 -27q43 -19 59 -19q17 0 31.5 14.5t19.5 36.5h35q-5 -47 -35 -76.5t-73 -29.5q-30 0 -89 28q-30 14 -52 14q-36 0 -47 -42h-35z" />
<glyph unicode="&#x2dd;" d="M95 536l35 98q21 59 53 59q11 0 19 -8.5t8 -19.5q0 -19 -18 -40l-81 -98zM213 536l35 98q21 59 53 59q11 0 19 -8.5t8 -19.5q0 -18 -18 -40l-81 -98z" />
<glyph unicode="&#x300;" horiz-adv-x="0" d="M-427 660q0 14 10.5 24.5t24.5 10.5q19 0 50 -31l140 -140h-41l-159 97q-25 15 -25 39z" />
<glyph unicode="&#x301;" horiz-adv-x="0" d="M-353 524l140 140q31 31 50 31q14 0 24.5 -10.5t10.5 -24.5q0 -24 -25 -39l-159 -97h-41z" />
<glyph unicode="&#x302;" horiz-adv-x="0" d="M-434 527l125 166h63l125 -166h-36l-120 101l-121 -101h-36z" />
<glyph unicode="&#x303;" horiz-adv-x="0" d="M-443 557q10 47 36.5 74t63.5 27q27 0 86 -27q43 -19 59 -19q17 0 31.5 14.5t19.5 36.5h35q-5 -47 -35 -76.5t-73 -29.5q-30 0 -89 28q-30 14 -52 14q-36 0 -47 -42h-35z" />
<glyph unicode="&#x304;" horiz-adv-x="0" d="M-434 583v54h313v-54h-313z" />
<glyph unicode="&#x306;" horiz-adv-x="0" d="M-419 676v13h36q4 -45 31.5 -70t74.5 -25q46 0 73.5 25t31.5 70h36v-14q0 -61 -40.5 -102t-101.5 -41t-101 41t-40 103z" />
<glyph unicode="&#x307;" horiz-adv-x="0" d="M-327 610q0 20 15 35t35 15t35 -15t15 -35q0 -21 -15 -35.5t-36 -14.5q-20 0 -34.5 15t-14.5 35z" />
<glyph unicode="&#x308;" horiz-adv-x="0" d="M-427 610q0 20 15 35t35 15t35 -15t15 -35q0 -21 -15 -35.5t-36 -14.5q-20 0 -34.5 15t-14.5 35zM-228 610q0 20 15 35t35 15t35 -15t15 -35q0 -21 -15 -35.5t-36 -14.5q-20 0 -34.5 15t-14.5 35z" />
<glyph unicode="&#x309;" horiz-adv-x="0" d="M-377 639q0 30 29 49t75 19q43 0 68.5 -24.5t25.5 -52.5q0 -18 -12 -30.5t-50 -32.5q-21 -11 -26.5 -20t-5.5 -33h-33v31q0 12 8.5 22.5t43.5 38.5h-1q14 12 14 25t-12.5 24.5t-32.5 11.5q-24 0 -32 -6q19 -17 19 -31t-10.5 -23.5t-26.5 -9.5q-18 0 -29.5 12t-11.5 30z " />
<glyph unicode="&#x30a;" horiz-adv-x="0" d="M-377 611q0 41 29.5 70t69.5 29q41 0 70.5 -29t29.5 -70q0 -42 -29.5 -71t-71.5 -29q-40 0 -69 29.5t-29 70.5zM-341 611q0 -26 18.5 -45t44.5 -19q27 0 45.5 18.5t18.5 45.5q0 25 -19 44t-44 19q-26 0 -45 -18.5t-19 -44.5z" />
<glyph unicode="&#x30b;" horiz-adv-x="0" d="M-349 536l35 98q21 59 53 59q11 0 19 -8.5t8 -19.5q0 -19 -18 -40l-81 -98zM-231 536l35 98q21 59 53 59q11 0 19 -8.5t8 -19.5q0 -18 -18 -40l-81 -98z" />
<glyph unicode="&#x30c;" horiz-adv-x="0" d="M-434 693h36l120 -101l121 101h36l-125 -166h-63z" />
<glyph unicode="&#x30f;" horiz-adv-x="0" d="M-439 665q0 11 8 19.5t19 8.5q32 0 53 -59l35 -98l-16 -9l-81 98q-18 22 -18 40zM-321 665q0 11 8 19.5t19 8.5q32 0 53 -59l35 -98l-16 -9l-81 98q-18 21 -18 40z" />
<glyph unicode="&#x311;" horiz-adv-x="0" d="M-419 532v14q0 61 40.5 102t101.5 41t101 -41t40 -103v-13h-36q-4 45 -31.5 70t-74.5 25q-46 0 -73.5 -25t-31.5 -70h-36z" />
<glyph unicode="&#x323;" horiz-adv-x="0" d="M-327 -144q0 20 15 35t35 15t35 -15t15 -35q0 -21 -15 -35.5t-36 -14.5q-20 0 -34.5 15t-14.5 35z" />
<glyph unicode="&#x326;" horiz-adv-x="0" d="M-348 -277q91 57 91 123q0 8 -6 8h-3q-4 -1 -12 -1q-30 0 -47 14t-17 39q0 23 17 38.5t42 15.5q32 0 53 -24t21 -62q0 -58 -38 -109q-27 -35 -81 -67z" />
<glyph unicode="&#x32e;" horiz-adv-x="0" d="M-447 -73h43q5 -41 38 -63.5t89 -22.5t88.5 22.5t37.5 63.5h44q0 -64 -48.5 -103t-122.5 -39t-121.5 39t-47.5 103z" />
<glyph unicode="&#x32f;" horiz-adv-x="0" d="M-447 -215q0 64 48.5 103t122.5 39t121.5 -39t47.5 -103h-43q-5 41 -38 63.5t-89 22.5t-88.5 -22.5t-37.5 -63.5h-44z" />
<glyph unicode="&#x330;" horiz-adv-x="0" d="M-443 -197q10 47 36.5 74t63.5 27q27 0 86 -27q43 -19 59 -19q17 0 31.5 14.5t19.5 36.5h35q-5 -47 -35 -76.5t-73 -29.5q-30 0 -89 28q-30 14 -52 14q-36 0 -47 -42h-35z" />
<glyph unicode="&#x331;" horiz-adv-x="0" d="M-434 -117h313v-54h-313v54z" />
<glyph unicode="&#x332;" horiz-adv-x="0" d="M-434 -117h313v-54h-313v54z" />
<glyph unicode="&#x391;" horiz-adv-x="722" d="M-8 0v47h14q37 0 55 19t45 87l230 583h42l255 -625q18 -43 30 -53.5t49 -10.5h19v-47h-310v47h42q62 0 62 26q0 7 -8 27l-54 134h-265l-33 -88q-9 -24 -9 -42q0 -57 81 -57h20v-47h-265zM218 288h224l-113 284z" />
<glyph unicode="&#x392;" horiz-adv-x="722" d="M30 0v47h18q61 0 75.5 7.5t14.5 39.5v534q0 32 -14.5 39.5t-75.5 7.5h-18v47h359q115 0 179 -45t64 -131q0 -63 -41 -107.5t-121 -61.5q102 -18 151 -62.5t49 -118.5q0 -92 -73.5 -144t-203.5 -52h-363zM250 110q0 -41 10 -52t48 -11h42q107 0 152 33t45 119 q0 83 -46.5 117t-162.5 34h-88v-240zM250 397h89q96 0 136.5 31t40.5 105q0 73 -37 107.5t-123 34.5h-40q-39 0 -52.5 -10.5t-13.5 -39.5v-228z" />
<glyph unicode="&#x393;" horiz-adv-x="667" d="M29 0v47h18q61 0 75.5 7.5t14.5 39.5v534q0 32 -14.5 39.5t-75.5 7.5h-18v47h609v-256h-44q-21 128 -66.5 168.5t-169.5 40.5h-46q-41 0 -52 -9t-11 -41v-531q0 -32 14.5 -39.5t75.5 -7.5h33v-47h-343z" />
<glyph unicode="&#x394;" horiz-adv-x="612" d="M6 0l321 688l281 -688h-602zM77 51h402l-189 458z" />
<glyph unicode="&#x395;" horiz-adv-x="722" d="M29 0v47h18q61 0 75.5 7.5t14.5 39.5v534q0 32 -14.5 39.5t-75.5 7.5h-18v47h615v-256h-43q-11 68 -25.5 107t-42 63t-66 31.5t-103.5 7.5h-52q-41 0 -52 -9t-11 -41v-228h24q71 0 103.5 32t36.5 105h47v-328h-47q-2 78 -29.5 111t-114.5 33h-20v-255q0 -30 15.5 -39 t56.5 -9h66q114 0 161 46.5t71 173.5h44l-20 -267h-614z" />
<glyph unicode="&#x396;" horiz-adv-x="611" d="M24 0v36l409 639h-130q-101 0 -141 -40.5t-64 -165.5h-45l20 253h496v-36l-411 -639h166q105 0 144 52q41 50 60 179h47l-18 -278h-533z" />
<glyph unicode="&#x397;" horiz-adv-x="833" d="M29 0v47h18q61 0 75.5 7.5t14.5 39.5v534q0 32 -14.5 39.5t-75.5 7.5h-18v47h329v-47h-19q-61 0 -75.5 -7.5t-14.5 -39.5v-227h335v227q0 32 -14.5 39.5t-75.5 7.5h-14v47h324v-47h-18q-61 0 -75.5 -7.5t-14.5 -39.5v-534q0 -32 14.5 -39.5t75.5 -7.5h18v-47h-328v47h18 q61 0 75.5 7.5t14.5 39.5v253h-335v-253q0 -32 14.5 -39.5t75.5 -7.5h19v-47h-329z" />
<glyph unicode="&#x398;" horiz-adv-x="778" d="M45 360q0 157 97.5 267t250.5 110q144 0 242 -108.5t98 -267.5q0 -161 -98.5 -268.5t-245.5 -107.5q-146 0 -245 107.5t-99 267.5zM177 363q0 -56 4.5 -100.5t18.5 -89t36.5 -74.5t61.5 -48.5t91 -18.5t90.5 18.5t61.5 48t36.5 74t18.5 89t5 99.5q0 69 -8.5 123t-30 103 t-64.5 76t-106 27q-65 0 -109 -26t-66.5 -74.5t-31 -102t-8.5 -124.5zM244 203v311h47v-20q0 -32 0.5 -46.5t7.5 -22.5t13 -8.5t26 -0.5h104q33 0 40 10.5t7 69.5v20h47v-311h-47v20q0 58 -7 68.5t-40 10.5h-104q-33 0 -40 -11.5t-7 -69.5v-20h-47z" />
<glyph unicode="&#x399;" horiz-adv-x="407" d="M38 0v47h20q61 0 75.5 7.5t14.5 39.5v534q0 32 -14.5 39.5t-75.5 7.5h-20v47h331v-47h-20q-60 0 -74.5 -7.5t-14.5 -39.5v-534q0 -32 14.5 -39.5t74.5 -7.5h20v-47h-331z" />
<glyph unicode="&#x39a;" horiz-adv-x="778" d="M30 0v47h18q61 0 75.5 7.5t14.5 39.5v534q0 32 -14.5 39.5t-75.5 7.5h-18v47h329v-47h-19q-61 0 -75.5 -7.5t-14.5 -39.5v-301l245 246q49 49 49 72q0 30 -65 30h-25v47h308v-47q-94 0 -169 -80l-149 -149l242 -349q22 -33 39 -41.5t59 -8.5h19v-47h-342v47h31 q68 0 68 23q0 12 -20 42l-174 255l-116 -117v-156q0 -32 14.5 -39.5t75.5 -7.5h19v-47h-329z" />
<glyph unicode="&#x39b;" horiz-adv-x="722" d="M-8 0v47h14q37 0 55 19t45 87l230 583h42l255 -625q18 -43 30 -53.5t49 -10.5h19v-47h-310v47h42q62 0 62 26q0 7 -8 27l-188 472l-164 -426q-9 -24 -9 -42q0 -57 81 -57h20v-47h-265z" />
<glyph unicode="&#x39c;" horiz-adv-x="944" d="M22 0v47q72 3 94 35t22 134v412q0 32 -14.5 39.5t-75.5 7.5h-19v47h258l192 -533l183 533h251v-47h-18q-61 0 -75.5 -7.5t-14.5 -39.5v-534q0 -32 14.5 -39.5t75.5 -7.5h18v-47h-328v47h18q61 0 75.5 7.5t14.5 39.5v564l-223 -658h-40l-238 658v-442q0 -102 22 -134 t93 -35v-47h-285z" />
<glyph unicode="&#x39d;" horiz-adv-x="815" d="M19 675v47h206l399 -531v314q0 103 -22 135t-93 35v47h285v-47q-72 -3 -94 -35t-22 -135v-519h-42l-446 602v-371q0 -103 22 -135t93 -35v-47h-285v47q72 3 94 35t22 135v425q-13 19 -33.5 26t-58.5 7h-25z" />
<glyph unicode="&#x39e;" horiz-adv-x="768" d="M1 220h26q14 -34 23.5 -50t31 -32t56 -21t91.5 -5h311q57 0 91.5 5t56 21t31 32t23.5 50h26l-54 -220h-659zM1 502l54 220h659l54 -220h-26q-14 34 -23.5 50t-31 32t-56 21t-91.5 5h-311q-57 0 -91.5 -5t-56 -21t-31 -32t-23.5 -50h-26zM162 203v311h47v-20 q0 -32 0.5 -46.5t7.5 -22.5t13 -8.5t26 -0.5h254q33 0 40 10.5t7 69.5v20h47v-311h-47v20q0 58 -7 68.5t-40 10.5h-254q-33 0 -40 -11.5t-7 -69.5v-20h-47z" />
<glyph unicode="&#x39f;" horiz-adv-x="778" d="M45 360q0 157 97.5 267t250.5 110q144 0 242 -108.5t98 -267.5q0 -161 -98.5 -268.5t-245.5 -107.5q-146 0 -245 107.5t-99 267.5zM177 363q0 -170 53 -250.5t159 -80.5q212 0 212 329t-209 329q-108 0 -161.5 -79.5t-53.5 -247.5z" />
<glyph unicode="&#x3a0;" horiz-adv-x="833" d="M29 0v47h18q61 0 75.5 7.5t14.5 39.5v534q0 32 -14.5 39.5t-75.5 7.5h-18v47h775v-47h-18q-61 0 -75.5 -7.5t-14.5 -39.5v-534q0 -32 14.5 -39.5t75.5 -7.5h18v-47h-328v47h18q61 0 75.5 7.5t14.5 39.5v534q0 32 -14.5 39.5t-75.5 7.5h-155q-61 0 -75.5 -7.5t-14.5 -39.5 v-534q0 -32 14.5 -39.5t75.5 -7.5h19v-47h-329z" />
<glyph unicode="&#x3a1;" horiz-adv-x="667" d="M28 0v47h18q61 0 75.5 7.5t14.5 39.5v534q0 32 -14.5 39.5t-75.5 7.5h-18v47h350q135 0 203 -51.5t68 -146.5q0 -59 -29 -105.5t-82 -71.5q-55 -26 -177 -26h-113v-227q0 -32 14.5 -39.5t75.5 -7.5h26v-47h-336zM248 368h121q157 0 157 152q0 79 -37.5 117t-115.5 38h-64 q-41 0 -51 -8.5t-10 -42.5v-256z" />
<glyph unicode="&#x3a3;" horiz-adv-x="678" d="M14 0l242 319l-233 403h593l10 -165h-26q-13 76 -44.5 100t-117.5 24h-262l188 -306l-201 -263h292q87 0 120.5 18.5t57.5 79.5h26l-54 -210h-591z" />
<glyph unicode="&#x3a4;" horiz-adv-x="667" d="M19 444l15 278h599l15 -278h-43q-12 85 -33 137q-19 45 -54 69.5t-81 24.5q-47 0 -47 -36v-545q0 -32 14.5 -39.5t74.5 -7.5h26v-47h-343v47h26q61 0 75.5 7.5t14.5 39.5v545q0 36 -47 36q-102 0 -142 -111q-17 -50 -27 -120h-43z" />
<glyph unicode="&#x3a5;" horiz-adv-x="704" d="M21 542q0 74 30.5 127t87.5 53q47 0 83 -19t59.5 -54.5t39.5 -78t24.5 -99t11.5 -108t3 -113.5h4q0 54 1.5 96.5t6.5 93.5t13.5 89.5t24.5 76.5t37.5 62t53 39t71.5 15q55 0 83 -53t28 -127h-42q0 34 -19.5 60t-49.5 26q-32 0 -56.5 -12.5t-41 -30.5t-27.5 -51.5 t-16.5 -60t-8.5 -72.5t-3.5 -73.5t-0.5 -77.5v-156q0 -32 14 -39.5t75 -7.5h26v-47h-343v47h26q61 0 75.5 7.5t14.5 39.5v156q0 51 -2 90.5t-7.5 86t-17 80t-29 62.5t-46 44t-65.5 15q-32 0 -54 -25.5t-22 -60.5h-42z" />
<glyph unicode="&#x3a6;" horiz-adv-x="710" d="M40 361q0 86 74 137t186 62v68q0 32 -14.5 39.5t-75.5 7.5h-20v47h331v-47h-20q-60 0 -74.5 -7.5t-14.5 -39.5v-68q71 -7 128 -30t94 -67t37 -102t-37 -102t-94 -67t-128 -30v-68q0 -32 14.5 -39.5t74.5 -7.5h20v-47h-331v47h20q61 0 75.5 7.5t14.5 39.5v68 q-112 11 -186 62t-74 137zM144 361q0 -59 44.5 -100t111.5 -54v308q-67 -13 -111.5 -54t-44.5 -100zM412 207q67 13 111 54t44 100t-44 100t-111 54v-308z" />
<glyph unicode="&#x3a7;" horiz-adv-x="704" d="M-6 675v47h309v-47h-38q-48 0 -48 -13q0 -9 11 -25l133 -192l108 157q14 20 14 34q0 21 -12 30t-47 9h-24v47h275v-47h-16q-40 0 -68 -19t-69 -75l-133 -181l210 -301q26 -37 40.5 -44.5t62.5 -7.5h14v-47h-328v47h28q46 0 56.5 3t10.5 15q0 11 -13 31l-149 211 l-116 -168q-16 -24 -16 -44q0 -22 17.5 -35t47.5 -13h25v-47h-284v47h14q37 -1 63 17.5t58 62.5l162 225l-197 285q-17 25 -32 31.5t-52 6.5h-17z" />
<glyph unicode="&#x3a8;" horiz-adv-x="725" d="M40 557v42q71 0 116.5 -59.5t45.5 -140.5q0 -62 28.5 -113.5t76.5 -72.5v415q0 32 -14.5 39.5t-75.5 7.5h-20v47h331v-47h-20q-60 0 -74.5 -7.5t-14.5 -39.5v-415q47 21 75.5 72.5t28.5 113.5q0 81 45.5 140.5t116.5 59.5v-42q-21 0 -33.5 -13t-17.5 -40.5t-6 -47.5 t-1 -57q0 -87 -59.5 -151.5t-148.5 -82.5v-71q0 -32 14.5 -39.5t74.5 -7.5h20v-47h-331v47h20q61 0 75.5 7.5t14.5 39.5v71q-90 17 -149.5 81.5t-59.5 152.5q0 37 -1 57t-6 47.5t-17.5 40.5t-33.5 13z" />
<glyph unicode="&#x3a9;" horiz-adv-x="768" d="M1 210h26q22 -57 70 -77.5t158 -20.5q0 31 -22 61.5t-53.5 56.5t-63.5 53t-54 62t-22 73q0 151 94.5 235t253.5 84q150 0 245 -82.5t95 -235.5q0 -38 -22.5 -73.5t-54.5 -62.5t-64 -53.5t-54.5 -56.5t-22.5 -61q115 0 162 20t70 78h26l-54 -210h-267v112q0 36 23 73 t51 65t51.5 73t23.5 96q0 138 -43 204.5t-166 66.5q-66 0 -109 -17t-66 -54t-31.5 -83t-8.5 -115q0 -51 23.5 -96.5t51 -73.5t50.5 -65t23 -74v-112h-265z" />
<glyph unicode="&#x3b1;" horiz-adv-x="773" d="M40 230q0 106 80 178.5t192 72.5q70 0 127 -40.5t90 -107.5q45 112 88 155l57 -56q-81 -79 -122 -163q4 -15 6 -32q4 -26 5.5 -36t6 -35t7.5 -36.5t8.5 -31t11 -29.5t13 -21.5t16.5 -16t19 -4.5q46 0 46 88h42q0 -53 -23.5 -91.5t-64.5 -38.5q-104 0 -156 139 q-72 -139 -177 -139q-111 0 -191.5 70.5t-80.5 174.5zM144 230q0 -82 47.5 -142.5t120.5 -60.5q57 0 93.5 42.5t66.5 115.5q-2 10 -7 38q-31 216 -153 216q-73 0 -120.5 -62t-47.5 -147z" />
<glyph unicode="&#x3b2;" horiz-adv-x="580" d="M8 -229q32 120 32 229v466q0 111 70.5 191t174.5 80q86 0 149.5 -52t63.5 -130q0 -56 -42 -98.5t-106 -61.5q83 -21 139 -72t56 -123q0 -93 -77.5 -154t-182.5 -61q-83 0 -151 41v-26q0 -124 -28 -229h-98zM134 76q66 -49 151 -49q66 0 111 51t45 122q0 81 -77 127 t-183 46v42q87 0 150 36.5t63 103.5q0 57 -30.5 98.5t-78.5 41.5q-72 0 -111.5 -68t-39.5 -161v-390z" />
<glyph unicode="&#x3b3;" horiz-adv-x="597" d="M40 256q0 93 34 159t101 66q49 0 83.5 -29.5t53 -85t27 -116t11.5 -141.5l15 20q112 147 112 337h80q0 -93 -42 -179.5t-116 -182.5l-47 -62v-104q0 -44 -1 -67.5t-6.5 -56.5t-19.5 -48.5t-36 -15.5q-59 0 -79 64.5t19 133.5q8 13 80 108q-2 71 -8 124t-19.5 103.5 t-40.5 77t-66 26.5q-43 0 -68 -39t-25 -92h-42zM265 -73q-18 -31 -21 -62.5t9 -52t36 -20.5q21 0 21 146v49q-42 -55 -45 -60z" />
<glyph unicode="&#x3b4;" horiz-adv-x="515" d="M40 210q0 74 60.5 120.5t153.5 60.5q-100 100 -100 197q0 61 36.5 105t91.5 44q61 0 107 -35t50 -90l-80 -7q-3 37 -24 63.5t-53 26.5t-47.5 -31.5t-15.5 -75.5q0 -21 9 -41.5t29.5 -43.5t34 -36.5t40.5 -37.5q36 -32 53 -49.5t42.5 -48t36.5 -60t11 -61.5 q0 -93 -63.5 -159t-153.5 -66q-91 0 -154.5 66t-63.5 159zM144 210q0 -75 29 -129t85 -54q55 0 84 54t29 129q0 70 -76 142q-64 -8 -107.5 -46.5t-43.5 -95.5z" />
<glyph unicode="&#x3b5;" horiz-adv-x="527" d="M40 151q0 74 78 106q-57 33 -57 95t61 94.5t146 32.5q103 0 184 -67l-27 -32q-70 57 -157 57q-46 0 -79.5 -23.5t-33.5 -61.5q0 -52 56 -73q54 6 142 6v-67q-95 0 -152 11q-67 -20 -67 -78q0 -55 49 -88t115 -33q46 0 87.5 22t67.5 60l34 -23q-32 -47 -82 -74t-107 -27 q-106 0 -182 42t-76 121z" />
<glyph unicode="&#x3b6;" horiz-adv-x="484" d="M40 181q0 145 44 265t129 173q-41 46 -31 103h82q-8 -44 12 -76q32 7 58 7q88 0 88 -43q0 -42 -88 -42q-46 0 -82 21q-35 -23 -57.5 -65.5t-33 -102.5t-14 -114t-3.5 -126q0 -68 54 -114t128 -46q58 0 98 -43.5t40 -103.5q0 -51 -35 -87.5t-85 -36.5q-60 0 -110 32l23 36 q40 -26 87 -26q33 0 55.5 24t22.5 58q0 43 -27.5 74t-68.5 31q-116 0 -201 54.5t-85 147.5z" />
<glyph unicode="&#x3b7;" horiz-adv-x="606" d="M40 350q0 54 18.5 92.5t57.5 38.5q37 0 66 -22t45 -59q44 81 128 81q85 0 148 -49t63 -124q0 -52 -17.5 -154.5t-17.5 -153.5q0 -109 32 -229h-98q-28 105 -28 229q0 51 12.5 153.5t12.5 154.5q0 53 -30 92t-77 39t-78 -39t-31 -92v-308h-94v308v30.5t-1 28.5t-3.5 28.5 t-6 22t-10 16.5t-15.5 5q-12 0 -19.5 -7t-10.5 -23t-3.5 -27t-0.5 -32h-42z" />
<glyph unicode="&#x3b8;" horiz-adv-x="535" d="M40 358q0 73 13 138.5t39.5 120.5t71.5 87.5t104 32.5q77 0 130 -57.5t75 -140t22 -181.5q0 -97 -22.5 -179t-75.5 -138t-129 -56q-77 0 -130 56t-75.5 138t-22.5 179zM144 337q0 -38 0.5 -64.5t3.5 -61.5t8 -59t14 -49.5t22 -40.5t32 -25t44 -10q28 0 49.5 12t34.5 36.5 t21.5 50.5t12 65.5t4.5 70t1 75.5h-247zM144 379h247q0 38 -0.5 65t-3.5 62.5t-7.5 60t-14 50.5t-22 42t-32 26t-43.5 10q-25 0 -44 -10t-32 -26t-22 -42t-14 -50.5t-8 -60t-3.5 -62.5t-0.5 -65z" />
<glyph unicode="&#x3b9;" horiz-adv-x="334" d="M80 117v349h94v-349q0 -90 41 -90q13 0 21 7.5t11 22.5t4 27.5t1 32.5h42q0 -54 -20 -93t-59 -39q-56 0 -95.5 38.5t-39.5 93.5z" />
<glyph unicode="&#x3ba;" horiz-adv-x="584" d="M40 0v466h94v-178q37 17 94 84q43 51 84 80t90 29q38 0 65 -27.5t26 -65.5l-42 1q1 20 -14 35t-35 15q-28 0 -56 -16t-44.5 -32.5t-41.5 -46.5q-39 -46 -71 -70q75 -6 126.5 -35t51.5 -84q0 -28 1.5 -46t6.5 -39.5t16.5 -32t30.5 -10.5q34 0 57 26.5t23 63.5h42 q0 -54 -35.5 -93t-86.5 -39q-64 0 -106.5 50.5t-42.5 119.5q0 42 -37.5 59t-101.5 20v-234h-94z" />
<glyph unicode="&#x3bb;" horiz-adv-x="623" d="M40 0l241 469l-27 84q-10 32 -17.5 50.5t-22.5 37t-34 18.5q-20 0 -31 -19t-11 -46h-42q0 60 20.5 102.5t63.5 42.5q21 0 38.5 -14.5t32 -44.5t23 -53t20.5 -61l121 -385q9 -28 14 -42t15.5 -35.5t23 -31t27.5 -9.5q21 0 33.5 19.5t12.5 45.5h42q0 -60 -22 -102.5 t-66 -42.5q-22 0 -40 15.5t-33.5 48t-24.5 56.5t-22 66l-54 172l-175 -341h-106z" />
<glyph unicode="&#x3bc;" horiz-adv-x="692" d="M80 -250q15 183 15 367v349h94v-349q0 -39 31.5 -64.5t74.5 -25.5q69 0 109 63q-3 12 -3 27v349h94v-349q0 -37 17 -63.5t46 -26.5q26 0 39 26.5t13 63.5h42q0 -53 -25.5 -92.5t-68.5 -39.5q-87 0 -134 61q-51 -61 -129 -61q-94 0 -150 41q9 -139 44 -276h-109z" />
<glyph unicode="&#x3bd;" horiz-adv-x="551" d="M40 352q0 129 67 129q69 0 111 -107l115 -304l37 22q50 29 74.5 83t24.5 119q0 62 -92 128l54 76q80 -57 80 -204q0 -76 -30.5 -140t-89.5 -99l-125 -72l-131 347q-7 20 -1.5 44.5t1 44.5t-27.5 20q-17 0 -21 -23t-4 -64h-42z" />
<glyph unicode="&#x3be;" horiz-adv-x="539" d="M40 114q0 120 139 174q-105 39 -105 131q0 72 45.5 126.5t120.5 82.5q-35 41 -35 94h80q0 -42 23 -75q35 6 70 6q29 0 45 -1t38 -4.5t32.5 -13t10.5 -24.5t-10.5 -24t-32.5 -12.5t-38 -4.5t-45 -1q-49 0 -90 22q-50 -24 -80 -69.5t-30 -101.5q0 -78 102 -104 q71 11 140 11v-67q-83 0 -136 6q-64 -19 -102 -57t-38 -94q0 -43 26 -76t66 -38q32 -4 49.5 -6.5t48 -7.5t48.5 -9.5t42.5 -11.5t39 -16t28.5 -19.5t20.5 -25t6.5 -30.5q0 -51 -21 -87.5t-60 -36.5q-47 0 -76 37l32 26q18 -21 44 -21q39 0 39 82q0 13 -10 23.5t-31 19 t-41.5 14.5t-54 11.5t-54.5 8.5t-56 7q-79 10 -134.5 51t-55.5 105z" />
<glyph unicode="&#x3bf;" horiz-adv-x="500" d="M34 232q0 105 63 177t155 72q89 0 151.5 -72.5t62.5 -175.5t-63 -175.5t-153 -72.5t-153 72t-63 175zM139 232q0 -99 28.5 -151.5t82.5 -52.5t82.5 52.5t28.5 152.5q0 99 -28 152t-81 53q-113 0 -113 -206z" />
<glyph unicode="&#x3c0;" horiz-adv-x="706" d="M40 311q0 73 30.5 126t86.5 53q53 0 160 -16t162 -15q82 2 157 28l30 -89q-67 -24 -139 -30v-220q0 -50 20.5 -85.5t57.5 -35.5v-42q-70 0 -121 47.5t-51 115.5v219q-14 1 -168 20v-166q0 -102 -57.5 -177t-146.5 -75v80q68 0 115 51t47 121v171q-44 4 -66 4 q-32 0 -53.5 -25t-21.5 -60h-42z" />
<glyph unicode="&#x3c1;" horiz-adv-x="590" d="M40 230q0 104 75 177.5t180 73.5t180 -73.5t75 -177.5q0 -102 -75 -173.5t-180 -71.5q-69 0 -132 29q6 -50 6 -97q0 -95 -27 -167h-100q33 89 33 167q0 53 -17.5 156.5t-17.5 156.5zM144 230q0 -56 14 -166q63 -37 137 -37q68 0 109.5 60.5t41.5 142.5q0 84 -41 146.5 t-110 62.5t-110 -62.5t-41 -146.5z" />
<glyph unicode="&#x3c2;" horiz-adv-x="492" d="M40 276q0 91 78.5 148t184.5 57q107 0 149 -37l-52 -60q-64 55 -97 55q-69 0 -119 -47.5t-50 -115.5q0 -97 118 -166q59 -34 112 -70q73 -49 73 -102q0 -35 -25 -59.5t-60 -24.5q-66 0 -110 49l32 28q32 -35 78 -35q18 0 30.5 12t12.5 30q0 14 -9.5 27.5t-18.5 21 t-27 19.5q-36 24 -110 68q-37 22 -54.5 33t-48.5 34t-46.5 40.5t-28 43t-12.5 51.5z" />
<glyph unicode="&#x3c3;" horiz-adv-x="539" d="M40 232q0 105 63 177t155 72q10 0 30 -2q71 8 183 62l28 -57q-60 -28 -134 -36q49 -33 78 -90t29 -125q0 -103 -63 -175.5t-153 -72.5t-153 72t-63 175zM145 232q0 -99 28.5 -151.5t82.5 -52.5t82.5 52.5t28.5 152.5q0 99 -28 152t-81 53q-113 0 -113 -206z" />
<glyph unicode="&#x3c4;" horiz-adv-x="591" d="M40 311q0 73 30.5 126t86.5 53q16 0 139 -32q111 -28 211 26l44 -83q-99 -53 -208 -45v-239q0 -90 40 -90q17 0 26 15t10.5 31.5t1.5 43.5h42q0 -54 -20 -93t-60 -39q-56 0 -95 38.5t-39 93.5v256l-92 23q-32 0 -53.5 -25t-21.5 -60h-42z" />
<glyph unicode="&#x3c5;" horiz-adv-x="572" d="M40 350q0 54 18.5 92.5t57.5 38.5q54 0 92 -38.5t38 -92.5q0 -32 -5 -97t-5 -98q0 -52 26 -90t69 -38q73 0 116 66.5t43 156.5q0 81 -104 175l62 70q84 -74 84 -245q0 -107 -55.5 -186t-145.5 -79q-81 0 -140 48.5t-59 121.5q0 33 10 97.5t10 97.5q0 28 -1 43t-9.5 30.5 t-25.5 15.5q-12 0 -19.5 -7t-10.5 -23t-3.5 -27t-0.5 -32h-42z" />
<glyph unicode="&#x3c6;" horiz-adv-x="690" d="M40 233q0 74 46.5 136.5t120.5 108.5l23 -36q-86 -53 -86 -209q0 -75 47 -132.5t119 -70.5q-12 175 -12 220q0 93 48 162t126 69q81 0 129.5 -74t48.5 -174q0 -94 -70 -160t-174 -83l1 -52q0 -110 -39 -188h-106q51 99 51 188l-1 48q-114 10 -193 78.5t-79 168.5z M392 250q0 -19 11 -214q63 20 103 74.5t40 122.5q0 32 -0.5 49t-2.5 46t-6.5 44.5t-12.5 33t-21 25.5t-31 8q-27 0 -44.5 -15.5t-24.5 -47.5t-9 -58t-2 -68z" />
<glyph unicode="&#x3c7;" horiz-adv-x="577" d="M40 333q0 62 21.5 106t66.5 44q16 0 31.5 -11t26 -25t24 -40.5t20 -42t18.5 -46.5l57 -148q63 78 97 148t34 148h94q0 -22 -3.5 -44.5t-7 -39.5t-14.5 -41t-16 -37t-22 -39t-22 -34t-27 -36.5t-25.5 -33t-29 -36t-27.5 -33.5l73 -187q30 -77 80 -77q22 0 34 20.5t12 49.5 h42q0 -62 -21.5 -106t-66.5 -44q-18 0 -34.5 9.5t-27.5 21t-23 34t-18 36.5t-17 41l-63 164q-60 -76 -92.5 -144.5t-32.5 -144.5h-94q0 49 14 96t40.5 91t53.5 80t64 81q11 13 16 19l-67 171q-11 30 -19.5 47.5t-25 35t-35.5 17.5q-22 0 -34 -20.5t-12 -49.5h-42z" />
<glyph unicode="&#x3c8;" horiz-adv-x="647" d="M40 350q0 54 18.5 92.5t57.5 38.5q54 0 92 -38.5t38 -92.5q0 -32 -5 -97t-5 -98q0 -44 29.5 -78t73.5 -45v201q0 241 -26 489h94q-26 -248 -26 -489v-206q80 2 132 68t52 155q0 81 -104 175l62 70q84 -74 84 -245q0 -107 -64.5 -185t-161.5 -80v-235h-42v237 q-87 9 -147 53t-60 115q0 33 10 97.5t10 97.5q0 28 -1 43t-9.5 30.5t-25.5 15.5q-12 0 -19.5 -7t-10.5 -23t-3.5 -27t-0.5 -32h-42z" />
<glyph unicode="&#x3c9;" horiz-adv-x="741" d="M40 236q0 115 126 245l30 -30q-62 -63 -62 -215q0 -209 108 -209q80 0 101 138q-12 61 -12 146h80q0 -44 0.5 -67t2.5 -62.5t8 -62t15 -46.5t25 -35t37 -11q108 0 108 209q0 152 -62 215l30 30q126 -130 126 -245q0 -102 -56.5 -176.5t-145.5 -74.5q-92 0 -134 103 q-40 -103 -123 -103q-89 0 -145.5 74.5t-56.5 176.5z" />
<glyph unicode="&#x3d1;" horiz-adv-x="688" d="M40 350q0 54 21.5 92.5t61.5 38.5q52 0 87.5 -38.5t35.5 -92.5q0 -33 -12.5 -97.5t-12.5 -97.5q0 -54 40.5 -91t96.5 -37q31 0 55 12.5t38.5 38t23.5 53t13.5 69t5.5 73t1 77.5l-1 95q-50 0 -86 4t-76 14t-66.5 33.5t-39.5 58.5q-23 67 17 124.5t110 57.5 q90 0 148.5 -67.5t82.5 -176.5q34 8 50 14l14 -40q-31 -10 -57 -15q8 -44 8 -102q0 -95 -25.5 -176t-82 -135t-133.5 -54q-97 0 -169 46t-72 124q0 33 17.5 97t17.5 98q0 21 -0.5 32t-3 26.5t-9 23t-16.5 7.5q-41 0 -41 -89h-42zM266 569q18 -50 75.5 -65.5t149.5 -16.5 q-8 97 -38.5 152.5t-99.5 55.5q-49 0 -76.5 -39.5t-10.5 -86.5z" />
<glyph unicode="&#x3d5;" horiz-adv-x="512" d="M40 232q0 96 53.5 165.5t135.5 81.5l-13 243h80l-13 -243q80 -11 134.5 -81t54.5 -165q0 -96 -55.5 -166.5t-138.5 -80.5v-236h-44v236q-83 10 -138.5 80t-55.5 166zM145 232q0 -181 89 -202v203l-3 202q-86 -24 -86 -203zM278 30q89 21 89 203q0 179 -86 202l-3 -202 v-203z" />
<glyph unicode="&#x3d6;" horiz-adv-x="741" d="M40 236q0 115 126 245l30 -30q-62 -63 -62 -215q0 -209 108 -209q80 0 101 138q-12 61 -12 146h80q0 -44 0.5 -67t2.5 -62.5t8 -62t15 -46.5t25 -35t37 -11q108 0 108 209q0 69 -11 130t-33.5 114t-63.5 83.5t-95 30.5q-127 0 -250 -21l-7 42q128 21 257 21 q90 0 159 -57.5t103.5 -148t34.5 -194.5q0 -102 -56.5 -176.5t-145.5 -74.5q-92 0 -134 103q-40 -103 -123 -103q-89 0 -145.5 74.5t-56.5 176.5z" />
<glyph unicode="&#x3f5;" horiz-adv-x="515" d="M40 247q0 73 49.5 127.5t125 80.5t163.5 26h67v-42h-67q-92 0 -161 -52t-73 -132q27 -2 63 7.5t63.5 19t63.5 12.5t61 -11l-34 -72q-30 14 -66.5 14t-80 -6t-68.5 -5q9 -79 53.5 -133t112.5 -54q46 0 103 65l60 -53q-48 -54 -163 -54q-112 0 -192 76t-80 186z" />
<glyph unicode="&#x400;" horiz-adv-x="722" d="M29 0v47h18q61 0 75.5 7.5t14.5 39.5v534q0 32 -14.5 39.5t-75.5 7.5h-18v47h601l14 -256h-43q-22 133 -72 172q-25 21 -61.5 29t-103.5 8h-52q-41 0 -52 -9t-11 -41v-228h24q71 0 103.5 32t36.5 105h47v-328h-47q-3 82 -38 117q-15 16 -37.5 21.5t-68.5 5.5h-20v-255 q0 -26 8 -33q15 -15 64 -15h66q126 0 172 59q39 47 60 161h44l-20 -267h-614zM125 933q0 15 10 25t25 10q19 0 50 -31l140 -140h-41l-159 97q-25 17 -25 39z" />
<glyph unicode="&#x401;" horiz-adv-x="722" d="M29 0v47h18q61 0 75.5 7.5t14.5 39.5v534q0 32 -14.5 39.5t-75.5 7.5h-18v47h601l14 -256h-43q-22 133 -72 172q-25 21 -61.5 29t-103.5 8h-52q-41 0 -52 -9t-11 -41v-228h24q71 0 103.5 32t36.5 105h47v-328h-47q-3 82 -38 117q-15 16 -37.5 21.5t-68.5 5.5h-20v-255 q0 -26 8 -33q15 -15 64 -15h66q126 0 172 59q39 47 60 161h44l-20 -267h-614zM210 852q0 20 15 35t35 15t35 -15t15 -35q0 -21 -15 -35.5t-36 -14.5q-20 0 -34.5 15t-14.5 35zM409 852q0 20 15 35t35 15t35 -15t15 -35q0 -21 -15 -35.5t-36 -14.5q-20 0 -34.5 15t-14.5 35z " />
<glyph unicode="&#x402;" horiz-adv-x="857" d="M23 500l12 222h598l12 -222h-43q-9 67 -30 104q-17 30 -54 50.5t-81 20.5q-47 0 -47 -36v-246q42 32 57.5 42.5t45 21t64.5 10.5q102 0 167.5 -45.5t65.5 -109.5v-218q0 -59 -29 -105.5t-82 -71.5q-55 -26 -158 -26v51q157 0 157 152v206q0 33 -34 68.5t-82 35.5 q-53 0 -82.5 -14.5t-89.5 -62.5v-233q0 -32 14.5 -39.5t74.5 -7.5h16v-47h-323v47h16q61 0 75.5 7.5t14.5 39.5v545q0 36 -47 36q-44 0 -81 -20.5t-54 -50.5q-21 -37 -30 -104h-43z" />
<glyph unicode="&#x403;" horiz-adv-x="667" d="M29 0v47h18q61 0 75.5 7.5t14.5 39.5v534q0 32 -14.5 39.5t-75.5 7.5h-18v47h595l14 -256h-44q-21 128 -66.5 168.5t-169.5 40.5h-46q-41 0 -52 -9t-11 -41v-531q0 -32 14.5 -39.5t75.5 -7.5h33v-47h-343zM306 797l140 140q31 31 50 31q14 0 24.5 -10.5t10.5 -24.5 q0 -22 -25 -39l-159 -97h-41z" />
<glyph unicode="&#x404;" horiz-adv-x="722" d="M45 354q0 151 94 263q101 120 245 120q54 0 84 -9.5t81 -46.5l40 59h38l15 -289h-44q-15 49 -25 77.5t-28 63.5t-38 53.5t-52 31.5t-72 13q-48 0 -91 -24.5t-66 -66.5q-43 -76 -49 -202h287v-47h-287q0 -161 53.5 -239.5t164.5 -78.5q124 0 186 104q26 43 40 119l47 -8 q-17 -126 -91 -194t-194 -68q-148 0 -243 104t-95 265z" />
<glyph unicode="&#x405;" horiz-adv-x="630" d="M51 277h43q21 -107 78 -171q68 -75 174 -75q75 0 121 40q45 41 45 100q0 60 -46 95q-15 12 -30 17t-72 20l-95 24q-110 29 -155.5 74t-45.5 127q0 94 60.5 151.5t158.5 57.5q110 0 182 -69l40 60h37l12 -260h-43q-20 77 -60 134q-61 87 -167 87q-64 0 -103 -32.5 t-39 -85.5q0 -89 131 -123l107 -27q109 -27 146 -63q60 -58 60 -153q0 -101 -65.5 -160.5t-175.5 -59.5q-65 0 -112.5 17t-97.5 58l-45 -68h-39z" />
<glyph unicode="&#x406;" horiz-adv-x="407" d="M38 0v47h20q61 0 75.5 7.5t14.5 39.5v534q0 32 -14.5 39.5t-75.5 7.5h-20v47h331v-47h-20q-60 0 -74.5 -7.5t-14.5 -39.5v-534q0 -32 14.5 -39.5t74.5 -7.5h20v-47h-331z" />
<glyph unicode="&#x407;" horiz-adv-x="407" d="M38 0v47h20q61 0 75.5 7.5t14.5 39.5v534q0 32 -14.5 39.5t-75.5 7.5h-20v47h331v-47h-20q-60 0 -74.5 -7.5t-14.5 -39.5v-534q0 -32 14.5 -39.5t74.5 -7.5h20v-47h-331zM54 852q0 20 15 35t35 15t35 -15t15 -35q0 -21 -15 -35.5t-36 -14.5q-20 0 -34.5 15t-14.5 35z M253 852q0 20 15 35t35 15t35 -15t15 -35q0 -21 -15 -35.5t-36 -14.5q-20 0 -34.5 15t-14.5 35z" />
<glyph unicode="&#x408;" horiz-adv-x="556" d="M5 155q0 53 28 87.5t72 34.5q33 0 54 -20t21 -52q0 -31 -18 -51.5t-45 -20.5q-16 0 -37 5h-3q-12 0 -12 -16q0 -22 19 -46q34 -44 102 -44q89 0 118 87q13 39 13 158v351q0 32 -14.5 39.5t-74.5 7.5h-19v47h328v-47h-19q-61 0 -75.5 -7.5t-14.5 -39.5v-360 q0 -141 -37 -198q-53 -85 -187 -85q-92 0 -141 43q-58 48 -58 127z" />
<glyph unicode="&#x409;" horiz-adv-x="1145" d="M5 129q0 99 93 99q32 0 49.5 -19t17.5 -51q0 -25 -7.5 -37.5t-16.5 -15t-16.5 -10t-7.5 -23.5q0 -11 8.5 -20.5t22.5 -9.5q41 0 63.5 19t38.5 58q18 45 29.5 87t15.5 92t4.5 79t-0.5 96.5t-1 96.5q0 105 -90 105h-18v47h630v-47h-26q-59 0 -70.5 -7t-11.5 -40v-227h113 q122 0 177 -26q53 -25 82 -71.5t29 -105.5q0 -116 -101 -167q-60 -31 -170 -31h-350v47h18q61 0 75.5 7.5t14.5 39.5v506q0 66 -76 69l-67 -1q-50 1 -66.5 -37.5t-16.5 -138.5v-68.5t-2 -72t-5.5 -77.5t-11.5 -72t-18.5 -70t-28 -57.5t-39 -48.5t-52 -29t-67.5 -12 q-145 0 -145 144zM712 98q0 -34 10 -42.5t51 -8.5h64q78 0 115.5 38t37.5 117q0 152 -157 152h-121v-256z" />
<glyph unicode="&#x40a;" horiz-adv-x="1149" d="M29 0v47h18q61 0 75.5 7.5t14.5 39.5v534q0 32 -14.5 39.5t-75.5 7.5h-18v47h329v-47h-19q-61 0 -75.5 -7.5t-14.5 -39.5v-227h335v227q0 32 -14.5 39.5t-75.5 7.5h-14v47h324v-47h-18q-61 0 -75.5 -7.5t-14.5 -39.5v-227h113q122 0 177 -26q53 -25 82 -71.5t29 -105.5 q0 -116 -101 -167q-60 -31 -170 -31h-350v47h18q61 0 75.5 7.5t14.5 39.5v253h-335v-253q0 -32 14.5 -39.5t75.5 -7.5h19v-47h-329zM696 98q0 -34 10 -42.5t51 -8.5h64q78 0 115.5 38t37.5 117q0 152 -157 152h-121v-256z" />
<glyph unicode="&#x40b;" horiz-adv-x="927" d="M23 500l12 222h598l12 -222h-43q-9 67 -30 104q-17 30 -54 50.5t-81 20.5q-47 0 -47 -36v-246q42 32 57.5 42.5t45 21t64.5 10.5q102 0 167.5 -45.5t65.5 -109.5v-218q0 -32 14.5 -39.5t75.5 -7.5h18v-47h-329v47h19q61 0 75.5 7.5t14.5 39.5v206q0 33 -34 68.5t-82 35.5 q-53 0 -82.5 -14.5t-89.5 -62.5v-233q0 -32 14.5 -39.5t74.5 -7.5h26v-47h-343v47h26q61 0 75.5 7.5t14.5 39.5v545q0 36 -47 36q-44 0 -81 -20.5t-54 -50.5q-21 -37 -30 -104h-43z" />
<glyph unicode="&#x40c;" horiz-adv-x="755" d="M30 0v47h18q61 0 75.5 7.5t14.5 39.5v534q0 32 -14.5 39.5t-75.5 7.5h-18v47h329v-47h-19q-61 0 -75.5 -7.5t-14.5 -39.5v-239q124 0 174 41t50 148q0 158 126 158q53 0 84.5 -29t31.5 -74q0 -27 -18 -46.5t-47 -19.5q-25 0 -44 15t-19 38q0 24 12 35.5t12 15.5 q0 13 -20 13q-8 0 -21.5 -13t-26 -40t-12.5 -56q0 -98 -20 -145.5t-68 -65.5q74 -10 114.5 -68.5t40.5 -148.5q0 -31 4 -50t13 -26t15 -8.5t18 -1.5q20 0 30 23.5t13 75.5h42q-2 -90 -32 -132.5t-92 -42.5q-63 0 -99.5 38.5t-36.5 120.5q0 109 -48 149t-176 41v-240 q0 -32 14.5 -39.5t75.5 -7.5h19v-47h-329zM378 800l140 140q32 31 50 31q15 0 25.5 -10.5t10.5 -24.5q0 -23 -26 -39l-158 -97h-42z" />
<glyph unicode="&#x40d;" horiz-adv-x="833" d="M29 0v47h18q61 0 75.5 7.5t14.5 39.5v534q0 32 -14.5 39.5t-75.5 7.5h-18v47h329v-47h-19q-62 0 -76.5 -7t-14.5 -40v-414l336 336v78q0 32 -14.5 39.5t-75.5 7.5h-14v47h324v-47h-18q-61 0 -75.5 -7.5t-14.5 -39.5v-534q0 -32 14.5 -39.5t75.5 -7.5h18v-47h-328v47h18 q61 0 75.5 7.5t14.5 39.5v383l-336 -337v-46q0 -31 15 -39t76 -8h19v-47h-329zM212 933q0 15 10 25t25 10q19 0 50 -31l140 -140h-41l-159 97q-25 17 -25 39z" />
<glyph unicode="&#x40e;" horiz-adv-x="725" d="M-6 675v47h309v-47h-38q-48 0 -48 -13q0 -5 11 -25l162 -319l138 284q14 30 14 34q0 39 -69 39h-14v47h275v-47h-16q-40 0 -78 -25t-59 -69l-242 -486q-11 -22 -17.5 -32t-24 -28.5t-44.5 -26.5t-65 -8q-125 0 -125 109q0 27 20 43.5t49 16.5q22 0 37.5 -12.5t15.5 -32.5 q0 -19 -6.5 -31t-13.5 -15.5t-13.5 -8t-6.5 -10.5q0 -12 43 -12q36 0 58 20.5t43 59.5l44 85l-238 425q-14 25 -29.5 31.5t-54.5 6.5h-17zM222 941v13h36q5 -45 32.5 -70t73.5 -25t73.5 25t32.5 70h36v-14q0 -61 -41 -102t-101 -41q-61 0 -101.5 41t-40.5 103z" />
<glyph unicode="&#x40f;" horiz-adv-x="833" d="M29 0v47h18q61 0 75.5 7.5t14.5 39.5v534q0 32 -14.5 39.5t-75.5 7.5h-18v47h328v-47h-18q-61 0 -75.5 -7.5t-14.5 -39.5v-574h335v574q0 32 -14.5 39.5t-75.5 7.5h-19v47h329v-47h-18q-61 0 -75.5 -7.5t-14.5 -39.5v-534q0 -32 14.5 -39.5t75.5 -7.5h18v-47h-336v-156 h-104v156h-335z" />
<glyph unicode="&#x410;" horiz-adv-x="722" d="M-8 0v47h4q45 0 71 31q17 18 39 75l230 583h42l255 -625q17 -42 31.5 -53t52.5 -11h14v-47h-310v47h42q62 0 62 26q0 7 -8 27l-54 134h-265l-33 -88q-9 -24 -9 -42q0 -57 81 -57h20v-47h-265zM218 288h224l-113 284z" />
<glyph unicode="&#x411;" horiz-adv-x="722" d="M30 0v47h18q61 0 75.5 7.5t14.5 39.5v534q0 32 -14.5 39.5t-75.5 7.5h-18v47h594l14 -256h-44q-21 129 -64.5 169t-164.5 40h-49q-39 0 -52.5 -10.5t-13.5 -39.5v-228h89q57 0 94.5 -1.5t46.5 -2.5l10 -1q97 -17 138.5 -67t41.5 -129q0 -92 -73.5 -144t-203.5 -52h-363z M250 110q0 -41 10 -52t48 -11h42q91 0 136 23q61 30 61 129q0 98 -72 132q-44 19 -137 19h-88v-240z" />
<glyph unicode="&#x412;" horiz-adv-x="722" d="M30 0v47h18q61 0 75.5 7.5t14.5 39.5v534q0 32 -14.5 39.5t-75.5 7.5h-18v47h359q91 0 145 -24q43 -19 70.5 -61.5t27.5 -90.5q0 -82 -67 -131q-33 -25 -95 -38q102 -18 151 -62.5t49 -118.5q0 -92 -73.5 -144t-203.5 -52h-363zM250 110q0 -41 10 -52t48 -11h42 q91 0 136 23q61 30 61 129q0 98 -72 132q-44 19 -137 19h-88v-240zM250 397h89q96 0 136.5 31t40.5 105q0 87 -55 121q-32 21 -105 21h-40q-39 0 -52.5 -10.5t-13.5 -39.5v-228z" />
<glyph unicode="&#x413;" horiz-adv-x="667" d="M29 0v47h18q61 0 75.5 7.5t14.5 39.5v534q0 32 -14.5 39.5t-75.5 7.5h-18v47h595l14 -256h-44q-21 128 -66.5 168.5t-169.5 40.5h-46q-41 0 -52 -9t-11 -41v-531q0 -32 14.5 -39.5t75.5 -7.5h33v-47h-343z" />
<glyph unicode="&#x414;" horiz-adv-x="906" d="M25 -190l9 238h146q57 41 79 148.5t22 348.5v29q0 101 -89 101h-18v47h630v-47h-18q-59 0 -74.5 -12t-15.5 -50v-519q0 -32 8 -39t43 -8q52 0 60.5 0.5t60.5 0.5l9 -238h-44q-7 44 -15 73.5t-21 51.5t-27.5 34t-40.5 19.5t-54 9.5t-73 2h-302q-45 0 -73 -2t-54 -9.5 t-40.5 -19.5t-27.5 -34t-21 -51.5t-15 -73.5h-44zM267 54h317v532q0 39 -17.5 61t-72.5 22h-21q-62 0 -87 -19.5t-25 -71.5v-29q0 -225 -20.5 -339t-73.5 -156z" />
<glyph unicode="&#x415;" horiz-adv-x="722" d="M29 0v47h18q61 0 75.5 7.5t14.5 39.5v534q0 32 -14.5 39.5t-75.5 7.5h-18v47h601l14 -256h-43q-22 133 -72 172q-25 21 -61.5 29t-103.5 8h-52q-41 0 -52 -9t-11 -41v-228h24q71 0 103.5 32t36.5 105h47v-328h-47q-3 82 -38 117q-15 16 -37.5 21.5t-68.5 5.5h-20v-255 q0 -26 8 -33q15 -15 64 -15h66q126 0 172 59q39 47 60 161h44l-20 -267h-614z" />
<glyph unicode="&#x416;" horiz-adv-x="1036" d="M5 160h42q3 -52 13 -75.5t30 -23.5q12 0 18 1.5t15 8.5t13 26t4 50q0 90 40.5 148.5t114.5 68.5q-47 18 -67.5 68t-20.5 143q0 29 -13 56t-26.5 40t-20.5 13q-9 0 -15.5 -4t-6.5 -8q0 -5 6.5 -9t13 -14t6.5 -29q0 -23 -19 -38t-44 -15q-28 0 -46.5 19.5t-18.5 46.5 q0 45 31.5 74t84.5 29q62 0 94 -36.5t32 -121.5q0 -112 36 -151t153 -38v239q0 32 -14.5 39.5t-75.5 7.5h-18v47h329v-47h-19q-61 0 -75.5 -7.5t-14.5 -39.5v-239q117 -1 153 38t36 151q0 158 126 158q53 0 84.5 -29t31.5 -74q0 -27 -18 -46.5t-47 -19.5q-25 0 -44 15 t-19 38q0 15 4 24t9 12t9 7t4 9q0 4 -6.5 8t-15.5 4q-14 0 -37 -33t-23 -76q0 -95 -20 -144t-68 -67q74 -10 114.5 -68.5t40.5 -148.5q0 -31 4 -50t13 -26t15 -8.5t18 -1.5q20 0 30 23.5t13 75.5h42q-2 -90 -32 -132.5t-92 -42.5q-134 0 -134 159q0 59 -6 91t-26 56.5 t-57.5 33.5t-101.5 9v-240q0 -32 14.5 -39.5t75.5 -7.5h19v-47h-329v47h18q61 0 75.5 7.5t14.5 39.5v240q-64 0 -101.5 -9.5t-57.5 -34t-26 -56.5t-6 -90q0 -159 -134 -159q-62 0 -92 42.5t-32 132.5z" />
<glyph unicode="&#x417;" horiz-adv-x="608" d="M5 226q0 30 18 48t52 18q32 0 51 -16t19 -46q0 -40 -32 -56q-11 -6 -14.5 -7.5t-7.5 -6.5t-4 -11q0 -28 59 -68t128 -40q68 0 116.5 46t48.5 113q0 68 -46 112t-95 45h-98v53h98q63 0 94 44.5t31 109.5q0 59 -46.5 91t-93.5 32q-52 0 -84 -19.5t-64 -65.5 q-40 -57 -60 -134h-43l12 260h37l40 -60q72 69 163 69q103 0 172 -51t69 -141q0 -49 -32 -100t-73 -61q74 0 105 -51t31 -128q0 -98 -82.5 -159.5t-196.5 -61.5q-110 0 -191 65.5t-81 176.5z" />
<glyph unicode="&#x418;" horiz-adv-x="833" d="M29 0v47h18q61 0 75.5 7.5t14.5 39.5v534q0 32 -14.5 39.5t-75.5 7.5h-18v47h329v-47h-19q-62 0 -76.5 -7t-14.5 -40v-414l336 336v78q0 32 -14.5 39.5t-75.5 7.5h-14v47h324v-47h-18q-61 0 -75.5 -7.5t-14.5 -39.5v-534q0 -32 14.5 -39.5t75.5 -7.5h18v-47h-328v47h18 q61 0 75.5 7.5t14.5 39.5v383l-336 -337v-46q0 -31 15 -39t76 -8h19v-47h-329z" />
<glyph unicode="&#x419;" horiz-adv-x="833" d="M29 0v47h18q61 0 75.5 7.5t14.5 39.5v534q0 32 -14.5 39.5t-75.5 7.5h-18v47h329v-47h-19q-62 0 -76.5 -7t-14.5 -40v-414l336 336v78q0 32 -14.5 39.5t-75.5 7.5h-14v47h324v-47h-18q-61 0 -75.5 -7.5t-14.5 -39.5v-534q0 -32 14.5 -39.5t75.5 -7.5h18v-47h-328v47h18 q61 0 75.5 7.5t14.5 39.5v383l-336 -337v-46q0 -31 15 -39t76 -8h19v-47h-329zM275 901v13h36q4 -45 31.5 -70t74.5 -25q46 0 73.5 25t31.5 70h36v-14q0 -61 -40.5 -102t-101.5 -41t-101 41t-40 103z" />
<glyph unicode="&#x41a;" horiz-adv-x="755" d="M30 0v47h18q61 0 75.5 7.5t14.5 39.5v534q0 32 -14.5 39.5t-75.5 7.5h-18v47h329v-47h-19q-61 0 -75.5 -7.5t-14.5 -39.5v-239q124 0 174 41t50 148q0 158 126 158q53 0 84.5 -29t31.5 -74q0 -27 -18 -46.5t-47 -19.5q-25 0 -44 15t-19 38q0 24 12 35.5t12 15.5 q0 13 -20 13q-8 0 -21.5 -13t-26 -40t-12.5 -56q0 -98 -20 -145.5t-68 -65.5q74 -10 114.5 -68.5t40.5 -148.5q0 -31 4 -50t13 -26t15 -8.5t18 -1.5q20 0 30 23.5t13 75.5h42q-2 -90 -32 -132.5t-92 -42.5q-63 0 -99.5 38.5t-36.5 120.5q0 109 -48 149t-176 41v-240 q0 -32 14.5 -39.5t75.5 -7.5h19v-47h-329z" />
<glyph unicode="&#x41b;" horiz-adv-x="849" d="M5 129q0 99 93 99q32 0 49.5 -19t17.5 -51q0 -25 -7.5 -37.5t-16.5 -15t-16.5 -10t-7.5 -23.5q0 -11 8.5 -20.5t22.5 -9.5q41 0 63.5 19t38.5 58q18 45 29.5 87t15.5 92t4.5 79t-0.5 96.5t-1 96.5q0 105 -90 105h-18v47h630v-47h-18q-57 0 -73.5 -13t-16.5 -47v-521 q0 -32 14.5 -39.5t75.5 -7.5h18v-47h-328v47h18q61 0 75.5 7.5t14.5 39.5v506q0 66 -76 69l-67 -1q-50 1 -66.5 -37.5t-16.5 -138.5v-68.5t-2 -72t-5.5 -77.5t-11.5 -72t-18.5 -70t-28 -57.5t-39 -48.5t-52 -29t-67.5 -12q-145 0 -145 144z" />
<glyph unicode="&#x41c;" horiz-adv-x="949" d="M29 0v47q72 3 94 35t22 134v412q0 32 -14.5 39.5t-75.5 7.5h-19v47h258l192 -533l183 533h251v-47h-18q-61 0 -75.5 -7.5t-14.5 -39.5v-534q0 -32 14.5 -39.5t75.5 -7.5h18v-47h-328v47h18q61 0 75.5 7.5t14.5 39.5v564l-223 -658h-40l-238 658v-442q0 -102 22 -134 t93 -35v-47h-285z" />
<glyph unicode="&#x41d;" horiz-adv-x="833" d="M29 0v47h18q61 0 75.5 7.5t14.5 39.5v534q0 32 -14.5 39.5t-75.5 7.5h-18v47h329v-47h-19q-61 0 -75.5 -7.5t-14.5 -39.5v-227h335v227q0 32 -14.5 39.5t-75.5 7.5h-14v47h324v-47h-18q-61 0 -75.5 -7.5t-14.5 -39.5v-534q0 -32 14.5 -39.5t75.5 -7.5h18v-47h-328v47h18 q61 0 75.5 7.5t14.5 39.5v253h-335v-253q0 -32 14.5 -39.5t75.5 -7.5h19v-47h-329z" />
<glyph unicode="&#x41e;" horiz-adv-x="778" d="M45 360q0 85 32 162.5t90 130.5q91 84 226 84q144 0 242 -108.5t98 -267.5q0 -161 -98.5 -268.5t-245.5 -107.5q-146 0 -245 107.5t-99 267.5zM177 363q0 -93 11 -146t39 -99q55 -86 162 -86t162 86q28 45 39 98.5t11 144.5t-11 145t-39 98q-56 86 -159 86 q-110 0 -165 -86q-28 -45 -39 -98t-11 -143z" />
<glyph unicode="&#x41f;" horiz-adv-x="833" d="M29 0v47h18q61 0 75.5 7.5t14.5 39.5v534q0 32 -14.5 39.5t-75.5 7.5h-18v47h775v-47h-18q-61 0 -75.5 -7.5t-14.5 -39.5v-534q0 -32 14.5 -39.5t75.5 -7.5h18v-47h-328v47h18q61 0 75.5 7.5t14.5 39.5v574h-335v-574q0 -32 14.5 -39.5t75.5 -7.5h19v-47h-329z" />
<glyph unicode="&#x420;" horiz-adv-x="667" d="M28 0v47h18q61 0 75.5 7.5t14.5 39.5v534q0 32 -14.5 39.5t-75.5 7.5h-18v47h350q110 0 170 -31q101 -51 101 -167q0 -59 -29 -105.5t-82 -71.5q-55 -26 -177 -26h-113v-227q0 -32 14.5 -39.5t75.5 -7.5h26v-47h-336zM248 368h121q157 0 157 152q0 79 -37.5 117 t-115.5 38h-64q-41 0 -51 -8.5t-10 -42.5v-256z" />
<glyph unicode="&#x421;" horiz-adv-x="722" d="M45 354q0 151 94 263q101 120 245 120q50 0 87 -14t90 -53l40 59h38l15 -289h-44q-31 104 -57 149q-29 48 -73.5 74.5t-96.5 26.5q-48 0 -91 -24.5t-66 -66.5q-49 -86 -49 -249q0 -161 53.5 -239.5t164.5 -78.5q124 0 186 104q26 43 40 119l47 -8q-17 -126 -91 -194 t-194 -68q-148 0 -243 104t-95 265z" />
<glyph unicode="&#x422;" horiz-adv-x="667" d="M19 444l15 278h599l15 -278h-43q-12 85 -33 137q-19 45 -54 69.5t-81 24.5q-47 0 -47 -36v-545q0 -32 14.5 -39.5t74.5 -7.5h26v-47h-343v47h26q61 0 75.5 7.5t14.5 39.5v545q0 36 -47 36q-102 0 -142 -111q-17 -50 -27 -120h-43z" />
<glyph unicode="&#x423;" horiz-adv-x="725" d="M-6 675v47h309v-47h-38q-48 0 -48 -13q0 -5 11 -25l162 -319l138 284q14 30 14 34q0 39 -69 39h-14v47h275v-47h-16q-40 0 -78 -25t-59 -69l-242 -486q-11 -22 -17.5 -32t-24 -28.5t-44.5 -26.5t-65 -8q-125 0 -125 109q0 27 20 43.5t49 16.5q22 0 37.5 -12.5t15.5 -32.5 q0 -19 -6.5 -31t-13.5 -15.5t-13.5 -8t-6.5 -10.5q0 -12 43 -12q36 0 58 20.5t43 59.5l44 85l-238 425q-14 25 -29.5 31.5t-54.5 6.5h-17z" />
<glyph unicode="&#x424;" horiz-adv-x="856" d="M17 379q0 256 353 256v30q0 32 -14.5 39.5t-75.5 7.5h-20v47h331v-47h-20q-60 0 -74.5 -7.5t-14.5 -39.5v-30q181 0 269 -63.5t88 -196.5t-88.5 -197.5t-268.5 -63.5v-20q0 -32 14.5 -39.5t74.5 -7.5h20v-47h-331v47h20q61 0 75.5 7.5t14.5 39.5v21q-176 1 -264.5 64.5 t-88.5 199.5zM136 377q0 -53 9 -90t33 -69t71.5 -48t120.5 -16v443q-72 0 -119.5 -15.5t-72 -47t-33.5 -68.5t-9 -89zM482 153q75 0 124 15.5t73 47.5t32.5 68.5t8.5 90.5t-9 90.5t-33 68t-73 47.5t-123 16v-444z" />
<glyph unicode="&#x425;" horiz-adv-x="704" d="M-6 675v47h309v-47h-38q-48 0 -48 -13q0 -9 11 -25l133 -192l108 157q14 20 14 34q0 39 -69 39h-14v47h275v-47h-16q-40 0 -67.5 -19t-69.5 -75l-133 -181l210 -301q25 -37 41 -44.5t64 -7.5h12v-47h-328v47h28q47 1 57 3.5t10 14.5q0 11 -13 31l-149 211l-116 -168 q-16 -24 -16 -44q0 -22 17.5 -35t47.5 -13h25v-47h-284v47h4q75 0 131 80l162 225l-197 285q-17 25 -32 31.5t-52 6.5h-17z" />
<glyph unicode="&#x426;" horiz-adv-x="854" d="M29 0v47h18q61 0 75.5 7.5t14.5 39.5v534q0 32 -14.5 39.5t-75.5 7.5h-18v47h329v-47h-19q-61 0 -75.5 -7.5t-14.5 -39.5v-574h335v574q0 32 -14.5 39.5t-75.5 7.5h-18v47h328v-47h-18q-61 0 -75.5 -7.5t-14.5 -39.5v-534q0 -30 12.5 -38t51.5 -8h52l9 -238h-44 q-8 48 -13.5 74t-16 51t-21.5 35t-34 18.5t-49 10t-71 1.5h-543z" />
<glyph unicode="&#x427;" horiz-adv-x="786" d="M29 675v47h329v-47h-19q-61 0 -75.5 -7.5t-14.5 -39.5v-225q0 -34 32.5 -59t81.5 -25q56 0 87.5 12.5t86.5 56.5v240q0 32 -14.5 39.5t-75.5 7.5h-14v47h324v-47h-18q-61 0 -75.5 -7.5t-14.5 -39.5v-534q0 -32 14.5 -39.5t75.5 -7.5h18v-47h-328v47h18q61 0 75.5 7.5 t14.5 39.5v228q-47 -38 -80 -52t-87 -14q-106 0 -169.5 36.5t-63.5 98.5v237q0 32 -14.5 39.5t-75.5 7.5h-18z" />
<glyph unicode="&#x428;" horiz-adv-x="1195" d="M29 0v47h18q61 0 75.5 7.5t14.5 39.5v534q0 32 -14.5 39.5t-75.5 7.5h-18v47h329v-47h-19q-61 0 -75.5 -7.5t-14.5 -39.5v-574h293v574q0 32 -14.5 39.5t-75.5 7.5h-18v47h328v-47h-18q-61 0 -75.5 -7.5t-14.5 -39.5v-574h292v574q0 32 -14.5 39.5t-75.5 7.5h-18v47h328 v-47h-18q-61 0 -75.5 -7.5t-14.5 -39.5v-534q0 -32 14.5 -39.5t75.5 -7.5h18v-47h-1137z" />
<glyph unicode="&#x429;" horiz-adv-x="1217" d="M29 0v47h18q61 0 75.5 7.5t14.5 39.5v534q0 32 -14.5 39.5t-75.5 7.5h-18v47h329v-47h-19q-61 0 -75.5 -7.5t-14.5 -39.5v-574h293v574q0 32 -14.5 39.5t-75.5 7.5h-18v47h328v-47h-18q-61 0 -75.5 -7.5t-14.5 -39.5v-574h292v574q0 32 -14.5 39.5t-75.5 7.5h-18v47h328 v-47h-18q-61 0 -75.5 -7.5t-14.5 -39.5v-534q0 -29 14.5 -37.5t47.5 -9.5h59l9 -237h-44q-5 31 -8 64t-3 49t-4.5 33t-9.5 23.5t-21 12.5t-36.5 7t-58.5 1h-974z" />
<glyph unicode="&#x42a;" horiz-adv-x="883" d="M19 466l14 256h513v-47h-26q-61 0 -75.5 -7.5t-14.5 -39.5v-227h113q122 0 177 -26q53 -25 82 -71.5t29 -105.5q0 -116 -101 -167q-60 -31 -170 -31h-350v47h18q61 0 75.5 7.5t14.5 39.5v534q0 32 -14.5 39.5t-75.5 7.5h-41q-71 0 -92.5 -37t-31.5 -172h-44zM430 98 q0 -34 10 -42.5t51 -8.5h64q78 0 115.5 38t37.5 117q0 152 -157 152h-121v-256z" />
<glyph unicode="&#x42b;" horiz-adv-x="1094" d="M28 0v47h18q61 0 75.5 7.5t14.5 39.5v534q0 32 -14.5 39.5t-75.5 7.5h-18v47h336v-47h-26q-61 0 -75.5 -7.5t-14.5 -39.5v-227h113q122 0 177 -26q53 -25 82 -71.5t29 -105.5q0 -116 -101 -167q-60 -31 -170 -31h-350zM248 98q0 -34 10 -42.5t51 -8.5h64q78 0 115.5 38 t37.5 117q0 152 -157 152h-121v-256zM734 2v47h20q61 0 75.5 7.5t14.5 39.5v534q0 32 -14.5 39.5t-75.5 7.5h-20v47h331v-47h-20q-60 0 -74.5 -7.5t-14.5 -39.5v-534q0 -32 14.5 -39.5t74.5 -7.5h20v-47h-331z" />
<glyph unicode="&#x42c;" horiz-adv-x="701" d="M28 0v47h18q61 0 75.5 7.5t14.5 39.5v534q0 32 -14.5 39.5t-75.5 7.5h-18v47h336v-47h-26q-61 0 -75.5 -7.5t-14.5 -39.5v-227h113q122 0 177 -26q53 -25 82 -71.5t29 -105.5q0 -116 -101 -167q-60 -31 -170 -31h-350zM248 98q0 -34 10 -42.5t51 -8.5h64q78 0 115.5 38 t37.5 117q0 152 -157 152h-121v-256z" />
<glyph unicode="&#x42d;" horiz-adv-x="668" d="M5 232q0 24 21 42t46 18q71 0 71 -60q0 -32 -15.5 -45.5t-31 -17t-15.5 -12.5q0 -44 60.5 -84.5t131.5 -40.5q111 0 164.5 78.5t53.5 239.5h-287v47h287q-4 123 -49 202q-23 42 -66 66.5t-91 24.5q-40 0 -72 -13t-52 -31.5t-38 -54t-28 -63.5t-25 -77h-44l15 289h38 l40 -59q51 37 81 46.5t84 9.5q144 0 245 -120q94 -112 94 -263q0 -161 -95 -265t-243 -104q-122 0 -201 75.5t-79 171.5z" />
<glyph unicode="&#x42e;" horiz-adv-x="1167" d="M29 0v47h18q61 0 75.5 7.5t14.5 39.5v534q0 32 -14.5 39.5t-75.5 7.5h-18v47h329v-47h-19q-61 0 -75.5 -7.5t-14.5 -39.5v-227h187q14 155 120 252q92 84 226 84q144 0 242 -108.5t98 -267.5q0 -161 -98.5 -268.5t-245.5 -107.5q-143 0 -240.5 103.5t-102.5 258.5h-186 v-253q0 -32 14.5 -39.5t75.5 -7.5h19v-47h-329zM566 363q0 -93 11 -146t39 -99q55 -86 162 -86t162 86q28 45 39 98.5t11 144.5t-11 145t-39 98q-56 86 -159 86q-110 0 -165 -86q-28 -45 -39 -98t-11 -143z" />
<glyph unicode="&#x42f;" horiz-adv-x="728" d="M12 160h42q3 -52 13 -75.5t30 -23.5q17 0 27.5 19.5t22.5 66.5l16 63q18 70 49 104.5t90 49.5q-213 30 -213 179q0 85 69 132t195 47h346v-47h-18q-61 0 -75.5 -7.5t-14.5 -39.5v-534q0 -32 14.5 -39.5t75.5 -7.5h18v-47h-328v47h18q61 0 75.5 7.5t14.5 39.5v256h-58 q-64 0 -101 -30q-23 -18 -34.5 -45.5t-16.5 -79.5l-5 -51q-15 -159 -128 -159q-62 0 -92 42.5t-32 132.5zM212 542q0 -80 39 -111q40 -34 118 -34h110v220q0 30 -1.5 37.5t-9.5 13.5q-9 7 -58 7h-54q-74 0 -109 -32.5t-35 -100.5z" />
<glyph unicode="&#x430;" horiz-adv-x="556" d="M44 102q0 94 128 142q61 24 186 45v39q0 63 -26 85q-27 25 -82 25q-36 0 -62.5 -11.5t-26.5 -27.5q0 -5 7 -13q15 -21 15 -41q0 -22 -15.5 -36.5t-38.5 -14.5q-26 0 -42 17t-16 45q0 54 55.5 89.5t139.5 35.5q95 0 146 -40q40 -33 40 -119v-201q0 -38 8.5 -53.5 t29.5 -15.5q9 0 28 7q9 4 15 4q10 0 10 -12q0 -22 -29 -40t-63 -18q-35 0 -55.5 16.5t-32.5 54.5q-67 -79 -174 -79q-66 0 -105.5 32t-39.5 85zM145 116q0 -34 22.5 -56t56.5 -22q32 0 63.5 17t50.5 45q13 20 16.5 37.5t3.5 62.5v46q-105 -17 -148 -37q-65 -31 -65 -93z" />
<glyph unicode="&#x431;" horiz-adv-x="500" d="M34 232q0 220 48 316q16 33 36 55t38 33.5t46.5 17.5t49 7t58.5 1h19h18.5t15.5 0.5t15.5 1.5t13 3.5t12 5.5t9.5 8t8.5 11t5.5 14.5t5 19.5h42q2 -27 -3 -49.5t-12.5 -39t-23.5 -29t-29 -20.5t-37.5 -14t-39 -8.5t-43.5 -4t-42.5 -1.5h-43.5q-44 0 -66 -38.5t-28 -117.5 q23 40 65 58.5t81 18.5q89 0 151.5 -72.5t62.5 -175.5t-63 -175.5t-153 -72.5t-153 72t-63 175zM139 232q0 -99 28.5 -151.5t82.5 -52.5t82.5 52.5t28.5 152.5q0 99 -28 152t-81 53q-113 0 -113 -206z" />
<glyph unicode="&#x432;" horiz-adv-x="551" d="M23 0v36h18q38 0 49.5 9t11.5 31v282q0 2 0.5 11t0 12t-2 10t-5.5 9.5t-10.5 6t-17.5 5t-26 1.5h-18v53h264q62 0 103.5 -7.5t70 -32t28.5 -66.5q0 -97 -145 -117q96 -7 135.5 -33t39.5 -75q0 -135 -236 -135h-260zM198 88q0 -26 5.5 -33.5t26.5 -7.5h7q89 0 136.5 19 t47.5 71q0 26 -16 43.5t-47.5 25t-61 10t-71.5 2.5h-27v-130zM198 264h33q92 0 125.5 18.5t33.5 61.5q0 41 -41.5 59t-96.5 18h-23q-21 0 -26 -5t-5 -24v-128z" />
<glyph unicode="&#x433;" horiz-adv-x="458" d="M22 430v36h415l9 -170h-40q-7 68 -36.5 97t-90.5 29h-39q-20 0 -29.5 -9.5t-11 -18.5t-1.5 -27v-284q0 -30 13.5 -38.5t62.5 -8.5h4v-36h-253v36h4q48 0 61.5 8.5t13.5 38.5v300q0 30 -13.5 38.5t-61.5 8.5h-7z" />
<glyph unicode="&#x434;" horiz-adv-x="602" d="M17 -126l9 170h58q17 0 26.5 10t18.5 28q33 67 33 236v50q0 13 -1.5 21t-8 19t-23 16.5t-41.5 5.5h-18v36h510v-36h-18q-39 0 -52 -9t-13 -30v-300q0 -31 7 -39t40 -8h34l9 -170h-40q-7 68 -36.5 97t-90.5 29h-236q-61 0 -90.5 -29t-36.5 -97h-40zM191 66q0 -14 15 -14 h132q65 0 65 35v281q0 27 -6 35.5t-30 8.5h-85q-35 0 -44 -16t-9 -78q0 -169 -33 -236q-5 -12 -5 -16z" />
<glyph unicode="&#x435;" horiz-adv-x="500" d="M35 220q0 112 64 186.5t160 74.5q91 0 149 -71.5t57 -184.5h-324q-1 -76 25 -120q39 -66 114 -66q50 0 84.5 24.5t65.5 82.5l35 -19q-61 -142 -204 -142q-101 0 -163.5 65t-62.5 170zM142 268h175q24 0 32.5 7.5t8.5 29.5q0 60 -27.5 96.5t-73.5 36.5q-70 0 -101 -89 q-14 -39 -14 -81z" />
<glyph unicode="&#x436;" horiz-adv-x="864" d="M8 103h42q6 -64 43 -64q28 0 39 12t11 44q0 58 40.5 95.5t114.5 44.5q-88 21 -88 136q0 29 -19.5 49.5t-40.5 20.5q-23 0 -23 -10q0 -2 8 -9t8 -22q0 -36 -46 -36q-23 0 -37 13t-14 32q0 30 25 48t71 18q56 0 86.5 -29.5t30.5 -72.5q0 -71 23 -93.5t103 -22.5v108v9v10.5 t-0.5 9.5t-2.5 10t-5 8.5t-7.5 8t-11 5.5t-15.5 4t-20 1h-18v35h254v-35h-18q-11 0 -20 -1t-15.5 -4t-11 -5.5t-7.5 -8t-5 -8.5t-2.5 -10t-0.5 -9.5v-10.5v-9v-108q80 0 103 22.5t23 93.5q0 43 30.5 72.5t86.5 29.5q46 0 71 -18t25 -48q0 -19 -14 -32t-37 -13q-46 0 -46 36 q0 15 8 22t8 9q0 10 -23 10q-21 0 -40.5 -20.5t-19.5 -49.5q0 -115 -88 -136q74 -7 114.5 -44.5t40.5 -95.5q0 -32 11 -44t39 -12q37 0 43 64h42q-4 -113 -124 -113q-127 0 -127 113q0 73 -21 91.5t-106 18.5v-113v-5q0 -14 1 -21.5t6.5 -18t19 -15.5t36.5 -5h18v-35h-254 v35h18q23 0 36.5 5t19 15.5t6.5 17.5t1 22v5v113q-85 0 -106 -18.5t-21 -91.5q0 -113 -127 -113q-120 0 -124 113z" />
<glyph unicode="&#x437;" horiz-adv-x="411" d="M10 116q0 32 16 48.5t39 16.5q21 0 37 -11.5t16 -33.5q0 -18 -11 -26.5t-22.5 -11.5t-11.5 -8q0 -8 11 -19q3 -5 9 -12t34 -19t65 -12q35 0 66 27.5t31 77.5q0 33 -26 59t-81 26h-42v48h40q102 0 102 86q0 34 -25.5 59.5t-66.5 25.5q-48 0 -82 -40q-24 -28 -45 -88h-35 v168h35l29 -36q29 23 51 31.5t57 8.5q68 0 109.5 -34.5t41.5 -98.5q0 -66 -43 -96q15 -2 27 -12q45 -37 45 -101q0 -70 -49.5 -112t-131.5 -42q-85 0 -137 38.5t-52 92.5z" />
<glyph unicode="&#x438;" horiz-adv-x="617" d="M27 430v36h258v-36h-7q-48 0 -61.5 -8.5t-13.5 -38.5v-217l220 189v28q0 30 -13.5 38.5t-62.5 8.5h-7v36h260v-36h-7q-49 0 -62.5 -8.5t-13.5 -38.5v-300q0 -30 13.5 -38.5t61.5 -8.5h4v-36h-253v36h4q49 0 62.5 8.5t13.5 38.5v214l-220 -189v-25q0 -30 13.5 -38.5 t62.5 -8.5h4v-36h-253v36h4q48 0 61.5 8.5t13.5 38.5v300q0 30 -13.5 38.5t-61.5 8.5h-7z" />
<glyph unicode="&#x439;" horiz-adv-x="617" d="M27 430v36h258v-36h-7q-48 0 -61.5 -8.5t-13.5 -38.5v-217l220 189v28q0 30 -13.5 38.5t-62.5 8.5h-7v36h260v-36h-7q-49 0 -62.5 -8.5t-13.5 -38.5v-300q0 -30 13.5 -38.5t61.5 -8.5h4v-36h-253v36h4q49 0 62.5 8.5t13.5 38.5v214l-220 -189v-25q0 -30 13.5 -38.5 t62.5 -8.5h4v-36h-253v36h4q48 0 61.5 8.5t13.5 38.5v300q0 30 -13.5 38.5t-61.5 8.5h-7zM171 728v13h36q4 -45 31.5 -70t74.5 -25q46 0 73.5 25t31.5 70h36v-14q0 -61 -40.5 -102t-101.5 -41t-101 41t-40 103z" />
<glyph unicode="&#x43a;" horiz-adv-x="591" d="M27 430v36h258v-36h-7q-48 0 -61.5 -8.5t-13.5 -38.5v-126q86 0 113 20.5t27 95.5q0 102 114 102q47 0 73.5 -18t26.5 -47q0 -20 -14 -33t-37 -13q-20 0 -34.5 9.5t-14.5 26.5q0 16 9.5 22.5t9.5 9.5q0 9 -22 9q-18 0 -39 -21t-21 -49q0 -63 -19.5 -96.5t-68.5 -39.5 q74 -7 114.5 -44.5t40.5 -95.5q0 -29 15 -42.5t35 -13.5q37 0 43 64h42q-4 -113 -124 -113q-129 0 -129 103q0 39 -3.5 58.5t-17.5 35.5t-41.5 21t-77.5 5v-130q0 -30 13.5 -38.5t62.5 -8.5h4v-36h-253v36h4q48 0 61.5 8.5t13.5 38.5v300q0 30 -13.5 38.5t-61.5 8.5h-7z" />
<glyph unicode="&#x43b;" horiz-adv-x="666" d="M51 84q0 25 16 41.5t44 16.5q27 0 40.5 -14.5t13.5 -35.5q0 -19 -13.5 -29t-13.5 -13q0 -7 4 -9.5t16 -2.5q39 0 64 39q17 27 25.5 72.5t9.5 78t1 90.5v50v9.5t-0.5 11.5t-2 10t-4.5 10t-8.5 8t-13 7t-19 4t-26.5 2h-18v36h483v-36h-18q-39 0 -52 -9t-13 -30v-322 q0 -33 61 -33h18v-36h-253v36h15q65 0 65 35v297v14t-1.5 11t-2.5 8t-5 5t-5.5 3t-8.5 1.5t-9.5 1t-13 0.5h-15.5h-36q-32 0 -41 -7.5t-9 -35.5v-51q0 -80 -6.5 -135.5t-24 -101.5t-50.5 -68t-83 -22q-58 0 -84 22t-26 71z" />
<glyph unicode="&#x43c;" horiz-adv-x="714" d="M27 430v36h311v-36h-14q-31 0 -42.5 -5t-11.5 -18q0 -11 5 -21l114 -265l92 232q9 27 9 42q0 35 -54 35h-14v36h275v-36h-7q-49 0 -62.5 -8.5t-13.5 -38.5v-300q0 -30 13.5 -38.5t61.5 -8.5h4v-36h-253v36h4q49 0 62.5 8.5t13.5 38.5v240l-137 -338h-35l-145 338v-240 q0 -30 13.5 -38.5t62.5 -8.5h4v-36h-253v36h4q48 0 61.5 8.5t13.5 38.5v300q0 30 -13.5 38.5t-61.5 8.5h-7z" />
<glyph unicode="&#x43d;" horiz-adv-x="617" d="M27 430v36h258v-36h-7q-48 0 -61.5 -8.5t-13.5 -38.5v-118h220v118q0 30 -13.5 38.5t-62.5 8.5h-7v36h260v-36h-7q-49 0 -62.5 -8.5t-13.5 -38.5v-300q0 -30 13.5 -38.5t61.5 -8.5h4v-36h-253v36h4q49 0 62.5 8.5t13.5 38.5v131h-220v-131q0 -30 13.5 -38.5t62.5 -8.5h4 v-36h-253v36h4q48 0 61.5 8.5t13.5 38.5v300q0 30 -13.5 38.5t-61.5 8.5h-7z" />
<glyph unicode="&#x43e;" horiz-adv-x="500" d="M34 232q0 105 63 177t155 72q89 0 151.5 -72.5t62.5 -175.5t-63 -175.5t-153 -72.5t-153 72t-63 175zM139 232q0 -99 28.5 -151.5t82.5 -52.5t82.5 52.5t28.5 152.5q0 99 -28 152t-81 53q-113 0 -113 -206z" />
<glyph unicode="&#x43f;" horiz-adv-x="611" d="M24 430v36h573v-36h-7q-49 0 -62.5 -8.5t-13.5 -38.5v-300q0 -30 13.5 -38.5t61.5 -8.5h4v-36h-253v36h4q49 0 62.5 8.5t13.5 38.5v283q0 31 -11 39t-64 8h-69q-52 0 -64 -8t-12 -39v-283q0 -30 13.5 -38.5t62.5 -8.5h4v-36h-253v36h4q48 0 61.5 8.5t13.5 38.5v300 q0 30 -13.5 38.5t-61.5 8.5h-7z" />
<glyph unicode="&#x440;" horiz-adv-x="574" d="M28 -166h4q48 0 61.5 8.5t13.5 38.5v481q0 32 -7.5 41t-35.5 9h-36v43l173 11v-71q50 86 138 86q82 0 139 -71t57 -175q0 -107 -57.5 -178.5t-144.5 -71.5q-46 0 -76.5 19t-55.5 62v-185q0 -30 13.5 -38.5t62.5 -8.5h11v-36h-260v36zM200 228q0 -86 32.5 -137.5 t85.5 -51.5t82.5 52.5t29.5 149.5q0 88 -28.5 137t-80.5 49q-57 0 -89 -53t-32 -146z" />
<glyph unicode="&#x441;" horiz-adv-x="444" d="M34 225q0 112 63 184t160 72q67 0 111.5 -34.5t44.5 -84.5q0 -30 -17.5 -49t-43.5 -19t-43 15.5t-17 40.5q0 22 20 46q6 9 6 12q0 12 -17 21t-39 9q-55 0 -89 -55.5t-34 -146.5q0 -88 35 -139t95 -51q39 0 66.5 23.5t51.5 77.5l39 -15q-32 -80 -74 -113.5t-109 -33.5 q-93 0 -151 66.5t-58 173.5z" />
<glyph unicode="&#x442;" horiz-adv-x="521" d="M17 296l9 170h474l9 -170h-40q-7 72 -27.5 99t-79.5 27h-10q-20 0 -29.5 -9.5t-11 -18.5t-1.5 -27v-284q0 -30 13.5 -38.5t62.5 -8.5h4v-36h-253v36h4q48 0 61.5 8.5t13.5 38.5v284q0 18 -1.5 27t-11 18.5t-29.5 9.5h-10q-59 0 -79.5 -27t-27.5 -99h-40z" />
<glyph unicode="&#x443;" horiz-adv-x="537" d="M3 -129q0 27 17 44.5t43 17.5q22 0 36.5 -13t14.5 -32q0 -14 -7 -35q0 -10 16 -10q24 0 56 36t59 93l17 35l-163 369q-13 30 -28.5 42t-39.5 12h-11v36h238v-36h-21q-46 0 -46 -25q0 -7 6 -21l110 -257l91 226q10 24 10 40q0 37 -54 37h-16v36h200v-36h-6 q-29 0 -47 -17.5t-37 -63.5l-114 -282q-55 -139 -95 -193q-59 -80 -138 -80q-39 0 -65 22t-26 55z" />
<glyph unicode="&#x444;" horiz-adv-x="840" d="M36 228q0 108 57 180.5t142 72.5q84 0 138 -74v161q0 32 -7.5 41t-35.5 9h-36v43l173 11v-277q50 86 138 86q82 0 139 -71t57 -175q0 -107 -57.5 -178.5t-144.5 -71.5q-46 0 -76.5 19t-55.5 62v-185q0 -30 13.5 -38.5t62.5 -8.5h11v-36h-260v36h4q48 0 61.5 8t13.5 39 v191q-46 -87 -138 -87q-87 0 -143 68.5t-56 174.5zM141 216q0 -83 30 -130t83 -47q54 0 86 52.5t32 139.5q0 73 -19 120q-13 34 -40 55t-58 21t-56.5 -20t-38.5 -53q-19 -50 -19 -138zM466 228q0 -86 32.5 -137.5t85.5 -51.5t82.5 52.5t29.5 149.5q0 88 -28.5 137t-80.5 49 q-57 0 -89 -53t-32 -146z" />
<glyph unicode="&#x445;" horiz-adv-x="537" d="M9 0v36h6q46 0 90 52l115 134l-122 154q-25 32 -40 42t-43 12v36h237v-36h-14q-44 0 -44 -18q0 -10 10 -22l77 -98l63 75q20 25 20 41q0 22 -45 22h-19v36h207v-36h-9q-39 0 -75 -42l-114 -133l126 -170q36 -49 87 -49h7v-36h-252v36h7q53 0 53 18q0 11 -13 30l-76 101 l-84 -101q-8 -8 -8 -21q0 -16 14 -23q9 -4 35 -4h15v-36h-211z" />
<glyph unicode="&#x446;" horiz-adv-x="623" d="M27 0v36h7q48 0 61.5 8.5t13.5 38.5v300q0 30 -13.5 38.5t-61.5 8.5h-4v36h253v-36h-4q-49 0 -62.5 -8.5t-13.5 -38.5v-284q0 -31 12 -39t64 -8h69q53 0 64 8t11 39v284q0 30 -13.5 38.5t-62.5 8.5h-4v36h253v-36h-4q-48 0 -61.5 -8.5t-13.5 -38.5v-292q0 -31 7 -39 t40 -8h34l9 -170h-40q-7 68 -36.5 97t-90.5 29h-413z" />
<glyph unicode="&#x447;" horiz-adv-x="599" d="M27 430v36h258v-36h-7q-48 0 -61.5 -8.5t-13.5 -38.5v-92q0 -35 32 -61.5t73 -26.5q39 0 67.5 26t29.5 62v92q0 30 -13.5 38.5t-62.5 8.5h-7v36h260v-36h-7q-49 0 -62.5 -8.5t-13.5 -38.5v-300q0 -30 13.5 -38.5t61.5 -8.5h4v-36h-253v36h4q49 0 62.5 8.5t13.5 38.5v108 q-28 -24 -50 -31.5t-64 -7.5q-182 0 -182 112v119q0 30 -13.5 38.5t-61.5 8.5h-7z" />
<glyph unicode="&#x448;" horiz-adv-x="859" d="M27 0v36h7q48 0 61.5 8.5t13.5 38.5v300q0 30 -13.5 38.5t-61.5 8.5h-4v36h253v-36h-4q-49 0 -62.5 -8.5t-13.5 -38.5v-284q0 -31 12 -39t64 -8h108v331q0 30 -13.5 38.5t-61.5 8.5h-4v36h253v-36h-4q-49 0 -62.5 -8.5t-13.5 -38.5v-331h110q53 0 64 8t11 39v284 q0 30 -13.5 38.5t-62.5 8.5h-4v36h253v-36h-4q-48 0 -61.5 -8t-13.5 -38v-284q0 -33 15 -48.5t60 -15.5h7v-36h-815z" />
<glyph unicode="&#x449;" horiz-adv-x="866" d="M27 0v36h7q48 0 61.5 8.5t13.5 38.5v300q0 30 -13.5 38.5t-61.5 8.5h-4v36h253v-36h-4q-49 0 -62.5 -8.5t-13.5 -38.5v-284q0 -31 12 -39t64 -8h108v331q0 30 -13.5 38.5t-61.5 8.5h-4v36h253v-36h-4q-49 0 -62.5 -8.5t-13.5 -38.5v-331h110q53 0 64 8t11 39v284 q0 30 -13.5 38.5t-62.5 8.5h-4v36h253v-36h-4q-48 0 -61.5 -8.5t-13.5 -38.5v-292q0 -31 7 -39t40 -8h34l9 -170h-40q-7 68 -36.5 97t-90.5 29h-656z" />
<glyph unicode="&#x44a;" horiz-adv-x="685" d="M17 296l9 170h385v-44h-18q-15 0 -26 -1.5t-17.5 -5t-10.5 -6t-5.5 -9.5t-2 -10t0 -12t0.5 -11v-103h28q116 0 182 -15.5t88.5 -42.5t22.5 -71q0 -135 -239 -135h-257v36h18q38 0 49.5 9t11.5 31v291q0 18 -1.5 27t-11 18.5t-29.5 9.5h-10q-61 0 -90.5 -29t-36.5 -97h-40 zM332 88q0 -26 5.5 -33.5t26.5 -7.5h7q89 0 136.5 19t47.5 71q0 26 -16 43.5t-47.5 25t-61 10t-71.5 2.5h-27v-130z" />
<glyph unicode="&#x44b;" horiz-adv-x="838" d="M27 0v36h18q38 0 49.5 9t11.5 31v299q0 2 0.5 11t0 12t-2 10t-5.5 9.5t-10.5 6t-17.5 5t-26 1.5h-18v36h254v-36h-18q-15 0 -26 -1.5t-17.5 -5t-10.5 -6t-5.5 -9.5t-2 -10t0 -12t0.5 -11v-111h28q116 0 182 -15.5t88.5 -42.5t22.5 -71q0 -135 -239 -135h-257zM202 88 q0 -26 5.5 -33.5t26.5 -7.5h7q89 0 136.5 19t47.5 71q0 26 -16 43.5t-47.5 25t-61 10t-71.5 2.5h-27v-130zM562 0v36h7q48 0 61.5 8.5t13.5 38.5v300q0 30 -13.5 38.5t-61.5 8.5h-7v36h259v-36h-7q-49 0 -62.5 -8.5t-13.5 -38.5v-300q0 -30 13.5 -38.5t62.5 -8.5h7v-36h-259 z" />
<glyph unicode="&#x44c;" horiz-adv-x="555" d="M27 0v36h18q38 0 49.5 9t11.5 31v282q0 2 0.5 11t0 12t-2 10t-5.5 9.5t-10.5 6t-17.5 5t-26 1.5h-18v53h254v-53h-18q-15 0 -26 -1.5t-17.5 -5t-10.5 -6t-5.5 -9.5t-2 -10t0 -12t0.5 -11v-94h28q116 0 182 -15.5t88.5 -42.5t22.5 -71q0 -135 -239 -135h-257zM202 88 q0 -26 5.5 -33.5t26.5 -7.5h7q89 0 136.5 19t47.5 71q0 26 -16 43.5t-47.5 25t-61 10t-71.5 2.5h-27v-130z" />
<glyph unicode="&#x44d;" horiz-adv-x="439" d="M8 116q0 26 16.5 45.5t38.5 19.5q19 0 35 -13.5t16 -31.5q0 -14 -6.5 -22t-15 -10t-15 -5.5t-6.5 -8.5q0 -9 8.5 -19.5t32.5 -21t59 -10.5q55 0 90 48.5t40 126.5h-129v51h128q-5 79 -38 126t-84 47q-22 0 -39 -9t-17 -21q0 -3 6 -12q20 -24 20 -46q0 -25 -17 -40.5 t-43 -15.5t-43.5 19t-17.5 49q0 50 44.5 84.5t111.5 34.5q97 0 160 -72t63 -184q0 -107 -58 -173.5t-151 -66.5q-85 0 -137 38t-52 93z" />
<glyph unicode="&#x44e;" horiz-adv-x="777" d="M27 430v36h258v-36h-7q-48 0 -61.5 -8.5t-13.5 -38.5v-118q85 3 110 0q10 93 71 154.5t145 61.5q89 0 151.5 -72.5t62.5 -175.5t-63 -175.5t-153 -72.5q-85 0 -147 66.5t-68 162.5h-109v-131q0 -30 13.5 -38.5t62.5 -8.5h4v-36h-253v36h4q48 0 61.5 8.5t13.5 38.5v300 q0 30 -13.5 38.5t-61.5 8.5h-7zM416 232q0 -99 28.5 -151.5t82.5 -52.5t82.5 52.5t28.5 152.5q0 99 -28 152t-81 53q-113 0 -113 -206z" />
<glyph unicode="&#x44f;" horiz-adv-x="552" d="M8 103h42q6 -64 44 -64q49 0 49 56q0 75 65 113q-94 11 -131.5 41t-37.5 82q0 135 239 135h257v-36h-18q-38 0 -49.5 -9t-11.5 -31v-282q0 -2 -0.5 -11t0 -12t2 -10t5.5 -9.5t10.5 -6t17.5 -5t26 -1.5h18v-53h-254v53h18q15 0 26 1.5t17.5 5t10.5 6t5.5 9.5t2 10t0 12 t-0.5 11v94h-52q-30 0 -39 -21.5t-9 -73.5q0 -55 -34 -86t-94 -31q-120 0 -124 113zM137 329q0 -26 16 -43.5t47.5 -25t61 -10t71.5 -2.5h27v130q0 26 -5.5 33.5t-26.5 7.5h-7q-89 0 -136.5 -19t-47.5 -71z" />
<glyph unicode="&#x450;" horiz-adv-x="500" d="M35 220q0 112 64 186.5t160 74.5q91 0 149 -71.5t57 -184.5h-324q-1 -76 25 -120q39 -66 114 -66q50 0 84.5 24.5t65.5 82.5l35 -19q-61 -142 -204 -142q-101 0 -163.5 65t-62.5 170zM54 677q0 15 10.5 25t25.5 10q18 0 50 -31l140 -140h-42l-158 97q-26 16 -26 39z M142 268h175q24 0 32.5 7.5t8.5 29.5q0 60 -27.5 96.5t-73.5 36.5q-70 0 -101 -89q-14 -39 -14 -81z" />
<glyph unicode="&#x451;" horiz-adv-x="500" d="M35 220q0 112 64 186.5t160 74.5q91 0 149 -71.5t57 -184.5h-324q-1 -76 25 -120q39 -66 114 -66q50 0 84.5 24.5t65.5 82.5l35 -19q-61 -142 -204 -142q-101 0 -163.5 65t-62.5 170zM108 594q0 20 15 35t35 15t35 -15t15 -35q0 -21 -15 -35.5t-36 -14.5q-20 0 -34.5 15 t-14.5 35zM142 268h175q24 0 32.5 7.5t8.5 29.5q0 60 -27.5 96.5t-73.5 36.5q-70 0 -101 -89q-14 -39 -14 -81zM307 594q0 20 15 35t35 15t35 -15t15 -35q0 -21 -15 -35.5t-36 -14.5q-20 0 -34.5 15t-14.5 35z" />
<glyph unicode="&#x452;" horiz-adv-x="611" d="M15 683v43l185 11v-139h150v-54h-150v-160q65 97 158 97q45 0 80.5 -20.5t54.5 -56.5q13 -25 17 -47.5t4 -76.5v-197q0 -124 -111 -177q-55 -26 -140 -26v51q157 0 157 152v201q0 69 -22 101q-11 15 -31.5 25t-39.5 10q-32 0 -62.5 -21t-46.5 -55q-18 -38 -18 -118v-143 q0 -30 13.5 -38.5t62.5 -8.5h4v-36h-253v36h4q48 0 61.5 8.5t13.5 38.5v461h-90v54h90v35q1 32 -7 41t-36 9h-48z" />
<glyph unicode="&#x453;" horiz-adv-x="458" d="M22 430v36h415l9 -170h-40q-7 68 -36.5 97t-90.5 29h-39q-20 0 -29.5 -9.5t-11 -18.5t-1.5 -27v-284q0 -30 13.5 -38.5t62.5 -8.5h4v-36h-253v36h4q48 0 61.5 8.5t13.5 38.5v300q0 30 -13.5 38.5t-61.5 8.5h-7zM209 541l140 140q31 31 50 31q14 0 24.5 -10.5t10.5 -24.5 q0 -22 -25 -39l-159 -97h-41z" />
<glyph unicode="&#x454;" horiz-adv-x="444" d="M34 225q0 112 63 184t160 72q67 0 111.5 -34.5t44.5 -84.5q0 -30 -17.5 -49t-43.5 -19t-43 15.5t-17 40.5q0 22 20 46q6 9 6 12q0 12 -17 21t-39 9q-51 0 -84 -47t-38 -126h128v-51h-129q5 -77 40 -122.5t90 -45.5q39 0 66.5 23.5t51.5 77.5l39 -15q-32 -80 -74 -113.5 t-109 -33.5q-93 0 -151 66.5t-58 173.5z" />
<glyph unicode="&#x455;" horiz-adv-x="463" d="M51 -7v189h40q18 -75 61.5 -114.5t106.5 -39.5q44 0 72 22.5t28 57.5q0 30 -23.5 47.5t-83.5 31.5l-53 12q-76 18 -106 45q-35 32 -35 92q0 65 40 105t106 40q71 0 122 -40l29 36h35v-168h-35q-21 60 -49 88q-41 40 -97 40q-41 0 -67 -19.5t-26 -49.5q0 -37 35 -53 q18 -10 73 -22l50 -11q46 -10 66.5 -18t38.5 -24q42 -35 42 -101q0 -70 -44.5 -112t-118.5 -42q-76 0 -137 49l-35 -41h-35z" />
<glyph unicode="&#x456;" horiz-adv-x="315" d="M18 412v43l188 11v-383q0 -30 13.5 -38.5t62.5 -8.5h7v-36h-259v36h7q48 0 61.5 8.5t13.5 38.5v279q0 32 -7.5 41t-35.5 9h-51zM101 657q0 24 17 41t41 17t41 -17t17 -41t-17 -41t-42 -17q-23 0 -40 17.5t-17 40.5z" />
<glyph unicode="&#x457;" horiz-adv-x="315" d="M8 594q0 20 15 35t35 15t35 -15t15 -35q0 -21 -15 -35.5t-36 -14.5q-20 0 -34.5 15t-14.5 35zM22 412v43l188 11v-383q0 -30 13.5 -38.5t62.5 -8.5h7v-36h-259v36h7q48 0 61.5 8.5t13.5 38.5v279q0 32 -7.5 41t-35.5 9h-51zM207 594q0 20 15 35t35 15t35 -15t15 -35 q0 -21 -15 -35.5t-36 -14.5q-20 0 -34.5 15t-14.5 35z" />
<glyph unicode="&#x458;" horiz-adv-x="296" d="M-82 -120q0 26 16 43t40 17q21 0 36.5 -14t15.5 -33q0 -9 -7 -24q-5 -13 -5 -16q0 -13 25 -13q16 0 32 10t23 25q19 39 19 148v339q0 32 -7.5 41t-35.5 9h-58v43l195 11v-395q0 -85 -9 -130t-32 -78q-47 -65 -136 -65q-50 0 -81 22.5t-31 59.5zM102 657q0 24 17 41t41 17 t41 -17t17 -41t-17 -41t-42 -17q-23 0 -40 17.5t-17 40.5z" />
</font>
</defs>
</svg>
